<svg viewBox="0 0 12960 720" xmlns="http://www.w3.org/2000/svg"><path d="M0 720h1440V0H0z" fill="#ff2626"/><path d="M454.56 407.52h-9.63V285.45h-19.56c-14.29 0-25.46 3.93-32.79 11.34-7.33 7.41-11.32 18.48-11.32 32.63v78.1h-9.56v-78.11c0-14.11-3.93-25.28-11.32-32.63-7.39-7.35-18.48-11.34-32.63-11.34h-19.66v122h-9.61V275.88h29.29a68.822 68.822 0 0122.33 3.48A43.798 43.798 0 01367.18 290a43.007 43.007 0 019.46 13.76 39.91 39.91 0 019.24-13.76A43.796 43.796 0 01403 279.34a69.248 69.248 0 0122.43-3.46h29.17v131.64zm63.81-92.24a34.002 34.002 0 0113.43 8.18 36.335 36.335 0 018.2 13.24 52.79 52.79 0 012.58 17.3v53.5h-41.29c-9.24 0-16.4-2.58-21.62-7.67-5.22-5.09-7.67-12.39-7.67-21.47v-29.29h41.54a30.077 30.077 0 0119.54 6.11V354c0-10.46-2.79-18.48-8-23.71s-13.43-8.2-23.71-8.2h-29.31v-9.57h29.29c5.788-.1 11.547.845 17 2.79zm-36.77 43.4v19.66c0 12.88 6.62 19.54 19.66 19.54H533v-19.54c0-13.07-6.62-19.66-19.54-19.66zm124.83-43.58a33.419 33.419 0 0121.62 21.62 52.475 52.475 0 012.58 17.08v53.71h-9.55v-53.7c0-10.3-2.79-18.3-8-23.71s-13.43-8-23.71-8h-19.68v85.44h-9.59v-95h29.29a52.474 52.474 0 0117 2.61zM717 378.22c0 9.24-2.58 16.4-7.86 21.62-5.28 5.22-12.21 7.67-21.47 7.67h-41.31v-53.7a52.475 52.475 0 012.58-17.08 38.659 38.659 0 018.2-13.43 39.519 39.519 0 0113.25-8.2 54.306 54.306 0 0117.26-2.58h19.65v-36.64h9.59v102.34zm-29.29-56.15c-10.3 0-18.3 2.79-23.71 8s-8 13.43-8 23.71v44.11h31.73c13.07 0 19.66-6.62 19.66-19.66v-56.15h-19.71zm91.26-7a33.419 33.419 0 0121.62 21.62 52.475 52.475 0 012.58 17.08v53.71h-29.09a52.795 52.795 0 01-17.26-2.58 33.419 33.419 0 01-21.62-21.62 52.818 52.818 0 01-2.58-17.26v-53.54h29.29a52.474 52.474 0 0117 2.61zm-36.78 7V366c0 10.46 2.79 18.48 8 23.89s13.43 8 23.89 8h19.52v-44.08c0-10.3-2.79-18.3-8-23.71s-13.43-8-23.71-8h-19.74zm147.32 0h-29.09c-10.46 0-18.48 2.79-23.89 8s-8 13.43-8 23.71v53.71h-9.59v-53.68a52.448 52.448 0 012.58-17.08 33.419 33.419 0 0121.62-21.62 52.818 52.818 0 0117.26-2.58h29.11v9.59zm17.24-56.5c5.41 7 8.2 16 8.2 27.21v114.74h-9.59V292.79c0-8.89-2.1-16.22-6.11-21.47l-3-3.68 7.67-5.9zm72 49.7a34.007 34.007 0 0113.43 8.2 36.348 36.348 0 018.2 13.25 52.795 52.795 0 012.58 17.26v53.53h-41.32c-9.24 0-16.4-2.58-21.62-7.67-5.22-5.09-7.67-12.38-7.67-21.47v-29.28h41.5a30.078 30.078 0 0119.54 6.11V354c0-10.46-2.79-18.48-8-23.71s-13.43-8.2-23.71-8.2h-29.41v-9.59h29.29a48.104 48.104 0 0117.06 2.77h.1zm-36.8 43.41v19.66c0 12.88 6.62 19.54 19.66 19.54h31.63v-19.54c0-13.07-6.62-19.66-19.54-19.66h-31.78zm94.15-46.2h18.3v9.59h-18.3v56.15c0 13.07 6.62 19.66 19.66 19.66h4.7v9.59h-4.7c-9.24 0-16.4-2.58-21.62-7.67-5.22-5.09-7.67-12.38-7.67-21.62v-56.1h-18.3v-9.59h18.3v-36.6h9.53v36.61zm81.25 2.61a33.419 33.419 0 0121.62 21.62 52.448 52.448 0 012.58 17.08v53.71h-29.19a52.818 52.818 0 01-17.26-2.58 33.419 33.419 0 01-21.62-21.62 52.818 52.818 0 01-2.58-17.26v-53.56h29.29a52.46 52.46 0 0117.08 2.61zm-36.78 7V366c0 10.46 2.79 18.48 8 23.89s13.43 8 23.89 8H1132v-44.08c0-10.3-2.79-18.3-8-23.71s-13.43-8-23.71-8h-19.72z" fill="#fff"/><path d="M786.93 483.16v53.18H756.4c-26.15 0-41.85-15.73-41.85-41.85v-53.16h30.51c26.15 0 41.85 15.73 41.85 41.85zm-56.83-26.32v37.66c0 8.71 2.26 15.33 6.62 19.66s11 6.62 19.66 6.62h15v-37.62c0-8.71-2.26-15.33-6.62-19.66s-11-6.62-19.66-6.62h-15zm89.78-232v53.88h-28.4c-26.15 0-41.15-15-41.15-41.15v-53.91h28.41c26.14 0 41.14 15 41.14 41.15zm-63.63-35.24v47.95c0 11.34 3 20.23 9.06 26.15 6.06 5.92 14.78 9.1 26.17 9.1H814v-48c0-11.34-3-20.23-9.06-26.15-6.06-5.92-14.82-9.06-26.15-9.06h-22.54z" fill="#fff" fill-opacity=".5"/><path d="M765.88 72h27.9v54c0 13.07-3.66 23.2-10.64 30.33-6.98 7.13-17.26 10.67-30.33 10.67h-27.92v-54c0-13.07 3.48-23.2 10.64-30.33C742.69 75.54 752.79 72 765.88 72zm0 3.66c-12 0-21.47 3.32-27.72 9.59S728.57 101 728.57 113v50.39h24.24c12 0 21.27-3.32 27.72-9.59 6.45-6.27 9.59-15.8 9.59-27.8V75.66zM781.39 553H814v52.47c0 12.88-3.93 23.59-11.5 31s-18.13 11.5-31 11.5H739v-52.44c0-12.88 3.93-23.59 11.34-31s18.3-11.5 31-11.5zm0 25.1c-6.09 0-10.46 1.4-13.25 3.93-2.79 2.53-3.93 7.33-3.93 13.43v27.36h7.33c6.09 0 10.64-1.4 13.43-3.93 2.79-2.53 3.93-7.33 3.93-13.43v-27.37h-7.51z" fill="#fff" fill-opacity=".2"/><defs><linearGradient id="a" gradientUnits="userSpaceOnUse" x1="2159.987" y1="720.004" x2="2159.987" y2=".004"><stop offset="0" stop-color="#6247b2"/><stop offset="1" stop-color="#00ffe9"/></linearGradient></defs><path d="M1440 720h1440V0H1440z" fill="url(#a)"/><path d="M1868.9 301.75h-15.78v-80.3h-104.68v80.3h-15.77V173.27a113.315 113.315 0 015.74-36.67c4-11.19 9.75-20.65 17.49-28.11 7.46-7.74 16.92-13.49 28.1-17.49a113.847 113.847 0 0137-5.74h47.9zM1821 101c-23.52 0-41.87 6.31-53.92 18.64-12.33 12-18.64 30.4-18.64 53.63v32.41h104.68V101zm78.9-32.69c8.9 11.47 13.48 26.39 13.48 44.74v188.7h-15.8v-188.7c0-14.63-3.44-26.7-10-35.28l-4.88-6 12.58-9.77zm258.66 233.44h-15.77V161.22h-32.12c-17.21 0-30.4 4.59-39.29 13.19-8.6 8.9-13.19 22.08-13.19 39v88.33h-15.78v-88.32c0-16.92-4.59-30.11-13.19-39-8.9-8.6-22.08-13.19-39-13.19h-32.42v140.52H1942V145.5h48.18a86.296 86.296 0 0128.11 4.3 63.503 63.503 0 0122.08 13.48 72.975 72.975 0 0110 14.05 61.334 61.334 0 019.75-14.05 63.503 63.503 0 0122.08-13.48 86.86 86.86 0 0128.39-4.3h47.9v156.25zm102.1-152a63.503 63.503 0 0122.08 13.48 63.517 63.517 0 0113.48 22.08 86.296 86.296 0 014.3 28.11v88.33h-47.9a86.863 86.863 0 01-28.35-4.3 63.513 63.513 0 01-22.11-13.45 63.504 63.504 0 01-13.48-22.06 86.875 86.875 0 01-4.3-28.37v-88h48.18a86.302 86.302 0 0128.11 4.25zm-60.51 11.47v72.29c0 17.21 4.59 30.4 13.19 39.29 8.9 8.6 22.08 13.19 39.29 13.19h32.12v-72.57c0-16.92-4.59-30.11-13.19-39-8.9-8.6-22.08-13.19-39-13.19h-32.41zm205.35-11.47a63.517 63.517 0 0122.08 13.48 63.517 63.517 0 0113.48 22.08 86.35 86.35 0 014.3 28.11v88.33h-15.77v-88.33c0-16.92-4.59-30.11-13.19-39-8.9-8.6-22.08-13.19-39-13.19h-32.47v140.52h-15.72V145.5h48.18a86.302 86.302 0 0128.11 4.25zm181.83 103.82c0 15.2-4.3 27-12.86 35.6-8.32 8.32-20.08 12.62-35.28 12.62h-68v-88.37a86.296 86.296 0 014.3-28.11 63.509 63.509 0 0113.51-22.08 65.01 65.01 0 0121.76-13.48 89.326 89.326 0 0128.39-4.3h32.41V85.23h15.82v168.34h-.06zm-48.18-92.35c-16.92 0-30.11 4.59-39 13.19-8.9 8.9-13.19 22.08-13.19 39V286h52.2c21.51 0 32.41-10.88 32.41-32.41v-92.37h-32.41zM1792 485.7h-10.86v-96.92H1759c-11.87 0-21 3.16-27.1 9.1-5.93 6.13-9.1 15.23-9.1 26.9v60.92h-10.89v-60.92c0-11.67-3.16-20.77-9.1-26.9-6.13-5.93-15.23-9.1-26.9-9.1h-22.35v96.92h-10.88V377.9h33.23a59.526 59.526 0 0119.38 3 43.807 43.807 0 0115.23 9.3 50.313 50.313 0 016.92 9.69 42.338 42.338 0 016.72-9.69 43.798 43.798 0 0115.23-9.3 59.88 59.88 0 0119.58-3h33v107.8zm30.66 0h-10.87V377.9h10.88v107.8zm.2-138.45H1812v-10.88h10.88v10.88zm91 39.36q8.9 8.9 8.9 24.33v5.54h-10.89v-5.54c0-14.64-7.52-22.15-22.35-22.15h-36v49.84c0 11.87 3 21 9.1 27.1 6.13 5.93 15.23 9.1 26.9 9.1h33.23v10.87h-33.23a60.764 60.764 0 01-19.58-3 44.807 44.807 0 01-15-9.3 40.989 40.989 0 01-9.3-15.23 59.88 59.88 0 01-3-19.58V377.9h46.88c10.48 0 18.59 3 24.33 8.7zm39.56 5.14c.508-.483.97-1.012 1.38-1.58a43.783 43.783 0 0115.23-9.3 59.88 59.88 0 0119.58-3h33V485.7h-10.86v-96.92h-22.15c-11.87 0-21 3.16-27.1 9.1-5.93 6.13-9.1 15.23-9.1 26.9v60.92h-10.88V336.37h10.88v55.38zm169.11 19.19q0 15.72-8.9 24.33-8.6 8.9-24.33 8.9h-36v30.66h36c14.83 0 22.35-7.52 22.35-22.35v-5.34h10.88v5.34q0 15.72-8.9 24.33-8.6 8.9-24.33 8.9h-46.89v-60.93a61.585 61.585 0 013-19.58 38.499 38.499 0 0124.33-24.33 61.585 61.585 0 0119.58-3h33.23v33zm-33.23-22.15c-11.67 0-20.77 3-26.9 9.1-6.13 6.1-9.1 15.23-9.1 26.9v8.51h36c14.83 0 22.35-7.52 22.35-22.35v-22.17h-22.36zm54.59-64.08c6.13 7.91 9.3 18.2 9.3 30.86V485.7h-10.9V355.55c0-10.09-2.37-18.39-6.92-24.33l-3.37-4.15 8.7-6.72zm81.69 56.37a38.62 38.62 0 0115.23 9.3 41.197 41.197 0 019.3 15 59.934 59.934 0 013 19.58v60.74h-46.93c-10.48 0-18.59-3-24.53-8.7-5.74-5.93-8.7-14-8.7-24.33v-33.23H2220c9.1 0 16.61 2.37 22.15 6.92V425c0-11.87-3.16-21-9.1-26.9-6.13-6.13-15.23-9.3-26.9-9.3H2173v-10.9h33.23a54.622 54.622 0 0119.34 3.17zm-41.73 49.25v22.35c0 14.64 7.52 22.15 22.35 22.15h36v-22.16c0-14.83-7.52-22.35-22.15-22.35h-36.2zm141.62-49.45A37.94 37.94 0 012350 405.4a59.553 59.553 0 013 19.38v60.92h-10.94v-60.92c0-11.67-3.16-20.77-9.1-26.9-6.13-5.93-15.23-9.1-26.9-9.1h-22.34v96.92h-10.88V377.9h33.23a59.526 59.526 0 0119.38 3zm114.53 5.73q8.9 8.9 8.9 24.33v69.23c0 15-3.76 26.5-11.27 34.61q-11.63 12.46-33.85 12.46c-13.65 0-24.92-5.74-31.65-16.42l-2.77-4.55 9.1-5.74 3 4.55c4.55 7.32 12.46 11.27 22.35 11.27 11.67 0 20.37-3 25.91-9.1 4.55-4.94 7.32-12.26 8.11-21.56h-22.19a61.585 61.585 0 01-19.58-3 44.807 44.807 0 01-15-9.3 43.807 43.807 0 01-9.3-15.23 59.88 59.88 0 01-3-19.58V377.9h46.88c10.48 0 18.59 3 24.33 8.7zm-60.33 2.18v49.84c0 11.87 3 21 9.1 27.1 6.13 5.93 15.23 9.1 26.9 9.1H2438v-63.9c0-14.64-7.52-22.15-22.35-22.15h-36zm167.13 22.15q0 15.72-8.9 24.33-8.6 8.9-24.33 8.9h-36v30.66h36c14.83 0 22.35-7.52 22.35-22.35v-5.34h10.88v5.34q0 15.72-8.9 24.33-8.6 8.9-24.33 8.9h-46.88v-60.93a61.585 61.585 0 013-19.58 38.498 38.498 0 0124.31-24.33 61.585 61.585 0 0119.58-3h33.23v33zm-33.23-22.15c-11.67 0-20.77 3-26.9 9.1-6.13 6.1-9.1 15.23-9.1 26.9v8.51h36c14.83 0 22.35-7.52 22.35-22.35v-22.17h-22.35zm54.58-64.08c6.13 7.91 9.3 18.2 9.3 30.86V485.7h-10.88V355.55c0-10.09-2.37-18.39-6.92-24.33l-3.36-4.15 8.7-6.72zm81.69 56.17a37.94 37.94 0 0124.53 24.53 59.522 59.522 0 013 19.38v60.91h-33a59.88 59.88 0 01-19.58-3 37.94 37.94 0 01-24.53-24.53 59.88 59.88 0 01-3-19.58V377.9h33.23a59.526 59.526 0 0119.38 3zm-41.73 7.91v49.84c0 11.87 3.16 21 9.1 27.1 6.13 5.93 15.23 9.1 27.1 9.1h22.15v-50c0-11.67-3.16-20.77-9.1-26.9-6.13-5.93-15.23-9.1-26.9-9.1h-22.35zM1866 554.81q5.34 5.34 5.34 14.6v3.32h-6.53v-3.32c0-8.78-4.51-13.29-13.41-13.29h-21.6V586c0 7.12 1.78 12.58 5.46 16.26 3.68 3.68 9.14 5.46 16.14 5.46h19.94v6.53h-19.96a36.437 36.437 0 01-11.75-1.78 26.899 26.899 0 01-9-5.58 24.622 24.622 0 01-5.58-9.14 35.919 35.919 0 01-1.79-11.75v-36.41h28.13c6.28 0 11.15 1.78 14.61 5.22zm46.4-3.44a22.746 22.746 0 0114.72 14.72 35.717 35.717 0 011.78 11.59v36.59h-19.8a35.944 35.944 0 01-11.75-1.78 22.746 22.746 0 01-14.72-14.72 35.926 35.926 0 01-1.78-11.77v-36.41h19.94a35.744 35.744 0 0111.59 1.78zm-25 4.75V586c0 7.12 1.9 12.58 5.46 16.26 3.56 3.68 9.14 5.46 16.26 5.46h13.29v-30.05c0-7-1.9-12.46-5.46-16.14-3.56-3.68-9.14-5.46-16.14-5.46h-13.47zm95.06-1.31c3.44 3.56 5.22 8.43 5.22 14.6v3.32h-6.53v-3.32c0-8.78-4.51-13.29-13.29-13.29H1946c0 6.29.36 11 2.14 14.36 1.54 2.61 4.63 5.93 16 8.31a44.523 44.523 0 0112.94 4.27 18.851 18.851 0 017.48 7.12c3 5.46 3 12.22 3 20.77v3.32h-28.06c-6.29 0-11.16-1.78-14.72-5.22-3.56-3.44-5.22-8.43-5.22-14.72v-3.2h6.53v3.2c0 8.9 4.51 13.41 13.41 13.41h21.6c0-6.29-.36-11-2.14-14.36-1.54-2.61-4.63-5.93-16-8.31a44.517 44.517 0 01-12.96-4.27 18.858 18.858 0 01-7.48-7.12c-3-5.46-3-12.22-3-20.89v-3.2h28.28c6.17 0 11 1.78 14.6 5.22zm106.69 59.46h-6.53v-58.16h-13.35c-7.12 0-12.58 1.9-16.26 5.46-3.68 3.56-5.46 9.18-5.46 16.1v36.59H2041v-36.59c0-7-1.9-12.46-5.46-16.14-3.56-3.68-9.14-5.46-16.14-5.46H2006v58.19h-6.53v-64.67h19.94a35.714 35.714 0 0111.63 1.78 26.298 26.298 0 019.14 5.58 30.178 30.178 0 014.15 5.82 25.39 25.39 0 014-5.82 26.274 26.274 0 019.14-5.58 35.997 35.997 0 0111.75-1.78H2089v64.68zm42.23-62.9a22.75 22.75 0 0114.62 14.71 35.7 35.7 0 011.8 11.59v36.59h-19.75a35.944 35.944 0 01-11.75-1.78 22.75 22.75 0 01-14.72-14.72 35.941 35.941 0 01-1.77-11.76v-36.41h19.94a35.737 35.737 0 0111.57 1.78zm-25 4.75V586c0 7.12 1.9 12.58 5.46 16.26 3.56 3.68 9.14 5.46 16.26 5.46h13.31v-30.05c0-7-1.9-12.46-5.46-16.14-3.56-3.68-9.14-5.46-16.14-5.46h-13.51zm95.08-1.31c3.44 3.56 5.22 8.43 5.22 14.6v3.32h-6.53v-3.32c0-8.78-4.51-13.29-13.29-13.29H2165c0 6.29.36 11 2.14 14.36 1.54 2.61 4.63 5.93 16 8.31a44.523 44.523 0 0112.94 4.27 18.858 18.858 0 017.48 7.12c3 5.46 3 12.22 3 20.77v3.32h-28.11c-6.29 0-11.16-1.78-14.72-5.22-3.56-3.44-5.22-8.43-5.22-14.72v-3.2h6.49v3.2c0 8.9 4.51 13.41 13.41 13.41h21.6c0-6.29-.36-11-2.14-14.36-1.54-2.61-4.63-5.93-16-8.31a44.5 44.5 0 01-12.87-4.27 18.871 18.871 0 01-7.48-7.12c-3-5.46-3-12.22-3-20.89v-3.2h28.24c6.17 0 11 1.78 14.6 5.22zm64 39.52c0 6.29-1.78 11.16-5.22 14.72-3.44 3.56-8.43 5.22-14.6 5.22h-21.89V638h-6.53v-60.33A35.73 35.73 0 012219 566a23.47 23.47 0 0114.72-14.72 35.997 35.997 0 0111.75-1.78h19.78v44.74zm-19.78-38.21c-7.12 0-12.58 1.9-16.26 5.46-3.68 3.56-5.5 9.18-5.5 16.1v30.06h21.76c8.78 0 13.29-4.51 13.29-13.41v-38.22h-13.43zm38.17 1.78a6.79 6.79 0 00.83-1 26.283 26.283 0 019.14-5.58 35.997 35.997 0 0111.75-1.78h19.78v64.72h-6.53v-58.15h-13.39c-7.12 0-12.58 1.9-16.26 5.46-3.68 3.56-5.46 9.18-5.46 16.1v36.59h-6.53v-89.6h6.53v33.23zm101.47 11.51q0 9.43-5.34 14.6-5.16 5.34-14.6 5.34h-21.6v18.39h21.6c8.9 0 13.41-4.51 13.41-13.41v-3.2h6.53v3.2q0 9.43-5.34 14.6-5.16 5.34-14.6 5.34h-28.26v-36.6a36.977 36.977 0 011.78-11.75 23.11 23.11 0 0114.6-14.6 36.977 36.977 0 0111.75-1.78h19.94v19.86zm-19.94-13.29c-7 0-12.46 1.78-16.14 5.46-3.68 3.68-5.46 9.18-5.46 16.1v5.1h21.6c8.9 0 13.41-4.51 13.41-13.41v-13.26h-13.54zm78.67 0h-19.91c-7.12 0-12.58 1.9-16.26 5.46-3.68 3.56-5.49 9.18-5.49 16.1v36.59h-6.53v-36.6a35.678 35.678 0 011.78-11.67 22.75 22.75 0 0114.72-14.72 35.997 35.997 0 0111.75-1.78h19.78v6.53zm52.82 13.29q0 9.43-5.34 14.6-5.16 5.34-14.6 5.34h-21.6v18.39h21.6c8.9 0 13.41-4.51 13.41-13.41v-3.2h6.53v3.2q0 9.43-5.34 14.6-5.16 5.34-14.6 5.34h-28.13v-36.6a36.977 36.977 0 011.78-11.75 23.11 23.11 0 0114.6-14.6 36.977 36.977 0 0111.75-1.78h19.94v19.86zm-19.94-13.29c-7 0-12.46 1.78-16.14 5.46-3.68 3.68-5.46 9.18-5.46 16.1v5.1h21.6c8.9 0 13.41-4.51 13.41-13.41v-13.26h-13.54z" fill="#fff"/><defs><linearGradient id="b" gradientUnits="userSpaceOnUse" x1="3599.987" y1="720.004" x2="3599.987" y2=".004"><stop offset="0" stop-color="#ff3276"/><stop offset="1" stop-color="#ffe900"/></linearGradient></defs><path d="M2880 720h1440V0H2880z" fill="url(#b)"/><path d="M3240.93 157.89v11h-42.86v-11c0-11.29-2.68-19.94-7.74-25.3-5.36-5.06-14-7.74-25.3-7.74h-33.32c.3 17.86 3.27 29.46 8.63 35.41 5.36 5.95 15.18 9.24 30.06 13.34a169.978 169.978 0 0127.08 8.93c10.12 4.46 18.15 10.12 24.4 17 13.09 14.88 19 35.71 19 67.55v39.58H3165c-47 0-76.18-29.16-76.18-75.89v-11h42.85v11c0 11.29 2.68 19.94 8 25.3 5.06 5.06 13.69 7.74 25.3 7.74h33c-.3-18.15-3-29.76-8.33-35.71-4.76-5.36-14.28-8.93-30.35-13.09-19-5.06-37.2-11-50.89-25.89a74.329 74.329 0 01-15.18-28.87c-3-10.71-4.46-23.51-4.46-38.69V82H3165c46.76 0 75.93 29.18 75.93 75.89zm166.65-33h-54.76v181.8H3310V125.76q-10.71 2.24-16.07 8.93l-13.07 17-33.96-26.24 13.09-17C3269.23 96.29 3287.37 82 3321 82h86.6v42.85zm158 33c0 18.15-4.46 33.33-12.2 45.53 6.84 10.42 12.2 25.3 12.2 45.53v57.73h-42.83V249c0-8-1.49-14.58-3.87-19.34a98.816 98.816 0 01-29.46 4.46h-33v72.61h-42.89V176a117.586 117.586 0 016-38.09 84.608 84.608 0 0119-31 84.608 84.608 0 0131-19 117.571 117.571 0 0138.09-5.91h58v75.9zm-58-33c-17.26 0-30.35 4.17-38.69 12.5-8.34 8.33-12.5 21.43-12.5 38.69v15.18h33c11.61 0 20.24-2.68 25.3-8 5.36-5.06 8-13.69 8-25.3v-33h-15.07zM3691.19 88a80.003 80.003 0 0130.9 19 80.803 80.803 0 0119 31c4.17 11.29 6.25 24.11 6.25 38.09v130.6h-58a117.555 117.555 0 01-38.09-6 78.438 78.438 0 01-50-50 117.56 117.56 0 01-6-38.09V82h57.85a117.56 117.56 0 0138.09 6zm-53 36.94v87.76c0 17.26 4.17 30.35 12.5 38.69 8.33 8.34 21.43 12.5 38.69 12.5h15.18V176c0-17.26-4.46-30.35-12.8-38.69-8.34-8.34-21.13-12.5-38.69-12.5h-14.85v.05zM3873 88a79.993 79.993 0 0131 19 80.823 80.823 0 0119 31c4.17 11.29 6.25 24.11 6.25 38.09v130.6h-42.85V176c0-17.26-4.46-30.35-12.8-38.69-8.34-8.34-21.13-12.5-38.69-12.5H3820v181.88h-42.8V82h57.8c12.91-.1 25.749 1.927 38 6zm238.08 36.89h-58c-17.26 0-30.35 4.17-38.69 12.5-8.34 8.33-12.5 21.43-12.5 38.69v87.79h33c11.61 0 20.24-2.68 25.3-7.74 5.36-5.36 8-14 8-25.3v-15.2h-43.1v-42.88h86v58c0 46.72-29.16 75.89-76.18 75.89h-75.89V176a117.532 117.532 0 016-38.09 84.581 84.581 0 0119-31 84.608 84.608 0 0131-19 117.555 117.555 0 0138.09-6h58v42.85h-.05zm-859.5 374.3h-18.27V405.6h-17.44c-10.47 0-18.27 2.67-23.4 7.8-5.13 5.13-7.59 12.93-7.59 23.19v62.6h-18.27v-62.6c0-10.26-2.67-18.06-7.8-23.19-5.13-5.13-12.93-7.8-23.19-7.8H3118v93.59h-18.3V387.33h35.92c18.06 0 31.81 6.36 40 17.65 8.41-11.29 22.17-17.65 40.23-17.65h35.71v111.86zm105.7-75.94c0 10.88-3.28 19.91-9.65 26.27-6.36 6.16-15.39 9.65-26.27 9.65h-31v21.76h31c6 0 10.47-1.44 13.34-4.31 2.87-2.67 4.31-7.18 4.31-13.34h18.27c0 10.88-3.28 20.11-9.65 26.27-6.36 6.36-15.39 9.65-26.27 9.65h-49.26v-62.6c0-30.79 18.47-49.26 49.26-49.26h35.92v35.92zm-35.92-17.65c-10.26 0-18.06 2.67-23.19 7.8-5.13 5.13-7.8 12.93-7.8 23.19v4.31h31c6 0 10.47-1.44 13.34-4.31 2.87-2.87 4.29-7.39 4.29-13.34V405.6zm130.74-8.6c6.36 6.16 9.65 15.39 9.65 26.27v66.91c0 15.39-3.9 27.5-11.9 35.92-8.21 8.83-20.11 13.34-35.51 13.34-14.57 0-26.68-6.36-33.86-17.65l-4.72-7.8 15.39-9.65 4.93 7.8c3.69 6 9.85 9 18.27 9 10.06 0 17.45-2.46 22.17-7.59 3.28-3.28 5.34-8.21 6.36-14.37h-17c-30.79 0-49.26-18.27-49.26-49.26v-62.6h49.26c10.88 0 20.11 3.28 26.27 9.65zm-57.26 8.62v44.33c0 10.47 2.67 18.27 7.8 23.4 5.13 5.13 12.93 7.59 23.19 7.59h17.65v-57.69c0-6.16-1.44-10.47-4.31-13.34-2.67-2.87-7.18-4.31-13.34-4.31h-31zm170.35 31v62.6h-49.26c-10.88 0-19.91-3.28-26.27-9.65-6.16-6.16-9.44-15.39-9.44-26.27v-35.95h49.26a41.695 41.695 0 0117.24 3.49c-.82-7.39-3.28-13.34-7.39-17.45-5.13-5.13-12.93-7.8-23.4-7.8h-35.71v-18.26h35.71c31 0 49.26 18.47 49.26 49.26zm-66.7 9v17.65c0 6.16 1.44 10.67 4.1 13.34 2.87 2.87 7.39 4.31 13.34 4.31h31v-17.65c0-6-1.44-10.47-4.1-13.34-2.87-2.87-7.39-4.31-13.34-4.31zm95.64-110.83c6.36 8.62 9.85 19.5 9.85 32.84v131.56h-18.27V367.63q0-13.85-6.16-21.55l-5.55-7.39 14.37-11.08zm115.55 101.8v62.6h-35.92c-30.79 0-49.26-18.47-49.26-49.26v-62.6h35.92c30.78 0 49.25 18.47 49.25 49.26zm-66.91-31v44.33c0 10.26 2.67 18.06 7.8 23.19 5.13 5.13 12.93 7.8 23.19 7.8h17.65v-44.32c0-10.26-2.67-18.06-7.8-23.19-5.13-5.13-12.93-7.8-23.19-7.8h-17.65zm170.55 57.67c0 10.88-3.28 19.91-9.65 26.27-6.37 6.36-15.39 9.65-26.27 9.65h-31v41h-18.25V436.59c0-30.79 18.47-49.26 49.26-49.26h35.92v75.94zm-35.92-57.66c-10.26 0-18.06 2.67-23.19 7.8-5.13 5.13-7.8 12.93-7.8 23.19v44.33h31c6.16 0 10.47-1.44 13.34-4.31 2.87-2.87 4.31-7.18 4.31-13.34V405.6zm139.56 31v62.6H3881c-30.79 0-49.26-18.47-49.26-49.26v-62.6h35.92c30.84-.01 49.34 18.46 49.34 49.25zm-66.91-31v44.33c0 10.26 2.67 18.06 7.8 23.19 5.13 5.13 12.93 7.8 23.19 7.8h17.65v-44.33c0-10.26-2.67-18.06-7.8-23.19-5.13-5.13-12.93-7.8-23.19-7.8h-17.64zm95.85-70.81c6.36 8.62 9.85 19.5 9.85 32.84v131.56h-18.27V367.63q0-13.85-6.16-21.55l-5.54-7.39 14.37-11.08zm48.64 27.71h-18.27v-18.27h18.27zm0 136.69h-18.27V387.33h18.27zM4090.6 397c6.36 6.16 9.65 15.39 9.65 26.27v9H4082v-9c0-6.16-1.44-10.67-4.31-13.34-2.87-2.87-7.39-4.31-13.34-4.31h-31c.21 7.59.82 13.34 3.08 17.45 1.85 3.49 6.36 8 23 11.29 9.24 1.85 16.42 4.31 22 7.39a32.999 32.999 0 0113.55 12.93c5.34 9.65 5.34 20.93 5.34 35.3v9.24H4051c-10.88 0-20.11-3.28-26.27-9.65-6.36-6.16-9.65-15.39-9.65-26.27v-9h18.27v9c0 6.16 1.44 10.47 4.31 13.34 2.67 2.87 7.18 4.31 13.34 4.31h30.79c0-7.59-.62-13.34-2.87-17.45-2.05-3.49-6.36-8-23-11.29-9.24-1.85-16.42-4.31-22-7.39a32.999 32.999 0 01-13.55-12.93c-5.34-9.65-5.34-20.93-5.34-35.51v-9h49.26c10.92-.05 19.95 3.23 26.31 9.62zm-731.49 175c3.82 3.69 5.79 9.24 5.79 15.76v5.42h-11v-5.42c0-3.69-.86-6.4-2.59-8-1.73-1.6-4.43-2.59-8-2.59h-18.56c.12 4.56.49 8 1.85 10.47 1.11 2.05 3.82 4.8 13.79 6.77a45.585 45.585 0 0113.18 4.43 19.816 19.816 0 018.13 7.76c3.2 5.79 3.2 12.56 3.2 21.18v5.54h-29.56c-6.53 0-12.07-2-15.76-5.79-3.69-3.79-5.79-9.24-5.79-15.76v-5.37h11v5.42c0 3.69.86 6.28 2.59 8 1.73 1.72 4.31 2.59 8 2.59h18.47c0-4.56-.37-8-1.72-10.47-1.23-2.05-3.82-4.8-13.79-6.77a45.585 45.585 0 01-13.18-4.43A19.811 19.811 0 013317 593c-3.2-5.79-3.2-12.56-3.2-21.3v-5.42h29.55c6.53 0 11.94 2 15.76 5.79zm68 39.78c0 6.53-2 11.94-5.79 15.76-3.79 3.82-9.24 5.79-15.76 5.79h-18.62V658H3376v-62.19c0-18.47 11.08-29.55 29.55-29.55h21.55v45.56zm-21.55-34.6c-6.16 0-10.84 1.6-13.92 4.68-3.08 3.08-4.68 7.76-4.68 13.92v26.6h18.59c3.69 0 6.28-.86 8-2.59 1.72-1.73 2.59-4.31 2.59-8v-34.6h-10.61zm83.61 18.59v37.56h-29.58c-6.53 0-11.94-2-15.76-5.79-3.82-3.79-5.66-9.24-5.66-15.76v-21.51h29.55c3.553-.059 7.078.64 10.34 2.05-.49-4.43-2-8-4.43-10.47-3.08-3.08-7.76-4.68-14-4.68h-21.47v-10.91h21.43c18.59 0 29.55 11.08 29.55 29.55zm-40 5.42v10.59c0 3.69.86 6.4 2.46 8 1.6 1.6 4.43 2.59 8 2.59h18.59v-10.55c0-3.57-.86-6.28-2.46-8-1.6-1.72-4.43-2.59-8-2.59h-18.64zm95.14-29.19c3.82 3.69 5.79 9.24 5.79 15.76v5.42h-11v-5.42c0-3.69-.86-6.4-2.59-8-1.73-1.6-4.43-2.59-8-2.59H3510v26.6c0 6.16 1.6 10.84 4.68 13.92 3.08 3.08 7.76 4.68 13.92 4.68h21.5v11h-21.55c-18.47 0-29.55-11.08-29.55-29.55v-37.56h29.55c6.53 0 11.9 2 15.76 5.79zm68 15.76c0 6.53-2 11.94-5.79 15.76-3.79 3.82-9.24 5.79-15.76 5.79h-18.62v13.05h18.59c3.57 0 6.28-.86 8-2.59 1.72-1.73 2.59-4.31 2.59-8h11c0 6.53-2 12.07-5.79 15.76-3.79 3.69-9.24 5.79-15.76 5.79h-29.59v-37.51c0-18.47 11.08-29.55 29.55-29.55h21.55v21.55zm-21.55-10.59c-6.16 0-10.84 1.6-13.92 4.68-3.08 3.08-4.68 7.76-4.68 13.92v2.59h18.59c3.57 0 6.28-.86 8-2.59 1.72-1.73 2.59-4.43 2.59-8v-10.55h-10.6zm78-5.17c3.82 3.69 5.79 9.24 5.79 15.76v5.42h-11v-5.42c0-3.69-.86-6.4-2.59-8-1.73-1.6-4.43-2.59-8-2.59h-18.63v26.6c0 6.16 1.6 10.84 4.68 13.92 3.08 3.08 7.76 4.68 13.92 4.68h21.55v11h-21.55c-18.47 0-29.55-11.08-29.55-29.55v-37.56h29.55c6.57 0 11.94 2 15.8 5.79zm67.93 5.17h-21.58c-6.16 0-10.84 1.6-13.92 4.68-3.08 3.08-4.68 7.76-4.68 13.92v37.56h-11v-37.52c0-18.47 11.08-29.55 29.55-29.55h21.55v11zm60.83 18.59v37.56h-29.58c-6.53 0-11.94-2-15.76-5.79-3.82-3.79-5.66-9.24-5.66-15.76v-21.5h29.55c3.553-.059 7.078.64 10.34 2.05-.49-4.43-2-8-4.43-10.47-3.08-3.08-7.76-4.68-14-4.68h-21.46v-10.91h21.43c18.59 0 29.55 11.08 29.55 29.55zm-40 5.42v10.59c0 3.69.86 6.4 2.46 8 1.6 1.6 4.43 2.59 8 2.59h18.59v-10.54c0-3.57-.86-6.28-2.46-8-1.6-1.72-4.43-2.59-8-2.59h-18.63zm90.26-49.87h-13.71c-3.82 0-6.53.86-8.37 2.59-1.84 1.73-2.59 4.56-2.59 8.37v3.94h14.94v11h-14.94v56.15h-11v-56.14h-9.73v-11h9.73v-3.94c0-6.65 2-12.19 5.91-16 3.91-3.81 9.36-5.91 16-5.91h13.67v11zm23.22 14.95h12.31v11H3871v34.23c0 3.82.86 6.53 2.59 8.37 1.73 1.84 4.56 2.59 8.37 2.59h5.42v11H3882c-6.65 0-12.19-2-16.13-5.91-3.94-3.91-5.79-9.36-5.79-16v-34.32h-12.34v-11h12.31V540.4h11v25.86z" fill="#fff"/><defs><linearGradient id="c" gradientUnits="userSpaceOnUse" x1="5039.987" y1="720.004" x2="5039.987" y2=".004"><stop offset="0" stop-color="#d589e5"/><stop offset="1" stop-color="#2de5a7"/></linearGradient></defs><path d="M4320 720h1440V0H4320z" fill="url(#c)"/><path d="M4689.61 155.75h40.29c21.3 0 38.28 5.76 50.08 17.56 11.51 11.8 17.56 28.49 17.56 50.08v89.21h-67.64c-29.36 0-46.34-16.69-46.34-46V95.31h6v60.44zm0 6v104.8c0 12.9 3.74 23 10.36 29.64 6.95 6.95 17 10.36 29.93 10.36h61.59v-83.17c0-19.85-5.47-35.11-15.83-45.76-10.66-10.62-25.9-15.83-45.76-15.83h-40.29zm129.8-87.45c8.63 11.22 12.9 26.19 12.9 44.32v194h-6v-194c0-17-4-30.51-11.8-40.58l-1.73-2.3 5-3.74zm155.4 127.5c0 29.36-17 46.34-46 46.34h-61.64v58.42h61.59c12.9 0 22.74-3.45 29.64-10.36 6.95-6.62 10.36-16.69 10.36-29.64v-3.17h6v3.17c0 29.36-17 46-46 46h-67.63v-89.18c0-21.3 5.76-38.28 17.56-50.08 11.8-11.51 28.49-17.56 50.08-17.56h46v46zm-46-40c-19.85 0-35.4 5.47-45.76 15.83-10.65 10.65-15.83 25.9-15.83 45.76v18.71h61.59c12.9 0 22.74-3.45 29.64-10.36 6.9-6.91 10.36-17 10.36-29.93v-40h-40zm171 11.51c11.8 11.8 17.56 28.49 17.56 50.08v89.21h-6v-89.22c0-19.85-5.18-35.11-15.83-45.76-10.36-10.36-25.9-15.83-45.76-15.83h-40v150.85h-6v-156.8h46c21.59-.09 38.28 6 50.08 17.47zm157.14 93.25c0 29.36-16.69 46-46 46h-67.74v-89.18c0-21.3 6-38.28 17.56-49.79 11.8-11.8 28.78-17.86 50.08-17.86h40V95.31h6v171.24zm-46-104.76c-19.85 0-35.11 5.47-45.76 15.83-10.36 10.65-15.88 25.9-15.88 45.76v83.17h61.59c12.9 0 23-3.45 29.93-10.36 6.62-6.62 10.07-16.69 10.07-29.64V161.79h-40zm185.63 40v3.2h-6v-3.2c0-12.9-3.45-23-10.07-29.64-6.95-6.95-17-10.36-29.93-10.36h-61.78c0 19.85.29 34.54 6.33 45.47a37.456 37.456 0 0015 14.1c7.2 4 17.27 7.2 30.22 9.79 56.12 11.22 56.12 35.11 56.12 78.28v3.17h-67.64c-29.36 0-46-16.69-46-46v-3.17h6v3.17c0 12.9 3.45 23 10.36 29.64 6.62 6.95 16.69 10.36 29.64 10.36h61.59c0-19.85-.29-34.54-6.33-45.47a38.556 38.556 0 00-14.68-14.1c-7.48-4-17.27-7.2-30.22-9.79-56.41-11.22-56.41-35.11-56.41-78.57v-2.88h67.63c29.37 0 46.06 16.69 46.06 46zm-622.25 218.12v2.18h-4.17v-2.18c0-8.93-2.38-15.88-6.95-20.44-4.76-4.76-11.71-7.15-20.64-7.15h-42.47c0 13.7.2 23.82 4.37 31.36a25.79 25.79 0 0010.32 9.73c5 2.78 11.91 5 20.84 6.75 38.7 7.74 38.7 24.22 38.7 54v2.18h-46.64c-20.25 0-31.76-11.51-31.76-31.76v-2.19h4.17v2.18c0 8.93 2.38 15.88 7.15 20.44 4.57 4.76 11.51 7.15 20.44 7.15h42.48c0-13.7-.2-23.82-4.37-31.36a26.594 26.594 0 00-10.12-9.73c-5.16-2.78-11.91-5-20.84-6.75-38.9-7.74-38.9-24.22-38.9-54.19v-2h46.64c20.24.02 31.75 11.54 31.75 31.78zm96.26 0c0 20.25-11.71 32-31.76 32h-42.47v40.29h42.48c8.93 0 15.68-2.38 20.44-7.15 4.76-4.57 7.15-11.51 7.15-20.44v-2.22h4.17v2.18c0 20.25-11.71 31.76-31.76 31.76h-46.65v-61.53c0-14.69 4-26.4 12.11-34.54 8.14-7.94 19.65-12.11 34.54-12.11h31.76v31.76zm-31.76-27.59c-13.7 0-24.41 3.77-31.56 10.92-7.34 7.34-10.92 17.86-10.92 31.56v12.9h42.48c8.93 0 15.68-2.38 20.44-7.15 4.76-4.77 7.15-11.71 7.15-20.64v-27.59h-27.58zm204.44 104h-4.17v-104h-27.78c-13.7 0-24.22 3.77-31.56 10.92-7.15 7.34-10.92 17.86-10.92 31.56v61.53h-4.17v-61.53c0-13.7-3.57-24.22-10.92-31.56-7.15-7.15-17.86-10.92-31.56-10.92h-27.58v104h-4.17V388.16h31.76c14.89 0 26.4 4.17 34.54 12.11a39.794 39.794 0 0110.12 17.86 39.777 39.777 0 0110.14-17.86c7.94-7.94 19.65-12.11 34.34-12.11h32v108.18zm98.25-31.76c0 20.25-11.51 31.76-31.76 31.76h-42.47V536h-4.17V434.81c0-14.89 4-26.4 12.11-34.54 8.14-7.94 19.65-12.11 34.54-12.11h31.76v76.42zm-31.76-72.25c-13.7 0-24.41 3.77-31.56 10.92-7.34 7.34-10.92 17.86-10.92 31.56v57.36h42.48c8.93 0 15.88-2.38 20.44-7.15 4.76-4.57 7.15-11.51 7.15-20.44v-72.24h-27.58zm46.85-60.32c6 7.74 8.93 18.06 8.93 30.57v133.77h-4.17V362.56c0-11.71-2.78-21-8.14-28L5152 333l3.37-2.58zm32.95 18.66h-4.17v-4.17h4.17zm0 145.69h-4.17V388.16h4.17v108.18zm98.25-76.42v2.18h-4.17v-2.18c0-8.93-2.38-15.88-7.15-20.44-4.57-4.76-11.51-7.15-20.44-7.15h-42.48v57.36c0 13.7 3.57 24.22 10.92 31.56 7.15 7.15 17.86 10.92 31.56 10.92h31.76v4.17H5256c-14.89 0-26.4-4.17-34.54-12.11-8.14-8.14-12.11-19.65-12.11-34.54v-61.54H5256c20.25 0 31.76 11.51 31.76 31.76zm96.26 0c0 20.25-11.71 32-31.76 32h-42.47v40.29h42.48c8.93 0 15.68-2.38 20.44-7.15 4.76-4.57 7.15-11.51 7.15-20.44v-2.23h4.17v2.18c0 20.25-11.71 31.76-31.76 31.76h-46.65v-61.53c0-14.69 4-26.4 12.11-34.54 8.14-7.94 19.65-12.11 34.54-12.11h31.76v31.76zm-31.76-27.59c-13.7 0-24.41 3.77-31.56 10.92-7.34 7.34-10.92 17.86-10.92 31.56v12.9h42.48c8.93 0 15.68-2.38 20.44-7.15 4.76-4.77 7.15-11.71 7.15-20.64v-27.6h-27.59zm-464.39 212.43c0 6.07-1.79 10.92-5.12 14.29-3.33 3.37-8.22 5.12-14.29 5.12h-24.18V648h-4v-60.62c0-17.86 10.24-28.11 28.22-28.11h19.41v45.49zm-19.41-41.44c-7.86 0-13.81 2-18 6.19-4.19 4.19-6.19 10-6.19 17.86v32.75h24.18c10 0 15.36-5.36 15.36-15.36v-41.44zm77.65 24.06v36.8h-28.11c-6.19 0-10.92-1.67-14.41-5.12s-5-8.22-5-14.29v-19.42h28.11c6.07 0 10.84 1.67 14.29 5.12.386.369.744.767 1.07 1.19v-4.29c0-7.74-2.14-13.81-6.19-17.86-4.05-4.05-10.12-6.19-17.86-6.19h-19.42v-4h19.41c17.74 0 28.11 10.24 28.11 28.11zm-43.47 2v15.36c0 10 5.24 15.36 15.36 15.36h24.06v-15.34c0-10-5.36-15.36-15.36-15.36h-24.06zm102.89-2v36.8h-4v-36.8c0-7.74-2-13.81-6.19-17.86-4.19-4.05-10.12-6.19-17.86-6.19h-15.42v60.86h-4v-64.9h19.41c17.86 0 28.11 10.24 28.11 28.11zm51.92-23c3.45 3.33 5.12 8.22 5.12 14.29v2h-4v-2c0-10-5.36-15.36-15.36-15.36h-24.1v32.75c0 7.74 2 13.81 6.19 17.86 4.19 4.05 10.12 6.19 17.86 6.19h19.41v4h-19.4c-17.86 0-28.11-10.24-28.11-28.11v-36.8h28.11c6.07 0 11 1.67 14.29 5.12zm63.36 23v36.8h-28.1c-6.19 0-10.92-1.67-14.41-5.12s-5-8.22-5-14.29v-19.42h28.11c6.07 0 10.84 1.67 14.29 5.12.386.369.744.767 1.07 1.19v-4.29c0-7.74-2.14-13.81-6.19-17.86-4.05-4.05-10.12-6.19-17.86-6.19h-19.42v-4h19.41c17.7-.05 28.1 10.19 28.1 28.05zm-43.47 2v15.36c0 10 5.24 15.36 15.36 15.36h24.06v-15.34c0-10-5.36-15.36-15.36-15.36h-24.06zm59.43 4.68h15.32c7.74 0 13.81-2 17.86-6.19 4.05-4.19 6.19-10.12 6.19-17.86v-10.74h4V570c0 9.53-3 16.87-8.46 21.67a24.451 24.451 0 016.15 8.57 34.921 34.921 0 012.38 13.22v10.72h-4v-10.72a31.93 31.93 0 00-2-11.67 18.465 18.465 0 00-5.72-7.62c-4.41 2.62-9.92 4-16.32 4h-15.4v26.08h-4v-89.94h4v59.74zm102.89-15.36q0 9.29-5 14.29c-3.45 3.45-8.22 5.12-14.41 5.12h-24.1v22h24.1c10.12 0 15.36-5.24 15.36-15.36v-2h4v2q0 9.29-5 14.29c-3.45 3.45-8.22 5.12-14.41 5.12h-28.05v-36.8c0-17.86 10.24-28.11 28.11-28.11h19.41v19.41zm-19.41-15.38c-7.74 0-13.7 2.14-17.86 6.19-4.16 4.05-6.19 10.12-6.19 17.86v6.67h24.05c10.12 0 15.36-5.24 15.36-15.36v-15.36z" fill="#fff"/><defs><linearGradient id="d" gradientUnits="userSpaceOnUse" x1="7199.993" y1="0" x2="5760.02" y2="719.994"><stop offset="0" stop-color="#7fff7f"/><stop offset="1" stop-color="#2382b2"/></linearGradient></defs><path d="M5760 0h1440v720H5760z" fill="url(#d)"/><path d="M6047.4 165v31.08H6028c-12.75 0-22.53 3.32-29 9.78-6.64 6.43-9.78 16.24-9.78 29v3.84h58.18v15.54h-73.69v-19.41c0-8.38 1-15.89 3.49-22.53a44.808 44.808 0 0110.8-17.46 46.937 46.937 0 0117.49-10.84 69.328 69.328 0 0122.51-3.48h3.87V165c0-8.91-2.27-15.89-6.81-20.22q-6.81-6.81-20.43-6.81h-30.92v-15.64h30.91c26.71 0 42.78 15.92 42.78 42.67zm55.71 0v89.24h-15.54V165c0-8.91-2.27-15.89-6.81-20.22-4.37-4.54-11.35-6.81-20.22-6.81h-7.86v-15.64h7.86c26.68 0 42.57 15.92 42.57 42.67zm29.51 9.6h-15.54V159h15.54v15.54zm0 79.63h-15.54v-15.56h15.54v15.54zm84.17-50.47h11.53v15.54h-12c-2.76 22-18.16 34.93-42.09 34.93h-7.86v-15.56h7.86c8.91 0 15.72-2.27 20.22-6.81 3.14-3 5.06-7.35 6.11-12.57h-57.46v-7.68a154.32 154.32 0 012.62-29.001 97.1 97.1 0 0110-28.639 61.002 61.002 0 0120.43-22.53c9.27-6.12 20.43-9.12 32.83-9.12h7.86v81.4zm-32.33-59.2c-6.11 3.84-11.18 9.6-15.19 16.94-5.94 11-9.6 25.67-10.48 42.28h42.43v-65.35a41.1 41.1 0 00-16.76 6.11zm128-14.49c0 17.81-3.49 32.48-11 44.71-6.43 10.83-14.71 18.16-22.53 25.32-6.64 5.76-12.92 11.53-17.46 18.51-4.89 7.86-7.16 16.54-7.16 27.77v7.86h-15.52v-7.86c0-14 3.14-25.85 9.6-36 5.59-9.08 13.1-15.54 20.08-22 7.51-6.64 14.49-12.92 19.73-21.65 4.89-8 7.68-17.46 8.38-28.81h-57.8v-15.59h73.69V130zm334.32 36.85v87.31h-25.12v-87.34c0-6.64-1.57-11.7-4.54-14.84-3.14-3-8.21-4.54-14.84-4.54h-12.57v-25.18h12.57c27.42 0 44.53 17.15 44.53 44.56zm92.38-19.38h-33.85c-6.81 0-11.87 1.57-14.84 4.54-3.14 3.14-4.54 8.21-4.54 14.84v8.75l53.31.17V199a69 69 0 01-3.49 22.35 46 46 0 01-29.34 29.34 69 69 0 01-22.35 3.49h-23.28v-25.11H6684c10.11 0 17.81-2.44 22.7-7.35 4.54-4.71 7-11.7 7.35-20.78l-53.31-.17v-33.88c0-27.42 16.94-44.53 44.53-44.53h33.88v25.15zm97.44 15L6811 188.2l25.67 25.67-17.81 17.84-25.71-25.71-25.67 25.73-17.78-17.86 25.67-25.67-25.67-25.67 17.81-17.81 25.67 25.67 25.67-25.67zm90.81 4.37v33.88h-23.23c-10.3 0-17.81 2.62-22.7 7.51-4.71 4.54-7.16 11.53-7.51 20.78h53.44v25.15h-78.58V231a69 69 0 013.49-22.35 47.093 47.093 0 0129.34-29.31 64.505 64.505 0 0120.61-3.49v-8.91c0-6.64-1.57-11.7-4.71-14.84-3-3-8-4.54-14.84-4.54h-33.88v-25.2h33.88c27.61-.03 44.72 17.12 44.72 44.53zM7020 199a64.565 64.565 0 01-3.68 22.35 49.629 49.629 0 01-11.18 18.16 46.866 46.866 0 01-18.14 11.2 69 69 0 01-22.35 3.49h-23.25v-87.31c0-27.42 17.11-44.53 44.53-44.53h34V199zm-34-51.52c-6.64 0-11.7 1.57-14.84 4.54-3 3.14-4.54 8.21-4.54 14.84v8.75h28.29v-28.1H6986zm-19.38 53.31v28.29c9.26-.35 16.24-2.76 20.78-7.35q7.07-7.08 7.35-21h-28.12zm-321.81 293.14v91.16h-5.94v-91.16c0-11.18-3.14-19.91-9.08-25.85-5.76-5.94-14.49-8.91-25.85-8.91h-3v-6h3c26.06.04 40.87 14.91 40.87 40.76zm19.91 91.17h-5.94v-6h5.94zm82.95-125.92h-28.3c-11.18 0-19.91 3-25.85 8.91-5.94 5.91-8.91 14.71-8.91 25.85v22.16l63 .17v15.54a68.236 68.236 0 01-3.49 22.35 46.335 46.335 0 01-10.48 16.94 42.135 42.135 0 01-16.94 10.48 69.318 69.318 0 01-22.53 3.49h-15.48v-6h15.54c15.37 0 27.07-4 35.28-12.22 8-8 12.22-19.91 12.22-35.1v-9.59l-63-.17v-28.06c0-25.85 14.84-40.69 40.69-40.69h28.29v5.94zm82.77 0h-15.54c-15.19 0-27.07 4-35.1 12.22-8.21 8-12.22 19.91-12.22 35.1v9.6h62.87v28.29c0 25.85-14.84 40.69-40.69 40.69h-28.09v-78.56a68.236 68.236 0 013.49-22.35 42.146 42.146 0 0110.48-16.94 41.51 41.51 0 0116.76-10.48 69.345 69.345 0 0122.53-3.49h15.54v5.94zM6767.56 522v57.09h22.18c11.35 0 19.91-3 25.85-8.91 5.94-5.91 8.91-14.71 8.91-25.85V522h-56.93zm145.82 9.79a68.236 68.236 0 01-3.49 22.35 46.343 46.343 0 01-10.48 16.94 43.379 43.379 0 01-16.94 10.48 69.318 69.318 0 01-22.53 3.49h-15.57v-78.53a68.236 68.236 0 013.49-22.35 43.418 43.418 0 0127.42-27.42 68.233 68.233 0 0122.4-3.54h15.72v78.58zm-15.72-72.61c-15.19 0-27.07 4-35.1 12.22-8.21 8-12.22 19.91-12.22 35.1v72.61h9.6c15.37 0 27.07-4 35.28-12.22 8-8 12.22-19.91 12.22-35.1v-72.57h-9.78zm111.06 0h-3c-19.56 0-36 6.43-47.5 18.69a58.597 58.597 0 00-11.7 19.21 46.347 46.347 0 00-2.1 6.43h50.12v5.94h-51.34a67.514 67.514 0 000 19.38h51.34v5.94h-50.12a46.347 46.347 0 002.1 6.43 58.587 58.587 0 0011.7 19.21c11.53 12.22 27.94 18.69 47.5 18.69h3v5.9h-3c-21.3 0-39.29-7.16-51.86-20.61a63.786 63.786 0 01-12.86-21.11 79.88 79.88 0 01-2.62-8.56h-12.78v-5.87h11.7a61.336 61.336 0 01-.7-9.78 60.72 60.72 0 01.7-9.6h-11.7v-5.94h12.75A79.685 79.685 0 016941 495a63.8 63.8 0 0112.92-21.14c12.57-13.45 30.56-20.61 51.86-20.61h3v5.94zm-1022.45-5.4a41.25 41.25 0 0134.23 27.42l1.57 4.54-8.91 3.14-1.75-4.54a31.44 31.44 0 00-25.15-20.78v51.34c10.48.87 19.38 4.37 26 10.65a30.207 30.207 0 017.86 11.35 34.2 34.2 0 01-7.86 37.72c-6.64 6.11-15.54 9.78-26 10.65v12.4h-9.6v-12.58a39.634 39.634 0 01-19.38-7.51 40.545 40.545 0 01-15-19.91l-1.57-4.54 9.08-3.14 1.57 4.54a32.17 32.17 0 0025.32 20.92v-51.3c-10.48-.92-19.38-4.54-26-10.65a35.196 35.196 0 01-8-11.53 34.002 34.002 0 010-26.19 32.773 32.773 0 018-11.35c6.64-6.29 15.54-9.78 26-10.65v-12.4h9.6v12.4zm-29 17.64c-9.639 8.838-10.292 23.815-1.46 33.46q.7.76 1.46 1.46c4.71 4.54 11.35 7.35 19.38 8v-51c-8 .7-14.64 3.49-19.38 8zm29 104c7.86-.7 14.49-3.49 19.38-8 9.618-8.829 10.28-23.775 1.48-33.42q-.7-.76-1.46-1.46c-4.89-4.54-11.53-7.35-19.38-8v51zm60.43-119.55a36.385 36.385 0 0113.3 8.2 34.102 34.102 0 018.21 13.45 48.215 48.215 0 012.76 17.11v90.46h-9.57v-90.46c0-10.3-2.76-18.34-8.21-23.75-5.24-5.24-13.27-8-23.75-8h-4.74v-9.64h4.71a52.903 52.903 0 0117.29 2.66zm84.7 0a37.913 37.913 0 0113.27 8.21 34.102 34.102 0 018.21 13.45 52.467 52.467 0 012.76 17.11V524h-17.08c-14.32 0-25.32 3.84-32.83 11.35-7.51 7.35-11.18 18.51-11.18 32.66v7.46h61.12v9.6h-70.77V568a64.603 64.603 0 013.49-22.35 41.635 41.635 0 0110.48-17.11 46.566 46.566 0 0117.13-10.68 69.318 69.318 0 0122.53-3.49h7.47v-19.74c0-10.3-2.76-18.34-8.21-23.75-5.41-5.24-13.27-8-23.75-8h-29.09v-9.64h29.16a52.903 52.903 0 0117.29 2.66zm106.52 14.32a69.31 69.31 0 01-3.49 22.53 43.895 43.895 0 01-10.65 17.11c0 .17-.17.17-.17.35 7.16 5.41 14.32 15.37 14.32 33.35v41.56h-30.74c-10.48 0-19.21-2.44-26-7.16-7-4.89-11.7-11.87-14-21l-1-4.71 9.21-2.22 1.22 4.71a25.728 25.728 0 0010 15.37c5.24 3.68 12.22 5.41 20.61 5.41h21.14v-32a39.334 39.334 0 00-3.49-17.11 23.632 23.632 0 00-9.26-10.11 52.049 52.049 0 01-8.91 4.19 69.337 69.337 0 01-22.57 3.54h-4.71v-9.62h4.71c14.32 0 25.32-3.84 32.83-11.35 7.51-7.35 11.35-18.51 11.35-32.83v-7.35h-21.13c-8.38 0-15.37 1.75-20.61 5.41a25.68 25.68 0 00-10 15.37l-1.22 4.71-9.26-2.27 1-4.71c2.27-9.08 7-16.07 14-21 6.81-4.71 15.54-7.16 26-7.16h30.73v17zm23.58 114.9h-9.6v-9.64h9.6zm84.72-53.76a69.318 69.318 0 01-3.49 22.53A44.47 44.47 0 016315 581.6a69 69 0 01-22.35 3.49h-17.2v-9.64h17.11c14.14 0 25.32-3.84 32.66-11.35 7.51-7.35 11.35-18.51 11.35-32.83v-7.35h-61.12v-29.29a52.536 52.536 0 012.62-17.11 33.49 33.49 0 0121.65-21.65 52.897 52.897 0 0117.28-2.66h29.19v78.12zm-29.16-68.45c-10.48 0-18.51 2.76-23.9 8-5.39 5.24-8 13.45-8 23.75v19.77h51.52v-51.55H6317z" fill="#fff"/><defs><linearGradient id="e" gradientUnits="userSpaceOnUse" x1="8639.993" y1="0" x2="7200.02" y2="719.994"><stop offset="0" stop-color="#e5deda"/><stop offset="1" stop-color="#2d414c"/></linearGradient></defs><path d="M7200 0h1440v720H7200z" fill="url(#e)"/><path d="M7385.9 251.79h-5.9v-5.95h5.92v5.92zm19.85 0h-5.92v-5.95h5.92zm19.85 0h-5.92v-5.95h5.92zm21.58-78c6.62-11 18.63-16.89 35.17-16.89h28.41v94.9h-5.92v-89h-22.47c-11.32 0-20.16 3-26.12 9.05-6.09 5.92-9.05 14.8-9.05 26.12v53.81h-5.92V120.29h5.92v53.49zm150.45 11.49q0 13.58-7.33 20.9c-5 5-12 7.49-21.08 7.49h-35.14v32.19h35.17c14.8 0 22.46-7.66 22.46-22.46v-3h5.92v3q0 13.58-7.33 20.9c-5 5-12 7.49-21.08 7.49h-41.06V198c0-26.12 15-41.09 41.09-41.09h28.41v28.39zm-28.41-22.46c-11.32 0-20 3.13-26.12 9.05-5.92 5.92-9.05 14.8-9.05 26.12v9.75h35.2c14.8 0 22.46-7.66 22.46-22.46v-22.47h-22.49zm43.78-54.16c5.4 6.79 8 15.85 8 27v116.13h-6V135.65q0-14.66-6.79-23.51l-1.74-2.26 4.7-3.67zm23.33 0c5.4 6.79 8 15.85 8 27v116.13h-5.92V135.65q0-14.66-6.79-23.51l-1.74-2.26 4.7-3.67zm94.86 89.34v53.81h-28.41c-26.12 0-41.09-15-41.09-41.09v-53.83h28.41c26.12 0 41.09 14.98 41.09 41.11zm-63.56-35.17v47.87c0 11.32 3 20.16 9.05 26.12 5.92 6.09 14.8 9.05 26.12 9.05h22.46V198c0-11.32-3-20.16-9.05-26.12-5.92-6.09-14.8-9.05-26.12-9.05zM7810.74 136c0 17.94-2.75 29.43-8.71 37.44-5.75 7.49-13.75 11-23 15-.562.325-1.143.615-1.74.87a24.92 24.92 0 00-14.22 15.32c-2.61 6.62-2.75 14.1-2.75 19.85v3h-5.92v-3c0-6.27.35-14.28 3.13-21.94a31.002 31.002 0 0117.59-18.63l1.57-.87c8.88-3.83 15.85-6.79 20.55-13.06 2.61-3.31 4.35-7.49 5.57-12.54a91.687 91.687 0 002.1-21.44v-9.75h-22.35q-17 0-26.12 8.88-8.88 9.16-8.88 26.12v3h-5.92v-3c0-25.95 15-40.92 40.92-40.92h28.18zm-50.5 115.8h-5.92v-5.95h5.92zm300.06 234.85h25.07v25.07h-25.07zM8069 624c-5.92-7.14-8.71-16.37-8.71-27.49v-71.73h25.07v71.74c0 3.67.52 8.53 3.13 11.84l7.84 9.75-19.5 15.67zm61.12-134.41a50.07 50.07 0 0117.41-2.75h32.54v94.85H8155V511.9h-7.49c-6.09 0-10.62 1.39-13.41 4-2.61 2.75-4 7.33-4 13.41v52.41H8105v-131.5h25.07v39.41zm129.2 8.69c7.49 7.49 11.32 18.11 11.32 31v52.41h-32.39c-12.89 0-23.51-4-31-11.49-7.49-7.49-11.49-18.11-11.49-31v-52.38h32.56c12.71 0 23.51 4 31 11.49zm-38.49 13.58v27.34c0 6.09 1.39 10.62 4 13.41 2.75 2.61 7.33 4 13.41 4h7.33v-27.3c0-6.09-1.22-10.62-4-13.41-2.75-2.61-7.14-4-13.23-4h-7.51zm83.59-65.82c5.75 7.49 8.71 17.24 8.71 28.73v106.95h-25.07V474.81c0-4-.52-9.58-3.48-13.41l-7.66-9.93 19.85-15.32zm89.49 52.24c7.49 7.49 11.49 18.11 11.49 31v52.41h-42.49c-19.68 0-32.39-12.71-32.39-32.56v-27.46h42.31c2.44 0 4.53.35 6.79.52a15.324 15.324 0 00-3.31-6.27c-2.75-2.61-7.33-4-13.41-4h-32.39v-25.1h32.39c12.89 0 23.51 4 31 11.49zm-38.31 48.41v2.47c0 3 .52 5 1.39 5.92 1 1 3.13 1.57 5.92 1.57h17.41v-2.44c0-2.75-.52-4.88-1.57-5.92s-3-1.57-5.92-1.57h-17.24zm85.85-102.39c5.92 7.14 8.71 16.37 8.71 27.49v71.74h-25.07v-71.68c0-3.67-.52-8.53-3.13-11.84l-7.84-9.79 19.5-15.67zm8.71 137.39h-25.07v-25.04h25.07v25.07zm-356.87-461.4l-1.57 1a93.025 93.025 0 00-18.8 19.71 103.85 103.85 0 00-12.92 25.64 109.554 109.554 0 00-5.92 36.57A109.83 109.83 0 008060 240a99.768 99.768 0 0012.89 25.42 90.905 90.905 0 0018.82 19.88l1.57 1-2.11 2.93-1.39-1c-.52-.17-10.08-6.79-19.85-20.55a110.1 110.1 0 01-13.41-26.29 121.804 121.804 0 010-76.07 110.111 110.111 0 0113.42-26.32c9.75-13.75 19.33-20.37 19.85-20.55l1.39-1.08zm72.26 38.34a56.216 56.216 0 01-2.44 17.76 39.868 39.868 0 01-6.79 13.55c-5.57 7.14-13.58 12.54-24.55 16-9.75 3.31-17.24 8.18-22.46 14.8-5.57 7.14-8.53 16.37-8.88 27.34h37.26c7.84 0 13.93-2.09 18.11-6.27 4-4 6.09-10.08 6.09-17.94V222h3.67v1.92c0 17.76-10.08 27.86-27.86 27.86h-40.93v-1.92c0-12.54 3.31-23.16 9.75-31.34 5.57-7.14 13.75-12.54 24-15.85 10.27-3.48 17.76-8.36 22.81-15 5.57-7 8.36-15.85 8.53-27.16h-37.23c-7.84 0-13.93 2.09-17.94 6.27-4.18 4-6.27 10.08-6.27 17.94v1.92h-3.67v-1.92c0-17.76 10.08-27.86 27.86-27.86h40.92v1.74zm82.71 26.12c0 17.76-10.27 28-27.86 28h-37.26v35.36h37.26c7.84 0 13.75-2.09 17.94-6.27 4.18-4 6.27-10.08 6.27-17.94V222h3.67v1.92c0 17.76-10.27 27.86-27.86 27.86h-40.94v-54c0-12.89 3.48-23.16 10.62-30.3 7.14-7 17.24-10.62 30.3-10.62h27.86v27.86zm-27.86-24.2c-12 0-21.42 3.31-27.69 9.58s-9.58 15.67-9.58 27.69v11.32h37.26c7.84 0 13.75-2.09 17.94-6.27 4.19-4.18 6.27-10.27 6.27-18.11v-24.2h-24.2zm112.31 0h-27.86c-12 0-21.24 3.31-27.69 9.58-6.27 6.42-9.58 15.67-9.58 27.69v54h-3.67v-54c0-13.06 3.67-23.16 10.62-30.3 7.14-7 17.24-10.62 30.3-10.62h27.86v3.67zm72.09 7c7.14 7.14 10.62 17.24 10.62 30.3v54h-27.86c-13.06 0-23.16-3.67-30.3-10.62-7-7.14-10.62-17.24-10.62-30.3v-54h27.86c13.06 0 23.16 3.66 30.3 10.62zm-54.5-7v50.32c0 12 3.31 21.24 9.58 27.69 6.42 6.27 15.67 9.58 27.69 9.58h24.2V197.8c0-12-3.13-21.24-9.58-27.69-6.27-6.27-15.67-9.58-27.69-9.58h-24.2zm70.35-42.14c.52.17 10.08 6.79 19.85 20.55a110.1 110.1 0 0113.41 26.29 121.804 121.804 0 010 76.07 110.1 110.1 0 01-13.41 26.29c-9.75 13.75-19.33 20.37-19.85 20.55l-1.39 1-2.09-3 1.57-1a90.901 90.901 0 0018.81-19.85 99.781 99.781 0 0012.89-25.31 109.877 109.877 0 005.92-36.74 109.55 109.55 0 00-5.92-36.57 103.859 103.859 0 00-12.89-25.6 93.025 93.025 0 00-18.81-19.68l-1.58-1.08 2.09-3zm-941.51 368.47h18.33v9.58h-18.33V516a36.682 36.682 0 01-1.39 10.27 37.768 37.768 0 0114.66-2.75h4.7v9.58h-4.7c-13.06 0-19.68 6.62-19.68 19.5v29.25h-9.61v-29.36a36.322 36.322 0 011.39-10.08 37.516 37.516 0 01-14.45 2.75h-19.65v36.57h-9.6v-36.57h-18.33v-9.56h18.33v-19.68a39.867 39.867 0 011.39-10.449 33.095 33.095 0 01-14.8 3.129h-4.88V499h4.88c12.89 0 19.5-6.62 19.5-19.68v-29.05h9.58v29.08a40.232 40.232 0 01-1.39 10.65 33.327 33.327 0 0115-3.1h19.5v-36.59h9.58v36.57zm-29.08 9.58c-13.06 0-19.68 6.62-19.68 19.5v19.68h19.68c12.89 0 19.5-6.62 19.5-19.68v-19.54h-19.5zm72.61-9.58h19.54a52.767 52.767 0 0117.24 2.61 37.791 37.791 0 0113.23 8.18 34.005 34.005 0 018.18 13.41 52.324 52.324 0 012.75 17.06v53.63h-41.39c-9.05 0-16.37-2.61-21.42-7.66-5-5.22-7.66-12.36-7.66-21.59V450.27h9.58v36.6zm0 9.58v56.07c0 13.06 6.42 19.68 19.5 19.68H7574v-44.09c0-10.27-2.75-18.33-8.18-23.68-5.43-5.35-13.23-8-23.68-8h-19.5zm79.76-56.46c5.4 7 8.18 16 8.18 27.16v114.56H7601V467.16c0-8.88-2.09-16.19-6.09-21.42l-3-3.67 7.66-5.92zm96.12 141.74h-29.08a52.74 52.74 0 01-17.28-2.61 33.4 33.4 0 01-21.59-21.59 52.74 52.74 0 01-2.6-17.24v-53.42h9.58v53.46c0 10.45 2.75 18.46 8 23.83 5.25 5.37 13.41 8 23.83 8h19.5v-85.3h9.58v94.86h.06zm87.93-65.82q0 13.85-7.84 21.42-7.57 7.84-21.42 7.84h-31.71v27h31.71c13.06 0 19.68-6.62 19.68-19.68v-4.7h9.58v4.7q0 13.85-7.84 21.42-7.57 7.84-21.42 7.84H7716v-53.64a54.25 54.25 0 012.61-17.24 33.911 33.911 0 0121.39-21.42 54.254 54.254 0 0117.21-2.58h29.25v29zm-29.25-19.5c-10.27 0-18.33 2.61-23.68 8-5.35 5.39-8 13.41-8 23.69v7.49h31.71c13.06 0 19.68-6.62 19.68-19.68v-19.5h-19.72z" fill="#fff"/><defs><linearGradient id="f" gradientUnits="userSpaceOnUse" x1="8640.007" y1="0" x2="10079.98" y2="719.994"><stop offset="0" stop-color="#ffe5b2"/><stop offset="1" stop-color="#ff7289"/></linearGradient></defs><path d="M10080 0H8640v720h1440z" fill="url(#f)"/><path d="M9623.49 482.21a65.304 65.304 0 0114.69 21.62 72.453 72.453 0 015.45 28c0 14.53-2.87 26.7-8.54 35.06-4.9 7.08-11.63 11.08-18.53 11.08a15.58 15.58 0 01-11.81-5.27c-3.27-3.45-4.9-8.36-4.9-14.17V531.8c-.033-13.696-11.163-24.773-24.86-24.74-13.697.033-24.773 11.163-24.74 24.86.033 13.696 11.163 24.773 24.86 24.74h8.58v3.82h-8.51a28.62 28.62 0 1128.52-28.71v26.73c0 9.26 5.27 15.62 12.9 15.62 5.63 0 11.26-3.45 15.3-9.45 3.63-5.45 8-15.44 8-32.88a67.642 67.642 0 00-5.09-26.52 62.148 62.148 0 00-13.81-20.34c-12-11.47-28.16-17.8-45.78-17.8-35.702-.336-64.942 28.282-65.375 63.982-.433 35.701 28.106 65.019 63.805 65.548h1.57a63.251 63.251 0 0025.78-5.46l1.82-.73 1.45 3.45-1.63 1a71.245 71.245 0 01-27.47 5.61 66.945 66.945 0 01-26.7-5.45A69.004 69.004 0 019512 558.5a67.7 67.7 0 010-53.23 68.994 68.994 0 0136.51-36.51 66.91 66.91 0 0126.7-5.45c18.51 0 35.77 6.72 48.3 18.89zm109.34-17.08a98.362 98.362 0 01-6.36 35.79 105.75 105.75 0 01-33.61 45.78v53.8H9689v-53.8a100.128 100.128 0 01-19.62-20.16 106.33 106.33 0 01-14-25.61 102.282 102.282 0 01-6.36-35.79v-1.82h3.82v1.82a96.004 96.004 0 006.18 34.52 102.071 102.071 0 0013.44 24.71 95.531 95.531 0 0018.53 19.12 104.212 104.212 0 0018.53-19.26 102.111 102.111 0 0013.48-24.72 98.193 98.193 0 006-34.33v-1.82h3.82v1.77zm69.8 47.4c7.45 7.45 11.08 18 11.08 31.61v56.36h-29.07c-13.62 0-24.16-3.82-31.61-11.08-7.27-7.45-11.08-18-11.08-31.61v-56.32H9771c13.63-.03 24.16 3.79 31.63 11.04zm-56.86-7.27v52.5c0 12.53 3.45 22.16 10 28.88 6.69 6.54 16.35 10 28.88 10h25.25v-52.49c0-12.53-3.27-22.16-10-28.88-6.54-6.54-16.35-10-28.88-10h-25.25zM9900 600.5h-29.07c-13.62 0-24.16-3.82-31.61-11.08-7.27-7.45-11.08-18-11.08-31.61v-56.32h3.76v56.32c0 12.53 3.45 22.16 10 28.88 6.69 6.54 16.35 10 28.88 10h25.25v-95.23h3.87v99zm-340.9-412.22c0 9.63 7.08 14 14 14 7.08 0 14.17-4.36 14.17-14v-17.8h10v17.8c0 15.8-12.17 24-24.16 24s-24-8.17-24-24c0-9.81-7.08-14.17-14.17-14.17-6.9 0-14 4.36-14 14.17v17.62H9511v-17.62c0-15.8 12-24.16 24-24.16s24.1 8.35 24.1 24.16zm50.14-65.94a37.837 37.837 0 0113.76 8.53 35.467 35.467 0 018.54 14 50.164 50.164 0 012.87 17.8v94.1h-10v-94.1c0-10.72-2.87-19.12-8.54-24.71-5.45-5.45-13.81-8.36-24.71-8.36h-4.9v-10h4.9a54.989 54.989 0 0118.08 2.73zm52.84 129.34a68.853 68.853 0 01-3.82 23.8 45.009 45.009 0 01-11.47 18l-3.63 3.45-6.9-7.08 3.63-3.45c8-7.81 12.17-19.44 12.17-34.7v-4.94h10v4.94zm62.86-129.34a39.432 39.432 0 0113.81 8.54 35.474 35.474 0 018.54 14 54.57 54.57 0 012.87 17.8v30.53h-17.8c-14.9 0-26.34 4-34.15 11.81-7.81 7.65-11.63 19.26-11.63 34v7.76h63.58v10h-73.62V239c0-8.54 1.09-16.35 3.63-23.25a43.313 43.313 0 0110.9-17.8 48.463 48.463 0 0117.86-11.08 72.095 72.095 0 0123.43-3.63h7.81v-20.58c0-10.72-2.87-19.12-8.54-24.71-5.67-5.59-13.81-8.36-24.71-8.36h-30.34v-10h30.34a54.983 54.983 0 0118 2.76zm109.72 86.29h12.72v10h-13.08c-.142 4.409-1 8.766-2.54 12.9a35.48 35.48 0 01-8.54 14 39.432 39.432 0 01-13.81 8.54 55.02 55.02 0 01-18 2.72h-4.9v-10h4.9c10.9 0 19.12-2.87 24.71-8.36 4.72-4.72 7.45-11.47 8.17-19.8h-63.19v-5.09a169.806 169.806 0 012.72-30.881c2.36-11.469 5.81-21.619 10.52-30.159a63.6 63.6 0 0121-23.62c9.63-6.18 21.25-9.26 34.15-9.26h5.09v89zm-33.79-71.21c-7.08 4.54-13.08 11.26-17.8 19.8-4.18 7.81-11.26 24.52-12 51.41h53.59v-78.85a50.523 50.523 0 00-23.78 7.63zm96.46 6.18c.044 13.299-10.701 24.116-24 24.16-13.299.044-24.116-10.701-24.16-24-.044-13.299 10.701-24.116 24-24.16a24.08 24.08 0 0124.17 23.99zm-38.15 0a13.999 13.999 0 0013.9 14.17h.09a14.086 14.086 0 0012.741-20.804 14.083 14.083 0 00-12.011-7.356h-.73c-7.717.011-13.969 6.264-13.98 13.98zM8845.26 470h-6.18v-6.21h6.18zm0 131h-6.18v-99h6.18zm90.65-56.13V601h-29.64c-27.25 0-42.87-15.62-42.87-42.87v-56.18h29.6c27.28 0 42.91 15.63 42.91 42.88zm-66.31-36.7v50c0 11.81 3.09 21 9.45 27.25 6.18 6.36 15.44 9.45 27.25 9.45h23.4v-50c0-11.81-3.09-21-9.45-27.25-6.18-6.36-15.44-9.45-27.25-9.45zm161.85-41.25c0 9.08-.91 16.71-2.87 23.25a47.672 47.672 0 01-7.81 15.8c-6.36 8.17-15.08 12.72-23.62 17.21l-7.08 3.82 1.63 2.72c6.69 10.72 16.35 21.8 28.34 33.06 6.54 6 13.08 11.47 18.89 16a39.752 39.752 0 005-20.33 42.9 42.9 0 00-1.63-12.17l-1-3.09 6-1.63.91 3.09a55.182 55.182 0 011.86 13.81c0 9.26-2.18 17.62-6.36 24.16a218.566 218.566 0 0018 12.53l2.54 1.63-3.18 5.22-2.54-1.63c-.18 0-7.81-4.9-18.35-12.9a18.074 18.074 0 01-2.54 2.72 39.132 39.132 0 01-13.62 8 47.537 47.537 0 01-16.35 2.72h-55.47v-3.09c0-45.78 13.81-62.86 29.43-73-5.81-11.08-8.9-21.8-8.9-31.79a29.297 29.297 0 018.6-20.15 28.678 28.678 0 0120.89-9.08h29.25v3.09zm-60.65 76.67c-8 11.63-12 28.34-12.35 51.23h49.23c10.52 0 19.44-3.27 25.82-9.08l1.82-1.82c-6-4.72-12.72-10.35-19.44-16.53-12.35-11.63-22.16-23.07-29.43-34.15-.54-1.09-1.09-2-1.63-2.87a53.528 53.528 0 00-14.01 13.19zm31.43-73.62a22.87 22.87 0 00-16.34 7.03 23.61 23.61 0 00-6.9 16c0 8.9 2.72 18.53 8 28.52 2.36-1.27 4.9-2.54 7.45-3.82 16-8.54 30-15.8 30.7-47.81h-22.93zm80.64 32h19.62v6.18h-19.62v63.58c0 15.08 8 23.07 23.07 23.07h3.06v6.2h-3.09c-9.08 0-16.35-2.54-21.44-7.65-5.27-5.09-7.81-12.35-7.81-21.62v-63.62h-19.58v-6.18h19.62v-38.16h6.18v38.18zm109.54 99h-29.63c-27.25 0-42.87-15.62-42.87-42.87v-56.15h6.18v56.13c0 11.81 3.09 21 9.45 27.25 6.18 6.36 15.44 9.45 27.25 9.45h23.43v-92.83h6.18v99zM8820 223.52l11.47-11.52 15.8 15.8V119.57h16.17v108.31l16-15.8 11.26 11.47-35.24 35.24zm161.86-23.25a72.121 72.121 0 01-3.63 23.43 46.798 46.798 0 01-29.41 29.43 72.121 72.121 0 01-23.43 3.63h-20.19V240.6h20.16c13.26 0 23.43-3.45 30.16-10.17s10.17-16.89 10.17-30.16v-4h-60.49v-32.34c0-27.79 16.53-44.33 44.33-44.33h32.34v80.66zm-32.34-64.44c-9.26 0-16.53 2.36-21 7.08-4.72 4.54-7.08 11.81-7.08 21v16.17h44.33v-44.26h-16.24zm123.53-8.22c0 18.53-3.63 33.79-11.47 46.51-6.69 11.26-15.3 18.89-23.43 26.34-6.9 6-13.44 12-18.17 19.26-5.09 8.17-7.45 17.21-7.45 28.88v8.17h-16.14v-8.17c0-14.53 3.27-26.89 10-37.42 5.81-9.45 13.62-16.17 20.89-22.89 7.81-6.9 15.08-13.44 20.53-22.53 5.09-8.36 8-18.17 8.72-30h-60.14v-16.19h76.66v8zm71.77 22.34c.027 16.801-13.567 30.445-30.367 30.48-16.801.034-30.451-13.553-30.493-30.354-.042-16.801 13.54-30.457 30.34-30.506a30.433 30.433 0 0130.52 30.38zm-44.69 0c-.061 7.855 6.255 14.274 14.11 14.34h.06a14.267 14.267 0 0012.856-6.688 14.268 14.268 0 00-12.116-21.832h-.74c-7.825.011-14.165 6.355-14.17 14.18zm88.29-24.86l-66.67 133.49-14.53-7.27L9173.89 118zm23.07 101.19c.033 16.806-13.565 30.457-30.371 30.49-16.806.033-30.456-13.565-30.489-30.371-.033-16.806 13.564-30.456 30.37-30.489h.16c16.736.049 30.29 13.604 30.34 30.34zm-44.69 0a14.27 14.27 0 1014.36-14.17c-7.854-.033-14.259 6.286-14.33 14.14z" fill="#fff"/><defs><linearGradient id="g" gradientUnits="userSpaceOnUse" x1="11519.993" y1="0" x2="10080.02" y2="719.994"><stop offset="0" stop-color="#ffd9bf"/><stop offset="1" stop-color="#663c38"/></linearGradient></defs><path d="M10080 0h1440v720h-1440z" fill="url(#g)"/><path d="M10311.06 204.06h20.13c10.51 0 18.75-2.81 24.23-8.2 5.48-5.39 8.2-13.72 8.2-24.38v-17.3h9.8v17.28a54 54 0 01-2.67 17.64 39.445 39.445 0 01-8.37 13.72 34.297 34.297 0 017.5 11.4 51.946 51.946 0 013.56 19.6v17.46h-9.86v-17.46c0-11.25-3.21-19.78-9.26-25.12a55.005 55.005 0 01-5.7 2.49 53.626 53.626 0 01-17.46 2.67h-20.1v37.41h-9.84V116.73h9.84v87.34zm89.94 47.22h-9.8v-97.1h9.8zm.18-124.71h-9.8v-9.84h9.8zm89.93 57.37q0 14.16-8 21.91-7.75 8-21.91 8h-32.42v27.58h32.42c13.36 0 20.13-6.77 20.13-20.13v-4.8h9.76v4.81q0 14.17-8 21.91-7.75 8-21.91 8H10419v-54.79a55.515 55.515 0 012.67-17.64 34.694 34.694 0 0121.91-21.91 55.51 55.51 0 0117.64-2.67h29.9v29.73zm-29.93-20c-10.51 0-18.75 2.67-24.23 8.2-5.48 5.53-8.2 13.72-8.2 24.23v7.66h32.43c13.36 0 20.13-6.77 20.13-20.13V164h-20.14zm-6.06-27.62l-12.47 12.47-6.86-6.95 19.42-19.42 19.42 19.42-7 6.95zm36.56-23.32l-19.42 19.42-6.95-6.95 19.42-19.42zm151.78 138.28h-9.84V164h-19.91c-10.69 0-18.89 2.81-24.38 8.2-5.49 5.39-8.21 13.72-8.21 24.26v54.87h-9.81v-54.9c0-10.51-2.81-18.75-8.2-24.23-5.39-5.48-13.72-8.2-24.23-8.2h-20.13v87.3h-9.84v-97.12h30a53.626 53.626 0 0117.46 2.67 39.454 39.454 0 0113.72 8.37 45.304 45.304 0 016.24 8.73 38.094 38.094 0 016.06-8.73 39.447 39.447 0 0113.73-8.37 54.003 54.003 0 0117.64-2.67h29.75v97.1zm410.67 282.52v55.05h-42c-9.26 0-16.39-2.49-21.57-7.66-5-5-7.5-12.29-7.5-21.38v-29.07h42c9.09 0 16.21 2.49 21.38 7.66a16.068 16.068 0 011.6 1.78v-6.41c0-11.58-3.21-20.63-9.26-26.72-6.24-6.24-15.14-9.26-26.72-9.26H10983v-6.06h29.07c26.57 0 42.07 15.35 42.07 42.07zm-65 3v23c0 15 7.84 23 23 23h36v-23c0-15-8-23-23-23zm142.71-37.41c5.17 5 7.66 12.29 7.66 21.38v65c0 13.36-3.39 23.87-10 31-6.95 7.3-17.1 11-30.29 11a36 36 0 01-16.57-3.75 31.136 31.136 0 01-11.4-10.69l-1.58-2.48 5.17-3.21 1.6 2.49c4.81 7.66 12.65 11.58 22.8 11.58 11.58 0 20.13-3 25.83-9.09 5-5.52 7.84-13.54 8.37-23.87h-23c-26.72 0-42-15.32-42-42v-55h42c9.06 0 16.4 2.49 21.35 7.66zm-57.37-1.6v49c0 11.58 3 20.63 9.26 26.72 6.06 6.24 15.14 9.26 26.72 9.26h23v-62c0-15-8-23-23-23h-36zm48.82-30.64c-.408 10.323-8.894 18.481-19.225 18.481-10.331 0-18.817-8.158-19.225-18.481v-3h6.06v3c.002 7.28 5.905 13.18 13.185 13.18s13.182-5.9 13.185-13.18v-3h6.06v3zm103.33 66.63v55.05h-42c-9.26 0-16.39-2.49-21.57-7.66-5-5-7.5-12.29-7.5-21.38v-29.05h42c9.09 0 16.21 2.49 21.38 7.66a16.169 16.169 0 011.6 1.78v-6.41c0-11.58-3.21-20.63-9.26-26.72-6.24-6.24-15.14-9.26-26.72-9.26h-29.07v-6.06h29.07c26.57 0 42.07 15.35 42.07 42.07zm-65 3v23c0 15 7.84 23 23 23h36v-23c0-15-8-23-23-23zm144.32-13v-3c0-15-8-23-23-23h-36v49c0 11.58 3 20.63 9.26 26.72 6.06 6.24 15.14 9.26 26.72 9.26h29.07v6.06h-22.63L11277.2 601a17.07 17.07 0 01-6.24 33h-7.3v-6.06h7.3c6.053-.054 10.946-4.947 11-11-.033-6.036-4.924-10.918-10.96-10.94h-7.31l17.1-17.1c-25.48-.94-39.91-16-39.91-42v-55.15h42c9.09 0 16.39 2.49 21.38 7.66 5.17 5 7.66 12.29 7.66 21.38v3h-6.07zM11031.77 188v12.83h-25.66V188c0-3-.71-5.17-1.6-6.06-.94-1.07-3.21-1.6-6.06-1.6h-17.82v28c0 6.24 1.43 10.87 4.28 13.72 2.67 2.67 7.3 4.1 13.54 4.1h33.32v25.64h-33.32c-13.18 0-24.05-4.1-31.71-11.76s-11.74-18.57-11.74-31.76v-53.64h43.47c20.14 0 33.32 13 33.32 33.35zm80.89-21.57c7.66 7.66 11.76 18.53 11.76 31.71v53.62h-43.5c-20.13 0-33.14-13-33.14-33.32v-28.13h43.29c2.49 0 4.63.36 6.95.53a15.686 15.686 0 00-3.39-6.41c-2.81-2.67-7.5-4.1-13.72-4.1h-33.11v-25.69h33.11c13.21 0 24.08 4.1 31.74 11.79zm-39.2 49.57v2.49c0 3 .53 5.17 1.43 6.06 1.07 1.07 3.21 1.6 6.06 1.6h17.82v-2.48c0-2.81-.53-5-1.6-6.06-1.07-1.06-3-1.6-6.06-1.6h-17.65zm129.36-73.08h-23.7c-3.39 0-5.88.71-7.13 2-1.25 1.07-2 3.56-2 6.95v2.81h19.78v25.66H11170v71.5h-25.66v-71.55h-12.79v-25.65h12.83v-2.81c0-13 5.17-20.85 9.44-25.12s12.12-9.44 25.32-9.44h23.68v25.62z" fill="#fff"/><path d="M11268.73 142.88H11245c-3.39 0-5.88.71-7.13 2-1.25 1.07-2 3.56-2 6.95v2.81h19.78v25.66h-19.78v71.5h-25.61v-71.51h-12.85v-25.65h12.85v-2.81c0-13 5.17-20.85 9.44-25.12s12.12-9.44 25.32-9.44h23.7v25.66zm71.27 39.92c0 20.13-13 33.32-33.14 33.32H11289v10h17.82c2.81 0 5-.53 6.06-1.6 1.06-1.07 1.43-3 1.43-6.06h25.69c0 20.31-13 33.32-33.14 33.32h-43.47v-53.67c0-13.18 4.1-24.05 11.76-31.71s18.53-11.76 31.71-11.76h33.14zm-22.45-47.8l-7.13 14.25L11286 137l7.13-14.07zm-10.65 45.24c-6.24 0-10.87 1.43-13.72 4.1a15.128 15.128 0 00-3.21 6.06h16.88a9.998 9.998 0 006.06-1.6c.94-1.07 1.43-3.21 1.43-6.06v-2.49h-7.44zM10266 491.75h23c26.72 0 42 15.32 42 42v55.05h-42c-9.09 0-16.39-2.67-21.38-7.66-5.17-5-7.66-12.29-7.66-21.38V454.3h6v37.45zm0 6.06v62c0 15 8 23 23 23h36v-49c0-11.58-3.21-20.63-9.26-26.72s-15.14-9.26-26.72-9.26H10266zm80.72-55.41c5.52 6.95 8.2 16.21 8.2 27.62v118.83h-6.02V470q0-15-6.95-24.05l-1.78-2.32 4.83-3.73zm97.09 91.4v55.05h-42c-9.26 0-16.39-2.49-21.57-7.66-5-5-7.5-12.29-7.5-21.38v-29.07h42c9.09 0 16.21 2.49 21.38 7.66a16.068 16.068 0 011.6 1.78v-6.41c0-11.58-3.21-20.63-9.26-26.72-6.24-6.24-15.14-9.26-26.72-9.26h-29.03v-6.06h29.07c26.57 0 42.07 15.35 42.07 42.07zm-65 3v23c0 15 7.84 23 23 23h36v-23c0-15-8-23-23-23zm87.12-45.07h23c26.72 0 42 15.32 42 42v55.05h-42c-9.09 0-16.39-2.67-21.38-7.66-5.17-5-7.66-12.29-7.66-21.38V454.3h6.06v37.45zm0 6.06v62c0 15 8 23 23 23h36v-49c0-11.58-3.21-20.63-9.26-26.72s-15.14-9.26-26.72-9.26h-23zm152.15 36v55.05h-42c-9.26 0-16.39-2.49-21.57-7.66-5-5-7.5-12.29-7.5-21.38v-29.06h42c9.09 0 16.21 2.49 21.38 7.66a16.068 16.068 0 011.6 1.78v-6.41c0-11.58-3.21-20.63-9.26-26.72-6.24-6.24-15.14-9.26-26.72-9.26H10547v-6.06h29c26.57 0 42.07 15.35 42.07 42.07zm-65 3v23c0 15 7.84 23 23 23h36v-23c0-15-8-23-23-23zm23.36-52.19h-6.06v-6.06h6.06zm18.53 0h-6.07v-6.06h6.1v6.06zm110.26 13.18h-29.08c-11.58 0-20.63 3-26.72 9.26-6.24 6.06-9.26 15.14-9.26 26.72v55.05h-6.06V533.8c0-26.72 15.32-42 42-42h29.07v6.06zm-279.55-28.48a17.21 17.21 0 00-17.25-17.3c-9.523.022-17.227 7.757-17.21 17.28.017 9.523 7.747 17.231 17.27 17.22 9.523-.011 17.235-7.737 17.23-17.26zm-17.25 11.05a11.32 11.32 0 01-11.43-11.23v-.34c.132-6.211 5.241-11.158 11.453-11.089 6.213.069 11.211 5.129 11.204 11.341-.006 6.213-5.015 11.262-11.227 11.318z" fill="#fff"/><defs><linearGradient id="h" gradientUnits="userSpaceOnUse" x1="12959.993" y1="0" x2="11520.02" y2="719.994"><stop offset="0" stop-color="#4d4d4d"/><stop offset="1"/></linearGradient></defs><path d="M11520 0h1440v720h-1440z" fill="url(#h)"/><path d="M11735.34 111.13h-15.27V162h-4v-50.87h-.93c-4.94 0-8.51 1.45-10.76 4.29l-1.18 1.58-3.2-2.47 1.24-1.56a13.713 13.713 0 015.82-4.43 21.324 21.324 0 018.07-1.45h20.21v4.07zm11.28 16.36c.187-.177.358-.371.51-.58a16.109 16.109 0 015.6-3.42 21.998 21.998 0 017.2-1.09h12.14V162h-4v-35.6h-8.14c-4.36 0-7.71 1.17-10 3.35s-3.35 5.6-3.35 9.89V162h-4v-54.88h4v20.33zm62.18 7.05q0 5.78-3.28 8.95-3.28 3.17-8.91 3.28h-13.3V158h13.29c5.47 0 8.22-2.76 8.22-8.22v-2h4v2q0 5.78-3.28 8.95-3.28 3.17-8.94 3.27h-17.2v-22.4a22.671 22.671 0 011.09-7.2 14.147 14.147 0 018.95-8.95 22.671 22.671 0 017.2-1.09h12.21v12.15h-.06zm-12.2-8.14c-4.29 0-7.64 1.09-9.89 3.35-2.25 2.26-3.4 5.6-3.4 9.88v3.13h13.29c5.47 0 8.22-2.76 8.22-8.22v-8.14zm95.83 35.6h-1.56v-38.08h-10.17c-5 0-8.88 1.38-11.57 4-2.69 2.62-4 6.55-4 11.57V162h-1.56v-22.5c0-5-1.31-8.88-4-11.57-2.69-2.69-6.55-4-11.57-4h-10V162h-1.56v-39.61h11.56c5.47 0 9.67 1.56 12.65 4.43a14.58 14.58 0 013.71 6.55 14.58 14.58 0 013.71-6.55c2.91-2.91 7.2-4.43 12.58-4.43h11.73V162zm31.57-35.17c3 3 4.51 7.2 4.51 12.65V162h-17.1c-7.42 0-11.73-4.22-11.73-11.64v-11.64h17.12c4.8 0 8.29 1.74 10.17 5v-4.22c0-5-1.38-8.88-4.07-11.57-2.69-2.69-6.55-4-11.49-4h-11.74v-1.56h11.73c5.4.02 9.68 1.55 12.6 4.46zm-22.76 13.46v10.11c0 3.28.88 5.82 2.62 7.49a10.59 10.59 0 007.56 2.62h15.58V150.4c0-3.28-.88-5.82-2.62-7.56-1.74-1.74-4.29-2.55-7.55-2.55h-15.6zm58.76-13.46c3 3 4.46 7.2 4.46 12.68V162h-1.56v-22.5c0-5-1.31-8.88-4-11.57-2.69-2.69-6.55-4-11.57-4h-10.03V162h-1.56v-39.61h11.64c5.49 0 9.71 1.52 12.67 4.43zm39 35.17h-11.59c-5.47 0-9.67-1.56-12.65-4.43-2.98-2.87-4.43-7.2-4.43-12.65v-22.53h1.56V145c0 5 1.38 8.88 4 11.57 2.62 2.69 6.55 4 11.57 4h10.11v-38.18h1.56V162zm36-28v.78h-1.56V134c0-3.28-.88-5.82-2.55-7.49s-4.29-2.62-7.56-2.62h-15.52c0 5 .07 8.73 1.56 11.49a9.468 9.468 0 003.85 3.57 26.81 26.81 0 007.64 2.47c14.14 2.87 14.14 8.91 14.14 19.82v.76h-17c-7.42 0-11.64-4.22-11.64-11.64v-.76h1.56v.78c0 3.28.88 5.82 2.62 7.49a10.39 10.39 0 007.49 2.62h15.55c0-5-.07-8.73-1.56-11.49a9.747 9.747 0 00-3.71-3.57 27.636 27.636 0 00-7.64-2.47c-14.26-2.84-14.26-8.88-14.26-19.86v-.72h17c7.44 0 11.66 4.22 11.66 11.64zm34.55 0v.78h-1.55V134c0-3.28-.88-5.82-2.62-7.49a10.39 10.39 0 00-7.49-2.62h-15.53V145c0 5 1.31 8.88 4 11.57 2.69 2.69 6.55 4 11.57 4h11.64v1.56H12058c-5.47 0-9.67-1.56-12.65-4.43-2.98-2.87-4.43-7.2-4.43-12.65v-22.66h17.08c7.37 0 11.59 4.23 11.59 11.61zm35.27-10.11h-11.6c-5 0-8.88 1.38-11.57 4-2.69 2.62-4 6.55-4 11.57V162h-1.56v-22.5c0-5.47 1.56-9.67 4.43-12.65 2.87-2.98 7.2-4.43 12.65-4.43h11.64V124zm7.34-15.27h-1.56v-1.56h1.56zm0 53.38h-1.56v-39.61h1.56zm36-11.63c0 7.42-4.22 11.64-11.64 11.64H12121v14.55h-1.56V139.5c0-5.47 1.45-9.67 4.43-12.65 2.98-2.98 7.2-4.43 12.65-4.43h11.64v28zm-11.64-26.48c-5 0-8.95 1.38-11.57 4-2.62 2.62-4 6.55-4 11.57v21h15.56c3.28 0 5.82-.88 7.49-2.62a10.39 10.39 0 002.62-7.49v-26.43h-10.1zm27-1.52h8V124h-8v26.66c0 3.2.88 5.67 2.55 7.34s4.14 2.54 7.34 2.54h.78v1.56h-.78c-7.27 0-11.42-4.14-11.42-11.42v-26.76h-8v-1.56h8v-15.24h1.56v15.27zm41.63 39.63h-4v-39.61h4zm.07-50.91h-4v-4h4zm33.52 14.47c2.11 2.18 3.2 5.16 3.2 8.95v2h-4v-2c0-5.38-2.76-8.15-8.15-8.15h-13.29c0 3.86.22 6.76 1.31 8.8.95 1.56 2.84 3.64 9.82 5.09a27.28 27.28 0 017.93 2.62c1.902 1 3.488 2.509 4.58 4.36 1.86 3.38 1.86 7.52 1.86 12.77v2h-17.2c-3.86 0-6.83-1.09-9-3.2-2.17-2.11-3.2-5.16-3.2-9v-2h4v2c0 5.47 2.76 8.22 8.22 8.22h13.18c0-3.86-.22-6.76-1.31-8.8-.95-1.56-2.84-3.64-9.82-5.09a27.276 27.276 0 01-8-2.62 11.56 11.56 0 01-4.57-4.36c-1.82-3.35-1.82-7.49-1.82-12.8v-2h17.34a12.34 12.34 0 018.93 3.24zm41.74-3.2h7.63v4h-7.63v23.42c0 5.47 2.76 8.22 8.22 8.22h2v4h-2c-3.86 0-6.83-1.09-9-3.2-2.17-2.11-3.2-5.16-3.2-9v-23.4h-7.64v-4h7.64v-15.28h4v15.27zm45.46 4h-12.13c-4.36 0-7.71 1.17-10 3.35s-3.35 5.6-3.35 9.89V162h-4v-22.4a21.894 21.894 0 011.09-7.16 14 14 0 019-9 21.998 21.998 0 017.2-1.09h12.14v4zm25.17-2.84a14.201 14.201 0 015.6 3.43 15.134 15.134 0 013.42 5.47 21.998 21.998 0 011.09 7.2V162H12344c-3.86 0-6.83-1.09-9-3.2-2.17-2.11-3.2-5.16-3.2-8.95v-12.18h17.3a12.59 12.59 0 018.15 2.54v-.5c0-4.36-1.17-7.71-3.35-9.89-2.18-2.18-5.6-3.42-9.89-3.42h-12.24v-4h12.23a20.09 20.09 0 017.11 1.17zm-15.35 18.11v8.22c0 5.38 2.76 8.15 8.22 8.15h13.24v-8.15c0-5.47-2.76-8.22-8.15-8.22zm52-18.18a14.17 14.17 0 019.06 9 21.9 21.9 0 011.09 7.12V162h-4v-22.37c0-4.29-1.17-7.64-3.35-9.89-2.18-2.25-5.6-3.35-9.89-3.35h-8.17V162h-4v-39.61h12.21a21.882 21.882 0 017.09 1.09zm42.95 2.1c2.11 2.18 3.2 5.16 3.2 8.95v2h-4v-2c0-5.38-2.76-8.15-8.15-8.15h-13.25c0 3.86.22 6.76 1.31 8.8.95 1.56 2.84 3.64 9.81 5.09a27.28 27.28 0 017.93 2.62 11.558 11.558 0 014.58 4.36c1.8 3.35 1.8 7.5 1.8 12.73v2h-17.2c-3.86 0-6.83-1.09-9-3.2-2.17-2.11-3.2-5.16-3.2-9v-2h4v2c0 5.47 2.76 8.22 8.22 8.22h13.21c0-3.86-.22-6.76-1.31-8.8-.95-1.56-2.84-3.64-9.82-5.09a27.28 27.28 0 01-7.93-2.62 11.558 11.558 0 01-4.58-4.36c-1.82-3.35-1.82-7.49-1.82-12.8v-2h17.31a12.371 12.371 0 019 3.2zm35.2 0q3.27 3.28 3.28 8.95v2h-4v-2c0-5.38-2.76-8.15-8.22-8.15h-13.2v18.33c0 4.36 1.09 7.71 3.35 10s5.59 3.32 9.88 3.32h12.21v4H12457a22.33 22.33 0 01-7.2-1.09 16.474 16.474 0 01-5.53-3.42 15.082 15.082 0 01-3.42-5.6 21.998 21.998 0 01-1.09-7.2v-22.3h17.24c3.85 0 6.83 1.1 8.95 3.2zm39.27.81h-12.11c-4.36 0-7.71 1.17-10 3.35s-3.35 5.6-3.35 9.89V162h-4v-22.4a21.9 21.9 0 011.09-7.12 13.95 13.95 0 019-9 21.998 21.998 0 017.2-1.09h12.14v4zM12515 162h-4v-39.61h4zm.07-50.91h-4v-4h4zm11.28 11.27h8.15a21.998 21.998 0 017.2 1.09 15.79 15.79 0 015.53 3.42 14.193 14.193 0 013.42 5.6 21.88 21.88 0 011.17 7.12V162h-17.31c-3.78 0-6.83-1.09-8.95-3.2-2.12-2.11-3.2-5.16-3.2-9v-42.68h4v15.27zm0 4v23.42c0 5.47 2.69 8.22 8.15 8.22h13.29v-18.4c0-4.29-1.17-7.64-3.42-9.89-2.25-2.25-5.53-3.35-9.89-3.35zm61.46 8.15q0 5.78-3.28 8.95-3.28 3.17-8.95 3.28h-13.24V158h13.24c5.47 0 8.22-2.76 8.22-8.22v-2h4v2q0 5.78-3.28 8.95-3.28 3.17-8.95 3.28h-17.2v-22.4a22.671 22.671 0 011.09-7.2 14.147 14.147 0 018.95-8.95 22.667 22.667 0 017.2-1.09h12.22v12.15zm-12.21-8.15c-4.29 0-7.63 1.09-9.89 3.35-2.26 2.26-3.35 5.6-3.35 9.89v3.13h13.24c5.47 0 8.22-2.76 8.22-8.22v-8.11h-8.22zm48.21 23.42c0 3.86-1.09 6.83-3.28 9-2.19 2.17-5.09 3.2-8.95 3.2h-17.2v-22.4a21.9 21.9 0 011.09-7.12 16.127 16.127 0 013.42-5.6 16.474 16.474 0 015.53-3.42 22.671 22.671 0 017.2-1.09h8.22v-15.23h4v42.69zm-12.21-23.42c-4.29 0-7.63 1.17-9.89 3.35-2.26 2.18-3.35 5.6-3.35 9.89V158h13.24c5.47 0 8.22-2.76 8.22-8.22V126.4h-8.22zm59.2-2.9a13.95 13.95 0 019 9 21.9 21.9 0 011.09 7.12V162h-12.15a21.998 21.998 0 01-7.2-1.09 13.949 13.949 0 01-9-9 21.998 21.998 0 01-1.09-7.2v-22.32h12.21a21.925 21.925 0 017.16 1.1zm-15.34 2.91v18.32c0 4.36 1.17 7.71 3.35 10s5.6 3.35 10 3.35h8.15v-18.4c0-4.29-1.17-7.64-3.35-9.89-2.18-2.25-5.6-3.35-9.89-3.35h-8.22zm52.07-2.91a14 14 0 019 9 21.9 21.9 0 011.09 7.12V162h-4v-22.37c0-4.29-1.17-7.64-3.35-9.89-2.18-2.25-5.6-3.35-9.89-3.35h-8.22V162h-4v-39.61h12.21a21.9 21.9 0 017.17 1.1zm23.93-1.09h7.63v4h-7.63v23.42c0 5.47 2.76 8.22 8.22 8.22h2v4h-1.95c-3.86 0-6.83-1.09-9-3.2-2.17-2.11-3.2-5.16-3.2-9V126.4h-7.64v-4h7.64v-15.28h4v15.27zm33.88 1.09a13.95 13.95 0 019 9 21.9 21.9 0 011.09 7.12V162h-12.14a21.998 21.998 0 01-7.2-1.09 13.949 13.949 0 01-9-9 21.998 21.998 0 01-1.09-7.2v-22.32h12.21a21.917 21.917 0 017.14 1.1zm-15.34 2.94v18.32c0 4.36 1.17 7.71 3.35 10s5.6 3.35 10 3.35h8.15v-18.4c0-4.29-1.17-7.64-3.35-9.89-2.18-2.25-5.6-3.35-9.89-3.35h-8.26zm-1034 83.27h7.64v4h-7.64v23.42c0 5.47 2.76 8.22 8.22 8.22h1.95v4h-2c-3.86 0-6.83-1.09-9-3.2-2.17-2.11-3.2-5.16-3.2-9v-23.44h-7.64v-4h7.67v-15.28h4v15.27zm20.7 5.09c.188-.177.358-.371.51-.58a16.109 16.109 0 015.6-3.42 21.998 21.998 0 017.2-1.09h12.13v39.64h-4v-35.64h-8.14c-4.36 0-7.71 1.17-10 3.35s-3.35 5.6-3.35 9.89v22.4h-4v-54.92h4v20.36zm36.72 34.55h-4v-39.64h4zm.07-50.91h-4v-4h4zm26.62 12.36a14 14 0 019 9 21.9 21.9 0 011.09 7.12v22.4h-4V226.9c0-4.29-1.17-7.64-3.35-9.89-2.18-2.25-5.6-3.35-9.89-3.35h-8.22v35.64h-4v-39.63h12.26c2.421-.033 4.83.335 7.13 1.09zm64 2.1c2.11 2.18 3.2 5.16 3.2 8.95v2h-4v-2c0-5.38-2.76-8.15-8.15-8.15h-13.23c0 3.86.22 6.76 1.31 8.8.95 1.56 2.84 3.64 9.82 5.09a27.28 27.28 0 017.93 2.62 11.552 11.552 0 014.58 4.36c1.81 3.35 1.81 7.49 1.81 12.73v2h-17.2c-3.86 0-6.83-1.09-9-3.2-2.17-2.11-3.2-5.16-3.2-9v-2h4v2c0 5.47 2.76 8.22 8.22 8.22h13.24c0-3.86-.22-6.76-1.31-8.8-.95-1.56-2.84-3.64-9.82-5.09a27.276 27.276 0 01-8-2.62 11.558 11.558 0 01-4.58-4.36c-1.82-3.35-1.82-7.49-1.82-12.8v-2h17.35a12.34 12.34 0 018.91 3.2zm11-22.76c2.25 2.91 3.42 6.69 3.42 11.35v47.86h-4v-47.86a14.571 14.571 0 00-2.54-8.95l-1.24-1.56 3.2-2.47zm14.69 59.21h-4v-39.64h4zm.2-50.91h-4v-4h4zm33.45 14.47q3.27 3.28 3.28 8.95v25.45c0 5.53-1.38 9.74-4.14 12.73s-7 4.58-12.43 4.58c-5 0-9.17-2.11-11.64-6l-1-1.67 3.35-2.11 1.09 1.67c1.67 2.69 4.58 4.14 8.22 4.14 4.29 0 7.49-1.09 9.52-3.35 1.67-1.82 2.69-4.51 3-7.93h-8.2a22.671 22.671 0 01-7.2-1.09 16.474 16.474 0 01-5.53-3.42 16.109 16.109 0 01-3.42-5.6 21.998 21.998 0 01-1.09-7.2v-22.35h17.2c3.89 0 6.87 1.09 9 3.2zm-22.19.78V232c0 4.36 1.09 7.71 3.35 10s5.6 3.35 9.89 3.35h8.22v-23.52c0-5.38-2.76-8.15-8.22-8.15h-13.24zm36.74 1.11c.188-.177.358-.371.51-.58a16.109 16.109 0 015.6-3.42 21.998 21.998 0 017.2-1.09h12.14v39.64h-4v-35.64h-8.14c-4.36 0-7.71 1.17-10 3.35s-3.35 5.6-3.35 9.89v22.4h-4v-54.92h4v20.36zm43.64-5.09h7.64v4h-7.64v23.42c0 5.47 2.76 8.22 8.22 8.22h2v4h-2c-3.86 0-6.83-1.09-9-3.2-2.17-2.11-3.2-5.16-3.2-9v-23.44h-7.66v-4h7.64v-15.28h4v15.27zm17.31-19.57c2.25 2.91 3.42 6.69 3.42 11.35v47.86h-4v-47.86a14.571 14.571 0 00-2.54-8.95l-1.24-1.56 3.2-2.47zm40.15 52.07a28.896 28.896 0 01-1.45 9.38 18.53 18.53 0 01-11.57 11.57 28.842 28.842 0 01-9.38 1.45h-2v-4h2c6 0 10.62-1.56 13.67-4.69a14.293 14.293 0 003.78-6.55h-7.27a21.9 21.9 0 01-7.12-1.09 14 14 0 01-9-9 21.998 21.998 0 01-1.09-7.2v-22.37h4V232c0 4.36 1.09 7.71 3.35 10s5.6 3.35 9.89 3.35h8.07c.07-1 .15-2 .15-3.13v-32.55h4v32.51zm82.55 7.13h-12.18a21.998 21.998 0 01-7.2-1.09 16.094 16.094 0 01-5.6-3.42 15.545 15.545 0 01-2.47-3.57 18.475 18.475 0 01-2.55 3.57 16.109 16.109 0 01-5.6 3.42 21.9 21.9 0 01-7.12 1.09h-12.22v-39.63h4v35.63h8.2c4.29 0 7.64-1.17 9.89-3.35 2.25-2.18 3.35-5.6 3.35-10v-22.28h4V232c0 4.36 1.17 7.71 3.35 10s5.6 3.35 10 3.35h8.16v-35.68h4v39.64zm26.61-38.47a14.193 14.193 0 015.6 3.42 15.143 15.143 0 013.42 5.53 21.998 21.998 0 011.09 7.2v22.33h-17.2c-3.86 0-6.83-1.09-9-3.2-2.17-2.11-3.2-5.16-3.2-8.95v-12.22h17.24a12.59 12.59 0 018.15 2.54V227c0-4.36-1.17-7.71-3.35-9.89-2.18-2.18-5.6-3.42-9.89-3.42h-12.24v-4h12.22a20.083 20.083 0 017.13 1.17zm-15.37 18.11v8.22c0 5.38 2.76 8.15 8.22 8.15h13.24v-8.15c0-5.47-2.76-8.22-8.15-8.22h-13.34zm61.47-17.31c0 5.31-1.38 9.67-4.07 13.09a18.344 18.344 0 01-5.53 4.69 18.851 18.851 0 015.82 4.69c2.54 3.35 3.78 7.64 3.78 13.09v2h-4v-2c0-4.51-.95-8-3-10.62a16.105 16.105 0 00-7.71-5.09 16.331 16.331 0 00-7.82 5.09c-2 2.62-3 6.11-3 10.62v2h-4v-2c0-5.47 1.24-9.74 3.78-13.09a18.877 18.877 0 015.82-4.69 18.344 18.344 0 01-5.53-4.69c-2.69-3.42-4.07-7.82-4.07-13.09v-2h4v2c0 4.36 1.09 7.93 3.2 10.62a15.543 15.543 0 007.56 5.09 15.641 15.641 0 007.49-5.09c2.11-2.69 3.2-6.26 3.2-10.62v-2h4v2zm36.73 10.18q0 5.78-3.28 8.95-3.28 3.17-8.92 3.24h-13.3v11.3h13.29c5.47 0 8.22-2.76 8.22-8.22v-2h4v2q0 5.78-3.28 8.95-3.28 3.17-8.95 3.28h-17.2V226.9a22.671 22.671 0 011.09-7.2 14.16 14.16 0 018.95-8.95 22.671 22.671 0 017.2-1.09h12.21v12.14h-.06zm-12.18-8.14c-4.29 0-7.64 1.09-9.89 3.35-2.25 2.26-3.4 5.6-3.4 9.88v3.1h13.29c5.47 0 8.22-2.76 8.22-8.22v-8.14h-8.22zm48.18 23.41c0 3.86-1.09 6.83-3.28 9-2.19 2.17-5.09 3.2-8.95 3.2h-17.2V226.9a21.9 21.9 0 011.09-7.12 16.109 16.109 0 013.42-5.6 16.474 16.474 0 015.53-3.42 22.671 22.671 0 017.2-1.09h8.19v-15.28h4zm-12.21-23.41c-4.29 0-7.64 1.17-9.89 3.35-2.25 2.18-3.35 5.6-3.35 9.89v18.4h13.24c5.47 0 8.22-2.76 8.22-8.22v-23.42zm66.1-.81c2.11 2.18 3.2 5.16 3.2 8.95v2h-4v-2c0-5.38-2.76-8.15-8.15-8.15h-13.32c0 3.86.22 6.76 1.31 8.8.95 1.56 2.84 3.64 9.81 5.09a27.28 27.28 0 017.93 2.62 11.545 11.545 0 014.58 4.36c1.82 3.35 1.82 7.49 1.82 12.73v2H12307c-3.86 0-6.83-1.09-9-3.2-2.17-2.11-3.2-5.16-3.2-9v-2h4v2c0 5.47 2.76 8.22 8.22 8.22h13.18c0-3.86-.22-6.76-1.31-8.8-.95-1.56-2.84-3.64-9.82-5.09a27.28 27.28 0 01-7.93-2.62 11.558 11.558 0 01-4.58-4.36c-1.78-3.35-1.78-7.51-1.78-12.8v-2h17.22c3.277-.161 6.484.99 8.91 3.2zm14.45 1.89c.188-.177.358-.371.51-.58a16.109 16.109 0 015.6-3.42 21.998 21.998 0 017.2-1.09h12.14v39.64h-4v-35.63h-8.18c-4.36 0-7.71 1.17-10 3.35s-3.33 5.6-3.33 9.88v22.4h-4v-54.9h4v20.36zm62.2 7.05q0 5.78-3.28 8.95-3.28 3.17-8.97 3.25h-13.22v11.3h13.24c5.47 0 8.22-2.76 8.22-8.22v-2h4v2q0 5.78-3.28 8.95-3.28 3.17-8.95 3.28h-17.2V226.9a22.671 22.671 0 011.09-7.2 14.16 14.16 0 018.95-8.95 22.671 22.671 0 017.2-1.09h12.21v12.14zm-12.21-8.15c-4.29 0-7.63 1.09-9.89 3.35-2.26 2.26-3.34 5.61-3.34 9.89V230h13.21c5.47 0 8.22-2.76 8.22-8.22v-8.14h-8.23zm47.49 8.15q0 5.78-3.28 8.95-3.28 3.17-9 3.28h-13.2v11.27h13.22c5.47 0 8.22-2.76 8.22-8.22v-2h4v2q0 5.78-3.28 8.95-3.28 3.17-8.95 3.28h-17.2V226.9a22.671 22.671 0 011.09-7.2 14.16 14.16 0 018.95-8.95 22.671 22.671 0 017.2-1.09h12.21v12.14zm-12.24-8.14c-4.29 0-7.63 1.09-9.89 3.35-2.26 2.26-3.35 5.6-3.35 9.89v3.1h13.24c5.47 0 8.22-2.76 8.22-8.22v-8.15h-8.22zm29.72-4h7.61v4h-7.63v23.42c0 5.47 2.76 8.22 8.22 8.22h1.95v4h-2c-3.86 0-6.83-1.09-9-3.2-2.17-2.11-3.2-5.16-3.2-9v-23.43h-7.64v-4h7.64v-15.28h4v15.27zm41.5 3.2c2.11 2.18 3.2 5.16 3.2 8.95v2h-4v-2c0-5.38-2.76-8.15-8.15-8.15h-13.36c0 3.86.22 6.76 1.31 8.8.95 1.56 2.84 3.64 9.81 5.09a27.28 27.28 0 017.93 2.62 11.545 11.545 0 014.58 4.36c1.79 3.35 1.79 7.47 1.79 12.73v2h-17.2c-3.86 0-6.83-1.09-9-3.2-2.17-2.11-3.2-5.16-3.2-9v-2h4v2c0 5.47 2.76 8.22 8.22 8.22h13.18c0-3.86-.22-6.76-1.31-8.8-.95-1.56-2.84-3.64-9.82-5.09a27.28 27.28 0 01-7.93-2.62 11.558 11.558 0 01-4.58-4.36c-1.82-3.35-1.82-7.49-1.82-12.8v-2h17.31c3.83 0 6.81 1.09 9 3.2zm50.18-2.1a14 14 0 019 9 21.9 21.9 0 011.09 7.12v22.4H12540a21.998 21.998 0 01-7.2-1.09 14 14 0 01-9-9 21.998 21.998 0 01-1.09-7.2v-22.32h12.21a21.903 21.903 0 017.08 1.09zm-15.34 2.91V232c0 4.36 1.17 7.71 3.35 10s5.6 3.35 10 3.35h8.15V226.9c0-4.29-1.17-7.64-3.35-9.89-2.18-2.25-5.6-3.35-9.89-3.35h-8.22zm53.67-15.27h-7c-5.47 0-8.22 2.76-8.22 8.15v3.13h9.31v4h-9.31v35.64h-4v-35.65h-6v-4h6v-3.13q0-5.67 3.27-8.95c2.11-2.11 5.16-3.2 8.95-3.2h7v4zm56.37 38.69c0 3.86-1.09 6.83-3.2 9-2.11 2.17-5.16 3.2-8.95 3.2h-13.32v14.55h-4V226.9a21.9 21.9 0 011.09-7.12 14.38 14.38 0 019-9 21.998 21.998 0 017.2-1.09h12.14v27.42zm-12.14-23.42c-4.36 0-7.71 1.17-10 3.35s-3.35 5.6-3.35 9.89v18.4h13.29c5.38 0 8.15-2.76 8.15-8.22v-23.42h-8.13zm38-2.83a14.193 14.193 0 015.6 3.42 15.143 15.143 0 013.42 5.53 21.998 21.998 0 011.09 7.2v22.33h-17.2c-3.86 0-6.83-1.09-9-3.2-2.17-2.11-3.2-5.16-3.2-8.95v-12.23h17.31a12.59 12.59 0 018.15 2.54V227c0-4.36-1.17-7.71-3.35-9.89-2.18-2.18-5.6-3.42-9.89-3.42h-12.21v-4h12.21a20.097 20.097 0 017.09 1.17zm-15.34 18.11v8.22c0 5.38 2.76 8.15 8.22 8.15h13.24v-8.15c0-5.47-2.76-8.22-8.15-8.22zm61.45 8.14c0 3.86-1.09 6.83-3.2 9-2.11 2.17-5.16 3.2-8.95 3.2h-13.29v14.55h-4V226.9a21.9 21.9 0 011.09-7.12 14.38 14.38 0 019-9 21.998 21.998 0 017.2-1.09h12.14v27.42zm-12.14-23.42c-4.36 0-7.71 1.17-10 3.35s-3.35 5.6-3.35 9.89v18.4h13.29c5.38 0 8.15-2.76 8.15-8.22v-23.42h-8.13zm47.42 8.15q0 5.78-3.28 8.95-3.28 3.17-8.95 3.28h-13.24v11.25h13.24c5.47 0 8.22-2.76 8.22-8.22v-2h4v2q0 5.78-3.28 8.95-3.28 3.17-8.95 3.28h-17.2V226.9a22.671 22.671 0 011.09-7.2 14.16 14.16 0 018.95-8.95 22.671 22.671 0 017.2-1.09h12.18v12.14zm-12.21-8.15c-4.29 0-7.63 1.09-9.89 3.35-2.26 2.26-3.35 5.6-3.35 9.89V230h13.24c5.47 0 8.22-2.76 8.22-8.22v-8.14h-8.22zm48.21 0h-12.14c-4.36 0-7.71 1.17-10 3.35s-3.35 5.6-3.35 9.89v22.4h-4V226.9a21.9 21.9 0 011.09-7.12 14 14 0 019-9 21.998 21.998 0 017.2-1.09h12.18v4zm-1071.71 83.27h8.15a21.998 21.998 0 017.2 1.09 15.775 15.775 0 015.53 3.42 14.193 14.193 0 013.42 5.6 21.906 21.906 0 011.17 7.12v22.4h-17.32c-3.78 0-6.83-1.09-8.95-3.2-2.12-2.11-3.19-5.16-3.19-9v-42.7h4v15.27zm0 4v23.42c0 5.47 2.69 8.22 8.15 8.22h13.29v-18.4c0-4.29-1.17-7.64-3.42-9.89-2.25-2.25-5.53-3.35-9.89-3.35zm60.69 28.51a28.896 28.896 0 01-1.45 9.38 18.532 18.532 0 01-11.55 11.57 28.842 28.842 0 01-9.38 1.45h-2v-4h2c6 0 10.62-1.56 13.67-4.69a14.298 14.298 0 003.78-6.55h-7.27a21.9 21.9 0 01-7.12-1.09 14 14 0 01-9-9 21.998 21.998 0 01-1.09-7.2v-22.38h4v22.33c0 4.36 1.09 7.71 3.35 10s5.6 3.35 9.89 3.35h8.07c.07-1 .15-2 .15-3.13v-32.55h4v32.51zm47-31.34a14.205 14.205 0 015.6 3.42 15.154 15.154 0 013.4 5.47 21.998 21.998 0 011.09 7.2v22.32h-17.2c-3.86 0-6.83-1.09-9-3.2-2.17-2.11-3.2-5.16-3.2-8.95v-12.16h17.31a12.59 12.59 0 018.15 2.54v-.51c0-4.36-1.17-7.71-3.35-9.89-2.18-2.18-5.6-3.42-9.89-3.42h-12.23v-4h12.21a20.09 20.09 0 017.11 1.17zm-15.35 18.13v8.22c0 5.38 2.76 8.15 8.22 8.15h13.24v-8.17c0-5.47-2.76-8.22-8.15-8.22h-13.27zm82.55 8.12c0 3.86-1.09 6.83-3.2 9-2.11 2.17-5.16 3.2-8.95 3.2h-13.26v14.55h-4v-36.94a21.9 21.9 0 011.09-7.12 14.38 14.38 0 019-9 21.998 21.998 0 017.2-1.09h12.12v27.42zm-12.14-23.42c-4.36 0-7.71 1.17-10 3.35s-3.35 5.6-3.35 9.89v18.4h13.29c5.38 0 8.15-2.76 8.15-8.22v-23.42h-8.13zm48.14 0h-12.12c-4.36 0-7.71 1.17-10 3.35s-3.35 5.6-3.35 9.89v22.39h-4v-22.4a21.9 21.9 0 011.09-7.12 14 14 0 019-9 21.998 21.998 0 017.2-1.09h12.15v4zm25.2-2.94a14 14 0 019 9 21.9 21.9 0 011.09 7.12v22.4h-12.14a21.998 21.998 0 01-7.2-1.09 14 14 0 01-9-9 21.998 21.998 0 01-1.09-7.2v-22.29h12.21a21.89 21.89 0 017.13 1.06zm-15.34 2.91v18.33c0 4.36 1.17 7.71 3.35 10s5.6 3.35 10 3.35h8.15v-18.42c0-4.29-1.17-7.64-3.35-9.89-2.18-2.25-5.6-3.35-9.89-3.35h-8.22zm53.66-15.27h-7c-5.47 0-8.22 2.76-8.22 8.15v3.13h9.31v4h-9.31v35.63h-4v-35.61h-6v-4h6v-3.13q0-5.67 3.28-8.95c2.11-2.11 5.16-3.2 8.95-3.2h7v4zm27.28 23.44q0 5.78-3.28 8.95-3.28 3.17-8.95 3.28h-13.24v11.28h13.24c5.47 0 8.22-2.76 8.22-8.22v-2h4v2q0 5.78-3.28 8.95-3.28 3.17-9 3.26h-17.2v-22.4a22.671 22.671 0 011.09-7.2 14.16 14.16 0 018.88-8.94 22.671 22.671 0 017.2-1.09h12.32v12.14zm-12.21-8.15c-4.29 0-7.64 1.09-9.89 3.35-2.25 2.26-3.35 5.6-3.35 9.89v3.13h13.24c5.47 0 8.22-2.76 8.22-8.22v-8.14h-8.22zm45-.8c2.11 2.18 3.2 5.16 3.2 8.95v2h-4v-2c0-5.38-2.76-8.15-8.15-8.15h-13.3c0 3.86.22 6.76 1.31 8.8.95 1.56 2.84 3.64 9.82 5.09a27.28 27.28 0 017.93 2.62 11.552 11.552 0 014.58 4.36c1.81 3.35 1.81 7.49 1.81 12.73v2h-17.2c-3.86 0-6.83-1.09-9-3.2-2.17-2.11-3.2-5.16-3.2-9v-2h4v2c0 5.47 2.76 8.22 8.22 8.22h13.19c0-3.86-.22-6.76-1.31-8.8-.95-1.56-2.84-3.64-9.82-5.09a27.28 27.28 0 01-7.93-2.62 11.558 11.558 0 01-4.58-4.36c-1.82-3.35-1.82-7.49-1.82-12.8v-2h17.31a12.36 12.36 0 018.91 3.2zm35.27 0c2.11 2.18 3.2 5.16 3.2 8.95v2h-4v-2c0-5.38-2.76-8.15-8.15-8.15h-13.3c0 3.86.22 6.76 1.31 8.8.95 1.56 2.84 3.64 9.82 5.09a27.28 27.28 0 017.93 2.62 11.552 11.552 0 014.58 4.36c1.81 3.35 1.81 7.49 1.81 12.73v2H12064c-3.86 0-6.83-1.09-9-3.2-2.17-2.11-3.2-5.16-3.2-9v-2h4v2c0 5.47 2.76 8.22 8.22 8.22h13.28c0-3.86-.22-6.76-1.31-8.8-.95-1.56-2.84-3.64-9.82-5.09a27.28 27.28 0 01-7.93-2.62 11.558 11.558 0 01-4.58-4.36c-1.82-3.35-1.82-7.49-1.82-12.8v-2h17.31a12.34 12.34 0 018.91 3.2zm14.47 36.43h-4v-39.62h4v39.63zm.07-50.91h-4v-4h4zm26.62 12.35a14 14 0 019 9 21.9 21.9 0 011.09 7.12v22.4h-12.12a21.998 21.998 0 01-7.2-1.09 14 14 0 01-9-9 21.998 21.998 0 01-1.09-7.2v-22.29h12.21a21.879 21.879 0 017.11 1.06zm-15.34 2.91v18.33c0 4.36 1.17 7.71 3.35 10s5.6 3.35 10 3.35h8.15v-18.42c0-4.29-1.17-7.64-3.35-9.89-2.18-2.25-5.6-3.35-9.89-3.35h-8.22zm52.06-2.91a14 14 0 019 9 21.9 21.9 0 011.09 7.12v22.4h-4v-22.4c0-4.29-1.17-7.64-3.35-9.89-2.18-2.25-5.6-3.35-9.89-3.35h-8.19v35.64h-4v-39.58h12.22a21.9 21.9 0 017.12 1.09zm36 .07a14.193 14.193 0 015.6 3.42 15.144 15.144 0 013.46 5.51 21.998 21.998 0 011.09 7.2v22.32h-17.2c-3.86 0-6.83-1.09-9-3.2-2.17-2.11-3.2-5.16-3.2-8.95v-12.16h17.31a12.59 12.59 0 018.15 2.54v-.51c0-4.36-1.17-7.71-3.35-9.89-2.18-2.18-5.6-3.42-9.89-3.42h-12.31v-4h12.21a20.083 20.083 0 017.13 1.17zm-15.35 18.13v8.22c0 5.38 2.76 8.15 8.22 8.15h13.24v-8.17c0-5.47-2.76-8.22-8.15-8.22h-13.29zm33.31-38.87c2.25 2.91 3.42 6.69 3.42 11.35v47.85h-4v-47.82a14.571 14.571 0 00-2.54-8.95l-1.24-1.56 3.2-2.47zm57.81 23c2.25 2.18 3.42 5.47 3.42 9.31v3.2h-6.48v-3.19c0-2.18-.51-3.78-1.56-4.69a7.05 7.05 0 00-4.69-1.56h-10.94v15.71c0 3.64.95 6.4 2.77 8.22 1.82 1.82 4.58 2.76 8.22 2.76h12.73v6.47h-12.76c-10.95 0-17.45-6.55-17.45-17.45v-22.17h17.45a12.75 12.75 0 019.31 3.42zm40.08 14v22.18h-17.44a12.78 12.78 0 01-9.31-3.42c-2.27-2.25-3.35-5.47-3.35-9.31v-12.66h17.45a14.776 14.776 0 016.11 1.24 10.09 10.09 0 00-2.62-6.19c-1.82-1.82-4.58-2.76-8.29-2.76h-12.65v-6.48h12.65c11 0 17.46 6.55 17.46 17.45zm-23.64 3.2v6.26c0 2.18.51 3.78 1.45 4.69a6.84 6.84 0 004.69 1.56h10.95v-6.26a6.637 6.637 0 00-1.45-4.69 6.481 6.481 0 00-4.69-1.56h-10.94zm33.89-39.27a19.102 19.102 0 013.5 11.74v46.62h-6.47V290q0-4.91-2.18-7.64l-2-2.62 5.09-3.91zm13.74 0a19.102 19.102 0 013.5 11.74v46.62h-6.48V290q0-4.91-2.18-7.64l-2-2.62 5.09-3.91zm17.22 9.88h-6.48v-6.48h6.48zm0 48.44h-6.48v-39.64h6.48v39.63zm34.32-36.22c2.25 2.18 3.42 5.47 3.42 9.31v23.71c0 5.47-1.38 9.74-4.22 12.73s-7.12 4.69-12.58 4.69a13.72 13.72 0 01-12-6.26l-1.67-2.76 5.47-3.42 1.74 2.76c1.31 2.11 3.49 3.2 6.48 3.2 3.57 0 6.19-.88 7.82-2.69a9.191 9.191 0 002.25-5.09h-6c-10.95 0-17.45-6.48-17.45-17.45v-22.15h17.42c3.88 0 7.15 1.17 9.33 3.42zm-20.29 3.06v15.71c0 3.71.95 6.48 2.76 8.29 1.81 1.81 4.58 2.69 8.22 2.69h6.26v-20.44c0-2.18-.51-3.71-1.56-4.69a6.531 6.531 0 00-4.69-1.56h-11zm60.44 0h-12.7c-3.64 0-6.4.95-8.22 2.76-1.82 1.81-2.76 4.58-2.76 8.22v22.18h-6.48v-22.19c0-10.95 6.55-17.45 17.45-17.45h12.73v6.48zm35.93 11v22.18h-17.4a12.78 12.78 0 01-9.31-3.42c-2.27-2.25-3.35-5.47-3.35-9.31v-12.75h17.45a14.776 14.776 0 016.11 1.24 10.09 10.09 0 00-2.62-6.19c-1.82-1.82-4.58-2.76-8.29-2.76h-12.67v-6.48h12.68c11 0 17.45 6.55 17.45 17.45zm-23.64 3.2v6.26c0 2.18.51 3.78 1.45 4.69a6.84 6.84 0 004.69 1.56h10.95v-6.26a6.637 6.637 0 00-1.45-4.69 6.481 6.481 0 00-4.69-1.56h-10.92zm60.36 6.26a11.802 11.802 0 01-12.72 12.72h-10.92v14.55h-6.48v-36.79c0-10.95 6.55-17.45 17.45-17.45h12.73v26.91zm-12.73-20.43c-3.64 0-6.4.95-8.22 2.76-1.82 1.81-2.76 4.58-2.76 8.22v15.67h10.95c2.18 0 3.71-.51 4.69-1.56a6.531 6.531 0 001.56-4.69v-20.44h-6.22zm26.51-3.45a18.483 18.483 0 0110.95-3.06h12.73v39.63h-6.48v-33.16h-6.26c-3.64 0-6.4.88-8.22 2.69-1.82 1.81-2.76 4.58-2.76 8.29v22.18h-6.46v-54.9h6.48V300zm61.16 9.67a12.778 12.778 0 01-3.42 9.31 13.058 13.058 0 01-9.31 3.42h-10.95v7.71h10.95c2.11 0 3.71-.51 4.69-1.56a6.531 6.531 0 001.56-4.69h6.48c0 3.86-1.17 7.12-3.42 9.31a13.092 13.092 0 01-9.31 3.42h-17.45v-22.2c0-10.95 6.55-17.45 17.45-17.45h12.73zm-12.73-6.26c-3.64 0-6.4.95-8.22 2.76-1.82 1.81-2.78 4.59-2.78 8.22V316h10.95c2.11 0 3.71-.51 4.69-1.56a6.672 6.672 0 001.56-4.69v-6.26h-6.26zm49.46 0H12595c-3.64 0-6.4.95-8.22 2.76-1.82 1.81-2.73 4.59-2.73 8.22v22.18h-6.48v-22.18c0-10.95 6.55-17.45 17.45-17.45h12.73v6.48zm9.81 33.16h-4v-4h4zm61.53-50.9h-15.29v50.9h-4v-50.91h-.95c-4.94 0-8.51 1.45-10.76 4.29l-1.17 1.56-3.2-2.47 1.24-1.56a13.713 13.713 0 015.82-4.43 21.327 21.327 0 018.07-1.45h20.21v4zm11.3 16.36c.188-.177.358-.371.51-.58a16.109 16.109 0 015.6-3.42 21.998 21.998 0 017.2-1.09h12.14v39.62h-4v-35.62h-8.16c-4.36 0-7.71 1.17-10 3.35s-3.35 5.6-3.35 9.89v22.39h-4v-54.9h4V302zm62.15 7.05q0 5.78-3.28 8.95-3.28 3.17-8.95 3.28h-13.24v11.28h13.24c5.47 0 8.22-2.76 8.22-8.22v-2h4v2q0 5.78-3.28 8.95-3.28 3.17-8.95 3.26h-17.2v-22.4a22.671 22.671 0 011.09-7.2 14.16 14.16 0 018.95-8.95 22.671 22.671 0 017.2-1.09h12.22v12.14zm-12.21-8.15c-4.29 0-7.63 1.09-9.89 3.35-2.26 2.26-3.35 5.6-3.35 9.89v3.13h13.24c5.47 0 8.22-2.76 8.22-8.22v-8.14h-8.22zm-1006.24 110.71c0 3.86-1.09 6.83-3.2 9-2.11 2.17-5.16 3.2-8.95 3.2h-13.28v14.56h-4v-36.92a21.9 21.9 0 011.09-7.12 14.38 14.38 0 019-9 21.998 21.998 0 017.2-1.09h12.14v27.4zm-12.13-23.46c-4.36 0-7.71 1.17-10 3.35s-3.35 5.6-3.35 9.89v18.4h13.35c5.4 0 8.16-2.71 8.16-8.18v-23.46zm38-2.81a14.205 14.205 0 015.6 3.42 15.143 15.143 0 013.42 5.53 21.998 21.998 0 011.09 7.2v22.33h-17.2c-3.86 0-6.83-1.09-9-3.2-2.17-2.11-3.2-5.16-3.2-8.95v-12.22h17.29a12.552 12.552 0 018.15 2.55v-.51c0-4.36-1.17-7.71-3.35-9.89-2.18-2.18-5.64-3.45-9.93-3.45h-12.19v-4h12.22a20.07 20.07 0 017.1 1.2zm-15.35 18.11v8.22c0 5.38 2.76 8.15 8.22 8.15h13.23v-8.15c0-5.47-2.76-8.22-8.15-8.22h-13.27zm61.46 8.16c0 3.86-1.09 6.83-3.2 9-2.11 2.17-5.16 3.2-8.95 3.2h-13.26v14.56h-4v-36.92a21.9 21.9 0 011.09-7.12 14.38 14.38 0 019-9 21.998 21.998 0 017.2-1.09h12.14v27.4zm-12.11-23.46c-4.36 0-7.71 1.17-10 3.35s-3.35 5.6-3.35 9.89v18.4h13.35c5.38 0 8.15-2.76 8.15-8.22v-23.42zm47.41 8.17q0 5.78-3.28 8.95-3.28 3.17-8.95 3.28h-13.23v11.28h13.24c5.47 0 8.22-2.76 8.22-8.22v-2h4v2q0 5.78-3.28 8.95-3.28 3.17-8.95 3.28H11812v-22.39a22.671 22.671 0 011.09-7.2 14.16 14.16 0 018.95-8.95 22.671 22.671 0 017.2-1.09h12.21v12.14zm-12.21-8.17c-4.29 0-7.64 1.09-9.89 3.35-2.25 2.26-3.35 5.6-3.35 9.89v3.13h13.24c5.47 0 8.22-2.76 8.22-8.22v-8.15zm48.22 0h-12.16c-4.36 0-7.71 1.17-10 3.35s-3.35 5.6-3.35 9.89v22.4h-4v-22.34a21.9 21.9 0 011.09-7.12 14 14 0 019-9 21.998 21.998 0 017.2-1.09h12.2v3.94zm30.9 35.67h-4v-39.64h4zm.07-50.91h-4v-4h4zm33.53 14.46c2.11 2.18 3.2 5.16 3.2 8.95v2h-4v-2c0-5.38-2.76-8.15-8.15-8.15h-13.3c0 3.86.22 6.76 1.31 8.8.95 1.56 2.84 3.64 9.82 5.09a27.28 27.28 0 017.93 2.62 11.558 11.558 0 014.58 4.36c1.81 3.35 1.81 7.49 1.81 12.73v2h-17.2c-3.86 0-6.83-1.09-9-3.2-2.17-2.11-3.2-5.16-3.2-9v-2h4v2c0 5.47 2.76 8.22 8.22 8.22h13.18c0-3.86-.22-6.76-1.31-8.8-.95-1.56-2.84-3.64-9.82-5.09a27.28 27.28 0 01-7.93-2.62 11.558 11.558 0 01-4.58-4.36c-1.82-3.35-1.82-7.49-1.82-12.8v-2h17.34a12.38 12.38 0 019 3.17zm59.92 24.6c0 3.71-1.09 6.69-3.13 8.73s-5 3.13-8.73 3.13h-14.76v14.54h-2.47v-37c0-10.95 6.26-17.17 17.2-17.17h11.86V412zm-11.84-25.32c-4.8 0-8.44 1.24-10.95 3.78s-3.78 6.11-3.78 10.95v20h14.73c6.11 0 9.38-3.28 9.38-9.38v-25.35zm18.25-22.62c2.25 2.84 3.35 6.62 3.35 11.28v48.48h-2.47v-48.48q0-6.11-2.84-9.82l-.73-.95 2-1.56zm39.64 37.31v22.47h-17.18c-3.78 0-6.69-1-8.8-3.13-2.11-2.13-3.06-5-3.06-8.73v-11.84h17.15c3.71 0 6.62 1 8.73 3.13.238.226.459.47.66.73v-2.62c0-4.69-1.31-8.44-3.78-10.95-2.47-2.51-6.19-3.78-10.95-3.78h-11.8v-2.47h11.86c10.84 0 17.17 6.3 17.17 17.2zm-26.55 1.24V412c0 6.11 3.2 9.38 9.38 9.38h14.69V412c0-6.11-3.28-9.38-9.38-9.38h-14.7zm58.26-15.27c2.11 2 3.13 5 3.13 8.73v1.24h-2.48v-1.24c0-6.11-3.28-9.38-9.38-9.38h-14.7v20c0 4.69 1.24 8.44 3.78 10.95s6.19 3.78 10.95 3.78h11.86v2.47h-11.9c-10.95 0-17.17-6.26-17.17-17.17v-22.51h17.17c3.71 0 6.69 1 8.74 3.13zm38.69 8.73q0 5.68-3.06 8.73c-2.11 2.11-5 3.13-8.8 3.13h-14.71v13.46h14.69c6.19 0 9.38-3.2 9.38-9.38v-1.24h2.47V412q0 5.67-3.06 8.73c-2.11 2.11-5 3.13-8.8 3.13h-17.15v-22.48c0-10.95 6.26-17.17 17.17-17.17h11.86v11.86zm-11.86-9.38c-4.69 0-8.37 1.31-10.95 3.78-2.58 2.47-3.78 6.19-3.78 10.95v4.07h14.69c6.19 0 9.38-3.2 9.38-9.38v-9.38h-9.38zm47.41 25.31c0 3.71-1.09 6.69-3.13 8.73s-5 3.13-8.73 3.13h-17.16v-22.48c0-10.95 6.26-17.17 17.17-17.17h9.38v-15.27h2.47zm-11.84-25.32c-4.69 0-8.44 1.24-10.95 3.78s-3.78 6.19-3.78 10.95v20h14.69c6.11 0 9.38-3.28 9.38-9.38v-25.35zm64.07-13.74h-7c-5.47 0-8.22 2.76-8.22 8.15v3.13h9.32v4h-9.31v35.64h-4v-35.68h-6v-4h6v-3.13q0-5.67 3.27-8.95c2.11-2.11 5.16-3.2 8.95-3.2h7v4zm20.07 12.43a14.205 14.205 0 015.6 3.42 15.143 15.143 0 013.42 5.53 21.998 21.998 0 011.09 7.2v22.33H12219c-3.86 0-6.83-1.09-9-3.2-2.17-2.11-3.2-5.16-3.2-8.95v-12.22h17.31a12.552 12.552 0 018.15 2.55v-.51c0-4.36-1.17-7.71-3.35-9.89-2.18-2.18-5.63-3.45-9.92-3.45h-12.21v-4h12.22c2.43-.035 4.846.372 7.13 1.2zm-15.34 18.11v8.22c0 5.38 2.76 8.15 8.22 8.15h13.24v-8.15c0-5.47-2.76-8.22-8.15-8.22h-13.33zm57.45-16.09q3.27 3.27 3.27 8.95v2h-4v-2c0-5.38-2.76-8.15-8.22-8.15h-13.25v18.33c0 4.36 1.09 7.71 3.35 10s5.6 3.35 9.89 3.35h12.21v4h-12.21a22.33 22.33 0 01-7.2-1.09 16.474 16.474 0 01-5.53-3.42 15.082 15.082 0 01-3.42-5.6 21.998 21.998 0 01-1.09-7.2v-22.35h17.2c3.89 0 6.87 1.09 9 3.19zm39.27 9q0 5.78-3.28 8.95-3.28 3.17-8.95 3.28h-13.23v11.28h13.23c5.47 0 8.22-2.76 8.22-8.22v-2h4v2q0 5.78-3.28 8.95-3.28 3.17-8.95 3.28h-17.2v-22.43a22.671 22.671 0 011.09-7.2 14.16 14.16 0 018.95-8.95 22.671 22.671 0 017.2-1.09h12.21v12.14zm-12.22-8.17c-4.29 0-7.63 1.09-9.89 3.35-2.26 2.26-3.35 5.6-3.35 9.89v3.13h13.24c5.47 0 8.22-2.76 8.22-8.22v-8.15zm69.31 23.46c0 3.86-1.09 6.83-3.28 9-2.19 2.17-5.09 3.2-8.95 3.2h-17.2v-22.4a21.9 21.9 0 011.09-7.12 16.127 16.127 0 013.42-5.6 16.474 16.474 0 015.53-3.42 22.671 22.671 0 017.2-1.09h8.22v-15.3h4v42.71zm-12.21-23.46c-4.29 0-7.63 1.17-9.89 3.35-2.26 2.18-3.35 5.6-3.35 9.89v18.4h13.24c5.47 0 8.22-2.76 8.22-8.22v-23.46h-8.22zm38.11-2.88a14 14 0 019 9 21.9 21.9 0 011.09 7.12v22.4h-12.15a21.998 21.998 0 01-7.2-1.09 14 14 0 01-9-9 21.998 21.998 0 01-1.09-7.2v-22.36h12.21c2.421-.033 4.83.335 7.13 1.09zm-15.35 2.88v18.33c0 4.36 1.17 7.71 3.35 10s5.6 3.35 10 3.35h8.15v-18.42c0-4.29-1.17-7.64-3.35-9.89-2.18-2.25-5.6-3.4-9.89-3.4h-8.22zm87.64 35.67h-12.17a21.998 21.998 0 01-7.2-1.09 16.079 16.079 0 01-5.6-3.42 15.576 15.576 0 01-2.47-3.57 18.469 18.469 0 01-2.54 3.57 16.079 16.079 0 01-5.6 3.42 21.9 21.9 0 01-7.12 1.09h-12.23v-39.68h4v35.64h8.22c4.29 0 7.64-1.17 9.89-3.35 2.25-2.18 3.35-5.6 3.35-10v-22.29h4v22.33c0 4.36 1.17 7.71 3.35 10s5.6 3.35 10 3.35h8.15v-35.68h4v39.64zm26.6-38.59a14 14 0 019 9 21.9 21.9 0 011.09 7.12v22.4h-4v-22.34c0-4.29-1.17-7.64-3.35-9.89-2.18-2.25-5.6-3.35-9.89-3.35h-8.25v35.64h-4v-39.67h12.21c2.441-.04 4.871.329 7.19 1.09zm57.09 0a14 14 0 019 9 21.9 21.9 0 011.09 7.12v22.4h-12.14a21.998 21.998 0 01-7.2-1.09 14 14 0 01-9-9 21.998 21.998 0 01-1.09-7.2v-22.32h12.21a21.9 21.9 0 017.12 1.09zm-15.34 2.88v18.33c0 4.36 1.17 7.71 3.35 10s5.6 3.35 10 3.35h8.15v-18.38c0-4.29-1.17-7.64-3.35-9.89-2.18-2.25-5.6-3.35-9.89-3.35h-8.22v-.05zm52.07-2.88a14 14 0 019 9 21.9 21.9 0 011.09 7.12v22.4h-4v-22.34c0-4.29-1.17-7.64-3.35-9.89-2.18-2.25-5.6-3.35-9.89-3.35h-8.22v35.64h-4v-39.67h12.21a21.914 21.914 0 017.15 1.09zm57.09.07a14.205 14.205 0 015.6 3.42 15.143 15.143 0 013.42 5.53 21.998 21.998 0 011.09 7.2v22.33h-17.2c-3.86 0-6.83-1.09-9-3.2-2.17-2.11-3.2-5.16-3.2-8.95v-12.22h17.31a12.552 12.552 0 018.15 2.55v-.51c0-4.36-1.17-7.71-3.35-9.89-2.18-2.18-5.6-3.42-9.89-3.42H12621v-4h12.21a20.07 20.07 0 017.09 1.17zm-15.31 18.12v8.22c0 5.38 2.76 8.15 8.22 8.15h13.24v-8.15c0-5.47-2.76-8.22-8.15-8.22zm-916.72 68h8.16a21.998 21.998 0 017.2 1.09 15.79 15.79 0 015.53 3.42 14.193 14.193 0 013.42 5.6 21.906 21.906 0 011.17 7.12v22.4h-17.37c-3.78 0-6.83-1.09-8.95-3.2-2.12-2.11-3.2-5.16-3.2-9v-42.7h4v15.27zm0 4v23.42c0 5.47 2.69 8.22 8.15 8.22h13.29v-18.41c0-4.29-1.17-7.64-3.42-9.89-2.25-2.25-5.53-3.35-9.89-3.35h-8.13zm33.31-23.57c2.26 2.91 3.44 6.69 3.44 11.34v47.86h-4v-47.86a14.571 14.571 0 00-2.54-8.95l-1.24-1.56 3.2-2.47zm30 20.66a14 14 0 019 9 21.9 21.9 0 011.09 7.12v22.4h-12.13a21.998 21.998 0 01-7.2-1.09 14 14 0 01-9-9 21.998 21.998 0 01-1.09-7.2v-22.33h12.22a21.9 21.9 0 017.12 1.09zm-15.34 2.91v18.33c0 4.36 1.17 7.71 3.35 10s5.6 3.35 10 3.35h8.15v-18.45c0-4.29-1.17-7.64-3.35-9.89-2.18-2.25-5.6-3.35-9.89-3.35h-8.22zm57.46-.81q3.24 3.28 3.24 8.95v2h-4v-2c0-5.38-2.76-8.15-8.22-8.15h-13.2v18.33c0 4.36 1.09 7.71 3.35 10s5.6 3.35 9.89 3.35h12.18v4h-12.2a22.33 22.33 0 01-7.2-1.09 16.474 16.474 0 01-5.53-3.42 15.082 15.082 0 01-3.42-5.6 21.998 21.998 0 01-1.09-7.2v-22.37h17.2c3.9 0 6.87 1.1 8.99 3.2zm14.55 17.17h8.24c4.29 0 7.64-1.17 9.89-3.35 2.25-2.18 3.35-5.6 3.35-10v-7h4v7a21.998 21.998 0 01-1.09 7.2 16.109 16.109 0 01-3.42 5.6 14.012 14.012 0 013.06 4.69 21.205 21.205 0 011.45 8v7.12h-4V504c0-4.58-1.31-8.07-3.78-10.25-.764.378-1.548.712-2.35 1a21.9 21.9 0 01-7.12 1.09h-8.2v15.27h-4v-54.9h4v35.64zm72.44-19.27a14 14 0 019 9 21.9 21.9 0 011.09 7.12v22.4h-12.15a21.998 21.998 0 01-7.2-1.09 14 14 0 01-9-9 21.998 21.998 0 01-1.09-7.2v-22.33h12.24a21.894 21.894 0 017.11 1.09zm-15.34 2.91v18.33c0 4.36 1.17 7.71 3.35 10s5.6 3.35 10 3.35h8.14v-18.45c0-4.29-1.17-7.64-3.35-9.89-2.18-2.25-5.6-3.35-9.89-3.35h-8.21zm52.07-2.91a14 14 0 019 9 21.9 21.9 0 011.09 7.12v22.4h-4v-22.4c0-4.29-1.17-7.64-3.35-9.89-2.18-2.25-5.6-3.35-9.89-3.35h-8.22v35.64h-4v-39.62h12.21c2.421-.03 4.831.342 7.13 1.1zm92.65 38.55h-12.17a21.998 21.998 0 01-7.2-1.09 16.079 16.079 0 01-5.6-3.42 15.545 15.545 0 01-2.47-3.57 18.475 18.475 0 01-2.55 3.57 16.094 16.094 0 01-5.6 3.42 21.9 21.9 0 01-7.12 1.09h-12.22v-39.65h4v35.64h8.22c4.29 0 7.64-1.17 9.89-3.35 2.25-2.18 3.35-5.6 3.35-10v-22.29h4v22.33c0 4.36 1.17 7.71 3.35 10s5.6 3.35 10 3.35h8.15v-35.68h4v39.64zm11.28-34.57c.188-.177.358-.371.51-.58a16.094 16.094 0 015.6-3.42 21.998 21.998 0 017.2-1.09h12.14v39.63h-4v-35.61h-8.13c-4.36 0-7.71 1.17-10 3.35s-3.35 5.6-3.35 9.89v22.4h-4v-54.9h4v20.33zm36.72 34.57h-4v-39.65h4v39.64zm.07-50.91h-4v-4h4zm33.45 14.47q3.3 3.28 3.3 8.95v2h-4v-2c0-5.38-2.76-8.15-8.22-8.15h-13.28v18.33c0 4.36 1.09 7.71 3.35 10s5.6 3.35 9.89 3.35h12.24v4h-12.25a22.33 22.33 0 01-7.2-1.09 16.474 16.474 0 01-5.53-3.42 15.095 15.095 0 01-3.42-5.6 21.998 21.998 0 01-1.09-7.2v-22.38h17.2c3.9 0 6.89 1.1 8.99 3.2zm14.55 1.87c.187-.177.358-.371.51-.58a16.094 16.094 0 015.6-3.42 21.998 21.998 0 017.2-1.09h12.14v39.63h-4v-35.61h-8.14c-4.36 0-7.71 1.17-10 3.35s-3.35 5.6-3.35 9.89v22.4h-4v-54.9h4v20.33zm72.43-3.91a14.205 14.205 0 015.6 3.42 15.143 15.143 0 013.42 5.53 21.998 21.998 0 011.09 7.2v22.33h-17.2c-3.86 0-6.83-1.09-9-3.2-2.17-2.11-3.2-5.16-3.2-8.95v-12.23h17.28a12.552 12.552 0 018.15 2.55v-.5c0-4.36-1.17-7.71-3.35-9.89-2.18-2.18-5.6-3.42-9.89-3.42h-12.27v-4h12.21a20.072 20.072 0 017.12 1.16zm-15.34 18.11V499c0 5.38 2.76 8.15 8.22 8.15h13.24V499c0-5.47-2.76-8.22-8.15-8.22h-13.34zm64-19.27h7.65v4h-7.64v23.42c0 5.47 2.77 8.22 8.22 8.22h2v4h-2c-3.86 0-6.83-1.09-9-3.2-2.17-2.11-3.2-5.16-3.2-9v-23.44h-7.64v-4h7.64v-15.27h4v15.27zm20.73 5.07c.187-.177.358-.371.51-.58a16.094 16.094 0 015.6-3.42 21.998 21.998 0 017.2-1.09h12.12v39.63h-4v-35.61h-8.14c-4.36 0-7.71 1.17-10 3.35s-3.35 5.6-3.35 9.89v22.4h-4v-54.9h4v20.33zm36.72 34.57h-4v-39.65h4v39.64zm.07-50.91h-4v-4h4zm26.62 12.36a14 14 0 019 9 21.9 21.9 0 011.09 7.12v22.4h-4v-22.4c0-4.29-1.17-7.64-3.35-9.89-2.18-2.25-5.6-3.35-9.89-3.35h-8.23v35.64h-4v-39.62h12.21a21.913 21.913 0 017.14 1.1zm38.33-20.66c2.25 2.91 3.42 6.69 3.42 11.35v47.86h-4v-47.87a14.571 14.571 0 00-2.54-8.95l-1.24-1.56 3.2-2.47zm30 20.72a14.205 14.205 0 015.6 3.42 15.143 15.143 0 013.42 5.53 21.998 21.998 0 011.09 7.2v22.33h-17.2c-3.86 0-6.83-1.09-9-3.2-2.17-2.11-3.2-5.16-3.2-8.95v-12.22h17.31a12.552 12.552 0 018.15 2.55v-.5c0-4.36-1.17-7.71-3.35-9.89-2.18-2.18-5.6-3.42-9.89-3.42h-12.27v-4h12.21a20.06 20.06 0 017.13 1.16zm-15.34 18.11V499c0 5.38 2.76 8.15 8.22 8.15h13.24V499c0-5.47-2.76-8.22-8.15-8.22h-13.31zm60.73 13.25a28.842 28.842 0 01-1.45 9.38 18.53 18.53 0 01-11.57 11.57 28.842 28.842 0 01-9.38 1.45h-2v-4h2c6 0 10.62-1.56 13.68-4.69a14.307 14.307 0 003.78-6.55h-7.27a21.9 21.9 0 01-7.12-1.09 14 14 0 01-9-9 21.998 21.998 0 01-1.09-7.2v-22.39h4v22.33c0 4.36 1.09 7.71 3.35 10s5.6 3.35 9.89 3.35h8.08c.07-1 .15-2 .15-3.13v-32.55h4V504zm35.28-20.36q0 5.78-3.28 8.95-3.28 3.17-8.95 3.28h-13.23v11.27h13.24c5.47 0 8.22-2.76 8.22-8.22v-2h4v2q0 5.78-3.28 8.95-3.28 3.17-8.95 3.28H12451v-22.4a22.671 22.671 0 011.09-7.2 14.16 14.16 0 018.95-8.95 22.671 22.671 0 017.2-1.09h12.22v12.14zm-12.22-8.15c-4.29 0-7.63 1.09-9.89 3.35-2.26 2.26-3.35 5.6-3.35 9.89v3.13h13.24c5.47 0 8.22-2.76 8.22-8.22v-8.14h-8.22zm48.22 0h-12.15c-4.36 0-7.71 1.17-10 3.35s-3.35 5.6-3.35 9.89v22.4h-4v-22.4a21.9 21.9 0 011.09-7.12 14 14 0 019-9 21.998 21.998 0 017.2-1.09h12.14v4zm46.26-2.91a14 14 0 019 9 21.9 21.9 0 011.09 7.12v22.4h-12.11a21.998 21.998 0 01-7.2-1.09 14 14 0 01-9-9 21.998 21.998 0 01-1.09-7.2v-22.33h12.21a21.882 21.882 0 017.09 1.09zm-15.34 2.91v18.33c0 4.36 1.17 7.71 3.35 10s5.6 3.35 10 3.35h8.15v-18.45c0-4.29-1.17-7.64-3.35-9.89-2.18-2.25-5.6-3.35-9.89-3.35h-8.22zm53.7-15.28h-7c-5.47 0-8.22 2.76-8.22 8.15v3.13h9.22v4h-9.35v35.64h-4v-35.64h-6v-4h6v-3.13q0-5.67 3.27-8.95c2.11-2.11 5.16-3.2 8.95-3.2h7v4zm56.37 15.27h-12.14c-4.36 0-7.71 1.17-10 3.35s-3.35 5.6-3.35 9.89v22.4h-4v-22.4a21.9 21.9 0 011.09-7.12 14 14 0 019-9 21.998 21.998 0 017.2-1.09h12.14v4zm9.81 35.64h-4v-39.64h4zm.07-50.91h-4v-4h4zm33.45 14.47q3.28 3.28 3.28 8.95v2h-4v-2c0-5.38-2.76-8.15-8.22-8.15h-13.24v18.33c0 4.36 1.09 7.71 3.35 10s5.6 3.35 9.89 3.35h12.22v4h-12.21a22.33 22.33 0 01-7.2-1.09 16.474 16.474 0 01-5.53-3.42 15.095 15.095 0 01-3.42-5.6 21.998 21.998 0 01-1.09-7.2v-22.37h17.2c3.84 0 6.82 1.1 8.93 3.2zm39.27 8.95q0 5.78-3.28 8.95-3.28 3.17-8.95 3.28h-13.24v11.27h13.24c5.47 0 8.22-2.76 8.22-8.22v-2h4v2q0 5.78-3.28 8.95-3.28 3.17-8.95 3.28h-17.2v-22.4a22.671 22.671 0 011.09-7.2 14.16 14.16 0 018.95-8.95 22.671 22.671 0 017.2-1.09h12.23v12.14zm-12.21-8.15c-4.29 0-7.63 1.09-9.89 3.35-2.26 2.26-3.35 5.6-3.35 9.89v3.13h13.24c5.47 0 8.22-2.76 8.22-8.22v-8.14h-8.22zm-993.63 110.69c0 3.86-1.09 6.83-3.2 9-2.11 2.17-5.16 3.2-8.95 3.2h-13.28v14.55h-4V576a21.9 21.9 0 011.09-7.12 14.38 14.38 0 019-9 21.998 21.998 0 017.2-1.09h12.14v27.42zm-12.13-23.41c-4.36 0-7.71 1.17-10 3.35s-3.35 5.6-3.35 9.89v18.4h13.35c5.38 0 8.15-2.76 8.15-8.22v-23.42zm38-2.84a14.193 14.193 0 015.6 3.42 15.143 15.143 0 013.42 5.53 21.998 21.998 0 011.09 7.2v22.33h-17.2c-3.86 0-6.83-1.09-9-3.2-2.17-2.11-3.2-5.16-3.2-8.95V574h17.29a12.552 12.552 0 018.15 2.55v-.51c0-4.36-1.17-7.71-3.35-9.89-2.18-2.18-5.6-3.42-9.89-3.42h-12.23v-4h12.22a20.06 20.06 0 017.13 1.17zm-15.32 18.08v8.22c0 5.38 2.76 8.15 8.22 8.15h13.2v-8.15c0-5.47-2.76-8.22-8.15-8.22zm58.26-16c2.11 2.18 3.2 5.16 3.2 8.95v2h-4v-2c0-5.38-2.76-8.15-8.15-8.15h-13.3c0 3.86.22 6.76 1.31 8.8.95 1.56 2.84 3.64 9.82 5.09a27.257 27.257 0 017.91 2.63 11.558 11.558 0 014.58 4.36c1.81 3.35 1.81 7.49 1.81 12.73v2h-17.2c-3.86 0-6.83-1.09-9-3.2-2.17-2.11-3.2-5.16-3.2-9v-2h4v2c0 5.47 2.76 8.22 8.22 8.22h13.24c0-3.86-.22-6.76-1.31-8.8-.95-1.63-2.87-3.63-9.87-5.12a27.28 27.28 0 01-7.93-2.62 11.558 11.558 0 01-4.58-4.36c-1.82-3.35-1.82-7.49-1.82-12.8v-2h17.33c3.28-.168 6.491.98 8.92 3.19zm18.47-3.2h7.59v4h-7.64v23.42c0 5.47 2.76 8.22 8.22 8.22h2v4h-2c-3.86 0-6.83-1.09-9-3.2-2.17-2.11-3.2-5.16-3.2-9v-23.48h-7.64v-4h7.64v-15.28h4v15.27zm45.45 12.14q0 5.78-3.27 8.95-3.27 3.17-8.95 3.28h-13.24v11.27h13.24c5.47 0 8.22-2.76 8.22-8.22v-2h4v2q0 5.78-3.27 8.95-3.27 3.17-8.95 3.28h-17.2V576a22.671 22.671 0 011.09-7.2 14.16 14.16 0 018.9-8.94 22.671 22.671 0 017.2-1.09h12.21v12.13zm-12.21-8.15c-4.29 0-7.64 1.09-9.89 3.35-2.25 2.26-3.35 5.6-3.35 9.89v3.13h13.24c5.47 0 8.22-2.76 8.22-8.22v-8.14h-8.22zm43.86 1.09c.188-.177.359-.371.51-.58a16.109 16.109 0 015.6-3.42 21.998 21.998 0 017.2-1.09h12.18v39.64h-4v-35.67h-8.15c-4.36 0-7.71 1.17-10 3.35s-3.35 5.6-3.35 9.89v22.4h-4v-54.92h4v20.36zm52.07-3.93a14.198 14.198 0 015.57 3.43 15.143 15.143 0 013.42 5.53 21.998 21.998 0 011.09 7.2v22.33h-17.2c-3.86 0-6.83-1.09-9-3.2-2.17-2.11-3.2-5.16-3.2-8.95V574h17.31a12.552 12.552 0 018.15 2.55v-.51c0-4.36-1.17-7.71-3.35-9.89-2.18-2.18-5.6-3.42-9.89-3.42h-12.26v-4h12.21a20.083 20.083 0 017.13 1.17zm-15.36 18.05v8.22c0 5.38 2.76 8.15 8.22 8.15h13.24v-8.15c0-5.47-2.76-8.22-8.15-8.22zm58.25-16c2.11 2.18 3.2 5.16 3.2 8.95v2h-4v-2c0-5.38-2.76-8.15-8.15-8.15h-13.29c0 3.86.22 6.76 1.31 8.8.95 1.56 2.84 3.64 9.82 5.09a27.28 27.28 0 017.93 2.62 11.558 11.558 0 014.58 4.36c1.81 3.35 1.81 7.49 1.81 12.73v2h-17.2c-3.86 0-6.83-1.09-9-3.2-2.17-2.11-3.2-5.16-3.2-9v-2h4v2c0 5.47 2.76 8.22 8.22 8.22h13.24c0-3.86-.22-6.76-1.31-8.8-.95-1.56-2.84-3.64-9.82-5.09a27.28 27.28 0 01-7.93-2.62 11.56 11.56 0 01-4.64-4.36c-1.82-3.35-1.82-7.49-1.82-12.8v-2h17.31c3.79 0 6.8 1.09 9 3.2zm34.84-3.2h8.15a21.998 21.998 0 017.2 1.09 15.79 15.79 0 015.53 3.42 14.193 14.193 0 013.42 5.6 21.906 21.906 0 011.17 7.12v22.4h-17.33c-3.78 0-6.83-1.09-8.95-3.2-2.12-2.11-3.2-5.16-3.2-9v-42.75h4v15.27zm0 4v23.42c0 5.47 2.69 8.22 8.15 8.22h13.29V576c0-4.29-1.17-7.64-3.42-9.89-2.25-2.25-5.53-3.35-9.89-3.35h-8.13zm61.45 8.14q0 5.78-3.28 8.95-3.28 3.17-8.95 3.28h-13.22v11.27h13.24c5.47 0 8.22-2.76 8.22-8.22v-2h4v2q0 5.78-3.28 8.95-3.28 3.17-8.95 3.28h-17.2V576a22.671 22.671 0 011.09-7.2 14.16 14.16 0 018.95-8.95 22.671 22.671 0 017.2-1.09h12.22v12.14zm-12.21-8.15c-4.29 0-7.64 1.09-9.89 3.35-2.25 2.26-3.35 5.6-3.35 9.89v3.13h13.24c5.47 0 8.22-2.76 8.22-8.22v-8.14h-8.22zm47.45 8.11q0 5.78-3.28 8.95-3.28 3.17-8.95 3.28h-13.19v11.27h13.24c5.47 0 8.22-2.76 8.22-8.22v-2h4v2q0 5.78-3.28 8.95-3.28 3.17-8.95 3.28h-17.2V576a22.671 22.671 0 011.09-7.2 14.16 14.16 0 018.95-8.95 22.671 22.671 0 017.2-1.09h12.15zm-12.21-8.15c-4.29 0-7.64 1.09-9.89 3.35-2.25 2.26-3.35 5.6-3.35 9.89v3.13h13.24c5.47 0 8.22-2.76 8.22-8.22v-8.14h-8.22zm38.8-2.9a14 14 0 019 9 21.9 21.9 0 011.09 7.12v22.4h-4V576c0-4.29-1.17-7.64-3.35-9.89-2.18-2.25-5.6-3.35-9.89-3.35h-8.22v35.64h-4v-39.65h12.21a21.9 21.9 0 017.12 1.09zm54.2-1.09h6.62v10.47h-6.62v15.05c0 1.38.22 2.4.73 2.84a4.22 4.22 0 002.91.78h5.24v10.47h-5.17c-5.31 0-8.6-2.11-10.33-3.86-1.73-1.75-3.78-4.94-3.78-10.25v-15h-6.69v-10.51h6.69v-15.27h10.47v15.27zm25.89 1.17a20.914 20.914 0 017.27-1.17h13.6v39.64h-10.43v-29.17h-3.12c-2.55 0-4.43.58-5.6 1.67-1.17 1.09-1.67 3.06-1.67 5.6v21.9h-10.5v-54.92h10.47v16.42zm38.62-6h-10.43v-10.45h10.47V554zm0 44.43h-10.43v-39.61h10.47v39.64zm33.78-34.85c3.13 3.13 4.69 7.56 4.69 12.94v21.9h-10.36V576.5c0-2.54-.51-4.43-1.67-5.6s-3-1.67-5.53-1.67h-3.13v29.16h-10.47v-39.64h13.6c5.31 0 9.79 1.68 12.91 4.81zm18.92-21.77a19.311 19.311 0 013.64 12v44.65h-10.48v-44.66a9.402 9.402 0 00-1.45-5.6l-3.2-4.14 8.29-6.4zm42.18 49.26a26.123 26.123 0 01-1.38 8.88 19.32 19.32 0 01-4.43 7.2 19.106 19.106 0 01-7.2 4.43 26.147 26.147 0 01-8.88 1.38h-5.29v-10.44h5.24c4.69 0 7.93-1.31 9.74-4.07h-1.38c-5.38 0-9.82-1.67-12.94-4.8-3.12-3.13-4.8-7.56-4.8-12.94v-21.9h10.47v21.9c0 2.54.58 4.43 1.74 5.53a7.83 7.83 0 005.53 1.74h3.06v-29.16h10.47V591zm53.9-29c2.11 2.18 3.2 5.16 3.2 8.95v2h-4v-2c0-5.38-2.76-8.15-8.15-8.15h-13.27c0 3.86.22 6.76 1.31 8.8.95 1.56 2.84 3.64 9.81 5.09a27.28 27.28 0 017.93 2.62 11.558 11.558 0 014.58 4.36c1.82 3.35 1.82 7.49 1.82 12.73v2H12405c-3.86 0-6.83-1.09-9-3.2-2.17-2.11-3.2-5.16-3.2-9v-2h4v2c0 5.47 2.76 8.22 8.22 8.22h13.28c0-3.86-.22-6.76-1.31-8.8-.95-1.56-2.84-3.64-9.82-5.09a27.28 27.28 0 01-7.93-2.62 11.558 11.558 0 01-4.58-4.36c-1.82-3.35-1.82-7.49-1.82-12.8v-2h17.31c3.286-.161 6.502.99 8.94 3.2zm39.19 24.22c0 3.86-1.09 6.83-3.2 9-2.11 2.17-5.16 3.2-8.95 3.2h-13.29v14.55h-4V576a21.9 21.9 0 011.09-7.12 14.38 14.38 0 019-9 21.998 21.998 0 017.2-1.09h12.14v27.42zm-12.14-23.42c-4.36 0-7.71 1.17-10 3.35s-3.35 5.6-3.35 9.89v18.4h13.29c5.38 0 8.15-2.76 8.15-8.22v-23.46h-8.13zm48.14 0h-12.15c-4.36 0-7.71 1.17-10 3.35s-3.35 5.6-3.35 9.89v22.4h-4V576a21.9 21.9 0 011.09-7.12 14 14 0 019-9 21.998 21.998 0 017.2-1.09h12.14v4zm32.37 8.14q0 5.78-3.28 8.95-3.28 3.17-8.95 3.28h-13.22v11.27h13.24c5.47 0 8.22-2.76 8.22-8.22v-2h4v2q0 5.78-3.28 8.95-3.28 3.17-8.95 3.28h-17.2V576a22.671 22.671 0 011.09-7.2 14.16 14.16 0 018.95-8.95 22.671 22.671 0 017.2-1.09h12.22v12.14h-.05zm-12.21-8.15c-4.29 0-7.63 1.09-9.89 3.35-2.26 2.26-3.35 5.6-3.35 9.89v3.13h13.24c5.47 0 8.22-2.76 8.22-8.22v-8.14h-8.22zm38.1-2.83a14.193 14.193 0 015.6 3.42 15.143 15.143 0 013.42 5.53 21.998 21.998 0 011.09 7.2v22.33h-17.2c-3.86 0-6.83-1.09-9-3.2-2.17-2.11-3.2-5.16-3.2-8.95V574h17.25a12.55 12.55 0 018.15 2.55v-.51c0-4.36-1.17-7.71-3.35-9.89-2.18-2.18-5.6-3.42-9.89-3.42h-12.21v-4h12.21c2.435-.047 4.858.35 7.15 1.17zm-15.37 18.04v8.22c0 5.38 2.76 8.15 8.22 8.15h13.24v-8.15c0-5.47-2.76-8.22-8.15-8.22zm61.47 8.14c0 3.86-1.09 6.83-3.28 9-2.19 2.17-5.09 3.2-8.95 3.2h-17.2V576a21.9 21.9 0 011.09-7.12 16.127 16.127 0 013.42-5.6 16.474 16.474 0 015.53-3.42 22.671 22.671 0 017.2-1.09h8.22v-15.29h4v42.69zm-12.2-23.41c-4.29 0-7.63 1.17-9.89 3.35-2.26 2.18-3.35 5.6-3.35 9.89v18.4h13.24c5.47 0 8.22-2.76 8.22-8.22v-23.39h-8.22zm59.17-2.84a14.193 14.193 0 015.6 3.42 15.143 15.143 0 013.42 5.53 21.998 21.998 0 011.09 7.2v22.33h-17.2c-3.86 0-6.83-1.09-9-3.2-2.17-2.11-3.2-5.16-3.2-8.95V574h17.31a12.552 12.552 0 018.15 2.55v-.51c0-4.36-1.17-7.71-3.35-9.89-2.18-2.18-5.6-3.42-9.89-3.42h-12.23v-4h12.21a20.07 20.07 0 017.09 1.17zm-15.38 18.11v8.22c0 5.38 2.76 8.15 8.22 8.15h13.24v-8.15c0-5.47-2.76-8.22-8.15-8.22zm52.11-18.18a14 14 0 019 9 21.9 21.9 0 011.09 7.12v22.4h-4V576c0-4.29-1.17-7.64-3.35-9.89-2.18-2.25-5.6-3.35-9.89-3.35h-8.18v35.64h-4v-39.65h12.21a21.914 21.914 0 017.15 1.09zm46.11 26.32c0 3.86-1.09 6.83-3.28 9-2.19 2.17-5.09 3.2-8.95 3.2H12699V576a21.9 21.9 0 011.09-7.12 16.127 16.127 0 013.42-5.6 16.474 16.474 0 015.53-3.42 22.671 22.671 0 017.2-1.09h8.22v-15.29h4v42.69zm-12.2-23.41c-4.29 0-7.63 1.17-9.89 3.35-2.26 2.18-3.35 5.62-3.35 9.92v18.4h13.24c5.47 0 8.22-2.76 8.22-8.22v-23.42h-8.22zm20.56 35.64h-4v-4h4zm14.19 0h-4v-4h4zm14.19 0h-4v-4h4z" fill="#fff"/></svg>