<svg viewBox="0 0 1000 660" xmlns="http://www.w3.org/2000/svg"><path d="m0 660h1000v-660h-1000z" fill="#eae3d8"/><path d="m806.373 427.733v48.035h62.045c11.675 0 20.348 2.668 25.685 7.672 2.668 3.002 5.003 7.005 6.338 12.008-4.337-.333-8.34-1-13.01-1h-81.058v52.705c0 38.027 24.351 62.378 62.045 62.378h81.392v-100.406c0-24.684-7.672-45.032-22.016-59.376s-34.692-22.016-59.376-22.016zm48.034 114.749h33.024c5.671 0 9.674 1.335 11.342 3.003 2.001 2.001 3.002 6.004 3.002 11.341v4.67h-33.357c-5.338 0-9.341-1.001-11.342-3.002-1.668-1.668-2.669-5.671-2.669-11.341z"/><path d="m617.341 333.733v29.688h58.042c17.013 0 29.688 4.336 38.028 12.676 6.671 6.671 10.674 16.345 12.008 28.354-8.005-3.67-17.679-5.671-28.02-5.671h-80.058v58.375c0 17.68 5.337 32.691 15.345 42.698 10.34 10.341 25.018 15.678 42.697 15.678h80.058v-101.74c0-50.036-29.688-80.058-80.058-80.058zm29.688 94.735h50.37c9.674 0 17.012 2.335 21.682 7.005 4.337 4.67 6.672 12.009 6.672 21.682v28.688h-50.37c-9.673 0-17.012-2.335-21.682-7.005-4.336-4.337-6.672-11.675-6.672-21.683z"/><path d="m429.439 239.733v18.346h56.041c19.681 0 35.025 5.338 45.366 15.679 10.007 10.007 15.344 25.351 15.344 45.366v2.335c-9.34-7.673-22.016-11.675-37.36-11.675h-79.391v56.04c0 17.346 5.004 31.022 14.678 41.03 10.007 9.673 23.683 14.677 41.363 14.677h79.057v-102.407c0-12.343-1.668-23.351-5.004-33.024-3.669-10.008-9.006-18.68-15.678-25.352-7.005-7.005-15.678-12.342-25.685-15.678-9.673-3.669-20.681-5.337-32.69-5.337zm18.347 88.397h61.044c24.685 0 37.36 12.676 37.36 37.694v37.36h-60.71c-25.018 0-37.694-12.675-37.694-37.36z"/><path d="m239.519 145.733v11.341h54.373c21.682 0 38.361 5.671 50.036 17.346 11.341 11.342 17.346 28.354 17.346 50.036v12.009c-1.001-1.334-2.002-2.335-3.002-3.336-9.674-9.673-23.017-14.343-40.029-14.343h-78.724v54.372c0 17.013 4.67 30.689 14.01 40.029 9.674 9.674 23.017 14.344 40.363 14.344h78.723v-103.075c0-50.036-29.021-78.723-78.723-78.723zm11.342 84.394h67.382c28.02 0 43.031 15.011 43.031 43.031v43.031h-67.382c-28.354 0-43.031-15.01-43.031-43.031z"/><path d="m50.81 50.733v7.005h53.705c22.683 0 40.696 6.338 52.705 18.347 12.342 12.342 18.68 30.021 18.68 53.038v19.681c-8.673-15.011-24.684-23.017-46.7-23.017h-78.39v53.372c0 34.025 19.681 53.372 53.705 53.372h78.39v-103.408c0-25.018-7.005-44.365-20.682-58.042-13.343-13.343-33.023-20.348-57.708-20.348zm7.005 82.059h71.385c15.01 0 26.686 4.003 34.691 11.675 8.006 8.006 12.009 19.681 12.009 34.692v46.367h-71.385c-15.011 0-26.686-4.003-34.692-12.009-8.005-7.672-12.008-19.347-12.008-34.358z"/></svg>