<svg viewBox="0 0 14400 720" xmlns="http://www.w3.org/2000/svg"><path d="m0 720h14400v-720h-14400z" fill="#eae3d8"/><path d="m407.1 329.8v20.2h30.3v10h-30.3v30.3h-10.1v-70.6h40.4v10.1zm30.3 20.2v-20.2h10.1v20.2zm20.1 30.2v-10.1h10.1v10.1zm10.1-30.2v-10.1h30.3v10.1zm0 40.4v-10.2h30.3v-10.1h-30.3v-10.1h30.3v-10h10.1v40.4zm80.8-40.4v10h-10.1v30.3h-10.1v-50.4h10.1v10.1zm0 0v-10.1h20.2v10.1zm65.6-10.1v10.1h-20.2v30.3h-10.1v-60.6h10.1v20.2zm-20.2 50.5v-10.2h20.2v10.1h-20.2zm40.4-60.6v-10.1h10.1v10.1zm0 60.6v-50.5h10.1v50.5zm60.6-50.5v10.1h-20.2v30.3h-10.1v-60.6h10.1v20.2zm-20.2 50.5v-10.2h20.2v10.1h-20.2zm35.3-10.2v-10.1h10.1v10.1zm10.1-30.2v-10.1h30.3v10.1zm0 40.4v-10.2h30.3v-10.1h-30.3v-10.1h30.3v-10h10.1v40.4zm60.6-10.2v-10.1h10.1v10.1zm4-4h2v-2h-2zm6.1-26.2v-10.1h30.3v10.1zm0 40.4v-10.2h30.3v-10.1h-30.3v-10.1h30.3v-10h10v40.4zm4-44.4h22.2v-2h-22.2zm30.3 18.1h-30.3v2h30.3v18.2h-30.3v2h32.3v-32.3h-2zm26.2 16.1v-10.1h10.1v10.1zm2-2h6.1v-6.1h-6.1zm2-2v-2h2v2zm6.1-26.2v-10.1h30.3v10.1zm0 40.4v-10.2h30.3v-10.1h-30.3v-10.1h30.3v-10h10.1v40.4zm2-42.4h26.2v-6.1h-26.2zm30.3 14.1h-30.3v6.1h30.3v14.1h-30.3v6.1h36.3v-36.4h-6.1v10.1zm-28.3-16.2v-2h22.2v2h-22.1zm0 40.4v-2h30.3v-18.2h-30.2v-2h30.3v-10.1h2v32.3h-32.3zm56.6-6.1v-10.1h10.1v10.1zm3-3h4v-4h-4zm7.1-27.2v-10.1h30.3v10.1zm0 40.4v-10.2h30.3v-10.1h-30.3v-10.1h30.3v-10h10.1v40.4zm3-43.4h24.2v-4h-24.2zm30.3 16.2h-30.3v4h30.3v16.2h-30.3v4h34.3v-34.4h-4v10.1zm27.2 17v-10.1h10.1v10.1zm2-2h6.1v-6.1h-6.1zm8.1-28.3v-10h30.3v10.1h-30.3zm0 40.4v-10.1h30.3v-10.1h-30.3v-10.1h30.3v-10h10.1v40.4h-40.4zm2-42.4h26.2v-6.1h-26.2zm30.3 14.1h-30.3v6.1h30.3v14.1h-30.3v6.1h36.4v-36.3h-6.1v10.1zm837.3 104.4v-70h10v70zm30 0v-40h10v40zm10-40v-10h30v10zm30 40v-40h10v40zm30-30v-10h10v10zm0 30v-10h30v10zm10-40v-10h30v10zm0 20v-10h20v10zm20 10v-10h10v10zm70-20v10h-30v10h-10v-30h10v10zm-30-10v-10h30v10zm0 40v-10h30v10zm30-30v-10h10v10zm45-10v10h-10v30h-10v-50h10v10zm0 0v-10h20v10zm65-10v10h-20v30h-10v-60h10v20zm-20 50v-10h20v10zm70-10v-50h10v50zm10-50v-10h30v10zm0 60v-10h30v10zm30-50v-10h10v10zm0 40v-10h10v10zm30 0v-30h10v30zm10-30v-10h30v10zm0 40v-10h30v10zm30-10v-30h10v30zm30-50v-10h10v10zm0 60v-50h10v50zm30 0v-40h10v40zm10-40v-10h30v10zm30 40v-40h10v40zm-569.1 52.1v10.5h15.7v5.2h-15.7v15.8h-5.2v-36.8h21v5.2h-15.8zm15.7 10.5v-10.5h5.2v10.5zm18.4-10.5v10.5h15.7v5.2h-5.2v5.2h-5.2v-5.2h-5.2v15.8h-5.2v-36.8h21v5.2h-15.9zm10.5 26.2v-5.2h5.2v5.2zm5.2-15.7v-10.5h5.2v10.5zm0 21v-5.2h5.2v5.2zm21-31.5v10.5h15.7v5.2h-15.7v10.5h20.9v5.3h-26.1v-36.8h26.2v5.2h-21zm31.5 10.5v-10.5h5.2v10.5zm0 15.7v-5.2h5.2v5.2zm5.2-26.2v-5.2h15.7v5.2h-15.6zm0 15.7v-5.2h15.7v5.2h-15.6zm0 15.7v-5.2h15.7v5.3h-15.6zm15.7-26.2v-5.2h5.2v5.2zm0 21v-10.5h5.2v10.5zm15.8-15.7v-10.5h5.2v10.5zm0 15.7v-5.2h5.2v5.2zm5.2-26.2v-5.2h15.7v5.2h-15.6zm0 15.7v-5.2h15.7v5.2h-15.6zm0 15.7v-5.2h15.7v5.3h-15.6zm15.7-26.2v-5.2h5.2v5.2zm0 21v-10.5h5.2v10.5zm31.6-15.7v-10.5h5.2v10.5zm0 15.7v-5.2h5.2v5.2zm5.2-26.2v-5.2h15.7v5.2h-15.6zm0 15.7v-5.2h15.7v5.2h-15.6zm0 15.7v-5.2h15.7v5.3h-15.6zm15.7-26.2v-5.2h5.2v5.2zm0 21v-10.5h5.2v10.5zm29-26.2v31.5h-5.2v-31.5h-10.5v-5.2h26.2v5.2zm39.4 31.5v-10.5h-15.8v10.5h-5.2v-31.5h5.2v15.7h15.7v-15.7h5.2v31.5h-5.2zm-15.7-31.5v-5.2h15.7v5.2h-15.8zm36.7 0v10.5h15.7v5.2h-5.2v5.2h-5.2v-5.2h-5.2v15.8h-5.2v-36.8h21v5.2h-15.9zm10.5 26.2v-5.2h5.2v5.2zm5.2-15.7v-10.5h5.2v10.5zm0 21v-5.2h5.2v5.2zm28.9-31.5v31.5h-5.2v-31.5h-10.6v-5.2h26.3v5.2zm52.5 0v31.5h-5.2v-31.5h-10.6v-5.2h26.2v5.2zm18.3 26.2v-26.2h5.2v26.2zm5.2-26.2v-5.2h15.7v5.2h-15.6zm0 31.5v-5.2h15.7v5.2h-15.6zm15.7-5.2v-26.3h5.2v26.2h-5.2zm31.6 5.2v-5.2h10.5v5.2zm10.5-5.2v-26.3h-5.2v-5.2h10.5v31.5h-5.2zm15.8-.1v-26.2h5.2v26.2zm5.2-26.2v-5.2h15.7v5.2zm0 31.5v-5.2h15.7v5.2zm15.7-5.2v-26.3h5.2v26.2h-5.2zm15.8 5.2v-36.8h5.2v36.8zm26.3-31.5v5.2h-5.2v26.3h-5.2v-36.8h5.2v5.2h5.2zm0 10.5v-5.2h5.2v5.2zm10.5 21v-15.8h-5.2v-5.2h5.2v-15.8h5.2v36.8zm-572.9-241.1v-10.1h10.1v10.1zm50.4 40.3v10.1h-50.4v-20.1h10.1v10.1h40.3zm-40.3-50.4v-10.1h30.3v10.1zm0 40.3v-10h10.1v10.1h-10.1zm10.1-10.1v-10h20.2v10.1h-20.2zm20.2-10v-20.2h10.1v20.2zm40.3-20.2v20.2h-10.1v-30.3h50.4v10.1zm-10.1 50.4v-10h10.1v10.1h-10.1zm10.1-20.2v-10h30.3v10.1h-30.3zm0 30.3v-10h30.3v10.1h-30.3zm30.3-10.1v-20.1h10.1v20.2h-10.1zm30.2.1v-50.5h10.1v50.4h-10.1zm10.1-50.5v-10.1h30.3v10.1zm0 60.5v-10h30.3v10.1h-30.3zm10.1-30.3v-10h10.1v10.1h-10.1zm20.2 20.2v-50.4h10.1v50.4zm25.2-30.2v-10.1h10.1v10.1zm20.2 40.3v-50.4h-10.1v-10.1h10.1v-10.1h10.1v70.6zm65.5-40.3v-20.2h-40.3v-10.1h50.4v30.3zm-30.2 40.4v-20.2h10.1v20.2zm10.1-20.2v-10.1h10.1v10.1zm10.1-10.1v-10.1h10.1v10.1zm45.3-30.3v20.2h-10v-20.2h10.1zm0 40.3v10.1h-10v-10h10.1zm30.3-50.4v10.1h-30.3v-10.1zm-30.3 40.3v-10h30.3v-20.2h10.1v50.4h-10.1v-20.1h-30.3zm30.3 20.2v10.1h-30.3v-10h30.3zm70.6-30.2v30.3h30.3v10.1h-30.3v20.2h-10.1v-70.7h40.3v10.1zm30.3 30.3v-30.3h10.1v30.3zm60.5-40.4v10.1h-20.2v30.3h-10.1v-60.6h10.1v20.2zm-20.2 50.5v-10.1h20.2v10.1zm40.4-30.3v-10.1h10.1v10.1zm0 30.3v-10.1h30.3v10.1zm10.1-40.4v-10.1h30.3v10.1zm0 20.2v-10.1h20.2v10.1zm20.2 10.1v-10.1h10.1v10.1h-10.2zm-568.5-117.7v-51.3h10.3v51.3zm10.3-51.3v-10.3h30.8v10.3h-30.9zm0 61.6v-10.3h30.8v10.3h-30.9zm30.8-10.3v-20.5h-10.3v-10.3h20.5v30.8h-10.3zm0-41.1v-10.2h10.3v10.3h-10.4zm71.8 51.4v-20.5h-30.8v20.5h-10.3v-61.6h10.3v30.8h30.8v-30.8h10.3v61.6zm-30.8-61.6v-10.3h30.8v10.3zm82.1 0v10.3h-10.3v51.3h-10.2v-71.9h10.3v10.3h10.3zm0 20.5v-10.2h10.3v10.3h-10.3zm20.5 41.1v-51.3h-10.2v-10.3h10.3v-10.3h10.3v71.9zm41.1-61.6v20.5h30.8v10.3h-30.8v20.5h41v10.3h-51.3v-71.9h51.3v10.3zm92.4 51.3v-51.3h10.3v51.3zm10.3-51.3v-10.3h30.8v10.3zm0 61.6v-10.3h30.8v10.3zm30.8-10.3v-51.3h10.3v51.3zm25.6-30.8v-30.8h10.3v30.8zm10.3 20.5v-20.5h10.3v20.5zm10.3 20.5v-20.4h10.3v20.5h-10.3zm10.3-20.5v-20.5h10.3v20.5h-10.4zm10.3-20.5v-30.8h10.3v30.8h-10.4zm40.9-20.5v20.5h30.8v10.3h-30.8v20.5h41v10.3h-51.2v-71.9h51.3v10.3zm71.9 0v20.5h30.8v10.3h-10.3v10.3h-10.2v-10.3h-10.3v30.8h-10.3v-71.9h41.1v10.3zm20.5 51.3v-10.2h10.3v10.3h-10.3zm10.3-30.8v-20.5h10.3v20.5zm0 41.1v-10.3h10.3v10.3zm734.9 15.4 3.3-14.9h14.9l-3.3 14.9zm3.7-3h9l1.8-9h-9zm5.8-41.8 6.4-29.9h14.9l-6.4 29.9h-14.8zm2.2 59.7 3.1-14.9h44.8l-3.1 14.9h-44.7zm1.5-62.7h9l5.1-23.9h-9zm2.1 59.7h38.9l1.9-9h-38.7zm6-41.8 3.1-14.9h44.8l-3 15h-44.8zm3.6-3h38.8l1.9-9h-38.7zm6-41.8 3.1-14.9h44.8l-3.1 14.9zm3.6-3h38.8l1.9-9h-38.7zm25.2 77.6 6.4-29.9h14.9l-6.4 29.9h-14.8zm3.7-3h9l5.1-23.9h-9zm9.1-56.7 3.1-14.9h14.9l-3.1 14.9h-14.8zm3.6-3h9l1.9-9h-9zm28.6 62.8 19.1-89.6h14.9l-19.1 89.6zm3.6-3h9l17.8-83.6h-9zm8.2 17.9 3.1-14.9h44.8l-3.1 14.9zm3.6-3h38.8l1.9-9h-38.8zm44.3-11.9 19.1-89.6h14.9l-19.1 89.6zm3.6-3h9l17.8-83.6h-9zm72.1-71.6-6.4 29.9h44.8l-3.1 14.9h-44.8l-9.6 44.8h-14.9l22.2-104.5h59.7l-3.1 14.9zm-30.5 86.6h9l9.6-44.8h44.8l1.9-9h-44.8l7.6-35.8h44.8l1.9-9h-53.7zm68.8-56.7 6.4-29.9h14.9l-6.4 29.9h-14.8zm3.7-3h9l5.1-23.9h-9zm55.2-26.9-6.4 29.9h44.8l-3.1 14.9h-44.8l-6.4 29.9h59.6l-3.1 14.9h-74.6l22.2-104.5h74.7l-3.1 14.9zm-30.5 86.6h68.5l1.9-9h-59.4l7.6-35.8h44.8l1.9-9h-44.8l7.6-35.8h59.7l1.9-9h-68.6zm135.2-86.6-6.4 29.9h44.8l-3.2 14.9h-14.9l-3.1 14.9h-15l3.1-14.9h-14.9l-9.6 44.8h-14.9l22.3-104.6h59.7l-3.1 14.9h-44.8zm-30.5 86.6h9l9.6-44.8h20.9l-3.1 14.9h9l3.1-14.9h14.9l1.9-9h-44.8l7.6-35.8h44.8l1.9-9h-53.7zm44.3-11.9 3.3-14.9h14.9l-3.3 14.9zm3.7-3h9l1.8-9h-9zm8.1 17.9 3.1-14.9h14.9l-3.1 14.9zm3.6-3h9l1.9-9h-9zm9.1-56.7 6.4-29.9h14.9l-6.4 29.9zm3.7-3h9l5.1-23.9h-9zm-435 113.1-3.1 14.9h-15l-16 74.6h-14.9l22.2-104.5h15l-3.1 14.9h14.9zm-45.4 86.6h9l16-74.6h14.9l1.9-9h-14.9l3.1-14.9h-9zm39-56.7 3.3-14.9h14.9l-3.3 14.9zm3.7-3h9l1.8-9h-9zm13.4 62.7 9.6-44.8h-14.9l3.1-14.9h14.9l9.6-44.8h14.9l-22.2 104.5h-14.9zm15.1-56.7h-14.9l-1.9 9h14.9l-9.6 44.8h9l21.1-98.5h-9zm32.9 41.7 16-74.6h14.9l-16 74.6zm3.7-3h9l14.6-68.7h-9zm8.1 17.9 3.1-14.9h44.8l-3.1 14.9zm3.6-3h38.8l1.9-9h-38.8zm15.5-86.6 3.1-14.9h44.8l-3.1 14.9zm3.6-3h38.8l1.9-9h-38.8zm25.2 77.6 16-74.6h14.9l-16 74.6zm3.7-3h9l14.6-68.7h-9zm41.2 3.1 3.3-14.9h14.9l-3.3 14.9zm3.7-3h9l1.8-9h-9zm5.8-41.8 6.4-29.9h14.9l-6.4 29.9h-14.8zm2.2 59.7 3.1-14.9h44.8l-3.1 14.9h-44.7zm1.5-62.7h9l5.1-23.9h-9zm2.1 59.7h38.8l1.9-9h-38.6zm6-41.8 3.1-14.9h44.8l-3.1 14.9h-44.7zm3.6-3h38.8l1.9-9h-38.7zm6-41.8 3.1-14.9h44.9l-3.1 14.9h-44.8zm3.6-3h38.8l1.9-9h-38.7zm25.2 77.6 6.4-29.9h14.9l-6.4 29.9h-14.8zm3.7-3h9l5.1-23.9h-9zm9.1-56.7 3.1-14.9h14.9l-3.1 14.9h-14.8zm3.6-3h9l1.9-9h-9zm81.8-11.8-19 89.6h-14.9l19-89.6h-29.9l3.3-14.9h74.6l-3.3 14.9zm-41.1-3h29.9l-19.1 89.6h9l19.1-89.6h29.9l1.8-9h-68.8zm134.1 92.6 6.3-29.9h-44.9l-6.3 29.9h-14.8l19.1-89.6h14.9l-9.6 44.8h44.8l9.6-44.8h14.9l-19.1 89.6zm11.8-41.8h-50.8l9.6-44.8h-9l-17.8 83.6h9l6.4-29.9h50.8l-6.4 29.9h9l17.8-83.6h-9zm-37.5-47.8 3.1-14.9h44.8l-3.1 14.9zm3.6-3h38.8l1.9-9h-38.8zm144.8 77.6-3.1 14.9h-74.7l22.2-104.5h14.9l-19 89.6zm-74.2 11.9h68.7l1.9-9h-59.7l19.1-89.6h-9zm96.6-11.9 16-74.6h14.9l-16 74.6zm3.7-3h9l14.6-68.7h-9zm8.1 17.9 3.1-14.9h44.8l-3.1 14.9zm3.6-3h38.8l1.9-9h-38.8zm15.5-86.5 3.1-14.9h44.8l-3.1 14.9zm3.6-3h38.8l1.9-9h-38.8zm25.2 77.6 6.4-29.9h-14.9l3.1-14.9h29.9l-9.6 44.8zm-4.9-32.8h14.9l-6.3 29.9h9l8.2-38.8h-23.9zm17.8-26.9 3.1-14.9h14.9l-3.1 14.9h-15zm3.6-3h9l1.9-9h-9zm25.3 77.7 22.2-104.5h14.9l-22.2 104.5zm3.6-3h9l21-98.5h-9zm100.9 3 6.3-29.9h-44.8l-6.3 29.9h-14.9l19.1-89.6h14.9l-9.6 44.8h44.8l9.6-44.8h14.9l-19.1 89.6zm11.8-41.8h-50.8l9.6-44.8h-9l-17.7 83.6h9l6.4-29.9h50.8l-6.4 29.9h9l17.8-83.6h-9zm-37.5-47.8 3.1-14.9h44.8l-3.1 14.9zm3.6-3h38.8l1.9-9h-38.7zm-792.2 217.6 3.3-14.9h14.9l-3.3 14.9zm3.7-3h9l1.8-9h-9zm5.8-41.8 6.4-29.9h14.9l-6.4 29.9h-14.8zm2.2 59.7 3.1-14.9h44.8l-3.1 14.9h-44.7zm1.5-62.7h9l5.1-23.9h-9zm2.1 59.7h38.9l1.9-9h-38.7zm6-41.8 3.1-14.9h44.8l-3 15h-44.8zm3.6-3h38.8l1.9-9h-38.7zm6-41.8 3.1-14.9h44.8l-3.1 14.9zm3.6-3h38.8l1.9-9h-38.7zm25.2 77.6 6.4-29.9h14.9l-6.4 29.9h-14.8zm3.7-3h9l5.1-23.9h-9zm9.1-56.7 3.1-14.9h14.9l-3.1 14.9h-14.8zm3.6-3h9l1.9-9h-9zm33.8 3.1 6.4-29.9h14.9l-6.4 29.9zm3.7-3h9l5.1-23.9h-9zm4.9 32.8 6.3-29.9h14.9l-6.3 29.9h-14.8zm3.6-3h9l5.1-23.9h-9zm1.8 47.8 9.6-44.8h14.9l-9.6 44.8h-14.8zm3.6-3h9l8.4-38.8h-9zm20.9-41.8 6.3-29.9h14.9l-6.3 29.9zm3.6-3h9l5.1-23.9h-9zm17.6-26.9 6.4-29.9h14.9l-6.4 29.9zm3.7-3h9l5.1-23.9h-9zm21 62.8 3.3-14.9h14.9l-3.3 14.9zm3.7-3h9l1.8-9h-9zm5.8-41.8 6.4-29.9h15l-6.4 29.9zm2.2 59.7 3.1-14.9h44.8l-3.1 14.9h-44.7zm1.5-62.7h9l5.1-23.9h-9zm2.1 59.7h38.8l1.9-9h-38.7zm6-41.8 3.1-14.9h44.8l-3.1 14.9zm3.6-3h38.8l1.9-9h-38.7zm6-41.8 3.1-14.9h44.8l-3.1 14.9zm3.6-3h38.8l1.9-9h-38.8zm25.2 77.6 6.4-29.9h14.9l-6.4 29.9zm3.7-3h9l5.1-23.9h-9zm9.1-56.7 3.1-14.9h14.9l-3.1 14.9zm3.6-3h9l1.9-9h-9zm81.7-11.8-19 89.6h-14.9l19-89.6h-29.9l3.3-14.9h74.6l-3.3 14.9zm-41.1-3h29.9l-19.1 89.6h9l19.1-89.6h29.9l1.8-9h-68.8zm108.4 3-6.4 29.9h44.8l-3.1 14.9h-44.8l-6.4 29.9h59.6l-3.1 14.9h-74.6l22.2-104.5h74.6l-3.1 14.9zm-30.5 86.6h68.5l1.9-9h-59.4l7.6-35.8h44.8l1.9-9h-44.8l7.6-35.8h59.7l1.9-9h-68.6zm150.1-86.6-3.1 14.9h-15l-16 74.6h-14.9l22.2-104.5h15l-3.1 14.9h14.9zm-45.4 86.6h9l16-74.6h14.9l1.9-9h-14.9l3.1-14.9h-9zm39-56.7 3.3-14.9h14.9l-3.3 14.9zm3.7-3h9l1.8-9h-9zm13.4 62.7 16-74.6h-14.9l3.1-14.9h14.9l3.1-14.9h14.9l-22.1 104.4h-14.9zm21.5-86.6h-14.9l-1.9 9h14.9l-16 74.6h9l21-98.5h-9zm26.5 71.6 3.3-14.9h14.9l-3.3 14.9zm3.7-3h9l1.8-9h-9zm5.8-41.8 6.4-29.9h14.9l-6.3 29.9zm2.2 59.7 3.1-14.9h44.8l-3.1 14.9h-44.7zm1.5-62.7h9l5.1-23.9h-9zm2.1 59.7h38.8l1.9-9h-38.7zm6-41.8 3.1-14.9h44.8l-3.1 14.9zm3.6-3h38.8l1.9-9h-38.7zm6-41.8 3.1-14.9h44.8l-3.1 14.9zm3.6-3h38.8l1.9-9h-38.8zm25.2 77.6 6.4-29.9h14.9l-6.4 29.9zm3.7-3h9l5.1-23.9h-9zm9.1-56.7 3.1-14.9h14.9l-3 15h-15zm3.6-3h9l1.9-9h-9zm990.4-285.9v-43.2h21.6v43.2zm4.3-4.3h13v-34.6h-13zm4.3-4.3v-25.9h4.4v25.9h-4.3zm13 51.9v-43.3h21.6v43.2h-21.6zm4.3-4.3h13v-34.6h-13zm4.3-4.3v-26h4.3v25.9h-4.3zm13 73.5v-64.9h21.6v64.9zm4.3-4.3h13v-56.3h-13v56.2zm4.3-4.3v-47.7h4.3v47.6h-4.3zm13-56.2v-43.4h21.6v43.2h-21.5zm4.3-4.3h13v-34.7h-13v34.6zm4.3-4.3v-26.1h4.3v25.9h-4.3zm13-34.6v-43.4h21.6v43.2h-21.5zm4.3-4.3h13v-34.8h-13v34.6zm4.3-4.3v-26.1h4.3v25.9h-4.3zm45.5 94.9v-108.1h21.6v108.1zm4.3-4.3h13v-99.4h-13v99.5zm4.3-4.3v-90.8h4.3v90.8zm13-99.5v-21.6h64.9v21.6h-64.8zm0 129.7v-21.6h64.9v21.6h-64.8zm4.3-134.1h56.2v-13h-56.1v13zm0 129.7h56.2v-13h-56.1v13zm4.3-134.1v-4.3h47.6v4.3h-47.5zm0 129.7v-4.3h47.6v4.3h-47.5zm56.2-13v-107.9h21.6v108.1h-21.5zm4.3-4.3h13v-99.2h-13v99.5zm4.3-4.3v-90.6h4.5v90.8h-4.3zm56.4 8.8v-129.7h21.6v129.7zm4.3-4.3h13v-121.1h-13zm4.3-4.3v-112.4h4.3v112.4zm13 30.3v-21.7h64.9v21.6h-64.9zm4.3-4.3h56.2v-13h-56.2zm4.3-4.3v-4.3h47.6v4.3h-47.5zm56.2-13v-129.8h21.7v129.7h-21.6zm4.3-4.3h13v-121.2h-13v121.1zm4.3-4.3v-112.5h4.3v112.4h-4.2zm-386.9 199.1v-133.3h22.2v133.3zm4.4-4.4h13.3v-124.5h-13.3zm4.4-4.4v-115.6h4.4v115.5h-4.4zm13.4 31.1v-22.3h22.2v22.3zm4.4-4.4h13.4v-13.4h-13.3v13.3zm4.4-4.4v-4.4h4.4v4.4zm13.3-13.3v-44.6h22.2v44.4h-22.1zm4.4-4.4h13.3v-35.8h-13.1v35.6zm4.4-4.4v-26.9h4.4v26.7h-4.4zm13.6 30.9v-22.3h22.2v22.3zm4.4-4.4h13.3v-13.4h-13.3v13.3zm4.4-4.4v-4.4h4.5v4.4h-4.4zm13.3-13.3v-133.5h22.2v133.3h-22.1zm4.4-4.4h13.3v-124.7h-13.2v124.5zm4.4-4.4v-115.8h4.4v115.5h-4.4zm58 30.9v-155.6h22.2v155.6zm4.4-4.4h13.3v-146.8h-13.3v146.7zm4.4-4.4v-137.9h4.4v137.8h-4.4zm102.3-124.6v22.2h-22.3v111.2h-22.2v-155.6h22.2v22.2h22.2zm-40 128.9h13.3v-111.1h22.2v-13.3h-22.2v-22.3h-13.3zm31.1-120v4.5h-22.2v111.1h-4.4v-137.8h4.4v22.2zm8.9 35.6v-22.3h22.2v22.2h-22.2zm4.4-4.4h13.3v-13.4h-13.3v13.3zm4.4-4.4v-4.4h4.5v4.4h-4.4zm35.6 97.7v-66.7h-22.2v-22.2h22.2v-66.7h22.2v155.6zm4.4-84.4h-22.2v13.3h22.2v66.7h13.3v-146.8h-13.2v66.7zm4.4 75.6v-66.8h-22.1v-4.4h22.2v-66.7h4.4v137.8h-4.4zm57.9-35.7v-111.1h22.2v111.1zm0 44.4v-22.2h22.2v22.3h-22.2zm4.4-48.9h13.3v-102.2h-13.3v102.3zm0 44.4h13.3v-13.2h-13.3v13.3zm4.4-48.9v-93.2h4.4v93.3h-4.4zm0 44.4v-4.4h4.4v4.4zm-378.6 57.7v16h24v8h-8v8h-8v-8h-8v24h-8v-56h32v8zm-6.4 46.4h4.8v-24h11.2v8h4.8v-8h8v-4.8h-24v-19.2h24v-4.8h-28.8zm3.2-49.6v22.4h24v1.6h-8v8h-1.6v-8h-14.4v24h-1.6v-49.6h25.6v1.6zm19.2 43.2v-8h8v8zm1.6-1.6h4.8v-4.8h-4.8zm1.6-1.6v-1.6h1.6v1.6zm4.8-20.8v-16h8v16zm0 32v-8h8v8zm1.6-33.6h4.8v-12.8h-4.8zm0 32h4.8v-4.8h-4.8zm1.6-33.6v-9.6h1.6v9.6zm0 32v-1.6h1.6v1.6zm52.8 3.2v-16h-24v16h-8v-48h8v24h24v-24h8v48zm1.6-22.4h-27.2v-24h-4.8v44.8h4.8v-16h27.2v16h4.8v-44.8h-4.8zm1.6 19.2v-16h-30.4v16h-1.6v-41.6h1.6v24h30.4v-24h1.6v41.6zm-27.2-44.8v-8h24v8zm1.6-1.6h20.8v-4.8h-20.8zm1.6-1.6v-1.6h17.6v1.6zm60.8 3.2v8h-8v40h-8v-56h8v8zm-14.4 46.4h4.8v-40h8v-4.8h-8v-8h-4.8zm11.2-43.2v1.6h-8v40h-1.6v-49.6h1.6v8zm3.2 12.8v-8h8v8zm1.6-1.6h4.8v-4.8h-4.8zm1.6-1.6v-1.6h1.6v1.6zm12.8 35.2v-24h-8v-8h8v-24h8v56zm1.6-30.4h-8v4.8h8v24h4.8v-52.8h-4.8zm1.6 27.2v-24h-8v-1.6h8v-24h1.6v49.6zm44.8-28.8v8h-16v24h-8v-56h8v24zm-22.4 30.4h4.8v-24h16v-4.8h-16v-24h-4.8zm19.2-27.2v1.6h-16v24h-1.6v-49.6h1.6v24zm3.2-3.2v-8h8v8zm0 16v-8h8v8zm1.6-17.6h4.8v-4.8h-4.8zm0 16h4.8v-4.8h-4.8zm1.6-17.6v-1.6h1.6v1.6zm0 16v-1.6h1.6v1.6zm4.8-20.8v-16h8v16zm0 40v-16h8v16zm1.6-41.6h4.8v-12.8h-4.8zm0 40h4.8v-12.8h-4.8zm1.6-41.6v-9.6h1.6v9.6zm0 40v-9.6h1.6v9.6zm84.8-36.8v8h-8v8h8v8h-8v16h-8v-16h-8v16h-8v-16h-8v-8h8v-8h-8v-8h8v-16h8v16h8v-16h8v16zm-14.4 1.6h-11.2v-16h-4.8v16h-8v4.8h8v11.2h-8v4.8h8v16h4.8v-16h11.2v16h4.8v-16h8v-4.8h-8v-11.2h8v-4.8h-8v-16h-4.8zm11.2 1.6v1.6h-8v14.4h8v1.6h-8v16h-1.6v-16h-14.4v16h-1.6v-16h-8v-1.6h8v-14.4h-8v-1.6h8v-16h1.6v16h14.4v-16h1.6v16zm-24 16h14.4v-14.4h-14.4zm1.6-1.6v-11.2h11.2v11.2zm1.6-1.6h8v-8h-8zm40-8v-16h8v16zm0 24v-8h8v8zm1.6-25.6h4.8v-12.8h-4.8zm0 24h4.8v-4.8h-4.8zm1.6-25.6v-9.6h1.6v9.6zm0 24v-1.6h1.6v1.6zm4.8-36.8v-8h24v8zm24 40v-16h-24v-8h24v-16h8v40zm-24 8v-8h24v8zm1.6-49.6h20.8v-4.8h-20.8zm24 19.2h-24v4.8h24v16h4.8v-36.8h-4.8zm-24 28.8h20.8v-4.8h-20.8zm1.6-49.6v-1.6h17.6v1.6zm24 40v-16h-24v-1.6h24v-16h1.6v33.6zm-24 8v-1.6h17.6v1.6zm44.8-36.8v-8h8v8zm40 32v8h-40v-16h8v8zm-38.4-33.6h4.8v-4.8h-4.8zm0 40h36.8v-4.8h-32v-8h-4.8zm1.6-41.6v-1.6h1.6v1.6zm33.6 38.4v1.6h-33.6v-9.6h1.6v8zm-28.8-43.2v-8h24v8zm0 32v-8h8v8zm1.6-33.6h20.8v-4.8h-20.8zm0 32h4.8v-4.8h-4.8zm1.6-33.6v-1.6h17.6v1.6zm0 32v-1.6h1.6v1.6zm4.8-4.8v-8h16v8zm1.6-1.6h12.8v-4.8h-12.8zm1.6-1.6v-1.6h9.6v1.6zm12.8-4.8v-16h8v16zm1.6-1.6h4.8v-12.8h-4.8zm1.6-1.6v-9.6h1.6v9.6zm937.7-386.3v-22.4h11.2v22.4zm2.2-2.2h6.7v-18h-6.7zm9 24.7v-22.5h11.2v22.4h-11.2zm2.2-2.2h6.7v-18h-6.7zm9 35.9v-33.7h11.2v33.7h-11.1zm2.2-2.2h6.7v-29.3h-6.7v29.2zm9-31.4v-22.6h11.2v22.4h-11.1zm2.2-2.2h6.7v-18h-6.7zm9-20.2v-22.6h11.3v22.4h-11.2zm2.2-2.2h6.7v-18h-6.6v18zm42.8-9.2v22.4h33.7v11.2h-33.7v22.5h44.8v11.2h-56v-78.5h56.1v11.2zm-9 65.1h51.5v-6.7h-44.8v-27h33.7v-6.7h-33.7v-26.9h44.9v-6.7h-51.6zm121.2 2.2v-22.4h-33.7v22.4h-11.2v-67.3h11.2v33.7h33.7v-33.7h11.2v67.3zm2.2-31.4h-38.1v-33.6h-6.7v62.8h6.7v-22.4h38.1v22.4h6.7v-62.8h-6.7v33.7zm-35.9-35.9v-11.2h33.7v11.2zm2.2-2.2h29.2v-6.7h-29.1v6.7zm76.4 2.2v22.4h33.7v11.2h-11.3v11.2h-11.2v-11.1h-11.2v33.7h-11.3v-78.6h44.9v11.2zm-9 65.1h6.7v-33.7h15.7v11.2h6.8v-11.2h11.2v-6.7h-33.7v-26.9h33.7v-6.7h-40.4zm31.4-9v-11.2h11.2v11.2zm2.2-2.2h6.7v-6.8h-6.7v6.7zm9-31.4v-22.5h11.2v22.4h-11.2zm0 44.9v-11.3h11.2v11.2h-11.2zm2.2-47.1h6.7v-18h-6.7zm0 44.9h6.7v-6.7h-6.7v6.6zm65.2-54v-11.2h11.2v11.2zm56 44.9v11.2h-56v-22.4h11.2v11.2h44.9zm-53.8-47.1h6.7v-6.7h-6.7zm0 56.1h51.6v-6.7h-44.9v-11.3h-6.7zm9-65.1v-11.2h33.7v11.2zm0 44.9v-11.2h11.2v11.2zm2.2-47.1h29.2v-6.7h-29.2zm0 44.9h6.7v-6.7h-6.7zm9-9v-11.2h22.4v11.2zm2.2-2.2h18v-6.7h-18zm20.2-9v-22.5h11.2v22.4h-11.2zm2.2-2.2h6.7v-18h-6.7zm31.5 35.8v-56.1h11.2v56.1zm2.2-2.2h6.7v-51.6h-6.7zm9-53.9v-11.2h33.7v11.2zm0 67.3v-11.2h33.7v11.2zm2.2-69.6h29.2v-6.7h-29.1v6.7zm0 67.3h29.2v-6.7h-29.1v6.8zm9-31.4v-11.1h11.3v11.2h-11.3zm2.2-2.2h6.7v-6.7h-6.6v6.7zm20.3 24.7v-56.1h11.2v56.1zm2.2-2.2h6.7v-51.6h-6.7zm31.4-42.7v-11.2h11.2v11.2zm56.1 44.9v11.2h-56.1v-22.4h11.2v11.2zm-53.9-47.1h6.7v-6.7h-6.7zm0 56.1h51.6v-6.7h-44.8v-11.3h-6.7v18zm9-65.1v-11.2h33.7v11.2h-33.6zm0 44.9v-11.2h11.2v11.2h-11.1zm2.2-47.1h29.2v-6.7h-29.1v6.7zm0 44.9h6.8v-6.7h-6.7v6.7zm9-9v-11.2h22.4v11.2h-22.3zm2.2-2.2h18v-6.7h-18zm20.2-9v-22.5h11.2v22.4h-11.1zm2.2-2.2h6.7v-18h-6.5v18zm42.8-20.3v22.4h-11.2v-33.6h56.1v11.2zm-11.2 56.1v-11.2h11.2v11.2zm2.2-35.9h6.7v-22.4h44.9v-6.7h-51.6v29.2zm0 33.7h6.7v-6.8h-6.7v6.7zm9-20.2v-11.2h33.7v11.2zm0 33.7v-11.3h33.7v11.2h-33.7zm2.2-35.9h29.2v-6.7h-29.2zm0 33.7h29.2v-6.7h-29.2v6.6zm31.4-9v-22.5h11.2v22.4h-11.2zm2.2-2.2h6.7v-18h-6.7zm-280.3 144.2 1-4.7h4.7l-1 4.7zm3.7 4.7 1-4.7h14.2l1-4.7h-14.1l1-4.7h14.2l1-4.7h4.7l-4 19h-19zm4-19 1-4.7h14.2l-1 4.7h-14.1zm25.5 14.3 6.1-28.4h4.7l-6.1 28.4zm3.7 4.7 1-4.7h4.7l-1 4.7zm31.1-23.6-1 4.7h-9.5l-3 14.2h-4.7l6.1-28.4h4.7l-2 9.5h9.5zm-14.5 23.7 1-4.7h9.5l-1 4.7zm40.9-14.2-1 4.7h-14.2l-1 4.7h-4.7l3-14.2h4.7l-1 4.7h14.2zm-17.3 14.2 1-4.7h14.2l-1 4.7h-14.1zm4-19 1-4.7h14.2l-1 4.7h-14.1zm13.2 4.7 1-4.7h4.7l-1 4.7zm22.5-4.7-1 4.7h-4.7l-3 14.2h-4.7l5-23.7h4.7l-1 4.7h4.7zm0 0 1-4.7h9.5l-1 4.7zm12 19 4.1-19h4.7l-4.1 19zm8.8-19 1-4.7h14.2l-1 4.7zm10.1 19 4.1-19h4.7l-4.1 19zm13-4.8 1-4.7h4.7l-1 4.7zm3.7 4.7 1-4.7h14.2l1-4.7h-14.2l1-4.7h14.2l1-4.7h4.7l-4 19h-19zm4-19 1-4.7h14.2l-1 4.7zm43.7-4.6-1 4.7h-9.5l-3 14.2h-4.7l6.1-28.4h4.7l-2 9.5h9.5zm-14.5 23.7 1-4.7h9.5l-1 4.7zm18.9 0 5.1-23.7h4.7l-5.1 23.7zm6.1-28.4 1-4.7h4.7l-1 4.7zm10.2 18.9 3-14.2h4.7l-3 14.2zm3.7 4.7 1-4.7h4.7l-1 4.7zm3.7 4.7 1-4.7h4.7l-1 4.7zm5.7-4.7 1-4.7h4.7l-1 4.7zm5.8-4.7 3-14.2h4.7l-3 14.2zm31.9-4.7-1 4.7h-14.2l-1 4.7h-4.7l3-14.2h4.7l-1 4.7h14.2zm-17.3 14.2 1-4.7h14.2l-1 4.7zm4-19 1-4.7h14.2l-1 4.7zm13.2 4.7 1-4.7h4.7l-1 4.7zm-140.4-37.6 5.1-23.7h4.7l-5 23.7h-4.7zm6.1-28.4 1-4.7h4.7l-1 4.7zm8.1 28.4 4.1-19h4.7l-4.1 19zm8.8-19 1-4.7h14.2l-1 4.7h-14.1zm10.1 19 4.1-19h4.7l-4.1 19zm47.8-23.7-1 4.7h-9.5l-3 14.2h-4.7l6.1-28.4h4.7l-2 9.5h9.5zm-14.5 23.7 1-4.7h9.5l-1 4.7zm32.5-19-1 4.7h-4.7l-3 14.2h-4.7l7.1-33.2h4.7l-3 14.2h4.7zm0 0 1-4.7h9.5l-1 4.7zm5.5 19 4-19h4.7l-4 19zm36.1-14.2-1 4.7h-14.2l-1 4.7h-4.7l3-14.2h4.7l-1 4.7h14.2zm-17.2 14.2 1-4.7h14.2l-1 4.7zm4-19 1-4.7h14.2l-1 4.7zm13.2 4.7 1-4.7h4.7l-1 4.7zm-185.5 99.1-1 4.7h-4.7l-3 14.2h-4.7l5-23.7h4.7l-1 4.7h4.7zm0 0 1-4.7h9.5l-1 4.7zm34.5 4.8-1 4.7h-14.3l-1 4.7h-4.7l3-14.2h4.7l-1 4.7h14.2zm-17.3 14.2 1-4.7h14.2l-1 4.7zm4-19 1-4.7h14.2l-1 4.7h-14.1zm13.2 4.7 1-4.7h4.7l-1 4.7zm7.5 9.5 1-4.7h4.7l-1 4.7zm3.7 4.7 1-4.7h14.2l1-4.7h-14.1l1-4.7h14.2l1-4.7h4.7l-4 19h-19zm4-19 1-4.7h14.2l-1 4.7h-14.1zm25.5 14.3 6.1-28.4h4.7l-6 28.4h-4.7zm3.7 4.7 1-4.7h4.7l-1 4.7zm11.9.1 5.1-23.7h4.7l-5.1 23.7zm6.1-28.4 1-4.7h4.7l-1 4.7zm27.4 4.7-1 4.7h-9.5l-3 14.2h-4.7l6.1-28.4h4.7l-2 9.5h9.5zm-14.5 23.7 1-4.7h9.5l-1 4.7zm20-4.8 4-19h4.7l-4 19zm1.7 14.2 1-4.7h14.2l-1 4.7zm15.3-4.7 1-4.7h-14.3l1-4.7h14.2l4-19h4.7l-6 28.4h-4.7zm15.1-4.7 1-4.7h4.7l-1 4.7zm11.9 0 1-4.7h4.7l-1 4.7zm11.8 0 1-4.7h4.7l-1 4.7zm-627.7 135.9h-6.1v-6.1h6.1zm0 36.6h-6.1v-6.1h6.1zm6.1-30.5h-6.1v-6.1h6.1zm0 24.4h-6.1v-6.1h6.1zm6.1-18.3h-6.1v-6.1h6.1zm0 12.2h-6.1v-6.1h6.1zm6.1-6.1h-6.1v-6.1h6.1zm30.5 18.3v-6.1h6.1v6.1zm15.2 0v-6.1h6.1v6.1zm15.2 0v-6.1h6.1v6.1zm42.7 0v-18.3h-18.3v18.3h-6.1v-42.7h6.1v18.3h18.3v-18.3h6.1v42.7zm42.7-18.3v6.1h-18.3v6.1h-6.1v-18.3h6.1v6.1zm-18.3-6.1v-6.1h18.3v6.1zm0 24.4v-6.1h18.3v6.1zm18.3-18.3v-6.1h6.1v6.1zm15.2 12.2v-36.6h6.1v36.6zm6.1 6.1v-6.1h6.1v6.1zm15.2-6.1v-36.6h6.1v36.6zm6.1 6.1v-6.1h6.1v6.1zm15.3-6.1v-18.3h6.1v18.3zm6.1-18.3v-6.1h18.3v6.1zm0 24.4v-6.1h18.3v6.1zm18.3-6.1v-18.3h6.1v18.3zm12.1-24.4v-6.1h6.1v6.1zm6.1-6.1v-6.1h12.2v6.1zm6.1 18.3v6.1h-6.1v-12.2h12.2v6.1zm-6.1 18.3v-6.1h6.1v6.1zm12.2-24.4v-12.2h6.1v12.2zm1113.7-337.8v-65.5h13.1v65.4h-13.1zm3.9-3.9h5.2v-57.6h-5.2zm9.2-61.5v-13.2h39.3v13.1h-39.3zm0 78.5v-13.1h39.3v13.1zm3.9-82.4h31.4v-5.2h-31.4zm0 78.5h31.4v-5.3h-31.4v5.2zm35.3-9.2v-26.2h-13v-13.1h26.2v39.3zm-9.1-30.1h13.1v26.2h5.2v-31.5h-18.3zm9.2-22.2v-13.2h13.1v13.1h-13.2zm3.9-3.9h5.2v-5.2h-5.2zm87.6 30v13.1h-39.2v13.1h-13.1v-39.3h13.1v13.1h39.3zm-48.4 22.2h5.2v-13.1h39.3v-5.2h-39.3v-13.1h-5.2zm9.2-35.3v-13.1h39.3v13.1zm0 52.3v-13h39.3v13.1h-39.3zm3.9-56.3h31.4v-5.2h-31.4zm0 52.3h31.4v-5.1h-31.4v5.2zm35.3-35.3v-13h13.1v13.1h-13.1zm3.9-3.9h5.2v-5.2h-5.2v5.3zm28.8 30.2v-39.3h13.1v39.3zm3.9-3.9h5.2v-31.5h-5.2v31.4zm9.2-35.3v-13.2h39.3v13.1h-39.3zm0 52.3v-13.1h39.3v13.1zm3.9-56.3h31.4v-5.2h-31.4zm0 52.3h31.4v-5.2h-31.4zm35.3-9.2v-39.2h13.1v39.3h-13zm3.9-3.9h5.2v-31.4h-5.2zm35.4 17v-52.3h13.1v52.3zm3.9-3.9h5.2v-44.5h-5.2zm9.2-48.4v-13.1h26.2v13.1zm3.9-3.9h18.3v-5.2h-18.3zm22.2 56.3v-52.4h13.1v52.3h-13zm3.9-3.9h5.2v-44.6h-5.2v44.5zm9.2-48.4v-13.2h26.2v13.1h-26.1zm3.9-3.9h18.3v-5.2h-18.2v5.2zm22.2 56.3v-52.5h13.1v52.3h-13zm3.9-3.9h5.2v-44.7h-5.2v44.5zm87.8-35.5v13.1h-39.2v13.1h-13.1v-39.3h13.1v13.1h39.3zm-48.4 22.2h5.2v-13.1h39.3v-5.2h-39.3v-13.1h-5.2zm9.2-35.3v-13.1h39.3v13.1zm0 52.3v-13h39.3v13.1h-39.3zm3.9-56.3h31.4v-5.2h-31.4zm0 52.3h31.4v-5.1h-31.4v5.2zm35.3-35.3v-13h13.1v13.1h-13.1zm3.9-3.9h5.2v-5.2h-5.2v5.3zm68.1-22.2v13.1h-26.2v39.3h-13.1v-78.6h13.1v26.2zm-35.3 48.4h5.2v-39.2h26.2v-5.2h-26.2v-26.2h-5.2v70.7zm9.2 17v-13h26.2v13.1h-26.3zm3.9-3.9h18.3v-5.2h-18.4v5.2zm74.5-48.4v13.1h-13.1v39.3h-13.1v-65.5h13.1v13.1zm-22.2 48.4h5.2v-39.2h13.1v-5.2h-13.1v-13.2h-5.2zm22.2-48.4v-13.1h26.2v13.1zm3.9-3.9h18.3v-5.2h-18.3zm41.9-22.3v-13.1h13.1v13.1zm0 78.5v-65.4h13.1v65.4zm3.9-82.4h5.2v-5.2h-5.2zm0 78.5h5.2v-57.6h-5.2zm35.4-9.1v-39.3h13.1v39.3zm3.9-3.9h5.2v-31.5h-5.2v31.4zm9.2-35.3v-13.2h39.2v13.1h-39.3zm0 52.3v-13.1h39.2v13.1h-39.3zm3.9-56.3h31.4v-5.2h-31.4zm0 52.3h31.4v-5.2h-31.4zm-664.7 102.1 6.8-31.9h10.6l-6.8 31.9zm3.9-3.2h4.3l5.4-25.5h-4.3zm4.5 13.8 2.2-10.6h31.9l-2.2 10.7h-31.9zm3.8-3.2h25.5l1-4.3h-25.5zm5.2-39.4 2.2-10.6h31.9l-2.2 10.6zm3.8-3.2h25.5l1-4.3h-25.5zm42.6 35.2 6.8-31.9h10.6l-6.8 31.9zm3.9-3.2h4.3l5.4-25.5h-4.3zm4.5 13.8 2.2-10.6h31.9l-2.2 10.7h-31.9zm3.8-3.2h25.5l1-4.3h-25.5zm5.2-39.4 2.2-10.6h31.9l-2.2 10.6h-31.8zm3.8-3.2h25.5l1-4.3h-25.4zm21.3 35.1 6.8-31.9h10.6l-6.7 32h-10.6zm3.9-3.2h4.3l5.4-25.5h-4.3zm25.8 14 9.1-42.6h10.6l-9.1 42.6zm3.9-3.2h4.3l7.7-36.2h-4.3zm15.9-39.4 2.2-10.6h21.3l-2.3 10.6h-21.3zm3.8-3.2h14.9l.9-4.3h-15zm8.3 45.7 9.1-42.6h10.6l-9.1 42.7h-10.6zm3.9-3.2h4.3l7.7-36.2h-4.3zm15.9-39.4 2.2-10.6h21.3l-2.2 10.6zm3.8-3.2h14.9l.9-4.3h-15zm8.3 45.7 9.1-42.6h10.6l-9.1 42.8h-10.6zm3.9-3.2h4.3l7.7-36.2h-4.3zm47.8-39.2-6.8 31.9h31.9l-2.2 10.7h-32l-4.4 21.3h-10.7l15.7-74.5h42.6l-2.2 10.6zm-20.3 60.6h4.3l4.6-21.3h31.9l.9-4.3h-32.1l8.2-38.3h32l.9-4.3h-36.3zm45.4-28.7 6.8-31.9h10.6l-6.8 31.9zm3.9-3.2h4.3l5.4-25.5h-4.2zm56.1-28.7-2.2 10.6h-10.7l-6.8 32h-10.6l11.3-53.2h10.6l-2.2 10.6zm-26.5 39.4h4.3l6.8-31.9h10.6l1-4.3h-10.7l2.2-10.6h-4.3zm26.5-39.4 2.2-10.6h21.3l-2.2 10.6zm3.8-3.2h14.9l1-4.3h-14.9zm73.7 13.9-2.3 10.6h-31.9l-2.2 10.6h-10.7l6.8-31.9h10.6l-2.2 10.6h31.9zm-43.1 18h4.3l2.2-10.6h31.9l.9-4.3h-32l2.3-10.6h-4.3zm4.5 13.8 2.2-10.6h31.9l-2.3 10.7h-31.9zm3.8-3.2h25.5l1-4.3h-25.6zm5.2-39.4 2.2-10.6h31.9l-2.2 10.6zm3.8-3.2h25.5l1-4.3h-25.5zm25.9 13.8 2.2-10.6h10.6l-2.2 10.6h-10.7zm3.8-3.2h4.3l1-4.3h-4.3zm15.9 35.3 2.2-10.6h31.9l-2.1 10.6zm3.9-3.2h25.5l.9-4.3h-25.5zm2.9-28.7 2.2-10.6h10.6l-2.2 10.6zm3.8-3.2h4.3l1-4.3h-4.3zm4.6 13.8 2.2-10.6h21.3l-2.2 10.6zm3.8-3.2h14.9l1-4.3h-14.9zm.6-18.1 2.3-10.6h31.9l-2.3 10.6h-31.8zm3.9-3.2h25.5l.9-4.3h-25.4zm10.5 35.1 2.3-10.6h10.6l-2.3 10.6h-10.4zm3.9-3.2h4.3l.9-4.3h-4.3zm26.1 13.9 2.2-10.6h31.9l-2.2 10.6zm3.9-3.2h25.5l.9-4.3h-25.5zm2.9-28.7 2.2-10.6h10.6l-2.2 10.6zm3.8-3.2h4.3l1-4.3h-4.3zm4.6 13.8 2.2-10.6h21.3l-2.2 10.6zm3.8-3.2h14.9l1-4.3h-14.9zm.6-18.1 2.3-10.6h31.9l-2.3 10.6h-31.8zm3.9-3.2h25.6l.9-4.3h-25.6zm10.6 35.1 2.3-10.6h10.7l-2.3 10.6zm3.9-3.2h4.3l.9-4.3h-4.3zm75.3-18-2.3 10.6h-32l-2.2 10.6h-10.7l6.8-31.9h10.6l-2.2 10.6h31.9zm-43.2 18h4.3l2.2-10.6h31.9l.9-4.3h-32l2.3-10.6h-4.3zm4.5 13.8 2.2-10.6h31.9l-2.2 10.7h-32zm3.8-3.2h25.5l1-4.3h-25.6zm5.2-39.4 2.2-10.6h31.9l-2.2 10.6zm3.8-3.2h25.5l1-4.3h-25.5zm25.9 13.8 2.2-10.6h10.6l-2.2 10.6zm3.8-3.2h4.3l1-4.3h-4.3zm18.2 24.6 6.8-31.9h10.6l-6.8 31.9zm3.9-3.2h4.3l5.4-25.5h-4.3zm4.5 13.8 2.2-10.6h31.9l6.8-31.9h-31.9l2.2-10.6h31.9l4.6-21.3h10.7l-15.9 74.5h-42.6zm45.7-50h-31.9l-1 4.3h31.9l-8.1 38.3h-31.9l-1 4.3h36.2l14.5-68.1h-4.3zm-677.2 110.9v20.3h30.4v10.1h-30.4v20.3h40.5v10.1h-50.6v-71h50.7v10.1h-40.6zm-7.1 57.8h44.5v-4.1h-40.4v-26.3h30.4v-4.1h-30.4v-26.4h40.6v-4.1h-44.7v64.9zm62.9-37.5v-30.5h10.1v30.4h-10.1zm3-3h4.1v-24.4h-4v24.3zm7.1 23.3v-20.3h10.1v20.3h-10zm3-3h4.1v-14.3h-4.1v14.2zm7.1 23.3v-20.4h10.1v20.3h-10zm3-3h4.1v-14.3h-4.1v14.2zm7.1-17.2v-20.4h10.1v20.3h-9.9zm3-3h4.1v-14.4h-4.1v14.2zm7.1-17.2v-30.7h10.1v30.4h-9.9zm3-3h4.1v-24.6h-4.1v24.3zm37.8-17.5v20.3h30.4v10.1h-30.4v20.3h40.5v10.1h-50.6v-71h50.7v10.1h-40.6zm-7.1 57.8h44.5v-4.1h-40.4v-26.3h30.4v-4.1h-30.4v-26.4h40.6v-4.1h-44.7v64.9zm78.1-57.8v20.3h30.4v10.1h-10.1v10.1h-10.1v-10.1h-10.2v30.4h-10.1v-71h40.6v10.1h-30.5zm-7.1 57.8h4.1v-30.4h16.2v10.1h4.1v-10.1h10.1v-4.1h-30.4v-26.4h30.4v-4.1h-34.5v64.9zm27.4-7.1v-10.2h10.1v10.1h-10.1zm3-3h4.1v-4.1h-4.1zm7.1-27.4v-20.3h10.1v20.3h-10zm0 40.6v-10.2h10.1v10.1h-10zm3-43.6h4.1v-14.3h-4.1v14.2zm0 40.6h4.1v-4.1h-4.1zm78.2-7.2v10.1h-50.7v-71h10.1v60.9zm-47.7 7.1h44.6v-4.1h-40.5v-60.8h-4.1zm103.5 3v-20.3h-30.4v20.3h-10.2v-60.8h10.1v30.4h30.4v-30.4h10.1v60.9h-10zm3-27.4h-36.5v-30.4h-4v54.8h4v-20.3h36.5v20.3h4.1v-54.8h-4.1zm-33.5-33.5v-10.1h30.4v10.1h-30.3zm3-3h24.3v-4.1h-24.2v4.1zm57.9 23.4v-20.3h10.1v20.3zm0 30.4v-10.2h10.1v10.1h-10.1zm3-33.5h4.1v-14.2h-4v14.2zm0 30.4h4.1v-4.1h-4v4.1zm7.1-47.7v-10.1h30.4v10.1h-30.3zm0 30.4v-10h30.4v10.1h-30.3zm0 30.4v-10h30.4v10.1h-30.3zm3-63.9h24.3v-4.1h-24.2v4.1zm0 30.4h24.3v-4.1h-24.2v4.1zm0 30.4h24.3v-4.1h-24.2v4.1zm27.4-47.7v-9.9h10.1v10.1h-10zm0 40.6v-20.1h10.1v20.3h-10zm3-43.6h4.1v-4.1h-4.1zm0 40.6h4.1v-14.1h-4.1v14.2zm52.9-47.5v60.9h-10.1v-60.9h-20.3v-10.2h50.7v10.1h-20.3zm-27.4-3h20.3v60.9h4.1v-61h20.3v-4.1h-44.7v4.1zm62.9 63.8v-71h10.2v71zm3-3h4.1v-64.9h-4.1zm47.7-57.8v10.1h-10.1v50.7h-10.1v-71h10.1v10.1h10.1zm-17.2 57.8h4.1v-50.7h10.1v-4.1h-10.1v-10.1h-4.1zm17.2-37.5v-10.2h10.1v10.1h-10.1zm3-3h4.1v-4.1h-4.1v4zm17.2 43.6v-30.5h-10v-10.1h10.1v-30.5h10.2v71h-10.2zm3-37.5h-10v4.1h10.1v30.4h4.1v-65h-4.1v30.4zm27.6 27.3v-50.7h10.1v50.7zm3-3h4.1v-44.7h-4.1v44.6zm7.1-47.7v-10.2h30.4v10.1h-30.4zm0 60.9v-10.2h30.4v10.1h-30.4zm3-63.9h24.3v-4.1h-24.3zm0 60.9h24.3v-4.1h-24.3zm27.4-7.1v-20.4h-10.1v-10.1h20.3v30.4h-10.1zm-7.1-23.3h10.1v20.3h4.1v-24.5h-14.2v4.1zm7.1-17.2v-10.3h10.2v10.1h-10.1zm3-3h4.1v-4.1h-4.1zm-692.8 147.2 7.7-36.2h9l-7.7 36.2zm3.3-2.7h3.6l6.6-30.8h-3.6zm3.9 11.8 1.9-9h9l-1.9 9zm3.3-2.7h3.5l.8-3.6h-3.6zm3.9 11.8 1.9-9h36.2l-1.9 9h-36.3zm2.4-54.3 1.9-9h9l-1.9 9zm.8 51.6h30.8l.7-3.6h-30.8zm2.4-24.4 3.9-18.1h9l-3.9 18h-9zm.1-29.9h3.6l.7-3.6h-3.6zm3.3 27.1h3.6l2.7-12.7h-3.6zm41.9 2.7-1.9 9h-36.3l1.9-9h18.1l3.9-18.1h9l-3.9 18.1h9zm-37.6-36.2 2-9h36.2l-2 9zm21.6 38.9h-18.1l-.8 3.6h30.8l.8-3.6h-9l3.9-18.1h-3.6zm-18.3-41.7h30.8l.7-3.6h-30.7zm1.9 20.8 1.9-9h18.1l-1.9 9zm3.3-2.7h12.7l.8-3.6h-12.7zm25.8-6.3 1.9-9h9l-1.9 9zm3.3 27.1 5.8-27.1h9l-5.8 27.1zm.1-29.9h3.6l.7-3.6h-3.6zm3.3 27.1h3.6l4.6-21.7h-3.6zm65.8-24.3-2 9h-27.2l-5.8 27.1h27.1l-1.9 9h-36.1l13.5-63.2h9l-3.8 18.1h27.1zm-42.5 42.5h30.8l.7-3.6h-27.2l7-32.6h27.1l.7-3.6h-27.1l3.9-18.1h-3.6zm34.8-6.3 5.8-27.1h9l-5.8 27.1zm3.3-2.7h3.6l4.6-21.7h-3.6zm47.6-24.4-1.9 9h-9l-5.8 27.2h-9l9.6-45.2h9l-1.9 9zm-22.5 33.5h3.6l5.8-27.1h9l.8-3.6h-9l1.9-9h-3.6zm22.5-33.5 1.9-9h18.1l-1.9 9zm3.3-2.7h12.7l.8-3.6h-12.7zm22.6 29.8 7.7-36.2h9l-7.7 36.2zm3.3-2.7h3.6l6.5-30.8h-3.6zm3.8 11.8 1.9-9h27.1l-1.9 9h-27zm3.3-2.7h21.7l.8-3.6h-21.7zm25.8-6.3 7.7-36.2h9l-7.7 36.2zm3.3-2.7h3.6l6.5-30.8h-3.6zm21.9 11.7 7.8-36.2h9l-7.8 36.2zm3.3-2.7h3.6l6.5-30.8h-3.6zm13.5-33.5 1.9-9h18.1l-1.9 9zm3.3-2.7h12.7l.7-3.6h-12.7zm7.1 38.9 7.8-36.2h9l-7.8 36.2zm3.3-2.7h3.6l6.5-30.8h-3.6zm13.5-33.5 1.9-9h18.1l-1.9 9zm3.3-2.7h12.7l.7-3.6h-12.8zm7.1 38.9 7.8-36.2h9l-7.8 36.2zm3.3-2.7h3.6l6.5-30.8h-3.6zm21.2-6.4 2-9h9l-2 9zm3.3-2.7h3.6l.7-3.6h-3.5zm3.8 11.8 1.9-9h27.1l2-9h-27.1l1.9-9h27.2l1.9-9h9l-7.7 36.2h-36.2zm35.1-24.4h-27.1l-.8 3.6h27.1l-3 14.4h-27.2l-.7 3.6h30.8l6.5-30.8h-3.6zm-27.4-11.8 1.9-9h27.1l-1.9 9zm3.3-2.7h21.7l.7-3.6h-21.6zm45.2 29.8 11.6-54.3h9l-11.6 54.3zm3.3-2.7h3.6l10.3-48.9h-3.6zm3.8 11.8 1.9-9h9l-1.9 9zm3.3-2.7h3.6l.8-3.6h-3.6zm61.4-24.5-2 9h-27.1l-1.9 9h-9l5.8-27.1h9l-1.9 9h27.1zm-36.7 15.4h3.6l1.9-9h27.1l.7-3.6h-27.1l2-9h-3.6zm3.8 11.8 1.9-9h27.1l-1.9 9zm3.3-2.7h21.6l.8-3.6h-21.7zm4.4-33.5 1.9-9h27.1l-1.9 9zm3.3-2.7h21.7l.8-3.6h-21.8zm22 11.8 1.9-9h9l-1.9 9zm3.3-2.7h3.6l.8-3.6h-3.6zm8.9 29.8 1.9-9h9l-1.9 9zm3.3-2.7h3.6l.8-3.7h-3.6zm23.9 2.7 1.9-9h9l-1.9 9zm3.3-2.7h3.6l.8-3.6h-3.6zm4.4-33.5 1.9-9h9l-1.9 9zm3.3-2.7h3.5l.8-3.6h-3.6zm0 29.9 2-9h9l-2 9zm3.3-2.7h3.6l.7-3.6h-3.6zm.5-15.4 1.9-9h9l-1.9 9zm3.3-2.7h3.6l.8-3.6h-3.6zm3.9 11.8 1.9-9h9l-1.9 9zm3.3-2.7h3.6l.7-3.6h-3.6zm3.8 11.8 2-9h9l-2 9zm3.3-2.7h3.6l.7-3.6h-3.6zm.5-15.4 1.9-9h9l-1.9 9zm3.3-2.7h3.6l.8-3.6h-3.6zm0 29.9 1.9-9h9l-1.9 9zm3.3-2.7h3.6l.8-3.6h-3.6zm4.4-33.5 1.9-9h9l-1.9 9zm3.3-2.7h3.6l.8-3.6h-3.6zm18 29.6 7.7-36.2h9l-7.7 36.2zm3.3 27.1 2-9h27.1l-2 9zm.1-29.9h3.6l6.5-30.8h-3.6zm3.3 27.1h21.6l.7-3.6h-21.7zm25.8-6.3 1.9-9h-27.2l1.9-9h27.1l7.7-36.2h9l-11.5 54.3h-9zm6-15.4h-27.3l-.8 3.6h27.1l-1.9 9h3.7l10.4-48.9h-3.6zm70.1-2.6-1.9 9h-45.2l1.9-9h9l2-9h9l-2 9h27.1zm-34 2.7h-9l-.8 3.6h39.8l.8-3.6h-27.1l1.9-9h-3.6zm30.8-29.9-1.9 9h-9l1.9-9h-27.1l1.9-9h45.1l-1.9 9zm-32.9-2.7h27.1l-1.9 9h3.6l1.9-9h9l.8-3.6h-39.8zm11 20.8 1.9-9h9l-1.9 9zm3.3-2.7h3.6l.7-3.6h-3.6zm880.6-233.1v22.2h-22.2v22.2h22.2v22.2h-22.2v44.4h-22.2v-44.3h-22.3v44.4h-22.2v-44.4h-22.2v-22.2h22.2v-22.2h-22.2v-22.3h22.2v-44.4h22.2v44.4h22.2v-44.4h22.2v44.4h22.2zm-35.6 8.9h-40v-44.4h-4.4v44.4h-22.2v4.4h22.2v40h-22.2v4.4h22.2v44.4h4.4v-44.3h40v44.4h4.5v-44.4h22.2v-4.4h-22.2v-40h22.2v-4.4h-22.2v-44.5h-4.4v44.4zm-40 44.4v-40h40v40zm8.9-8.9h22.2v-22.1h-22.2v22.2zm133.4-66.6v44.4h66.7v22.2h-66.7v66.7h-22.2v-155.5h88.9v22.2zm-13.4 124.5h4.4v-66.7h66.7v-4.4h-66.6v-62.3h66.7v-4.4h-71.2zm80-80v-44.5h22.2v44.4h-22.2zm8.9-8.9h4.4v-26.7h-4.4zm46.7 75.5v-133.3h22.2v133.3zm8.9-8.9h4.4v-115.5h-4.4zm13.3 31.1v-22.2h22.2v22.2zm8.9-8.9h4.4v-4.4h-4.4zm35.6-13.3v-22.2h22.2v22.2zm8.9-8.9h4.4v-4.4h-4.4zm13.3-57.8v-22.2h66.7v22.2zm0 88.9v-22.2h66.7v-22.2h-66.7v-22.2h66.7v-22.2h22.2v88.9h-88.9zm8.9-97.8h48.9v-4.4h-48.9zm66.7 40h-66.7v4.4h66.7v40h-66.7v4.4h71.1v-70.9h-4.4v22.2zm57.7 35.6v-88.9h22.2v88.9zm8.9-8.9h4.4v-71.1h-4.4zm80 53.3v-22.1h-66.7v-22.3h66.7v-88.9h22.2v133.4h-22.2zm-66.7 22.3v-22.2h66.7v22.2zm75.6-57.8h-66.7v4.4h66.7v22.2h4.4v-115.5h-4.4zm-66.7 48.9h48.9v-4.4h-48.9zm124.5-80v-111.1h22.2v111.1zm0 44.4v-22.2h22.2v22.2zm8.9-53.3h4.4v-93.3h-4.4zm0 44.4h4.4v-4.4h-4.4zm903.3 150.2v-4.9h4.9v4.9zm19.5-9.8v4.9h-4.9v24.4h-4.9v-24.4h-4.9v-4.9h4.9v-4.9h4.9v4.9zm0 9.8v-4.9h4.9v4.9zm14.6 19.5v-4.9h4.9v4.9zm4.9-4.9v-4.9h4.9v4.9zm4.9-4.9v-4.9h4.9v4.9zm19.5-4.9v-9.8h-4.9v-4.8h-9.8v-4.9h19.5v19.5h-4.9zm-14.6 0v-4.9h4.9v4.9zm4.9-4.9v-4.9h4.9v4.9zm58.5.1v4.9h-4.9v4.9h-4.9v-4.9h-24.4v-4.9h24.4v-4.9h4.9v4.9zm-14.6-4.9v-4.9h4.9v4.9zm0 19.5v-4.9h4.9v4.9zm24.4-29.3h4.9v4.9h-4.9zm4.9 4.9h4.9v4.9h-4.9zm4.9 4.9h4.9v4.9h-4.9zm4.9 19.5h9.8v-4.9h4.9v-9.8h4.9v19.5h-19.7v-4.9zm0-14.6h4.9v4.9h-4.9zm4.9 4.9h4.9v4.9h-4.9zm24.3 0h4.9v4.9h-4.9zm9.8 9.8h-4.9v-4.9h4.9v-24.5h4.9v24.4h4.9v4.9h-4.9v4.9h-4.9v-4.9zm9.8-9.8h4.9v4.9h-4.9zm19.4-4.9v9.8h4.9v4.9h9.8v4.9h-19.6v-19.6zm9.8 4.9v4.9h-4.9v-4.9zm4.9-4.9v4.9h-4.9v-4.9zm4.9-4.9v4.9h-4.9v-4.9zm4.9-4.9v4.9h-4.9v-4.9zm4.9-4.9v4.9h-4.9v-4.9zm19.4 14.7h24.3v4.9h-24.3v4.9h-4.9v-4.9h-4.9v-4.9h4.9v-4.9h4.9zm4.9-4.9h-4.9v-4.9h4.9zm0 19.5h-4.9v-4.9h4.9zm48.7-24.4h-9.8v4.9h-4.9v9.8h-4.9v-19.6h19.5v4.9zm-4.9 9.8h-4.9v-4.9h4.9zm4.9 4.9h-4.9v-4.9h4.9zm4.9 4.9h-4.9v-4.9h4.9zm4.9 4.9h-4.9v-4.9h4.9zm4.9 4.9h-4.9v-4.9h4.9zm43.9-19.6v4.9h-4.9v4.9h-4.9v-4.9h-14.6v4.9h-4.9v-4.9h-4.9v-4.9h4.9v-4.9h4.9v4.9h14.6v-4.9h4.9v4.9zm-24.4-4.9v-4.9h4.9v4.9zm0 19.5v-4.9h4.9v4.9zm9.8-19.5v-4.9h4.9v4.9zm0 19.5v-4.9h4.9v4.9zm24.3-14.6v-4.9h4.9v4.9zm0 9.8v-4.9h4.9v4.9zm19.5-19.6v4.9h-4.9v14.6h4.9v4.9h-4.9v4.9h-4.9v-4.9h-4.9v-4.9h4.9v-14.6h-4.9v-4.9h4.9v-4.9h4.9v4.9zm0 9.8v-4.9h4.9v4.9zm0 9.8v-4.9h4.9v4.9zm-381.3-409.1v27.6h41.4v13.8h-41.4v27.6h41.4v13.8h-55.2v-96.6h55.2v13.8zm41.4 27.6v-27.6h13.8v27.6zm0 41.4v-27.6h13.8v27.6zm96.5 13.8v-27.6h-41.4v27.6h-13.7v-82.8h13.8v41.4h41.4v-41.4h13.8v82.8zm-41.4-82.8v-13.8h41.4v13.8zm82.8 27.6v-27.6h13.8v27.6zm0 41.4v-13.8h13.8v13.8zm13.8-69v-13.8h41.4v13.8zm0 41.4v-13.8h41.4v13.8zm0 41.4v-13.8h41.4v13.8zm41.4-69v-13.8h13.8v13.8zm0 55.2v-27.6h13.8v27.6zm41.4 13.8v-96.6h13.8v96.6zm41.3-13.8v-69h13.8v69zm13.8-69v-13.8h41.4v13.8zm0 82.8v-13.8h41.4v13.8zm41.4-69v-13.8h13.8v13.8zm0 55.2v-13.8h13.8v13.8zm-386.2 267 1.5-7.2h14.5l-1.5 7.2zm16-7.2 7.7-36.2h-7.2l1.6-7.2h14.5l-9.3 43.4zm21.7 0 6.1-28.9h7.2l-6.1 28.9zm5.7 7.2 1.5-7.2h21.7l-1.5 7.2zm23.2-7.2 6.1-28.9h7.3l-6.1 28.9h-7.2zm20.2 7.2 1.5-7.2h21.7l-1.5 7.2zm4.6-21.7 1.5-7.2h7.2l-1.5 7.2zm5.7 7.2 1.5-7.2h14.5l-1.5 7.2zm3-14.5 1.6-7.2h21.7l-1.6 7.2zm9.8 21.7 1.6-7.2h7.2l-1.6 7.2h-7.1zm49.7-28.8-1.5 7.2h-14.5l-4.6 21.7h-7.2l9.3-43.4h7.2l-3.1 14.5h14.5zm-22.1 36.2 1.5-7.2h14.5l-1.5 7.2zm59.3-7.3h-7.2l1.6-7.2h7.2zm4.6-21.7h-7.2l3.1-14.5h7.2zm24.8-14.5h-7.2l-3.1 14.5h7.2l-1.5 7.2h-7.2l-3.1 14.5h7.2l-1.5 7.2h-7.2l-1.5 7.2h-7.3l1.5-7.2h-7.2l1.5-7.2h7.2l3.1-14.5h-7.2l1.5-7.2h7.2l3.1-14.5h-7.2l1.5-7.2h7.2l1.5-7.2h7.2l-1.5 7.2h7.2zm-4.6 21.7h7.2l-3.1 14.5h-7.2zm4.6-21.7h7.2l-1.6 7.2h-7.2zm14.1 36.2 7.7-36.2h7.2l-7.7 36.2zm5.7 7.2 1.5-7.2h21.7l-1.5 7.2zm9.3-43.4 1.5-7.2h21.7l-1.5 7.2h-21.8zm2.6 21.7 1.5-7.2h7.2l-1.5 7.2zm11.4 14.5 7.7-36.2h7.2l-7.7 36.2zm16.5 7.2 1.5-7.2h7.2l-1.5 7.2zm19.6-7.2 7.7-36.2h7.2l-7.7 36.2zm5.7 7.2 1.5-7.2h21.7l-1.5 7.2zm9.3-43.4 1.5-7.2h21.7l-1.5 7.2zm2.6 21.7 1.5-7.2h7.2l-1.5 7.2zm11.4 14.5 7.7-36.2h7.2l-7.7 36.2zm21.7 0 7.7-36.2h7.2l-7.7 36.2zm5.7 7.2 1.5-7.2h21.7l-1.5 7.2zm9.3-43.4 1.5-7.2h21.7l-1.5 7.2zm2.6 21.7 1.5-7.2h7.2l-1.5 7.2zm11.3 14.5 7.7-36.2h7.3l-7.7 36.2zm-385-153.5v-30.8h15.4v30.8zm0 46.2v-30.8h15.4v30.8zm15.4-77v-15.4h30.8v15.4zm0 46.2v-15.4h30.8v15.4zm0 46.2v-15.5h30.8v15.4h-30.8zm30.8-61.5v-30.9h15.4v30.8h-15.4zm15.4 30.8v15.4h-15.4v-30.9h30.8v15.4h-15.5zm0 30.8v-15.6h15.4v15.4h-15.5zm15.4-46.2v-15.5h15.4v15.4h-15.5zm53.8-46.3v30.8h46.2v15.4h-46.2v46.2h-15.4v-107.8h76.9v15.4zm84.6 76.9v-92.3h15.4v92.3zm15.4 15.4v-15.4h46.2v15.4zm46.2-15.4v-92.3h15.4v92.3h-15.5zm76.8-76.9v15.4h-15.3v76.9h-15.4v-107.7h15.4v15.4h15.4zm0 30.8v-15.4h15.4v15.4zm30.8 61.5v-46.1h-15.4v-15.4h15.4v-46.2h15.4v107.7zm705.4-182.4v-19.3h9.7v19.3zm1.9-1.9h5.8v-15.5h-5.8zm7.7-17.4v-9.7h9.7v-9.7h9.7v19.3h-19.3zm0 29v-9.7h19.4v9.7h-19.3zm11.6-36.7h-9.7v5.8h15.5v-15.5h-5.8zm-9.7 34.8h15.5v-5.8h-15.4v5.8zm7.7-56v-9.7h9.8v9.7h-9.7zm1.9-1.9h5.9v-5.8h-5.8v5.8zm7.7 50.2v-9.7h9.7v9.7h-9.5zm1.9-1.9h5.8v-5.8h-5.8v5.7zm17.6-17.5v-48.3h9.7v48.3zm1.9-1.9h5.8v-44.5h-5.8v44.4zm7.7-46.3v-9.7h29v9.7zm19.3 57.9v9.7h-9.7v-9.7h-9.7v-9.7h29v9.7h-9.7zm-17.4-59.9h25.2v-5.8h-25.1v5.8zm0 57.9h9.7v9.7h5.8v-9.7h9.7v-5.8h-25.1v5.8zm17.4 21.2v-9.7h19.3v9.7zm1.9-1.9h15.4v-5.8h-15.3v5.8zm7.7-27v-48.3h9.7v48.3zm1.9-1.9h5.8v-44.5h-5.8v44.4zm27.2 1.9v-38.6h9.7v38.6zm1.9-1.9h5.8v-34.8h-5.8zm7.7 11.6v-9.7h29v9.7zm1.9-1.9h25.1v-5.8h-25.1zm27-7.7v-38.7h9.7v38.6h-9.7zm1.9-1.9h5.8v-34.9h-5.8v34.8zm65.8-17.5v9.7h-29v9.7h-9.7v-29h9.7v9.7h29zm-36.7 17.4h5.8v-9.7h29v-5.8h-29v-9.7h-5.8v25.1zm7.7-27v-9.7h29v9.7zm0 38.6v-9.7h29v9.7zm1.9-40.6h25.1v-5.8h-25.1zm0 38.6h25.1v-5.8h-25.1zm7.7-56v-9.7h9.7v9.7zm1.9-1.9h5.8v-5.8h-5.8zm7.7-7.7v-9.7h9.7v9.7zm1.9-1.9h5.8v-5.8h-5.8zm7.7 40.6v-9.7h9.7v9.7zm1.9-1.9h5.8v-5.8h-5.6v5.8zm17.6-17.5v-9.7h9.6v9.7h-9.7zm1.9-1.9h5.8v-5.8h-5.8v5.7zm7.7-7.7v-9.7h19.3v9.7zm9.7 29v9.7h-9.7v-19.5h19.3v9.7h-9.7zm-9.7 29v-9.7h9.7v9.7zm1.9-59.9h15.4v-5.8h-15.3v5.8zm0 38.6h5.8v-9.7h9.7v-5.8h-15.4v15.4zm0 19.3h5.8v-5.8h-5.7v5.8zm17.4-36.7v-19.4h9.7v19.3h-9.7zm1.9-1.9h5.8v-15.6h-5.8v15.4zm163.8 325.1v13h-13v65.1h-13v-91.2h13v13h13zm-23.4 75.5h7.8v-65.1h13v-7.8h-13v-13h-7.8v86zm23.4-49.5v-13h13v13zm2.6-2.6h7.8v-7.8h-7.8zm23.5 54.7v-39.1h-13v-13h13v-39.1h13v91.2zm2.6-49.5h-13v7.8h13v39.1h7.8v-86h-7.8zm30 36.5v-13h13v13zm2.6-2.6h7.8v-7.8h-7.8zm10.4-62.5v-13h13v13zm0 26v-13h39.1v13zm0 52.1v-13h39.1v-13h-39.1v-13h39.1v-13h13v52zm2.6-80.7h7.8v-7.8h-7.8zm0 26h33.9v-7.8h-33.9zm39.1 18.2h-39.1v7.8h39.1v18.2h-39.1v7.8h46.9v-46.8h-7.8zm-28.7-54.7v-13h13v13zm2.6-2.6h7.8v-7.8h-7.8zm10.4 15.6v-13h13v13zm2.6-2.6h7.8v-7.8h-7.8zm10.4-10.4v-13h13v13zm2.6-2.6h7.8v-7.8h-7.8zm36.5 80.8v-39.1h13v39.1zm2.6-2.6h7.8v-33.9h-7.8zm10.4-36.5v-13h39.1v13zm0 52.1v-13h39.1v13zm2.6-54.7h33.9v-7.8h-33.9zm0 52.1h33.9v-7.8h-33.9zm36.5-10.4v-39.1h13v39.1zm2.6-2.6h7.8v-33.9h-7.8zm36.5-10.4v-65.2h13v65.2zm0 26v-13h13v13zm2.6-28.7h7.8v-59.9h-7.8zm0 26h7.8v-7.8h-7.8zm-269.6-189.7v-9.5h9.5v9.5zm2.8-2.8h3.8v-3.8h-3.8zm6.6-73.1v-9.5h9.6v9.5h-9.5zm0 66.4v-56.9h9.6v56.9h-9.5zm2.8-69.3h3.8v-3.8h-3.8zm0 66.4h3.8v-51.1h-3.8v51.3zm63.7-35v9.5h-28.4v9.5h-9.5v-28.5h9.5v9.5h28.5zm-35.1 16.1h3.8v-9.5h28.5v-3.8h-28.5v-9.5h-3.8zm6.6-25.6v-9.5h28.5v9.5h-28.4zm19 38v9.5h-9.5v-9.5h-9.5v-9.5h28.5v9.5zm-16.1-40.8h22.8v-3.8h-22.8zm0 38h9.5v9.5h3.8v-9.5h9.5v-3.9h-22.8v3.8zm16.1 21.8v-9.5h9.5v9.5zm2.8-2.8h3.8v-3.9h-3.8v3.8zm6.6-44.6v-9.5h9.5v9.5zm2.8-2.8h3.8v-3.8h-3.8zm59-6.8v9.5h-9.5v-9.5h-28.4v-9.5h47.5v9.5h-9.5zm9.5 28.5v9.5h-47.4v-9.5h9.5v-9.5h9.5v9.5h28.5zm-44.6-31.3h28.5v9.5h3.8v-9.5h9.5v-3.8h-41.8zm9.5 34.1h-9.5v3.8h41.8v-3.8h-28.5v-9.5h-3.8zm6.6-12.3v-9.5h9.5v9.5zm2.8-2.8h3.8v-3.9h-3.8v3.8zm44.7 12.3v-38h9.5v38zm2.8-2.8h3.8v-32.3h-3.8zm35.1 21.8v-9.5h-28.4v-9.5h28.5v-38h9.5v56.9h-9.5zm-28.5 9.5v-9.5h28.5v9.5h-28.4zm31.4-25.7h-28.5v3.8h28.5v9.5h3.8v-51.2h-3.8v38zm-28.5 22.8h22.8v-3.8h-22.8zm82.6-44.6v9.5h-19v19h-9.5v-66.5h9.5v38zm-25.6 25.6h3.8v-19h19v-3.8h-19v-38h-3.8v60.7zm25.6-25.6v-9.5h9.5v9.5zm0 19v-9.5h9.5v9.5zm2.8-21.8h3.8v-3.8h-3.8zm0 19h3.8v-3.8h-3.8zm6.6-25.6v-9.5h9.6v9.5h-9.5zm0 38v-9.5h9.6v9.5h-9.5zm2.8-40.8h3.8v-3.8h-3.8zm0 38h3.8v-4h-3.8v3.8zm-623.2 154v20h-40v40h-20v-140h20v80zm-52 52h4v-40h40v-4h-40v-80h-4zm52-52v-20h20v20zm0 40v-20h20v20zm8-48h4v-4h-4zm0 40h4v-4h-4zm12-52v-20h20v20zm0 80v-20h20v20zm8-88h4v-4h-4zm0 80h4v-4h-4zm52 8v-100h20v100zm8-8h4v-84h-4zm52-52v-20h20v20zm40 80v-20h-40v-20h60v40zm-32-88h4v-4h-4zm0 60h40v20h4v-24h-44zm12-72v-20h60v20zm0 40v-20h40v20zm0 80v-20h20v20zm8-128h44v-4h-44zm0 40h24v-4h-24zm0 80h4v-4h-4zm32-52v-20h20v20zm8-8h4v-4h-4zm-268-194.6 1.7-7.6h7.6l-1.7 7.6zm4.9-22.9 3.3-15.3h7.6l-3.3 15.3zm1.1 30.5 1.6-7.6h22.9l-1.6 7.6zm4.9-22.9 1.6-7.6h22.9l-1.6 7.6zm4.9-22.9 1.6-7.6h22.9l-1.6 7.6zm14.7 38.2 3.3-15.3h7.6l-3.3 15.3zm6.6-30.5 1.6-7.6h7.6l-1.6 7.6zm45.8-.1-1.6 7.6h-15.2l-4.9 22.9h-7.6l9.8-45.8h7.6l-3.3 15.3h15.3zm-23.3 38.2 1.6-7.6h15.3l-1.6 7.6zm52.3-30.5-1.6 7.6h-7.6l-4.9 22.9h-7.6l8.1-38.2h7.6l-1.6 7.6h7.6zm0 0 1.6-7.6h15.3l-1.6 7.6zm18 22.9 1.7-7.6h7.6l-1.7 7.6zm6 7.6 1.6-7.6h22.9l1.7-7.6h-22.9l1.6-7.6h22.9l1.6-7.6h7.7l-6.5 30.4h-30.5zm6.5-30.5 1.6-7.6h23l-1.6 7.6zm39.4 30.5 9.8-45.8h7.6l-9.8 45.8zm15.3 0 1.6-7.6h15.3l-1.6 7.6zm2.1-45.8 1.6-7.6h22.9l-1.6 7.6zm2.7 22.9 1.6-7.6h15.3l-1.6 7.6zm12 15.3 3.3-15.3h7.6l-3.3 15.3zm4.9-22.9 3.3-15.3h7.6l-3.3 15.3zm52 7.6-1.7 7.6h-22.9l-1.6 7.6h-7.6l4.9-22.9h7.6l-1.6 7.6h22.9zm-27.8 22.9 1.6-7.6h22.9l-1.6 7.6zm6.5-30.5 1.6-7.6h22.9l-1.6 7.6zm21.3 7.6 1.6-7.6h7.6l-1.6 7.6zm578.3-25.5v7.3h-21.8v21.8h21.8v7.3h-29.1v-50.9h7.3v14.5zm0 29.1v-21.8h7.3v21.8zm18.2 0v-7.3h7.3v7.3zm3.6-43.6v-7.3h7.3v7.3zm3.6 21.8v-7.3h21.8v7.3zm0 29.1v-7.3h21.8v-7.3h-21.8v-7.3h21.8v-7.3h7.3v29.2zm3.6-43.6v-7.3h14.5v7.3zm14.5-7.3v-7.3h7.3v7.3zm40.1 21.8v7.3h-7.3v21.8h-7.3v-36.4h7.3v7.3zm0 0v-7.3h14.5v7.3zm54.6-7.3v7.3h-21.8v21.8h21.8v7.3h-29.1v-50.9h7.3v14.5zm0 29.1v-21.8h7.3v21.8zm18.2 0v-7.3h7.3v7.3zm7.3-21.8v-7.3h21.8v7.3zm0 29.1v-7.3h21.8v-7.3h-21.8v-7.3h21.8v-7.3h7.3v29.2zm65.4-36.4v7.3h-14.5v21.8h-7.3v-43.6h7.3v14.5zm-14.6 36.4v-7.3h14.5v7.3zm0 21.8v-14.5h7.3v14.5zm29.1-65.5v-7.3h7.3v7.3zm0 43.6v-36.3h7.3v36.4h-7.3zm-261.5-188.1v22.4h33.6v11.2h-33.6v33.6h-11.2v-78.4h44.8v11.2zm-7.8 63.8h4.5v-33.6h33.6v-4.5h-33.7v-29.1h33.6v-4.4h-38v71.7zm41.4-41.4v-22.4h11.2v22.4zm3.4-3.4h4.5v-15.6h-4.5v15.7zm35.8-19v22.4h33.6v11.2h-11.2v11.2h-11.2v-11.2h-11.2v33.6h-11.2v-78.4h44.8v11.2zm-7.8 63.8h4.5v-33.6h17.9v11.2h4.5v-11.2h11.2v-4.5h-33.6v-29.1h33.6v-4.4h-38.1v71.7zm30.2-7.8v-11.2h11.2v11.2zm3.4-3.4h4.5v-4.4h-4.5v4.5zm7.8-30.2v-22.4h11.2v22.4zm0 44.8v-11.2h11.2v11.2zm3.4-48.2h4.5v-15.6h-4.5v15.7zm0 44.8h4.5v-4.5h-4.5zm41.4-63.8v22.4h33.6v11.2h-33.6v22.4h44.7v11.2h-55.9v-78.4h56v11.2zm-7.8 63.8h49.2v-4.5h-44.8v-29.1h33.6v-4.5h-33.6v-29.1h44.8v-4.4h-49.3v71.7zm7.8-86.2v-11.2h11.2v11.2zm3.4-3.4h4.5v-4.5h-4.5zm7.8-7.8v-11.2h11.2v11.2zm3.4-3.4h4.5v-4.5h-4.5zm7.8 14.6v-11.2h11.2v11.2zm3.4-3.4h4.5v-4.5h-4.5zm69.4 25.8v67.2h-11.2v-67.2h-22.4v-11.2h56v11.2zm-30.2-3.4h22.4v67.2h4.5v-67.2h22.4v-4.4h-49.3v4.5zm-157.2 327.4-3.8 18.2h-36.5l-11.7 54.7h-18.2l23.3-109.4h18.2l-7.8 36.5zm-65.8 69.3h10.9l11.7-54.7h36.5l2.4-10.9h-36.5l7.6-36.5h-10.9zm56.9-62-.7 3.6h-36.5l-11.7 54.7h-3.6l20.2-94.9h3.6l-7.8 36.5h36.5zm-46.9 83.9 3.8-18.2h36.5l-3.8 18.2zm4.4-3.6h29.2l2.4-10.9h-29.2zm4.4-3.6.7-3.6h21.9l-.7 3.6zm58.9-11 3.8-18.2h18.2l-3.8 18.2zm4.4-3.6h10.9l2.4-10.9h-10.9zm4.4-3.6.9-3.6h3.6l-.9 3.6zm5.7 25.5 3.8-18.2h54.7l3.8-18.2h-54.7l3.8-18.2h54.7l4-18.2h18.3l-15.5 73h-73zm69.1-51.1h-54.7l-2.4 10.9h54.7l-5.3 25.5h-54.7l-2.4 10.9h65.7l13.9-65.7h-10.9zm-60.4 43.8.7-3.6h54.7l7.1-32.8h-54.7l.7-3.6h54.7l3.8-18.2h3.6l-12.4 58.4h-58.4zm6.7-65.8 3.8-18.2h54.7l-3.8 18.2zm2.6-54.7 3.8-18.2h18.2l-3.8 18.2zm1.8 51.1h47.4l2.4-10.9h-47.4zm2.6-54.7h10.9l2.4-10.9h-10.9zm1.8 51.1.7-3.6h40.1l-.7 3.6zm2.6-54.7.7-3.6h3.6l-.7 3.5h-3.6zm5.5 25.5 4-18.2h36.5l-4 18.2zm4.6-3.6h29.2l2.2-10.9h-29.2zm4.4-3.6.7-3.6h21.9l-.7 3.6zm8-29.2 3.8-18.2h18.2l-3.8 18.2zm4.4-3.6h10.9l2.4-10.9h-10.9zm4.4-3.6.9-3.6h3.6l-.9 3.6zm13.3-10.9 3.8-18.2h18.2l-3.8 18.2zm1.5 36.5 3.8-18.2h18.2l-3.8 18.2zm2.9-40.1h10.9l2.4-10.9h-10.9zm1.5 36.5h10.9l2.4-10.9h-11.2zm3.1-40.1.7-3.6h3.6l-.7 3.6zm1 36.1.7-3.6h3.6l-.7 3.6zm102 43.8-3.8 18.2h-36.5l-11.7 54.8h-18.2l23.3-109.4h18.2l-7.8 36.5h36.5zm-65.8 69.3h10.9l11.7-54.7h36.5l2.4-10.9h-36.5l7.7-36.5h-10.9zm56.9-62-.7 3.6h-36.5l-11.7 54.7h-3.6l20.2-94.9h3.6l-7.8 36.5h36.5zm-46.9 83.9 3.8-18.2h36.5l-3.8 18.2zm4.4-3.6h29.2l2.4-10.9h-29.2zm4.4-3.6.7-3.6h21.9l-.7 3.6zm-643-367.1 9-42h8.4l-9 42zm6.6 8.4 1.8-8.4h25.2l-1.8 8.4zm10.8-50.4 1.8-8.4h25.2l-1.8 8.4zm16.2 42 1.8-8.4h8.4l-1.8 8.4zm7.2-33.6 1.8-8.4h8.4l-1.8 8.4zm50 42 3.5-16.8h-25.2l-3.5 16.8h-8.4l10.8-50.4h8.4l-5.4 25.2h25.2l5.4-25.2h8.4l-10.8 50.4zm-14.5-50.4 1.8-8.4h25.2l-1.8 8.4zm58.9-.1-3.6 16.8h25.2l-1.8 8.4h-25.1l-5.4 25.2h-8.4l12.5-58.8h42l-1.8 8.4zm54.8 0-3.6 16.8h25.2l-1.8 8.4h-25.2l-5.4 25.2h-8.4l12.5-58.8h42l-1.8 8.4zm54.6 0-3.5 16.8h25.2l-1.8 8.4h-25.3l-3.5 16.8h33.5l-1.8 8.4h-41.9l12.5-58.8h42l-1.8 8.4zm5.4-25.2 1.8-8.4h8.4l-1.8 8.4zm6.6 8.4 1.8-8.4h8.4l-1.8 8.4zm767.6 24.9v26.2h-4.4v-26.2h-8.7v-4.4h21.8v4.4zm24 8.7v4.4h-4.4v13.1h-4.4v-30.6h4.4v13.1zm0 0v-4.4h8.7v4.4zm8.7 17.4v-17.4h4.4v17.4zm30.5-13.1v4.4h-13.1v4.4h-4.3v-13.1h4.4v4.4h13.1zm-13.1-4.4v-4.3h13.1v4.4h-13.1zm0 17.4v-4.4h13.1v4.4zm13.1-13.1v-4.4h4.4v4.4zm26.2 13.2v-17.4h4.4v17.4zm4.4-17.4v-4.4h8.7v4.4zm8.7 17.4v-17.4h4.3v17.4h-4.4zm4.4-17.4v-4.4h8.7v4.4h-8.8zm8.7 17.4v-17.4h4.4v17.4zm10.8-4.3v-4.4h4.4v4.4zm4.4-13.1v-4.4h13.1v4.4zm0 17.4v-4.4h13.1v-4.4h-13.1v-4.4h13.1v-4.4h4.4v17.4h-17.5zm26.1 0v-17.4h4.4v17.4zm4.4-17.4v-4.4h13.1v4.4zm13.1 17.4v-17.4h4.4v17.4zm17.4-21.8v17.4h-4.4v-17.4zm13.1 17.4v4.4h-13.1v-4.4zm4.4-17.4v17.4h-4.4v-17.4zm8.7 8.7v-4.4h4.4v4.4zm0 13.1v-4.4h13.1v4.4zm4.4-17.4v-4.4h13.1v4.4h-13.2zm0 8.7v-4.4h8.7v4.4zm8.7 4.4v-4.4h4.4v4.4zm13 0v-13.1h4.4v13.1zm4.4-13.1v-4.4h13.1v4.4zm0 17.4v-4.4h13.1v4.4zm30.5-17.4v4.4h-4.4v13.1h-4.4v-21.9h4.4v4.4zm0 0v-4.4h8.7v4.4zm15.3-8.7v-4.4h4.4v4.4zm0 26.2v-21.9h4.4v21.8h-4.4zm17.4-17.5v13.1h13.1v4.4h-13.1v8.7h-4.4v-30.6h17.5v4.4zm13.1 13.1v-13.1h4.4v13.1zm26.1-17.5v4.4h-8.7v13.1h-4.4v-26.2h4.4v8.7zm-8.7 21.8v-4.4h8.7v4.4zm30.5-26.1v-4.4h4.4v4.4zm0 26.2v-21.9h4.4v21.8h-4.4zm13.1-13.2v-4.4h4.4v4.4zm0 13.1v-4.4h13.1v4.4zm4.4-17.4v-4.4h13.1v4.4zm0 8.7v-4.4h8.7v4.4zm8.7 4.4v-4.4h4.4v4.4zm39.2-17.5v4.4h-8.7v13.1h-4.4v-26.2h4.4v8.7zm-8.7 21.8v-4.4h8.7v4.4zm26.1-17.4v4.4h-4.4v13.1h-4.3v-21.9h4.4v4.4h4.4zm0 0v-4.4h8.7v4.4zm13.1 13.1v-4.4h4.4v4.4zm4.4-13.1v-4.4h13.1v4.4zm0 17.4v-4.4h13.1v-4.4h-13.1v-4.4h13.1v-4.4h4.4v17.4h-17.5zm26.1 0v-17.4h4.4v17.4zm4.4-17.4v-4.4h13.1v4.4zm13.1 17.4v-17.4h4.4v17.4zm13-13.1v-4.4h4.4v4.4zm0 13.1v-4.4h13.1v4.4zm4.4-17.4v-4.4h13.1v4.4zm0 8.7v-4.4h8.7v4.4zm8.7 4.4v-4.4h4.4v4.4zm13.1 0v-13.1h4.4v13.1zm4.4-13.1v-4.4h13.1v4.4zm0 17.4v-4.4h13.1v4.4zm30.5-17.4v4.4h-4.4v13.1h-4.4v-21.9h4.4v4.4zm0 0v-4.4h8.7v4.4zm15.2-8.7v-4.4h4.4v4.4zm0 26.2v-21.9h4.4v21.8h-4.4zm30.5-21.9v4.4h-13v13.1h13.1v4.4h-17.5v-30.6h4.4v8.7h13.1zm0 17.4v-13h4.4v13.1h-4.4zm30.6-8.7v4.4h-13.1v4.4h-4.4v-13.1h4.4v4.4h13.1zm-13.1-4.4v-4.3h13.1v4.4h-13.1zm0 17.4v-4.4h13.1v4.4zm13.1-13.1v-4.4h4.4v4.4zm15.2 8.9h-4.4v-13.1h4.4zm17.4 4.4h-17.4v-4.4h13.1v-13.1h-13.1v-4.4h13.1v-8.7h4.4v30.5zm21.8-4.4v-13.1h4.4v13.1zm4.4-13.1v-4.4h13.1v4.4zm0 17.4v-4.4h13.1v4.4zm13.1-4.4v-13h4.4v13.1h-4.4zm13.1 4.4v-17.4h4.4v17.4zm4.4-17.4v-4.4h13.1v4.4h-13.2zm13.1 17.4v-17.4h4.3v17.4h-4.4zm26.1-21.8v4.4h-8.8v13.1h-4.4v-26.2h4.4v8.7h8.7zm-8.8 21.8v-4.4h8.7v4.4zm17.5-4.3v-13.1h4.4v13.1zm4.4-13.1v-4.4h13.1v4.4h-13.2zm0 17.4v-4.4h13.1v4.4h-13.2zm13.1-4.4v-13h4.4v13.1h-4.4zm39.1-17.4v4.4h-8.7v13.1h-4.4v-26.2h4.4v8.7zm-8.7 21.8v-4.4h8.7v4.4zm26.2-17.4v4.4h-4.4v13.1h-4.4v-30.6h4.4v13.1zm0 0v-4.4h8.7v4.4zm8.7 17.4v-17.4h4.4v17.4zm13.1-26.1v-4.4h4.4v4.4zm0 26.2v-21.9h4.4v21.8h-4.4zm13-.1v-17.4h4.4v17.4zm4.4-17.4v-4.4h13.1v4.4zm13.1 17.4v-17.4h4.4v17.4zm26.1-13.1v-4.4h4.4v4.4zm0 13.1v-4.4h13.1v4.4zm4.4-17.4v-4.4h13.1v4.4zm0 8.7v-4.4h8.7v4.4zm8.7 4.4v-4.4h4.4v4.4zm13.1 0v-26.2h4.4v26.2zm4.4 4.4v-4.4h4.4v4.4zm10.9-26.2v-4.4h4.4v4.4zm0 26.2v-21.9h4.4v21.8h-4.4zm13-4.4v-13.1h4.4v13.1zm4.4-13.1v-4.4h13.1v4.4zm13.1 21.8v-4.4h-13.1v-4.4h13.1v-13h4.4v21.8zm-13.1 4.4v-4.4h13.1v4.4zm34.9-26.2v4.4h-4.4v13.1h-4.4v-30.6h4.4v13.1zm0 0v-4.4h8.7v4.4zm8.7 17.4v-17.4h4.4v17.4zm26.1-21.8v4.4h-8.7v13.1h-4.4v-26.2h4.4v8.7zm-8.7 21.8v-4.4h8.7v4.4zm17.5-8.7v-4.4h13.1v4.4zm-1107.3 56.7v-26.2h4.4v26.2zm4.4 4.4v-4.4h4.4v4.4zm10.9-4.4v-17.5h4.4v17.4h-4.4zm17.4 8.7v-4.4h-13.1v-4.4h13.1v-17.4h4.4v26.2zm-13.1 4.4v-4.4h13.1v4.4zm39.3-13.1v-17.5h4.4v17.4h-4.4zm4.4 4.4v-4.4h4.4v4.4zm4.4-4.4v-4.4h4.4v4.4zm4.4 4.4v-4.4h4.4v4.4zm4.4-4.4v-17.5h4.4v17.4h-4.4zm10.7 0v-4.4h4.4v4.4zm4.4-13.1v-4.4h13.1v4.4zm0 17.4v-4.4h13.1v-4.4h-13.1v-4.3h13.1v-4.4h4.4v17.4h-17.5zm26.1-17.4v-4.4h4.4v4.4zm0 17.4v-4.4h4.4v4.4zm4.4-13.1v-4.4h4.4v4.4zm0 8.7v-4.4h4.4v4.4zm4.4-4.4v-4.3h4.4v4.4h-4.4zm4.4-4.4v-4.4h4.4v4.5h-4.4zm0 8.7v-4.4h4.4v4.4zm4.4-13.1v-4.4h4.4v4.4zm0 17.4v-4.4h4.4v4.4zm30.4-12.9v4.4h-13.1v4.4h-4.4v-13.1h4.4v4.3zm-13.1-4.4v-4.4h13.1v4.4zm0 17.4v-4.4h13.1v4.4zm13.1-13v-4.4h4.4v4.4zm15.2 8.8h-4.4v-13.1h4.4zm17.4 4.4h-17.4v-4.4h13.1v-13.1h-13.1v-4.4h13.1v-8.7h4.4v30.5zm21.9-13.2v-4.4h4.4v4.4zm0 13.1v-4.4h13.1v4.4zm4.4-17.4v-4.4h13.1v4.4h-13.2zm0 8.7v-4.4h8.7v4.4zm8.7 4.4v-4.4h4.4v4.4zm21.7-13.1v4.3h-4.4v13.1h-4.4v-30.5h4.4v13.1zm0 0v-4.4h8.7v4.4zm8.7 17.4v-17.4h4.4v17.4zm30.6-13.1v4.4h-13.1v4.4h-4.4v-13.1h4.4v4.3zm-13.1-4.4v-4.4h13.1v4.4zm0 17.4v-4.4h13.1v4.4zm13.1-13v-4.4h4.4v4.4zm28.3 0v4.4h-13.1v4.4h-4.4v-13.1h4.4v4.3zm-13.1-4.4v-4.4h13.1v4.4zm0 17.4v-4.4h13.1v4.4zm13.1-13v-4.4h4.4v4.4zm24-8.7v4.4h-8.7v13.1h-4.4v-26.2h4.4v8.7zm-8.7 21.8v-4.4h8.7v4.4zm17.4-13.1v-4.4h4.4v4.4zm0 13.1v-4.4h13.1v4.4zm4.4-17.4v-4.4h13.1v4.4zm0 8.7v-4.4h8.7v4.4zm8.7 4.4v-4.4h4.4v4.4zm26.1 0v-13.1h4.4v13.1zm4.4-13.1v-4.4h13.1v4.4zm0 17.4v-4.4h13.1v4.4zm13.1-4.4v-13h4.4v13.1h-4.4zm26.1-17.4v4.4h-8.7v17.4h-4.4v-26.1h4.4v4.4h8.7zm-8.7-4.4v-4.4h8.7v4.5h-8.7zm34.9 8.8v13.1h13.1v4.4h-13.1v8.7h-4.4v-30.6h17.4v4.4zm13.1 13.1v-13.1h4.4v13.1zm10.9 0v-4.4h4.4v4.4zm4.4-13.1v-4.4h13.1v4.4h-13.2zm0 17.4v-4.4h13.1v-4.4h-13.2v-4.3h13.1v-4.4h4.4v17.4h-17.5zm30.4-17.4v13.1h13.1v4.4h-13.1v8.7h-4.4v-30.6h17.4v4.4zm13.1 13.1v-13.1h4.4v13.1zm30.5-8.8v4.4h-13.1v4.4h-4.4v-13.1h4.4v4.3zm-13.1-4.4v-4.4h13.1v4.4zm0 17.4v-4.4h13.1v4.4zm13.1-13v-4.4h4.4v4.4zm19.6-4.3v4.3h-4.4v13.1h-4.4v-21.8h4.4v4.4zm0 0v-4.4h8.7v4.4zm48-4.4v4.4h-13.1v13.1h13.1v4.4h-17.5v-30.6h4.4v8.7zm0 17.4v-13h4.4v13.1h-4.4zm13.1.1v-17.5h4.4v17.4h-4.4zm17.4 8.7v-4.4h-13.1v-4.4h13.1v-17.4h4.4v26.2zm-13.1 4.4v-4.4h13.1v4.4zm39.3-13.1v-4.4h4.4v4.4zm4.4-13.1v-4.4h13.1v4.4h-13.2zm0 17.4v-4.4h13.1v-4.4h-13.2v-4.3h13.1v-4.4h4.4v17.4h-17.5zm43.5-17.4v13.1h13.1v4.4h-13.1v8.7h-4.4v-30.6h17.4v4.4zm13.1 13.1v-13.1h4.4v13.1zm21.8-13.1v4.3h-4.4v13.1h-4.4v-21.8h4.4v4.4zm0 0v-4.4h8.7v4.4zm15.2 13.1v-13.1h4.4v13.1zm4.4-13.1v-4.4h13.1v4.4zm0 17.4v-4.4h13.1v4.4zm13.1-4.4v-13h4.4v13.1h-4.4zm26.1-17.4v4.4h-8.7v17.4h-4.4v-26.1h4.4v4.4h8.7zm-8.7-4.3v-4.4h8.7v4.4zm32.7 13v4.4h-13.1v4.4h-4.4v-13.1h4.4v4.3zm-13.1-4.4v-4.4h13.1v4.4zm0 17.4v-4.4h13.1v4.4zm13.1-13.1v-4.4h4.4v4.5h-4.4zm10.9.1v-4.4h4.4v4.4zm0 13.1v-4.4h13.1v4.4zm4.4-17.4v-4.4h13v4.4zm0 8.7v-4.4h8.7v4.4zm8.7 4.4v-4.4h4.4v4.4zm13.1-8.8v-4.4h4.4v4.4zm0 13.1v-4.4h13.1v4.4zm4.4-17.4v-4.4h13.1v4.4zm0 8.7v-4.4h8.7v4.4zm8.7 4.4v-4.4h4.4v4.4zm13-21.8v-4.4h4.4v4.4zm0 26.2v-21.9h4.4v21.8h-4.4zm13.1-4.4v-13.1h4.4v13.1zm4.4-13.1v-4.4h13.1v4.4zm0 17.4v-4.4h13.1v4.4zm13.1-4.4v-13h4.4v13.1h-4.4zm13 4.4v-17.4h4.4v17.4zm4.4-17.4v-4.4h13.1v4.4zm13.1 17.4v-17.4h4.4v17.4zm10.8-4.3v-4.4h4.4v4.4zm4.4-13.1v-4.4h13.1v4.4zm0 17.4v-4.4h13.1v-4.4h-13.1v-4.3h13.1v-4.4h4.4v17.4h-17.4zm26.2-4.3v-26.2h4.4v26.2zm4.4 4.4v-4.4h4.4v4.4zm26.1-4.4v-13.1h4.4v13.1zm4.4-13.1v-4.4h13.1v4.4zm0 17.4v-4.4h13.1v4.4zm19.5-4.3v-4.4h4.4v4.4zm4.4-13.1v-4.4h13.1v4.4zm0 17.4v-4.4h13.1v-4.4h-13.1v-4.3h13.1v-4.4h4.4v17.4h-17.4zm26.2-4.3v-26.2h4.4v26.2zm4.4 4.4v-4.4h4.4v4.4zm13-8.8v-4.4h13.1v4.4zm-1124.7 56.7v-26.2h4.4v26.2zm4.4 4.4v-4.4h4.4v4.4zm10.9-26.2v-4.4h4.4v4.4zm0 26.2v-21.9h4.4v21.8h-4.4zm13.1-4.4v-13.1h4.4v13.1zm4.4-13.1v-4.4h13.1v4.4h-13.2zm13.1 21.8v-4.4h-13.2v-4.4h13.1v-13h4.4v21.8h-4.4zm-13.1 4.4v-4.4h13.1v4.4h-13.2zm34.8-26.2v4.4h-4.4v13.1h-4.3v-21.9h4.4v4.4h4.4zm0 0v-4.4h8.7v4.4zm13.1 13.1v-4.4h4.4v4.4zm4.4-13.1v-4.4h13.1v4.4h-13.2zm0 17.4v-4.4h13.1v-4.4h-13.2v-4.4h13.1v-4.2h4.4v17.4h-17.5zm30.4-17.4v13.1h13.1v4.4h-13.1v8.7h-4.4v-30.6h17.4v4.4zm13.1 13.1v-13.1h4.4v13.1zm21.8-13.1v4.4h-4.4v13.1h-4.4v-30.6h4.4v13.1zm0 0v-4.4h8.7v4.4zm8.7 17.4v-17.4h4.4v17.4zm30.6-13v4.4h-13.1v4.4h-4.4v-13.2h4.4v4.4zm-13.1-4.4v-4.4h13.1v4.4zm0 17.4v-4.4h13.1v4.4zm13.1-13.1v-4.3h4.4v4.4h-4.4zm19.6-4.3v4.4h-4.4v13.1h-4.4v-21.9h4.4v4.4zm0 0v-4.4h8.7v4.4zm10.9 17.4v-4.4h4.4v4.4zm39.2-26.1v26.2h-4.4v-26.2h-8.7v-4.4h21.8v4.4zm24 8.7v4.4h-4.4v13.1h-4.4v-30.6h4.4v13.1zm0 0v-4.4h8.7v4.4zm8.7 17.4v-17.4h4.4v17.4zm30.5-13v4.4h-13.1v4.4h-4.4v-13.2h4.4v4.4zm-13.1-4.4v-4.4h13.1v4.4zm0 17.4v-4.4h13.1v4.4zm13.1-13.1v-4.3h4.4v4.4h-4.4zm30.5-4.3v13.1h13.1v4.4h-13.1v8.7h-4.4v-30.6h17.4v4.4zm13.1 13.1v-13.1h4.4v13.1zm10.9 0v-4.4h4.4v4.4zm4.4-13.1v-4.4h13.1v4.4zm0 17.4v-4.4h13.1v-4.4h-13.1v-4.4h13.1v-4.2h4.3v17.4zm30.5-17.4v13.1h13.1v4.4h-13.1v8.7h-4.4v-30.6h17.4v4.4zm13.1 13.1v-13.1h4.4v13.1zm30.5-8.7v4.4h-13.1v4.4h-4.4v-13.2h4.4v4.4zm-13.1-4.4v-4.4h13.1v4.4zm0 17.4v-4.4h13.1v4.4zm13.1-13.1v-4.3h4.3v4.4h-4.4zm19.6-4.3v4.4h-4.4v13.1h-4.4v-21.9h4.4v4.4zm0 0v-4.4h8.7v4.4zm30.5-8.7v-4.4h4.4v4.4zm0 26.2v-21.9h4.4v21.8h-4.4zm13.1-13.1v-4.4h4.4v4.4zm0 13.1v-4.4h13.1v4.4zm4.4-17.4v-4.4h13.1v4.3h-13.2zm0 8.7v-4.4h8.7v4.4zm8.7 4.4v-4.4h4.4v4.4zm30.5-13.2v13.1h13.1v4.4h-13.1v8.7h-4.4v-30.6h17.4v4.4zm13.1 13.1v-13.1h4.4v13.1zm13 0v-26.2h4.4v26.2zm4.4 4.4v-4.4h4.4v4.4zm8.7-4.4v-4.4h4.4v4.4zm4.4-13.1v-4.4h13.1v4.4zm0 17.4v-4.4h13.1v-4.4h-13.1v-4.4h13.1v-4.2h4.4v17.4zm26.1-4.3v-13.1h4.4v13.1zm4.4-13.1v-4.4h13.1v4.4zm0 17.4v-4.4h13.1v4.4zm39.2-13v4.4h-13.1v4.4h-4.4v-13.2h4.4v4.4zm-13.1-4.4v-4.4h13.1v4.4zm0 17.4v-4.4h13.1v4.4zm13.1-13.1v-4.3h4.4v4.4h-4.4zm15.3 8.8h-4.4v-13.1h4.4zm17.4 4.4h-17.4v-4.4h13.1v-13.1h-13.1v-4.4h13.1v-8.7h4.4v30.5zm34.9-21.9v4.4h-8.7v17.4h-4.4v-26.1h4.4v4.4h8.7zm-8.7-4.4v-4.4h8.7v4.4zm10.8 21.9v-4.4h4.4v4.4zm4.4-13.1v-4.4h13.1v4.4zm0 17.4v-4.4h13.1v-4.4h-13.1v-4.4h13.1v-4.2h4.4v17.4zm26.2-4.3v-13.1h4.4v13.1zm4.4-13.1v-4.4h13.1v4.4h-13.2zm0 17.4v-4.4h13.1v4.4h-13.2zm39.2-13v4.4h-13.1v4.4h-4.4v-13.2h4.4v4.4zm-13.1-4.4v-4.4h13.1v4.4zm0 17.4v-4.4h13.1v4.4zm13.1-13.1v-4.3h4.3v4.4h-4.4zm30.5 8.8h-4.4v-13.1h4.4zm17.4 4.4h-17.4v-4.4h13.1v-13.1h-13.1v-4.4h13.1v-8.7h4.4v30.5zm8.7-4.4v-13.1h4.4v13.1zm4.4-13.1v-4.4h13.1v4.4zm0 17.4v-4.4h13.1v4.4zm13.1-4.4v-13h4.4v13.1h-4.4zm13 .1v-17.5h4.4v17.4h-4.4zm4.4 4.4v-4.4h4.4v4.4zm4.4-4.4v-4.4h4.4v4.4zm4.4 4.4v-4.4h4.4v4.4zm4.4-4.4v-17.5h4.4v17.4h-4.4zm12.9 4.3v-17.4h4.4v17.4zm4.4-17.4v-4.4h13.1v4.4zm13.1 17.4v-17.4h4.4v17.4zm26.1-4.3v-13.1h4.4v13.1zm4.4-13.1v-4.4h13.1v4.4zm0 17.4v-4.4h13.1v4.4zm13.1-4.4v-13h4.4v13.1h-4.4zm13.1 4.4v-17.4h4.4v17.4zm4.4-17.4v-4.4h13.1v4.4zm13.1 17.4v-17.4h4.4v17.4zm26-4.3v-4.4h4.4v4.4zm4.4-13.1v-4.4h13.1v4.4zm0 17.4v-4.4h13.1v-4.4h-13.1v-4.4h13.1v-4.2h4.4v17.4h-17.4zm-1041.8 30.5v4.4h-13.1v13.1h13.1v4.4h-17.5v-30.6h4.4v8.7zm0 17.4v-13h4.4v13.1h-4.4zm13 .1v-26.2h4.4v26.2zm4.4 4.4v-4.4h4.4v4.4zm10.9-4.4v-13.1h4.4v13.1zm4.4-13.1v-4.4h13.1v4.4zm0 17.4v-4.4h13.1v4.4zm13.1-4.4v-13h4.4v13.1h-4.4zm13 .1v-13.1h4.4v13.1zm4.4-13.1v-4.4h13.1v4.4zm0 17.4v-4.4h13.1v4.4zm34.8-13v4.3h-8.7v8.7h-4.4v-30.5h4.4v17.4h8.7zm0 0v-4.4h4.4v4.4zm0 8.7v-4.4h4.4v4.4zm4.4-13.1v-4.4h4.4v4.4zm0 17.4v-4.4h4.4v4.4zm26.2-4.3v-13.1h4.4v13.1zm4.4-13.1v-4.4h13.1v4.4h-13.2zm0 17.4v-4.4h13.1v4.4h-13.2zm13.1-4.4v-13h4.3v13.1h-4.4zm13 4.4v-17.4h4.3v17.4h-4.4zm4.4-17.4v-4.4h13.1v4.4h-13.2zm13.1 17.4v-17.4h4.4v17.4zm26.1-4.3v-17.5h4.4v17.4h-4.4zm4.4 4.4v-4.4h4.3v4.4h-4.4zm4.4-4.4v-4.4h4.4v4.4h-4.5zm4.4 4.4v-4.4h4.4v4.4zm4.4-4.4v-17.5h4.4v17.4h-4.4zm21.6-13.1v4.4h-4.4v13.1h-4.4v-30.6h4.4v13.1zm0 0v-4.4h8.7v4.4zm8.7 17.4v-17.4h4.4v17.4zm13.1-26.1v-4.4h4.4v4.4zm0 26.2v-21.9h4.4v21.8h-4.4zm13.1-4.4v-13.1h4.4v13.1zm4.4-13.1v-4.4h13.1v4.4h-13.2zm0 17.4v-4.4h13.1v4.4h-13.2zm30.4-17.4v4.4h-4.4v13.1h-4.4v-30.6h4.4v13.1zm0 0v-4.4h8.8v4.4h-8.7zm8.7 17.4v-17.4h4.4v17.4h-4.3zm26.2-4.3v-4.4h4.4v4.4zm4.4-13.1v-4.4h13.1v4.4zm0 17.4v-4.4h13.1v-4.3h-13.1v-4.4h13.1v-4.4h4.4v17.4h-17.5zm52.3-21.8v4.4h-8.7v13.1h-4.4v-26.2h4.4v8.7zm-8.7 21.8v-4.4h8.7v4.4zm26.1-17.4v4.4h-4.4v13.1h-4.4v-30.6h4.4v13.1zm0 0v-4.4h8.7v4.4zm8.7 17.4v-17.4h4.4v17.4zm13.1-26.1v-4.4h4.4v4.4zm0 26.2v-21.9h4.4v21.8h-4.4zm13.1-.1v-17.4h4.4v17.4zm4.4-17.4v-4.4h13.1v4.4zm13.1 17.4v-17.4h4.4v17.4zm26.1-4.3v-26.2h4.3v26.2h-4.4zm4.4 4.4v-4.4h4.4v4.4h-4.5zm8.7-4.4v-4.4h4.4v4.4zm4.4-13.1v-4.4h13.1v4.4h-13.2zm0 17.4v-4.4h13.1v-4.3h-13.2v-4.4h13.1v-4.4h4.4v17.4h-17.5zm26.1-4.3v-17.5h4.4v17.4h-4.4zm17.4 8.7v-4.4h-13.1v-4.4h13.1v-17.4h4.4v26.2zm-13.1 4.4v-4.4h13.1v4.4zm43.6-21.8v4.3h-13v4.4h-4.4v-13.1h4.4v4.4h13.1zm-13.1-4.4v-4.4h13.1v4.4h-13zm0 17.4v-4.4h13.1v4.4h-13zm13.1-13.1v-4.4h4.4v4.4zm19.6-4.3v4.4h-4.4v13.1h-4.4v-21.9h4.4v4.4zm0 0v-4.4h8.7v4.4zm30.6 13.1v-13.1h4.4v13.1zm4.4-13.1v-4.4h13.1v4.4h-13.2zm0 17.4v-4.4h13.1v4.4h-13.2zm13.1-4.4v-13h4.4v13.1h-4.4zm26.1-17.4v4.4h-8.7v17.4h-4.4v-26.1h4.4v4.4h8.7zm-8.7-4.4v-4.4h8.7v4.4zm39.2 8.8v4.4h-4.4v13.1h-4.4v-21.9h4.4v4.4zm0 0v-4.4h8.7v4.4zm15.2-8.7v-4.4h4.4v4.4zm0 26.2v-21.9h4.4v21.8h-4.4zm13.1-4.4v-13.1h4.4v13.1zm4.4-13.1v-4.4h13.1v4.4zm0 17.4v-4.4h13.1v4.4zm39.2-13v4.3h-13.1v4.4h-4.3v-13.1h4.4v4.4h13.1zm-13.1-4.4v-4.4h13.1v4.4zm0 17.4v-4.4h13.1v4.4zm13.1-13.1v-4.4h4.4v4.4zm30.5-4.3v13.1h13.1v4.4h-13.1v8.7h-4.4v-30.6h17.5v4.4zm13.1 13.1v-13.1h4.4v13.1zm10.9 0v-4.4h4.4v4.4zm4.4-13.1v-4.4h13.1v4.4zm0 17.4v-4.4h13.1v-4.3h-13.1v-4.4h13.1v-4.4h4.4v17.4h-17.4zm26.1-13v-4.4h4.4v4.4zm0 13.1v-4.4h13.1v4.4zm4.4-17.4v-4.4h13.1v4.4zm0 8.7v-4.4h8.7v4.3h-8.7zm8.7 4.4v-4.5h4.4v4.4h-4.4zm26.1-17.6v4.4h-8.7v13.1h-4.4v-26.2h4.4v8.7zm-8.7 21.8v-4.4h8.7v4.4zm34.9-13v4.3h-13.1v4.4h-4.4v-13.1h4.4v4.4zm-13.1-4.4v-4.4h13.1v4.4zm0 17.4v-4.4h13.1v4.4zm13.1-13.1v-4.4h4.4v4.4zm34.9-4.3v4.4h-4.4v13.1h-4.4v-30.6h4.4v13.1zm0 0v-4.4h8.7v4.4zm8.7 17.4v-17.4h4.4v17.4zm10.9-4.3v-4.4h4.4v4.4zm4.4-13.1v-4.4h13.1v4.4zm0 17.4v-4.4h13.1v-4.3h-13.1v-4.4h13.1v-4.4h4.4v17.4h-17.4zm26.1-13v-4.4h4.4v4.4zm0 13.1v-4.4h13.1v4.4zm4.4-17.4v-4.4h13.1v4.4zm0 8.7v-4.4h8.7v4.3h-8.7zm8.7 4.4v-4.5h4.4v4.4h-4.4zm-1035.3 34.8v4.4h-13.1v13.1h13.1v4.4h-17.5v-30.7h4.4v8.7h13.1zm0 17.4v-13.1h4.4v13.1zm30.5-8.7v4.4h-13.1v4.4h-4.4v-13.2h4.4v4.4zm-13.1-4.4v-4.4h13.1v4.4zm0 17.4v-4.4h13.1v4.4zm13.1-13v-4.4h4.4v4.4zm28.299 0v4.4h-13.099v4.4h-4.3v-13.2h4.399v4.4h13.101zm-13.099-4.4v-4.4h13.099v4.4zm0 17.4v-4.4h13.099v4.4zm13.099-13v-4.4h4.401v4.4zm10.901 13.1v-17.5h4.4v17.4h-4.4zm4.4-17.4v-4.4h13.1v4.4zm13.1 17.4v-17.5h4.4v17.4h-4.4zm39.2-21.8v4.4h-8.7v13.1h-4.401v-26.3h4.401v8.7h8.7zm-8.7 21.8v-4.4h8.7v4.4zm26.099-17.5v4.4h-4.399v13.1h-4.4v-30.6h4.4v13.1zm0 0v-4.4h8.701v4.4zm8.701 17.4v-17.4h4.4v17.4zm13.1-26.1v-4.4h4.4v4.4zm0 26.2v-21.8h4.4v21.8zm13.1 0v-17.5h4.4v17.4h-4.4zm4.4-17.4v-4.4h13.1v4.4zm13.1 17.4v-17.5h4.4v17.4h-4.4zm13-4.4v-26.2h4.4v26.2zm4.4 4.4v-4.4h4.4v4.4zm10.9-4.4v-17.4h4.4v17.4zm17.4 8.7v-4.4h-13.101v-4.4h13.101v-17.3h4.399v26.2h-4.399zm-13.101 4.4v-4.4h13.101v4.4zm39.301-21.8v-4.4h4.3v4.4h-4.4zm0 13.1v-4.4h13.1v4.4zm4.4-17.4v-4.4h13.1v4.4h-13.2zm0 8.7v-4.4h8.7v4.4h-8.8zm8.7 4.4v-4.4h4.4v4.4zm17.4-13.2v13.1h13.1v4.4h-13.1v8.7h-4.4v-30.5h17.4v4.4h-13zm13.1 13.1v-13.1h4.4v13.1zm21.7-13.1v4.4h-4.4v13.1h-4.4v-21.8h4.4v4.4h4.4zm0 0v-4.4h8.7v4.4zm32.7 4.4v4.4h-13v4.4h-4.4v-13.2h4.4v4.4h13.1zm-13.1-4.4v-4.4h13.1v4.4h-13zm0 17.4v-4.4h13.1v4.4h-13zm13.1-13v-4.4h4.4v4.4zm8.8 8.7v-4.4h4.399v4.4zm4.399-13.1v-4.4h13.101v4.4h-13.2zm0 17.4v-4.4h13.101v-4.4h-13.2v-4.2h13.099v-4.4h4.401v17.4h-17.5zm30.401-4.3h-4.3v-13.1h4.399v13.1zm17.4 4.4h-17.4v-4.4h13.099v-13.1h-13.099v-4.4h13.099v-8.7h4.401v30.5zm21.9-4.4v-4.4h4.4v4.4zm4.4-13.1v-4.4h13v4.4h-13.101zm0 17.4v-4.4h13v-4.4h-13.101v-4.2h13.101v-4.4h4.399v17.4h-17.5zm26.1.1v-17.5h4.4v17.4h-4.4zm4.4-17.4v-4.4h13.1v4.4h-13.201zm13.1 17.4v-17.5h4.4v17.4h-4.4zm17.299-4.4h-4.399v-13.1h4.399zm17.401 4.4h-17.401v-4.4h13.101v-13.1h-13.101v-4.4h13.101v-8.7h4.399v30.5zm35-21.8v4.4h-8.7v13.1h-4.4v-26.3h4.4v8.7h8.7zm-8.7 21.8v-4.4h8.7v4.4zm26.1-17.5v4.4h-4.4v13.1h-4.3v-30.6h4.399v13.1h4.401zm0 0v-4.4h8.699v4.4zm8.699 17.4v-17.4h4.401v17.4zm30.5-13v4.4h-13.099v4.4h-4.401v-13.2h4.401v4.4zm-13.099-4.4v-4.4h13.099v4.4zm0 17.4v-4.4h13.099v4.4zm13.099-13v-4.4h4.401v4.4zm43.601-8.7v4.4h-13.101v13.1h13.101v4.4h-17.4v-30.7h4.4v8.7h13.1zm0 17.4v-13.1h4.399v13.1zm10.899 0v-4.4h4.401v4.4zm4.401-13.1v-4.4h13.099v4.4zm0 17.4v-4.4h13.099v-4.4h-13.099v-4.2h13.099v-4.4h4.401v17.4zm26.099-4.3v-13.1h4.401v13.1zm4.401-13.1v-4.4h13.099v4.4zm0 17.4v-4.4h13.099v4.4zm34.9-13v4.4h-8.7v8.7h-4.4v-30.6h4.4v17.5zm0 0v-4.4h4.4v4.4zm0 8.7v-4.4h4.4v4.4zm4.4-13.1v-4.4h4.4v4.4zm0 17.4v-4.4h4.4v4.4zm34.799-17.4v4.4h-4.399v13.1h-4.4v-21.8h4.4v4.4h4.399zm0 0v-4.4h8.701v4.4zm19.601-4.3v17.4h-4.4v-17.4zm13.1 17.4v4.4h-13.1v-4.4zm4.4-17.4v17.4h-4.4v-17.4zm26.1 0v4.4h-13.1v13.1h13.1v4.4h-17.4v-30.7h4.4v8.7h13.1zm0 17.4v-13.1h4.4v13.1zm30.5-17.4v4.4h-13.1v13.1h13.1v4.4h-17.4v-30.7h4.4v8.7h13.1zm0 17.4v-13.1h4.4v13.1zm30.5-8.7v4.4h-13.1v4.4h-4.4v-13.2h4.4v4.4zm-13.1-4.4v-4.4h13.1v4.4zm0 17.4v-4.4h13.1v4.4zm13.1-13.1v-4.4h4.4v4.5h-4.4zm15.299 8.8h-4.399v-13.1h4.399zm17.401 4.4h-17.401v-4.4h13.101v-13.1h-13.101v-4.4h13.101v-8.7h4.399v30.5zm21.8-4.4v-17.4h4.4v17.4zm4.4 4.4v-4.4h4.399v4.4zm4.399-4.4v-4.4h4.401v4.4zm4.401 4.4v-4.4h4.4v4.4zm4.4-4.4v-17.4h4.4v17.4zm12.9-21.8v-4.4h4.4v4.4zm0 26.2v-21.8h4.4v21.8zm26.2-21.8v4.4h-8.7v13.1h-4.4v-26.3h4.4v8.7h8.7zm-8.7 21.8v-4.4h8.7v4.4zm26.1-17.5v4.4h-4.4v13.1h-4.401v-30.6h4.401v13.1zm0 0v-4.4h8.699v4.4zm8.699 17.4v-17.4h4.401v17.4zm26.201-4.3v-4.4h4.4v4.4zm4.4-13.1v-4.4h13.1v4.4zm0 17.4v-4.4h13.1v-4.4h-13.1v-4.2h13.1v-4.4h4.4v17.4h-17.4zm-1083.3 30.6v4.4h-8.7v17.4h-4.4v-26.2h4.4v4.4zm-8.7-4.4v-4.4h8.7v4.4zm15.2 21.8v-26.2h4.4v26.2zm4.4 4.4v-4.4h4.4v4.4zm8.7-4.4v-4.4h4.4v4.4zm4.4-13.1v-4.4h13.1v4.4zm0 17.4v-4.3h13.1v-4.4h-13.1v-4.4h13.1v-4.4h4.4v17.4h-17.5zm39.199-21.7v4.4h-8.699v13h-4.4v-26.2h4.4v8.7h8.699zm-8.699 21.8v-4.4h8.699v4.4zm34.9-17.5v13.1h13.1v4.4h-13.1v8.7h-4.4v-30.5h17.4v4.4h-13zm13 13.1v-13.1h4.4v13.1zm10.9 0v-4.4h4.399v4.4zm4.399-13.1v-4.4h13.101v4.4zm0 17.4v-4.3h13.101v-4.4h-13.101v-4.4h13.101v-4.4h4.399v17.4h-17.5zm26.201-4.3v-26.2h4.4v26.2zm4.4 4.4v-4.4h4.399v4.4zm10.8 0v-17.5h4.4v17.4h-4.4zm4.4-17.4v-4.4h8.699v4.4zm8.699 17.4v-17.5h4.401v17.4h-4.401zm4.401-17.4v-4.4h8.7v4.4zm8.7 17.4v-17.5h4.399v17.4h-4.399zm13-8.8v-4.4h13.1v4.4zm34.899-13v4.4h-8.699v17.4h-4.4v-26.2h4.4v4.4zm-8.699-4.4v-4.4h8.699v4.4zm15.3 0v-4.4h4.399v4.4zm0 26.2v-21.8h4.399v21.8zm30.5-21.8v4.4h-13.101v13h13.101v4.4h-17.5v-30.6h4.399v8.7h13.101zm0 17.4v-13.1h4.399v13.1zm21.8-13.1v4.4h-4.401v13.1h-4.399v-21.8h4.399v4.4h4.401zm0 0v-4.4h8.7v4.4zm32.7 4.4v4.4h-13.101v4.3h-4.399v-13.1h4.399v4.4zm-13.101-4.4v-4.4h13.101v4.4zm0 17.4v-4.3h13.101v4.4h-13.101zm13.101-13v-4.4h4.399v4.4zm43.6-8.7v4.4h-13.1v13h13.1v4.4h-17.5v-30.6h4.4v8.7h13.1zm0 17.4v-13.1h4.4v13.1zm21.799-13.1v4.4h-4.399v13.1h-4.4v-21.8h4.4v4.4h4.399zm0 0v-4.4h8.701v4.4zm19.601-4.3v17.4h-4.4v-17.4zm13 17.4v4.4h-13v-4.4zm4.399-17.4v17.4h-4.399v-17.4zm8.701 8.7v-4.4h4.4v4.4zm0 13.1v-4.4h13.1v4.4zm4.4-17.4v-4.4h13.1v4.4zm0 8.7v-4.4h8.7v4.4zm8.7 4.4v-4.4h4.4v4.3h-4.4zm21.8-13.2v4.4h-4.4v13.1h-4.4v-30.6h4.4v13.1zm0 0v-4.4h8.7v4.4zm8.7 17.4v-17.4h4.4v17.4zm26.199-13v-4.4h4.401v4.4zm0 13.1v-4.4h13.101v4.4zm4.401-17.4v-4.4h13.099v4.4h-13.199zm0 8.7v-4.4h8.7v4.4zm8.7 4.4v-4.4h4.399v4.3h-4.399zm13-.1v-13.1h4.399v13.1zm4.399-13.1v-4.4h13.101v4.4zm0 17.4v-4.3h13.101v4.4h-13.101zm13.101-4.4v-13h4.399v13.1h-4.399zm39.2-17.3v4.4h-8.7v13h-4.4v-26.2h4.4v8.7h8.7zm-8.7 21.8v-4.4h8.7v4.4zm26.1-17.5v4.4h-4.4v13.1h-4.4v-30.6h4.4v13.1zm0 0v-4.4h8.7v4.4zm8.7 17.4v-17.4h4.4v17.4zm10.9-4.3v-4.4h4.4v4.4zm4.4-13.1v-4.4h13.1v4.4zm0 17.4v-4.3h13.1v-4.4h-13.1v-4.4h13.1v-4.4h4.4v17.4h-17.5zm39.2-21.7v4.4h-8.7v13h-4.4v-26.2h4.4v8.7h8.7zm-8.7 21.8v-4.4h8.7v4.4zm30.5-4.4v-4.4h4.4v4.4zm4.4-13.1v-4.4h13.1v4.4zm0 17.4v-4.3h13.1v-4.4h-13.1v-4.4h13.1v-4.4h4.4v17.4h-17.5zm39.2-4.3v-13.1h4.4v13.1zm4.4-13.1v-4.4h13.1v4.4zm0 17.4v-4.3h13.1v4.4h-13.1zm21.799-4.3v-26.2h4.401v26.2zm4.401 4.4v-4.4h4.4v4.4zm28.3-13.1v4.4h-13.1v4.3h-4.4v-13.1h4.4v4.4zm-13.1-4.4v-4.4h13.1v4.4zm0 17.4v-4.3h13.1v4.4h-13.1zm13.1-13.1v-4.4h4.4v4.4zm8.7 8.8v-4.4h4.4v4.4zm4.4-13.1v-4.4h13.1v4.4zm0 17.4v-4.3h13.1v-4.4h-13.1v-4.4h13.1v-4.4h4.4v17.4h-17.5zm34.8-17.4v4.4h-4.4v13.1h-4.4v-21.8h4.4v4.4h4.4zm0 0v-4.4h8.7v4.4zm30.5-8.7v-4.4h4.399v4.4zm0 26.2v-21.8h4.399v21.8zm13.1 0v-17.5h4.4v17.4h-4.4zm4.4-17.4v-4.4h8.7v4.4zm8.7 17.4v-17.5h4.4v17.4h-4.4zm4.4-17.4v-4.4h8.7v4.4zm8.7 17.4v-17.5h4.4v17.4h-4.4zm17.4-17.5v13.1h13.1v4.4h-13.1v8.7h-4.4v-30.5h17.4v4.4h-13.1zm13.1 13.1v-13.1h4.4v13.1zm21.8-13.1v4.4h-4.4v13.1h-4.4v-21.8h4.4v4.4h4.4zm0 0v-4.4h8.7v4.4zm32.7 4.4v4.4h-13.1v4.3h-4.4v-13.1h4.4v4.4zm-13.1-4.4v-4.4h13.1v4.4zm0 17.4v-4.3h13.1v4.4h-13.1zm13.1-13.1v-4.4h4.4v4.4zm10.9.1v-4.4h4.4v4.4zm0 13.1v-4.4h13.1v4.4zm4.4-17.4v-4.4h13.1v4.4zm0 8.7v-4.4h8.7v4.4zm8.7 4.4v-4.4h4.4v4.3h-4.4zm13-8.8v-4.4h4.4v4.4zm0 13.1v-4.4h13.099v4.4zm4.4-17.4v-4.4h13.1v4.4zm0 8.7v-4.4h8.699v4.4zm8.699 4.4v-4.4h4.401v4.3h-4.401zm13.101-21.9v-4.4h4.399v4.4zm0 26.2v-21.8h4.399v21.8zm13.1-4.4v-13.1h4.4v13.1zm4.4-13.1v-4.4h13v4.4h-13.101zm0 17.4v-4.3h13v4.4h-13.101zm13-4.3v-13.1h4.399v13.1zm13.1 4.4v-17.5h4.4v17.4h-4.4zm4.4-17.4v-4.4h13.1v4.4zm13.1 17.4v-17.5h4.4v17.4h-4.4zm-1133.5 47.9v-13.1h4.4v13.1zm4.4-13.1v-4.4h13.1v4.4zm0 17.4v-4.4h13.1v4.4zm13.1-4.4v-13h4.4v13.1h-4.4zm26.1-17.3v4.4h-8.7v17.4h-4.4v-26.2h4.4v4.4zm-8.7-4.4v-4.4h8.7v4.4zm43.6 4.4v4.4h-8.701v13.1h-4.399v-26.2h4.399v8.7zm-8.701 21.8v-4.4h8.701v4.4zm26.101-17.5v4.4h-4.4v13.1h-4.4v-30.5h4.4v13.1h4.4zm0 0v-4.4h8.7v4.4zm8.7 17.4v-17.4h4.4v17.4zm30.6-13v4.4h-13.1v4.4h-4.4v-13.2h4.4v4.4zm-13.1-4.4v-4.4h13.1v4.4zm0 17.4v-4.4h13.1v4.4zm13.1-13.1v-4.4h4.4v4.4zm26.099-13v-4.4h4.401v4.4zm0 26.2v-21.8h4.401v21.8zm13.101 0v-17.5h4.399v17.4h-4.399zm4.399-17.4v-4.4h13.101v4.4zm13.101 17.4v-17.5h4.399v17.4h-4.399zm26.1-13.1v4.4h-8.701v8.7h-4.399v-30.5h4.399v17.4zm0 0v-4.4h4.4v4.4zm0 8.7v-4.3h4.4v4.4h-4.4zm4.4-13.1v-4.4h4.399v4.4zm0 17.4v-4.4h4.399v4.4zm30.5-13v4.4h-13.101v4.4h-4.399v-13.2h4.399v4.4zm-13.101-4.4v-4.4h13.101v4.4zm0 17.4v-4.4h13.101v4.4zm13.101-13v-4.4h4.399v4.4zm15.2 8.7h-4.4v-13.1h4.4zm17.4 4.4h-17.4v-4.4h13.1v-13.1h-13.1v-4.4h13.1v-8.7h4.4v30.5zm21.799-4.4v-4.3h4.401v4.4h-4.401zm4.401-13.1v-4.4h13.099v4.4zm0 17.4v-4.4h13.099v-4.2h-13.099v-4.4h13.099v-4.4h4.401v17.4zm34.9-17.4v4.4h-4.4v13.1h-4.3v-21.8h4.399v4.4h4.401zm0 0v-4.4h8.699v4.4zm32.699 4.4v4.4h-13.099v4.4h-4.401v-13.2h4.401v4.4zm-13.099-4.4v-4.4h13.099v4.4zm0 17.4v-4.4h13.099v4.4zm13.099-13.1v-4.4h4.401v4.4zm8.701 8.8v-4.3h4.4v4.4h-4.4zm4.4-13.1v-4.4h13.1v4.4zm0 17.4v-4.4h13.1v-4.2h-13.1v-4.4h13.1v-4.4h4.4v17.4zm39.2-26.1v-4.4h4.3v4.4h-4.4zm0 26.2v-21.8h4.3v21.8h-4.4zm13.1-13.1v-4.4h4.4v4.4zm0 13.1v-4.4h13.099v4.4zm4.4-17.4v-4.4h13.1v4.4h-13.2zm0 8.7v-4.4h8.699v4.4zm8.699 4.4v-4.4h4.401v4.4zm26.101-.1v-26.1h4.399v26.2h-4.399zm4.399 4.4v-4.4h4.401v4.4zm28.301-13.1v4.4h-13.1v4.4h-4.4v-13.2h4.4v4.4zm-13.1-4.4v-4.4h13.1v4.4zm0 17.4v-4.4h13.1v4.4zm13.1-13.1v-4.4h4.3v4.4h-4.4zm24-8.6v4.4h-8.7v17.4h-4.4v-26.2h4.4v4.4zm-8.7-4.4v-4.4h8.7v4.4zm28.3 4.4v4.4h-8.7v13.1h-4.4v-26.2h4.4v8.7zm-8.7 21.8v-4.4h8.7v4.4zm30.5-4.4v-13.1h4.4v13.1zm4.4-13.1v-4.4h13.1v4.4h-13.201zm0 17.4v-4.4h13.1v4.4h-13.201zm13.1-4.4v-13h4.4v13.1h-4.4zm13 4.5v-17.5h4.4v17.4h-4.4zm4.4-17.4v-4.4h13v4.4h-13.101zm13 17.4v-17.5h4.399v17.4h-4.399zm39.3-21.8v4.4h-8.7v13.1h-4.4v-26.2h4.4v8.7zm-8.7 21.8v-4.4h8.7v4.4zm26.1-17.5v4.4h-4.4v13.1h-4.3v-30.5h4.399v13.1h4.401zm0 0v-4.4h8.699v4.4zm8.699 17.4v-17.4h4.401v17.4zm30.5-13v4.4h-13.099v4.4h-4.401v-13.2h4.401v4.4zm-13.099-4.4v-4.4h13.099v4.4zm0 17.4v-4.4h13.099v4.4zm13.099-13.1v-4.4h4.401v4.4zm43.601-8.6v4.4h-13.101v13.1h13.101v4.4h-17.4v-30.6h4.4v8.7h13.1zm0 17.4v-13.1h4.399v13.1zm13.1 0v-26.1h4.4v26.2h-4.4zm4.4 4.4v-4.4h4.399v4.4zm10.899-4.4v-13.1h4.401v13.1zm4.401-13.1v-4.4h13.099v4.4h-13.199zm0 17.4v-4.4h13.099v4.4h-13.199zm13.099-4.4v-13h4.401v13.1h-4.401zm13 .1v-13.1h4.401v13.1zm4.401-13.1v-4.4h13.099v4.4h-13.199zm0 17.4v-4.4h13.099v4.4h-13.199zm34.8-13v4.4h-8.701v8.7h-4.399v-30.5h4.399v17.4zm0 0v-4.4h4.4v4.4zm0 8.7v-4.3h4.4v4.4h-4.4zm4.4-13.1v-4.4h4.399v4.4zm0 17.4v-4.4h4.399v4.4zm13 .1v-4.4h4.399v4.4zm39.3-26.2v26.2h-4.401v-26.2h-8.699v-4.4h21.8v4.4zm23.9 8.7v4.4h-4.4v13.1h-4.401v-30.5h4.401v13.1h4.4zm0 0v-4.4h8.699v4.4zm8.699 17.4v-17.4h4.401v17.4h-4.3zm30.601-13v4.4h-13.101v4.4h-4.399v-13.2h4.399v4.4zm-13.101-4.4v-4.4h13.101v4.4zm0 17.4v-4.4h13.101v4.4zm13.101-13.1v-4.4h4.399v4.4zm43.6.1v4.4h-13.1v4.4h-4.4v-13.2h4.4v4.4zm-13.1-4.4v-4.4h13.1v4.4zm0 17.4v-4.4h13.1v4.4zm13.1-13.1v-4.4h4.4v4.4zm10.9 13.2v-17.5h4.399v17.4h-4.399zm4.399-17.4v-4.4h13.101v4.4zm13.101 17.4v-17.5h4.399v17.4h-4.399zm13-8.7v-4.4h13.1v4.4zm-1072.4 56.6v-13.1h4.4v13.1zm4.4-13.1v-4.4h13.1v4.4zm13.1 21.8v-4.3h-13.1v-4.4h13.1v-13.1h4.4v21.8zm-13.1 4.4v-4.4h13.1v4.4zm34.899-26.2v4.4h-4.399v13.1h-4.4v-21.8h4.4v4.4h4.399zm0 0v-4.4h8.701v4.4zm13 13.1v-4.4h4.401v4.4zm4.401-13.1v-4.4h13.099v4.4zm0 17.4v-4.4h13.099v-4.4h-13.099v-4.4h13.099v-4.4h4.401v17.7h-17.5zm24-8.6v-13.1h4.4v13.1zm4.4 4.4v-4.4h4.4v4.4zm4.4 4.4v-4.4h4.4v4.3h-4.4zm4.4-4.4v-4.4h4.399v4.4zm4.399-4.4v-13.1h4.401v13.1zm12.901-17.5v-4.4h4.4v4.4zm0 26.2v-21.8h4.4v21.8zm13.099 0v-17.5h4.401v17.5zm4.401-17.4v-4.4h13.099v4.4h-13.199zm13 17.4v-17.5h4.4v17.5zm13.099-4.4v-13.1h4.401v13.1zm4.401-13.1v-4.4h13.099v4.4h-13.199zm13.099 21.8v-4.3h-13.199v-4.4h13.1v-13.1h4.4v21.8h-4.4zm-13.099 4.4v-4.4h13.099v4.4h-13.199zm43.5-30.5v17.4h-4.401v-17.4zm13.099 17.4v4.4h-13.099v-4.4zm4.401-17.4v17.4h-4.401v-17.4zm8.7 8.7v-4.4h4.399v4.4zm0 13.1v-4.4h13.1v4.4zm4.399-17.4v-4.4h13.101v4.4h-13.2zm0 8.7v-4.4h8.701v4.4zm8.701 4.4v-4.4h4.4v4.4zm30.5-8.8v4.4h-13.1v4.4h-4.4v-13.2h4.4v4.4zm-13.1-4.4v-4.4h13.1v4.4zm0 17.4v-4.4h13.1v4.5h-13.1zm13.1-13.1v-4.4h4.4v4.4zm10.9.1v-4.4h4.399v4.4zm0 13.1v-4.4h13.1v4.4zm4.399-17.4v-4.4h13.101v4.4h-13.2zm0 8.7v-4.4h8.701v4.4zm8.701 4.4v-4.4h4.4v4.4zm26.1-.1v-4.4h4.4v4.4zm4.4-13.1v-4.4h13.1v4.4zm0 17.4v-4.4h13.1v-4.4h-13.1v-4.4h13.1v-4.4h4.4v17.7h-17.5zm39.2-13v-4.4h4.4v4.4zm0 13.1v-4.4h13.099v4.4zm4.4-17.4v-4.4h13.1v4.4zm0 8.7v-4.4h8.699v4.4zm8.699 4.4v-4.4h4.401v4.4zm30.5-8.8v4.4h-13.099v4.4h-4.401v-13.2h4.401v4.4zm-13.099-4.4v-4.4h13.099v4.4zm0 17.4v-4.4h13.099v4.5h-13.099zm13.099-13.1v-4.4h4.401v4.4zm24-8.6v4.4h-8.699v13.1h-4.4v-26.2h4.4v8.7zm-8.799 21.8v-4.4h8.7v4.4zm30.6-4.4v-13.1h4.3v13.1h-4.4zm4.4-13.1v-4.4h13.1v4.4h-13.2zm0 17.4v-4.4h13.1v4.5h-13.2zm13.1-4.4v-13h4.4v13.1h-4.4zm26.1-17.3v4.4h-8.7v17.4h-4.4v-26.2h4.4v4.4zm-8.7-4.4v-4.4h8.7v4.4zm30.4 13.1v-4.4h4.399v4.4zm0 13.1v-4.4h13.1v4.4zm4.399-17.4v-4.4h13.101v4.4zm0 8.7v-4.4h8.701v4.4zm8.701 4.4v-4.4h4.4v4.4zm21.799-13.2v4.4h-4.399v13.1h-4.4v-30.5h4.4v13.1h4.399zm0 0v-4.4h8.701v4.4zm8.701 17.4v-17.4h4.4v17.5h-4.4zm10.9-4.3v-4.4h4.399v4.4zm4.399-13.1v-4.4h13.101v4.4zm0 17.4v-4.4h13.101v-4.4h-13.101v-4.4h13.101v-4.4h4.399v17.7h-17.5zm34.901-17.4v4.4h-4.401v13.1h-4.399v-21.8h4.399v4.4h4.401zm0 0v-4.4h8.7v4.4zm19.599 0v13.1h13.101v4.4h-13.101v8.7h-4.399v-30.5h17.399v4.4h-13zm13.101 13.1v-13.1h4.399v13.1zm13-4.3v-4.4h13.1v4.4zm39.3-4.4v4.4h-13.1v4.4h-4.4v-13.2h4.4v4.4zm-13.1-4.4v-4.4h13.1v4.4zm0 17.4v-4.4h13.1v4.5h-13.1zm13.1-13.1v-4.4h4.4v4.4zm15.2 8.8h-4.4v-13.1h4.4zm17.399 4.4h-17.399v-4.4h13.1v-13.1h-13.1v-4.4h13.1v-8.7h4.4v30.6zm8.801-4.4v-13.1h4.4v13.1zm4.4-13.1v-4.4h13.1v4.4h-13.2zm13.1 21.8v-4.3h-13.2v-4.4h13.1v-13.1h4.4v21.8h-4.4zm-13.1 4.4v-4.4h13.1v4.4h-13.2zm43.5-21.8v4.4h-13v4.4h-4.4v-13.2h4.4v4.4h13.1zm-13.1-4.4v-4.4h13.1v4.4h-13zm0 17.4v-4.4h13.1v4.5h-13zm13.1-13.1v-4.4h4.4v4.4zm15.299 8.8h-4.399v-13.1h4.399zm17.401 4.4h-17.401v-4.4h13.101v-13.1h-13.101v-4.4h13.101v-8.7h4.399v30.6zm34.9-21.8v4.4h-8.7v13.1h-4.4v-26.2h4.4v8.7zm-8.7 21.8v-4.4h8.7v4.4zm17.399-4.4v-13.1h4.401v13.1zm4.401-13.1v-4.4h13.099v4.4zm0 17.4v-4.4h13.099v4.5h-13.099zm13.099-4.4v-13h4.401v13.1h-4.401zm13 .1v-13.1h4.401v13.1zm4.401-13.1v-4.4h13.099v4.4zm0 17.4v-4.4h13.099v4.5h-13.099zm13.099-4.4v-13h4.401v13.1h-4.401zm13 .1v-26.1h4.401v26.2h-4.401zm4.401 4.4v-4.4h4.4v4.4zm10.9-13.1v-4.4h4.4v4.4zm0 13.1v-4.4h13.1v4.4zm4.4-17.4v-4.4h13.1v4.4zm0 8.7v-4.4h8.7v4.4zm8.7 4.4v-4.4h4.4v4.4zm39.2-17.5v4.4h-8.7v13.1h-4.401v-26.2h4.401v8.7zm-8.7 21.8v-4.4h8.7v4.4zm17.4-4.4v-13.1h4.4v13.1zm4.4-13.1v-4.4h13.1v4.4zm0 17.4v-4.4h13.1v4.5h-13.1zm13.1-4.4v-13h4.4v13.1h-4.4zm10.9 4.5v-4.4h4.4v4.4zm10.9 0v-4.4h4.399v4.4zm10.899 0v-4.4h4.401v4.4z"/></svg>