<svg viewBox="0 0 14400 720" xmlns="http://www.w3.org/2000/svg"><path d="M0 0h1440v720H0Z" fill="#eae3d8"/><path d="M407.07 329.76v20.19h30.29v10.1h-30.29v30.29h-10.1v-70.67h40.38v10.1h-30.28Zm30.29 20.19v-20.19h10.1v20.19h-10.1ZM457.54 380.24v-10.1h10.1v10.1h-10.1Zm10.1-30.29v-10.1h30.29v10.1h-30.29Zm0 40.38v-10.1h30.29v-10.1h-30.29v-10.09h30.29v-10.1h10.1v40.38h-40.39ZM548.39 349.95v10.1h-10.1v30.29h-10.1v-50.48h10.1v10.1h10.1Zm0 0v-10.1h20.19v10.1h-20.19ZM614.01 339.86v10.1h-20.19v30.29h-10.1v-60.57h10.1v20.19h20.19Zm-20.19 50.47v-10.1h20.19v10.1h-20.19ZM634.2 329.76v-10.1h10.1v10.1h-10.1Zm0 60.57v-50.48h10.1v50.48h-10.1ZM694.76 339.86v10.1h-20.19v30.29h-10.09v-60.57h10.09v20.19h20.19Zm-20.19 50.47v-10.1h20.19v10.1h-20.19ZM709.9 380.24v-10.1H720v10.1h-10.1Zm10.1-30.29v-10.1h30.29v10.1H720Zm0 40.38v-10.1h30.29v-10.1H720v-10.09h30.29v-10.1h10.1v40.38H720ZM780.57 380.24v-10.1h10.09v10.1h-10.09Zm4.03-4.04h2.02v-2.02h-2.02v2.02Zm6.06-26.25v-10.1h30.29v10.1h-30.29Zm0 40.38v-10.1h30.29v-10.1h-30.29v-10.09h30.29v-10.1h10.09v40.38h-40.38Zm4.04-44.42h22.21v-2.02H794.7v2.02Zm30.28 18.18H794.7v2.02h30.29v18.17H794.7v2.02H827V354h-2.02v10.09ZM851.23 380.24v-10.1h10.1v10.1h-10.1Zm2.02-2.02h6.06v-6.06h-6.06v6.06Zm2.02-2.02v-2.02h2.02v2.02h-2.02Zm6.05-26.25v-10.1h30.29v10.1h-30.29Zm0 40.38v-10.1h30.29v-10.1h-30.29v-10.09h30.29v-10.1h10.1v40.38h-40.39Zm2.02-42.4h26.25v-6.06h-26.25v6.06Zm30.29 14.14h-30.29v6.06h30.29v14.13h-30.29v6.06h36.34v-36.34h-6.06v10.09Zm-28.27-16.16v-2.02h22.21v2.02h-22.21Zm0 40.38v-2.02h30.29V366.1h-30.29v-2.02h30.29v-10.1h2.02v32.3h-32.31ZM921.89 380.24v-10.1h10.09v10.1h-10.09Zm3.03-3.03h4.04v-4.04h-4.04v4.04Zm7.06-27.26v-10.1h30.29v10.1h-30.29Zm0 40.38v-10.1h30.29v-10.1h-30.29v-10.09h30.29v-10.1h10.09v40.38h-40.38Zm3.03-43.41h24.23v-4.04h-24.23v4.04Zm30.29 16.16h-30.29v4.04h30.29v16.15h-30.29v4.04h34.32v-34.32h-4.04v10.09ZM992.55 380.24v-10.1h10.09v10.1h-10.09Zm2.02-2.02h6.06v-6.06h-6.06v6.06Zm8.07-28.27v-10.1h30.29v10.1h-30.29Zm0 40.38v-10.1h30.29v-10.1h-30.29v-10.09h30.29v-10.1h10.09v40.38h-40.38Zm2.02-42.4h26.25v-6.06h-26.25v6.06Zm30.29 14.14h-30.29v6.06h30.29v14.13h-30.29v6.06H1041v-36.34h-6.06v10.09ZM1440 0h1440v720H1440Z"/><path d="M1872.2 466.37v-70h10v70h-10ZM1902.2 466.37v-40h10v40h-10Zm10-40v-10h30v10h-30Zm30 40v-40h10v40h-10ZM1972.2 436.37v-10h10v10h-10Zm0 30v-10h30v10h-30Zm10-40v-10h30v10h-30Zm0 20v-10h20v10h-20Zm20 10v-10h10v10h-10ZM2072.2 436.37v10h-30v10h-10v-30h10v10h30Zm-30-10v-10h30v10h-30Zm0 40v-10h30v10h-30Zm30-30v-10h10v10h-10ZM2117.2 426.37v10h-10v30h-10v-50h10v10h10Zm0 0v-10h20v10h-20ZM2182.2 416.37v10h-20v30h-10v-60h10v20h20Zm-20 50v-10h20v10h-20ZM2232.2 456.37v-50h10v50h-10Zm10-50v-10h30v10h-30Zm0 60v-10h30v10h-30Zm30-50v-10h10v10h-10Zm0 40v-10h10v10h-10ZM2302.2 456.37v-30h10v30h-10Zm10-30v-10h30v10h-30Zm0 40v-10h30v10h-30Zm30-10v-30h10v30h-10ZM2372.2 406.37v-10h10v10h-10Zm0 60v-50h10v50h-10ZM2402.19 466.37v-40h10v40h-10Zm10.01-40v-10h30v10h-30Zm30 40v-40h10v40h-10ZM1873.05 518.46v10.5h15.75v5.25h-15.75v15.75h-5.25v-36.74h21v5.25h-15.75Zm15.75 10.5v-10.5h5.25v10.5h-5.25ZM1907.17 518.46v10.5h15.75v5.25h-5.25v5.25h-5.25v-5.25h-5.25v15.75h-5.25v-36.74h21v5.25h-15.75Zm10.5 26.24v-5.25h5.25v5.25h-5.25Zm5.25-15.74v-10.5h5.25v10.5h-5.25Zm0 20.99v-5.25h5.25v5.25h-5.25ZM1943.91 518.46v10.5h15.75v5.25h-15.75v10.5h20.94v5.25h-26.19v-36.74h26.25v5.25h-21ZM1975.4 528.96v-10.5h5.25v10.5h-5.25Zm0 15.74v-5.25h5.25v5.25h-5.25Zm5.25-26.24v-5.25h15.75v5.25h-15.75Zm0 15.75v-5.25h15.75v5.25h-15.75Zm0 15.74v-5.25h15.75v5.25h-15.75Zm15.75-26.24v-5.25h5.25v5.25h-5.25Zm0 20.99v-10.5h5.25v10.5h-5.25ZM2012.15 528.96v-10.5h5.25v10.5h-5.25Zm0 15.74v-5.25h5.25v5.25h-5.25Zm5.25-26.24v-5.25h15.75v5.25h-15.75Zm0 15.75v-5.25h15.75v5.25h-15.75Zm0 15.74v-5.25h15.75v5.25h-15.75Zm15.74-26.24v-5.25h5.25v5.25h-5.25Zm0 20.99v-10.5h5.25v10.5h-5.25ZM2064.64 528.96v-10.5h5.25v10.5h-5.25Zm0 15.74v-5.25h5.25v5.25h-5.25Zm5.24-26.24v-5.25h15.75v5.25h-15.75Zm0 15.75v-5.25h15.75v5.25h-15.75Zm0 15.74v-5.25h15.75v5.25h-15.75Zm15.75-26.24v-5.25h5.25v5.25h-5.25Zm0 20.99v-10.5h5.25v10.5h-5.25ZM2114.5 518.46v31.49h-5.25v-31.49h-10.5v-5.25H2125v5.25h-10.5ZM2153.87 549.95v-10.5h-15.75v10.5h-5.25v-31.49h5.25v15.75h15.75v-15.75h5.25v31.49h-5.25Zm-15.75-31.49v-5.25h15.75v5.25h-15.75ZM2174.86 518.46v10.5h15.75v5.25h-5.25v5.25h-5.25v-5.25h-5.25v15.75h-5.25v-36.74h21v5.25h-15.75Zm10.5 26.24v-5.25h5.25v5.25h-5.25Zm5.25-15.74v-10.5h5.25v10.5h-5.25Zm0 20.99v-5.25h5.25v5.25h-5.25ZM2219.48 518.46v31.49h-5.25v-31.49h-10.5v-5.25h26.24v5.25h-10.49ZM2271.97 518.46v31.49h-5.25v-31.49h-10.5v-5.25h26.24v5.25h-10.49ZM2290.34 544.7v-26.24h5.25v26.24h-5.25Zm5.25-26.24v-5.25h15.75v5.25h-15.75Zm0 31.49v-5.25h15.75v5.25h-15.75Zm15.74-5.25v-26.24h5.25v26.24h-5.25ZM2342.83 549.95v-5.25h10.5v5.25h-10.5Zm10.49-5.25v-26.24h-5.25v-5.25h10.5v31.49h-5.25ZM2369.07 544.7v-26.24h5.25v26.24h-5.25Zm5.25-26.24v-5.25h15.75v5.25h-15.75Zm0 31.49v-5.25h15.75v5.25h-15.75Zm15.75-5.25v-26.24h5.25v26.24h-5.25ZM2405.81 549.95v-36.74h5.25v36.74h-5.25ZM2432.06 518.46v5.25h-5.25v26.24h-5.25v-36.74h5.25v5.25h5.25Zm0 10.5v-5.25h5.25v5.25h-5.25Zm10.49 20.99V534.2h-5.25v-5.25h5.25V513.2h5.25v36.74h-5.25ZM1869.72 308.92v-10.09h10.09v10.09h-10.09Zm50.44 40.34v10.09h-50.44v-20.17h10.09v10.09h40.35Zm-40.35-50.43v-10.09h30.26v10.09h-30.26Zm0 40.35v-10.09h10.09v10.09h-10.09Zm10.08-10.09V319h20.17v10.09h-20.17Zm20.18-10.09v-20.17h10.09V319h-10.09ZM1950.41 298.83V319h-10.09v-30.26h50.44v10.09h-40.35Zm-10.08 50.43v-10.09h10.09v10.09h-10.09Zm10.08-20.17V319h30.26v10.09h-30.26Zm0 30.26v-10.09h30.26v10.09h-30.26Zm30.27-10.09v-20.17h10.09v20.17h-10.09ZM2010.94 349.26v-50.44h10.09v50.44h-10.09Zm10.08-50.43v-10.09h30.26v10.09h-30.26Zm0 60.52v-10.09h30.26v10.09h-30.26Zm10.09-30.26V319h10.09v10.09h-10.09Zm20.17 20.17v-50.44h10.09v50.44h-10.09ZM2076.5 319v-10.09h10.09V319h-10.09Zm20.18 40.35v-50.44h-10.09v-10.09h10.09v-10.09h10.09v70.61h-10.09ZM2162.24 319v-20.17h-40.35v-10.09h50.44V319h-10.09Zm-30.26 40.35v-20.17h10.09v20.17h-10.09Zm10.09-20.17v-10.09h10.09v10.09h-10.09Zm10.09-10.09V319h10.09v10.09h-10.09ZM2197.55 298.83V319h-10.09v-20.17h10.09Zm0 40.35v10.09h-10.09v-10.09h10.09Zm30.26-50.44v10.09h-30.26v-10.09h30.26Zm-30.26 40.35V319h30.26v-20.17h10.09v50.44h-10.09V329.1h-30.26Zm30.26 20.17v10.09h-30.26v-10.09h30.26ZM2298.41 319v30.26h30.26v10.09h-30.26v20.17h-10.09v-70.61h40.35V319h-30.26Zm30.27 30.26V319h10.09v30.26h-10.09ZM2389.2 308.92V319h-20.17v30.26h-10.09v-60.52h10.09v20.17h20.17Zm-20.18 50.43v-10.09h20.17v10.09h-20.17ZM2409.37 329.09V319h10.09v10.09h-10.09Zm0 30.26v-10.09h30.26v10.09h-30.26Zm10.09-40.35v-10.09h30.26V319h-30.26Zm0 20.18v-10.09h20.17v10.09h-20.17Zm20.17 10.08v-10.09h10.09v10.09h-10.09ZM1871.17 231.64v-51.32h10.26v51.32h-10.26Zm10.26-51.33v-10.26h30.79v10.26h-30.79Zm0 61.59v-10.27h30.79v10.27h-30.79Zm30.8-10.26v-20.53h-10.26v-10.26h20.53v30.79h-10.27Zm0-41.06v-10.27h10.27v10.27h-10.27ZM1984.09 241.9v-20.53h-30.79v20.53h-10.26v-61.59h10.26v30.79h30.79v-30.79h10.27v61.59h-10.27Zm-30.8-61.59v-10.26h30.79v10.26h-30.79ZM2035.41 180.31v10.27h-10.27v51.32h-10.26v-71.85h10.26v10.26h10.27Zm0 20.53v-10.27h10.27v10.27h-10.27Zm20.53 41.06v-51.32h-10.26v-10.27h10.26v-10.26h10.27v71.85h-10.27ZM2097.01 180.31v20.53h30.79v10.26h-30.79v20.53h40.96v10.27h-51.22v-71.85h51.32v10.26h-41.06ZM2189.4 231.64v-51.32h10.27v51.32h-10.27Zm10.26-51.33v-10.26h30.79v10.26h-30.79Zm0 61.59v-10.27h30.79v10.27h-30.79Zm30.8-10.26v-51.32h10.27v51.32h-10.27ZM2256.13 200.84v-30.79h10.27v30.79h-10.27Zm10.26 20.53v-20.53h10.26v20.53h-10.26Zm10.26 20.53v-20.53h10.27v20.53h-10.27Zm10.27-20.53v-20.53h10.27v20.53h-10.27Zm10.26-20.53v-30.79h10.27v30.79h-10.27ZM2338.25 180.31v20.53h30.79v10.26h-30.79v20.53h40.96v10.27h-51.22v-71.85h51.32v10.26h-41.06ZM2410.11 180.31v20.53h30.79v10.26h-10.27v10.27h-10.27V211.1h-10.26v30.79h-10.27v-71.85h41.06v10.26h-30.78Zm20.53 51.33v-10.26h10.27v10.26h-10.27Zm10.26-30.8v-20.53h10.27v20.53h-10.27Zm0 41.06v-10.27h10.27v10.27h-10.27Z" fill="#e6e6e6"/><path d="M2880 0h1440v720H2880Z" fill="#eae3d8"/><path d="m3175.85 257.32 3.29-14.93h14.93l-3.28 14.93h-14.94Zm3.73-2.98h8.96l1.79-8.96h-8.96l-1.79 8.96Zm5.82-41.8 6.42-29.86h14.93l-6.42 29.86h-14.93Zm2.24 59.71 3.14-14.93h44.79l-3.13 14.93h-44.8Zm1.49-62.7h8.96l5.08-23.89h-8.96l-5.08 23.89Zm2.09 59.72h38.82l1.94-8.96h-38.82l-1.94 8.96Zm5.97-41.81 3.14-14.93h44.79l-3.13 14.93h-44.8Zm3.59-2.98h38.82l1.94-8.96h-38.82l-1.94 8.96Zm5.97-41.8 3.14-14.93h44.79l-3.13 14.93h-44.8Zm3.58-2.99h38.82l1.94-8.96h-38.82l-1.94 8.96Zm25.23 77.63 6.42-29.86h14.93l-6.42 29.86h-14.93Zm3.74-2.98h8.96l5.08-23.89h-8.96l-5.08 23.89Zm9.1-56.73 3.13-14.93h14.93l-3.13 14.93h-14.93Zm3.59-2.99h8.96l1.94-8.96h-8.96l-1.94 8.96ZM3280.5 257.32l19.11-89.58h14.93l-19.11 89.58h-14.93Zm3.59-2.98h8.96l17.77-83.6h-8.96l-17.77 83.6Zm8.21 17.91 3.13-14.93h44.79l-3.14 14.93h-44.78Zm3.58-2.98h38.82l1.94-8.96h-38.82l-1.94 8.96Zm44.34-11.95 19.11-89.58h14.93l-19.11 89.58h-14.93Zm3.58-2.98h8.96l17.77-83.6h-8.96l-17.77 83.6ZM3415.92 182.68l-6.42 29.86h44.79l-3.14 14.93h-44.79l-9.55 44.79h-14.93l22.25-104.5h59.72l-3.14 14.93h-44.79Zm-30.46 86.59h8.96l9.55-44.79h44.79l1.94-8.96h-44.79l7.61-35.83h44.79l1.94-8.96h-53.75l-21.04 98.54Zm68.82-56.73 6.42-29.86h14.93l-6.42 29.86h-14.93Zm3.74-2.99h8.96l5.08-23.89h-8.96l-5.08 23.89ZM3513.11 182.68l-6.42 29.86h44.79l-3.13 14.93h-44.79l-6.42 29.86h59.57l-3.14 14.93h-74.5l22.25-104.5h74.65l-3.13 14.93h-59.73Zm-30.46 86.59h68.53l1.94-8.96h-59.57l7.61-35.83h44.79l1.94-8.96h-44.79l7.61-35.83h59.72l1.94-8.96h-68.67l-21.05 98.54ZM3617.77 182.68l-6.42 29.86h44.79l-3.14 14.92h-14.93l-3.14 14.93H3620l3.13-14.93h-14.93l-9.55 44.79h-14.93l22.25-104.5h59.72l-3.14 14.93h-44.78Zm-30.46 86.59h8.96l9.55-44.79h20.9l-3.13 14.93h8.96l3.14-14.93h14.93l1.94-8.96h-44.79l7.61-35.83h44.79l1.94-8.96h-53.74l-21.06 98.54Zm44.34-11.95 3.28-14.93h14.93l-3.28 14.93h-14.93Zm3.73-2.98h8.96l1.79-8.96h-8.96l-1.79 8.96Zm8.06 17.91 3.14-14.93h14.93l-3.13 14.93h-14.94Zm3.59-2.98h8.96l1.94-8.96h-8.96l-1.94 8.96Zm9.1-56.73 6.42-29.86h14.93l-6.42 29.86h-14.93Zm3.74-2.99h8.96l5.08-23.89h-8.96l-5.08 23.89ZM3224.81 322.68l-3.13 14.93h-14.93l-15.97 74.65h-14.93l22.24-104.5h14.93l-3.14 14.93h14.93Zm-45.38 86.59h8.96l15.97-74.65h14.93l1.94-8.96h-14.93l3.14-14.93h-8.96l-21.05 98.54Zm38.96-56.74 3.29-14.93h14.93l-3.28 14.93h-14.94Zm3.74-2.98h8.96l1.79-8.96h-8.96l-1.79 8.96Zm13.43 62.7 9.55-44.79h-14.93l3.14-14.93h14.93l9.55-44.79h14.93l-22.25 104.5h-14.92Zm15.08-56.73h-14.93l-1.94 8.96h14.93l-9.55 44.79h8.96l21.05-98.53h-8.96l-9.56 44.78ZM3283.49 397.32l15.97-74.65h14.93l-15.97 74.65h-14.93Zm3.73-2.98h8.96l14.63-68.67h-8.96l-14.63 68.67Zm8.06 17.91 3.14-14.93h44.79l-3.13 14.93h-44.8Zm3.59-2.98h38.82l1.94-8.96h-38.82l-1.94 8.96Zm15.52-86.59 3.14-14.93h44.79l-3.13 14.93h-44.8Zm3.59-2.99h38.82l1.94-8.96h-38.82l-1.94 8.96Zm25.23 77.63 15.97-74.65h14.93l-15.97 74.65h-14.93Zm3.73-2.98h8.96l14.63-68.67h-8.96l-14.63 68.67ZM3388.15 397.32l3.28-14.93h14.93l-3.29 14.93h-14.92Zm3.73-2.98h8.96l1.79-8.96h-8.96l-1.79 8.96Zm5.82-41.81 6.42-29.86h14.93l-6.42 29.86h-14.93Zm2.24 59.72 3.13-14.93h44.79l-3.14 14.93h-44.78Zm1.49-62.7h8.96l5.08-23.89h-8.96l-5.08 23.89Zm2.09 59.72h38.82l1.94-8.96h-38.82l-1.94 8.96Zm5.98-41.81 3.13-14.93h44.79l-3.14 14.93h-44.78Zm3.58-2.98h38.82l1.94-8.96h-38.82l-1.94 8.96Zm5.97-41.8 3.13-14.93h44.79l-3.14 14.93h-44.78Zm3.58-2.99h38.82l1.94-8.96h-38.82l-1.94 8.96Zm25.23 77.63 6.42-29.86h14.93l-6.42 29.86h-14.93Zm3.74-2.98h8.96l5.08-23.89h-8.96l-5.08 23.89Zm9.1-56.73 3.13-14.93h14.93l-3.13 14.93h-14.93Zm3.59-2.99h8.96l1.94-8.96h-8.96l-1.94 8.96ZM3545.95 322.68l-18.96 89.58h-14.93l18.96-89.58h-29.86l3.28-14.93h74.65l-3.28 14.93h-29.86Zm-41.05-2.99h29.86l-19.11 89.58h8.96l19.11-89.58h29.86l1.79-8.96h-68.67l-1.8 8.96ZM3638.97 412.25l6.27-29.86h-44.79l-6.27 29.86h-14.93l19.11-89.58h14.93l-9.55 44.79h44.79l9.55-44.79h14.93l-19.11 89.58h-14.93Zm11.79-41.8H3600l9.55-44.79h-8.96l-17.77 83.6h8.96l6.42-29.86h50.76l-6.42 29.86h8.96l17.77-83.6h-8.96l-9.55 44.79Zm-37.47-47.77 3.13-14.93h44.79l-3.14 14.93h-44.78Zm3.58-2.99h38.82l1.94-8.96h-38.82l-1.94 8.96ZM3761.69 397.32l-3.13 14.93h-74.65l22.24-104.5h14.93l-19.11 89.58h59.72Zm-74.2 11.95h68.67l1.94-8.96h-59.72l19.11-89.58h-8.96l-21.04 98.54ZM3784.09 397.32l15.97-74.65h14.93l-15.97 74.65h-14.93Zm3.73-2.98h8.96l14.63-68.67h-8.96l-14.63 68.67Zm8.06 17.91 3.13-14.93h44.79l-3.14 14.93h-44.78Zm3.59-2.98h38.82l1.94-8.96h-38.82l-1.94 8.96Zm15.52-86.59 3.13-14.93h44.79l-3.14 14.93h-44.78Zm3.59-2.99h38.82l1.94-8.96h-38.82l-1.94 8.96Zm25.23 77.63 6.42-29.86h-14.93l3.13-14.93h29.86l-9.55 44.79h-14.93Zm-4.93-32.84h14.93l-6.27 29.86h8.96l8.21-38.82h-23.89l-1.94 8.96Zm17.77-26.87 3.13-14.93h14.93l-3.14 14.93h-14.92Zm3.58-2.99h8.96l1.94-8.96h-8.96l-1.94 8.96ZM3885.61 412.25l22.25-104.5h14.93l-22.24 104.5h-14.94Zm3.58-2.98h8.96l21.05-98.53h-8.96l-21.05 98.53ZM3990.11 412.25l6.27-29.86h-44.79l-6.27 29.86h-14.93l19.11-89.58h14.93l-9.55 44.79h44.79l9.55-44.79h14.93l-19.11 89.58h-14.93Zm11.8-41.8h-50.76l9.55-44.79h-8.96l-17.77 83.6h8.96l6.42-29.86h50.76l-6.42 29.86h8.96l17.77-83.6h-8.96l-9.55 44.79Zm-37.47-47.77 3.13-14.93h44.79l-3.13 14.93h-44.79Zm3.58-2.99h38.82l1.94-8.96h-38.82l-1.94 8.96ZM3175.85 537.32l3.29-14.93h14.93l-3.28 14.93h-14.94Zm3.73-2.98h8.96l1.79-8.96h-8.96l-1.79 8.96Zm5.82-41.8 6.42-29.86h14.93l-6.42 29.86h-14.93Zm2.24 59.71 3.14-14.93h44.79l-3.13 14.93h-44.8Zm1.49-62.7h8.96l5.08-23.89h-8.96l-5.08 23.89Zm2.09 59.72h38.82l1.94-8.96h-38.82l-1.94 8.96Zm5.97-41.81 3.14-14.93h44.79l-3.13 14.93h-44.8Zm3.59-2.98h38.82l1.94-8.96h-38.82l-1.94 8.96Zm5.97-41.8 3.14-14.93h44.79l-3.13 14.93h-44.8Zm3.58-2.99h38.82l1.94-8.96h-38.82l-1.94 8.96Zm25.23 77.63 6.42-29.86h14.93l-6.42 29.86h-14.93Zm3.74-2.98h8.96l5.08-23.89h-8.96l-5.08 23.89Zm9.1-56.73 3.13-14.93h14.93l-3.13 14.93h-14.93Zm3.59-2.99h8.96l1.94-8.96h-8.96l-1.94 8.96ZM3285.73 477.61l6.42-29.86h14.93l-6.42 29.86h-14.93Zm3.73-2.99h8.96l5.08-23.89h-8.96l-5.08 23.89Zm4.93 32.84 6.27-29.86h14.93l-6.27 29.86h-14.93Zm3.58-2.98h8.96l5.08-23.89h-8.96l-5.08 23.89Zm1.79 47.77 9.55-44.79h14.93l-9.55 44.79h-14.93Zm3.59-2.98h8.96l8.36-38.82h-8.96l-8.36 38.82Zm20.9-41.81 6.27-29.86h14.93l-6.27 29.86h-14.93Zm3.58-2.98h8.96l5.08-23.89h-8.96l-5.08 23.89Zm17.62-26.87 6.42-29.86h14.93l-6.42 29.86h-14.93Zm3.73-2.99h8.96l5.08-23.89h-8.96l-5.08 23.89ZM3370.09 537.32l3.29-14.93h14.93l-3.28 14.93h-14.94Zm3.73-2.98h8.96l1.79-8.96h-8.96l-1.79 8.96Zm5.82-41.8 6.42-29.86h14.93l-6.42 29.86h-14.93Zm2.24 59.71 3.14-14.93h44.79l-3.13 14.93h-44.8Zm1.49-62.7h8.96l5.08-23.89h-8.96l-5.08 23.89Zm2.09 59.72h38.82l1.94-8.96h-38.82l-1.94 8.96Zm5.97-41.81 3.14-14.93h44.79l-3.13 14.93h-44.8Zm3.59-2.98h38.82l1.94-8.96h-38.82l-1.94 8.96Zm5.97-41.8 3.14-14.93h44.79l-3.13 14.93h-44.8Zm3.58-2.99h38.82l1.94-8.96h-38.82l-1.94 8.96Zm25.23 77.63 6.42-29.86h14.93l-6.42 29.86h-14.93Zm3.73-2.98h8.96l5.08-23.89h-8.96l-5.08 23.89Zm9.11-56.73 3.13-14.93h14.93l-3.13 14.93h-14.93Zm3.59-2.99h8.96l1.94-8.96h-8.96l-1.94 8.96ZM3527.89 462.68l-18.96 89.58H3494l18.96-89.58h-29.86l3.28-14.93h74.65l-3.28 14.93h-29.86Zm-41.05-2.99h29.86l-19.11 89.58h8.96l19.11-89.58h29.86l1.79-8.96h-68.67l-1.8 8.96ZM3595.23 462.68l-6.42 29.86h44.79l-3.14 14.93h-44.79l-6.42 29.86h59.57l-3.13 14.93h-74.5l22.25-104.5h74.65l-3.13 14.93h-59.73Zm-30.46 86.59h68.53l1.94-8.96h-59.57l7.61-35.83h44.79l1.94-8.96h-44.79l7.61-35.83h59.72l1.94-8.96h-68.67l-21.05 98.54ZM3714.81 462.68l-3.13 14.93h-14.93l-15.97 74.65h-14.93l22.25-104.5h14.93l-3.13 14.93h14.91Zm-45.38 86.59h8.96l15.97-74.65h14.93l1.94-8.96h-14.93l3.13-14.93h-8.96l-21.04 98.54Zm38.96-56.73 3.29-14.93h14.93l-3.28 14.93h-14.94Zm3.74-2.99h8.96l1.79-8.96h-8.96l-1.79 8.96Zm13.43 62.7 15.97-74.65h-14.93l3.14-14.93h14.93l3.14-14.93h14.93l-22.24 104.5h-14.94Zm21.5-86.59h-14.93l-1.94 8.96h14.93l-15.97 74.65h8.96l21.05-98.53h-8.96l-3.14 14.92ZM3773.49 537.32l3.29-14.93h14.93l-3.28 14.93h-14.94Zm3.73-2.98h8.96l1.79-8.96h-8.96l-1.79 8.96Zm5.82-41.8 6.42-29.86h14.93l-6.42 29.86h-14.93Zm2.24 59.71 3.13-14.93h44.79l-3.13 14.93h-44.79Zm1.5-62.7h8.96l5.08-23.89h-8.96l-5.08 23.89Zm2.09 59.72h38.82l1.94-8.96h-38.82l-1.94 8.96Zm5.97-41.81 3.13-14.93h44.79l-3.13 14.93h-44.79Zm3.58-2.98h38.82l1.94-8.96h-38.82l-1.94 8.96Zm5.97-41.8 3.13-14.93h44.79l-3.13 14.93h-44.79Zm3.59-2.99h38.82l1.94-8.96h-38.82l-1.94 8.96Zm25.23 77.63 6.42-29.86h14.93l-6.42 29.86h-14.93Zm3.73-2.98h8.96l5.08-23.89h-8.96l-5.08 23.89Zm9.11-56.73 3.13-14.93h14.93l-3.14 14.93h-14.92Zm3.58-2.99h8.96l1.94-8.96h-8.96l-1.94 8.96ZM4320 0h1440v720H4320Z"/><path d="M4840 188.65v-43.24h21.62v43.24H4840Zm4.32-4.33h12.97v-34.59h-12.97v34.59Zm4.33-4.32v-25.95h4.32V180h-4.32Zm12.97 51.89v-43.24h21.62v43.24h-21.62Zm4.33-4.32h12.97v-34.59h-12.97v34.59Zm4.32-4.33V197.3h4.32v25.95h-4.32Zm12.97 73.52V231.9h21.62v64.86h-21.62Zm4.33-4.33h12.97v-56.22h-12.97v56.22Zm4.32-4.32v-47.57h4.32v47.57h-4.32Zm12.97-56.22v-43.24h21.62v43.24h-21.62Zm4.33-4.32h12.97v-34.59h-12.97v34.59Zm4.32-4.33V197.3h4.32v25.95h-4.32Zm12.98-34.59v-43.24h21.62v43.24h-21.62Zm4.32-4.33h12.97v-34.59h-12.97v34.59Zm4.32-4.32v-25.95h4.32V180h-4.32ZM4980.54 275.13v-108.1h21.62v108.11h-21.62Zm4.33-4.32h12.97v-99.46h-12.97v99.46Zm4.32-4.32v-90.81h4.32v90.81h-4.32Zm12.97-99.46v-21.62h64.86v21.62h-64.86Zm0 129.73v-21.62h64.86v21.62h-64.86Zm4.33-134.06h56.21v-12.97h-56.21v12.97Zm0 129.73h56.21v-12.97h-56.21v12.97Zm4.32-134.05v-4.32h47.57v4.32h-47.57Zm0 129.73v-4.32h47.57v4.32h-47.57Zm56.22-12.98v-108.1h21.62v108.11h-21.62Zm4.32-4.32h12.97v-99.46h-12.97v99.46Zm4.33-4.32v-90.81h4.32v90.81h-4.32ZM5131.89 275.13V145.41h21.62v129.73h-21.62Zm4.33-4.32h12.97V149.73h-12.97v121.08Zm4.32-4.32V154.05h4.32v112.43h-4.32Zm12.97 30.27v-21.62h64.86v21.62h-64.86Zm4.33-4.33h56.21v-12.97h-56.21v12.97Zm4.32-4.32v-4.32h47.57v4.32h-47.57Zm56.22-12.98V145.41H5240v129.73h-21.62Zm4.32-4.32h12.97V149.73h-12.97v121.08Zm4.33-4.32V154.05h4.32v112.43h-4.32ZM4840 465.73V332.4h22.22v133.33H4840Zm4.44-4.44h13.33V336.84h-13.33v124.45Zm4.45-4.45V341.29h4.44v115.56h-4.44Zm13.33 31.11v-22.22h22.22v22.22h-22.22Zm4.45-4.44H4880v-13.33h-13.33v13.33Zm4.44-4.44v-4.44h4.44v4.44h-4.44Zm13.33-13.34v-44.45h22.22v44.45h-22.22Zm4.45-4.44h13.33v-35.56h-13.33v35.56Zm4.44-4.45v-26.67h4.44v26.67h-4.44Zm13.34 31.11v-22.22h22.22v22.22h-22.22Zm4.44-4.44h13.33v-13.33h-13.33v13.33Zm4.45-4.44v-4.44h4.44v4.44h-4.44Zm13.33-13.34V332.4h22.22v133.33h-22.22Zm4.44-4.44h13.33V336.84h-13.33v124.45Zm4.45-4.45V341.29h4.44v115.56h-4.44ZM4995.56 487.95V332.4h22.22v155.56h-22.22Zm4.44-4.44h13.33V336.84H5000v146.67Zm4.45-4.44V341.29h4.44v137.78h-4.44ZM5106.67 354.62v22.22h-22.22v111.11h-22.22V332.4h22.22v22.22h22.22Zm-40 128.89H5080V372.4h22.22v-13.33H5080v-22.22h-13.33v146.66Zm31.11-120v4.44h-22.22v111.11h-4.44V341.29h4.44v22.22h22.22Zm8.89 35.55v-22.22h22.22v22.22h-22.22Zm4.44-4.44h13.33v-13.33h-13.33v13.33Zm4.44-4.44v-4.45h4.45v4.45h-4.45Zm35.56 97.77v-66.67h-22.22v-22.22h22.22V332.4h22.22v155.56h-22.22Zm4.44-84.44h-22.22v13.33h22.22v66.67h13.33V336.84h-13.33v66.67Zm4.45 75.56V412.4h-22.22v-4.45H5160v-66.67h4.44v137.78H5160ZM5217.78 443.51V332.4H5240v111.11h-22.22Zm0 44.44v-22.22H5240v22.22h-22.22Zm4.44-48.88h13.33V336.84h-13.33v102.23Zm0 44.44h13.33v-13.33h-13.33v13.33Zm4.45-48.89v-93.33h4.44v93.33h-4.44Zm0 44.45v-4.44h4.44v4.44h-4.44ZM4848 536.6v16h24v8h-8v8h-8v-8h-8v24h-8v-56h32v8h-24Zm-6.4 46.39h4.8v-24h11.2v8h4.8v-8h8v-4.8h-24V535h24v-4.8h-28.8v52.79Zm3.2-49.59v22.4h24v1.6h-8v8h-1.6v-8h-14.4v24h-1.6v-49.6h25.6v1.6h-24Zm19.2 43.19v-8h8v8h-8Zm1.6-1.59h4.8v-4.8h-4.8v4.8Zm1.6-1.6v-1.6h1.6v1.6h-1.6Zm4.8-20.8v-16h8v16h-8Zm0 31.99v-8h8v8h-8Zm1.6-33.59h4.8v-12.8h-4.8V551Zm0 31.99h4.8v-4.8h-4.8v4.8Zm1.6-33.59v-9.6h1.6v9.6h-1.6Zm0 31.99v-1.6h1.6v1.6h-1.6ZM4928 584.59v-16h-24v16h-8v-48h8v24h24v-24h8v48h-8Zm1.6-22.39h-27.2v-24h-4.8V583h4.8v-16h27.2v16h4.8v-44.8h-4.8v24Zm1.6 19.19v-16h-30.4v16h-1.6v-41.6h1.6v24h30.4v-24h1.6v41.6h-1.6ZM4904 536.6v-8h24v8h-24Zm1.6-1.6h20.8v-4.8h-20.8v4.8Zm1.6-1.6v-1.6h17.6v1.6h-17.6ZM4968 536.6v8h-8v40h-8v-56h8v8h8Zm-14.4 46.39h4.8v-40h8v-4.8h-8v-8h-4.8v52.8Zm11.2-43.19v1.6h-8v40h-1.6v-49.6h1.6v8h8Zm3.2 12.8v-8h8v8h-8Zm1.6-1.6h4.8v-4.8h-4.8v4.8Zm1.6-1.6v-1.6h1.6v1.6h-1.6Zm12.8 35.19v-24h-8v-8h8v-24h8v56h-8Zm1.6-30.39h-8v4.8h8v24h4.8v-52.8h-4.8v24Zm1.6 27.19v-24h-8v-1.6h8v-24h1.6v49.6h-1.6ZM5032 552.6v8h-16v24h-8v-56h8v24h16Zm-22.4 30.39h4.8v-24h16v-4.8h-16v-24h-4.8v52.8Zm19.2-27.19v1.6h-16v24h-1.6v-49.6h1.6v24h16Zm3.2-3.2v-8h8v8h-8Zm0 15.99v-8h8v8h-8Zm1.6-17.59h4.8v-4.8h-4.8v4.8Zm0 15.99h4.8v-4.8h-4.8v4.8Zm1.6-17.59v-1.6h1.6v1.6h-1.6Zm0 15.99v-1.6h1.6v1.6h-1.6Zm4.8-20.79v-16h8v16h-8Zm0 39.99v-16h8v16h-8Zm1.6-41.59h4.8v-12.8h-4.8V543Zm0 39.99h4.8v-12.8h-4.8v12.8Zm1.6-41.59v-9.6h1.6v9.6h-1.6Zm0 39.99v-9.6h1.6v9.6h-1.6ZM5128 544.6v8h-8v8h8v8h-8v16h-8v-16h-8v16h-8v-16h-8v-8h8v-8h-8v-8h8v-16h8v16h8v-16h8v16h8Zm-14.4 1.6h-11.2v-16h-4.8v16h-8v4.8h8v11.2h-8v4.8h8v16h4.8v-16h11.2v16h4.8v-16h8v-4.8h-8V551h8v-4.8h-8v-16h-4.8v16Zm11.2 1.6v1.6h-8v14.4h8v1.6h-8v16h-1.6v-16h-14.4v16h-1.6v-16h-8v-1.6h8v-14.4h-8v-1.6h8v-16h1.6v16h14.4v-16h1.6v16h8Zm-24 15.99h14.4v-14.4h-14.4v14.4Zm1.6-1.59V551h11.2v11.2h-11.2Zm1.6-1.6h8v-8h-8v8ZM5144 552.6v-16h8v16h-8Zm0 23.99v-8h8v8h-8Zm1.6-25.59h4.8v-12.8h-4.8V551Zm0 24h4.8v-4.8h-4.8v4.8Zm1.6-25.6v-9.6h1.6v9.6h-1.6Zm0 24v-1.6h1.6v1.6h-1.6Zm4.8-36.8v-8h24v8h-24Zm24 39.99v-16h-24v-8h24v-16h8v40h-8Zm-24 8v-8h24v8h-24Zm1.6-49.59h20.8v-4.8h-20.8v4.8Zm24 19.2h-24v4.8h24v16h4.8v-36.8h-4.8v16Zm-24 28.79h20.8v-4.8h-20.8v4.8Zm1.6-49.59v-1.6h17.6v1.6h-17.6Zm24 40v-16h-24v-1.6h24v-16h1.6v33.6h-1.6Zm-24 7.99v-1.6h17.6v1.6h-17.6ZM5200 544.6v-8h8v8h-8Zm40 31.99v8h-40v-16h8v8h32ZM5201.6 543h4.8v-4.8h-4.8v4.8Zm0 39.99h36.8v-4.8h-32v-8h-4.8v12.8Zm1.6-41.59v-1.6h1.6v1.6h-1.6Zm33.6 38.39v1.6h-33.6v-9.6h1.6v8h32ZM5208 536.6v-8h24v8h-24Zm0 31.99v-8h8v8h-8Zm1.6-33.59h20.8v-4.8h-20.8v4.8Zm0 31.99h4.8v-4.8h-4.8v4.8Zm1.6-33.59v-1.6h17.6v1.6h-17.6Zm0 31.99v-1.6h1.6v1.6h-1.6Zm4.8-4.79v-8h16v8h-16Zm1.6-1.6h12.8v-4.8h-12.8v4.8Zm1.6-1.6v-1.6h9.6v1.6h-9.6Zm12.8-4.8v-16h8v16h-8Zm1.6-1.6h4.8v-12.8h-4.8V551Zm1.6-1.6v-9.6h1.6v9.6h-1.6Z" fill="#e6e6e6"/><path d="M5760 0h1440v720H5760Z" fill="#eae3d8"/><path d="M6172.93 163.14V140.7h11.22v22.44h-11.22Zm2.24-2.25h6.73v-17.95h-6.73v17.95Zm8.98 24.69v-22.44h11.22v22.44h-11.22Zm2.24-2.25h6.73v-17.95h-6.73v17.95Zm8.98 35.91v-33.66h11.22v33.66h-11.22Zm2.24-2.25h6.73v-29.17h-6.73v29.17Zm8.98-31.41v-22.44h11.22v22.44h-11.22Zm2.24-2.25h6.73v-17.95h-6.73v17.95Zm8.98-20.19V140.7h11.22v22.44h-11.22Zm2.24-2.25h6.73v-17.95h-6.73v17.95ZM6262.69 151.92v22.44h33.66v11.22h-33.66v22.44h44.77v11.22h-55.99V140.7h56.1v11.22h-44.88Zm-8.98 65.07h51.5v-6.73h-44.77v-26.93h33.66v-6.73h-33.66v-26.93h44.88v-6.73h-51.61v74.05ZM6374.89 219.24V196.8h-33.66v22.44h-11.22v-67.32h11.22v33.66h33.66v-33.66h11.22v67.32h-11.22Zm2.24-31.42h-38.15v-33.66h-6.73v62.83h6.73v-22.44h38.15v22.44h6.73v-62.83h-6.73v33.66Zm-35.9-35.9V140.7h33.66v11.22h-33.66Zm2.24-2.25h29.17v-6.73h-29.17v6.73ZM6419.77 151.92v22.44h33.66v11.22h-11.22v11.22h-11.22v-11.22h-11.22v33.66h-11.22V140.7h44.88v11.22h-33.66Zm-8.98 65.07h6.73v-33.66h15.71v11.22h6.73v-11.22h11.22v-6.73h-33.66v-26.93h33.66v-6.73h-40.39v74.05Zm31.42-8.97V196.8h11.22v11.22h-11.22Zm2.24-2.25h6.73v-6.73h-6.73v6.73Zm8.98-31.41v-22.44h11.22v22.44h-11.22Zm0 44.88v-11.22h11.22v11.22h-11.22Zm2.24-47.13h6.73v-17.95h-6.73v17.95Zm0 44.88h6.73v-6.73h-6.73v6.73ZM6520.75 163.14v-11.22h11.22v11.22h-11.22Zm56.1 44.88v11.22h-56.1V196.8h11.22v11.22h44.88Zm-53.86-47.13h6.73v-6.73h-6.73v6.73Zm0 56.1h51.61v-6.73h-44.88v-11.22h-6.73v17.95Zm8.98-65.07V140.7h33.66v11.22h-33.66Zm0 44.88v-11.22h11.22v11.22h-11.22Zm2.24-47.13h29.17v-6.73h-29.17v6.73Zm0 44.88h6.73v-6.73h-6.73v6.73Zm8.98-8.97v-11.22h22.44v11.22h-22.44Zm2.24-2.25h17.95v-6.73h-17.95v6.73Zm20.2-8.97v-22.44h11.22v22.44h-11.22Zm2.24-2.25h6.73v-17.95h-6.73v17.95ZM6599.29 208.02v-56.1h11.22v56.1h-11.22Zm2.25-2.25h6.73v-51.61h-6.73v51.61Zm8.97-53.85V140.7h33.66v11.22h-33.66Zm0 67.32v-11.22h33.66v11.22h-33.66Zm2.24-69.57h29.17v-6.73h-29.17v6.73Zm0 67.32h29.17v-6.73h-29.17v6.73Zm8.98-31.41v-11.22h11.22v11.22h-11.22Zm2.24-2.25h6.73v-6.73h-6.73v6.73Zm20.2 24.69v-56.1h11.22v56.1h-11.22Zm2.24-2.25h6.73v-51.61h-6.73v51.61ZM6677.83 163.14v-11.22h11.22v11.22h-11.22Zm56.1 44.88v11.22h-56.1V196.8h11.22v11.22h44.88Zm-53.85-47.13h6.73v-6.73h-6.73v6.73Zm0 56.1h51.61v-6.73h-44.88v-11.22h-6.73v17.95Zm8.97-65.07V140.7h33.66v11.22h-33.66Zm0 44.88v-11.22h11.22v11.22h-11.22Zm2.25-47.13h29.17v-6.73h-29.17v6.73Zm0 44.88h6.73v-6.73h-6.73v6.73Zm8.97-8.97v-11.22h22.44v11.22h-22.44Zm2.25-2.25h17.95v-6.73h-17.95v6.73Zm20.19-8.97v-22.44h11.22v22.44h-11.22Zm2.25-2.25h6.73v-17.95h-6.73v17.95ZM6767.59 151.92v22.44h-11.22V140.7h56.1v11.22h-44.88Zm-11.22 56.1V196.8h11.22v11.22h-11.22Zm2.25-35.91h6.73v-22.44h44.88v-6.73h-51.61v29.17Zm0 33.66h6.73v-6.73h-6.73v6.73Zm8.97-20.19v-11.22h33.66v11.22h-33.66Zm0 33.66v-11.22h33.66v11.22h-33.66Zm2.25-35.91h29.17v-6.73h-29.17v6.73Zm0 33.66h29.17v-6.73h-29.17v6.73Zm31.41-8.97v-22.44h11.22v22.44h-11.22Zm2.25-2.25h6.73v-17.95h-6.73v17.95ZM6523.09 350.15l1.04-4.74h4.74l-1.04 4.74h-4.74Zm3.75 4.74 1-4.74h14.22l1.04-4.74h-14.22l1-4.74h14.22l1-4.74h4.74l-4.03 18.96h-18.97Zm4.03-18.96 1-4.74h14.22l-1 4.74h-14.22ZM6556.27 350.15l6.07-28.44h4.74l-6.07 28.44h-4.74Zm3.74 4.74 1-4.74h4.74l-1 4.74h-4.74ZM6591.1 331.19l-1 4.74h-9.48l-3.03 14.22h-4.74l6.07-28.44h4.74l-2.04 9.48h9.48Zm-14.5 23.7 1-4.74h9.48l-1 4.74h-9.48ZM6617.55 340.67l-1.04 4.74h-14.22l-1 4.74h-4.74l3.03-14.22h4.74l-1 4.74h14.23Zm-17.25 14.22 1-4.74h14.22l-1 4.74h-14.22Zm4.02-18.96 1-4.74h14.22l-1 4.74h-14.22Zm13.23 4.74 1-4.74h4.74l-1 4.74h-4.74ZM6639.87 335.93l-1 4.74h-4.74l-3.03 14.22h-4.74l5.02-23.7h4.74l-1 4.74h4.75Zm0 0 1-4.74h9.48l-1 4.74h-9.48ZM6651.91 354.89l4.08-18.96h4.74l-4.08 18.96h-4.74Zm8.81-18.96 1-4.74h14.22l-1 4.74h-14.22Zm10.14 18.96 4.08-18.96h4.74l-4.08 18.96h-4.74ZM6683.75 350.15l1.04-4.74h4.74l-1.04 4.74h-4.74Zm3.75 4.74 1-4.74h14.22l1.04-4.74h-14.22l1-4.74h14.22l1-4.74h4.74l-4.03 18.96h-18.97Zm4.03-18.96 1-4.74h14.22l-1 4.74h-14.22ZM6735.17 331.19l-1 4.74h-9.48l-3.03 14.22h-4.74l6.07-28.44h4.74l-2.04 9.48h9.48Zm-14.5 23.7 1-4.74h9.48l-1 4.74h-9.48ZM6739.63 354.89l5.07-23.7h4.74l-5.07 23.7h-4.74Zm6.07-28.44 1-4.74h4.74l-1 4.74h-4.74ZM6755.93 345.41l3.03-14.22h4.74l-3.03 14.22h-4.74Zm3.7 4.74 1.04-4.74h4.74l-1.04 4.74h-4.74Zm3.74 4.74 1-4.74h4.74l-1 4.74h-4.74Zm5.74-4.74 1.04-4.74h4.74l-1.04 4.74h-4.74Zm5.78-4.74 3.03-14.22h4.74l-3.03 14.22h-4.74ZM6806.74 340.67l-1.04 4.74h-14.22l-1 4.74h-4.74l3.03-14.22h4.74l-1 4.74h14.23Zm-17.25 14.22 1-4.74h14.22l-1 4.74h-14.22Zm4.02-18.96 1-4.74h14.22l-1 4.74h-14.22Zm13.23 4.74 1-4.74h4.74l-1 4.74h-4.74ZM6666.22 303l5.07-23.7h4.74l-5.07 23.7h-4.74Zm6.07-28.44 1-4.74h4.74l-1 4.74h-4.74ZM6680.44 303l4.08-18.96h4.74l-4.08 18.96h-4.74Zm8.81-18.96 1-4.74h14.22l-1 4.74h-14.22Zm10.14 18.96 4.08-18.96h4.74l-4.08 18.96h-4.74ZM6747.12 279.3l-1 4.74h-9.48l-3.03 14.22h-4.74l6.07-28.44h4.74l-2.04 9.48h9.48Zm-14.5 23.7 1-4.74h9.48l-1 4.74h-9.48ZM6765.08 284.04l-1 4.74h-4.74l-3.03 14.22h-4.74l7.06-33.18h4.74l-3.03 14.22h4.74Zm0 0 1.04-4.74h9.48l-1.04 4.74h-9.48Zm5.45 18.96 4.03-18.96h4.74l-4.03 18.96h-4.74ZM6806.74 288.78l-1.04 4.74h-14.22l-1 4.74h-4.74l3.03-14.22h4.74l-1 4.74h14.23ZM6789.49 303l1-4.74h14.22l-1 4.74h-14.22Zm4.02-18.96 1-4.74h14.22l-1 4.74h-14.22Zm13.23 4.74 1-4.74h4.74l-1 4.74h-4.74ZM6621.15 387.82l-1 4.74h-4.74l-3.03 14.22h-4.74l5.02-23.7h4.74l-1 4.74h4.75Zm0 0 1-4.74h9.48l-1 4.74h-9.48ZM6655.7 392.56l-1.04 4.74h-14.22l-1 4.74h-4.74l3.03-14.22h4.74l-1 4.74h14.23Zm-17.25 14.22 1-4.74h14.22l-1 4.74h-14.22Zm4.03-18.96 1-4.74h14.22l-1 4.74h-14.22Zm13.22 4.74 1-4.74h4.74l-1 4.74h-4.74ZM6663.14 402.04l1.04-4.74h4.74l-1.04 4.74h-4.74Zm3.74 4.74 1-4.74h14.22l1.04-4.74h-14.22l1-4.74h14.22l1-4.74h4.74l-4.03 18.96h-18.97Zm4.03-18.96 1-4.74h14.22l-1 4.74h-14.22ZM6696.31 402.04l6.07-28.44h4.74l-6.07 28.44h-4.74Zm3.75 4.74 1-4.74h4.74l-1 4.74h-4.74ZM6711.91 406.78l5.07-23.7h4.74l-5.07 23.7h-4.74Zm6.06-28.44 1-4.74h4.74l-1 4.74h-4.74ZM6745.41 383.08l-1 4.74h-9.48l-3.03 14.22h-4.74l6.07-28.44h4.74l-2.04 9.48h9.48Zm-14.5 23.7 1-4.74h9.48l-1 4.74h-9.48ZM6750.86 402.04l4.03-18.96h4.74l-4.03 18.96h-4.74Zm1.71 14.22 1.04-4.74h14.22l-1.04 4.74h-14.22Zm15.26-4.74 1-4.74h-14.22l1-4.74h14.22l4.03-18.96h4.74l-6.02 28.44h-4.75ZM6783.04 406.78l1-4.74h4.74l-1 4.74h-4.74ZM6794.89 406.78l1-4.74h4.74l-1 4.74h-4.74ZM6806.74 406.78l1-4.74h4.74l-1 4.74h-4.74ZM6179.02 542.74h-6.09v-6.09h6.09v6.09Zm0 36.56h-6.09v-6.09h6.09v6.09Zm6.09-30.47h-6.09v-6.09h6.09v6.09Zm0 24.38h-6.09v-6.09h6.09v6.09Zm6.1-18.28h-6.09v-6.09h6.09v6.09Zm0 12.18h-6.09v-6.09h6.09v6.09Zm6.09-6.09h-6.09v-6.09h6.09v6.09ZM6227.77 579.3v-6.09h6.09v6.09h-6.09ZM6243.01 579.3v-6.09h6.09v6.09h-6.09ZM6258.25 579.3v-6.09h6.09v6.09h-6.09ZM6300.9 579.3v-18.28h-18.28v18.28h-6.09v-42.66h6.09v18.28h18.28v-18.28h6.1v42.66h-6.1ZM6343.56 561.02v6.09h-18.28v6.09h-6.09v-18.28h6.09v6.09h18.28Zm-18.28-6.09v-6.09h18.28v6.09h-18.28Zm0 24.37v-6.09h18.28v6.09h-18.28Zm18.28-18.28v-6.09h6.09v6.09h-6.09ZM6358.8 573.21v-36.56h6.09v36.56h-6.09Zm6.1 6.09v-6.09h6.09v6.09h-6.09ZM6380.13 573.21v-36.56h6.09v36.56h-6.09Zm6.1 6.09v-6.09h6.09v6.09h-6.09ZM6401.46 573.21v-18.28h6.09v18.28h-6.09Zm6.1-18.28v-6.09h18.28v6.09h-18.28Zm0 24.37v-6.09h18.28v6.09h-18.28Zm18.28-6.09v-18.28h6.09v18.28h-6.09ZM6438.03 548.83v-6.09h6.09v6.09h-6.09Zm6.09-6.09v-6.09h12.19v6.09h-12.19Zm6.1 18.28v6.09h-6.09v-12.19h12.19v6.09h-6.1Zm-6.1 18.28v-6.09h6.09v6.09h-6.09Zm12.19-24.37v-12.19h6.09v12.19h-6.09ZM7200 0h1440v720H7200Z"/><path d="M7570 217.05v-65.42h13.08v65.42H7570Zm3.93-3.92h5.23v-57.57h-5.23v57.57Zm9.15-61.5v-13.08h39.25v13.08h-39.25Zm0 78.51v-13.08h39.25v13.08h-39.25Zm3.93-82.44h31.4v-5.23h-31.4v5.23Zm0 78.51h31.4v-5.23h-31.4v5.23Zm35.33-9.16v-26.17h-13.08V177.8h26.17v39.25h-13.09Zm-9.16-30.09h13.08v26.17h5.23v-31.4h-18.32v5.23Zm9.16-22.25v-13.08h13.08v13.08h-13.08Zm3.92-3.92h5.23v-5.23h-5.23v5.23ZM7713.93 190.88v13.08h-39.25v13.08h-13.08V177.8h13.08v13.08h39.25Zm-48.42 22.25h5.23v-13.08H7710v-5.23h-39.25v-13.08h-5.23v31.39Zm9.16-35.33v-13.08h39.25v13.08h-39.25Zm0 52.34v-13.08h39.25v13.08h-39.25Zm3.93-56.27h31.4v-5.23h-31.4v5.23Zm0 52.34h31.4v-5.23h-31.4v5.23Zm35.33-35.33V177.8h13.08v13.08h-13.08Zm3.92-3.92h5.23v-5.23h-5.23v5.23ZM7746.64 217.05V177.8h13.08v39.25h-13.08Zm3.92-3.92h5.23v-31.4h-5.23v31.4Zm9.16-35.33v-13.08h39.25v13.08h-39.25Zm0 52.34v-13.08h39.25v13.08h-39.25Zm3.93-56.27h31.4v-5.23h-31.4v5.23Zm0 52.34h31.4v-5.23h-31.4v5.23Zm35.32-9.16V177.8h13.08v39.25h-13.08Zm3.93-3.92h5.23v-31.4h-5.23v31.4ZM7838.22 230.14V177.8h13.08v52.34h-13.08Zm3.93-3.93h5.23v-44.49h-5.23v44.49Zm9.16-48.41v-13.08h26.17v13.08h-26.17Zm3.92-3.93h18.32v-5.23h-18.32v5.23Zm22.25 56.27V177.8h13.08v52.34h-13.08Zm3.92-3.93h5.23v-44.49h-5.23v44.49Zm9.16-48.41v-13.08h26.17v13.08h-26.17Zm3.93-3.93h18.32v-5.23h-18.32v5.23Zm22.24 56.27V177.8h13.08v52.34h-13.08Zm3.93-3.93h5.23v-44.49h-5.23v44.49ZM8008.32 190.88v13.08h-39.25v13.08h-13.09V177.8h13.09v13.08h39.25Zm-48.41 22.25h5.23v-13.08h39.25v-5.23h-39.25v-13.08h-5.23v31.39Zm9.15-35.33v-13.08h39.25v13.08h-39.25Zm0 52.34v-13.08h39.25v13.08h-39.25Zm3.93-56.27h31.4v-5.23h-31.4v5.23Zm0 52.34h31.4v-5.23h-31.4v5.23Zm35.33-35.33V177.8h13.08v13.08h-13.08Zm3.92-3.92h5.23v-5.23h-5.23v5.23ZM8080.28 164.71v13.08h-26.17v39.25h-13.08v-78.51h13.08v26.17h26.17Zm-35.33 48.42h5.23v-39.25h26.17v-5.23h-26.17v-26.17h-5.23v70.65Zm9.16 17.01v-13.08h26.17v13.08h-26.17Zm3.93-3.93h18.32v-5.23h-18.32v5.23ZM8132.62 177.8v13.08h-13.08v39.25h-13.08v-65.42h13.08v13.08h13.08Zm-22.25 48.41h5.23v-39.25h13.08v-5.23h-13.08v-13.08h-5.23v57.56Zm22.25-48.41v-13.08h26.17v13.08h-26.17Zm3.92-3.93h18.32v-5.23h-18.32v5.23ZM8178.41 151.63v-13.08h13.08v13.08h-13.08Zm0 78.51v-65.42h13.08v65.42h-13.08Zm3.93-82.44h5.23v-5.23h-5.23v5.23Zm0 78.51h5.23v-57.57h-5.23v57.57ZM8217.66 217.05V177.8h13.08v39.25h-13.08Zm3.93-3.92h5.23v-31.4h-5.23v31.4Zm9.16-35.33v-13.08H8270v13.08h-39.25Zm0 52.34v-13.08H8270v13.08h-39.25Zm3.92-56.27h31.4v-5.23h-31.4v5.23Zm0 52.34h31.4v-5.23h-31.4v5.23ZM7570 328.34l6.81-31.92h10.64l-6.81 31.92H7570Zm3.94-3.19h4.26l5.43-25.53h-4.26l-5.43 25.53Zm4.46 13.83 2.23-10.64h31.92l-2.23 10.64h-31.92Zm3.83-3.2h25.53l.96-4.26h-25.53l-.96 4.26Zm5.22-39.36 2.23-10.64h31.92l-2.23 10.64h-31.92Zm3.83-3.19h25.53l.96-4.26h-25.53l-.96 4.26ZM7633.83 328.34l6.81-31.92h10.64l-6.81 31.92h-10.64Zm3.94-3.19h4.26l5.43-25.53h-4.26l-5.43 25.53Zm4.46 13.83 2.23-10.64h31.92l-2.23 10.64h-31.92Zm3.83-3.2h25.53l.96-4.26h-25.53l-.96 4.26Zm5.22-39.36 2.23-10.64h31.92l-2.23 10.64h-31.92Zm3.83-3.19h25.53l.96-4.26h-25.53l-.96 4.26Zm21.27 35.11 6.81-31.92h10.64l-6.81 31.92h-10.64Zm3.94-3.19h4.26l5.43-25.53h-4.26l-5.43 25.53ZM7705.96 338.98l9.15-42.55h10.64l-9.15 42.55h-10.64Zm3.93-3.2h4.26l7.66-36.17h-4.26l-7.66 36.17Zm15.85-39.36 2.23-10.64h21.28l-2.23 10.64h-21.28Zm3.83-3.19h14.89l.85-4.26h-14.89l-.85 4.26Zm8.3 45.75 9.15-42.55h10.64l-9.15 42.55h-10.64Zm3.94-3.2h4.26l7.66-36.17h-4.26l-7.66 36.17Zm15.85-39.36 2.23-10.64h21.28l-2.23 10.64h-21.28Zm3.83-3.19h14.89l.85-4.26h-14.89l-.85 4.26Zm8.3 45.75 9.15-42.55h10.64l-9.15 42.55h-10.64Zm3.93-3.2h4.26l7.66-36.17h-4.26l-7.66 36.17ZM7821.49 296.42l-6.81 31.92h31.92l-2.23 10.64h-31.92l-4.47 21.28h-10.64l15.75-74.47h42.55l-2.23 10.64h-31.92Zm-20.32 60.64h4.26l4.57-21.28h31.92l.85-4.26h-31.92l8.19-38.3h31.92l.85-4.26h-36.17l-14.47 68.1Zm45.42-28.72 6.81-31.92h10.64l-6.81 31.92h-10.64Zm3.94-3.19h4.26l5.43-25.53h-4.26l-5.43 25.53ZM7906.59 296.42l-2.23 10.64h-10.64l-6.81 31.92h-10.64l11.28-53.19h10.64l-2.23 10.64h10.63Zm-26.49 39.36h4.26l6.81-31.92h10.64l.96-4.26h-10.64l2.23-10.64h-4.26l-10 46.82Zm26.49-39.36 2.23-10.64h21.28l-2.23 10.64h-21.28Zm3.83-3.19h14.89l.96-4.26h-14.89l-.96 4.26ZM7984.15 307.06l-2.34 10.64h-31.92l-2.23 10.64h-10.64l6.81-31.92h10.64l-2.23 10.64h31.91Zm-43.2 18.09h4.25l2.23-10.64h31.92l.85-4.26h-31.9l2.34-10.64h-4.26l-5.43 25.54Zm4.47 13.83 2.23-10.64h31.92l-2.23 10.64h-31.92Zm3.83-3.2h25.53l.96-4.26h-25.53l-.96 4.26Zm5.22-39.36 2.23-10.64h31.92l-2.23 10.64h-31.92Zm3.83-3.19h25.53l.96-4.26h-25.53l-.96 4.26Zm25.85 13.83 2.23-10.64h10.64l-2.23 10.64h-10.64Zm3.83-3.19h4.25l.96-4.26h-4.26l-.95 4.26ZM8003.93 338.98l2.23-10.64h31.92l-2.23 10.64h-31.92Zm3.94-3.2h25.53l.85-4.26h-25.53l-.85 4.26Zm2.87-28.72 2.23-10.64h10.64l-2.23 10.64h-10.64Zm3.83-3.19h4.26l.96-4.26h-4.26l-.96 4.26Zm4.58 13.83 2.23-10.64h21.28l-2.23 10.64h-21.28Zm3.83-3.19h14.89l.96-4.26h-14.89l-.96 4.26Zm.64-18.09 2.34-10.64h31.92l-2.34 10.64h-31.92Zm3.93-3.19h25.53l.85-4.26h-25.53l-.85 4.26Zm10.53 35.11 2.34-10.64h10.64l-2.34 10.64h-10.64Zm3.94-3.19h4.26l.85-4.26h-4.26l-.85 4.26ZM8067.87 338.98l2.23-10.64h31.92l-2.23 10.64h-31.92Zm3.94-3.2h25.53l.85-4.26h-25.53l-.85 4.26Zm2.87-28.72 2.23-10.64h10.64l-2.23 10.64h-10.64Zm3.83-3.19h4.26l.96-4.26h-4.26l-.96 4.26Zm4.57 13.83 2.23-10.64h21.28l-2.23 10.64h-21.28Zm3.83-3.19h14.89l.96-4.26h-14.89l-.96 4.26Zm.64-18.09 2.34-10.64h31.92l-2.34 10.64h-31.92Zm3.94-3.19h25.53l.85-4.26h-25.53l-.85 4.26Zm10.53 35.11 2.34-10.64H8115l-2.34 10.64h-10.64Zm3.94-3.19h4.26l.85-4.26h-4.26l-.85 4.26ZM8181.17 307.06l-2.34 10.64h-31.92l-2.23 10.64h-10.64l6.81-31.92h10.64l-2.23 10.64h31.91Zm-43.19 18.09h4.26l2.23-10.64h31.92l.85-4.26h-31.92l2.34-10.64h-4.26l-5.42 25.54Zm4.46 13.83 2.23-10.64h31.92l-2.23 10.64h-31.92Zm3.83-3.2h25.53l.96-4.26h-25.53l-.96 4.26Zm5.22-39.36 2.23-10.64h31.92l-2.23 10.64h-31.92Zm3.83-3.19h25.53l.96-4.26h-25.53l-.96 4.26Zm25.85 13.83 2.23-10.64h10.64l-2.23 10.64h-10.64Zm3.83-3.19h4.25l.96-4.26h-4.26l-.95 4.26ZM8203.19 328.34l6.81-31.92h10.64l-6.81 31.92h-10.64Zm3.94-3.19h4.26l5.43-25.53h-4.26l-5.43 25.53Zm4.46 13.83 2.23-10.64h31.92l6.81-31.92h-31.92l2.23-10.64h31.92l4.57-21.28H8270l-15.85 74.47h-42.56Zm45.75-50.01h-31.92l-.96 4.26h31.92l-8.09 38.3h-31.92l-.96 4.26h36.17l14.47-68.09h-4.25l-4.46 21.27ZM7580.15 399.77v20.29h30.44v10.15h-30.44v20.29h40.48v10.14H7570v-71.02h50.73v10.14h-40.58Zm-7.11 57.82h44.54v-4.06h-40.48v-26.38h30.44v-4.06h-30.44v-26.38h40.58v-4.06h-44.64v64.94ZM7635.94 420.06v-30.44h10.15v30.44h-10.15Zm3.05-3.05h4.06v-24.35h-4.06v24.35Zm7.1 23.34v-20.29h10.15v20.29h-10.15Zm3.04-3.05h4.06v-14.2h-4.06v14.2Zm7.1 23.34v-20.29h10.15v20.29h-10.15Zm3.05-3.05h4.06v-14.2h-4.06v14.2Zm7.1-17.24v-20.29h10.14v20.29h-10.14Zm3.04-3.05h4.06v-14.2h-4.06v14.2Zm7.1-17.24v-30.44h10.15v30.44h-10.15Zm3.05-3.05h4.06v-24.35h-4.06v24.35ZM7717.1 399.77v20.29h30.44v10.15h-30.44v20.29h40.48v10.14h-50.62v-71.02h50.73v10.14h-40.59Zm-7.1 57.82h44.54v-4.06h-40.48v-26.38h30.44v-4.06h-30.44v-26.38h40.58v-4.06H7710v64.94ZM7788.12 399.77v20.29h30.44v10.15h-10.14v10.14h-10.15V430.2h-10.15v30.44h-10.15v-71.02h40.58v10.14h-30.43Zm-7.11 57.82h4.06v-30.44h16.23v10.15h4.06v-10.15h10.15v-4.06h-30.44v-26.38h30.44v-4.06h-34.49v64.94Zm27.4-7.1v-10.15h10.14v10.15h-10.14Zm3.04-3.04h4.06v-4.06h-4.06v4.06Zm7.1-27.39v-20.29h10.15v20.29h-10.15Zm0 40.58V450.5h10.15v10.14h-10.15Zm3.04-43.63h4.06v-14.2h-4.06v14.2Zm0 40.58h4.06v-4.06h-4.06v4.06ZM7899.71 450.49v10.14h-50.73v-71.02h10.15v60.87h40.58Zm-47.68 7.1h44.64v-4.06h-40.58v-60.87h-4.06v64.93ZM7955.51 460.64v-20.29h-30.44v20.29h-10.14v-60.87h10.14v30.44h30.44v-30.44h10.14v60.87h-10.14Zm3.04-27.39h-36.52v-30.44h-4.06v54.78h4.06V437.3h36.52v20.29h4.06v-54.78h-4.06v30.44Zm-33.48-33.48v-10.14h30.44v10.14h-30.44Zm3.05-3.05h24.35v-4.06h-24.35v4.06ZM7985.94 420.06v-20.29h10.15v20.29h-10.15Zm0 30.43v-10.15h10.15v10.15h-10.15Zm3.04-33.48h4.06v-14.2h-4.06v14.2Zm0 30.44h4.06v-4.06h-4.06v4.06Zm7.11-47.68v-10.14h30.44v10.14h-30.44Zm0 30.43v-10.15h30.44v10.15h-30.44Zm0 30.44V450.5h30.44v10.14h-30.44Zm3.04-63.92h24.35v-4.06h-24.35v4.06Zm0 30.44h24.35v-4.06h-24.35v4.06Zm0 30.43h24.35v-4.06h-24.35v4.06Zm27.39-47.68v-10.15h10.15v10.15h-10.15Zm0 40.58V430.2h10.15v20.29h-10.15Zm3.05-43.62h4.06v-4.06h-4.06v4.06Zm0 40.58h4.06v-14.2h-4.06v14.2ZM8082.32 399.77v60.87h-10.15v-60.87h-20.29v-10.14h50.73v10.14h-20.29Zm-27.39-3.05h20.29v60.87h4.06v-60.87h20.29v-4.06h-44.64v4.06ZM8117.83 460.64v-71.02h10.15v71.02h-10.15Zm3.04-3.05h4.06v-64.93h-4.06v64.93ZM8168.55 399.77v10.15h-10.15v50.73h-10.15v-71.02h10.15v10.14h10.15Zm-17.25 57.82h4.06v-50.73h10.15v-4.06h-10.15v-10.15h-4.06v64.94Zm17.25-37.53v-10.14h10.15v10.14h-10.15Zm3.04-3.05h4.06v-4.06h-4.06v4.06Zm17.25 43.63V430.2h-10.14v-10.15h10.14v-30.44h10.15v71.02h-10.15Zm3.04-37.54h-10.15v4.06h10.15v30.44h4.06v-64.93h-4.06v30.43ZM8219.271 450.49v-50.73h10.149v50.73h-10.149Zm3.049-3.04h4.06v-44.64h-4.06v44.64Zm7.1-47.68v-10.14h30.44v10.14h-30.44Zm0 60.87V450.5h30.44v10.14h-30.44Zm3.04-63.92h24.35v-4.06h-24.35v4.06Zm0 60.87h24.35v-4.06h-24.35v4.06Zm27.39-7.1V430.2h-10.14v-10.15H8270v30.44h-10.15Zm-7.1-23.33h10.15v20.29h4.06V423.1h-14.2v4.06Zm7.1-17.25v-10.15H8270v10.15h-10.15Zm3.05-3.04h4.06v-4.06h-4.06v4.06ZM7570 554.31l7.69-36.2h9.05l-7.69 36.2H7570Zm3.26-2.72h3.62l6.61-30.77h-3.62l-6.61 30.77Zm3.89 11.77 1.9-9.05h9.05l-1.9 9.05h-9.05Zm3.26-2.72h3.62l.81-3.62h-3.62l-.81 3.62Zm3.89 11.77 1.9-9.05h36.2l-1.9 9.05h-36.2Zm2.44-54.3 1.9-9.05h9.05l-1.9 9.05h-9.05Zm.82 51.58h30.77l.72-3.62h-30.77l-.72 3.62Zm2.44-24.43 3.89-18.1h9.05l-3.89 18.1H7590Zm.09-29.87h3.62l.72-3.62h-3.62l-.72 3.62Zm3.26 27.15h3.62l2.72-12.67h-3.62l-2.72 12.67Zm41.9 2.72-1.9 9.05h-36.2l1.9-9.05h18.1l3.89-18.1h9.05l-3.89 18.1h9.05Zm-37.56-36.2 1.99-9.05h36.2l-1.99 9.05h-36.2Zm21.63 38.91h-18.1l-.81 3.62h30.77l.81-3.62h-9.05l3.89-18.1h-3.62l-3.89 18.1Zm-18.28-41.63h30.77l.72-3.62h-30.77l-.72 3.62Zm1.9 20.82 1.9-9.05h18.1l-1.9 9.05h-18.1Zm3.26-2.72h12.67l.81-3.62h-12.67l-.81 3.62Zm25.79-6.33 1.9-9.05h9.05l-1.9 9.05h-9.05Zm3.26 27.15 5.79-27.15h9.05l-5.79 27.15h-9.05Zm.09-29.87h3.62l.72-3.62h-3.62l-.72 3.62Zm3.26 27.15h3.62l4.62-21.72h-3.62l-4.62 21.72ZM7704.48 518.11l-1.99 9.05h-27.15l-5.79 27.15h27.15l-1.9 9.05h-36.2l13.48-63.35h9.05l-3.8 18.1h27.15Zm-42.53 42.53h30.77l.72-3.62h-27.15l6.97-32.58h27.15l.72-3.62h-27.15l3.89-18.1h-3.62l-12.3 57.92Zm34.75-6.33 5.79-27.15h9.05l-5.79 27.15h-9.05Zm3.34-2.72h3.62l4.62-21.72h-3.62l-4.62 21.72ZM7747.74 527.16l-1.9 9.05h-9.05l-5.79 27.15h-9.05l9.59-45.25h9.05l-1.9 9.05h9.05Zm-22.54 33.48h3.62l5.79-27.15h9.05l.81-3.62h-9.05l1.9-9.05h-3.62l-8.5 39.82Zm22.54-33.48 1.9-9.05h18.1l-1.9 9.05h-18.1Zm3.25-2.72h12.67l.81-3.62h-12.67l-.81 3.62ZM7773.62 554.31l7.69-36.2h9.05l-7.69 36.2h-9.05Zm3.35-2.72h3.62l6.52-30.77h-3.62l-6.52 30.77Zm3.8 11.77 1.9-9.05h27.15l-1.9 9.05h-27.15Zm3.26-2.72h21.72l.81-3.62h-21.72l-.81 3.62Zm25.79-6.33 7.69-36.2h9.05l-7.69 36.2h-9.05Zm3.35-2.72h3.62l6.52-30.77h-3.62l-6.52 30.77ZM7834.98 563.36l7.78-36.2h9.05l-7.78 36.2h-9.05Zm3.35-2.72h3.62l6.52-30.77h-3.62l-6.52 30.77Zm13.48-33.48 1.9-9.05h18.1l-1.9 9.05h-18.1Zm3.26-2.72h12.67l.72-3.62h-12.67l-.72 3.62Zm7.06 38.92 7.78-36.2h9.05l-7.78 36.2h-9.05Zm3.34-2.72h3.62l6.52-30.77h-3.62l-6.52 30.77Zm13.49-33.48 1.9-9.05h18.1l-1.9 9.05h-18.1Zm3.26-2.72h12.67l.72-3.62h-12.67l-.72 3.62Zm7.06 38.92 7.78-36.2h9.05l-7.78 36.2h-9.05Zm3.34-2.72h3.62l6.52-30.77h-3.62l-6.52 30.77ZM7913.89 554.31l1.99-9.05h9.05l-1.99 9.05h-9.05Zm3.35-2.72h3.62l.72-3.62h-3.62l-.72 3.62Zm3.8 11.77 1.9-9.05h27.15l1.99-9.05h-27.15l1.9-9.05h27.15l1.9-9.05h9.05l-7.69 36.2h-36.2Zm35.11-24.44H7929l-.82 3.62h27.15l-3.08 14.48h-27.15l-.72 3.62h30.77l6.52-30.77h-3.62l-1.9 9.05Zm-27.42-11.76 1.9-9.05h27.15l-1.9 9.05h-27.15Zm3.35-2.72h21.72l.72-3.62h-21.72l-.72 3.62ZM7977.24 554.31l11.58-54.3h9.05l-11.58 54.3h-9.05Zm3.35-2.72h3.62l10.32-48.87h-3.62l-10.32 48.87Zm3.8 11.77 1.9-9.05h9.05l-1.9 9.05h-9.05Zm3.26-2.72h3.62l.81-3.62h-3.62l-.81 3.62ZM8049 536.21l-1.99 9.05h-27.15l-1.9 9.05h-9.05l5.79-27.15h9.05l-1.9 9.05H8049Zm-36.74 15.38h3.62l1.9-9.05h27.15l.72-3.62h-27.15l1.99-9.05h-3.62l-4.61 21.72Zm3.8 11.77 1.9-9.05h27.15l-1.9 9.05h-27.15Zm3.26-2.72h21.72l.81-3.62h-21.72l-.81 3.62Zm4.44-33.48 1.9-9.05h27.15l-1.9 9.05h-27.15Zm3.25-2.72h21.72l.81-3.62h-21.72l-.81 3.62Zm21.99 11.77 1.9-9.05h9.05l-1.9 9.05H8049Zm3.26-2.72h3.62l.81-3.62h-3.62l-.81 3.62ZM8061.31 563.36l1.9-9.05h9.05l-1.9 9.05h-9.05Zm3.26-2.72h3.62l.81-3.62h-3.62l-.81 3.62ZM8088.46 563.36l1.9-9.05h9.05l-1.9 9.05h-9.05Zm3.26-2.72h3.62l.81-3.62h-3.62l-.81 3.62Zm4.43-33.48 1.9-9.05h9.05l-1.9 9.05h-9.05Zm3.26-2.72h3.62l.81-3.62h-3.62l-.81 3.62Zm0 29.87 1.99-9.05h9.05l-1.99 9.05h-9.05Zm3.35-2.72h3.62l.72-3.62h-3.62l-.72 3.62Zm.54-15.38 1.9-9.05h9.05l-1.9 9.05h-9.05Zm3.26-2.72h3.62l.81-3.62h-3.62l-.81 3.62Zm3.89 11.77 1.9-9.05h9.05l-1.9 9.05h-9.05Zm3.26-2.72h3.62l.72-3.62h-3.62l-.72 3.62Zm3.8 11.77 1.99-9.05h9.05l-1.99 9.05h-9.05Zm3.35-2.72h3.62l.72-3.62h-3.62l-.72 3.62Zm.54-15.38 1.9-9.05h9.05l-1.9 9.05h-9.05Zm3.26-2.72h3.62l.81-3.62h-3.62l-.81 3.62Zm0 29.87 1.9-9.05h9.05l-1.9 9.05h-9.05Zm3.26-2.72h3.62l.81-3.62h-3.62l-.81 3.62Zm4.43-33.48 1.9-9.05h9.05l-1.9 9.05h-9.05Zm3.26-2.72h3.62l.81-3.62h-3.62l-.81 3.62ZM8153.71 554.31l7.69-36.2h9.05l-7.69 36.2h-9.05Zm3.26 27.14 1.99-9.05h27.15l-1.99 9.05h-27.15Zm.09-29.86h3.62l6.52-30.77h-3.62l-6.52 30.77Zm3.26 27.15h21.72l.72-3.62h-21.72l-.72 3.62Zm25.79-6.33 1.9-9.05h-27.15l1.9-9.05h27.15l7.69-36.2h9.05l-11.49 54.3h-9.05Zm5.97-15.39h-27.15l-.81 3.62h27.15l-1.9 9.05h3.62l10.41-48.87h-3.62l-7.7 36.2ZM8262.31 554.31l-1.9 9.05h-45.25l1.9-9.05h9.05l1.99-9.05h9.05l-1.99 9.05h27.15Zm-34.03 2.71h-9.05l-.81 3.62h39.82l.81-3.62h-27.15l1.9-9.05h-3.62l-1.9 9.05Zm30.77-29.86-1.9 9.05h-9.05l1.9-9.05h-27.15l1.9-9.05H8270l-1.9 9.05h-9.05Zm-32.94-2.72h27.15l-1.9 9.05h3.619l1.901-9.05h9.05l.81-3.62h-39.82l-.81 3.62Zm11.04 20.82 1.9-9.05h9.05l-1.9 9.05h-9.05Zm3.26-2.72h3.62l.72-3.62h-3.62l-.72 3.62Z" fill="#e6e6e6"/><path d="M8640 0h1440v720H8640Z" fill="#eae3d8"/><path d="M9121.11 309.44v22.22h-22.22v22.22h22.22v22.22h-22.22v44.44h-22.22V376.1h-22.22v44.44h-22.22V376.1H9010v-22.22h22.22v-22.22H9010v-22.22h22.22V265h22.22v44.44h22.22V265h22.22v44.44h22.23Zm-35.56 8.89h-40v-44.44h-4.45v44.44h-22.22v4.44h22.22v40h-22.22v4.45h22.22v44.44h4.45v-44.44h40v44.44h4.45v-44.44h22.22v-4.45H9090v-40h22.22v-4.44H9090v-44.44h-4.44v44.44Zm-39.99 44.45v-40h40v40h-40Zm8.88-8.89h22.22v-22.22h-22.22v22.22ZM9187.78 287.22v44.44h66.67v22.22h-66.67v66.67h-22.219V265h88.889v22.22h-66.67Zm-13.34 124.45h4.44V345h66.67v-4.44h-66.67v-62.22h66.67v-4.44h-71.11v137.77Zm80-80v-44.44h22.22v44.44h-22.22Zm8.89-8.89h4.44v-26.67h-4.44v26.67ZM9310 398.33V265h22.22v133.33H9310Zm8.89-8.89h4.44V273.89h-4.44v115.55Zm13.33 31.12v-22.22h22.22v22.22h-22.22Zm8.89-8.89h4.44v-4.44h-4.44v4.44ZM9376.67 398.33v-22.22h22.22v22.22h-22.22Zm8.89-8.89h4.44V385h-4.44v4.44Zm13.33-57.77v-22.22h66.67v22.22h-66.67Zm0 88.89v-22.22h66.67v-22.22h-66.67V353.9h66.67v-22.22h22.22v88.89h-88.89Zm8.89-97.78h48.89v-4.44h-48.89v4.44Zm66.67 40h-66.67v4.45h66.67v40h-66.67v4.44h71.11v-71.11h-4.44v22.22ZM9532.22 398.33v-88.89h22.22v88.89h-22.22Zm8.89-8.89h4.44v-71.11h-4.44v71.11Zm80 53.34v-22.22h-66.67v-22.22h66.67v-88.89h22.22v133.33h-22.22ZM9554.45 465v-22.22h66.67V465h-66.67Zm75.55-57.78h-66.67v4.44H9630v22.22h4.44V318.33H9630v88.89Zm-66.67 48.89h48.89v-4.44h-48.89v4.44ZM9687.78 376.11V265H9710v111.11h-22.22Zm0 44.45v-22.22H9710v22.22h-22.22Zm8.89-53.34h4.44v-93.33h-4.44v93.33Zm0 44.45h4.44v-4.44h-4.44v4.44ZM10080 0h1440v720h-1440Z"/><path d="M10600 561.78v-4.88h4.88v4.88h-4.88Zm19.51-9.76v4.88h-4.88v24.39h-4.88V556.9h-4.88v-4.88h4.88v-4.88h4.88v4.88h4.88Zm0 9.76v-4.88h4.88v4.88h-4.88ZM10634.15 581.29v-4.88h4.88v4.88h-4.88Zm4.87-4.88v-4.88h4.88v4.88h-4.88Zm4.88-4.88v-4.88h4.88v4.88h-4.88Zm19.51-4.87v-9.76h-4.88v-4.88h-9.75v-4.88h19.51v19.51h-4.88Zm-14.63 0v-4.88h4.88v4.88h-4.88Zm4.88-4.88v-4.88h4.88v4.88h-4.88ZM10712.19 561.78v4.88h-4.88v4.88h-4.88v-4.88h-24.39v-4.88h24.39v-4.88h4.88v4.88h4.88Zm-14.63-4.88v-4.88h4.88v4.88h-4.88Zm0 19.51v-4.88h4.88v4.88h-4.88ZM10721.95 547.15h4.88v4.88h-4.88v-4.88Zm4.88 4.87h4.88v4.88h-4.88v-4.88Zm4.88 4.88h4.88v4.88h-4.88v-4.88Zm4.87 19.51h9.76v-4.88h4.88v-9.75h4.88v19.51h-19.51v-4.88Zm0-14.63h4.88v4.88h-4.88v-4.88Zm4.88 4.88h4.88v4.88h-4.88v-4.88ZM10765.85 566.66h4.88v4.88h-4.88v-4.88Zm9.76 9.75h-4.88v-4.88h4.88v-24.39h4.88v24.39h4.88v4.88h-4.88v4.88h-4.88v-4.88Zm9.75-9.75h4.88v4.88h-4.88v-4.88ZM10804.88 561.78v9.75h4.88v4.88h9.76v4.88H10800v-19.51h4.88Zm9.75 4.88v4.88h-4.88v-4.88h4.88Zm4.88-4.88v4.88h-4.88v-4.88h4.88Zm4.88-4.88v4.88h-4.88v-4.88h4.88Zm4.88-4.88v4.88h-4.88v-4.88h4.88Zm4.87-4.87v4.88h-4.88v-4.88h4.88ZM10853.66 561.78h24.39v4.88h-24.39v4.88h-4.88v-4.88h-4.88v-4.88h4.88v-4.88h4.88v4.88Zm4.88-4.88h-4.88v-4.88h4.88v4.88Zm0 19.51h-4.88v-4.88h4.88v4.88ZM10907.32 552.02h-9.76v4.88h-4.88v9.76h-4.88v-19.51h19.51v4.87Zm-4.88 9.76h-4.88v-4.88h4.88v4.88Zm4.88 4.88h-4.88v-4.88h4.88v4.88Zm4.87 4.87h-4.88v-4.88h4.88v4.88Zm4.88 4.88h-4.88v-4.88h4.88v4.88Zm4.88 4.88h-4.88v-4.88h4.88v4.88ZM10965.85 561.78v4.88h-4.88v4.88h-4.88v-4.88h-14.63v4.88h-4.88v-4.88h-4.88v-4.88h4.88v-4.88h4.88v4.88h14.63v-4.88h4.88v4.88h4.88Zm-24.39-4.88v-4.88h4.88v4.88h-4.88Zm0 19.51v-4.88h4.88v4.88h-4.88Zm9.76-19.51v-4.88h4.88v4.88h-4.88Zm0 19.51v-4.88h4.88v4.88h-4.88ZM10975.61 561.78v-4.88h4.88v4.88h-4.88Zm0 9.75v-4.88h4.88v4.88h-4.88Zm19.51-19.51v4.88h-4.88v14.63h4.88v4.88h-4.88v4.88h-4.88v-4.88h-4.881v-4.88h4.881V556.9h-4.881v-4.88h4.881v-4.88h4.88v4.88h4.88Zm0 9.76v-4.88h4.88v4.88h-4.88Zm0 9.75v-4.88h4.88v4.88h-4.88ZM10613.79 162.5v27.59h41.38v13.79h-41.38v27.59h41.38v13.79H10600v-96.55h55.17v13.79h-41.38Zm41.38 27.59V162.5h13.79v27.59h-13.79Zm0 41.38v-27.59h13.79v27.59h-13.79ZM10751.729 245.26v-27.59h-41.379v27.59h-13.79V162.5h13.79v41.38h41.379V162.5h13.791v82.76h-13.791Zm-41.379-82.76v-13.79h41.379v13.79h-41.379ZM10793.1 190.09V162.5h13.79v27.59h-13.79Zm0 41.38v-13.79h13.79v13.79h-13.79Zm13.8-68.97v-13.79h41.38v13.79h-41.38Zm0 41.38v-13.79h41.38v13.79h-41.38Zm0 41.38v-13.79h41.38v13.79h-41.38Zm41.38-68.96v-13.8h13.79v13.79h-13.79Zm0 55.17v-27.59h13.79v27.59h-13.79ZM10889.66 245.26v-96.55h13.79v96.55h-13.79ZM10931.03 231.47V162.5h13.79v68.97h-13.79Zm13.8-68.97v-13.79h41.38v13.79h-41.38Zm0 82.76v-13.79h41.38v13.79h-41.38Zm41.38-68.96v-13.8h13.79v13.79h-13.79Zm0 55.17v-13.79h13.79v13.79h-13.79ZM10600 498.54l1.521-7.23h14.459l-1.52 7.23H10600Zm15.98-7.23 7.66-36.15h-7.23l1.59-7.23h14.46l-9.25 43.38h-7.23ZM10637.67 491.31l6.15-28.92h7.23l-6.15 28.92h-7.23Zm5.71 7.23 1.52-7.23h21.69l-1.52 7.23h-21.69Zm23.21-7.23 6.15-28.92h7.23l-6.15 28.92h-7.23ZM10686.771 498.54l1.519-7.23h21.69l-1.52 7.23h-21.689Zm4.629-21.69 1.52-7.23h7.23l-1.52 7.23h-7.23Zm5.71 7.23 1.52-7.23h14.46l-1.52 7.23h-14.46Zm3.04-14.46 1.59-7.23h21.69l-1.59 7.23h-21.69Zm9.83 21.69 1.59-7.23h7.23l-1.59 7.23h-7.23ZM10759.58 462.39l-1.52 7.23h-14.46l-4.63 21.69h-7.23l9.25-43.38h7.23l-3.11 14.46h14.47Zm-22.12 36.15 1.52-7.23h14.46l-1.52 7.23h-14.46ZM10796.82 491.31h-7.23l1.59-7.23h7.23l-1.59 7.23Zm4.63-21.69h-7.23l3.11-14.46h7.23l-3.11 14.46Zm24.8-14.46h-7.229l-3.111 14.46h7.23l-1.52 7.23h-7.23l-3.11 14.46h7.23l-1.52 7.23h-7.23l-1.52 7.23h-7.23l1.52-7.23h-7.23l1.52-7.23h7.23l3.11-14.46h-7.23l1.52-7.23h7.23l3.11-14.46h-7.23l1.52-7.23h7.23l1.52-7.23h7.23l-1.52 7.23h7.231l-1.521 7.23Zm-4.63 21.69h7.23l-3.11 14.46h-7.23l3.11-14.46Zm4.63-21.69h7.23l-1.59 7.23h-7.23l1.59-7.23ZM10840.28 491.31l7.741-36.15h7.229l-7.74 36.15h-7.23Zm5.71 7.23 1.52-7.23h21.69l-1.52 7.23h-21.69Zm9.25-43.38 1.52-7.23h21.69l-1.52 7.23h-21.69Zm2.61 21.69 1.52-7.23h7.23l-1.52 7.23h-7.23Zm11.35 14.46 7.74-36.15h7.23l-7.74 36.15h-7.23ZM10885.83 498.54l1.52-7.23h7.23l-1.52 7.23h-7.23ZM10905.43 491.31l7.74-36.15h7.23l-7.74 36.15h-7.23Zm5.71 7.23 1.52-7.23h21.69l-1.52 7.23h-21.69Zm9.25-43.38 1.52-7.23h21.69l-1.52 7.23h-21.69Zm2.61 21.69 1.52-7.23h7.23l-1.521 7.23H10923Zm11.35 14.46 7.74-36.15h7.23l-7.74 36.15h-7.23ZM10956.11 491.31l7.74-36.15h7.23l-7.74 36.15h-7.23Zm5.72 7.23 1.52-7.23h21.69l-1.52 7.23h-21.69Zm9.25-43.38 1.52-7.23h21.69l-1.52 7.23h-21.69Zm2.6 21.69 1.52-7.23h7.23l-1.52 7.23h-7.23Zm11.35 14.46 7.74-36.15h7.23l-7.74 36.15h-7.23ZM10600 337.79v-30.77h15.38v30.77H10600Zm0 46.15v-30.77h15.38v30.77H10600Zm15.38-76.92v-15.38h30.77v15.38h-30.77Zm0 46.15v-15.38h30.77v15.38h-30.77Zm0 46.16v-15.38h30.77v15.38h-30.77Zm30.77-61.54v-30.77h15.38v30.77h-15.38Zm15.39 30.77v15.38h-15.38v-30.77h30.77v15.38h-15.39Zm0 30.77v-15.38h15.38v15.38h-15.38Zm15.38-46.16v-15.38h15.38v15.38h-15.38ZM10730.771 307.02v30.77h46.149v15.38h-46.149v46.15h-15.381V291.64h76.92v15.38h-61.539ZM10815.39 383.94v-92.3h15.38v92.3h-15.38Zm15.38 15.39v-15.38h46.15v15.38h-46.15Zm46.15-15.39v-92.3h15.38v92.3h-15.38ZM10953.85 307.02v15.38h-15.38v76.92h-15.38V291.64h15.38v15.38h15.38Zm0 30.77v-15.38h15.38v15.38h-15.38Zm30.77 61.54v-46.15h-15.38V337.8h15.38v-46.15h15.38v107.69h-15.38Z" fill="#e6e6e6"/><path d="M11520 0h1440v720h-1440Z" fill="#eae3d8"/><path d="M11690 216.9v-19.31h9.66v19.31h-9.66Zm1.93-1.93h5.79v-15.45h-5.79v15.45Zm7.73-17.38v-9.66h9.66v-9.66h9.66v19.31h-19.32Zm0 28.97v-9.66h19.31v9.66h-19.31Zm11.58-36.69h-9.66v5.79h15.45v-15.45h-5.79v9.66Zm-9.65 34.76h15.45v-5.79h-15.45v5.79Zm7.72-56.01v-9.66h9.66v9.66h-9.66Zm1.93-1.93h5.79v-5.79h-5.79v5.79Zm7.73 50.21v-9.66h9.66v9.66h-9.66Zm1.93-1.93h5.79v-5.79h-5.79v5.79ZM11738.28 197.59v-48.28h9.66v48.28h-9.66Zm1.93-1.93h5.79v-44.42h-5.79v44.42Zm7.72-46.35v-9.66h28.97v9.66h-28.97Zm19.31 57.94v9.66h-9.66v-9.66h-9.66v-9.66h28.97v9.66h-9.65Zm-17.38-59.87h25.1v-5.79h-25.1v5.79Zm0 57.93h9.66v9.66h5.79v-9.66h9.66v-5.79h-25.1v5.79Zm17.38 21.25v-9.66h19.31v9.66h-19.31Zm1.93-1.93h15.45v-5.79h-15.45v5.79Zm7.73-27.04v-48.28h9.66v48.28h-9.66Zm1.93-1.93h5.79v-44.42h-5.79v44.42ZM11805.86 197.59v-38.62h9.66v38.62h-9.66Zm1.93-1.93h5.79V160.9h-5.79v34.76Zm7.73 11.59v-9.66h28.97v9.66h-28.97Zm1.93-1.94h25.1v-5.79h-25.1v5.79Zm27.03-7.72v-38.62h9.66v38.62h-9.66Zm1.93-1.93h5.79V160.9h-5.79v34.76ZM11912.07 178.28v9.66h-28.97v9.66h-9.66v-28.97h9.66v9.66h28.97Zm-36.69 17.38h5.79V186h28.97v-5.79h-28.97v-9.66h-5.79v25.11Zm7.72-27.04v-9.66h28.97v9.66h-28.97Zm0 38.63v-9.66h28.97v9.66h-28.97Zm1.93-40.56h25.1v-5.79h-25.1v5.79Zm0 38.62h25.1v-5.79h-25.1v5.79Zm7.73-56v-9.66h9.66v9.66h-9.66Zm1.93-1.93h5.79v-5.79h-5.79v5.79Zm7.72-7.72V130h9.66v9.66h-9.66Zm1.93-1.94h5.79v-5.79h-5.79v5.79Zm7.73 40.56v-9.66h9.66v9.66h-9.66Zm1.93-1.93h5.79v-5.79h-5.79v5.79ZM11931.38 158.97v-9.66h9.66v9.66h-9.66Zm1.93-1.93h5.79v-5.79h-5.79v5.79Zm7.72-7.73v-9.66h19.31v9.66h-19.31Zm9.66 28.97v9.66h-9.66v-19.31h19.31v9.66h-9.65Zm-9.66 28.97v-9.66h9.66v9.66h-9.66Zm1.93-59.87h15.45v-5.79h-15.45v5.79Zm0 38.62h5.79v-9.66h9.66v-5.79h-15.45V186Zm0 19.31h5.79v-5.79h-5.79v5.79Zm17.38-36.69v-19.31h9.66v19.31h-9.66Zm1.94-1.93h5.79v-15.45h-5.79v15.45ZM12126.05 491.86v13.02h-13.02V570H12100v-91.16h13.02v13.02h13.03Zm-23.45 75.54h7.81v-65.12h13.02v-7.81h-13.02v-13.02h-7.81v85.95Zm23.45-49.49v-13.02h13.02v13.02h-13.02Zm2.6-2.61h7.81v-7.81h-7.81v7.81Zm23.44 54.7v-39.07h-13.02v-13.02h13.02v-39.07h13.02V570h-13.02Zm2.61-49.49h-13.02v7.81h13.02v39.07h7.81v-85.96h-7.81v39.08ZM12184.65 556.98v-13.02h13.02v13.02h-13.02Zm2.61-2.61h7.81v-7.81h-7.81v7.81Zm10.42-62.51v-13.02h13.02v13.02h-13.02Zm0 26.05v-13.02h39.07v13.02h-39.07Zm0 52.09v-13.02h39.07v-13.02h-39.07v-13.02h39.07v-13.02h13.021V570h-52.091Zm2.6-80.75h7.81v-7.81h-7.81v7.81Zm0 26.05h33.86v-7.81h-33.86v7.81Zm39.07 18.23h-39.07v7.81h39.07v18.23h-39.07v7.81h46.88V520.5h-7.81v13.03Zm-28.65-54.69v-13.02h13.02v13.02h-13.02Zm2.6-2.61h7.81v-7.81h-7.81v7.81Zm10.42 15.63v-13.02h13.02v13.02h-13.02Zm2.61-2.61h7.81v-7.81h-7.81v7.81Zm10.42-10.41v-13.02h13.021v13.02h-13.021Zm2.6-2.61h7.81v-7.81h-7.81v7.81ZM12275.81 556.98v-39.07h13.02v39.07h-13.02Zm2.61-2.61h7.81v-33.86h-7.81v33.86Zm10.42-36.46v-13.02h39.07v13.02h-39.07Zm0 52.09v-13.02h39.07V570h-39.07Zm2.6-54.7h33.86v-7.81h-33.86v7.81Zm0 52.1h33.86v-7.81h-33.86v7.81Zm36.47-10.42v-39.07h13.02v39.07h-13.02Zm2.6-2.61h7.81v-33.86h-7.81v33.86ZM12366.98 543.95v-65.12h13.02v65.12h-13.02Zm0 26.05v-13.02h13.02V570h-13.02Zm2.6-28.65h7.81v-59.91h-7.81v59.91Zm0 26.05h7.81v-7.81h-7.81v7.81ZM12100 377.65v-9.49h9.49v9.49h-9.49Zm2.85-2.85h3.8V371h-3.8v3.8Zm6.64-73.08v-9.49h9.49v9.49h-9.49Zm0 66.44v-56.95h9.49v56.95h-9.49Zm2.85-69.29h3.8v-3.8h-3.8v3.8Zm0 66.44h3.8v-51.25h-3.8v51.25ZM12175.93 330.19v9.49h-28.47v9.49h-9.49V320.7h9.49v9.49h28.47Zm-35.12 16.14h3.8v-9.49h28.47v-3.8h-28.47v-9.49h-3.8v22.78Zm6.65-25.63v-9.49h28.47v9.49h-28.47Zm18.98 37.97v9.49h-9.49v-9.49h-9.49v-9.49h28.47v9.49h-9.49Zm-16.14-40.82h22.78v-3.8h-22.78v3.8Zm0 37.97h9.49v9.49h3.8v-9.49h9.49v-3.8h-22.78v3.8Zm16.14 21.83v-9.49h9.49v9.49h-9.49Zm2.85-2.85h3.8V371h-3.8v3.8Zm6.64-44.61v-9.49h9.49v9.49h-9.49Zm2.85-2.85h3.8v-3.8h-3.8v3.8ZM12237.63 320.7v9.49h-9.49v-9.49h-28.47v-9.49h47.46v9.49h-9.5Zm9.49 28.47v9.49h-47.46v-9.49h9.49v-9.49h9.49v9.49h28.48Zm-44.61-31.32h28.47v9.49h3.8v-9.49h9.491v-3.8h-41.761v3.8Zm9.49 34.17h-9.49v3.8h41.761v-3.8h-28.471v-9.49h-3.8v9.49Zm6.64-12.34v-9.49h9.49v9.49h-9.49Zm2.85-2.85h3.8v-3.8h-3.8v3.8ZM12266.1 349.17V311.2h9.49v37.97h-9.49Zm2.85-2.84h3.8v-32.27h-3.8v32.27Zm35.12 21.83v-9.49h-28.47v-9.49h28.47v-37.97h9.49v56.95h-9.49Zm-28.48 9.49v-9.49h28.47v9.49h-28.47Zm31.32-25.63h-28.47v3.8h28.47v9.49h3.8v-51.25h-3.8v37.96Zm-28.47 22.78h22.78V371h-22.78v3.8ZM12361.02 330.19v9.49h-18.98v18.98h-9.49v-66.44h9.49v37.97h18.98Zm-25.63 25.63h3.8v-18.98h18.98v-3.8h-18.98v-37.97h-3.8v60.75Zm25.63-25.63v-9.49h9.49v9.49h-9.49Zm0 18.98v-9.49h9.49v9.49h-9.49Zm2.84-21.83h3.8v-3.8h-3.8v3.8Zm0 18.99h3.8v-3.8h-3.8v3.8Zm6.65-25.63v-9.49h9.49v9.49h-9.49Zm0 37.97v-9.49h9.49v9.49h-9.49Zm2.85-40.82h3.8v-3.8h-3.8v3.8Zm0 37.97h3.8v-3.8h-3.8v3.8ZM11750 510v20h-40v40h-20V430h20v80h40Zm-52 52h4v-40h40v-4h-40v-80h-4v124Zm52-52v-20h20v20h-20Zm0 40v-20h20v20h-20Zm8-48h4v-4h-4v4Zm0 40h4v-4h-4v4Zm12-52v-20h20v20h-20Zm0 80v-20h20v20h-20Zm8-88h4v-4h-4v4Zm0 80h4v-4h-4v4ZM11830 570V470h20v100h-20Zm8-8h4v-84h-4v84ZM11890 510v-20h20v20h-20Zm40 80v-20h-40v-20h60v40h-20Zm-32-88h4v-4h-4v4Zm0 60h40v20h4v-24h-44v4Zm12-72v-20h60v20h-60Zm0 40v-20h40v20h-40Zm0 80v-20h20v20h-20Zm8-128h44v-4h-44v4Zm0 40h24v-4h-24v4Zm0 80h4v-4h-4v4Zm32-52v-20h20v20h-20Zm8-8h4v-4h-4v4ZM11690 347.37l1.68-7.64h7.64l-1.68 7.64h-7.64Zm4.89-22.91 3.28-15.27h7.64l-3.28 15.27h-7.64Zm1.14 30.55 1.6-7.64h22.91l-1.6 7.64h-22.91Zm4.89-22.91 1.6-7.64h22.91l-1.6 7.64h-22.91Zm4.89-22.92 1.6-7.64h22.91l-1.6 7.64h-22.91Zm14.74 38.19 3.28-15.27h7.64l-3.28 15.27h-7.64Zm6.57-30.55 1.6-7.64h7.64l-1.6 7.64h-7.64ZM11772.94 316.82l-1.6 7.64h-15.27l-4.89 22.91h-7.64l9.78-45.82h7.64l-3.28 15.27h15.26Zm-23.37 38.19 1.6-7.64h15.27l-1.6 7.64h-15.27ZM11801.89 324.46l-1.6 7.64h-7.64l-4.89 22.91h-7.64l8.1-38.19h7.64l-1.6 7.64h7.63Zm0 0 1.6-7.64h15.27l-1.6 7.64h-15.27ZM11819.92 347.37l1.68-7.64h7.64l-1.68 7.64h-7.64Zm6.03 7.64 1.6-7.64h22.91l1.68-7.64h-22.91l1.6-7.64h22.91l1.6-7.64h7.64l-6.49 30.55h-30.54Zm6.49-30.55 1.6-7.64h22.91l-1.6 7.64h-22.91ZM11871.78 355.01l9.78-45.82h7.64l-9.78 45.82h-7.64Zm15.28 0 1.6-7.64h15.27l-1.6 7.64h-15.27Zm2.13-45.83 1.6-7.64h22.91l-1.6 7.64h-22.91Zm2.75 22.92 1.6-7.64h15.27l-1.6 7.64h-15.27Zm11.99 15.27 3.28-15.27h7.64l-3.28 15.27h-7.64Zm4.89-22.91 3.28-15.27h7.64l-3.28 15.27h-7.64ZM11960.76 332.1l-1.68 7.64h-22.91l-1.6 7.64h-7.64l4.89-22.91h7.64l-1.6 7.64h22.9Zm-27.8 22.91 1.6-7.64h22.91l-1.6 7.64h-22.91Zm6.49-30.55 1.6-7.64h22.91l-1.6 7.64h-22.91Zm21.31 7.64 1.6-7.64h7.64l-1.6 7.64h-7.64ZM12539.09 306.61v7.27h-21.82v21.82h21.82v7.27H12510v-50.91h7.27v14.55h21.82Zm0 29.09v-21.82h7.27v21.82h-7.27ZM12557.27 335.7v-7.27h7.27v7.27h-7.27Zm3.64-43.63v-7.27h7.27v7.27h-7.27Zm3.64 21.82v-7.27h21.82v7.27h-21.82Zm0 29.09v-7.27h21.82v-7.27h-21.82v-7.27h21.82v-7.27h7.27v29.09h-29.09Zm3.63-43.64v-7.27h14.55v7.27h-14.55Zm14.55-7.27v-7.27h7.27v7.27h-7.27ZM12622.73 313.89v7.27h-7.27v21.82h-7.271v-36.37h7.271v7.27h7.27Zm0 0v-7.27h14.55v7.27h-14.55ZM12677.271 306.61v7.27h-21.821v21.82h21.821v7.27h-29.091v-50.91h7.27v14.55h21.821Zm0 29.09v-21.82h7.269v21.82h-7.269ZM12695.45 335.7v-7.27h7.27v7.27h-7.27Zm7.279-21.81v-7.27h21.821v7.27h-21.821Zm0 29.09v-7.27h21.821v-7.27h-21.821v-7.27h21.821v-7.27h7.27v29.09h-29.091ZM12768.18 306.61v7.27h-14.55v21.82h-7.27v-43.64h7.27v14.55h14.55Zm-14.54 36.37v-7.27h14.55v7.27h-14.55Zm0 21.82v-14.55h7.27v14.55h-7.27ZM12782.73 299.34v-7.27h7.27v7.27h-7.27Zm0 43.64v-36.37h7.27v36.37h-7.27ZM12521.2 154.8v22.4h33.6v11.2h-33.6V222h-11.2v-78.4h44.8v11.2h-33.6Zm-7.84 63.84h4.48v-33.6h33.599v-4.48h-33.599v-29.12h33.599v-4.48h-38.079v71.68Zm41.44-41.44v-22.4h11.2v22.4h-11.2Zm3.36-3.36h4.48v-15.68h-4.48v15.68ZM12594 154.8v22.4h33.6v11.2h-11.2v11.2h-11.2v-11.2h-11.2V222h-11.2v-78.4h44.8v11.2h-33.6Zm-7.84 63.84h4.48v-33.6h17.92v11.2h4.48v-11.2h11.2v-4.48h-33.6v-29.12h33.6v-4.48h-38.08v71.68Zm30.24-7.84v-11.2h11.2v11.2h-11.2Zm3.36-3.36h4.48v-4.48h-4.48v4.48Zm7.84-30.24v-22.4h11.2v22.4h-11.2Zm0 44.8v-11.2h11.2V222h-11.2Zm3.36-48.16h4.479v-15.68h-4.479v15.68Zm0 44.8h4.479v-4.48h-4.479v4.48ZM12672.4 154.8v22.4h33.6v11.2h-33.6v22.4h44.69V222h-55.89v-78.4h56v11.2h-44.8Zm-7.839 63.84h49.169v-4.48h-44.69v-29.12h33.6v-4.48h-33.6v-29.12h44.8v-4.48h-49.279v71.68Zm7.839-86.24v-11.2h11.2v11.2h-11.2Zm3.36-3.36h4.48v-4.48h-4.48v4.48Zm7.84-7.84V110h11.2v11.2h-11.2Zm3.36-3.36h4.48v-4.48h-4.48v4.48Zm7.84 14.56v-11.2h11.2v11.2h-11.2Zm3.36-3.36h4.48v-4.48h-4.48v4.48ZM12767.6 154.8V222h-11.2v-67.2h-22.4v-11.2h56v11.2h-22.4Zm-30.24-3.36h22.4v67.2h4.48v-67.2h22.4v-4.48h-49.28v4.48ZM12580.23 478.8l-3.83 18.24h-36.48l-11.67 54.72H12510l23.35-109.44h18.24l-7.84 36.48h36.48Zm-65.85 69.31h10.94l11.67-54.72h36.48l2.37-10.94h-36.48l7.66-36.48h-10.94l-21.7 102.14Zm56.91-62.02-.729 3.65h-36.481l-11.67 54.72h-3.65l20.25-94.85h3.65l-7.84 36.48h36.47Zm-46.88 83.91 3.83-18.24h36.48l-3.83 18.24h-36.48Zm4.38-3.65h29.18l2.37-10.94h-29.18l-2.37 10.94Zm4.38-3.65.73-3.65h21.89l-.73 3.65h-21.89ZM12592.09 551.76l3.83-18.24h18.24l-3.83 18.24h-18.24Zm4.38-3.65h10.94l2.37-10.94h-10.94l-2.37 10.94Zm4.37-3.65.91-3.65h3.65l-.91 3.65h-3.65Zm5.66 25.54 3.83-18.24h54.72l3.83-18.24h-54.72l3.83-18.24h54.72l4.01-18.24h18.24l-15.5 72.96h-72.96Zm69.13-51.07h-54.72l-2.37 10.94h54.72l-5.29 25.54h-54.72l-2.37 10.94h65.67l13.86-65.67h-10.94l-3.84 18.25Zm-60.38 43.77.73-3.65h54.72l7.111-32.83h-54.721l.73-3.65h54.72l3.83-18.24h3.651l-12.401 58.37h-58.37Zm6.75-65.66 3.83-18.24h54.72l-3.83 18.24H12622Zm2.561-54.72 3.829-18.24h18.24l-3.83 18.24h-18.239Zm1.819 51.07h47.431l2.369-10.94h-47.43l-2.37 10.94Zm2.55-54.72h10.94l2.37-10.94h-10.94l-2.37 10.94Zm1.83 51.07.73-3.65h40.13l-.73 3.65h-40.13Zm2.551-54.72.729-3.65h3.65l-.73 3.65h-3.649Zm5.469 25.54 4.01-18.24h36.481l-4.011 18.24h-36.48Zm4.56-3.65h29.181l2.189-10.94h-29.189l-2.181 10.94Zm4.38-3.65.73-3.65h21.89l-.73 3.65h-21.89Zm8.03-29.18 3.83-18.24h18.24l-3.83 18.24h-18.24Zm4.38-3.65h10.94l2.37-10.94h-10.94l-2.37 10.94Zm4.37-3.65.91-3.65h3.651l-.911 3.65h-3.65Zm13.32-10.94 3.83-18.24h18.24l-3.83 18.24h-18.24Zm1.46 36.48 3.83-18.24h18.24l-3.829 18.24h-18.241Zm2.92-40.13h10.94l2.37-10.94h-10.94l-2.37 10.94Zm1.46 36.48h10.94l2.37-10.94h-10.94l-2.37 10.94Zm3.1-40.13.73-3.65h3.65l-.73 3.65h-3.65Zm1.27 36.48.73-3.65h3.65l-.73 3.65h-3.65ZM12790 478.8l-3.83 18.24h-36.48l-11.669 54.72h-18.241l23.35-109.44h18.24l-7.84 36.48h36.47Zm-65.85 69.31h10.94l11.67-54.72h36.48l2.37-10.94h-36.48l7.66-36.48h-10.94l-21.7 102.14Zm56.911-62.02-.731 3.65h-36.479l-11.671 54.72h-3.65l20.25-94.85h3.65l-7.84 36.48h36.471ZM12734.18 570l3.83-18.24h36.48l-3.83 18.24h-36.48Zm4.381-3.65h29.179l2.37-10.94h-29.18l-2.369 10.94Zm4.379-3.65.73-3.65h21.89l-.73 3.65h-21.89ZM12100 195.65l8.99-42.03h8.41l-8.99 42.03h-8.41Zm6.64 8.41 1.77-8.41h25.22l-1.77 8.41h-25.22Zm10.76-50.44 1.77-8.41h25.22l-1.77 8.41h-25.22Zm16.22 42.03 1.85-8.41h8.41l-1.85 8.41h-8.41Zm7.23-33.62 1.77-8.41h8.41l-1.77 8.41h-8.41ZM12190.78 204.06l3.531-16.81h-25.211l-3.53 16.81h-8.41l10.76-50.44h8.41l-5.38 25.22h25.22l5.38-25.22h8.41l-10.76 50.44h-8.42Zm-14.46-50.44 1.77-8.41h25.22l-1.77 8.41h-25.22ZM12235.25 153.62l-3.61 16.81h25.22l-1.77 8.41h-25.22l-5.38 25.22h-8.41l12.53-58.84h42.03l-1.77 8.41h-33.62ZM12289.97 153.62l-3.61 16.81h25.22l-1.77 8.41h-25.22l-5.38 25.22h-8.41l12.53-58.84h42.03l-1.77 8.41h-33.62ZM12344.61 153.62l-3.53 16.81h25.22l-1.85 8.41h-25.22l-3.53 16.81h33.54l-1.76 8.41h-41.95l12.44-58.84h42.03l-1.76 8.41h-33.63Zm5.38-25.21 1.76-8.41h8.41l-1.76 8.41h-8.41Zm6.64 8.4 1.77-8.41h8.41l-1.77 8.41h-8.41ZM12960 0h1440v720h-1440Z"/><path d="M13124.21 161.66v26.16h-4.36v-26.16h-8.72v-4.36h21.8v4.36h-8.72ZM13148.18 170.37v4.36h-4.36v13.08h-4.36V157.3h4.36v13.08h4.36Zm0 0v-4.36h8.72v4.36h-8.72Zm8.72 17.44v-17.44h4.36v17.44h-4.36ZM13187.42 174.73v4.36h-13.08v4.36h-4.36v-13.08h4.36v4.36h13.08Zm-13.08-4.36v-4.36h13.08v4.36h-13.08Zm0 17.44v-4.36h13.08v4.36h-13.08Zm13.08-13.08v-4.36h4.36v4.36h-4.36ZM13213.57 187.81v-17.44h4.36v17.44h-4.36Zm4.36-17.44v-4.36h8.72v4.36h-8.72Zm8.72 17.44v-17.44h4.36v17.44h-4.36Zm4.36-17.44v-4.36h8.72v4.36h-8.72Zm8.72 17.44v-17.44h4.36v17.44h-4.36ZM13250.62 183.45v-4.36h4.36v4.36h-4.36Zm4.36-13.08v-4.36h13.08v4.36h-13.08Zm0 17.44v-4.36h13.08v-4.36h-13.08v-4.36h13.08v-4.36h4.36v17.44h-17.44ZM13281.14 187.81v-17.44h4.36v17.44h-4.36Zm4.36-17.44v-4.36h13.08v4.36h-13.08Zm13.08 17.44v-17.44h4.36v17.44h-4.36ZM13316.01 166.02v17.44h-4.36v-17.44h4.36Zm13.08 17.43v4.36h-13.08v-4.36h13.08Zm4.36-17.43v17.44h-4.36v-17.44h4.36ZM13342.16 174.73v-4.36h4.36v4.36h-4.36Zm0 13.08v-4.36h13.08v4.36h-13.08Zm4.36-17.44v-4.36h13.08v4.36h-13.08Zm0 8.72v-4.36h8.72v4.36h-8.72Zm8.72 4.36v-4.36h4.36v4.36h-4.36ZM13368.32 183.45v-13.08h4.36v13.08h-4.36Zm4.36-13.08v-4.36h13.08v4.36h-13.08Zm0 17.44v-4.36h13.08v4.36h-13.08ZM13403.19 170.37v4.36h-4.36v13.08h-4.36v-21.8h4.36v4.36h4.36Zm0 0v-4.36h8.72v4.36h-8.72ZM13418.45 161.66v-4.36h4.36v4.36h-4.36Zm0 26.15v-21.8h4.36v21.8h-4.36ZM13435.89 170.37v13.08h13.08v4.36h-13.08v8.72h-4.36v-30.52h17.44v4.36h-13.08Zm13.08 13.08v-13.08h4.36v13.08h-4.36ZM13475.12 166.02v4.36h-8.72v13.08h-4.36V157.3h4.36v8.72h8.72Zm-8.72 21.79v-4.36h8.72v4.36h-8.72ZM13496.91 161.66v-4.36h4.36v4.36h-4.36Zm0 26.15v-21.8h4.36v21.8h-4.36ZM13509.99 174.73v-4.36h4.36v4.36h-4.36Zm0 13.08v-4.36h13.08v4.36h-13.08Zm4.36-17.44v-4.36h13.08v4.36h-13.08Zm0 8.72v-4.36h8.72v4.36h-8.72Zm8.72 4.36v-4.36h4.36v4.36h-4.36ZM13562.3 166.02v4.36h-8.72v13.08h-4.36V157.3h4.36v8.72h8.72Zm-8.72 21.79v-4.36h8.72v4.36h-8.72ZM13579.74 170.37v4.36h-4.36v13.08h-4.36v-21.8h4.36v4.36h4.36Zm0 0v-4.36h8.72v4.36h-8.72ZM13592.82 183.45v-4.36h4.36v4.36h-4.36Zm4.35-13.08v-4.36h13.08v4.36h-13.08Zm0 17.44v-4.36h13.08v-4.36h-13.08v-4.36h13.08v-4.36h4.36v17.44h-17.44ZM13623.33 187.81v-17.44h4.36v17.44h-4.36Zm4.36-17.44v-4.36h13.08v4.36h-13.08Zm13.08 17.44v-17.44h4.36v17.44h-4.36ZM13653.84 174.73v-4.36h4.36v4.36h-4.36Zm0 13.08v-4.36h13.08v4.36h-13.08Zm4.36-17.44v-4.36h13.08v4.36h-13.08Zm0 8.72v-4.36h8.72v4.36h-8.72Zm8.72 4.36v-4.36h4.36v4.36h-4.36ZM13680 183.45v-13.08h4.36v13.08h-4.36Zm4.36-13.08v-4.36h13.08v4.36h-13.08Zm0 17.44v-4.36h13.08v4.36h-13.08ZM13714.87 170.37v4.36h-4.36v13.08h-4.36v-21.8h4.36v4.36h4.36Zm0 0v-4.36h8.72v4.36h-8.72ZM13730.13 161.66v-4.36h4.36v4.36h-4.36Zm0 26.15v-21.8h4.36v21.8h-4.36ZM13760.64 166.02v4.36h-13.08v13.08h13.08v4.36h-17.44V157.3h4.36v8.72h13.08Zm0 17.43v-13.08h4.36v13.08h-4.36ZM13791.16 174.73v4.36h-13.08v4.36h-4.36v-13.08h4.36v4.36h13.08Zm-13.08-4.36v-4.36h13.08v4.36h-13.08Zm0 17.44v-4.36h13.08v4.36h-13.08Zm13.08-13.08v-4.36h4.36v4.36h-4.36ZM13806.41 183.45h-4.36v-13.08h4.36v13.08Zm17.44 4.36h-17.44v-4.36h13.08v-13.08h-13.08v-4.36h13.08v-8.72h4.36v30.52ZM13845.65 183.45v-13.08h4.36v13.08h-4.36Zm4.36-13.08v-4.36h13.08v4.36h-13.08Zm0 17.44v-4.36h13.08v4.36h-13.08Zm13.07-4.36v-13.08h4.36v13.08h-4.36ZM13876.16 187.81v-17.44h4.36v17.44h-4.36Zm4.361-17.44v-4.36h13.079v4.36h-13.079Zm13.079 17.44v-17.44h4.36v17.44h-4.36ZM13919.75 166.02v4.36h-8.72v13.08h-4.36V157.3h4.36v8.72h8.72Zm-8.72 21.79v-4.36h8.72v4.36h-8.72ZM13928.47 183.45v-13.08h4.36v13.08h-4.36Zm4.36-13.08v-4.36h13.08v4.36h-13.08Zm0 17.44v-4.36h13.08v4.36h-13.08Zm13.08-4.36v-13.08h4.36v13.08h-4.36ZM13985.14 166.02v4.36h-8.72v13.08h-4.36V157.3h4.36v8.72h8.72Zm-8.72 21.79v-4.36h8.72v4.36h-8.72ZM14002.58 170.37v4.36h-4.36v13.08h-4.36V157.3h4.36v13.08h4.36Zm0 0v-4.36h8.72v4.36h-8.72Zm8.71 17.44v-17.44h4.36v17.44h-4.36ZM14024.37 161.66v-4.36h4.359v4.36h-4.359Zm0 26.15v-21.8h4.359v21.8h-4.359ZM14037.45 187.81v-17.44h4.36v17.44h-4.36Zm4.361-17.44v-4.36h13.079v4.36h-13.079Zm13.079 17.44v-17.44h4.36v17.44h-4.36ZM14081.04 174.73v-4.36h4.36v4.36h-4.36Zm0 13.08v-4.36h13.08v4.36h-13.08Zm4.36-17.44v-4.36h13.08v4.36h-13.08Zm0 8.72v-4.36h8.72v4.36h-8.72Zm8.72 4.36v-4.36h4.36v4.36h-4.36ZM14107.189 183.45V157.3h4.361v26.16h-4.361Zm4.361 4.36v-4.36h4.36v4.36h-4.36ZM14122.45 161.66v-4.36h4.36v4.36h-4.36Zm0 26.15v-21.8h4.36v21.8h-4.36ZM14135.53 183.45v-13.08h4.36v13.08h-4.36Zm4.36-13.08v-4.36h13.08v4.36h-13.08Zm13.08 21.8v-4.36h-13.08v-4.36h13.08v-13.08h4.36v21.8h-4.36Zm-13.08 4.36v-4.36h13.08v4.36h-13.08ZM14174.76 170.37v4.36h-4.36v13.08h-4.36V157.3h4.36v13.08h4.36Zm0 0v-4.36h8.719v4.36h-8.719Zm8.719 17.44v-17.44h4.361v17.44h-4.361ZM14209.63 166.02v4.36h-8.72v13.08h-4.36V157.3h4.36v8.72h8.72Zm-8.72 21.79v-4.36h8.72v4.36h-8.72ZM14218.35 179.09v-4.36h13.08v4.36h-13.08ZM13111.13 235.76V209.6h4.36v26.16h-4.36Zm4.36 4.36v-4.36h4.36v4.36h-4.36ZM13126.39 235.76v-17.44h4.36v17.44h-4.36Zm17.43 8.72v-4.36h-13.08v-4.36h13.08v-17.44h4.36v26.16h-4.36Zm-13.07 4.36v-4.36h13.08v4.36h-13.08ZM13169.98 235.76v-17.44h4.36v17.44h-4.36Zm4.36 4.36v-4.36h4.36v4.36h-4.36Zm4.36-4.36v-4.36h4.36v4.36h-4.36Zm4.36 4.36v-4.36h4.36v4.36h-4.36Zm4.36-4.36v-17.44h4.36v17.44h-4.36ZM13198.31 235.76v-4.36h4.36v4.36h-4.36Zm4.36-13.08v-4.36h13.08v4.36h-13.08Zm0 17.44v-4.36h13.08v-4.36h-13.08v-4.36h13.08v-4.36h4.36v17.44h-17.44ZM13228.83 222.68v-4.36h4.36v4.36h-4.36Zm0 17.44v-4.36h4.36v4.36h-4.36Zm4.36-13.08v-4.36h4.36v4.36h-4.36Zm0 8.72v-4.36h4.36v4.36h-4.36Zm4.36-4.36v-4.36h4.36v4.36h-4.36Zm4.35-4.36v-4.36h4.36v4.36h-4.36Zm0 8.72v-4.36h4.36v4.36h-4.36Zm4.36-13.08v-4.36h4.36v4.36h-4.36Zm0 17.44v-4.36h4.36v4.36h-4.36ZM13276.78 227.04v4.36h-13.08v4.36h-4.36v-13.08h4.36v4.36h13.08Zm-13.08-4.36v-4.36h13.08v4.36h-13.08Zm0 17.44v-4.36h13.08v4.36h-13.08Zm13.08-13.08v-4.36h4.36v4.36h-4.36ZM13292.03 235.76h-4.36v-13.08h4.36v13.08Zm17.44 4.36h-17.44v-4.36h13.08v-13.08h-13.08v-4.36h13.08v-8.72h4.36v30.52ZM13331.27 227.04v-4.36h4.36v4.36h-4.36Zm0 13.08v-4.36h13.08v4.36h-13.08Zm4.36-17.44v-4.36h13.08v4.36h-13.08Zm0 8.72v-4.36h8.72v4.36h-8.72Zm8.71 4.36v-4.36h4.36v4.36h-4.36ZM13366.14 222.68v4.36h-4.36v13.08h-4.36V209.6h4.36v13.08h4.36Zm0 0v-4.36h8.72v4.36h-8.72Zm8.72 17.44v-17.44h4.36v17.44h-4.36ZM13405.37 227.04v4.36h-13.08v4.36h-4.36v-13.08h4.36v4.36h13.08Zm-13.08-4.36v-4.36h13.08v4.36h-13.08Zm0 17.44v-4.36h13.08v4.36h-13.08Zm13.08-13.08v-4.36h4.36v4.36h-4.36ZM13433.71 227.04v4.36h-13.08v4.36h-4.36v-13.08h4.36v4.36h13.08Zm-13.08-4.36v-4.36h13.08v4.36h-13.08Zm0 17.44v-4.36h13.08v4.36h-13.08Zm13.08-13.08v-4.36h4.36v4.36h-4.36ZM13457.68 218.33v4.36h-8.72v13.08h-4.36v-26.16h4.36v8.72h8.72Zm-8.72 21.79v-4.36h8.72v4.36h-8.72ZM13466.4 227.04v-4.36h4.36v4.36h-4.36Zm0 13.08v-4.36h13.08v4.36h-13.08Zm4.36-17.44v-4.36h13.08v4.36h-13.08Zm0 8.72v-4.36h8.72v4.36h-8.72Zm8.72 4.36v-4.36h4.36v4.36h-4.36ZM13505.63 235.76v-13.08h4.36v13.08h-4.36Zm4.36-13.08v-4.36h13.08v4.36h-13.08Zm0 17.44v-4.36h13.08v4.36h-13.08Zm13.08-4.36v-13.08h4.36v13.08h-4.36ZM13549.229 218.33v4.36h-8.719v17.44h-4.36v-26.16h4.36v4.36h8.719Zm-8.719-4.36v-4.36h8.719v4.36h-8.719ZM13575.38 222.68v13.08h13.08v4.36h-13.08v8.72h-4.359v-30.52h17.439v4.36h-13.08Zm13.08 13.08v-13.08h4.36v13.08h-4.36ZM13599.35 235.76v-4.36h4.36v4.36h-4.36Zm4.36-13.08v-4.36h13.08v4.36h-13.08Zm0 17.44v-4.36h13.08v-4.36h-13.08v-4.36h13.08v-4.36h4.36v17.44h-17.44ZM13634.23 222.68v13.08h13.08v4.36h-13.08v8.72h-4.36v-30.52h17.44v4.36h-13.08Zm13.08 13.08v-13.08h4.36v13.08h-4.36ZM13677.82 227.04v4.36h-13.08v4.36h-4.36v-13.08h4.36v4.36h13.08Zm-13.08-4.36v-4.36h13.08v4.36h-13.08Zm0 17.44v-4.36h13.08v4.36h-13.08Zm13.08-13.08v-4.36h4.36v4.36h-4.36ZM13697.44 222.68v4.36h-4.36v13.08h-4.36v-21.8h4.36v4.36h4.36Zm0 0v-4.36h8.72v4.36h-8.72ZM13745.39 218.33v4.36h-13.08v13.08h13.08v4.36h-17.44v-30.52h4.36v8.72h13.08Zm0 17.43v-13.08h4.36v13.08h-4.36ZM13758.46 235.76v-17.44h4.36v17.44h-4.36Zm17.44 8.72v-4.36h-13.08v-4.36h13.08v-17.44h4.36v26.16h-4.36Zm-13.08 4.36v-4.36h13.08v4.36h-13.08ZM13802.05 235.76v-4.36h4.36v4.36h-4.36Zm4.36-13.08v-4.36h13.08v4.36h-13.08Zm0 17.44v-4.36h13.08v-4.36h-13.08v-4.36h13.08v-4.36h4.36v17.44h-17.44ZM13850 222.68v13.08h13.08v4.36H13850v8.72h-4.36v-30.52h17.44v4.36H13850Zm13.08 13.08v-13.08h4.36v13.08h-4.36ZM13884.88 222.68v4.36h-4.359v13.08h-4.361v-21.8h4.361v4.36h4.359Zm0 0v-4.36h8.72v4.36h-8.72ZM13900.14 235.76v-13.08h4.36v13.08h-4.36Zm4.35-13.08v-4.36h13.08v4.36h-13.08Zm0 17.44v-4.36h13.08v4.36h-13.08Zm13.08-4.36v-13.08h4.36v13.08h-4.36ZM13943.73 218.33v4.36h-8.72v17.44h-4.36v-26.16h4.36v4.36h8.72Zm-8.72-4.36v-4.36h8.72v4.36h-8.72ZM13967.7 227.04v4.36h-13.08v4.36h-4.36v-13.08h4.36v4.36h13.08Zm-13.07-4.36v-4.36h13.08v4.36h-13.08Zm0 17.44v-4.36h13.08v4.36h-13.08Zm13.07-13.08v-4.36h4.36v4.36h-4.36ZM13978.6 227.04v-4.36h4.36v4.36h-4.36Zm0 13.08v-4.36h13.08v4.36h-13.08Zm4.36-17.44v-4.36h13.08v4.36h-13.08Zm0 8.72v-4.36h8.72v4.36h-8.72Zm8.72 4.36v-4.36h4.36v4.36h-4.36ZM14004.76 227.04v-4.36h4.36v4.36h-4.36Zm0 13.08v-4.36h13.08v4.36h-13.08Zm4.35-17.44v-4.36h13.08v4.36h-13.08Zm0 8.72v-4.36h8.72v4.36h-8.72Zm8.72 4.36v-4.36h4.36v4.36h-4.36ZM14030.91 213.97v-4.36h4.36v4.36h-4.36Zm0 26.15v-21.8h4.36v21.8h-4.36ZM14043.99 235.76v-13.08h4.36v13.08h-4.36Zm4.36-13.08v-4.36h13.08v4.36h-13.08Zm0 17.44v-4.36h13.08v4.36h-13.08Zm13.08-4.36v-13.08h4.36v13.08h-4.36ZM14074.5 240.12v-17.44h4.36v17.44h-4.36Zm4.36-17.44v-4.36h13.079v4.36h-13.079Zm13.079 17.44v-17.44h4.361v17.44h-4.361ZM14102.84 235.76v-4.36h4.36v4.36h-4.36Zm4.36-13.08v-4.36h13.08v4.36h-13.08Zm0 17.44v-4.36h13.08v-4.36h-13.08v-4.36h13.08v-4.36h4.36v17.44h-17.44ZM14133.35 235.76V209.6h4.36v26.16h-4.36Zm4.36 4.36v-4.36h4.36v4.36h-4.36ZM14163.86 235.76v-13.08h4.36v13.08h-4.36Zm4.36-13.08v-4.36h13.08v4.36h-13.08Zm0 17.44v-4.36h13.08v4.36h-13.08ZM14187.84 235.76v-4.36h4.36v4.36h-4.36Zm4.36-13.08v-4.36h13.08v4.36h-13.08Zm0 17.44v-4.36h13.08v-4.36h-13.08v-4.36h13.08v-4.36h4.36v17.44h-17.44ZM14218.35 235.76V209.6h4.36v26.16h-4.36Zm4.36 4.36v-4.36h4.36v4.36h-4.36ZM14235.79 231.4v-4.36h13.08v4.36h-13.08ZM13111.13 288.07v-26.16h4.36v26.16h-4.36Zm4.36 4.36v-4.36h4.36v4.36h-4.36ZM13126.39 266.28v-4.36h4.36v4.36h-4.36Zm0 26.15v-21.8h4.36v21.8h-4.36ZM13139.46 288.07V275h4.36v13.08h-4.36Zm4.36-13.07v-4.36h13.08V275h-13.08Zm13.08 21.79v-4.36h-13.08v-4.36h13.08V275h4.36v21.8h-4.36Zm-13.08 4.36v-4.36h13.08v4.36h-13.08ZM13178.7 275v4.36h-4.36v13.08h-4.36v-21.8h4.36V275h4.36Zm0 0v-4.36h8.72V275h-8.72ZM13191.77 288.07v-4.36h4.36v4.36h-4.36Zm4.36-13.07v-4.36h13.08V275h-13.08Zm0 17.43v-4.36h13.08v-4.36h-13.08v-4.36h13.08V275h4.36v17.44h-17.44ZM13226.65 275v13.08h13.08v4.36h-13.08v8.72h-4.36v-30.52h17.44V275h-13.08Zm13.08 13.07V275h4.36v13.08h-4.36ZM13261.52 275v4.36h-4.36v13.08h-4.36v-30.52h4.36V275h4.36Zm0 0v-4.36h8.72V275h-8.72Zm8.72 17.43V275h4.36v17.44h-4.36ZM13300.75 279.35v4.36h-13.08v4.36h-4.36V275h4.36v4.36h13.08Zm-13.08-4.35v-4.36h13.08V275h-13.08Zm0 17.43v-4.36h13.08v4.36h-13.08Zm13.08-13.08V275h4.36v4.36h-4.36ZM13320.37 275v4.36h-4.36v13.08h-4.36v-21.8h4.36V275h4.36Zm0 0v-4.36h8.72V275h-8.72ZM13331.27 292.43v-4.36h4.36v4.36h-4.36ZM13370.5 266.28v26.16h-4.36v-26.16h-8.72v-4.36h21.8v4.36h-8.72ZM13394.48 275v4.36h-4.36v13.08h-4.36v-30.52h4.36V275h4.36Zm0 0v-4.36h8.72V275h-8.72Zm8.71 17.43V275h4.36v17.44h-4.36ZM13433.71 279.35v4.36h-13.08v4.36h-4.36V275h4.36v4.36h13.08Zm-13.08-4.35v-4.36h13.08V275h-13.08Zm0 17.43v-4.36h13.08v4.36h-13.08Zm13.08-13.08V275h4.36v4.36h-4.36ZM13464.22 275v13.08h13.08v4.36h-13.08v8.72h-4.36v-30.52h17.44V275h-13.08Zm13.08 13.07V275h4.36v13.08h-4.36ZM13488.2 288.07v-4.36h4.36v4.36h-4.36Zm4.36-13.07v-4.36h13.08V275h-13.08Zm0 17.43v-4.36h13.08v-4.36h-13.08v-4.36h13.08V275h4.36v17.44h-17.44ZM13523.07 275v13.08h13.08v4.36h-13.08v8.72h-4.36v-30.52h17.44V275h-13.08Zm13.08 13.07V275h4.36v13.08h-4.36ZM13566.66 279.35v4.36h-13.08v4.36h-4.36V275h4.36v4.36h13.08Zm-13.08-4.35v-4.36h13.08V275h-13.08Zm0 17.43v-4.36h13.08v4.36h-13.08Zm13.08-13.08V275h4.36v4.36h-4.36ZM13586.28 275v4.36h-4.36v13.08h-4.359v-21.8h4.359V275h4.36Zm0 0v-4.36h8.72V275h-8.72ZM13616.79 266.28v-4.36h4.36v4.36h-4.36Zm0 26.15v-21.8h4.36v21.8h-4.36ZM13629.87 279.35V275h4.36v4.36h-4.36Zm0 13.08v-4.36h13.08v4.36h-13.08Zm4.36-17.43v-4.36h13.08V275h-13.08Zm0 8.71v-4.36h8.72v4.36h-8.72Zm8.72 4.36v-4.36h4.36v4.36h-4.36ZM13673.46 275v13.08h13.08v4.36h-13.08v8.72h-4.36v-30.52h17.44V275h-13.08Zm13.08 13.07V275h4.36v13.08h-4.36ZM13699.61 288.07v-26.16h4.36v26.16h-4.36Zm4.36 4.36v-4.36h4.36v4.36h-4.36ZM13712.69 288.07v-4.36h4.36v4.36h-4.36Zm4.36-13.07v-4.36h13.08V275h-13.08Zm0 17.43v-4.36h13.08v-4.36h-13.08v-4.36h13.08V275h4.36v17.44h-17.44ZM13743.21 288.07V275h4.36v13.08h-4.36Zm4.35-13.07v-4.36h13.08V275h-13.08Zm0 17.43v-4.36h13.08v4.36h-13.08ZM13786.8 279.35v4.36h-13.08v4.36h-4.36V275h4.36v4.36h13.08Zm-13.08-4.35v-4.36h13.08V275h-13.08Zm0 17.43v-4.36h13.08v4.36h-13.08Zm13.08-13.08V275h4.36v4.36h-4.36ZM13802.05 288.07h-4.36V275h4.36v13.07Zm17.44 4.36h-17.44v-4.36h13.08V275h-13.08v-4.36h13.08v-8.72h4.36v30.51ZM13854.36 270.64V275h-8.72v17.44h-4.36v-26.16h4.36v4.36h8.72Zm-8.71-4.36v-4.36h8.72v4.36h-8.72ZM13856.54 288.07v-4.36h4.36v4.36h-4.36Zm4.36-13.07v-4.36h13.08V275h-13.08Zm0 17.43v-4.36h13.08v-4.36h-13.08v-4.36h13.08V275h4.36v17.44h-17.44ZM13887.06 288.07V275h4.36v13.08h-4.36Zm4.36-13.07v-4.36h13.08V275h-13.08Zm0 17.43v-4.36h13.08v4.36h-13.08ZM13930.65 279.35v4.36h-13.08v4.36h-4.36V275h4.36v4.36h13.08Zm-13.08-4.35v-4.36h13.08V275h-13.08Zm0 17.43v-4.36h13.08v4.36h-13.08Zm13.08-13.08V275h4.36v4.36h-4.36ZM13961.16 288.07h-4.36V275h4.36v13.07Zm17.44 4.36h-17.44v-4.36h13.08V275h-13.08v-4.36h13.08v-8.72h4.36v30.51ZM13987.32 288.07V275h4.36v13.08h-4.36Zm4.36-13.07v-4.36h13.08V275h-13.08Zm0 17.43v-4.36h13.08v4.36h-13.08Zm13.08-4.36V275h4.36v13.08h-4.36ZM14017.83 288.07v-17.44h4.36v17.44h-4.36Zm4.36 4.36v-4.36h4.36v4.36h-4.36Zm4.36-4.36v-4.36h4.36v4.36h-4.36Zm4.36 4.36v-4.36h4.361v4.36h-4.361Zm4.361-4.36v-17.44h4.359v17.44h-4.359ZM14048.35 292.43V275h4.36v17.44h-4.36Zm4.36-17.43v-4.36h13.08V275h-13.08Zm13.07 17.43V275h4.36v17.44h-4.36ZM14091.939 288.07V275h4.361v13.08h-4.361Zm4.361-13.07v-4.36h13.08V275h-13.08Zm0 17.43v-4.36h13.08v4.36h-13.08Zm13.07-4.36V275h4.36v13.08h-4.36ZM14122.45 292.43V275h4.36v17.44h-4.36Zm4.361-17.43v-4.36h13.079V275h-13.079Zm13.079 17.43V275h4.36v17.44h-4.36ZM14166.04 288.07v-4.36h4.36v4.36h-4.36Zm4.36-13.07v-4.36h13.079V275h-13.079Zm0 17.43v-4.36h13.079v-4.36h-13.079v-4.36h13.079V275h4.361v17.44h-17.44ZM13128.57 322.95v4.36h-13.08v13.08h13.08v4.36h-17.44v-30.52h4.36v8.72h13.08Zm0 17.43V327.3h4.36v13.08h-4.36ZM13141.64 340.38v-26.16h4.36v26.16h-4.36Zm4.36 4.36v-4.36h4.36v4.36h-4.36ZM13156.9 340.38V327.3h4.36v13.08h-4.36Zm4.36-13.08v-4.36h13.08v4.36h-13.08Zm0 17.44v-4.36h13.08v4.36h-13.08Zm13.08-4.36V327.3h4.36v13.08h-4.36ZM13187.42 340.38V327.3h4.36v13.08h-4.36Zm4.35-13.08v-4.36h13.08v4.36h-13.08Zm0 17.44v-4.36h13.08v4.36h-13.08ZM13226.65 331.66v4.36h-8.72v8.72h-4.36v-30.52h4.36v17.44h8.72Zm0 0v-4.36h4.36v4.36h-4.36Zm0 8.72v-4.36h4.36v4.36h-4.36Zm4.36-13.08v-4.36h4.36v4.36h-4.36Zm0 17.44v-4.36h4.36v4.36h-4.36ZM13257.16 340.38V327.3h4.36v13.08h-4.36Zm4.36-13.08v-4.36h13.08v4.36h-13.08Zm0 17.44v-4.36h13.08v4.36h-13.08Zm13.08-4.36V327.3h4.36v13.08h-4.36ZM13287.67 344.74V327.3h4.36v17.44h-4.36Zm4.36-17.44v-4.36h13.08v4.36h-13.08Zm13.08 17.44V327.3h4.36v17.44h-4.36ZM13331.27 340.38v-17.44h4.36v17.44h-4.36Zm4.36 4.36v-4.36h4.36v4.36h-4.36Zm4.36-4.36v-4.36h4.36v4.36h-4.36Zm4.35 4.36v-4.36h4.36v4.36h-4.36Zm4.36-4.36v-17.44h4.36v17.44h-4.36ZM13370.5 327.3v4.36h-4.36v13.08h-4.36v-30.52h4.36v13.08h4.36Zm0 0v-4.36h8.72v4.36h-8.72Zm8.72 17.44V327.3h4.36v17.44h-4.36ZM13392.29 318.59v-4.36h4.36v4.36h-4.36Zm0 26.15v-21.8h4.36v21.8h-4.36ZM13405.37 340.38V327.3h4.36v13.08h-4.36Zm4.36-13.08v-4.36h13.08v4.36h-13.08Zm0 17.44v-4.36h13.08v4.36h-13.08ZM13440.25 327.3v4.36h-4.36v13.08h-4.36v-30.52h4.36v13.08h4.36Zm0 0v-4.36h8.72v4.36h-8.72Zm8.71 17.44V327.3h4.36v17.44h-4.36ZM13475.12 340.38v-4.36h4.36v4.36h-4.36Zm4.36-13.08v-4.36h13.08v4.36h-13.08Zm0 17.44v-4.36h13.08v-4.36h-13.08v-4.36h13.08v-4.36h4.36v17.44h-17.44ZM13531.79 322.95v4.36h-8.72v13.08h-4.36v-26.16h4.36v8.72h8.72Zm-8.72 21.79v-4.36h8.72v4.36h-8.72ZM13549.22 327.3v4.36h-4.36v13.08h-4.36v-30.52h4.36v13.08h4.36Zm0 0v-4.36h8.719v4.36h-8.719Zm8.72 17.44V327.3h4.36v17.44h-4.36ZM13571.021 318.59v-4.36h4.359v4.36h-4.359Zm0 26.15v-21.8h4.359v21.8h-4.359ZM13584.09 344.74V327.3h4.36v17.44h-4.36Zm4.36-17.44v-4.36h13.08v4.36h-13.08Zm13.08 17.44V327.3h4.36v17.44h-4.36ZM13627.69 340.38v-26.16h4.36v26.16h-4.36Zm4.36 4.36v-4.36h4.36v4.36h-4.36ZM13640.76 340.38v-4.36h4.36v4.36h-4.36Zm4.36-13.08v-4.36h13.08v4.36h-13.08Zm0 17.44v-4.36h13.08v-4.36h-13.08v-4.36h13.08v-4.36h4.36v17.44h-17.44ZM13671.28 340.38v-17.44h4.36v17.44h-4.36Zm17.44 8.72v-4.36h-13.08v-4.36h13.08v-17.44h4.36v26.16h-4.36Zm-13.08 4.36v-4.36h13.08v4.36h-13.08ZM13719.23 331.66v4.36h-13.08v4.36h-4.36V327.3h4.36v4.36h13.08Zm-13.08-4.36v-4.36h13.08v4.36h-13.08Zm0 17.44v-4.36h13.08v4.36h-13.08Zm13.08-13.08v-4.36h4.36v4.36h-4.36ZM13738.85 327.3v4.36h-4.36v13.08h-4.36v-21.8h4.36v4.36h4.36Zm0 0v-4.36h8.72v4.36h-8.72ZM13769.36 340.38V327.3h4.36v13.08h-4.36Zm4.36-13.08v-4.36h13.08v4.36h-13.08Zm0 17.44v-4.36h13.08v4.36h-13.08Zm13.08-4.36V327.3h4.36v13.08h-4.36ZM13812.95 322.95v4.36h-8.72v17.44h-4.36v-26.16h4.36v4.36h8.72Zm-8.72-4.36v-4.36h8.72v4.36h-8.72ZM13843.46 327.3v4.36h-4.36v13.08h-4.36v-21.8h4.36v4.36h4.36Zm0 0v-4.36h8.72v4.36h-8.72ZM13858.72 318.59v-4.36h4.36v4.36h-4.36Zm0 26.15v-21.8h4.36v21.8h-4.36ZM13871.8 340.38V327.3h4.36v13.08h-4.36Zm4.36-13.08v-4.36h13.08v4.36h-13.08Zm0 17.44v-4.36h13.08v4.36h-13.08ZM13915.39 331.66v4.36h-13.08v4.36h-4.36V327.3h4.36v4.36h13.08Zm-13.08-4.36v-4.36h13.08v4.36h-13.08Zm0 17.44v-4.36h13.08v4.36h-13.08Zm13.08-13.08v-4.36h4.36v4.36h-4.36ZM13945.9 327.3v13.08h13.08v4.36h-13.08v8.72h-4.36v-30.52h17.44v4.36h-13.08Zm13.08 13.08V327.3h4.36v13.08h-4.36ZM13969.88 340.38v-4.36h4.36v4.36h-4.36Zm4.36-13.08v-4.36h13.08v4.36h-13.08Zm0 17.44v-4.36h13.08v-4.36h-13.08v-4.36h13.08v-4.36h4.36v17.44h-17.44ZM14000.39 331.66v-4.36h4.36v4.36h-4.36Zm0 13.08v-4.36h13.08v4.36h-13.08Zm4.36-17.44v-4.36h13.08v4.36h-13.08Zm0 8.72v-4.36h8.72v4.36h-8.72Zm8.72 4.36v-4.36h4.36v4.36h-4.36ZM14039.63 322.95v4.36h-8.72v13.08h-4.36v-26.16h4.36v8.72h8.72Zm-8.72 21.79v-4.36h8.72v4.36h-8.72ZM14065.78 331.66v4.36h-13.08v4.36h-4.36V327.3h4.36v4.36h13.08Zm-13.08-4.36v-4.36h13.08v4.36h-13.08Zm0 17.44v-4.36h13.08v4.36h-13.08Zm13.08-13.08v-4.36h4.36v4.36h-4.36ZM14100.65 327.3v4.36h-4.36v13.08h-4.36v-30.52h4.36v13.08h4.36Zm0 0v-4.36h8.72v4.36h-8.72Zm8.72 17.44V327.3h4.359v17.44h-4.359ZM14120.27 340.38v-4.36h4.36v4.36h-4.36Zm4.36-13.08v-4.36h13.08v4.36h-13.08Zm0 17.44v-4.36h13.08v-4.36h-13.08v-4.36h13.08v-4.36h4.36v17.44h-17.44ZM14150.78 331.66v-4.36h4.36v4.36h-4.36Zm0 13.08v-4.36h13.08v4.36h-13.08Zm4.36-17.44v-4.36h13.08v4.36h-13.08Zm0 8.72v-4.36h8.72v4.36h-8.72Zm8.72 4.36v-4.36h4.36v4.36h-4.36ZM13128.57 375.26v4.36h-13.08v13.08h13.08v4.36h-17.44v-30.52h4.36v8.72h13.08Zm0 17.43v-13.08h4.36v13.08h-4.36ZM13159.08 383.97v4.36H13146v4.36h-4.36v-13.08h4.36v4.36h13.08Zm-13.08-4.36v-4.36h13.08v4.36H13146Zm0 17.44v-4.36h13.08v4.36H13146Zm13.08-13.08v-4.36h4.36v4.36h-4.36ZM13187.42 383.97v4.36h-13.08v4.36h-4.36v-13.08h4.36v4.36h13.08Zm-13.08-4.36v-4.36h13.08v4.36h-13.08Zm0 17.44v-4.36h13.08v4.36h-13.08Zm13.08-13.08v-4.36h4.36v4.36h-4.36ZM13198.31 397.05v-17.44h4.36v17.44h-4.36Zm4.36-17.44v-4.36h13.08v4.36h-13.08Zm13.08 17.44v-17.44h4.36v17.44h-4.36ZM13254.98 375.26v4.36h-8.72v13.08h-4.36v-26.16h4.36v8.72h8.72Zm-8.72 21.79v-4.36h8.72v4.36h-8.72ZM13272.42 379.61v4.36h-4.36v13.08h-4.36v-30.52h4.36v13.08h4.36Zm0 0v-4.36h8.72v4.36h-8.72Zm8.72 17.44v-17.44h4.36v17.44h-4.36ZM13294.21 370.9v-4.36h4.36v4.36h-4.36Zm0 26.15v-21.8h4.36v21.8h-4.36ZM13307.29 397.05v-17.44h4.36v17.44h-4.36Zm4.36-17.44v-4.36h13.08v4.36h-13.08Zm13.08 17.44v-17.44h4.36v17.44h-4.36ZM13337.8 392.69v-26.16h4.36v26.16h-4.36Zm4.36 4.36v-4.36h4.36v4.36h-4.36ZM13353.06 392.69v-17.44h4.36v17.44h-4.36Zm17.44 8.72v-4.36h-13.08v-4.36h13.08v-17.44h4.36v26.16h-4.36Zm-13.08 4.36v-4.36h13.08v4.36h-13.08ZM13396.65 383.97v-4.36h4.36v4.36h-4.36Zm0 13.08v-4.36h13.08v4.36h-13.08Zm4.36-17.44v-4.36h13.08v4.36h-13.08Zm0 8.72v-4.36h8.72v4.36h-8.72Zm8.72 4.36v-4.36h4.36v4.36h-4.36ZM13427.17 379.61v13.08h13.08v4.36h-13.08v8.72h-4.36v-30.52h17.44v4.36h-13.08Zm13.08 13.08v-13.08h4.36v13.08h-4.36ZM13462.04 379.61v4.36h-4.36v13.08h-4.36v-21.8h4.36v4.36h4.36Zm0 0v-4.36h8.72v4.36h-8.72ZM13494.74 383.97v4.36h-13.08v4.36h-4.36v-13.08h4.36v4.36h13.08Zm-13.08-4.36v-4.36h13.08v4.36h-13.08Zm0 17.44v-4.36h13.08v4.36h-13.08Zm13.08-13.08v-4.36h4.36v4.36h-4.36ZM13503.45 392.69v-4.36h4.36v4.36h-4.36Zm4.36-13.08v-4.36h13.08v4.36h-13.08Zm0 17.44v-4.36h13.08v-4.36h-13.08v-4.36h13.08v-4.36h4.36v17.44h-17.44ZM13538.33 392.69h-4.36v-13.08h4.36v13.08Zm17.44 4.36h-17.44v-4.36h13.08v-13.08h-13.08v-4.36h13.08v-8.72h4.36v30.52ZM13577.56 392.69v-4.36h4.36v4.36h-4.36Zm4.36-13.08v-4.36h13.08v4.36h-13.08Zm0 17.44v-4.36h13.08v-4.36h-13.08v-4.36h13.08v-4.36h4.36v17.44h-17.44ZM13608.07 397.05v-17.44h4.36v17.44h-4.36Zm4.36-17.44v-4.36h13.08v4.36h-13.08Zm13.08 17.44v-17.44h4.36v17.44h-4.36ZM13642.95 392.69h-4.36v-13.08h4.36v13.08Zm17.43 4.36h-17.44v-4.36h13.081v-13.08h-13.081v-4.36h13.081v-8.72h4.359v30.52ZM13695.26 375.26v4.36h-8.72v13.08h-4.36v-26.16h4.36v8.72h8.72Zm-8.72 21.79v-4.36h8.72v4.36h-8.72ZM13712.69 379.61v4.36h-4.36v13.08h-4.36v-30.52h4.36v13.08h4.36Zm0 0v-4.36h8.72v4.36h-8.72Zm8.72 17.44v-17.44h4.36v17.44h-4.36ZM13751.93 383.97v4.36h-13.08v4.36h-4.36v-13.08h4.36v4.36h13.08Zm-13.08-4.36v-4.36h13.08v4.36h-13.08Zm0 17.44v-4.36h13.08v4.36h-13.08Zm13.08-13.08v-4.36h4.36v4.36h-4.36ZM13795.521 375.26v4.36h-13.081v13.08h13.081v4.36h-17.441v-30.52h4.36v8.72h13.081Zm0 17.43v-13.08h4.359v13.08h-4.359ZM13806.41 392.69v-4.36h4.36v4.36h-4.36Zm4.361-13.08v-4.36h13.079v4.36h-13.079Zm0 17.44v-4.36h13.079v-4.36h-13.079v-4.36h13.079v-4.36h4.36v17.44h-17.439ZM13836.93 392.69v-13.08h4.36v13.08h-4.36Zm4.36-13.08v-4.36h13.08v4.36h-13.08Zm0 17.44v-4.36h13.08v4.36h-13.08ZM13876.16 383.97v4.36h-8.72v8.72h-4.36v-30.52h4.36v17.44h8.72Zm0 0v-4.36h4.36v4.36h-4.36Zm0 8.72v-4.36h4.36v4.36h-4.36Zm4.361-13.08v-4.36h4.359v4.36h-4.359Zm0 17.44v-4.36h4.359v4.36h-4.359ZM13915.39 379.61v4.36h-4.36v13.08h-4.36v-21.8h4.36v4.36h4.36Zm0 0v-4.36h8.72v4.36h-8.72ZM13935.01 375.26v17.44h-4.36v-17.44h4.36Zm13.08 17.43v4.36h-13.08v-4.36h13.08Zm4.36-17.43v17.44h-4.36v-17.44h4.36ZM13978.6 375.26v4.36h-13.08v13.08h13.08v4.36h-17.44v-30.52h4.36v8.72h13.08Zm0 17.43v-13.08h4.36v13.08h-4.36ZM14009.11 375.26v4.36h-13.08v13.08h13.08v4.36h-17.44v-30.52h4.36v8.72h13.08Zm0 17.43v-13.08h4.36v13.08h-4.36ZM14039.63 383.97v4.36h-13.08v4.36h-4.36v-13.08h4.36v4.36h13.08Zm-13.08-4.36v-4.36h13.08v4.36h-13.08Zm0 17.44v-4.36h13.08v4.36h-13.08Zm13.08-13.08v-4.36h4.36v4.36h-4.36ZM14054.89 392.69h-4.36v-13.08h4.36v13.08Zm17.43 4.36h-17.44v-4.36h13.08v-13.08h-13.08v-4.36h13.08v-8.72h4.36v30.52ZM14094.12 392.69v-17.44h4.36v17.44h-4.36Zm4.36 4.36v-4.36h4.36v4.36h-4.36Zm4.36-4.36v-4.36h4.36v4.36h-4.36Zm4.36 4.36v-4.36h4.36v4.36h-4.36Zm4.35-4.36v-17.44h4.36v17.44h-4.36ZM14124.63 370.9v-4.36h4.36v4.36h-4.36Zm0 26.15v-21.8h4.36v21.8h-4.36ZM14150.79 375.26v4.36h-8.72v13.08h-4.36v-26.16h4.36v8.72h8.72Zm-8.72 21.79v-4.36h8.72v4.36h-8.72ZM14168.22 379.61v4.36h-4.36v13.08h-4.36v-30.52h4.36v13.08h4.36Zm0 0v-4.36h8.719v4.36h-8.719Zm8.719 17.44v-17.44h4.361v17.44h-4.361ZM14203.09 392.69v-4.36h4.36v4.36h-4.36Zm4.36-13.08v-4.36h13.08v4.36h-13.08Zm0 17.44v-4.36h13.08v-4.36h-13.08v-4.36h13.08v-4.36h4.36v17.44h-17.44ZM13124.21 427.57v4.36h-8.72v17.44h-4.36v-26.16h4.36v4.36h8.72Zm-8.72-4.36v-4.36h8.72v4.36h-8.72ZM13130.75 445v-26.16h4.36V445h-4.36Zm4.36 4.36V445h4.36v4.36h-4.36ZM13143.82 445v-4.36h4.36V445h-4.36Zm4.36-13.07v-4.36h13.08v4.36h-13.08Zm0 17.43V445h13.08v-4.36h-13.08v-4.36h13.08v-4.36h4.36v17.44h-17.44ZM13187.42 427.57v4.36h-8.72V445h-4.36v-26.16h4.36v8.72h8.72Zm-8.72 21.79V445h8.72v4.36h-8.72ZM13213.57 431.93V445h13.08v4.36h-13.08v8.72h-4.36v-30.52h17.44v4.36h-13.08Zm13.08 13.07v-13.08h4.36V445h-4.36ZM13237.55 445v-4.36h4.36V445h-4.36Zm4.35-13.07v-4.36h13.079v4.36h-13.079Zm0 17.43V445h13.079v-4.36h-13.079v-4.36h13.079v-4.36h4.361v17.44h-17.44ZM13268.06 445v-26.16h4.36V445h-4.36Zm4.36 4.36V445h4.36v4.36h-4.36ZM13283.32 449.36v-17.44h4.36v17.44h-4.36Zm4.36-17.43v-4.36h8.72v4.36h-8.72Zm8.72 17.43v-17.44h4.36v17.44h-4.36Zm4.36-17.43v-4.36h8.72v4.36h-8.72Zm8.71 17.43v-17.44h4.36v17.44h-4.36ZM13322.55 440.65v-4.36h13.08v4.36h-13.08ZM13357.42 427.57v4.36h-8.72v17.44h-4.36v-26.16h4.36v4.36h8.72Zm-8.72-4.36v-4.36h8.72v4.36h-8.72ZM13363.96 423.21v-4.36h4.36v4.36h-4.36Zm0 26.15v-21.8h4.36v21.8h-4.36ZM13394.48 427.57v4.36h-13.08V445h13.08v4.36h-17.44v-30.52h4.36v8.72h13.08Zm0 17.43v-13.08h4.36V445h-4.36ZM13416.27 431.93v4.36h-4.36v13.08h-4.36v-21.8h4.36v4.36h4.36Zm0 0v-4.36h8.72v4.36h-8.72ZM13448.97 436.29v4.36h-13.08V445h-4.36v-13.08h4.36v4.36h13.08Zm-13.08-4.36v-4.36h13.08v4.36h-13.08Zm0 17.43V445h13.08v4.36h-13.08Zm13.08-13.07v-4.36h4.36v4.36h-4.36ZM13492.56 427.57v4.36h-13.08V445h13.08v4.36h-17.44v-30.52h4.36v8.72h13.08Zm0 17.43v-13.08h4.36V445h-4.36ZM13514.35 431.93v4.36h-4.36v13.08h-4.36v-21.8h4.36v4.36h4.36Zm0 0v-4.36h8.72v4.36h-8.72ZM13533.97 427.57V445h-4.36v-17.44h4.36Zm13.08 17.43v4.36h-13.08V445h13.08Zm4.36-17.43V445h-4.36v-17.44h4.36ZM13560.12 436.29v-4.36h4.36v4.36h-4.36Zm0 13.07V445h13.08v4.36h-13.08Zm4.36-17.43v-4.36h13.08v4.36h-13.08Zm0 8.72v-4.36h8.72v4.36h-8.72Zm8.72 4.35v-4.36h4.36V445h-4.36ZM13595 431.93v4.36h-4.36v13.08h-4.36v-30.52h4.36v13.08h4.36Zm0 0v-4.36h8.72v4.36h-8.72Zm8.72 17.43v-17.44h4.36v17.44h-4.36ZM13629.87 436.29v-4.36h4.36v4.36h-4.36Zm0 13.07V445h13.08v4.36h-13.08Zm4.36-17.43v-4.36h13.08v4.36h-13.08Zm0 8.72v-4.36h8.72v4.36h-8.72Zm8.72 4.35v-4.36h4.36V445h-4.36ZM13656.021 445v-13.08h4.359V445h-4.359Zm4.359-13.07v-4.36h13.08v4.36h-13.08Zm0 17.43V445h13.08v4.36h-13.08Zm13.08-4.36v-13.08h4.36V445h-4.36ZM13712.69 427.57v4.36h-8.72V445h-4.36v-26.16h4.36v8.72h8.72Zm-8.72 21.79V445h8.719v4.36h-8.719ZM13730.13 431.93v4.36h-4.359v13.08h-4.361v-30.52h4.361v13.08h4.359Zm0 0v-4.36h8.72v4.36h-8.72Zm8.72 17.43v-17.44h4.36v17.44h-4.36ZM13749.75 445v-4.36h4.36V445h-4.36Zm4.36-13.07v-4.36h13.08v4.36h-13.08Zm0 17.43V445h13.08v-4.36h-13.08v-4.36h13.08v-4.36h4.36v17.44h-17.44ZM13793.34 427.57v4.36h-8.72V445h-4.36v-26.16h4.36v8.72h8.72Zm-8.72 21.79V445h8.72v4.36h-8.72ZM13815.13 445v-4.36h4.36V445h-4.36Zm4.36-13.07v-4.36h13.08v4.36h-13.08Zm0 17.43V445h13.08v-4.36h-13.08v-4.36h13.08v-4.36h4.36v17.44h-17.44ZM13858.72 445v-13.08h4.36V445h-4.36Zm4.36-13.07v-4.36h13.08v4.36h-13.08Zm0 17.43V445h13.08v4.36h-13.08ZM13884.88 445v-26.16h4.36V445h-4.36Zm4.36 4.36V445h4.36v4.36h-4.36ZM13917.57 436.29v4.36h-13.07V445h-4.36v-13.08h4.36v4.36h13.07Zm-13.07-4.36v-4.36h13.08v4.36h-13.08Zm0 17.43V445h13.08v4.36h-13.08Zm13.07-13.07v-4.36h4.36v4.36h-4.36ZM13926.29 445v-4.36h4.36V445h-4.36Zm4.36-13.07v-4.36h13.08v4.36h-13.08Zm0 17.43V445h13.08v-4.36h-13.08v-4.36h13.08v-4.36h4.36v17.44h-17.44ZM13965.521 431.93v4.36h-4.361v13.08h-4.36v-21.8h4.36v4.36h4.361Zm0 0v-4.36h8.719v4.36h-8.719ZM13996.04 423.21v-4.36h4.36v4.36h-4.36Zm0 26.15v-21.8h4.36v21.8h-4.36ZM14009.12 449.36v-17.44h4.36v17.44h-4.36Zm4.35-17.43v-4.36h8.72v4.36h-8.72Zm8.72 17.43v-17.44h4.36v17.44h-4.36Zm4.36-17.43v-4.36h8.721v4.36h-8.721Zm8.721 17.43v-17.44h4.359v17.44h-4.359ZM14052.71 431.93V445h13.08v4.36h-13.08v8.72h-4.36v-30.52h17.44v4.36h-13.08Zm13.08 13.07v-13.08h4.36V445h-4.36ZM14087.58 431.93v4.36h-4.36v13.08h-4.36v-21.8h4.36v4.36h4.36Zm0 0v-4.36h8.72v4.36h-8.72ZM14120.28 436.29v4.36h-13.08V445h-4.36v-13.08h4.36v4.36h13.08Zm-13.08-4.36v-4.36h13.08v4.36h-13.08Zm0 17.43V445h13.08v4.36h-13.08Zm13.08-13.07v-4.36h4.36v4.36h-4.36ZM14131.17 436.29v-4.36h4.36v4.36h-4.36Zm0 13.07V445h13.08v4.36h-13.08Zm4.36-17.43v-4.36h13.08v4.36h-13.08Zm0 8.72v-4.36h8.72v4.36h-8.72Zm8.72 4.35v-4.36h4.36V445h-4.36ZM14157.33 436.29v-4.36h4.359v4.36h-4.359Zm0 13.07V445h13.08v4.36h-13.08Zm4.359-17.43v-4.36h13.081v4.36h-13.081Zm0 8.72v-4.36h8.721v4.36h-8.721Zm8.721 4.35v-4.36h4.36V445h-4.36ZM14183.48 423.21v-4.36h4.36v4.36h-4.36Zm0 26.15v-21.8h4.36v21.8h-4.36ZM14196.561 445v-13.08h4.359V445h-4.359Zm4.359-13.07v-4.36h13.08v4.36h-13.08Zm0 17.43V445h13.08v4.36h-13.08ZM14214 445v-13.08h4.36V445h-4.36ZM14227.07 449.36v-17.44h4.36v17.44h-4.36Zm4.36-17.43v-4.36h13.08v4.36h-13.08Zm13.08 17.43v-17.44h4.36v17.44h-4.36ZM13111.13 497.31v-13.08h4.36v13.08h-4.36Zm4.36-13.07v-4.36h13.08v4.36h-13.08Zm0 17.43v-4.36h13.08v4.36h-13.08Zm13.08-4.36v-13.08h4.36v13.08h-4.36ZM13154.72 479.88v4.36h-8.72v17.44h-4.36v-26.16h4.36v4.36h8.72Zm-8.72-4.36v-4.36h8.72v4.36h-8.72ZM13189.6 479.88v4.36h-8.72v13.08h-4.36v-26.16h4.36v8.72h8.72Zm-8.72 21.79v-4.36h8.72v4.36h-8.72ZM13207.03 484.24v4.36h-4.36v13.08h-4.36v-30.52h4.36v13.08h4.36Zm0 0v-4.36h8.72v4.36h-8.72Zm8.72 17.43v-17.44h4.36v17.44h-4.36ZM13246.26 488.6v4.36h-13.08v4.36h-4.36v-13.08h4.36v4.36h13.08Zm-13.07-4.36v-4.36h13.08v4.36h-13.08Zm0 17.43v-4.36h13.08v4.36h-13.08Zm13.07-13.07v-4.36h4.36v4.36h-4.36ZM13272.42 475.52v-4.36h4.36v4.36h-4.36Zm0 26.15v-21.8h4.36v21.8h-4.36ZM13285.49 501.67v-17.44h4.36v17.44h-4.36Zm4.36-17.43v-4.36h13.08v4.36h-13.08Zm13.08 17.43v-17.44h4.36v17.44h-4.36ZM13329.09 488.6v4.36h-8.72v8.72h-4.36v-30.52h4.36v17.44h8.72Zm0 0v-4.36h4.36v4.36h-4.36Zm0 8.71v-4.36h4.36v4.36h-4.36Zm4.36-13.07v-4.36h4.36v4.36h-4.36Zm0 17.43v-4.36h4.36v4.36h-4.36ZM13363.96 488.6v4.36h-13.08v4.36h-4.36v-13.08h4.36v4.36h13.08Zm-13.08-4.36v-4.36h13.08v4.36h-13.08Zm0 17.43v-4.36h13.08v4.36h-13.08Zm13.08-13.07v-4.36h4.36v4.36h-4.36ZM13379.22 497.31h-4.36v-13.08h4.36v13.08Zm17.44 4.36h-17.44v-4.36h13.08v-13.08h-13.08v-4.36h13.08v-8.72h4.36v30.52ZM13418.45 497.31v-4.36h4.36v4.36h-4.36Zm4.36-13.07v-4.36h13.08v4.36h-13.08Zm0 17.43v-4.36h13.08v-4.36h-13.08v-4.36h13.08v-4.36h4.36v17.44h-17.44ZM13457.68 484.24v4.36h-4.36v13.08h-4.36v-21.8h4.36v4.36h4.36Zm0 0v-4.36h8.72v4.36h-8.72ZM13490.38 488.6v4.36h-13.08v4.36h-4.36v-13.08h4.36v4.36h13.08Zm-13.08-4.36v-4.36h13.08v4.36h-13.08Zm0 17.43v-4.36h13.08v4.36h-13.08Zm13.08-13.07v-4.36h4.36v4.36h-4.36ZM13499.09 497.31v-4.36h4.36v4.36h-4.36Zm4.36-13.07v-4.36h13.08v4.36h-13.08Zm0 17.43v-4.36h13.08v-4.36h-13.08v-4.36h13.08v-4.36h4.36v17.44h-17.44ZM13542.68 475.52v-4.36h4.36v4.36h-4.36Zm0 26.15v-21.8h4.36v21.8h-4.36ZM13555.76 488.6v-4.36h4.36v4.36h-4.36Zm0 13.07v-4.36h13.08v4.36h-13.08Zm4.36-17.43v-4.36h13.08v4.36h-13.08Zm0 8.72v-4.36h8.72v4.36h-8.72Zm8.72 4.35v-4.36h4.36v4.36h-4.36ZM13594.99 497.31v-26.16h4.36v26.16h-4.36Zm4.36 4.36v-4.36h4.36v4.36h-4.36ZM13627.69 488.6v4.36h-13.08v4.36h-4.36v-13.08h4.36v4.36h13.08Zm-13.08-4.36v-4.36h13.08v4.36h-13.08Zm0 17.43v-4.36h13.08v4.36h-13.08Zm13.08-13.07v-4.36h4.36v4.36h-4.36ZM13651.66 479.88v4.36h-8.72v17.44h-4.36v-26.16h4.36v4.36h8.72Zm-8.72-4.36v-4.36h8.72v4.36h-8.72ZM13671.28 479.88v4.36h-8.719v13.08h-4.361v-26.16h4.361v8.72h8.719Zm-8.72 21.79v-4.36h8.72v4.36h-8.72ZM13693.08 497.31v-13.08h4.36v13.08h-4.36Zm4.35-13.07v-4.36h13.08v4.36h-13.08Zm0 17.43v-4.36h13.08v4.36h-13.08Zm13.08-4.36v-13.08h4.36v13.08h-4.36ZM13723.59 501.67v-17.44h4.36v17.44h-4.36Zm4.36-17.43v-4.36h13.08v4.36h-13.08Zm13.08 17.43v-17.44h4.36v17.44h-4.36ZM13780.26 479.88v4.36h-8.72v13.08h-4.36v-26.16h4.36v8.72h8.72Zm-8.72 21.79v-4.36h8.72v4.36h-8.72ZM13797.7 484.24v4.36h-4.36v13.08h-4.36v-30.52h4.36v13.08h4.36Zm0 0v-4.36h8.72v4.36h-8.72Zm8.71 17.43v-17.44h4.36v17.44h-4.36ZM13836.93 488.6v4.36h-13.08v4.36h-4.36v-13.08h4.36v4.36h13.08Zm-13.08-4.36v-4.36h13.08v4.36h-13.08Zm0 17.43v-4.36h13.08v4.36h-13.08Zm13.08-13.07v-4.36h4.36v4.36h-4.36ZM13880.521 479.88v4.36h-13.081v13.08h13.081v4.36h-17.441v-30.52h4.36v8.72h13.081Zm0 17.43v-13.08h4.359v13.08h-4.359ZM13893.6 497.31v-26.16h4.36v26.16h-4.36Zm4.35 4.36v-4.36h4.36v4.36h-4.36ZM13908.85 497.31v-13.08h4.36v13.08h-4.36Zm4.36-13.07v-4.36h13.08v4.36h-13.08Zm0 17.43v-4.36h13.08v4.36h-13.08Zm13.08-4.36v-13.08h4.36v13.08h-4.36ZM13939.37 497.31v-13.08h4.36v13.08h-4.36Zm4.36-13.07v-4.36h13.08v4.36h-13.08Zm0 17.43v-4.36h13.08v4.36h-13.08ZM13978.6 488.6v4.36h-8.72v8.72h-4.36v-30.52h4.36v17.44h8.72Zm0 0v-4.36h4.36v4.36h-4.36Zm0 8.71v-4.36h4.36v4.36h-4.36Zm4.36-13.07v-4.36h4.36v4.36h-4.36Zm0 17.43v-4.36h4.36v4.36h-4.36ZM13996.04 501.67v-4.36h4.36v4.36h-4.36ZM14035.27 475.52v26.16h-4.36v-26.16h-8.72v-4.36h21.8v4.36h-8.72ZM14059.24 484.24v4.36h-4.36v13.08h-4.36v-30.52h4.36v13.08h4.36Zm0 0v-4.36h8.72v4.36h-8.72Zm8.72 17.43v-17.44h4.36v17.44h-4.36ZM14098.479 488.6v4.36h-13.079v4.36h-4.36v-13.08h4.36v4.36h13.079Zm-13.079-4.36v-4.36h13.079v4.36h-13.079Zm0 17.43v-4.36h13.079v4.36h-13.079Zm13.079-13.07v-4.36h4.361v4.36h-4.361ZM14142.07 488.6v4.36h-13.08v4.36h-4.36v-13.08h4.36v4.36h13.08Zm-13.08-4.36v-4.36h13.08v4.36h-13.08Zm0 17.43v-4.36h13.08v4.36h-13.08Zm13.08-13.07v-4.36h4.36v4.36h-4.36ZM14152.96 501.67v-17.44h4.36v17.44h-4.36Zm4.36-17.43v-4.36h13.08v4.36h-13.08Zm13.08 17.43v-17.44h4.36v17.44h-4.36ZM14183.48 492.96v-4.36h13.08v4.36h-13.08ZM13111.13 549.63v-13.08h4.36v13.08h-4.36Zm4.36-13.08v-4.36h13.08v4.36h-13.08Zm13.08 21.79v-4.36h-13.08v-4.36h13.08v-13.08h4.36v21.8h-4.36Zm-13.08 4.36v-4.36h13.08v4.36h-13.08ZM13150.36 536.55v4.36h-4.36v13.08h-4.36v-21.8h4.36v4.36h4.36Zm0 0v-4.36h8.72v4.36h-8.72ZM13163.44 549.63v-4.36h4.36v4.36h-4.36Zm4.36-13.08v-4.36h13.08v4.36h-13.08Zm0 17.43v-4.36h13.08v-4.36h-13.08v-4.36h13.08v-4.36h4.36v17.44h-17.44ZM13191.77 545.27v-13.08h4.36v13.08h-4.36Zm4.36 4.36v-4.36h4.36v4.36h-4.36Zm4.36 4.35v-4.36h4.36v4.36h-4.36Zm4.36-4.35v-4.36h4.36v4.36h-4.36Zm4.36-4.36v-13.08h4.36v13.08h-4.36ZM13222.29 527.83v-4.36h4.36v4.36h-4.36Zm0 26.15v-21.8h4.36v21.8h-4.36ZM13235.37 553.98v-17.44h4.36v17.44h-4.36Zm4.35-17.43v-4.36h13.08v4.36h-13.08Zm13.08 17.43v-17.44h4.36v17.44h-4.36ZM13265.88 549.63v-13.08h4.36v13.08h-4.36Zm4.36-13.08v-4.36h13.08v4.36h-13.08Zm13.08 21.79v-4.36h-13.08v-4.36h13.08v-13.08h4.36v21.8h-4.36Zm-13.08 4.36v-4.36h13.08v4.36h-13.08ZM13313.83 532.19v17.44h-4.36v-17.44h4.36Zm13.08 17.44v4.36h-13.08v-4.36h13.08Zm4.36-17.44v17.44h-4.36v-17.44h4.36ZM13339.98 540.91v-4.36h4.36v4.36h-4.36Zm0 13.07v-4.36h13.08v4.36h-13.08Zm4.36-17.43v-4.36h13.08v4.36h-13.08Zm0 8.72v-4.36h8.72v4.36h-8.72Zm8.72 4.36v-4.36h4.36v4.36h-4.36ZM13383.58 540.91v4.36h-13.08v4.36h-4.36v-13.08h4.36v4.36h13.08Zm-13.08-4.36v-4.36h13.08v4.36h-13.08Zm0 17.43v-4.36h13.08v4.36h-13.08Zm13.08-13.07v-4.36h4.36v4.36h-4.36ZM13394.47 540.91v-4.36h4.36v4.36h-4.36Zm0 13.07v-4.36h13.08v4.36h-13.08Zm4.36-17.43v-4.36h13.08v4.36h-13.08Zm0 8.72v-4.36h8.72v4.36h-8.72Zm8.72 4.36v-4.36h4.36v4.36h-4.36ZM13433.71 549.63v-4.36h4.36v4.36h-4.36Zm4.36-13.08v-4.36h13.08v4.36h-13.08Zm0 17.43v-4.36h13.08v-4.36h-13.08v-4.36h13.08v-4.36h4.36v17.44h-17.44ZM13477.3 540.91v-4.36h4.36v4.36h-4.36Zm0 13.07v-4.36h13.08v4.36h-13.08Zm4.36-17.43v-4.36h13.08v4.36h-13.08Zm0 8.72v-4.36h8.72v4.36h-8.72Zm8.72 4.36v-4.36h4.36v4.36h-4.36ZM13520.89 540.91v4.36h-13.08v4.36h-4.36v-13.08h4.36v4.36h13.08Zm-13.08-4.36v-4.36h13.08v4.36h-13.08Zm0 17.43v-4.36h13.08v4.36h-13.08Zm13.08-13.07v-4.36h4.36v4.36h-4.36ZM13544.87 532.19v4.36h-8.72v13.08h-4.36v-26.16h4.36v8.72h8.72Zm-8.72 21.79v-4.36h8.72v4.36h-8.72ZM13566.66 549.63v-13.08h4.36v13.08h-4.36Zm4.361-13.08v-4.36h13.079v4.36h-13.079Zm0 17.43v-4.36h13.079v4.36h-13.079Zm13.079-4.35v-13.08h4.36v13.08h-4.36ZM13610.25 532.19v4.36h-8.72v17.44h-4.36v-26.16h4.36v4.36h8.72Zm-8.72-4.36v-4.36h8.72v4.36h-8.72ZM13632.05 540.91v-4.36h4.36v4.36h-4.36Zm0 13.07v-4.36h13.08v4.36h-13.08Zm4.36-17.43v-4.36h13.08v4.36h-13.08Zm0 8.72v-4.36h8.72v4.36h-8.72Zm8.72 4.36v-4.36h4.36v4.36h-4.36ZM13666.92 536.55v4.36h-4.36v13.08h-4.36v-30.52h4.36v13.08h4.36Zm0 0v-4.36h8.72v4.36h-8.72Zm8.72 17.43v-17.44h4.36v17.44h-4.36ZM13686.54 549.63v-4.36h4.36v4.36h-4.36Zm4.36-13.08v-4.36h13.08v4.36h-13.08Zm0 17.43v-4.36h13.08v-4.36h-13.08v-4.36h13.08v-4.36h4.36v17.44h-17.44ZM13725.771 536.55v4.36h-4.361v13.08h-4.36v-21.8h4.36v4.36h4.361Zm0 0v-4.36h8.719v4.36h-8.719ZM13745.39 536.55v13.08h13.08v4.36h-13.08v8.72h-4.36v-30.52h17.44v4.36h-13.08Zm13.07 13.08v-13.08h4.36v13.08h-4.36ZM13771.54 545.27v-4.36h13.08v4.36h-13.08ZM13810.771 540.91v4.36h-13.071v4.36h-4.36v-13.08h4.36v4.36h13.071Zm-13.071-4.36v-4.36h13.08v4.36h-13.08Zm0 17.43v-4.36h13.08v4.36h-13.08Zm13.071-13.07v-4.36h4.359v4.36h-4.359ZM13826.03 549.63h-4.36v-13.08h4.36v13.08Zm17.44 4.35h-17.44v-4.36h13.08v-13.08h-13.08v-4.36h13.08v-8.72h4.36v30.52ZM13852.19 549.63v-13.08h4.36v13.08h-4.36Zm4.35-13.08v-4.36h13.08v4.36h-13.08Zm13.08 21.79v-4.36h-13.08v-4.36h13.08v-13.08h4.36v21.8h-4.36Zm-13.08 4.36v-4.36h13.08v4.36h-13.08ZM13900.14 540.91v4.36h-13.08v4.36h-4.36v-13.08h4.36v4.36h13.08Zm-13.08-4.36v-4.36h13.08v4.36h-13.08Zm0 17.43v-4.36h13.08v4.36h-13.08Zm13.08-13.07v-4.36h4.36v4.36h-4.36ZM13915.39 549.63h-4.36v-13.08h4.36v13.08Zm17.44 4.35h-17.44v-4.36h13.08v-13.08h-13.08v-4.36h13.08v-8.72h4.36v30.52ZM13967.7 532.19v4.36h-8.72v13.08h-4.36v-26.16h4.36v8.72h8.72Zm-8.72 21.79v-4.36h8.72v4.36h-8.72ZM13976.42 549.63v-13.08h4.36v13.08h-4.36Zm4.36-13.08v-4.36h13.08v4.36h-13.08Zm0 17.43v-4.36h13.08v4.36h-13.08Zm13.08-4.35v-13.08h4.36v13.08h-4.36ZM14006.939 549.63v-13.08h4.361v13.08h-4.361Zm4.351-13.08v-4.36h13.08v4.36h-13.08Zm0 17.43v-4.36h13.08v4.36h-13.08Zm13.08-4.35v-13.08h4.36v13.08h-4.36ZM14037.45 549.63v-26.16h4.36v26.16h-4.36Zm4.361 4.35v-4.36h4.359v4.36h-4.359ZM14052.71 540.91v-4.36h4.36v4.36h-4.36Zm0 13.07v-4.36h13.08v4.36h-13.08Zm4.36-17.43v-4.36h13.08v4.36h-13.08Zm0 8.72v-4.36h8.72v4.36h-8.72Zm8.72 4.36v-4.36h4.36v4.36h-4.36ZM14105.02 532.19v4.36h-8.72v13.08h-4.36v-26.16h4.36v8.72h8.72Zm-8.72 21.79v-4.36h8.72v4.36h-8.72ZM14113.73 549.63v-13.08h4.36v13.08h-4.36Zm4.36-13.08v-4.36h13.08v4.36h-13.08Zm0 17.43v-4.36h13.08v4.36h-13.08Zm13.08-4.35v-13.08h4.36v13.08h-4.36ZM14142.07 553.98v-4.36h4.36v4.36h-4.36ZM14152.97 553.98v-4.36h4.36v4.36h-4.36ZM14163.87 553.98v-4.36h4.359v4.36h-4.359Z" fill="#e6e6e6"/></svg>