<svg viewBox="0 0 14400 720" xmlns="http://www.w3.org/2000/svg"><path d="M0 0h1440v720H0Z" fill="#eae3d8"/><path d="m544.57 257.21-12.31 12.31h-64.69l-12.31-12.31v-64.69l12.31-12.31h64.69l12.31 12.31v64.69Zm-62.52-14.49h35.73V207h-35.73v35.72ZM579.02 207v4.47h50.21l12.31 12.31v33.43l-12.31 12.31h-77v-26.79h62.52v-4.47h-50.21l-12.31-12.31v-33.43l12.31-12.31h77V207h-62.52ZM734.04 269.52v-33.88l-17.54 33.88h-22.97l-17.54-33.88v33.88H649.2v-89.31h28.26l27.56 53.27 27.56-53.27h28.26v89.31h-26.8ZM768.48 269.52v-89.31h26.79v89.31h-26.79ZM829.72 207v35.73h58.05v26.79h-72.54l-12.31-12.31v-64.69l12.31-12.31h72.54V207h-58.05ZM984.74 269.52h-26.79v-22.33h-35.73v22.33h-26.79v-77l12.31-12.31h64.69l12.31 12.31v77Zm-62.52-49.12h35.73V207h-35.73v13.4ZM545.34 528.79l-11 11h-68.08l-11-11v-68.08l11-11h68.08l11 11v68.08Zm-81.85-64.67v61.26l6.18 6.18h61.26l6.18-6.18v-61.26l-6.18-6.18h-61.26l-6.18 6.18Zm4.12 63.32v-65.38h65.38v65.38h-65.38Zm8.24-8.24h48.9v-48.9h-48.9v48.9ZM573.65 470.3v14.16h58.49l11 11v33.33l-11 11h-79.08V519.2h69.49v-14.16h-58.49l-11-11v-33.33l11-11h79.08v20.59h-69.49Zm-12.35-6.18v26.51l6.18 6.18h63.32v30.63h-69.5v4.12h67.43l6.18-6.18v-26.51l-6.18-6.18h-63.32v-30.63h69.49v-4.12h-67.43l-6.17 6.18ZM765.78 539.79h-20.59v-51.86l-26.9 51.86h-19.95l-26.9-51.86v51.86h-20.59v-90.08h24l33.46 64.6 33.46-64.6h24v90.08Zm-102.56-81.84h-4.12v73.61h4.12v-73.61ZM708 531.56l-38.16-73.61h-4.63l38.16 73.61H708Zm38.8-73.61-38.16 73.61h4.63l38.16-73.61h-4.63Zm6.63 0v73.61h4.12v-73.61h-4.12ZM773.5 539.79v-90.08h20.59v90.08H773.5Zm8.24-8.23h4.12v-73.61h-4.12v73.61ZM822.4 470.3v48.9h64.54v20.59h-74.13l-11-11v-68.08l11-11h74.13v20.59H822.4Zm-12.35-6.18v61.26l6.18 6.18h62.48v-4.12h-64.54v-65.38h64.54v-4.12h-62.48l-6.18 6.18ZM984.74 539.79h-20.59v-24.84h-48.9v24.84h-20.59v-79.08l11-11h68.08l11 11v79.08Zm-81.85-75.67v67.43h4.12v-24.84h65.38v24.84h4.12v-67.43l-6.18-6.18h-61.26l-6.18 6.18Zm4.12 38.48v-40.54h65.38v40.54h-65.38Zm8.24-8.23h48.9V470.3h-48.9v24.07ZM544.96 392.8l-11.66 11.66h-66.38l-11.66-11.66v-66.38l11.66-11.66h66.38l11.66 11.66v66.38Zm-85.6-64.65v62.92l9.29 9.29h62.92l9.29-9.29v-62.92l-9.29-9.29h-62.92l-9.29 9.29Zm15.5 56.71v-50.49h50.49v50.49h-50.49Zm4.1-4.1h42.29v-42.29h-42.29v42.29ZM576.35 338.47v9.29h54.33l11.66 11.66v33.38l-11.66 11.66h-78.04v-23.71h66v-9.29h-54.33l-11.66-11.66v-33.38l11.66-11.66h78.04v23.71h-66Zm-19.6-10.32v29.92l9.29 9.29h56.71v17.49h-66v15.51h72.21l9.29-9.29v-29.92l-9.29-9.29h-56.71v-17.49h66v-15.51h-72.21l-9.29 9.29ZM739.61 404.47V361.6l-22.17 42.87h-21.53l-22.17-42.87v42.87h-23.71v-89.7h26.14l30.5 58.88 30.5-58.88h26.14v89.7h-23.7Zm-32.94-21.92-33-63.69h-19.54v81.5h15.51v-55.62l28.77 55.62h16.53l28.77-55.62v55.62h15.51v-81.5h-19.54l-33.01 63.69ZM771 404.47v-89.7h23.71v89.7H771Zm4.1-4.1h15.51v-81.5H775.1v81.5ZM826.1 338.47v42.29h61.25v23.71h-73.3l-11.66-11.66v-66.38l11.66-11.66h73.3v23.71H826.1Zm-19.61-10.32v62.92l9.29 9.29h67.47v-15.51H822v-50.49h61.25v-15.51h-67.47l-9.29 9.3ZM984.74 404.47h-23.71v-23.58h-42.29v23.58h-23.71v-78.04l11.66-11.66h66.38l11.66 11.66v78.04Zm-85.6-76.32v72.21h15.51v-23.58h50.49v23.58h15.51v-72.21l-9.29-9.29h-62.92l-9.3 9.29Zm15.51 33.13v-26.91h50.49v26.91h-50.49Zm4.1-4.1h42.29v-18.71h-42.29v18.71ZM1440 0h1440v720H1440Z"/><path d="M1776.3 335.04v53.12h53.12v-39.84h39.84v61.38l-18.31 18.31h-96.19l-18.31-18.31v-96.19l18.31-18.31h114.5v39.84h-92.96Zm-33.77-18.97v91.07l14.8 14.8h91.07l14.8-14.8V354.4h-27.7v39.84h-65.27v-65.27h92.97v-27.7h-105.87l-14.8 14.8ZM2013.45 376.5l-11.86 11.86 11.86 39.65h-41.55l-9.96-33.2h-41.46v33.2h-39.84V295.2h114.5l18.31 18.31v62.99Zm-126.74 45.44h27.7v-33.2h52.08l9.96 33.2h28.84l-10.53-35.29 12.62-12.71v-57.87l-14.8-14.8h-105.87v120.67Zm27.7-60.91v-32.06h65.27v32.06h-65.27Zm6.08-6.07h53.12v-19.92h-53.12v19.92ZM2157.63 428.01h-39.84v-33.2h-53.12v33.2h-39.84v-114.5l18.31-18.31h96.19l18.31 18.31v114.5ZM2030.9 316.07v105.87h27.7v-33.2h65.27v33.2h27.7V316.07l-14.8-14.8h-91.07l-14.8 14.8Zm27.7 44.96v-32.06h65.27v32.06h-65.27Zm6.07-6.07h53.12v-19.92h-53.12v19.92ZM2262.26 428.01l-53.41-67.92v67.92h-39.84V295.2h39.56l53.41 67.92V295.2h39.84v132.81h-39.56Zm5.78-47.34-62.42-79.4h-30.55v120.67h27.7v-79.4l62.42 79.4h30.55V301.27h-27.7v79.4ZM2446 409.7l-18.31 18.31h-114.5V295.2h114.5l18.31 18.31v96.19Zm-126.74 12.24h105.87l14.8-14.8v-91.07l-14.8-14.8h-105.87v120.67Zm27.7-27.7v-65.27h65.27v65.27h-65.27Zm6.07-6.08h53.12v-53.12h-53.12v53.12ZM2497.21 335.04v6.64h86.33v39.84h-86.33v6.64h86.33V428h-126.17V295.2h126.17v39.84h-86.33Zm-33.77 86.9h114.03v-27.7h-86.33v-18.78h86.33v-27.7h-86.33v-18.78h86.33v-27.7h-114.03v120.66ZM1959.87 549.84l-10.31 10.31h-71.72v-82.03h71.72l10.31 10.31v61.41Zm-74.53 2.81h61.11l5.92-5.92v-55.2l-5.92-5.92h-61.11v67.04Zm5.22-5.21v-56.6h56.6v56.6h-56.6Zm7.5-7.5h41.6v-41.6h-41.6v41.6ZM1987.13 498.34v10.72h57.42v20.22h-57.42v10.66h57.42v20.22h-77.64v-82.03h77.64v20.21h-57.42Zm-12.71 54.31h62.64v-5.22h-57.42v-25.66h57.42v-5.22h-57.42v-25.72h57.42v-5.21h-62.64v67.03ZM2071.81 498.34v10.72h57.42v20.22h-57.42v30.88h-20.21v-82.03h77.64v20.21h-57.43Zm-12.72 54.31h5.21v-30.88h57.42v-5.22h-57.42v-25.72h57.42v-5.21h-62.64v67.03ZM2136.27 560.15v-82.03h20.21v82.03h-20.21Zm7.5-7.5h5.21v-67.03h-5.21v67.03ZM2223.93 560.15l-40.2-51.15v51.15h-20.21v-82.03h21.62l40.2 51.15v-51.15h20.22v82.03h-21.63Zm8.91-9.2-51.33-65.33h-10.49v67.03h5.21v-65.33l51.33 65.33h10.49v-67.03h-5.22v65.33ZM2252.59 560.15v-82.03h20.21v82.03h-20.21Zm7.5-7.5h5.21v-67.03h-5.21v67.03ZM2328.77 498.34v61.82h-20.22v-61.82h-28.71v-20.21h77.64v20.21h-28.71Zm-41.43-7.5h28.71v61.82h5.22v-61.82h28.71v-5.21h-62.64v5.21ZM2384.73 498.34v10.72h57.42v20.22h-57.42v10.66h57.42v20.22h-77.64v-82.03h77.64v20.21h-57.42Zm-12.71 54.31h62.64v-5.22h-57.42v-25.66h57.42v-5.22h-57.42v-25.72h57.42v-5.21h-62.64v67.03ZM1877.84 245.08v-85.24h22.53v85.24h-22.53ZM1969.47 245.08l-39.27-49.98v49.98h-22.53v-85.24h23.44l39.27 49.98v-49.98h22.53v85.24h-23.44ZM2051.86 182.37v62.71h-22.53v-62.71h-29.1v-22.53h80.73v22.53h-29.1ZM2110.8 182.37v8.83h58.2v22.53h-58.2v8.83h58.2v22.53h-80.73v-85.24H2169v22.53h-58.2ZM2238.12 245.08l-39.27-49.98v49.98h-22.53v-85.24h23.44l39.27 49.98v-49.98h22.53v85.24h-23.44ZM2291.4 182.37v8.83h51.63l11.08 11.08V234l-11.08 11.08h-74.15v-22.53h62.71v-8.83h-51.63l-11.08-11.08v-31.72l11.08-11.08h74.16v22.53h-62.72ZM2383.95 182.37v8.83h58.2v22.53h-58.2v8.83h58.2v22.53h-80.73v-85.24h80.73v22.53h-58.2Z" fill="#e6e6e6"/><path d="M2880 0h1440v720H2880Z" fill="#eae3d8"/><path d="M3287.65 451.42v9.46h71.64l16.38 16.38v45.81l-16.38 16.38h-106.23v-34.6h88.02v-9.37h-71.64l-16.38-16.47V433.2l16.38-16.38h106.24v34.6h-88.03ZM3508.79 491.62 3492.42 508h-71.64v31.44h-34.6V416.82h106.24l16.38 16.38v58.42Zm-88.02-18.22h53.43v-21.98h-53.43v21.98ZM3553.89 451.42v9.46h81.72v34.6h-81.72v9.37h81.72v34.6h-116.32V416.82h116.31v34.6h-81.71ZM3768.73 539.44h-34.6V508h-53.43v31.44h-34.6V433.2l16.38-16.38h89.78l16.47 16.38v106.24Zm-88.02-66.04h53.43v-21.98h-53.43v21.98ZM3890.2 478.13l11.65 11.74v49.57h-34.6v-35.3l-8.76-8.67h-44.67v43.97h-34.6V416.82h34.6v44.06h44.67l8.76-8.76v-35.3h34.6v49.57l-11.65 11.74ZM3912.35 495.38v-78.56h34.6v78.56h-34.6Zm0 44.06v-34.6h34.6v34.6h-34.6ZM3330.88 377.16h-21.96V357.2h-33.91v19.96h-21.96v-67.43l10.4-10.4h56.98l10.45 10.4v67.43Zm-70.71-64.49v57.37h7.73v-19.96h48.14v19.96h7.73v-57.37l-6.28-6.23h-51.09l-6.23 6.23Zm7.73 29.69v-28.19h48.14v28.19h-48.14Zm7.11-7.12h33.91v-13.95h-33.91v13.95ZM3404.92 377.16h-56.98l-10.4-10.4v-67.43h21.96v55.87h33.91v-55.87h21.96v67.43l-10.45 10.4Zm-4.39-14.85h-48.14v-55.87h-7.73v57.37l6.23 6.23h51.09l6.28-6.23v-57.37h-7.73v55.87ZM3499.87 366.76l-10.4 10.4h-67.43v-77.83h67.43l10.4 10.4v57.03Zm-70.72 3.28h57.37l6.23-6.23v-51.14l-6.23-6.23h-57.37v63.6Zm7.73-7.73v-48.14h48.14v48.14h-48.14Zm7.12-7.11h33.91v-33.91H3444v33.91ZM3584.36 377.16h-21.96V357.2h-33.91v19.96h-21.96v-67.43l10.4-10.4h56.98l10.45 10.4v67.43Zm-70.72-64.49v57.37h7.73v-19.96h48.14v19.96h7.73v-57.37l-6.28-6.23h-51.09l-6.23 6.23Zm7.73 29.69v-28.19h48.14v28.19h-48.14Zm7.12-7.12h33.91v-13.95h-33.91v13.95ZM3612.98 321.29v33.91h51.87v21.96h-63.43l-10.4-10.4v-57.04l10.4-10.4h63.43v21.96h-51.87Zm-14.85-8.62v51.14l6.23 6.23h53.37v-7.73h-51.87v-48.14h51.87v-7.73h-53.37l-6.23 6.23ZM3671.51 377.16v-77.83h21.96v77.83h-21.96Zm7.11-7.12h7.73v-63.6h-7.73v63.6ZM3777.96 366.76l-10.4 10.4h-57.04l-10.4-10.4v-57.04l10.4-10.4h57.04l10.4 10.4v57.04Zm-70.71-54.09v51.14l6.23 6.23h51.14l6.23-6.23v-51.14l-6.23-6.23h-51.14l-6.23 6.23Zm7.73 49.64v-48.14h48.14v48.14h-48.14Zm7.11-7.11H3756v-33.91h-33.91v33.91ZM3852 377.16h-56.98l-10.4-10.4v-67.43h21.96v55.87h33.91v-55.87h21.96v67.43l-10.45 10.4Zm-4.39-14.85h-48.14v-55.87h-7.73v57.37l6.23 6.23h51.09l6.28-6.23v-57.37h-7.73v55.87ZM3891.07 321.29v6h45.47l10.4 10.4v29.07l-10.4 10.4h-67.43V355.2h55.87v-5.95h-45.47l-10.4-10.45v-29.07l10.4-10.4h67.43v21.96h-55.87Zm-14.84-8.62v23.18l6.23 6.28h49.64v20.18h-55.87v7.73h57.37l6.23-6.23v-23.18l-6.23-6.23h-49.64v-20.24h55.87v-7.73h-57.37l-6.23 6.24ZM3332.16 248.76l-10.91 10.91h-57.3l-10.91-10.91v-57.3l10.91-10.91h57.3l10.91 10.91v57.3Zm-75.49-55.77v54.24l8.81 8.81h54.24l8.81-8.81v-54.24l-8.81-8.81h-54.24l-8.81 8.81Zm16.5 46.56v-38.87h38.87v38.87h-38.87Zm3.62-3.62h31.64v-31.64h-31.64v31.64ZM3418.05 228.98l-10.91 10.91h-44.47v19.78h-23.73v-79.11h68.2l10.91 10.91v37.51Zm-75.49 27.07h16.5v-19.78h46.56l8.81-8.81v-34.47l-8.81-8.81h-63.06v71.87Zm16.5-36.28v-19.1h38.88v19.1h-38.88Zm3.62-3.61h31.64v-11.87h-31.64v11.87ZM3474.28 204.29v55.37h-23.73v-55.37h-25.71v-23.73h75.15v23.73h-25.71Zm-45.83-3.61h25.71v55.37h16.5v-55.37h25.71v-16.5h-67.92v16.5ZM3506.77 259.67v-79.11h23.73v79.11h-23.73Zm3.61-3.62h16.5v-71.87h-16.5v71.87ZM3612.43 259.67v-30l-15.54 30h-20.34l-15.54-30v30h-23.73v-79.11h25.03l24.41 47.18 24.41-47.18h25.03v79.11h-23.73Zm-25.71-24.07-26.61-51.42h-19.21v71.87h16.5V214.8l21.36 41.25h15.93l21.36-41.25v41.25h16.5v-71.87h-19.21l-26.62 51.42ZM3642.95 259.67v-79.11h23.73v79.11h-23.73Zm3.61-3.62h16.5v-71.87h-16.5v71.87ZM3697.19 204.29v3.96h44.47l10.91 10.91v29.61l-10.91 10.91h-68.2v-23.73h55.37v-3.96h-44.47l-10.9-10.91v-29.61l10.9-10.91h68.2v23.73h-55.37Zm-20.11-11.3v26.56l8.81 8.81h46.56v11.19h-55.37v16.5h63.06l8.81-8.81v-26.56l-8.81-8.81h-46.56v-11.19h55.38v-16.5h-63.06l-8.82 8.81ZM3808.79 204.29v55.37h-23.73v-55.37h-25.71v-23.73h75.15v23.73h-25.71Zm-45.83-3.61h25.71v55.37h16.5v-55.37h25.71v-16.5h-67.92v16.5ZM3841.28 259.67v-79.11h23.73v79.11h-23.73Zm3.62-3.62h16.5v-71.87h-16.5v71.87ZM3895.53 204.29v31.64h51.42v23.73h-64.25l-10.9-10.91v-57.3l10.9-10.91h64.25v23.73h-51.42Zm-20.12-11.3v54.24l8.81 8.81h59.1v-16.5h-51.42v-38.87h51.42v-16.5h-59.1l-8.81 8.82Z"/><path d="M5760 0h1440v720H5760Z" fill="#eae3d8"/><path d="m6207.52 272.05-1.97 13.98h57.77l9.34 10.87-4.64 32.92-12.39 10.87h-78.11l2.86-20.34h68.64l1.97-13.98h-57.77l-9.34-10.87 4.64-32.92 12.39-10.87h78.11l-2.86 20.34h-68.64ZM6274.12 340.68l12.52-88.97h20.34l-12.52 88.97h-20.34ZM6384.13 320.35l-2.86 20.34h-79.19l12.52-88.97h20.34l-9.66 68.64h58.85ZM6388.9 340.68l12.52-88.97h20.34l-12.52 88.97h-20.34ZM6446.86 272.05l-6.8 48.3h63.74l-2.86 20.34h-73.21l-9.34-10.87 9.47-67.24 12.39-10.87h73.21l-2.86 20.34h-63.74ZM6599.07 329.82l-12.39 10.87h-67.24l-9.34-10.87 9.47-67.24 12.39-10.87h67.24l9.34 10.87-9.47 67.24Zm-67.3-9.47h48.3l6.8-48.3h-48.3l-6.8 48.3ZM6671.65 340.68l-37.88-58.79-8.26 58.79h-20.34l12.52-88.97h22.43l37.94 58.79 8.26-58.79h20.34l-12.52 88.97h-22.49ZM6731.77 272.05l-1.97 13.98h63.74l-2.86 20.34h-63.74l-1.97 13.98h63.74l-2.86 20.34h-84.08l12.52-88.97h84.08l-2.86 20.34h-63.74ZM6257.37 455.09l-15.05 13.2h-69.35l-11.35-13.2 9.71-69.35 15.05-13.2h69.35l11.35 13.2-9.71 69.35Zm-64.83-15.52h38.3l5.33-38.3h-38.3l-5.33 38.3ZM6364.67 431.15l-9.78 8.55 4.58 28.59h-29.95l-3.83-23.94h-29.89l-3.35 23.94h-28.72l13.4-95.75h82.55l11.35 13.2-6.36 45.41Zm-64.84-15.52h38.3l1.98-14.36h-38.3l-1.98 14.36ZM6367.66 468.29l13.4-95.75h28.72l-13.4 95.75h-28.72ZM6442.68 401.27l-5.33 38.3h38.3l4.03-28.72h28.72l-6.22 44.25-15.05 13.2h-69.35l-11.35-13.2 9.71-69.35 15.05-13.2h82.55l-4.03 28.72h-67.03ZM6604.28 468.29h-28.72l3.35-23.94h-38.3l-3.35 23.94h-28.72l11.56-82.55 15.11-13.2h69.35l11.28 13.2-11.56 82.55Zm-59.64-52.66h38.3l2.05-14.36h-38.3l-2.05 14.36ZM6703.43 468.29l5.06-36.31-23.87 36.31H6660l-13.75-36.31-5.06 36.31h-28.72l13.4-95.75h30.3l21.54 57.11 37.55-57.11h30.3l-13.4 95.75h-28.73ZM6740.35 468.29l13.4-95.75h28.72l-13.41 95.75h-28.71ZM7200 0h1440v720H7200Z"/><path d="M7478.75 391.35v51.11h78.18v33.1h-95.61l-15.67-15.67v-85.97l15.67-15.67h95.61v33.1h-78.18Zm-27.74-15.17v81.45l12.57 12.57h87.98v-22.37h-78.18v-61.84h78.18v-22.37h-87.98l-12.57 12.56ZM7651.2 475.56V433.5h-51.11v42.06h-33.1V358.25h33.1v42.15h51.11v-42.15h33.1v117.31h-33.1Zm5.36-69.8h-61.84v-42.15h-22.37V470.2h22.37v-42.06h61.84v42.06h22.37V363.61h-22.37v42.15ZM7811.66 475.56h-33.1v-30.08h-51.11v30.08h-33.1V373.92l15.67-15.67h85.89l15.75 15.67v101.64Zm-111.95-99.38v94.02h22.37v-30.08h61.84v30.08h22.37v-94.02l-12.57-12.57h-81.45l-12.56 12.57Zm22.37 41.57v-31.76h61.84v31.76h-61.84Zm5.37-5.37h51.11v-21.03h-51.11v21.03ZM7936.01 475.56v-50.28l-26.06 50.28h-29.16l-25.98-50.28v50.28h-33.1V358.25h35.61l38.04 73.49 38.13-73.49h35.61v117.31h-33.09Zm-40.64-32.17-41.31-79.77h-26.98V470.2h22.37v-66.95l34.61 66.95h22.62l34.69-66.95v66.95h22.37V363.61h-26.98l-41.39 79.78ZM8096.47 429.81l-15.67 15.67h-68.54v30.08h-33.1V358.25h101.64l15.67 15.67v55.89Zm-111.95 40.39h22.37v-30.08h71.64l12.57-12.57v-51.37l-12.57-12.57h-94.02V470.2Zm22.37-52.45v-31.76h61.84v31.76h-61.84Zm5.37-5.37h51.11v-21.03h-51.11v21.03ZM8106.52 475.56V358.25h33.1v117.31h-33.1Zm5.37-5.36h22.37V363.61h-22.37V470.2ZM8266.98 459.89l-15.67 15.67h-85.97l-15.67-15.67v-85.97l15.67-15.67h85.97l15.67 15.67v85.97Zm-111.94-83.71v81.45l12.57 12.57h81.45l12.57-12.57v-81.45l-12.57-12.57h-81.45l-12.57 12.57Zm22.37 71.65v-61.84h61.84v61.84h-61.84Zm5.36-5.37h51.11v-51.11h-51.11v51.11ZM8360.75 475.56l-50.61-64.35v64.35h-33.1V358.25h33.6l50.61 64.44v-64.44h33.1v117.31h-33.6Zm5.86-37.37-58.57-74.58h-25.64V470.2h22.37v-74.49l58.57 74.49h25.64V363.61h-22.37v74.58ZM7608.45 319.98h-54.72l-10.41-10.41v-65.13h22.66v52.88h30.22v-52.88h22.66v65.13l-10.41 10.41Zm-8.79-19.21h-37.13v-52.88h-15.76v60.22l8.42 8.42H7607l8.42-8.42v-60.22h-15.76v52.88ZM7678.39 319.98l-30.38-38.64v38.64h-22.66v-75.55h22.5l30.38 38.64v-38.64h22.66v75.55h-22.5Zm3.3-26.92-35.51-45.17h-17.38v68.64h15.76v-45.17l35.51 45.17h17.38v-68.64h-15.76v45.17ZM7782.92 309.57l-10.41 10.41h-65.13v-75.55h65.13l10.41 10.41v54.73Zm-72.09 6.96h60.22l8.42-8.42v-51.8l-8.42-8.42h-60.22v68.64Zm15.76-15.76v-37.13h37.13v37.13h-37.13Zm3.45-3.45h30.22V267.1h-30.22v30.22ZM7789.41 319.98v-75.55h22.66v75.55h-22.66Zm3.45-3.45h15.76v-68.64h-15.76v68.64ZM7841.21 267.1v3.78h42.47l10.41 10.41v28.28l-10.41 10.41h-65.13v-22.66h52.88v-3.78h-42.47l-10.41-10.41v-28.28l10.41-10.41h65.13v22.66h-52.88ZM7822 256.31v25.36l8.42 8.42h44.46v10.68H7822v15.76h60.22l8.42-8.42v-25.36l-8.42-8.42h-44.46v-10.68h52.88v-15.76h-60.22l-8.42 8.42ZM7976.12 290.68l-10.41 10.41h-42.47v18.89h-22.66v-75.55h65.13l10.41 10.41v35.84Zm-72.09 25.85h15.76v-18.89h44.46l8.42-8.42V256.3l-8.42-8.42h-60.22v68.65Zm15.76-34.64v-18.24h37.13v18.24h-37.13Zm3.45-3.46h30.22V267.1h-30.22v11.33ZM8047.74 319.98h-54.72l-10.41-10.41v-65.13h22.66v52.88h30.22v-52.88h22.66v65.13l-10.41 10.41Zm-8.8-19.21h-37.13v-52.88h-15.76v60.22l8.42 8.42h51.8l8.42-8.42v-60.22h-15.76v52.88ZM8111.85 267.1v52.88h-22.66V267.1h-24.55v-22.66h71.77v22.66h-24.56Zm-43.76-3.45h24.55v52.88h15.76v-52.88h24.55v-15.76h-64.86v15.76ZM8165.55 267.1v3.78h49.11v22.66h-49.11v3.78h49.11v22.66h-71.77v-75.55h71.77v22.66h-49.11Zm-19.21 49.43h64.86v-15.76h-49.11v-10.68h49.11v-15.76h-49.11v-10.68h49.11v-15.76h-64.86v68.64ZM8296.68 309.57l-10.409 10.41h-65.131v-75.55h65.131l10.409 10.41v54.73Zm-72.09 6.96h60.22l8.42-8.42v-51.8l-8.42-8.42h-60.22v68.64Zm15.75-15.76v-37.13h37.13v37.13h-37.13Zm3.46-3.45h30.221V267.1H8243.8v30.22Z" fill="#e6e6e6"/><path d="M8640 0h1440v720H8640Z" fill="#eae3d8"/><path d="M9202.61 471.47 9187 487.08h-108.54V362.93H9187l15.61 15.61v92.93Zm-112.8 4.26h92.49l8.96-8.96v-83.53l-8.96-8.96h-92.49v101.45Zm7.9-7.9v-85.66h85.66v85.66h-85.66Zm11.35-11.35h62.961v-62.96h-62.961v62.96ZM9213.24 487.08V362.93h30.59v124.15h-30.59Zm11.36-11.35h7.89V374.28h-7.89v101.45ZM9345.9 487.08l-60.83-77.42v77.42h-30.59V362.93h32.72l60.83 77.42v-77.42h30.59v124.15h-32.72Zm13.48-13.93-77.68-98.88h-15.87v101.45h7.89v-98.88l77.68 98.88h15.87V374.28h-7.89v98.87ZM9419.85 393.52v16.23h86.9v30.59h-86.9v16.14h86.9v30.59h-117.5V362.93h117.5v30.59h-86.9Zm-19.24 82.21h94.8v-7.89h-86.9V429h86.9v-7.89h-86.9v-38.93h86.9v-7.89h-94.8v101.44ZM9641.54 438.04l-11.35 11.26 11.35 37.78h-31.92l-10.02-33.43h-51.61v33.43h-30.59V362.93h108.54l15.61 15.61v59.5Zm-112.8 37.69h7.89V442.3h71.391l10.019 33.43h8.25l-8.96-29.71 12.86-12.68v-50.1l-8.96-8.96h-92.49v101.45Zm7.89-41.33v-52.23h85.66v52.23h-85.66Zm11.35-11.35h62.96v-29.53h-62.96v29.53ZM9102.46 256.92v12.73h61.14l12.24 12.24v36.17l-12.24 12.24h-85.14v-24h73.39v-12.66h-61.14l-12.24-12.31v-36.17l12.24-12.24h85.14v24h-73.39Zm-15.09-8.07v28.8l7.03 7.1h66.36v30.47h-73.39v6.19h72.55l7.03-7.03v-28.8l-7.03-7.03h-66.36v-30.54h73.39v-6.19h-72.55l-7.03 7.03ZM9184.19 330.31v-97.39h24v97.39h-24Zm8.9-8.9h6.19v-79.58h-6.19v79.58ZM9316.15 330.31v-51.34l-26.57 51.34h-22.47l-26.57-51.34v51.34h-24v-97.39h27.13l34.64 66.92 34.64-66.92h27.2v97.39h-24Zm-37.84-11.13-40.07-77.35h-12.8v79.58h6.19v-79.02l40.9 79.02h11.62l40.9-79.02v79.02h6.19v-79.58h-12.87l-40.06 77.35ZM9445.8 291.84l-12.24 12.24h-61.07v26.22h-24v-97.39h85.07l12.24 12.24v46.69Zm-88.41 29.57h6.19v-26.22h66.29l7.03-7.03v-39.3l-7.03-7.03h-72.48v79.58Zm6.19-32.42v-40.97h67.13v40.97h-67.13Zm8.9-8.9h49.32v-23.16h-49.32v23.16ZM9541.03 306.31v24h-86.88v-97.39h24v73.39h62.88Zm-77.98 15.1h69.07v-6.19h-62.88v-73.39h-6.19v79.58ZM9573.37 256.92v12.73h68.17v24h-68.17v12.66h68.17v24h-92.17v-97.39h92.17v24h-68.17Zm-15.099 64.49h74.359v-6.19h-68.17v-30.47h68.17v-6.19h-68.17v-30.54h68.17v-6.19h-74.359v79.58ZM10080 0h1440v720h-1440Z"/><path d="M10464.94 166.02v17.68h-12.33v6.93h12.33v17.68h-12.33v12.28h-17.68V208.3h-6.93v12.28h-17.68V208.3h-12.28v-17.68h12.28v-6.93h-12.28v-17.68h12.28V153.7h17.68v12.33h6.93V153.7h17.68v12.33h12.33Zm-26.94 3.06h-13.04v-12.33h-11.56v12.33h-12.28v11.56h12.28v13.04h-12.28v11.56h12.28v12.28h11.56v-12.28h13.04v12.28h11.56v-12.28h12.33v-11.56h-12.33v-13.04h12.33v-11.56h-12.33v-12.33H10438v12.33Zm-13.04 24.61v-13.04h13.04v13.04h-13.04Zm3.05-3.06h6.93v-6.93h-6.93v6.93ZM10537.57 194.31l-8.65 8.7h-40.56v17.58h-17.68V153.7h58.24l8.65 8.69v31.92Zm-49.21-8.99h31.53v-13.95h-31.53v13.95ZM10610.19 211.89l-8.7 8.7H10552l-8.69-8.7v-49.5l8.69-8.69h49.5l8.7 8.69v49.5Zm-49.2-8.98h31.531v-31.53h-31.531v31.53ZM10633.61 171.37v6.93h40.51l8.7 8.7v24.89l-8.7 8.7h-58.19v-17.68h49.21v-6.93h-40.51l-8.69-8.69V162.4l8.69-8.69h58.19v17.68h-49.21ZM10688.56 220.58V153.7h17.68v66.89h-17.68ZM10752.49 171.37v49.21h-17.68v-49.21h-22.84V153.7h63.35v17.68h-22.83ZM10781.06 220.58V153.7h17.68v66.89h-17.68ZM10831.95 220.58l-27.47-66.89h19.11l16.91 41.18 16.91-41.18h19.111l-27.471 66.89h-17.1ZM10899.94 171.37v6.93h45.67v17.68h-45.67v6.93h45.67v17.68h-63.35V153.7h63.35v17.68h-45.67ZM10539.86 286.93l-6.59 46.82h-20.07l6.59-46.82h-21.74l2.82-20.07h63.54l-2.82 20.07h-21.73Zm-38.27-3.06h21.74l-6.59 46.82h13.86l6.59-46.82h21.74l1.96-13.95h-57.33l-1.97 13.95ZM10628.92 324.53l-10.51 9.22h-48.44l-7.93-9.22 6.78-48.44 10.51-9.22h48.44l7.93 9.22-6.78 48.44Zm-57.23-46.92-6.45 45.96 6.12 7.12h45.911l8.789-7.69 6.45-45.96-6.12-7.12h-45.91l-8.79 7.69Zm8.41 39.13 4.59-32.87h32.96l-4.59 32.87h-32.96Zm3.53-3.06h26.75l3.73-26.75h-26.75l-3.73 26.75ZM10696.39 313.68l-2.82 20.07h-60.2l9.36-66.89h20.07l-6.54 46.82h40.13Zm-59.48 17.01h53.99l1.96-13.95h-40.13l6.54-46.82h-13.85l-8.51 60.77ZM10725.92 286.93l-.43 3.34h43.48l-2.87 20.07h-43.48l-.43 3.34h43.48l-2.82 20.07h-63.54l9.36-66.89h63.54l-2.82 20.07h-43.47Zm-23.08 43.76h57.33l1.96-13.95h-43.43l1.24-9.46h43.48l2.01-13.95H10722l1.24-9.46h43.47l1.96-13.95h-57.33l-8.5 60.77ZM10839.1 307.81l-6.83 5.97 3.2 19.97h-20.93l-2.68-16.72H10791l-2.34 16.72h-20.07l9.36-66.89h57.67l7.93 9.22-4.45 31.73Zm-66.98 22.88h13.86l2.34-16.72h26.18l2.68 16.72h14.71l-2.92-18.11 7.26-6.31 4.11-29.24-6.12-7.12h-53.6l-8.5 60.78Zm18.21-30.67 2.2-16.15h32.92l-2.2 16.15h-32.92Zm3.48-3.06h26.75l1.39-10.03h-26.75l-1.39 10.03ZM10908.1 333.75h-20.07l2.34-16.72h-26.75l-2.34 16.72h-20.07l8.07-57.66 10.56-9.22h48.44l7.88 9.22-8.06 57.66Zm-55.95-56.09-7.41 53.03h13.86l2.34-16.72h32.96l-2.34 16.72h13.85l7.55-53.65-6.07-7.12h-45.91l-8.83 7.74Zm10.75 22.36 2.29-16.15h32.96l-2.29 16.15h-32.96Zm3.54-3.06h26.75l1.43-10.03h-26.75l-1.43 10.03ZM10960.8 333.75l-22.12-34.21-4.78 34.21h-20.07l9.36-66.89h19.92l22.119 34.21 4.781-34.21h20.07l-9.36 66.89h-19.92Zm6.36-24.13-25.7-39.7h-15.58l-8.5 60.77h13.86l5.54-39.7 25.699 39.7h15.581l8.5-60.77h-13.86l-5.54 39.7ZM11013.08 286.93l-3.73 26.75h43.47l-2.82 20.07h-54.32l-7.93-9.22 6.78-48.44 10.51-9.22h54.32l-2.82 20.07h-43.46Zm-15.63-9.56-6.45 45.86 6.35 7.45h50.02l1.96-13.95h-43.48l4.59-32.87h43.48l1.96-13.95h-49.97l-8.46 7.46ZM11082.36 286.93l-.43 3.34h43.48l-2.87 20.07h-43.48l-.43 3.34h43.47l-2.82 20.07h-63.54l9.36-66.89h63.54l-2.82 20.07h-43.46Zm-23.08 43.76h57.33l1.96-13.95h-43.43l1.24-9.46h43.48l2.01-13.95h-43.43l1.24-9.46h43.48l1.96-13.95h-57.33l-8.51 60.77ZM10722.38 518.29l-4.06 29.14h44.57l-2.67 18.87h-54.52l-7.64-8.93 6.88-49.02 10.18-8.93h54.51l-2.67 18.87h-44.58Zm-11.71-7.41-6.16 43.95 4.59 5.35h45.86l.96-6.64h-44.58l5.78-41.37h44.57l.96-6.64h-45.86l-6.12 5.35ZM10834.08 557.37l-10.22 8.93h-49.02l-7.64-8.93 6.88-49.02 10.18-8.93h49.02l7.69 8.93-6.89 49.02Zm-54.27-45.91-6.16 44.05 4.01 4.68h43.91l6.78-5.92 6.16-44-4.06-4.73h-43.91l-6.73 5.92Zm.62 42.09 5.78-41.37h41.47l-5.78 41.37h-41.47Zm7.02-6.12h29.14l4.06-29.14h-29.14l-4.06 29.14ZM10896.48 566.3h-48.97l-7.69-8.93 8.12-57.95h18.87l-6.74 48.01h29.14l6.74-48.01h18.87l-8.12 57.95-10.22 8.93Zm-1.959-12.75h-41.471l6.74-48.01h-6.54l-6.979 49.93 4.059 4.73h43.86l6.78-5.92 6.83-48.73h-6.55l-6.729 48ZM10981.771 540.22l-6.881 6.02 3.2 20.07h-19.68l-2.77-17.15h-23.17l-2.39 17.15h-18.87l9.41-66.89h57.95l7.64 8.93-4.439 31.87Zm-63.541 19.97h6.55l2.39-17.15h33.68l2.77 17.15h7.31l-2.63-16.34 7.74-6.74 3.73-26.9-4.01-4.68h-49.83l-7.7 54.66Zm9.89-23.8 3.39-24.22h41.47l-3.39 24.22h-41.47Zm7.02-6.11h29.14l1.67-11.99h-29.14l-1.67 11.99ZM11050.72 566.3h-18.87l2.39-17.15h-29.14l-2.39 17.15h-18.87l8.12-57.95 10.22-8.93h48.97l7.69 8.93-8.12 57.95Zm-53.03-54.84-6.83 48.73h6.55l2.39-17.15h41.471l-2.391 17.15h6.54l6.98-49.92-4.06-4.73h-43.86l-6.79 5.92Zm3.05 24.93 3.39-24.22h41.47l-3.39 24.22h-41.47Zm7.031-6.11h29.139l1.67-11.99h-29.14l-1.669 11.99ZM11082.021 518.29l-4.061 29.14h29.14l2.87-20.59h18.87l-4.25 30.53-10.22 8.93h-49.02l-7.64-8.93 6.88-49.02 10.181-8.93h57.949l-2.67 18.87h-48.029Zm-11.711-6.83-6.16 44.05 4.01 4.68h43.91l6.78-5.92 2.961-21.31h-6.54l-2.871 20.59h-41.47l5.78-41.37h48.01l.96-6.64h-48.64l-6.73 5.92ZM11154.689 518.29l-.719 5.16h44.57l-2.67 18.87h-44.57l-.72 5.11h44.569l-2.629 18.87h-63.45l9.409-66.89h63.451l-2.68 18.87h-44.561Zm-18.579 41.9h51.119l.911-6.64h-44.57l2.44-17.34h44.57l.96-6.64h-44.57l2.44-17.39h44.569l.96-6.64h-51.119l-7.71 54.65ZM10668.62 438.75l-8.17 8.17h-19.44v9.22h-15.29v-9.22h-19.49l-8.17-8.17V388.2l8.17-8.17h54.22l8.17 8.17v50.55Zm-55.27-7.12h39.99v-36.31h-39.99v36.31ZM10733.08 446.92h-50.55l-8.17-8.17v-58.72h15.29v51.6h36.31v-51.6h15.29v58.72l-8.17 8.17ZM10762.28 395.32v10.51h47.92v15.29h-47.92v10.51h47.92v15.29h-63.21v-66.89h63.21v15.29h-47.92ZM10831.22 395.32v10.51h43.43l8.17 8.17v24.75l-8.17 8.17h-58.72v-15.29h51.6v-10.51h-43.43l-8.17-8.17V388.2l8.17-8.17h58.72v15.29h-51.6ZM10927.79 395.32v51.6h-15.29v-51.6h-23.94v-15.29h63.21v15.29h-23.98ZM10957.51 446.92v-66.89h15.29v66.89h-15.29ZM11045.42 438.75l-8.17 8.17h-50.55l-8.17-8.17V388.2l8.17-8.17h50.55l8.17 8.17v50.55Zm-51.6-7.12h36.31v-36.31h-36.31v36.31ZM11101.13 446.92l-34.69-44.19v44.19h-15.29v-66.89h16.87l34.73 44.19v-44.19h15.29v66.89h-16.91ZM11168.55 412.95l-8.17 8.17h-25.51v-15.29h18.39v-10.51h-29.48v-15.29h36.6l8.17 8.17v24.75Zm-41.71-20.69h29.48v16.63h-18.39v9.17h21.17l6.4-6.4v-22.17l-6.4-6.4h-32.25v9.17Zm8.03 54.66v-15.29h15.29v15.29h-15.29Zm3.05-3.06h9.17v-9.17h-9.17v9.17Z" fill="#e6e6e6"/><path d="M11520 0h1440v720h-1440Z" fill="#eae3d8"/><path d="m12123.57 189.36-7.41 6.5 3.43 21.57h-16.83l-3.12-19.45h-31.75l-2.72 19.45h-16.13l9.93-70.56h61.94l7.41 8.62-4.75 33.87Zm-53.43-7.51h38.3l2.67-18.85h-38.3l-2.67 18.85ZM12149.41 163l-1.56 11.09h50.55l-2.27 16.13h-50.55l-1.56 11.09h50.55l-2.27 16.13h-66.68l9.93-70.56h66.68l-2.26 16.12h-50.56Zm31.96-21.17-10.79-6.7-12.7 6.7-6.05-13.96 16.93-8.97h8.16l14.41 8.97-9.96 13.96ZM12227.32 217.43l-19.049-70.56h17.439l13.05 48.39 26.66-48.39h17.44l-38.91 70.56h-16.63ZM12302.771 163l-1.561 11.09h50.55l-2.27 16.13h-50.55l-1.56 11.09h50.55l-2.27 16.13h-66.68l9.93-70.56h66.68l-2.27 16.12h-50.549ZM12426.24 189.36l-7.41 6.5 3.43 21.57h-16.83l-3.12-19.45h-31.75l-2.72 19.45h-16.14l9.93-70.56h61.94l7.41 8.62-4.74 33.87Zm-53.42-7.51h38.3l2.67-18.85h-38.3l-2.67 18.85ZM12079.54 555.82l5.75 6.75-3.98 28.53h-19.91l2.82-20.31-4.33-4.99h-25.7l-3.53 25.3h-19.91l9.93-70.56h19.91l-3.58 25.35h25.7l5.75-5.04 2.87-20.31h19.91l-4.03 28.53-7.67 6.75ZM12159.22 581.68l-10.79 9.42h-51.71l-8.06-9.42 7.26-51.71 10.74-9.42h51.71l8.11 9.42-7.26 51.71Zm-49.19-10.49h30.74l4.28-30.74h-30.739l-4.281 30.74Zm5.79-55.69 2.27-16.13h16.13l-2.27 16.13h-16.13Zm18.65 0 2.27-16.13h16.13l-2.27 16.13h-16.13ZM12238.39 563.58l-7.26 6.35 3.38 21.17h-20.77l-2.92-18.09h-24.44l-2.52 18.09h-19.91l9.93-70.56h61.14l8.06 9.42-4.69 33.62Zm-49.19-10.48h30.75l1.76-12.65h-30.74l-1.77 12.65ZM12314.99 563.58l-10.79 9.42h-41.23l-2.52 18.09h-19.91l9.93-70.56h61.14l8.06 9.42-4.68 33.63Zm-49.19-10.48h30.75l1.76-12.65h-30.74l-1.77 12.65ZM12344.16 540.45l-.76 5.44h47.02l-2.82 19.91h-47.02l-.76 5.39h47.02l-2.77 19.91h-66.93l9.93-70.56h66.93l-2.82 19.91h-47.02ZM12464.57 563.58l-7.26 6.35 3.38 21.17h-20.77l-2.92-18.09h-24.44l-2.52 18.09h-19.91l9.93-70.56h61.14l8.06 9.42-4.69 33.62Zm-49.2-10.48h30.75l1.76-12.65h-30.74l-1.77 12.65ZM12035.59 412.44v7.31h48.181v18.65h-48.181v7.31h48.181v18.65h-66.831V393.8h66.831v18.65h-48.181Zm-12.19 45.46h53.93v-5.75h-48.18v-20.21h48.18v-5.75h-48.18v-20.21h48.18v-5.75h-53.93v57.67ZM12108.47 412.44v7.31h42.74l9.17 9.17v26.26l-9.17 9.17h-61.39V445.7h51.909v-7.31h-42.739l-9.17-9.17v-26.26l9.17-9.17h61.39v18.65h-51.91Zm-12.2-6.81v20.92l5.39 5.39h46.52v20.21h-51.91v5.75h52.27l5.39-5.39v-20.92l-5.39-5.39h-46.52v-20.21h51.91v-5.75h-52.27l-5.39 5.39ZM12236.98 436.63l-9.12 9.17h-42.79v18.55h-18.65v-70.56h61.44l9.12 9.17v33.67Zm-64.11 21.27h5.75v-18.55h46.57l5.34-5.39v-28.33l-5.34-5.39h-52.32v57.66Zm5.75-24.3v-27.62h46.17v27.62h-46.17Zm6.45-6.45h33.26v-14.72h-33.26v14.72ZM12313.58 464.35h-18.65V445.8h-33.26v18.55h-18.649v-61.39l9.169-9.17h52.22l9.17 9.17v61.39Zm-64.11-58.72v52.27h5.75v-18.55h46.17v18.55h5.75v-52.27l-5.39-5.39h-46.87l-5.41 5.39Zm5.75 27.97v-27.62h46.17v27.62h-46.17Zm6.45-6.45h33.26v-14.72h-33.26v14.72ZM12338.271 412.44v33.27h48.179v18.65h-19v14.72l-6.7 6.65h-22.08V469.6h12.65v-5.24h-22.53l-9.17-9.17v-52.22l9.17-9.17h57.66v18.65h-48.179Zm-12.201-6.81v46.87l5.39 5.39h26.311v18.14h-12.651v3.23h12.95l2.92-2.87v-18.5h19v-5.75h-48.18v-46.17h48.19v-5.75h-48.54l-5.39 5.41ZM12463.05 455.18l-9.17 9.17h-52.22l-9.17-9.17v-52.22l9.17-9.17h52.22l9.17 9.17v52.22Zm-64.11-49.55v46.87l5.39 5.39h46.87l5.39-5.39v-46.87l-5.39-5.39h-46.87l-5.39 5.39Zm5.75 46.52v-46.17h46.17v46.17h-46.17Zm6.45-6.45h33.26v-33.27h-33.26v33.27ZM12056.06 343.32v-26.76l-13.86 26.76h-18.14l-13.86-26.76v26.76h-21.17v-70.56h22.33l21.77 42.09 21.77-42.09h22.329v70.56h-21.169Zm-22.93-21.48-23.74-45.87h-17.14v64.11h14.72V303.3l19.05 36.79h14.209l19.051-36.79v36.79h14.72v-64.11h-17.14l-23.73 45.86ZM12153.83 343.32h-21.17v-17.64h-28.22v17.64h-21.17v-60.83l9.73-9.73h51.11l9.73 9.73v60.83Zm-67.34-59.48v56.25h14.72v-17.64h34.68v17.64h14.72v-56.25l-7.86-7.86h-48.39l-7.87 7.86Zm14.72 23.89V290.7h34.68v17.04h-34.68Zm14.41-40.02-11.39-11.39 17.24-17.24 11.39 11.39-17.24 17.24Zm-11.19 36.8h28.22v-10.58h-28.22v10.58Zm11.19-41.38 12.65-12.65-6.8-6.8-12.65 12.65 6.8 6.8ZM12233.96 333.59l-9.73 9.73h-16.73v8.82h-21.17v-8.82h-16.73l-9.73-9.73v-51.11l9.73-9.73h54.63l9.73 9.73v51.11Zm-70.87-49.75v48.39l7.86 7.86h18.6v8.82h14.721v-8.82h18.599l7.86-7.86v-48.39l-7.86-7.86h-51.91l-7.87 7.86Zm14.72 41.53V290.7h38.2v34.68h-38.2Zm3.23-3.22h31.75v-28.22h-31.75v28.22ZM12300.83 343.32h-51.11l-9.73-9.73v-60.83h21.17v49.39h28.22v-49.39h21.17v60.83l-9.72 9.73Zm-8.21-17.95h-34.68v-49.39h-14.72v56.25l7.86 7.86h48.38l7.86-7.86v-56.25h-14.72v49.39ZM12316.6 343.32v-70.56h21.17v70.56h-21.17Zm3.22-3.23h14.72v-64.11h-14.72v64.11ZM12393.36 343.32l-28.381-36.09v36.09h-21.169v-70.56h21.02l28.38 36.09v-36.09h21.17v70.56h-21.02Zm3.07-25.15-33.16-42.19h-16.23v64.11h14.72V297.9l33.16 42.19h16.23v-64.11h-14.72v42.19ZM12490.97 343.32h-21.17v-17.64h-28.22v17.64h-21.17v-60.83l9.73-9.73h51.11l9.73 9.73v60.83Zm-67.33-59.48v56.25h14.72v-17.64h34.68v17.64h14.72v-56.25l-7.86-7.86h-48.4l-7.86 7.86Zm14.71 23.89V290.7h34.68v17.04h-34.68Zm3.23-3.22h28.22v-10.58h-28.22v10.58ZM12960 0h1440v720h-1440Z"/><path d="M13297.64 217.55v29.7h-8.8v-29.7h-13.78v-8.8h36.38v8.8h-13.8Zm-20.82-1.76h13.78v29.7h5.28v-29.7h13.8v-5.28h-32.86v5.28ZM13344.44 247.25V232.4h-20.9v14.85h-8.8v-38.49h8.8v14.85h20.9v-14.85h8.8v38.49h-8.8Zm1.76-21.89h-24.42v-14.85h-5.28v34.98h5.28v-14.85h24.42v14.85h5.28v-34.98h-5.28v14.85ZM13365.35 217.55v6.05h27.58v8.8h-27.58v6.05h27.58v8.8h-36.38v-38.49h36.38v8.8h-27.58Zm-7.04 27.94h32.86v-5.28h-27.58v-9.57h27.58v-5.28h-27.58v-9.57h27.58v-5.28h-32.86v34.98ZM13447.54 247.25v-22.16l-11.49 22.16h-8.52l-11.49-22.16v22.16h-8.8v-38.49h10.26l14.3 27.61 14.3-27.61h10.26v38.49h-8.82ZM13498.14 247.25h-8.8v-10.61h-20.9v10.61h-8.8v-33.79l4.7-4.7h29.09l4.7 4.7v33.79Zm-29.7-19.42h20.9v-10.28h-20.9v10.28ZM13530.2 247.25l-19.96-25.43v25.43h-8.8v-38.49h9.71l19.99 25.43v-25.43h8.8v38.49h-9.74ZM13577.04 247.25h-29.09l-4.7-4.7v-33.79h8.8v29.7h20.9v-29.7h8.8v33.79l-4.71 4.7ZM13593.84 217.55v6.05h24.99l4.7 4.7v14.24l-4.7 4.7h-33.79v-8.8h29.7v-6.05h-24.99l-4.7-4.7v-14.24l4.7-4.7h33.79v8.8h-29.7ZM13635.64 217.55v20.9h27.58v8.8h-31.68l-4.7-4.7v-29.09l4.7-4.7h31.68v8.8h-27.58ZM13705.02 231.93l-3.52 3.55 3.52 11.77h-9.18l-3.19-10.61h-17.32v10.61h-8.8v-38.49h33.79l4.7 4.7v18.47Zm-29.7-4.1h20.9v-10.28h-20.9v10.28ZM13708.32 247.25v-38.49h8.8v38.49h-8.8ZM13758.89 231.93l-4.67 4.7h-24.99v10.61h-8.8v-38.49h33.79l4.67 4.7v18.48Zm-29.67-4.1h20.87v-10.28h-20.87v10.28ZM13784.77 217.55v29.7h-8.8v-29.7h-13.77v-8.8h36.38v8.8h-13.81ZM13812.88 247.25v-38.49h8.8v38.49h-8.8Zm3.52-3.52h1.76v-31.46h-1.76v31.46ZM13833.78 217.55v6.05h24.991l4.699 4.7v14.24l-4.699 4.7h-33.791v-8.8h29.7v-6.05h-24.99l-4.7-4.7v-14.24l4.7-4.7h33.79v8.8h-29.7Zm-5.28-2.64v11.33l2.64 2.64h27.06v13.09h-29.7v1.76h28.82l2.64-2.64v-11.33l-2.64-2.64h-27.06v-13.09h29.7v-1.76h-28.82l-2.64 2.64ZM13297.64 283.55v29.7h-8.8v-29.7h-13.78v-8.8h36.38v8.8h-13.8ZM13353.24 297.93l-3.52 3.55 3.52 11.77h-9.18l-3.19-10.61h-17.32v10.61h-8.8v-38.49h33.79l4.7 4.7v18.47Zm-29.69-4.1h20.9v-10.28h-20.9v10.28ZM13395.04 313.25h-8.8v-10.61h-20.9v10.61h-8.8v-33.79l4.7-4.7h29.09l4.7 4.7v33.79Zm-29.69-19.42h20.9v-10.28h-20.9v10.28ZM13427.11 313.25l-19.96-25.43v25.43h-8.8v-38.49h9.71l19.99 25.43v-25.43h8.8v38.49h-9.74ZM13448.95 283.55v6.05h24.99l4.7 4.7v14.24l-4.7 4.7h-33.79v-8.8h29.7v-6.05h-24.99l-4.7-4.7v-14.24l4.7-4.7h33.79v8.8h-29.7ZM13490.75 283.55v20.9h27.58v8.8h-31.68l-4.7-4.7v-29.09l4.7-4.7h31.68v8.8h-27.58ZM13560.12 297.93l-3.52 3.55 3.52 11.77h-9.18l-3.19-10.61h-17.32v10.61h-8.8v-38.49h33.79l4.7 4.7v18.47Zm-29.69-4.1h20.9v-10.28h-20.9v10.28ZM13563.43 313.25v-38.49h8.799v38.49h-8.799ZM13614.02 308.55l-4.7 4.7h-33.79v-38.49h33.79l4.7 4.7v29.09Zm-29.69-18.95h20.9v-6.05h-20.9v6.05Zm0 14.85h20.9v-6.05h-20.9v6.05ZM13626.13 283.55v6.05h27.58v8.8h-27.58v6.05h27.58v8.8h-36.38v-38.49h36.38v8.8h-27.58ZM13695.5 308.55l-4.7 4.7h-33.79v-38.49h33.79l4.7 4.7v29.09Zm-29.69-4.1h20.9v-20.9h-20.9v20.9ZM13748.3 308.55l-4.7 4.7h-29.09l-4.7-4.7v-29.09l4.7-4.7h29.09l4.7 4.7v29.09Zm-36.73-28.35v27.61l3.68 3.68h27.61l3.68-3.68V280.2l-3.68-3.68h-27.61l-3.68 3.68Zm5.28 26.01v-24.42h24.42v24.42h-24.42Zm1.76-1.76h20.9v-20.9h-20.9v20.9ZM13780.37 313.25l-19.96-25.43v25.43h-8.8v-38.49h9.71l19.99 25.43v-25.43h8.8v38.49h-9.74Zm2.69-7.98-22.6-28.76h-7.09v34.98h5.28v-28.76l22.57 28.76h7.12v-34.98h-5.28v28.76ZM13815.98 283.55v29.7h-8.8v-29.7h-13.78v-8.8h36.38v8.8h-13.8Zm-20.81-1.76h13.78v29.7h5.28v-29.7h13.8v-5.28h-32.86v5.28ZM13871.59 308.55l-4.7 4.7h-29.09l-4.7-4.7v-29.09l4.7-4.7h29.09l4.7 4.7v29.09Zm-36.74-28.35v27.61l3.68 3.68h27.61l3.68-3.68V280.2l-3.68-3.68h-27.61l-3.68 3.68Zm5.28 26.01v-24.42h24.42v24.42h-24.42Zm1.76-1.76h20.9v-20.9h-20.9v20.9ZM13908.46 283.55v29.7h-8.8v-29.7h-13.78v-8.8h36.38v8.8h-13.8ZM13955.271 313.25V298.4h-20.901v14.85h-8.8v-38.49h8.8v14.85h20.901v-14.85h8.799v38.49h-8.799ZM13967.37 313.25v-38.49h8.8v38.49h-8.8ZM14008.23 313.25l-19.959-25.43v25.43h-8.801v-38.49h9.71l19.99 25.43v-25.43h8.8v38.49h-9.74ZM13283.86 349.55v6.05h24.99l4.7 4.7v14.24l-4.7 4.7h-33.79v-8.8h29.7v-6.05h-24.99l-4.7-4.7v-14.24l4.7-4.7h33.79v8.8h-29.7Zm-5.28-2.64v11.33l2.64 2.64h27.06v13.09h-29.7v1.76h28.82l2.64-2.64v-11.33l-2.64-2.64h-27.06v-13.09h29.7v-1.76h-28.82l-2.64 2.64ZM13351.12 370.45v8.8h-34.26v-38.5h8.8v29.7h25.46Zm-30.74 5.28h27.22v-1.76h-25.46v-29.7h-1.76v31.46ZM13354.43 379.25v-38.5h8.8v38.5h-8.8Zm3.52-3.52h1.76v-31.46h-1.76v31.46ZM13375.33 349.55v20.9h20.899v-12.73h8.801v16.83l-4.7 4.7h-29.09l-4.7-4.7v-29.09l4.7-4.7h33.79v8.8h-29.7Zm-5.28-2.64v26.18l2.64 2.64h26.18l2.64-2.64v-11.85h-1.76v12.73h-27.94v-27.94h29.7v-1.76h-28.82l-2.64 2.64ZM13438.02 379.25V364.4h-20.9v14.85h-8.8v-38.5h8.8v14.85h20.9v-14.85h8.8v38.5h-8.8Zm3.52-20.13h-27.94v-14.85h-1.76v31.46h1.76v-14.85h27.94v14.85h1.76v-31.46h-1.76v14.85ZM13472.7 349.55v29.7h-8.8v-29.7h-13.78v-8.8h36.38v8.8h-13.8Zm-19.05-3.52h13.78v29.7h1.76v-29.7h13.8v-1.76h-29.34v1.76ZM13524.07 370.45v8.8h-34.26v-38.5h8.8v29.7h25.46Zm-30.74 5.28h27.22v-1.76h-25.46v-29.7h-1.76v31.46ZM13538.4 379.25h-8.8v-11.08l-15.98-27.41h10.17l10.2 17.49 10.2-17.49h10.2l-16 27.41v11.08Zm-4.4-14.03-12.24-20.95h-2.01l13.36 22.93v8.52h1.76v-8.52l13.39-22.93h-2.03l-12.23 20.95ZM13609.71 379.25l-7.92-24.66-7.92 24.66h-9.349l-15.811-38.5h9.51l10.53 25.63 8.22-25.63h9.6l8.25 25.63 10.53-25.63h9.51l-15.81 38.5h-9.34ZM13674.47 379.25h-8.8v-10.61h-20.9v10.61h-8.8v-33.79l4.7-4.7h29.09l4.7 4.7v33.79Zm-29.699-19.42h20.899v-10.28h-20.899v10.28ZM13715.521 379.25h-10.811l-8.33-11.69-8.359 11.69h-10.811l13.76-19.25-13.75-19.25h10.81l8.36 11.69 8.33-11.69h10.81l-13.75 19.25 13.741 19.25ZM13727.63 349.55v6.05h27.58v8.8h-27.58v6.05h27.58v8.8h-36.38v-38.5h36.38v8.8h-27.58ZM13797.01 374.55l-4.7 4.7h-33.79v-38.5h33.79l4.7 4.7v29.1Zm-29.7-4.1h20.9v-20.9h-20.9v20.9ZM13820.11 349.55v6.05h24.99l4.7 4.7v14.24l-4.7 4.7h-33.79v-8.8h29.7v-6.05h-24.99l-4.7-4.7v-14.24l4.7-4.7h33.79v8.8h-29.7Zm-7.04-3.35v12.76l3.68 3.68h26.01v9.57h-29.7v5.28h31.29l3.68-3.68v-12.76l-3.68-3.68h-26.01v-9.57h29.7v-5.28h-31.29l-3.68 3.68ZM13882.81 379.25V364.4h-20.9v14.85h-8.8v-38.5h8.8v14.85h20.9v-14.85h8.8v38.5h-8.8Zm1.76-21.89h-24.42v-14.85h-5.28v34.98h5.28v-14.85h24.42v14.85h5.28v-34.98h-5.28v14.85ZM13903.71 349.55v6.05h27.58v8.8h-27.58v6.05h27.58v8.8h-36.38v-38.5h36.38v8.8h-27.58Zm-7.04 27.94h32.86v-5.28h-27.58v-9.57h27.58v-5.28h-27.58v-9.57h27.58v-5.28h-32.86v34.98ZM13943.39 349.55v6.05h27.58v8.8h-27.58v6.05h27.58v8.8h-36.38v-38.5h36.38v8.8h-27.58Zm-7.04 27.94h32.86v-5.28h-27.58v-9.57h27.58v-5.28h-27.58v-9.57h27.58v-5.28h-32.86v34.98ZM13996.85 349.55v29.7h-8.8v-29.7h-13.78v-8.8h36.38v8.8h-13.8Zm-20.82-1.76h13.781v29.7h5.279v-29.7h13.8v-5.28h-32.86v5.28ZM14022.76 349.55v6.05h24.99l4.7 4.7v14.24l-4.7 4.7h-33.79v-8.8h29.7v-6.05h-24.99l-4.7-4.7v-14.24l4.7-4.7h33.79v8.8h-29.7Zm-7.04-3.35v12.76l3.68 3.68h26.01v9.57h-29.7v5.28h31.29l3.68-3.68v-12.76l-3.68-3.68h-26v-9.57h29.7v-5.28h-31.29l-3.69 3.68ZM14105.25 374.55l-4.7 4.7h-29.09l-4.7-4.7v-29.09l4.7-4.7h29.09l4.7 4.7v29.09Zm-29.689-4.1h20.899v-20.9h-20.899v20.9ZM14117.36 349.55v6.05h27.579v8.8h-27.579v14.85h-8.8v-38.5h36.379v8.8h-27.579ZM13313.53 429.93l-4.67 4.7h-24.99v10.61h-8.8v-38.5h33.79l4.67 4.7v18.49Zm-34.95 11.8h1.76v-10.61h27.06l2.61-2.64v-15.56l-2.61-2.64h-28.82v31.45Zm1.76-12.38v-17.32h27.91v17.32h-27.91Zm3.52-3.52h20.87v-10.28h-20.87v10.28ZM13355.33 445.25h-8.8v-10.61h-20.9v10.61h-8.8v-33.79l4.7-4.7h29.09l4.7 4.7v33.79Zm-34.97-32.34v28.82h1.76v-10.61h27.94v10.61h1.76v-28.82l-2.64-2.64H13323l-2.64 2.64Zm1.76 16.44v-17.32h27.94v17.32h-27.94Zm3.52-3.52h20.9v-10.28h-20.9v10.28ZM13397.1 429.93l-4.67 4.7h-24.99v10.61h-8.8v-38.5h33.79l4.67 4.7v18.49Zm-34.94 11.8h1.76v-10.61h27.06l2.61-2.64v-15.56l-2.61-2.64h-28.82v31.45Zm1.76-12.38v-17.32h27.91v17.32h-27.91Zm3.52-3.52h20.87v-10.28h-20.87v10.28ZM13409.21 415.55v6.05h27.58v8.8h-27.58v6.05h27.58v8.8h-36.38v-38.5h36.38v8.8h-27.58Zm-5.28 26.18h29.34v-1.76h-27.58v-13.09h27.58v-1.76h-27.58v-13.09h27.58v-1.76h-29.34v31.46ZM13478.59 429.93l-3.52 3.55 3.52 11.77h-9.18l-3.19-10.61h-17.32v10.61h-8.8v-38.5h33.79l4.7 4.7v18.48Zm-34.98 11.8h1.76v-10.61h23.45l3.19 10.61h1.84l-2.75-9.24 3.96-4.01v-15.56l-2.64-2.64h-28.82v31.45Zm1.76-12.38v-17.32h27.94v17.32h-27.94Zm3.52-3.52h20.9v-10.28h-20.9v10.28ZM13531.39 440.55l-4.7 4.7h-33.79v-38.5h33.79l4.7 4.7v29.1Zm-29.7-18.95h20.9v-6.05h-20.9v6.05Zm0 14.85h20.9v-6.05h-20.9v6.05ZM13557.26 445.25h-8.8v-11.08l-15.98-27.41h10.17l10.2 17.49 10.2-17.49h10.2l-16 27.41v11.08ZM13626.07 445.25h-8.799v-10.61h-20.901v10.61h-8.8v-33.79l4.701-4.7h29.089l4.7 4.7v33.79Zm-36.74-33.05v31.29h5.28v-10.61h24.42v10.61h5.28V412.2l-3.68-3.68h-27.609l-3.691 3.68Zm5.28 15.39v-13.8h24.42v13.8h-24.42Zm1.76-1.76h20.901v-10.28h-20.901v10.28ZM13678.84 429.93l-4.67 4.7h-24.99v10.61h-8.8v-38.5h33.79l4.67 4.7v18.49Zm-29.67-4.1h20.87v-10.28h-20.87v10.28ZM13720.64 429.93l-3.52 3.55 3.52 11.77h-9.18l-3.189-10.61h-17.321v10.61h-8.8v-38.5h33.79l4.7 4.7v18.48Zm-29.7-4.1h20.9v-10.28h-20.9v10.28ZM13762.44 440.55l-4.7 4.7h-29.09l-4.7-4.7v-29.09l4.7-4.7h29.09l4.7 4.7v29.09Zm-29.7-4.1h20.9v-20.9h-20.9v20.9ZM13774.54 415.55v6.05h27.58v8.8h-27.58v14.85h-8.8v-38.5h36.38v8.8h-27.58ZM13814.23 415.55v6.05h27.58v8.8h-27.58v6.05h27.58v8.8h-36.38v-38.5h36.38v8.8h-27.58ZM13853.91 415.55v6.05h24.99l4.7 4.7v14.24l-4.7 4.7h-33.79v-8.8h29.7v-6.05h-24.99l-4.7-4.7v-14.24l4.7-4.7h33.79v8.8h-29.7ZM13895.71 415.55v6.05h24.99l4.7 4.7v14.24l-4.7 4.7h-33.79v-8.8h29.7v-6.05h-24.99l-4.7-4.7v-14.24l4.7-4.7h33.79v8.8h-29.7ZM13928.71 445.25v-38.5h8.8v38.5h-8.8ZM13979.3 440.55l-4.7 4.7h-29.09l-4.7-4.7v-29.09l4.7-4.7h29.09l4.7 4.7v29.09Zm-29.69-4.1h20.9v-20.9h-20.9v20.9ZM14011.37 445.25l-19.96-25.43v25.43h-8.8v-38.5h9.71l19.99 25.43v-25.43h8.8v38.5h-9.74ZM14062.9 445.25h-8.8v-10.61h-20.9v10.61h-8.8v-33.79l4.7-4.7h29.09l4.7 4.7v33.79Zm-29.69-19.42h20.9v-10.28h-20.9v10.28ZM14100.47 436.45v8.8h-34.26v-38.5h8.8v29.7h25.46ZM13283.86 481.55v20.9h27.58v8.8h-31.68l-4.7-4.7v-29.09l4.7-4.7h31.68v8.8h-27.58Zm-5.28-2.64v26.18l2.64 2.64h26.7v-1.76h-27.58v-27.94h27.58v-1.76h-26.7l-2.64 2.64ZM13353.24 511.25h-8.8v-10.61h-20.9v10.61h-8.8v-33.79l4.7-4.7h29.09l4.7 4.7v33.79Zm-34.97-32.34v28.82h1.76v-10.61h27.94v10.61h1.76v-28.82l-2.64-2.64h-26.18l-2.64 2.64Zm1.76 16.44v-17.32h27.94v17.32h-27.94Zm3.52-3.52h20.9v-10.28h-20.9v10.28ZM13390.81 502.45v8.8h-34.26v-38.5h8.8v29.7h25.46Zm-30.74 5.28h27.22v-1.76h-25.46v-29.7h-1.76v31.46ZM13428.37 502.45v8.8h-34.26v-38.5h8.8v29.7h25.46Zm-30.74 5.28h27.22v-1.76h-25.46v-29.7h-1.76v31.46ZM13431.68 511.25v-38.5h8.8v38.5h-8.8Zm3.52-3.52h1.76v-31.46h-1.76v31.46ZM13452.57 481.55v20.9h20.9v-12.73h8.801v16.83l-4.701 4.7h-29.09l-4.7-4.7v-29.09l4.7-4.7h33.791v8.8h-29.701Zm-5.27-2.64v26.18l2.64 2.64h26.18l2.64-2.64v-11.85h-1.76v12.73h-27.94v-27.94h29.7v-1.76h-28.82l-2.64 2.64ZM13524.07 495.93l-3.52 3.55 3.52 11.77h-9.18l-3.19-10.61h-17.32v10.61h-8.8v-38.5h33.79l4.7 4.7v18.48Zm-34.97 11.8h1.76v-10.61h23.45l3.19 10.61h1.84l-2.75-9.24 3.96-4.01v-15.56l-2.64-2.64h-28.81v31.45Zm1.75-12.38v-17.32h27.94v17.32h-27.94Zm3.52-3.52h20.901v-10.28h-20.901v10.28ZM13565.87 511.25h-8.8v-10.61h-20.9v10.61h-8.8v-33.79l4.7-4.7h29.09l4.7 4.7v33.79Zm-34.97-32.34v28.82h1.76v-10.61h27.94v10.61h1.76v-28.82l-2.64-2.64h-26.18l-2.64 2.64Zm1.75 16.44v-17.32h27.94v17.32h-27.94Zm3.52-3.52h20.9v-10.28h-20.9v10.28ZM13607.64 495.93l-4.67 4.7h-24.99v10.61h-8.8v-38.5h33.79l4.67 4.7v18.49Zm-34.95 11.8h1.76v-10.61h27.06l2.61-2.64v-15.56l-2.61-2.64h-28.82v31.45Zm1.76-12.38v-17.32h27.91v17.32h-27.91Zm3.52-3.52h20.87v-10.28h-20.87v10.28ZM13640.64 511.25V496.4h-20.9v14.85h-8.8v-38.5h8.8v14.85h20.9v-14.85h8.8v38.5h-8.8Zm3.52-20.13h-27.94v-14.85h-1.76v31.46h1.76v-14.85h27.94v14.85h1.76v-31.46h-1.76v14.85ZM13661.55 481.55v6.05h27.58v8.8h-27.58v6.05h27.58v8.8h-36.38v-38.5h36.38v8.8h-27.58Zm-5.279 26.18h29.339v-1.76h-27.58v-13.09h27.58v-1.76h-27.58v-13.09h27.58v-1.76h-29.339v31.46ZM13730.92 495.93l-3.52 3.55 3.52 11.77h-9.18l-3.19-10.61h-17.32v10.61h-8.8v-38.5h33.79l4.7 4.7v18.48Zm-34.97 11.8h1.76v-10.61h23.45l3.19 10.61h1.84l-2.75-9.24 3.96-4.01v-15.56l-2.64-2.64h-28.82v31.45Zm1.76-12.38v-17.32h27.94v17.32h-27.94Zm3.52-3.52h20.9v-10.28h-20.9v10.28ZM13734.23 511.25v-8.8h8.8v8.8h-8.8Z" fill="#e6e6e6"/><path d="M4320 0h1440v720H4320Z"/><path d="M4649.8 272.67v-96.49h22.05v96.49h-22.05ZM4752.21 272.67l-50.03-63.75v63.75h-22.05v-96.49h24.33l50.1 63.75v-63.75h22.05v96.49h-24.4ZM4881.37 260.89l-11.78 11.79h-84.7v-96.49h84.7l11.78 11.78v72.92Zm-74.43-10.27h52.38v-52.38h-52.38v52.38ZM4974.35 272.67h-72.92l-11.79-11.79v-84.7h22.05v74.43h52.38v-74.43h22.05v84.7l-11.77 11.79ZM5016.46 198.24v15.16h62.65l11.79 11.79v35.7l-11.79 11.79h-84.7v-22.05h74.43v-15.16h-62.64l-11.79-11.79v-35.7l11.79-11.78h84.7v22.05h-74.44ZM5155.76 198.24v74.43h-22.06v-74.43h-34.53v-22.05h91.18v22.05h-34.59ZM5295.12 234.29l-8.82 8.89 8.82 29.5h-23.02l-7.99-26.6h-43.42v26.6h-22.05v-96.49h84.7l11.79 11.78v46.32Zm-74.44-10.27h52.38v-25.78h-52.38v25.78ZM5303.39 272.67v-96.49h22.05v96.49h-22.05ZM5430.2 272.67h-22.05v-26.6h-52.38v26.6h-22.05v-84.7l11.79-11.78h72.92l11.79 11.78v84.7Zm-74.43-48.65h52.38v-25.78h-52.38v25.78ZM4755.93 501.56l-12.9 12.97h-68.96v29.28h-24.27v-106.2h93.23l12.9 12.97v50.98Zm-96.42 32.54h4.86v-29.28h74.65l7.21-7.28V454.6l-7.21-7.28h-79.5v86.78Zm4.85-34.14v-47.79h77v47.79h-77Zm9.71-9.71h57.58v-28.37h-57.58v28.37ZM4871.23 501.56l-9.71 9.79 9.71 32.47h-25.34l-8.8-29.28h-47.79v29.28h-24.28v-106.2h93.23l12.97 12.97v50.97Zm-96.5 32.54h4.86v-29.28h64.71l8.8 29.28h5.08l-7.59-25.49 10.92-11.08V454.6l-7.28-7.28h-79.5v86.78Zm4.86-34.14v-47.79h77.07v47.79h-77.07Zm9.71-9.71h57.65v-28.37h-57.65v28.37ZM4986.52 530.84l-12.97 12.97h-80.26l-12.97-12.97v-80.26l12.97-12.97h80.26l12.97 12.97v80.26Zm-96.49-76.24v72.22l7.28 7.28h72.22l7.28-7.28V454.6l-7.28-7.28h-72.22l-7.28 7.28Zm4.86 74.65v-77.07h77.07v77.07h-77.07Zm9.71-9.71h57.65v-57.65h-57.65v57.65ZM5088.85 543.81h-80.26l-12.97-12.97v-46.43h24.28v35.12h57.65v-57.65h-35.12V437.6h59.4v93.23l-12.98 12.98Zm-36.71-91.64h35.12v77.07h-77.07v-35.12h-4.86v32.7l7.28 7.28h72.22l7.28-7.28v-79.5h-39.98v4.85ZM5135.2 461.88v16.69h76.09v24.28h-76.09v16.69h76.09v24.28h-100.37v-106.2h100.36v24.28h-76.08Zm-14.57 72.22h80.94v-4.86h-76.09v-36.11h76.09v-4.86h-76.09v-36.11h76.09v-4.86h-80.94v86.8ZM5244.66 461.88v57.65h76.09v24.28h-87.39l-12.97-12.97v-80.26l12.97-12.97h87.39v24.28h-76.09Zm-14.57-7.28v72.22l7.28 7.28h73.66v-4.86h-76.09v-77.07h76.09v-4.86h-73.66l-7.28 7.29ZM5392.12 461.88v81.93h-24.28v-81.93h-38.01V437.6h100.36v24.28h-38.07Zm-52.57-9.71h38.01v81.93h4.85v-81.93h38.08v-4.86h-80.94v4.86ZM4800.33 379.44l-8.16 8.16h-56.77v-64.93h56.77l8.16 8.16v48.61Zm-61.96 5.2h52.55l6.45-6.45v-46.1l-6.45-6.45h-52.55v59Zm10.06-10.07V335.7h38.87v38.87h-38.87Zm2.97-2.96h32.93v-32.93h-32.93v32.93ZM4805.9 387.61v-64.93h16v64.93h-16Zm2.96-2.97h10.06v-59h-10.06v59ZM4843.46 338.68v8.49h40.77l8.16 8.16v24.12l-8.16 8.16h-56.77v-16h48.93v-8.44h-40.77l-8.16-8.21v-24.12l8.16-8.16h56.77v16h-48.93Zm-13.03-6.59v21.66l6.45 6.45h42.48v14.38h-48.93v10.06h52.55l6.45-6.45v-21.61l-6.45-6.45h-42.48v-14.42h48.93v-10.06h-52.55l-6.45 6.44ZM4936.69 338.68v48.93h-16v-48.93h-22.73v-16h61.45v16h-22.72Zm-35.76-2.97h22.73v48.93h10.06v-48.93h22.73v-10.06h-55.52v10.06ZM5029.91 361.96l-5.94 5.89 5.94 19.76h-16.7l-5.24-17.49h-26.99v17.49h-16v-64.93h56.77l8.16 8.16v31.12Zm-61.96 22.68h10.06v-17.49h32.19l5.24 17.49h10.48l-5.29-17.62 6.31-6.31v-28.62l-6.45-6.45h-52.55v59Zm10.06-27.55v-21.38h38.87v21.38h-38.87Zm2.97-2.97h32.93v-15.44h-32.93v15.44ZM5035.48 387.61v-64.93h16v64.93h-16Zm2.97-2.97h10.07v-59h-10.07v59ZM5073.05 338.68v32.93h45.45v16h-53.29l-8.16-8.16v-48.61l8.16-8.16h53.29v16h-45.45Zm-13.04-6.59v46.1l6.45 6.45h49.07v-10.06h-45.45v-38.87h45.45v-10.06h-49.07l-6.45 6.44ZM5162.79 338.68v48.93h-16v-48.93h-22.73v-16h61.45v16h-22.72Zm-35.76-2.97h22.73v48.93h10.07v-48.93h22.73v-10.06h-55.52v10.06ZM5207.09 338.68v8.49h33.76l8.21 8.16v24.12l-8.21 8.16h-49.77v-16h41.97v-8.44h-41.97v-40.49h57.98v16h-41.97Zm-10.07 18.55h41.97v20.32h-41.97v4.13h41.37l4.73-4.68v-19.2l-4.73-4.68h-37.24v-20.36h41.97v-4.13h-46.1v28.6ZM5281.11 387.61h-16v-48.93h-10.48v-16h18.32l8.16 8.16v56.77Zm-20.55-54.87h10.48v48.93h4.13V333.3l-4.68-4.68h-9.93v4.12ZM5302.68 338.68v8.49h33.76l8.16 8.16v24.12l-8.16 8.16h-41.6l-8.16-8.16v-48.61l8.16-8.16h49.77v16h-41.93Zm-10.07-5.38v43.69l4.68 4.68h36.69l4.68-4.68v-19.2l-4.68-4.68h-37.24v-20.36h41.93v-4.13h-41.37l-4.69 4.68Zm4.13 44.24v-20.32h37.8v20.32h-37.8Zm5.94-5.93h25.93v-8.44h-25.93v8.44Z" fill="#e6e6e6"/></svg>