<svg viewBox="0 0 14400 720" xmlns="http://www.w3.org/2000/svg"><path d="m0 720h14400v-720h-14400z" fill="#eae3d8"/><path d="m544.6 257.2-12.3 12.3h-64.7l-12.3-12.3v-64.7l12.3-12.3h64.7l12.3 12.3zm-62.5-14.5h35.7v-35.7h-35.7zm96.9-35.7v4.5h50.2l12.3 12.3v33.4l-12.3 12.3h-77v-26.8h62.5v-4.5h-50.2l-12.3-12.3v-33.4l12.3-12.3h77v26.8zm155 62.5v-33.9l-17.5 33.9h-23l-17.5-33.9v33.9h-26.8v-89.3h28.3l27.5 53.3 27.6-53.3h28.3v89.3zm34.5 0v-89.3h26.8v89.3zm61.2-62.5v35.7h58.1v26.8h-72.6l-12.3-12.3v-64.7l12.3-12.3h72.5v26.8zm155 62.5h-26.8v-22.3h-35.7v22.3h-26.8v-77l12.3-12.3h64.7l12.3 12.3zm-62.5-49.1h35.7v-13.4h-35.7zm-376.9 308.4-11 11h-68l-11-11v-68.1l11-11h68.1l11 11v68.1zm-81.8-64.7v61.3l6.2 6.2h61.3l6.2-6.2v-61.3l-6.2-6.2h-61.3zm4.1 63.3v-65.3h65.4v65.4h-65.4zm8.2-8.2h48.9v-48.9h-48.9zm97.8-48.9v14.2h58.5l11 11v33.3l-11 11h-79v-20.6h69.5v-14.2h-58.5l-11-11v-33.3l11-11h79.1v20.6zm-12.4-6.2v26.5l6.2 6.2h63.3v30.6h-69.4v4.1h67.4l6.2-6.2v-26.4l-6.2-6.2h-63.3v-30.6h69.5v-4.1h-67.4zm204.6 75.7h-20.6v-51.9l-26.9 51.9h-20l-26.9-51.9v51.9h-20.5v-90.1h24l33.5 64.6 33.5-64.6h24v90.1zm-102.6-81.9h-4.1v73.6h4.1zm44.8 73.7-38.2-73.6h-4.6l38.2 73.6zm38.8-73.6-38.2 73.6h4.6l38.2-73.6zm6.6 0v73.6h4.1v-73.7h-4.1zm20.1 81.8v-90.1h20.6v90.1zm8.2-8.2h4.1v-73.7h-4.1v73.6zm40.7-61.3v48.9h64.5v20.6h-74.1l-11-11v-68.1l11-11h74.1v20.6zm-12.4-6.2v61.3l6.2 6.2h62.5v-4.1h-64.5v-65.4h64.5v-4.1h-62.5zm174.7 75.7h-20.5v-24.8h-49v24.8h-20.5v-79.1l11-11h68.1l11 11v79.1zm-81.8-75.7v67.4h4.1v-24.8h65.4v24.8h4.1v-67.4l-6.2-6.2h-61.2zm4.1 38.5v-40.5h65.4v40.5zm8.2-8.2h48.9v-24.1h-48.9zm-370.2-101.6-11.7 11.7h-66.4l-11.7-11.7v-66.4l11.7-11.7h66.4l11.7 11.7zm-85.6-64.7v62.9l9.3 9.3h62.9l9.3-9.3v-62.8l-9.3-9.3h-63zm15.5 56.7v-50.4h50.5v50.5h-50.5zm4.1-4.1h42.3v-42.2h-42.3v42.3zm97.4-42.2v9.3h54.3l11.7 11.7v33.4l-11.7 11.7h-78v-23.8h66v-9.3h-54.4l-11.7-11.7v-33.4l11.7-11.7h78v23.7h-66zm-19.6-10.3v29.9l9.3 9.3h56.7v17.5h-66v15.5h72.2l9.3-9.3v-29.9l-9.3-9.3h-56.7v-17.5h66v-15.5h-72.3zm182.8 76.3v-42.9l-22.2 42.9h-21.5l-22.2-42.9v42.9h-23.7v-89.7h26.1l30.5 58.9 30.5-58.9h26.1v89.7zm-32.9-21.9-33-63.7h-19.6v81.5h15.5v-55.7l28.8 55.6h16.5l28.8-55.6v55.6h15.5v-81.4h-19.5zm64.3 21.9v-89.7h23.7v89.7zm4.1-4.1h15.5v-81.5h-15.5zm51-61.9v42.3h61.3v23.7h-73.3l-11.7-11.7v-66.4l11.7-11.7h73.3v23.7h-61.3zm-19.6-10.3v62.9l9.3 9.3h67.5v-15.5h-61.3v-50.5h61.3v-15.5h-67.5zm178.2 76.3h-23.7v-23.6h-42.3v23.6h-23.7v-78l11.7-11.7h66.4l11.7 11.7v78zm-85.6-76.3v72.2h15.5v-23.6h50.5v23.6h15.5v-72.2l-9.3-9.3h-62.9zm15.5 33.1v-26.9h50.5v26.9zm4.1-4.1h42.3v-18.7h-42.3zm857.6-22.2v53.1h53.1v-39.8h39.8v61.4l-18.2 18.3h-96.2l-18.3-18.3v-96.2l18.3-18.3h114.5v39.8zm-33.8-19v91.1l14.8 14.8h91.1l14.8-14.8v-52.7h-27.7v39.8h-65.3v-65.2h93v-27.7h-105.9zm271 60.5-11.9 11.9 11.9 39.6h-41.6l-10-33.2h-41.4v33.2h-39.9v-132.8h114.5l18.3 18.3v63zm-126.8 45.4h27.7v-33.2h52.1l10 33.2h28.8l-10.5-35.3 12.6-12.7v-57.8l-14.8-14.8h-105.9zm27.7-60.9v-32h65.3v32zm6.1-6.1h53.1v-19.9h-53.1v20zm237.1 73.1h-39.8v-33.2h-53.1v33.2h-39.9v-114.5l18.3-18.3h96.2l18.3 18.3zm-126.7-111.9v105.8h27.7v-33.2h65.3v33.2h27.7v-105.8l-14.8-14.8h-91.1zm27.7 45v-32.1h65.3v32h-65.3zm6.1-6.1h53.1v-20h-53.1zm197.6 73-53.4-67.9v67.9h-39.9v-132.8h39.6l53.4 67.9v-67.9h39.8v132.8zm5.8-47.3-62.4-79.4h-30.6v120.6h27.7v-79.4l62.4 79.4h30.5v-120.6h-27.7v79.4zm177.9 29-18.3 18.3h-114.5v-132.8h114.5l18.3 18.3zm-126.7 12.2h105.8l14.8-14.8v-91l-14.8-14.8h-105.8zm27.7-27.7v-65.2h65.3v65.3h-65.3zm6.1-6.1h53.1v-53.1h-53.2v53.1zm144.1-53.1v6.6h86.3v39.8h-86.3v6.6h86.3v40h-126.1v-132.8h126.2v39.8h-86.3zm-33.8 86.9h114v-27.7h-86.3v-18.7h86.3v-27.7h-86.3v-18.8h86.3v-27.7h-114zm-503.5 127.9-10.3 10.3h-71.8v-82h71.7l10.3 10.3v61.4zm-74.5 2.8h61.1l5.9-5.9v-55.2l-5.9-5.9h-61.2v67zm5.2-5.2v-56.6h56.6v56.6zm7.5-7.5h41.6v-41.6h-41.6zm89-41.6v10.7h57.4v20.2h-57.4v10.7h57.4v20.2h-77.6v-82h77.6v20.2zm-12.7 54.3h62.6v-5.2h-57.4v-25.6h57.4v-5.2h-57.4v-25.8h57.4v-5.2h-62.6zm97.4-54.3v10.7h57.4v20.2h-57.4v30.9h-20.2v-82h77.6v20.2zm-12.7 54.3h5.2v-30.8h57.4v-5.2h-57.4v-25.8h57.4v-5.2h-62.6zm77.2 7.6v-82h20.2v82zm7.5-7.5h5.2v-67h-5.2zm80.1 7.5-40.2-51.2v51.2h-20.2v-82h21.6l40.2 51.2v-51.3h20.2v82h-21.6zm8.9-9.2-51.3-65.3h-10.5v67h5.2v-65.4l51.3 65.3h10.5v-67h-5.2zm19.8 9.2v-82h20.2v82zm7.5-7.5h5.2v-67h-5.2zm68.7-54.4v61.8h-20.2v-61.8h-28.8v-20.2h77.6v20.2zm-41.4-7.5h28.7v61.8h5.2v-61.8h28.7v-5.2h-62.7v5.2zm97.3 7.5v10.7h57.4v20.2h-57.4v10.7h57.4v20.2h-77.6v-82h77.6v20.2zm-12.7 54.4h62.6v-5.2h-57.4v-25.7h57.4v-5.2h-57.4v-25.8h57.4v-5.2h-62.6v67zm-494.2-307.6v-85.3h22.5v85.2h-22.5zm91.7 0-39.3-50v50h-22.5v-85.3h23.4l39.3 50v-50h22.5v85.2h-23.4zm82.4-62.7v62.7h-22.6v-62.7h-29.1v-22.6h80.8v22.5h-29.1zm58.9 0v8.8h58.2v22.5h-58.2v8.8h58.2v22.5h-80.7v-85.2h80.7v22.5h-58.2zm127.3 62.7-39.3-50v50h-22.5v-85.3h23.4l39.3 50v-50h22.5v85.2h-23.4zm53.3-62.7v8.8h51.6l11.1 11.1v31.7l-11.1 11.1h-74.1v-22.5h62.7v-8.8h-51.6l-11.1-11.1v-31.8l11.1-11.1h74.2v22.5h-62.8zm92.6 0v8.8h58.2v22.5h-58.2v8.8h58.2v22.5h-80.8v-85.2h80.7v22.5h-58.1z"/><path d="m3287.7 451.4v9.5h71.6l16.4 16.4v45.8l-16.4 16.4h-106.2v-34.7h88v-9.4h-71.7l-16.3-16.4v-45.8l16.4-16.4h106.2v34.6zm221.1 40.2-16.4 16.4h-71.6v31.4h-34.6v-122.6h106.2l16.4 16.4zm-88-18.2h53.4v-22h-53.4zm133.1-22v9.5h81.7v34.6h-81.7v9.4h81.7v34.6h-116.3v-122.7h116.3v34.6zm214.8 88h-34.6v-31.4h-53.4v31.4h-34.6v-106.2l16.4-16.4h89.8l16.5 16.4v106.2zm-88-66h53.4v-22h-53.4zm209.5 4.7 11.6 11.7v49.6h-34.5v-35.3l-8.8-8.7h-44.7v44h-34.6v-122.6h34.6v44.1h44.7l8.8-8.8v-35.3h34.6v49.6zm22.1 17.3v-78.6h34.6v78.6zm0 44.1v-34.7h34.6v34.6h-34.6zm-581.4-162.3h-22v-20h-33.9v20h-22v-67.5l10.4-10.4h57l10.5 10.4v67.4zm-70.7-64.5v57.3h7.7v-20h48.1v20h7.7v-57.3l-6.3-6.2h-51zm7.7 29.7v-28.2h48.1v28.2zm7.1-7.1h33.9v-14h-33.9zm129.9 41.9h-57l-10.4-10.4v-67.5h22v55.9h33.9v-55.9h22v67.4zm-4.4-14.8h-48.1v-56h-7.7v57.4l6.2 6.2h51.1l6.3-6.2v-57.4h-7.7v55.9zm99.4 4.4-10.4 10.4h-67.5v-77.9h67.4l10.4 10.4v57zm-70.7 3.2h57.4l6.2-6.2v-51.1l-6.2-6.2h-57.4zm7.7-7.7v-48.1h48.1v48.1zm7.1-7.1h33.9v-33.9h-33.9zm140.4 22h-22v-20h-33.9v20h-22v-67.5l10.4-10.4h57l10.5 10.4v67.4zm-70.7-64.5v57.3h7.7v-20h48.1v20h7.7v-57.3l-6.3-6.2h-51zm7.7 29.7v-28.2h48.1v28.2zm7.1-7.1h33.9v-14h-33.9zm84.5-14v33.9h51.9v22h-63.5l-10.4-10.4v-57l10.4-10.4h63.4v22h-51.8zm-14.8-8.6v51.1l6.2 6.2h53.4v-7.7h-51.9v-48.1h51.9v-7.7h-53.4zm73.3 64.5v-77.9h22v77.8h-22zm7.1-7.1h7.7v-63.7h-7.7v63.6zm99.4-3.3-10.4 10.4h-57l-10.4-10.4v-57l10.4-10.4h57l10.4 10.3v57zm-70.7-54.1v51.1l6.2 6.2h51.1l6.2-6.2v-51.1l-6.2-6.2h-51.1zm7.7 49.6v-48.1h48.1v48.1zm7.1-7.1h33.9v-33.9h-33.9zm129.9 22h-57l-10.4-10.4v-67.5h22v55.9h33.9v-55.9h22v67.4zm-4.4-14.8h-48.1v-56h-7.7v57.4l6.2 6.2h51.1l6.3-6.2v-57.4h-7.7v55.9zm43.5-41.1v6h45.5l10.4 10.4v29.1l-10.4 10.4h-67.5v-22h55.9v-5.9h-45.5l-10.4-10.5v-29.1l10.4-10.4h67.4v22h-55.9zm-14.8-8.6v23.2l6.2 6.3h49.6v20.2h-55.9v7.6h57.4l6.2-6.2v-23.2l-6.2-6.2h-49.6v-20.2h55.9v-7.7h-57.4zm-544.1-63.9-10.9 10.9h-57.3l-10.9-10.9v-57.3l10.9-10.9h57.3l10.9 10.9zm-75.5-55.8v54.2l8.8 8.8h54.2l8.8-8.8v-54.2l-8.8-8.8h-54.2zm16.5 46.6v-38.9h38.8v38.9zm3.6-3.6h31.6v-31.7h-31.6v31.6zm141.3-7-10.9 10.9h-44.5v19.8h-23.8v-79.1h68.2l10.9 10.9v37.5zm-75.5 27h16.5v-19.7h46.6l8.8-8.8v-34.5l-8.8-8.8h-63.1zm16.5-36.3v-19h38.9v19.1h-38.9zm3.6-3.6h31.6v-11.8h-31.6v11.9zm111.6-11.8v55.4h-23.8v-55.4h-25.7v-23.7h75.2v23.7zm-45.8-3.6h25.7v55.3h16.5v-55.3h25.7v-16.5h-67.9zm78.3 59v-79.1h23.7v79.1zm3.6-3.6h16.5v-71.9h-16.5v71.8zm102 3.6v-30l-15.5 30h-20.4l-15.5-30v30h-23.7v-79.1h25l24.4 47.2 24.4-47.2h25v79.1zm-25.7-24.1-26.6-51.4h-19.2v71.8h16.5v-41.2l21.4 41.2h15.9l21.3-41.2v41.2h16.5v-71.8h-19.2zm56.2 24.1v-79.1h23.7v79.1zm3.6-3.6h16.5v-71.9h-16.4v71.8zm50.7-51.8v4h44.5l10.9 10.9v29.6l-10.9 10.9h-68.2v-23.8h55.4v-4h-44.5l-10.9-10.9v-29.5l10.9-10.9h68.2v23.7zm-20.1-11.3v26.6l8.8 8.8h46.6v11.2h-55.4v16.4h63.1l8.8-8.8v-26.5l-8.8-8.8h-46.6v-11.2h55.4v-16.5h-63.1zm131.7 11.3v55.4h-23.7v-55.4h-25.8v-23.7h75.2v23.7zm-45.8-3.6h25.7v55.3h16.5v-55.3h25.7v-16.5h-67.9zm78.3 59v-79.1h23.7v79.1zm3.6-3.6h16.5v-71.9h-16.5v71.8zm50.6-51.8v31.6h51.4v23.7h-64.2l-10.9-10.9v-57.2l10.9-10.9h64.2v23.7zm-20.1-11.3v54.2l8.8 8.8h59.1v-16.4h-51.4v-38.9h51.4v-16.5h-59.1z"/><path d="m4649.8 272.7v-96.5h22.1v96.5zm102.4 0-50-63.7v63.7h-22.1v-96.5h24.3l50.1 63.7v-63.7h22.1v96.5zm129.2-11.8-11.8 11.8h-84.7v-96.5h84.7l11.8 11.8zm-74.4-10.3h52.4v-52.4h-52.5v52.4zm167.3 22.1h-72.9l-11.8-11.8v-84.7h22.1v74.4h52.4v-74.4h22.1v84.7zm42.2-74.5v15.2h62.6l11.8 11.8v35.7l-11.8 11.8h-84.7v-22.1h74.4v-15.1h-62.6l-11.8-11.8v-35.7l11.8-11.8h84.7v22.1h-74.4zm139.3 0v74.4h-22.1v-74.4h-34.5v-22h91.2v22.1h-34.6zm139.3 36.1-8.8 8.9 8.8 29.5h-23l-8-26.6h-43.4v26.6h-22.1v-96.5h84.7l11.8 11.8zm-74.4-10.3h52.4v-25.8h-52.4zm82.7 48.7v-96.5h22.1v96.5zm126.8 0h-22.1v-26.6h-52.4v26.6h-22.1v-84.7l11.8-11.8h72.9l11.8 11.8v84.7zm-74.4-48.7h52.4v-25.8h-52.4zm-599.9 277.6-12.9 13h-69v29.3h-24.2v-106.3h93.2l12.9 13zm-96.4 32.5h4.9v-29.3h74.6l7.2-7.3v-42.9l-7.2-7.3h-79.5zm4.9-34.1v-47.8h77v47.8zm9.7-9.7h57.6v-28.4h-57.6zm197.1 11.3-9.7 9.8 9.7 32.5h-25.3l-8.8-29.3h-47.8v29.3h-24.3v-106.3h93.2l13 13zm-96.5 32.5h4.9v-29.3h64.7l8.8 29.3h5.1l-7.6-25.5 10.9-11.1v-42.9l-7.3-7.3h-79.5zm4.9-34.1v-47.8h77.1v47.8zm9.7-9.7h57.7v-28.4h-57.7zm197.2 40.5-13 13h-80.2l-13-13v-80.2l13-13h80.3l13 13v80.3zm-96.5-76.2v72.2l7.3 7.3h72.2l7.3-7.3v-72.2l-7.3-7.3h-72.2zm4.9 74.6v-77h77.1v77.1h-77.1zm9.7-9.7h57.7v-57.6h-57.7v57.7zm184.3 24.3h-80.3l-13-13v-46.4h24.3v35.1h57.7v-57.6h-35.2v-24.3h59.4v93.2zm-36.7-91.6h35.1v77.1h-77.1v-35.2h-4.9v32.7l7.3 7.3h72.2l7.3-7.3v-79.5h-40v4.9zm83 9.7v16.7h76.1v24.3h-76.1v16.7h76.1v24.3h-100.4v-106.3h100.4v24.3zm-14.6 72.2h80.9v-4.9h-76v-36.1h76.1v-4.9h-76.1v-36h76.1v-4.9h-81zm124.1-72.2v57.7h76.1v24.3h-87.4l-13-13v-80.3l13-13h87.4v24.3zm-14.6-7.3v72.2l7.3 7.3h73.6v-4.9h-76.1v-77h76.1v-4.9h-73.6zm162 7.3v81.9h-24.3v-81.9h-38v-24.3h100.4v24.3zm-52.6-9.7h38v81.9h4.9v-81.9h38.1v-4.9h-80.9v4.9zm-539.2-72.8-8.2 8.2h-56.7v-64.9h56.8l8.2 8.2v48.6zm-62 5.2h52.5l6.4-6.4v-46.1l-6.4-6.4h-52.4v59zm10.1-10.1v-38.8h38.9v38.9h-38.9zm3-3h32.9v-32.8h-32.9v32.9zm54.5 16.1v-64.9h16v64.9zm3-3h10.1v-59h-10.1zm34.6-45.9v8.5h40.8l8.2 8.2v24.1l-8.2 8.2h-56.8v-16h48.9v-8.4h-40.8l-8.2-8.2v-24.3l8.2-8.2h56.8v16h-48.9zm-13-6.6v21.7l6.4 6.4h42.5v14.4h-49v10.1h52.6l6.4-6.4v-21.7l-6.4-6.4h-42.5v-14.5h48.9v-10.1h-52.5zm106.2 6.6v48.9h-16v-48.9h-22.7v-16h61.5v16zm-35.8-3h22.7v48.9h10.1v-48.9h22.7v-10.1h-55.5zm129 26.3-5.9 5.9 5.9 19.8h-16.7l-5.2-17.6h-27v17.5h-16v-64.9h56.8l8.2 8.2v31.1zm-62 22.7h10.1v-17.5h32.2l5.2 17.5h10.5l-5.3-17.7 6.3-6.3v-28.6l-6.4-6.4h-52.6zm10.1-27.6v-21.4h38.9v21.4zm3-3h32.9v-15.4h-32.9zm54.5 33.5v-64.9h16v64.9zm3-3h10.1v-59h-10.2v59zm34.5-45.9v32.9h45.5v16h-53.3l-8.2-8.2v-48.6l8.2-8.2h53.3v16h-45.5zm-13-6.6v46.1l6.4 6.4h49.1v-10h-45.4v-38.9h45.5v-10.1h-49.1zm102.8 6.6v48.9h-16v-48.9h-22.7v-16h61.5v16zm-35.8-3h22.7v48.9h10.1v-48.9h22.7v-10.1h-55.5zm80.1 3v8.5h33.8l8.2 8.2v24.1l-8.2 8.2h-49.8v-16h42v-8.4h-42v-40.6h58v16zm-10.1 18.5h42v20.3h-42v4.1h41.4l4.7-4.7v-19.1l-4.7-4.7h-37.3v-20.4h42v-4.1h-46.1zm84.1 30.4h-16v-48.9h-10.5v-16h18.3l8.2 8.2v56.8zm-20.5-54.9h10.4v48.9h4.1v-48.3l-4.7-4.7h-9.9v4.1zm42.1 6v8.5h33.8l8.2 8.2v24.1l-8.2 8.2h-41.7l-8.2-8.2v-48.7l8.2-8.2h49.8v16h-41.9zm-10.1-5.4v43.7l4.7 4.7h36.7l4.7-4.7v-19.2l-4.7-4.7h-37.3v-20.4h41.9v-4.1h-41.3zm4.1 44.2v-20.3h37.8v20.3zm5.9-5.9h25.9v-8.4h-25.8v8.4z"/><path d="m6207.5 272-2 14h57.8l9.3 10.9-4.6 32.9-12.4 10.9h-78.1l2.9-20.3h68.6l2-14h-57.8l-9.3-10.9 4.6-32.9 12.4-10.9h78.1l-2.8 20.3zm66.6 68.7 12.5-89h20.4l-12.5 89zm110-20.4-2.9 20.3h-79.1l12.5-89h20.3l-9.7 68.6h58.9zm4.8 20.4 12.5-89h20.3l-12.5 89zm58-68.7-6.8 48.3h63.7l-2.9 20.3h-73.2l-9.3-10.9 9.5-67.2 12.4-10.9h73.2l-2.9 20.4zm152.2 57.8-12.4 10.9h-67.3l-9.3-10.9 9.5-67.2 12.4-10.9h67.2l9.3 10.9zm-67.3-9.5h48.3l6.8-48.3h-48.3zm139.8 20.4-37.9-58.8-8.3 58.8h-20.2l12.5-89h22.4l37.9 58.8 8.3-58.8h20.3l-12.5 89zm60.2-68.7-2 14h63.7l-2.9 20.3h-63.7l-2 14h63.7l-2.9 20.3h-83.9l12.5-89h84.1l-2.9 20.3h-63.7zm-474.4 183.1-15 13.2h-69.4l-11.4-13.2 9.7-69.3 15-13.2h69.3l11.4 13.2zm-64.8-15.5h38.3l5.3-38.3h-38.3zm172.1-8.4-9.8 8.5 4.6 28.6h-30l-3.8-23.9h-29.9l-3.4 23.9h-28.7l13.4-95.7h82.5l11.4 13.1zm-64.8-15.5h38.3l2-14.4h-38.4zm67.8 52.6 13.4-95.7h28.7l-13.4 95.7zm75-67-5.3 38.3h38.3l4-28.7h28.7l-6.2 44.2-15 13.2h-69.4l-11.4-13.2 9.7-69.3 15-13.2h82.5l-4 28.7h-67zm161.6 67h-28.7l3.4-23.9h-38.4l-3.4 23.9h-28.7l11.6-82.5 15.1-13.2h69.3l11.3 13.2zm-59.6-52.7h38.3l2.1-14.4h-38.4zm158.7 52.7 5.1-36.3-23.9 36.3h-24.6l-13.7-36.3-5.1 36.3h-28.7l13.4-95.7h30.3l21.5 57.1 37.5-57.1h30.3l-13.4 95.7zm36.9 0 13.4-95.7h28.7l-13.4 95.7z"/><path d="m7478.8 391.4v51.1h78.2v33.1h-95.7l-15.7-15.7v-86l15.7-15.7h95.6v33.1h-78.1zm-27.8-15.2v81.4l12.6 12.6h88v-22.4h-78.2v-61.8h78.2v-22.4h-88zm200.2 99.4v-42.1h-51.1v42.1h-33.1v-117.3h33.1v42.1h51.1v-42.1h33.1v117.3zm5.4-69.8h-61.9v-42.2h-22.4v106.6h22.4v-42.1h61.8v42.1h22.4v-106.6h-22.3v42.1zm155.1 69.8h-33.1v-30.1h-51.2v30.1h-33.1v-101.7l15.7-15.6h85.9l15.8 15.7zm-112-99.4v94h22.4v-30.1h61.8v30.1h22.4v-94l-12.6-12.6h-81.4zm22.4 41.6v-31.8h61.8v31.8zm5.4-5.4h51.1v-21h-51.2v21zm208.5 63.2v-50.3l-26.1 50.3h-29.1l-26-50.3v50.3h-33.1v-117.3h35.6l38 73.5 38.1-73.5h35.6v117.3zm-40.6-32.2-41.3-79.8h-27v106.6h22.4v-67l34.6 67h22.6l34.7-67v67h22.4v-106.6h-27zm201.1-13.6-15.7 15.7h-68.5v30.1h-33.1v-117.3h101.6l15.7 15.7v55.9zm-112 40.4h22.4v-30.1h71.6l12.6-12.6v-51.3l-12.6-12.6h-94zm22.4-52.5v-31.7h61.8v31.8h-61.8zm5.4-5.4h51.1v-21h-51.1zm94.2 63.3v-117.3h33.1v117.3zm5.4-5.4h22.4v-106.6h-22.4zm155.1-10.3-15.7 15.7h-86l-15.7-15.7v-86l15.7-15.7h86l15.7 15.7zm-112-83.7v81.4l12.6 12.6h81.4l12.6-12.6v-81.4l-12.6-12.6h-81.4zm22.4 71.6v-61.8h61.8v61.8zm5.4-5.4h51.099v-51h-51.099v51.1zm177.9 33.2-50.6-64.4v64.4h-33.1v-117.3h33.6l50.6 64.4v-64.4h33.1v117.3zm5.9-37.4-58.6-74.6h-25.601v106.6h22.401v-74.5l58.599 74.5h25.601v-106.6h-22.4zm-758.1-118.2h-54.8l-10.4-10.4v-65.2h22.7v52.9h30.2v-52.9h22.7v65.1zm-8.8-19.2h-37.2v-52.9h-15.7v60.2l8.4 8.4h51.8l8.4-8.4v-60.2h-15.7zm78.7 19.2-30.4-38.7v38.7h-22.6v-75.6h22.5l30.4 38.6v-38.6h22.7v75.6zm3.3-26.9-35.5-45.2h-17.4v68.6h15.8v-45.1l35.5 45.2h17.4v-68.7h-15.8zm101.2 16.5-10.4 10.4h-65.1v-75.6h65.1l10.4 10.4v54.7zm-72.1 7h60.2l8.4-8.4v-51.9l-8.4-8.4h-60.2v68.6zm15.8-15.8v-37.2h37.1v37.1h-37.1zm3.5-3.5h30.2v-30.2h-30.3v30.2zm59.3 22.7v-75.6h22.7v75.6zm3.5-3.5h15.8v-68.6h-15.8zm48.3-49.4v3.8h42.5l10.4 10.4v28.3l-10.4 10.4h-65.2v-22.7h52.9v-3.8h-42.4l-10.4-10.4v-28.2l10.4-10.5h65.1v22.7zm-19.2-10.8v25.4l8.4 8.4h44.5v10.7h-52.9v15.8h60.2l8.4-8.4v-25.4l-8.4-8.4h-44.4v-10.8h52.9v-15.7h-60.3zm154.1 34.4-10.4 10.4h-42.5v18.9h-22.6v-75.6h65.1l10.4 10.4v35.8zm-72.1 25.8h15.8v-18.9h44.5l8.4-8.4v-32.9l-8.4-8.4h-60.3zm15.8-34.6v-18.3h37.1v18.2h-37.1zm3.5-3.5h30.2v-11.3h-30.3v11.3zm124.4 41.6h-54.7l-10.4-10.4v-65.2h22.7v52.9h30.2v-52.9h22.7v65.1zm-8.8-19.2h-37.1v-52.9h-15.7v60.2l8.4 8.4h51.8l8.4-8.4v-60.2h-15.8zm72.9-33.7v52.9h-22.6v-52.9h-24.6v-22.7h71.8v22.7zm-43.8-3.5h24.6v52.9h15.8v-52.9h24.6v-15.7h-64.9v15.8zm97.5 3.5v3.8h49.1v22.7h-49.1v3.8h49.1v22.6h-71.7v-75.6h71.8v22.7zm-19.2 49.4h64.9v-15.7h-49.1v-10.7h49.1v-15.8h-49.1v-10.7h49.1v-15.7h-64.9zm150.4-6.9-10.4 10.4h-65.1v-75.6h65.1l10.4 10.4v54.7zm-72.1 7h60.2l8.4-8.4v-51.9l-8.4-8.4h-60.2v68.6zm15.799-15.8v-37.2h37.101v37.1h-37.101zm3.5-3.5h30.101v-30.2h-30.2v30.2z"/><path d="m9202.6 471.5-15.6 15.6h-108.5v-124.2h108.5l15.6 15.6v92.9zm-112.8 4.3h92.5l9-9v-83.6l-9-9h-92.5v101.5zm7.899-7.9v-85.7h85.7v85.7zm11.401-11.4h63v-63h-63zm104.099 30.6v-124.2h30.601v124.2zm11.401-11.4h7.9v-101.4h-7.9zm121.299 11.4-60.799-77.4v77.4h-30.6v-124.2h32.699l60.801 77.4v-77.4h30.6v124.2zm13.5-13.9-77.7-98.9h-15.899v101.4h7.899v-98.8l77.7 98.9h15.901v-101.5h-7.901zm60.5-79.7v16.2h86.901v30.6h-86.901v16.1h86.901v30.6h-117.5v-124.1h117.5v30.6zm-19.2 82.2h94.801v-7.9h-87v-38.8h86.899v-7.9h-86.899v-38.9h86.899v-7.9h-94.799v101.4zm240.801-37.7-11.4 11.3 11.4 37.8h-31.9l-10-33.4h-51.6v33.4h-30.601v-124.2h108.5l15.601 15.6zm-112.801 37.7h7.901v-33.4h71.4l10 33.4h8.199l-9-29.7 12.901-12.7v-50.1l-9-9h-92.401zm7.901-41.3v-52.2h85.7v52.2zm11.4-11.3h63v-29.6h-63v29.5zm-445.5-166.2v12.7h61.1l12.2 12.2v36.2l-12.2 12.2h-85.1v-24h73.399v-12.5h-61.2l-12.199-12.3v-36.2l12.199-12.2h85.101v24h-73.3zm-15.101-8.1v28.8l7 7.1h66.401v30.5h-73.401v6.2h72.601l7-7v-28.8l-7-7h-66.4v-30.6h73.4v-6.2h-72.601zm96.8 81.5v-97.4h24v97.4zm8.901-8.9h6.2v-79.6h-6.2zm123 8.9v-51.3l-26.6 51.3h-22.4l-26.6-51.3v51.3h-24v-97.4h27.1l34.599 66.9 34.601-66.9h27.2v97.4h-24zm-37.8-11.1-40.101-77.4h-12.8v79.6h6.201v-79l40.9 79h11.6l40.9-79v79h6.199v-79.6h-12.8zm167.5-27.4-12.2 12.2h-61.1v26.2h-24v-97.3h85.1l12.2 12.2zm-88.401 29.6h6.201v-26.2h66.299l7-7v-39.3l-7-7h-72.5v79.6zm6.201-32.4v-41h67.099v41zm8.9-8.9h49.3v-23.2h-49.3zm168.5 26.2v24h-86.9v-97.4h24v73.4zm-78 15.1h69.1v-6.2h-62.901v-73.4h-6.199zm110.399-64.5v12.7h68.201v24h-68.201v12.7h68.201v24h-92.201v-97.4h92.201v24zm-15.099 64.5h74.399v-6.2h-68.199v-30.5h68.199v-6.2h-68.199v-30.5h68.199v-6.2h-74.399z"/><path d="m10464.9 166v17.7h-12.299v6.9h12.299v17.7h-12.299v12.3h-17.701v-12.3h-6.9v12.3h-17.699v-12.3h-12.2v-17.7h12.299v-6.9h-12.299v-17.7h12.299v-12.3h17.6v12.3h6.9v-12.3h17.701v12.3zm-26.9 3.1h-13v-12.3h-11.6v12.3h-12.299v11.6h12.299v13h-12.299v11.6h12.299v12.3h11.6v-12.4h13v12.3h11.601v-12.3h12.299v-11.5h-12.299v-13h12.299v-11.6h-12.299v-12.3h-11.601zm-13 24.6v-13h13v13zm3.101-3.1h6.899v-6.9h-7v6.9zm109.5 3.7-8.601 8.7h-40.6v17.6h-17.7v-66.9h58.2l8.6 8.7v31.9zm-49.201-9h31.5v-14h-31.5zm121.8 26.6-8.7 8.7h-49.5l-8.699-8.7v-49.5l8.699-8.7h49.5l8.7 8.7zm-49.2-9h31.5v-31.5h-31.5zm72.601-31.5v6.9h40.5l8.7 8.7v24.9l-8.7 8.7h-58.201v-17.7h49.201v-6.9h-40.5l-8.701-8.7v-24.9l8.701-8.7h58.2v17.7zm55 49.2v-66.9h17.7v66.9zm63.899-49.2v49.2h-17.699v-49.2h-22.801v-17.7h63.301v17.7zm28.601 49.2v-66.9h17.7v66.9zm50.799 0-27.5-66.9h19.1l16.9 41.2 16.901-41.2h19.099l-27.4 66.9zm68-49.2v6.9h45.701v17.7h-45.701v6.9h45.701v17.7h-63.3v-66.9h63.3v17.7zm-360 115.5-6.599 46.8h-20.101l6.601-46.8h-21.7l2.799-20.1h63.5l-2.799 20.1zm-38.299-3.1h21.7l-6.601 46.8h13.901l6.599-46.8h21.7l2-14h-57.299zm127.299 40.7-10.5 9.2h-48.4l-7.899-9.2 6.799-48.4 10.5-9.2h48.401l7.899 9.2zm-57.2-46.9-6.399 46 6.099 7.1h45.901l8.8-7.7 6.5-46-6.101-7.1h-46zm8.401 39.1 4.599-32.9h33l-4.599 32.9zm3.5-3.1h26.799l3.701-26.8h-26.701zm112.799.1-2.799 20.1h-60.201l9.401-66.9h20.099l-6.5 46.8h40.1zm-59.5 17h54l2-14h-40.2l6.5-46.8h-13.8zm89-43.8-.4 3.3h43.5l-2.899 20.1h-43.5l-.401 3.3h43.5l-2.8 20.1h-63.599l9.399-66.9h63.5l-2.8 20.1zm-23.099 43.8h57.3l2-14h-43.401l1.2-9.5h43.5l2-14h-43.4l1.2-9.5h43.5l2-14h-57.399zm136.3-22.9-6.8 6 3.199 20h-21l-2.6-16.8h-20.9l-2.3 16.7h-20.099l9.399-66.9h57.7l7.901 9.2zm-67 22.9h13.899l2.301-16.7h26.199l2.7 16.7h14.7l-2.9-18.1 7.301-6.3 4.099-29.2-6.099-7.1h-53.7zm18.2-30.7 2.199-16.1h32.9l-2.2 16.1zm3.5-3.1h26.8l1.399-10h-26.8zm114.3 36.8h-20.101l2.301-16.7h-26.7l-2.3 16.7h-20.101l8.101-57.7 10.599-9.2h48.401l7.899 9.2zm-55.901-56.1-7.399 53h13.899l2.3-16.7h33l-2.3 16.7h13.901l7.399-53.6-6.1-7.1h-45.9zm10.7 22.4 2.3-16.1h33l-2.3 16.1zm3.5-3.1h26.8l1.401-10h-26.701zm94.401 36.8-22.101-34.2-4.8 34.2h-20.099l9.399-66.9h19.901l22.099 34.2 4.8-34.2h20.101l-9.401 66.9zm6.399-24.1-25.7-39.7h-15.6l-8.5 60.8h13.901l5.5-39.7 25.699 39.7h15.601l8.5-60.8h-13.901zm45.901-22.7-3.701 26.8h43.5l-2.9 20h-54.3l-7.899-9.2 6.8-48.4 10.5-9.2h54.299l-2.799 20.1h-43.5zm-15.601-9.6-6.5 45.9 6.4 7.5h50l2-14h-43.5l4.6-32.9h43.5l2-14h-50zm84.9 9.6-.4 3.3h43.5l-2.899 20.1h-43.5l-.401 3.3h43.5l-2.8 20.1h-63.7l9.401-66.9h63.5l-2.8 20.1h-43.5zm-23.099 43.8h57.3l2-14h-43.5l1.2-9.5h43.5l2-14h-43.401l1.201-9.5h43.5l2-14h-57.3zm-336.901 187.6-4.099 29.1h44.599l-2.7 18.9h-54.5l-7.599-8.9 6.899-49 10.2-8.9h54.5l-2.7 18.8zm-11.7-7.4-6.2 44 4.601 5.4h45.899l1-6.6h-44.699l5.8-41.4h44.599l1-6.6h-45.899zm123.401 46.5-10.201 8.9h-49l-7.599-8.9 6.899-49 10.2-8.9h49l7.701 8.9zm-54.3-45.9-6.2 44 4 4.7h43.899l6.801-5.9 6.199-44-4.1-4.7h-43.9zm.599 42.1 5.8-41.4h41.5l-5.8 41.4zm7-6.1h29.1l4.101-29.1h-29.101zm109.1 18.8h-49l-7.699-8.9 8.099-58h18.901l-6.7 48h29.099l6.7-48h18.901l-8.101 58zm-2-12.8h-41.399l6.7-48h-6.5l-7 49.9 4.099 4.7h43.901l6.8-5.9 6.799-48.7h-6.5zm87.301-13.3-6.901 6 3.201 20.1h-19.701l-2.799-17.2h-23.101l-2.399 17.2h-18.901l9.401-66.9h58l7.599 8.9zm-63.5 20h6.5l2.399-17.2h33.7l2.8 17.2h7.3l-2.6-16.3 7.701-6.7 3.7-26.9-4-4.7h-49.901zm9.899-23.8 3.401-24.2h41.399l-3.399 24.2h-41.5zm7-6.1h29.101l1.699-12h-29.199zm115.5 36h-18.899l2.399-17.2h-29.099l-2.401 17.2h-18.899l8.099-58 10.201-8.9h49l7.7 8.9zm-53-54.8-6.8 48.7h6.5l2.401-17.2h41.5l-2.401 17.2h6.5l7-49.9-4.099-4.7h-43.801zm3.101 24.9 3.399-24.2h41.5l-3.399 24.2h-41.601zm7-6.1h29.099l1.701-12h-29.201zm74.199-12-4 29.1h29.101l2.899-20.6h18.9l-4.299 30.5-10.201 8.9h-49l-7.599-8.9 6.899-49 10.2-8.9h58l-2.7 18.9h-48zm-11.699-6.8-6.2 44 4 4.7h43.899l6.801-5.9 3-21.3h-6.5l-2.901 20.6h-41.5l5.8-41.4h48l1-6.6h-48.7zm84.399 6.8-.7 5.2h44.601l-2.701 18.9h-44.599l-.7 5.1h44.599l-2.599 18.9h-63.401l9.401-66.9h63.399l-2.699 18.9h-44.601zm-18.599 41.9h51.099l.901-6.6h-44.601l2.4-17.3h44.6l1-6.6h-44.5l2.4-17.4h44.6l1-6.6h-51.1zm-467.5-121.5-8.201 8.2h-19.4v9.2h-15.3v-9.2h-19.5l-8.2-8.2v-50.5l8.2-8.2h54.2l8.201 8.2zm-55.3-7.1h40v-36.3h-40zm119.8 15.3h-50.601l-8.199-8.2v-58.7h15.3v51.6h36.399v-51.6h15.301v58.7zm29.2-51.6v10.5h47.899v15.3h-47.899v10.5h47.899v15.3h-63.2v-66.9h63.2v15.3zm68.899 0v10.5h43.401l8.2 8.2v24.7l-8.2 8.2h-58.701v-15.3h51.6v-10.5h-43.399l-8.201-8.2v-24.7l8.201-8.2h58.7v15.3zm96.601 0v51.6h-15.301v-51.6h-23.899v-15.3h63.2v15.3zm29.699 51.6v-66.9h15.301v66.9zm87.9-8.2-8.2 8.2h-50.5l-8.2-8.2v-50.5l8.2-8.2h50.5l8.2 8.2zm-51.599-7.1h36.3v-36.3h-36.3zm107.3 15.3-34.701-44.2v44.2h-15.2v-66.9h16.8l34.7 44.2v-44.2h15.3v66.9zm67.399-34-8.199 8.2h-25.5v-15.3h18.399v-10.5h-29.5v-15.3h36.601l8.199 8.2zm-41.699-20.7h29.5v16.6h-18.401v9.2h21.201l6.399-6.4v-22.1l-6.399-6.4h-32.201v9.2zm8 54.7v-15.3h15.3v15.3zm3.099-3.1h9.201v-9.2h-9.201z"/><path d="m12123.6 189.4-7.401 6.5 3.401 21.6h-16.901l-3.099-19.5h-31.701l-2.7 19.5h-16.199l9.899-70.6h61.901l7.399 8.6zm-53.401-7.5h38.301l2.699-18.9h-38.399zm79.2-18.9-1.599 11.1h50.599l-2.299 16.1h-50.5l-1.6 11.1h50.6l-2.3 16.1h-66.7l9.9-70.6h66.699l-2.199 16.2zm32-21.2-10.799-6.7-12.701 6.7-6-14 16.901-9h8.2l14.399 9zm45.901 75.6-19.101-70.6h17.401l13.099 48.4 26.7-48.4h17.401l-38.8 70.6zm75.5-54.4-1.601 11.1h50.601l-2.3 16.1h-50.601l-1.599 11.1h50.599l-2.299 16.1h-66.6l9.899-70.6h66.701l-2.3 16.2zm123.399 26.4-7.399 6.5 3.399 21.6h-16.8l-3.099-19.5h-31.8l-2.7 19.5h-16.101l9.901-70.6h61.9l7.399 8.6zm-53.399-7.5h38.3l2.7-18.9h-38.3zm-293.3 373.9 5.699 6.8-4 28.5h-19.8l2.8-20.3-4.3-5h-25.7l-3.5 25.3h-20l9.901-70.6h19.9l-3.5 25.4h25.699l5.7-5 2.901-20.3h19.899l-4 28.5zm79.699 25.9-10.8 9.4h-51.7l-8.099-9.4 7.299-51.7 10.701-9.4h51.7l8.099 9.4zm-49.199-10.5h30.699l4.301-30.7h-30.7zm5.8-55.7 2.3-16.1h16.099l-2.199 16.1zm18.599 0 2.3-16.1h16.101l-2.3 16.1h-16zm104 48.1-7.299 6.4 3.4 21.2h-20.801l-2.899-18.2h-24.401l-2.5 18.1h-20l9.901-70.6h61.2l8.1 9.4zm-49.2-10.5h30.7l1.8-12.7h-30.699zm125.801 10.5-10.801 9.4h-41.199l-2.5 18.1h-19.9l9.9-70.6h61.1l8.099 9.4zm-49.2-10.5h30.7l1.8-12.7h-30.7zm78.399-12.7-.8 5.4h47l-2.799 19.9h-47l-.8 5.4h47l-2.8 19.9h-66.801l9.901-70.6h66.9l-2.801 19.9h-47zm120.401 23.2-7.3 6.4 3.399 21.2h-20.8l-2.899-18.2h-24.4l-2.6 18.1h-19.9l9.9-70.6h61.1l8.099 9.4zm-49.201-10.5h30.701l1.799-12.7h-30.799zm-379.799-140.7v7.3h48.2v18.6h-48.2v7.3h48.2v18.6h-66.901v-70.4h66.8v18.6zm-12.201 45.5h53.901v-5.7h-48.2v-20.3h48.2v-5.7h-48.2v-20.2h48.2v-5.7h-53.901v57.7zm85.101-45.5v7.3h42.699l9.2 9.2v26.3l-9.2 9.2h-61.399v-18.7h51.899v-7.3h-42.699l-9.2-9.2v-26.2l9.2-9.2h61.399v18.6zm-12.2-6.8v20.9l5.399 5.4h46.5v20.2h-51.899v5.7h52.3l5.4-5.4v-20.8l-5.4-5.4h-46.6v-20.2h51.899v-5.7h-52.2zm140.7 31-9.101 9.2h-42.799v18.5h-18.701v-70.5h61.401l9.2 9.2v33.7zm-64.101 21.3h5.701v-18.6h46.599l5.301-5.4v-28.3l-5.301-5.4h-52.3zm5.701-24.3v-27.6h46.2v27.6zm6.5-6.5h33.299v-14.7h-33.299zm128.5 37.2h-18.701v-18.5h-33.2v18.5h-18.699v-61.3l9.199-9.2h52.2l9.201 9.2v61.4zm-64.1-58.7v52.3h5.699v-18.6h46.2v18.5h5.701v-52.2l-5.401-5.4h-46.8zm5.699 28v-27.6h46.2v27.6zm6.5-6.5h33.301v-14.7h-33.301zm76.601-14.7v33.3h48.2v18.6h-19v14.7l-6.7 6.7h-22.101v-16.1h12.7v-5.2h-22.599l-9.2-9.2v-52.2l9.2-9.2h57.7v18.6zm-12.2-6.8v46.9l5.4 5.4h26.3v18.1h-12.7v3.2h13l2.9-2.9v-18.4h19v-5.7h-48.2v-46.2h48.2v-5.7h-48.5zm137 49.6-9.201 9.2h-52.2l-9.199-9.2v-52.2l9.199-9.2h52.2l9.201 9.2zm-64.1-49.5v46.9l5.399 5.4h46.901l5.399-5.4v-47l-5.399-5.4h-47zm5.699 46.5v-46.2h46.2v46.2zm6.5-6.5h33.301v-33.3h-33.4v33.3zm-355.099-102.4v-26.7l-13.901 26.8h-18.099l-13.901-26.8v26.8h-21.199v-70.6h22.3l21.8 42.1 21.799-42.1h22.3v70.6h-21.099zm-22.901-21.5-23.8-45.8h-17.099v64.1h14.7v-36.8l19 36.8h14.199l19.101-36.8v36.8h14.7v-64.1h-17.101zm120.601 21.5h-21.101v-17.6h-28.3v17.6h-21.099v-60.8l9.7-9.7h51.1l9.7 9.7zm-67.3-59.5v56.2h14.699v-17.6h34.7v17.6h14.701v-56.2l-7.901-7.9h-48.3zm14.699 23.9v-17h34.7v17zm14.401-40-11.401-11.4 17.2-17.2 11.401 11.4zm-11.201 36.8h28.201v-10.6h-28.201zm11.201-41.4 12.7-12.7-6.8-6.8-12.7 12.7zm118.4 70.5-9.7 9.7h-16.8v8.8h-21.2v-8.8h-16.7l-9.701-9.7v-51.1l9.701-9.7h54.599l9.7 9.7v51.1zm-70.9-49.7v48.4l7.9 7.9h18.6v8.8h14.7v-8.8h18.599l7.901-7.9v-48.5l-7.901-7.9h-51.899zm14.7 41.5v-34.7h38.2v34.7zm3.2-3.2h31.8v-28.3h-31.8v28.2zm119.8 21.1h-51.101l-9.699-9.7v-60.8h21.199v49.4h28.2v-49.4h21.201v60.8zm-8.2-17.9h-34.701v-49.4h-14.7v56.2l7.901 7.9h48.4l7.899-7.9v-56.2h-14.799zm24 17.9v-70.5h21.2v70.6h-21.2zm3.2-3.2h14.7v-64.1h-14.7zm73.599 3.2-28.399-36.1v36.1h-21.2v-70.5h21l28.399 36.1v-36.1h21.2v70.6h-21zm3.101-25.2-33.2-42.1h-16.3v64.1h14.699v-42.2l33.2 42.2h16.201v-64.1h-14.701v42.2zm94.5 25.2h-21.2v-17.6h-28.2v17.6h-21.201v-60.8l9.701-9.7h51.099l9.7 9.7v60.8zm-67.301-59.5v56.2h14.7v-17.6h34.601v17.6h14.699v-56.2l-7.899-7.9h-48.3zm14.7 23.9v-17h34.601v17zm3.201-3.2h28.2v-10.6h-28.2z"/><path d="m13297.6 217.6v29.7h-8.8v-29.7h-13.7v-8.8h36.4v8.8zm-20.8-1.8h13.8v29.7h5.299v-29.7h13.8v-5.3h-32.899zm67.599 31.4v-14.8h-20.899v14.8h-8.801v-38.4h8.801v14.8h20.899v-14.8h8.8v38.5h-8.8zm1.8-21.9h-24.399v-14.8h-5.3v35h5.3v-14.9h24.399v14.8h5.301v-35h-5.301v14.8zm19.101-7.7v6h27.599v8.8h-27.599v6h27.599v8.8h-36.399v-38.4h36.399v8.8zm-7 27.9h32.899v-5.3h-27.599v-9.6h27.599v-5.3h-27.599v-9.6h27.599v-5.3h-32.899v35zm89.2 1.7v-22.1l-11.5 22.1h-8.5l-11.5-22.1v22.2h-8.801v-38.5h10.301l14.3 27.6 14.3-27.6h10.299v38.5h-8.799zm50.6 0h-8.8v-10.6h-20.901v10.6h-8.799v-33.7l4.7-4.7h29.099l4.701 4.7v33.8zm-29.701-19.4h20.901v-10.2h-20.901v10.3zm61.8 19.4-20-25.4v25.4h-8.8v-38.4h9.701l20 25.4v-25.4h8.799v38.5h-9.7zm46.801 0h-29.101l-4.7-4.7v-33.7h8.801v29.7h20.899v-29.7h8.8v33.8zm16.8-29.6v6h25l4.7 4.7v14.2l-4.7 4.7h-33.8v-8.8h29.699v-6h-25l-4.699-4.7v-14.2l4.699-4.7h33.801v8.8zm41.8 0v20.9h27.599v8.8h-31.699l-4.7-4.7v-29.1l4.7-4.7h31.699v8.8zm69.4 14.3-3.5 3.5 3.5 11.8h-9.2l-3.2-10.6h-17.3v10.6h-8.8v-38.4h33.8l4.7 4.7v18.5zm-29.7-4.1h20.899v-10.2h-20.899v10.3zm33 19.4v-38.4h8.8v38.5h-8.8zm50.599-15.3-4.7 4.7h-25v10.6h-8.8v-38.4h33.8l4.7 4.7v18.5zm-29.7-4.1h20.901v-10.2h-20.901v10.3zm55.601-10.2v29.7h-8.8v-29.7h-13.801v-8.8h36.401v8.8zm28.099 29.6v-38.4h8.8v38.5h-8.8zm3.5-3.5h1.8v-31.4h-1.8v31.5zm17.401-26.1v6h25l4.7 4.7v14.2l-4.7 4.7h-33.8v-8.8h29.699v-6h-25l-4.699-4.7v-14.2l4.699-4.7h33.801v8.8zm-5.3-2.6v11.3l2.6 2.6h27.099v13.1h-29.699v1.8h28.8l2.599-2.6v-11.4l-2.599-2.6h-27v-13.2h29.7v-1.8h-28.9zm-530.9 68.6v29.7h-8.8v-29.7h-13.7v-8.8h36.4v8.8zm55.599 14.3-3.5 3.5 3.5 11.8h-9.199l-3.2-10.6h-17.3v10.6h-8.801v-38.4h33.801l4.699 4.7v18.5zm-29.699-4.1h20.899v-10.2h-20.899v10.3zm71.5 19.4h-8.801v-10.6h-20.899v10.6h-8.8v-33.7l4.699-4.7h29.101l4.7 4.7v33.8zm-29.7-19.4h20.899v-10.2h-20.899v10.3zm61.8 19.4-20-25.4v25.4h-8.8v-38.4h9.7l20 25.4v-25.4h8.8v38.5h-9.7zm21.799-29.6v6h25l4.701 4.7v14.2l-4.701 4.7h-33.799v-8.8h29.7v-6h-25l-4.7-4.7v-14.2l4.7-4.7h33.8v8.8zm41.8 0v20.9h27.601v8.8h-31.7l-4.701-4.7v-29.1l4.701-4.7h31.7v8.8zm69.401 14.3-3.5 3.5 3.5 11.8h-9.201l-3.2-10.6h-17.3v10.6h-8.799v-38.4h33.799l4.701 4.7v18.5zm-29.701-4.1h20.901v-10.2h-20.901v10.3zm33 19.4v-38.4h8.8v38.5h-8.8zm50.601-4.7-4.7 4.7h-33.8v-38.4h33.8l4.7 4.7v29.1zm-29.7-18.9h20.899v-6h-20.899zm0 14.8h20.899v-6h-20.899zm41.8-20.8v6h27.599v8.8h-27.599v6h27.599v8.8h-36.399v-38.4h36.399v8.8zm69.4 24.9-4.7 4.7h-33.8v-38.4h33.8l4.7 4.7v29.1zm-29.7-4.1h20.899v-20.8h-20.899v20.9zm82.5 4.1-4.7 4.7h-29.1l-4.7-4.7v-29l4.7-4.7h29.1l4.7 4.7v29.1zm-36.7-28.3v27.6l3.7 3.7h27.599l3.701-3.7v-27.6l-3.701-3.7h-27.599zm5.299 26v-24.4h24.401v24.4h-24.5zm1.8-1.8h20.901v-20.8h-21v20.9zm61.7 8.8-20-25.4v25.4h-8.799v-38.4h9.7l20 25.4v-25.4h8.8v38.5h-9.701zm2.701-8-22.6-28.8h-7.101v35h5.3v-28.7l22.601 28.8h7.099v-35h-5.299v28.8zm32.9-21.6v29.7h-8.801v-29.7h-13.8v-8.8h36.401v8.8zm-20.801-1.8h13.801v29.7h5.3v-29.7h13.7v-5.3h-32.801zm76.401 26.7-4.701 4.7h-29.099l-4.7-4.7v-29l4.7-4.7h29.099l4.701 4.7v29.1zm-36.701-28.3v27.6l3.701 3.7h27.599l3.7-3.7v-27.6l-3.7-3.7h-27.699zm5.3 26v-24.4h24.401v24.4h-24.5zm1.801-1.8h20.899v-20.8h-21v20.9zm66.5-20.8v29.7h-8.801v-29.7h-13.8v-8.8h36.401v8.8zm46.8 29.6v-14.8h-20.901v14.8h-8.799v-38.4h8.799v14.8h20.901v-14.8h8.8v38.5h-8.8zm12.099 0v-38.4h8.8v38.5h-8.8zm40.8 0-20-25.4v25.4h-8.8v-38.4h9.701l20 25.4v-25.4h8.799v38.5h-9.7zm-724.3 36.4v6h25l4.701 4.7v14.2l-4.701 4.7h-33.799v-8.8h29.7v-6h-25l-4.7-4.7v-14.2l4.7-4.7h33.8v8.8zm-5.299-2.6v11.3l2.599 2.6h27.101v13.1h-29.7v1.8h28.799l2.601-2.6v-11.4l-2.601-2.6h-27.099v-13.2h29.7v-1.8h-28.801zm72.5 23.4v8.8h-34.201v-38.4h8.8v29.7h25.5zm-30.701 5.3h27.201v-1.7h-25.5v-29.7h-1.8v31.5zm34 3.5v-38.4h8.8v38.5h-8.8zm3.5-3.5h1.8v-31.4h-1.8v31.5zm17.401-26.1v20.9h20.899v-12.8h8.801v16.8l-4.7 4.7h-29.101l-4.699-4.7v-29l4.699-4.7h33.801v8.8zm-5.3-2.6v26.2l2.6 2.6h26.2l2.599-2.6v-12h-1.799v12.8h-27.8v-28h29.7v-1.8h-28.801zm68 32.2v-14.8h-20.9v14.8h-8.8v-38.4h8.8v14.8h20.9v-14.8h8.8v38.5h-8.8zm3.5-20.1h-27.9v-14.8h-1.8v31.5h1.8v-14.9h27.9v14.8h1.8v-31.4h-1.8zm31.199-9.5v29.7h-8.8v-29.7h-13.799v-8.8h36.4v8.8zm-19.099-3.6h13.799v29.7h1.8v-29.7h13.801v-1.8h-29.4zm70.5 24.4v8.8h-34.3v-38.4h8.8v29.7h25.5zm-30.701 5.3h27.201v-1.7h-25.5v-29.7h-1.8v31.5zm45 3.5h-8.799v-11l-16-27.4h10.2l10.2 17.4 10.199-17.5h10.2l-16 27.4zm-4.399-14-12.2-21h-2l13.399 22.9v8.5h1.801v-8.5l13.399-22.9h-2zm75.699 14-7.899-24.7-7.901 24.7h-9.299l-15.8-38.5h9.5l10.5 25.6 8.2-25.6h9.6l8.2 25.6 10.5-25.6h9.5l-15.8 38.5zm64.801 0h-8.801v-10.6h-20.899v10.6h-8.8v-33.7l4.699-4.7h29.101l4.7 4.7v33.8zm-29.7-19.4h20.899v-10.2h-20.899v10.3zm70.7 19.4h-10.801l-8.3-11.7-8.399 11.7h-10.801l13.801-19.2-13.7-19.2h10.7l8.399 11.7 8.3-11.7h10.801l-13.7 19.2zm12.1-29.6v6h27.599v8.8h-27.599v6h27.599v8.8h-36.399v-38.4h36.399v8.8zm69.4 24.9-4.7 4.7h-33.8v-38.4h33.8l4.7 4.7v29.1zm-29.7-4.1h20.899v-20.8h-20.899v20.9zm52.8-20.8v6h25l4.7 4.7v14.2l-4.7 4.7h-33.8v-8.8h29.7v-6h-25l-4.7-4.7v-14.2l4.7-4.7h33.8v8.8zm-7-3.4v12.8l3.7 3.7h26v9.6h-29.7v5.3h31.299l3.701-3.7v-12.9l-3.701-3.7h-26v-9.6h29.601v-5.3h-31.2zm69.7 33v-14.8h-20.901v14.8h-8.799v-38.4h8.799v14.8h20.901v-14.8h8.8v38.5h-8.8zm1.8-21.9h-24.5v-14.8h-5.3v35h5.3v-14.9h24.4v14.8h5.3v-35h-5.3v14.8zm19.099-7.7v6h27.601v8.8h-27.601v6h27.601v8.8h-36.401v-38.4h36.401v8.8zm-7 27.9h32.901v-5.3h-27.701v-9.6h27.601v-5.3h-27.601v-9.6h27.601v-5.3h-32.801v35zm46.7-27.9v6h27.601v8.8h-27.601v6h27.601v8.8h-36.4v-38.4h36.4v8.8zm-7 27.9h32.901v-5.3h-27.7v-9.6h27.599v-5.3h-27.599v-9.6h27.599v-5.3h-32.8v35zm60.5-27.9v29.7h-8.799v-29.7h-13.8v-8.8h36.399v8.8zm-20.799-1.8h13.799v29.7h5.3v-29.7h13.801v-5.3h-33v5.3zm46.7 1.8v6h25l4.7 4.7v14.2l-4.7 4.7h-33.8v-8.8h29.699v-6h-25l-4.699-4.7v-14.2l4.699-4.7h33.801v8.8zm-7-3.4v12.8l3.7 3.7h26v9.6h-29.7v5.3h31.2l3.699-3.7v-12.9l-3.699-3.7h-26v-9.6h29.699v-5.3h-31.3zm89.5 28.3-4.7 4.7h-29.1l-4.7-4.7v-29l4.7-4.7h29.1l4.7 4.7v29.1zm-29.7-4.1h20.9v-20.8h-20.9v20.9zm41.799-20.8v6h27.601v8.8h-27.601v14.8h-8.799v-38.4h36.4v8.8zm-803.899 80.3-4.7 4.7h-25v10.6h-8.8v-38.4h33.8l4.7 4.7v18.5zm-34.9 11.8h1.799v-10.6h27.101l2.6-2.6v-15.6l-2.6-2.6h-28.9v31.5zm1.799-12.4v-17.3h27.901v17.3h-28zm3.5-3.5h20.901v-10.2h-20.901v10.3zm71.401 19.4h-8.8v-10.6h-20.9v10.6h-8.8v-33.7l4.7-4.7h29.1l4.7 4.7v33.8zm-35-32.3v28.8h1.8v-10.6h27.9v10.6h1.8v-28.8l-2.601-2.6h-26.199zm1.8 16.4v-17.3h27.9v17.3zm3.5-3.5h20.9v-10.2h-20.9v10.3zm71.5 4.1-4.701 4.7h-25v10.6h-8.799v-38.4h33.799l4.701 4.7v18.5zm-34.901 11.8h1.801v-10.6h27l2.6-2.6v-15.6l-2.6-2.6h-28.801v31.5zm1.801-12.4v-17.3h27.899v17.3h-28zm3.5-3.5h20.899v-10.2h-21v10.3zm41.699-10.2v6h27.601v8.8h-27.601v6h27.601v8.8h-36.401v-38.4h36.401v8.8zm-5.3 26.2h29.3v-1.8h-27.5v-13.1h27.601v-1.8h-27.601v-13.1h27.601v-1.8h-29.401v31.5zm74.701-11.9-3.5 3.5 3.5 11.8h-9.201l-3.2-10.6h-17.3v10.6h-8.799v-38.4h33.799l4.701 4.7v18.5zm-35 11.8h1.799v-10.6h23.5l3.201 10.6h1.799l-2.7-9.2 4-4v-15.6l-2.599-2.6h-29v31.5zm1.799-12.4v-17.3h27.901v17.3zm3.5-3.5h20.901v-10.2h-20.901v10.3zm82.5 14.7-4.7 4.7h-33.8v-38.4h33.8l4.7 4.7v29.1zm-29.7-18.9h20.901v-6h-20.901zm0 14.8h20.901v-6h-20.901zm55.601 8.8h-8.8v-11l-16-27.4h10.199l10.2 17.5 10.201-17.5h10.2l-16 27.4v11.1zm68.8 0h-8.8v-10.6h-20.901v10.6h-8.799v-33.7l4.7-4.7h29.099l4.701 4.7v33.8zm-36.701-33.1v31.3h5.3v-10.5h24.301v10.6h5.3v-31.3l-3.7-3.7h-27.6zm5.3 15.4v-13.7h24.301v13.8h-24.4zm1.801-1.8h20.899v-10.1h-21v10.3zm82.3 4.2-4.7 4.7h-25v10.6h-8.8v-38.4h33.8l4.7 4.7v18.5zm-29.7-4.1h20.9v-10.2h-20.801v10.3zm71.5 4.1-3.5 3.5 3.5 11.8h-9.201l-3.2-10.6h-17.3v10.6h-8.799v-38.4h33.799l4.701 4.7v18.5zm-29.701-4.1h20.901v-10.2h-20.901v10.3zm71.5 14.7-4.7 4.7h-29.099l-4.701-4.7v-29l4.701-4.7h29.099l4.7 4.7v29.1zm-29.7-4.1h20.901v-20.8h-20.901v20.9zm41.801-20.8v6h27.6v8.8h-27.6v14.8h-8.801v-38.4h36.401v8.8zm39.699 0v6h27.601v8.8h-27.601v6h27.601v8.8h-36.401v-38.4h36.401v8.8zm39.7 0v6h25l4.701 4.7v14.2l-4.701 4.7h-33.799v-8.8h29.7v-6h-25l-4.7-4.7v-14.2l4.7-4.7h33.8v8.8zm41.8 0v6h25l4.7 4.7v14.2l-4.7 4.7h-33.8v-8.8h29.701v-6h-25l-4.701-4.7v-14.2l4.701-4.7h33.799v8.8zm33 29.6v-38.4h8.801v38.5h-8.801zm50.601-4.7-4.7 4.7h-29.1l-4.7-4.7v-29l4.7-4.7h29.1l4.7 4.7v29.1zm-29.7-4.1h20.9v-20.8h-20.9v20.9zm61.799 8.8-20-25.4v25.4h-8.799v-38.4h9.7l20 25.4v-25.4h8.8v38.5h-9.701zm51.5 0h-8.799v-10.6h-20.901v10.6h-8.8v-33.7l4.701-4.7h29.099l4.7 4.7v33.8zm-29.7-19.4h20.901v-10.2h-20.901v10.3zm67.301 10.6v8.8h-34.301v-38.4h8.801v29.7h25.5zm-816.601 45.2v20.9h27.601v8.8h-31.7l-4.7-4.7v-29.1l4.7-4.7h31.7v8.8zm-5.299-2.6v26.2l2.599 2.6h26.7v-1.8h-27.599v-28h27.599v-1.8h-26.7zm74.599 32.2h-8.8v-10.6h-20.899v10.6h-8.801v-33.7l4.7-4.7h29.101l4.699 4.7v33.8zm-35-32.3v28.8h1.801v-10.6h28v10.6h1.8v-28.8l-2.601-2.6h-26.3zm1.801 16.4v-17.3h28v17.3zm3.5-3.5h20.899v-10.2h-20.899v10.3zm67.3 10.6v8.8h-34.3v-38.4h8.8v29.7h25.5zm-30.7 5.3h27.2v-1.7h-25.5v-29.7h-1.8v31.5zm68.299-5.3v8.8h-34.299v-38.4h8.799v29.7h25.5zm-30.7 5.3h27.2v-1.7h-25.5v-29.7h-1.799v31.5zm34 3.5v-38.4h8.801v38.5h-8.801zm3.5-3.5h1.801v-31.4h-1.801v31.5zm17.401-26.1v20.9h20.9v-12.8h8.8v16.8l-4.7 4.7h-29.1l-4.7-4.7v-29l4.7-4.7h33.8v8.8zm-5.3-2.6v26.2l2.599 2.6h26.201l2.599-2.6v-12h-1.699v12.8h-27.9v-28h29.7v-1.8h-28.901zm76.8 16.9-3.5 3.5 3.5 11.8h-9.201l-3.2-10.6h-17.3v10.6h-8.799v-38.4h33.799l4.701 4.7v18.5zm-35 11.8h1.799v-10.6h23.5l3.201 10.6h1.799l-2.7-9.2 4-4v-15.6l-2.599-2.6h-29v31.5zm1.799-12.4v-17.3h27.901v17.3zm3.5-3.5h20.901v-10.2h-20.901v10.3zm71.5 19.4h-8.799v-10.6h-20.901v10.6h-8.8v-33.7l4.701-4.7h29.099l4.7 4.7v33.8zm-35-32.3v28.8h1.8v-10.6h27.901v10.6h1.799v-28.8l-2.599-2.6h-26.3zm1.8 16.4v-17.3h27.901v17.3zm3.5-3.5h20.901v-10.2h-20.901v10.3zm71.401 4.1-4.701 4.7h-24.899v10.6h-8.801v-38.4h33.801l4.699 4.7v18.5zm-34.901 11.8h1.801v-10.6h27.1l2.599-2.6v-15.6l-2.599-2.6h-28.901v31.5zm1.801-12.4v-17.3h27.899v17.3zm3.5-3.5h20.899v-10.2h-20.899v10.3zm62.6 19.4v-14.8h-20.901v14.8h-8.8v-38.4h8.8v14.8h20.901v-14.8h8.799v38.5h-8.799zm3.5-20.1h-27.901v-14.8h-1.8v31.5h1.8v-14.9h27.901v14.8h1.799v-31.4h-1.799zm17.4-9.5v6h27.6v8.8h-27.6v6h27.6v8.8h-36.401v-38.4h36.401v8.8zm-5.301 26.2h29.301v-1.8h-27.5v-13.1h27.6v-1.8h-27.6v-13.1h27.6v-1.8h-29.3v31.5zm74.7-11.9-3.5 3.5 3.5 11.8h-9.2l-3.199-10.6h-17.301v10.6h-8.8v-38.4h33.8l4.7 4.7v18.5zm-35 11.8h1.8v-10.6h23.5l3.2 10.6h1.8l-2.699-9.2 4-4v-15.6l-2.601-2.6h-29v31.5zm1.8-12.4v-17.3h27.901v17.3zm3.5-3.5h20.901v-10.2h-20.901v10.3zm33 19.4v-8.8h8.801v8.8z"/></svg>