<svg viewBox="0 0 3700 381" xmlns="http://www.w3.org/2000/svg"><path d="M168.738 94.119l-3.662 17.334c10.091 0 17.415.163 21.973.488 4.557.326 7.772 1.099 9.643 2.32 1.872 1.221 2.808 3.133 2.808 5.737 0 .977-.326 3.255-.977 6.836l-25.634 120.605c-2.767 13.184-7.813 21.932-15.137 26.246-7.324 4.313-16.52 6.551-27.588 6.713L125.525 297h110.596l3.174-17.09c-21.322-.976-31.982-8.707-31.982-23.193 0-2.116.244-4.395.732-6.836l36.377-170.41h-12.695zM641.714 237.674c-1.302 0-2.523.692-3.662 2.075-1.14 1.384-2.767 3.621-4.883 6.714-4.557 6.673-9.033 11.922-13.428 15.747-4.394 3.825-10.335 5.737-17.822 5.737H509.39l49.804-28.32c6.836-5.208 14.16-10.335 21.973-15.381 15.951-10.905 28.971-20.467 39.062-28.686 10.092-8.22 18.718-17.701 25.879-28.443 7.162-10.742 10.743-22.216 10.743-34.424 0-18.392-6.023-31.901-18.067-40.527-12.044-8.626-27.913-12.939-47.607-12.939-16.276 0-32.43 3.702-48.462 11.108-16.032 7.406-31.21 16.968-45.532 28.686-4.72 3.744-7.08 8.627-7.08 14.649 0 3.092.732 5.697 2.197 7.812 1.465 2.116 3.418 3.174 5.859 3.174 2.767 0 5.615-1.464 8.545-4.394 9.277-8.952 20.711-16.927 34.302-23.926 13.59-6.999 26.082-10.498 37.475-10.498 9.115 0 17.131 2.645 24.048 7.934 6.918 5.29 10.376 13.388 10.376 24.292 0 12.533-5.33 24.333-15.991 35.401-10.661 11.068-22.827 21.484-36.499 31.25l-5.615 4.394-86.426 64.209c-4.395 3.744-8.138 7.487-11.23 11.231-3.093 3.743-4.639 6.51-4.639 8.301 0 .813.814 1.709 2.441 2.685 1.628.977 5.127 1.465 10.498 1.465h125.733c3.255 0 5.371 1.099 6.347 3.296.977 2.197 1.628 5.33 1.954 9.399 0 .326.04 1.058.122 2.198.081 1.139.244 1.953.488 2.441.244.488.61.732 1.099.732h10.986c14.974-27.669 27.75-50.374 38.33-68.115a1394.17 1394.17 0 003.412-6.092c.82-1.476 1.227-2.534 1.227-3.185zM845.13 314.602c-5.534 0-10.051 1.79-13.55 5.371-3.499 3.58-5.249 7.975-5.249 13.183 0 3.907 1.872 7.813 5.615 11.719 3.744 3.906 10.01 7.202 18.799 9.888 8.789 2.685 20.264 4.028 34.424 4.028 20.833 0 40.161-4.313 57.983-12.939 17.823-8.627 31.901-19.938 42.237-33.936 10.335-13.997 15.503-28.564 15.503-43.701 0-12.044-4.029-23.356-12.085-33.936-8.057-10.579-20.793-19.856-38.208-27.832 23.6-12.532 41.544-25.553 53.833-39.062 12.288-13.509 18.432-27.018 18.432-40.528 0-9.277-2.563-17.415-7.69-24.414-5.127-6.998-12.248-12.41-21.362-16.235-9.115-3.825-19.532-5.737-31.25-5.737-16.439 0-31.21 2.889-44.312 8.667-13.102 5.778-24.943 14.852-35.522 27.221-2.93 3.418-4.395 6.674-4.395 9.766 0 1.953.61 3.54 1.831 4.761s2.808 1.831 4.761 1.831c3.092 0 6.103-1.465 9.033-4.395 6.348-6.347 15.096-12.003 26.245-16.968 11.149-4.964 21.606-7.446 31.372-7.446 9.115 0 16.48 2.564 22.095 7.691 5.615 5.127 8.423 13.305 8.423 24.536 0 15.299-7.365 29.704-22.095 43.213-14.73 13.509-30.965 24.576-48.706 33.203 15.788 4.883 27.751 13.102 35.889 24.658 8.138 11.556 12.207 24.333 12.207 38.33 0 11.068-2.605 21.647-7.813 31.738-5.208 10.092-12.654 18.23-22.339 24.414-9.684 6.185-21.036 9.278-34.057 9.278-4.72 0-8.627-.244-11.719-.733-6.673-7.487-12.126-13.061-16.357-16.723-4.232-3.662-7.894-6.063-10.987-7.202-3.092-1.14-6.754-1.709-10.986-1.709zM1406.72 252.09h-59.571L1386.7 84.609h-25.879c-4.069 0-7.121.245-9.155.733a13.855 13.855 0 00-5.493 2.685c-1.628 1.302-4.069 3.744-7.324 7.325l-4.151 4.394-143.554 152.832c-5.534 6.022-8.301 11.231-8.301 15.625 0 2.767 1.302 5.046 3.906 6.836s6.917 2.686 12.939 2.686l103.516-.245-18.066 80.567h40.039l17.09-80.567h58.105zm-97.901.244h-95.947l128.418-135.498zM1624.113 215.713c4.883-.326 8.545-.488 10.987-.488 13.346 0 24.617 2.36 33.813 7.08 9.196 4.72 16.032 10.986 20.508 18.799 4.476 7.812 6.714 16.357 6.714 25.634 0 9.603-2.808 18.921-8.423 27.954-5.615 9.034-13.713 16.399-24.292 22.095-10.58 5.697-22.868 8.545-36.865 8.545-2.116 0-3.174-.244-3.174-.732-8.627-9.929-15.869-16.724-21.729-20.386-5.859-3.662-11.556-5.493-17.089-5.493-5.534 0-10.051 1.79-13.55 5.371-3.5 3.581-5.249 7.975-5.249 13.183 0 4.883 1.383 9.603 4.15 14.161 2.767 4.557 7.446 8.422 14.038 11.596 6.592 3.174 15.259 4.761 26.001 4.761 21.81 0 41.87-5.086 60.181-15.259 18.31-10.172 32.755-23.03 43.335-38.574 10.579-15.544 15.869-30.884 15.869-46.021 0-12.695-2.971-24.129-8.911-34.301-5.941-10.173-15.3-18.311-28.076-24.414-12.777-6.104-28.768-9.156-47.974-9.156h-12.207l1.465-5.615 6.836-24.17c3.58-11.881 5.615-18.88 6.103-20.996 1.465-5.045 3.906-7.568 7.324-7.568h63.477c9.44 0 16.317-.244 20.63-.733 4.313-.488 7.772-1.831 10.376-4.028 2.604-2.197 4.476-5.737 5.615-10.62l9.277-38.574h-12.695c0 .325-1.099 1.953-3.296 4.882-2.197 2.93-5.086 5.656-8.667 8.179-3.581 2.523-7.731 3.784-12.451 3.784-18.718 0-38.167-1.139-58.35-3.418-7.324-.813-12.532-1.22-15.625-1.22-3.906 0-6.469.407-7.69 1.22-1.221.814-2.319 2.849-3.296 6.104l-33.691 118.652c-.489 1.954-.733 3.581-.733 4.883 0 2.442.855 3.988 2.564 4.639 1.709.651 4.516.976 8.423.976.488 0 .976-.04 1.464-.122.489-.081 1.221-.122 2.198-.122zM2123.663 10.635c0-2.442-.936-4.517-2.808-6.226-1.871-1.709-4.435-2.563-7.69-2.563-.977 0-2.279.163-3.906.488-28.972 7.487-56.437 22.583-82.398 45.288-25.96 22.705-46.834 49.235-62.622 79.59-15.788 30.355-23.681 60.018-23.681 88.989 0 15.951 2.848 30.396 8.545 43.335 5.696 12.94 14.77 23.275 27.221 31.006 12.451 7.731 28.361 11.597 47.73 11.597 18.229 0 35.481-6.144 51.758-18.433 16.276-12.288 29.296-28.239 39.062-47.852 9.766-19.612 14.648-39.672 14.648-60.18 0-13.509-2.97-25.635-8.911-36.377-5.94-10.742-13.672-19.124-23.193-25.147-9.522-6.022-19.409-9.033-29.663-9.033-12.696 0-25.269 3.418-37.72 10.254-12.451 6.836-23.722 17.171-33.813 31.006 12.858-28.809 28.889-53.141 48.095-72.998 19.206-19.857 43.539-37.598 72.998-53.223 4.232-2.278 6.348-5.452 6.348-9.521zm-145.019 222.9c0-14.811 3.336-30.273 10.009-46.387 6.673-16.113 15.585-29.54 26.734-40.283 11.149-10.742 23.071-16.113 35.766-16.113 12.533 0 21.851 4.232 27.954 12.695 6.104 8.464 9.156 19.532 9.156 33.203 0 14.812-3.215 30.396-9.644 46.753-6.429 16.358-14.974 29.989-25.635 40.894-10.661 10.905-21.932 16.357-33.813 16.357-13.672 0-23.845-4.313-30.518-12.939-6.673-8.626-10.009-20.02-10.009-34.18zM2373.166 84.609c-2.93 0-5.005-.569-6.226-1.709-1.22-1.139-1.953-2.889-2.197-5.249s-.366-6.469-.366-12.329l-11.231.244-42.236 87.159h18.311c.488 0 1.953-1.791 4.394-5.371 5.046-7.487 10.376-13.835 15.991-19.043 5.616-5.209 12.248-7.813 19.898-7.813h89.111l-129.394 191.895c-5.534 8.3-8.301 15.95-8.301 22.949 0 6.673 2.116 12.126 6.348 16.357 4.231 4.232 9.358 6.348 15.38 6.348 4.558 0 8.952-1.384 13.184-4.151 4.232-2.766 8.057-7.161 11.475-13.183L2498.41 91.445l-4.15-6.836zM2807.529 51.162c-17.415 0-33.243 3.174-47.485 9.522-14.242 6.347-25.472 14.892-33.691 25.634-8.22 10.743-12.33 22.461-12.33 35.157 0 11.393 2.645 22.135 7.935 32.226 5.29 10.091 11.19 18.596 17.7 25.513 6.511 6.917 12.126 12.085 16.846 15.503-8.301 4.394-18.514 11.027-30.64 19.897-12.125 8.871-23.6 20.63-34.424 35.279-10.823 14.648-16.235 30.598-16.235 47.851 0 11.068 3.174 20.752 9.522 29.053 6.347 8.301 15.34 14.73 26.977 19.287 11.637 4.557 25.187 6.836 40.65 6.836 15.625 0 31.412-3.337 47.363-10.01 15.95-6.673 29.134-16.316 39.551-28.931 10.416-12.613 15.625-27.302 15.625-44.067 0-11.068-2.442-21.199-7.325-30.395-4.883-9.196-10.416-16.846-16.601-22.95-6.185-6.103-13.184-12.247-20.996-18.432-3.744-2.93-6.267-5.046-7.569-6.348 7.487-3.092 16.805-8.504 27.954-16.235 11.149-7.731 21.281-17.497 30.396-29.297 9.115-11.8 13.672-24.536 13.672-38.208 0-19.369-5.615-33.691-16.846-42.969-11.23-9.277-27.913-13.916-50.049-13.916zm-21.24 127.442c-10.091-7.162-18.433-16.602-25.024-28.321-6.592-11.719-9.888-23.274-9.888-34.668 0-13.346 4.435-24.332 13.306-32.959 8.87-8.626 22.501-12.939 40.893-12.939 12.044 0 21.24 3.052 27.588 9.155 6.348 6.104 9.522 13.794 9.522 23.071 0 19.043-6.552 34.994-19.654 47.852-13.102 12.858-25.35 22.461-36.743 28.809zM2754.551 332.9c-13.835 0-24.618-3.214-32.349-9.643-7.731-6.429-11.597-15.666-11.597-27.71 0-18.392 5.982-34.709 17.945-48.95 11.963-14.242 26.977-26.164 45.044-35.767 13.834 11.882 23.803 22.868 29.907 32.959 6.103 10.091 9.155 21.322 9.155 33.691 0 8.952-2.685 17.741-8.056 26.368-5.372 8.626-12.533 15.625-21.485 20.996-8.952 5.371-18.473 8.056-28.564 8.056zM3056.389 371.475c0 2.441.935 4.516 2.807 6.225 1.872 1.709 4.435 2.564 7.691 2.564.813 0 2.034-.163 3.662-.489 28.971-7.487 56.518-22.582 82.641-45.288 26.124-22.705 47.079-49.235 62.867-79.59 15.787-30.354 23.681-60.017 23.681-88.989 0-15.95-2.848-30.395-8.545-43.335-5.696-12.939-14.77-23.274-27.221-31.006-12.452-7.731-28.361-11.596-47.73-11.596-18.229 0-35.482 6.144-51.758 18.432-16.276 12.289-29.296 28.239-39.062 47.852-9.766 19.613-14.649 39.673-14.649 60.181 0 13.509 2.971 25.634 8.912 36.377 5.94 10.742 13.631 19.124 23.071 25.146 9.44 6.022 19.287 9.033 29.541 9.033 12.695 0 25.228-3.377 37.598-10.132 12.369-6.754 23.681-17.049 33.935-30.883-12.695 28.646-28.686 52.897-47.974 72.753-19.287 19.857-43.66 37.598-73.12 53.223-4.231 2.279-6.347 5.453-6.347 9.522zm145.263-222.901c0 14.811-3.336 30.274-10.009 46.387-6.674 16.113-15.625 29.541-26.856 40.283-11.23 10.742-23.193 16.113-35.889 16.113-12.532 0-21.809-4.231-27.832-12.695-6.022-8.463-9.033-19.531-9.033-33.203 0-14.811 3.174-30.395 9.522-46.753 6.347-16.357 14.851-29.988 25.512-40.893 10.661-10.905 21.932-16.358 33.814-16.358 13.834 0 24.088 4.313 30.762 12.94 6.673 8.626 10.009 20.019 10.009 34.179zM3575.186 302.139c22.46 0 43.131-5.941 62.011-17.823 18.881-11.881 33.854-27.628 44.922-47.241 11.068-19.612 16.602-40.486 16.602-62.622 0-17.578-3.907-33.528-11.719-47.851-7.813-14.323-19.084-25.676-33.814-34.058-14.73-8.382-32.023-12.573-51.879-12.573-23.275 0-44.19 6.185-62.745 18.554-18.554 12.37-33.04 28.524-43.457 48.462-10.416 19.939-15.625 40.568-15.625 61.89 0 17.904 3.988 33.936 11.963 48.096 7.976 14.16 19.206 25.228 33.692 33.203 14.485 7.975 31.168 11.963 50.049 11.963zm-54.932-93.994c0-16.765 3.499-33.244 10.498-49.439 6.999-16.195 16.52-29.459 28.564-39.795 12.045-10.335 25.228-15.503 39.551-15.503 11.393 0 21.403 2.727 30.029 8.179 8.627 5.452 15.3 13.061 20.02 22.827 4.72 9.766 7.08 20.915 7.08 33.447 0 18.555-3.581 36.377-10.742 53.467-7.162 17.09-16.846 30.965-29.053 41.626-12.207 10.661-25.635 15.991-40.283 15.991-11.556 0-21.525-3.255-29.907-9.765-8.383-6.511-14.771-15.178-19.165-26.001-4.395-10.824-6.592-22.502-6.592-35.034zM3374.6 94.619l-3.662 17.334c10.091 0 17.415.163 21.972.488 4.557.326 7.772 1.099 9.644 2.32 1.871 1.221 2.807 3.133 2.807 5.737 0 .977-.325 3.255-.976 6.836l-25.635 120.605c-2.767 13.184-7.812 21.932-15.137 26.246-7.324 4.313-16.52 6.551-27.588 6.713l-4.638 16.602h110.595l3.174-17.09c-21.322-.976-31.982-8.707-31.982-23.193 0-2.116.244-4.395.732-6.836l36.377-170.41h-12.695z" fill="#dcc795"/></svg>