<svg height="150" viewBox="0 0 1500 150" width="1500" xmlns="http://www.w3.org/2000/svg"><path d="m319.085 150v-150h112.501v150zm55.914-25.125c8.78 0 14.062-3.426 16.917-6.281 2.856-2.855 6.281-8.138 6.281-16.917v-17.273h-16.703v17.273c0 3.212-.857 4.568-1.356 5.068-1.214 1.213-3.711 1.428-5.139 1.428-3.212 0-4.568-.857-5.068-1.428-1.213-1.214-1.429-3.712-1.429-5.068v-53.535c0-3.212.858-4.569 1.429-5.068 1.214-1.285 3.712-1.427 5.068-1.427 3.212 0 4.568.856 5.139 1.427 1.213 1.213 1.356 3.712 1.356 5.068v17.275h16.703v-17.275c0-8.78-3.425-14.062-6.281-16.918-2.855-2.855-8.137-6.28-16.917-6.28s-14.062 3.425-16.917 6.28c-2.856 2.856-6.281 8.138-6.281 16.918v53.535c0 8.779 3.425 14.062 6.281 16.917 2.855 2.855 8.137 6.281 16.917 6.281z"/><path d="m169.191 150v-150h112.501v150zm56.869-44.625c4.568 0 8.85-.785 12.704-2.356 3.855-1.642 7.138-3.925 9.922-6.923l2.641-2.855-5.781-5.282-2.712 2.855c-1.928 2.141-4.283 3.782-7.067 4.925-2.926 1.213-6.21 1.784-9.707 1.784-6.71 0-12.278-2.142-16.275-6.139-3.212-3.141-5.212-7.352-5.854-12.349h52.322v-3.924c0-4.354-.714-8.423-2.142-12.134-1.427-3.712-3.57-6.925-6.282-9.637-2.712-2.713-5.923-4.855-9.635-6.283-3.712-1.427-7.78-2.14-12.134-2.14s-8.496.713-12.207 2.14c-3.712 1.428-6.923 3.57-9.635 6.283-2.713 2.712-4.855 5.925-6.283 9.637-1.427 3.711-2.142 7.78-2.142 12.134s.715 8.493 2.142 12.205c1.428 3.712 3.57 6.925 6.283 9.637 2.712 2.712 5.923 4.853 9.635 6.28 3.711 1.428 7.853 2.142 12.207 2.142zm-22.129-34.19c.642-4.925 2.642-9.137 5.854-12.349 3.997-3.997 9.565-6.068 16.275-6.068 6.638 0 12.277 2.071 16.275 6.068 3.14 3.212 5.138 7.424 5.781 12.349z"/><path d="m0 150v-150h150v150zm34.164-25.125h38.26c7.138 0 13.846-1.214 19.985-3.569 6.139-2.356 11.493-5.853 15.99-10.35 4.568-4.497 7.994-9.922 10.421-16.061 2.355-6.138 3.568-12.847 3.568-19.985s-1.213-13.848-3.568-19.987c-2.427-6.138-5.853-11.563-10.421-16.06-4.497-4.497-9.851-7.995-15.99-10.35-6.139-2.356-12.847-3.569-19.985-3.569h-38.26zm17.845-17.845v-64.241h20.415c9.565 0 17.702 2.997 23.412 8.707 5.639 5.711 8.707 13.778 8.707 23.414s-3.068 17.702-8.707 23.412c-5.71 5.711-13.847 8.708-23.412 8.708z"/><path d="m1350 150v-150h150v150zm27.365-25.125h94.933v-29.98h-64.954v-4.995h64.954v-29.979h-64.954v-4.998h64.954v-29.979h-94.933z"/><path d="m1215.255 150v-150h120v150zm26.927-25.125h67.311v-8.566h-58.745v-91.365h-8.566z"/><path d="m1065.702 150v-150h120v150zm53.988-27h35.262v-99.93h-11.421v27.265c-4.426-2.426-10.277-3.712-17.843-3.712h-5.998c-10.421 0-17.559 2.285-22.27 6.996-4.711 4.854-6.994 11.85-6.994 22.414v17.701c0 10.422 2.283 17.56 6.994 22.271s11.849 6.995 22.27 6.995zm0-11.421c-7.138 0-11.706-1.142-14.133-3.712-2.569-2.427-3.712-6.995-3.712-14.133v-17.701c0-7.138 1.143-11.85 3.712-14.277 2.427-2.426 6.995-3.712 14.133-3.712h5.998c7.138 0 11.706 1.286 14.133 3.712 2.569 2.427 3.71 7.139 3.71 14.277v35.546z"/><path d="m925.596 150v-150h98.999v150zm37.197-25.125c2.569 0 4.639-2.07 4.639-4.64v-55.39l15.133 56.604c.571 2.07 2.426 3.426 4.496 3.426 1.642 0 4.64-1.214 4.64-4.64v-90.651c0-2.57-2.07-4.64-4.64-4.64-2.569 0-4.639 2.07-4.639 4.64v55.389l-15.131-56.602c-.643-2.213-2.784-3.713-5.068-3.356-2.356.285-4.07 2.213-4.07 4.569v90.651c0 2.57 2.07 4.64 4.64 4.64z"/><path d="m765.043 150v-150h119.999v150zm59.807-34.5c8.423 0 16.418-3.284 22.414-9.279 5.996-5.996 9.279-13.848 9.279-22.271v-36.831c0-3.855-3.285-7.138-7.139-7.138-3.997 0-7.137 3.283-7.137 7.138v36.831c0 9.565-7.852 17.273-17.417 17.273s-17.273-7.708-17.273-17.273v-36.831c0-3.855-3.285-7.138-7.139-7.138-3.997 0-7.137 3.283-7.137 7.138v36.831c0 8.423 3.283 16.275 9.279 22.271 5.996 5.995 13.847 9.279 22.27 9.279z"/><path d="m608.17 150v-150h135.001v150zm33.428-25.125h49.964c2.427 0 4.711-.999 6.424-2.712l8.853-8.71c1.713-1.713 2.568-3.996 2.568-6.423v-23.412c0-2.427-.855-4.711-2.568-6.424l-2.286-2.284 2.286-2.285c1.713-1.713 2.568-3.997 2.568-6.424v-23.412c0-2.427-.855-4.711-2.568-6.424l-8.853-8.709c-1.713-1.713-3.997-2.712-6.424-2.712h-49.964zm2.283-2.284v-95.364h47.681c1.713 0 3.426.714 4.854 1.999l8.851 8.709c1.142 1.285 1.856 2.998 1.856 4.854v23.412c0 1.856-.714 3.569-1.856 4.854l-2.284 2.285-1.713 1.57 1.713 1.57 2.284 2.284c1.142 1.285 1.856 2.998 1.856 4.854v23.412c0 1.855-.714 3.569-1.856 4.853l-8.851 8.71c-1.428 1.284-3.141 1.998-4.854 1.998zm1.714-1.713h45.967c1.285 0 2.569-.571 3.569-1.571l8.852-8.707c1.142-1.142 1.427-2.571 1.427-3.57v-23.412c0-1-.285-2.427-1.427-3.569l-5.14-5.139 5.14-5.14c1.142-1.143 1.427-2.57 1.427-3.569v-23.412c0-.999-.285-2.427-1.427-3.569l-8.852-8.709c-1-.999-2.284-1.57-3.569-1.57h-45.967zm2.283-2.284v-87.368h43.684c.714 0 1.428.284 1.998.855l8.851 8.709c.429.571.716 1.142.716 1.999v23.412c0 .857-.287 1.427-.716 1.998l-6.709 6.711 6.709 6.709c.429.571.716 1.142.716 1.999v23.412c0 .856-.287 1.427-.716 1.998l-8.851 8.709c-.57.571-1.284.857-1.998.857zm1.714-1.713h41.97c.286 0 .57-.286.713-.429l8.853-8.707c.143-.143.285-.43.285-.715v-23.412c0-.429-.142-.571-.285-.714l-7.852-7.994 7.852-7.996c.143-.143.285-.285.285-.713v-23.412c0-.286-.142-.571-.285-.713l-8.853-8.71c-.143-.142-.427-.428-.713-.428h-41.97zm2.283-2.284v-38.545h39.402l7.853 8.137v22.271l-7.853 8.137zm1.714-1.713h36.975l.713-.714 5.567-5.854.572-.57v-20.843l-.572-.572-5.567-5.852-.713-.714h-36.975zm2.283-2.284v-30.551h33.691l5.568 5.854v18.843l-5.568 5.854zm1.714-1.713h31.264l.713-.714 3.284-3.427.572-.713v-17.417l-.572-.713-3.284-3.427-.713-.714h-31.264zm2.283-2.286v-22.555h27.981l3.284 3.427v15.703l-3.284 3.425zm-7.994-32.834v-38.544h39.402l7.853 8.138v22.27l-7.853 8.136zm1.714-1.712h36.975l.713-.715 5.567-5.852.572-.572v-20.842l-.572-.572-5.567-5.852-.713-.715h-36.975zm2.283-2.285v-30.55h33.691l5.568 5.852v18.846l-5.568 5.852zm1.714-1.712h31.264l.713-.715 3.284-3.425.572-.714v-17.416l-.572-.716-3.284-3.425-.713-.713h-31.264zm2.283-2.285v-22.556h27.981l3.284 3.425v15.705l-3.284 3.426z"/><path d="m450 150v-150h150v150zm47.264-31.125h52.751c3.711 0 7.209-.641 10.421-1.855 3.283-1.285 6.209-3.141 8.636-5.64 2.427-2.427 4.282-5.353 5.567-8.636 1.285-3.212 1.857-6.71 1.857-10.35v-35.191c0-3.712-.572-7.209-1.857-10.421-1.285-3.283-3.14-6.209-5.567-8.636s-5.353-4.354-8.636-5.568c-3.212-1.284-6.71-1.927-10.421-1.927h-70.523v17.845h70.523c1.927 0 4.568.427 6.424 2.283 1.855 1.856 2.212 4.497 2.212 6.424v8.637h-61.387c-3.712 0-7.209.643-10.421 1.856-3.283 1.285-6.21 3.211-8.636 5.638-2.427 2.427-4.355 5.355-5.64 8.639-1.214 3.212-1.855 6.709-1.855 10.421 0 3.64.641 7.138 1.855 10.35 1.285 3.283 3.213 6.209 5.64 8.636 2.426 2.499 5.353 4.355 8.636 5.64 3.212 1.214 6.709 1.855 10.421 1.855zm0-17.845c-1.927 0-4.568-.357-6.424-2.212-1.856-1.856-2.283-4.568-2.283-6.424 0-1.927.427-4.64 2.283-6.424 1.856-1.856 4.497-2.286 6.424-2.286h61.387v8.71c0 1.856-.357 4.568-2.212 6.424-1.856 1.855-4.497 2.212-6.424 2.212z"/></svg>