<svg viewBox="0 0 14400 720" xmlns="http://www.w3.org/2000/svg"><path d="m0 720h14400v-720h-14400z" fill="#eae3d8"/><path d="m592.3 383.9-18 15.3h-44.7l13.8-78.4h44.7l12.6 15.3zm-46.2 1.3h24.9l8.3-7.1 6.4-36.2-5.8-7.1h-24.9zm82.3-50.4-3.1 18.2h39.1l-2.5 14h-39.1l-3.2 18.2h39.1l-2.5 14h-53.1l13.8-78.4h53.1l-2.5 14zm111.4 6.8h-14l.3-1.7-4.2-5.1h-21.8l-6 5.1-7.1 40.2 4.2 5.1h21.8l6-5.1.3-1.7h14l-1.3 7.5-15.6 13.3h-33.4l-11-13.3 9.1-51.8 15.7-13.3h33.4l10.9 13.3zm1.6 57.6 13.8-78.4h14l-13.8 78.4zm96.5-57.6h-14l.3-1.7-4.2-5.1h-21.8l-6 5.1-1.5 8 4.3 5.1h27.6l10.9 13.3-3.4 19.6-15.6 13.3h-33.4l-11-13.3 1.3-7.5h14l-.3 1.7 4.2 5.1h21.8l6-5.1 1.4-8-4.2-5.1h-27.6l-11-13.3 3.5-19.6 15.7-13.3h33.4l10.9 13.3zm63.4 44.3-15.6 13.3h-33.4l-11-13.3 9.1-51.8 15.7-13.3h33.4l10.9 13.3zm-37.9-46-7.1 40.2 4.2 5.1h21.8l6-5.1 7.1-40.2-4.2-5.1h-21.8z"/><path d="m1991.4 177.6h-21.3v-2.6l-7.8-7.8h-33.2l-7.8 7.8v12.2l7.8 7.8h42.1l20.2 20.3v29.8l-20.2 20.3h-50.9l-20.3-20.3v-11.4h21.3v2.6l7.8 7.8h33.2l7.8-7.8v-12.2l-7.8-7.8h-42l-20.3-20.2v-29.9l20.3-20.3h50.9l20.2 20.3v11.3zm110.2 18.5-20.2 20.2h-49.9v49.1h-21.3v-119.5h71.2l20.2 20.3zm-70.1-1.1h41l7.8-7.8v-12.2l-7.8-7.8h-41zm178.5 50.1-20.2 20.3h-50.8l-20.3-20.3v-78.9l20.3-20.3h50.9l20.1 20.3v78.8zm-70-70.1v61.3l7.8 7.8h33.2l7.8-7.8v-61.3l-7.8-7.8h-33.2zm181.9 21.1-20.2 20.2h-7.8l28 49.1h-24.6l-28-49.1h-17.4v49.1h-21.4v-119.5h71.2l20.2 20.3zm-70-1.1h41l7.8-7.8v-12.2l-7.8-7.8h-41zm136.6-27.8v98.1h-21.3v-98.1h-31.6v-21.3h84.4v21.3zm-359.3 309.4h-24.6l-7.5-7.5v-3.6l7.5-7.5h19.5v-3.9l-4.5-4.5h-19.4v-5h21.6l7.5 7.5v24.6zm-26.7-9.3 4.2 4.2h17.5v-8.5h-17.5zm65.5 9.3h-23.9l-8.2-8.2v-15.7l8.2-8.2h18.9v-15h5zm-27-10.3 5.3 5.2h16.7v-22h-16.7l-5.3 5.3zm62.7-10.3h-5v-2l-4.5-4.5h-13.1v27h-5v-32h20.1l7.5 7.5zm37.4 7h-27v4l4.5 4.5h19.5v5h-21.6l-7.5-7.5v-17l7.5-7.5h17.1l7.5 7.5zm-27-9v4h22v-3.9l-4.5-4.5h-13zm66.1 22.6h-5v-22.5l-4.5-4.5h-17.5v27h-5v-32.1h24.6l7.5 7.5v24.6zm37.5 0h-24.6l-7.5-7.5v-3.6l7.5-7.5h19.5v-3.9l-4.5-4.5h-19.5v-5h21.6l7.5 7.5v24.6zm-26.7-9.3 4.2 4.2h17.5v-8.5h-17.5zm34.7 9.3v-47.1h5v47.1zm13.1-42.1v-5h5v5zm0 42v-32h5v32.1h-5zm45.2.1h-5v-22.5l-4.5-4.5h-17.5v27h-5v-32.1h24.6l7.4 7.5zm38.8-13.6h-27v4l4.5 4.5h19.5v5h-21.6l-7.5-7.5v-17l7.5-7.5h17.1l7.5 7.5zm-27-9v4h22v-3.9l-4.5-4.5h-13z"/><path d="m1994.3 386.3 8.5-48.2-29.2 48.2h-10.4l-12.1-48.3-8.5 48.2h-9.6l11.8-66.7h12l13.8 54.6 33-54.6h12l-11.8 66.7h-9.5zm62.9 0-1.8-12.3h-26l-6.1 12.2h-10l33.2-66.7h11l9.7 66.7h-10zm-3.2-21.8-4.5-31-15.4 31zm78.1-27.9h-9.5l.3-2.1-4.4-5.4h-20.6l-6.3 5.4-6.5 36.9 4.4 5.4h20.5l6.3-5.4 2.4-13.7h-16.3l1.7-9.5h25.9l-4.8 27.1-12.9 11h-28.4l-9-11 7.9-44.8 12.9-11h28.4l9 11zm40.8 49.7-1.8-12.3h-26l-6.1 12.3h-10l33.2-66.7h11l9.7 66.7zm-3.1-21.8-4.5-31-15.4 31zm34.6 12.2h35.1l-1.7 9.5h-46.3l1.9-10.4 43.3-46.7h-35.1l1.7-9.5h46.3l-1.9 10.4zm43.8 9.6 11.8-66.7h9.5l-11.8 66.7zm59.7 0-20.1-51.1-9 51.1h-9.5l11.7-66.7h11.6l20.2 51.1 9-51.1h9.5l-11.8 66.7zm42.7-57.2-3.4 19.1h34.7l-1.7 9.5h-34.6l-3.3 19.1h34.7l-1.7 9.5h-44.3l11.8-66.7h44.2l-1.7 9.5zm-327.8 255h-17.8l-7.8-9.5.9-5.2h7.4l-.4 2.1 4.3 5.2h11.6l6.1-5.2 8.1-46.2h7.4l-8.7 49.3zm53.6 0-1.6-11h-24.3l-5.5 11h-7.7l29.3-58.8h9l8.5 58.8zm-2.6-18.4-4.5-30.5-15.2 30.5h19.6zm53.3 18.4-18.9-47.7-8.4 47.7h-7.4l10.4-58.8h9.5l19 47.7 8.4-47.7h7.3l-10.4 58.8z"/><path d="m2166.7 584.1h-9.5l8-45.1-3.5-4.3h-6.3l1.6-9.5h10.2l8.1 9.8zm51.3-9.8-11.6 9.8h-29.5l1.6-9.5h25.7l5-4.3 1.3-7.4h-21.9l-8.1-9.8 3.1-18 11.6-9.8h21.5l8.1 9.8zm-25.5-35.3-1.8 10.2 3.5 4.3h18l2.6-14.4-3.5-4.3h-13.8zm80.2 10.6-6 5.1 4.2 5.1-2.6 14.5-11.5 9.8h-21.5l-8.1-9.8 2.6-14.5 6-5.1-4.2-5.1 2.6-14.5 11.6-9.8h21.5l8 9.8zm-34.2 14.1-1.2 6.7 3.5 4.3h13.7l5-4.3 1.2-6.7-3.5-4.2h-13.6zm4.4-24.7-1.2 6.7 3.5 4.3h13.7l5-4.3 1.2-6.7-3.5-4.3h-13.7zm50 21.5h18l2.5-14.1h9.4l-6.6 37.6h-9.5l2.5-14.1h-21.8l-8.1-9.8 6.1-34.9h9.5l-5.5 31z"/><path d="m3449.5 237.2-10.6 9 7.4 9.1-5 28.1-22.4 19.1h-67.1l19.9-112.6h67.1l15.7 19.1zm-74 45.2h38.6l8.6-7.3 2-11.5-6-7.3h-38.6zm8.1-46.3h38.6l8.6-7.3 2-11.5-6-7.3h-38.6zm110.1-26.1-4.6 26.1h56.2l-3.5 20.1h-56.2l-4.6 26.2h56.2l-3.6 20.1h-76.3l19.9-112.6h76.3l-3.6 20.1zm128.6 92.5-2.9-19.8h-38.7l-9.8 19.8h-21.2l56.1-112.6h21.2l16.3 112.6zm-5.9-39.9-5.8-40.1-19.9 40.1zm135.7-42.8h-20.1l.5-2.4-6-7.3h-31.3l-8.6 7.3-2.1 11.5 6 7.3h39.7l15.7 19.1-4.9 28.1-22.4 19.1h-48.1l-15.8-19.1 1.8-10.7h20.1l-.4 2.4 6 7.3h31.3l8.6-7.3 2-11.5-6-7.3h-39.4l-15.8-19.1 5-28.2 22.5-19.1h47.9l15.7 19.1zm62.9-9.8-16.3 92.5h-20.1l16.3-92.5h-29.8l3.5-20.1h79.6l-3.5 20.1z"/><path d="m3454.9 367.9h-5.6l.2-.9-2.1-2.5h-10.1l-3 2.5-3.3 18.4 2.1 2.5h10.1l3-2.5.2-.9h5.6l-.6 3.2-6.8 5.8h-14.7l-4.8-5.8 4.1-23 6.8-5.8h14.7l4.7 5.8zm20.4 25.6 2.6-14.5h-14.1l-2.6 14.5h-5.6l6.1-34.6h5.6l-2.5 14.5h14.1l2.5-14.5h5.6l-6.1 34.6zm33.1 0-.9-6.2h-12.7l-3.1 6.2h-5.8l17.2-34.6h6.1l5 34.6zm-1.7-11.8-2.1-14.2-7 14.2zm43.6 11.8 4.1-23.1-14 23.1h-5.7l-5.8-23.1-4.1 23.1h-5.6l6.1-34.6h6.7l6.9 27.2 16.4-27.2h6.7l-6.1 34.6zm41.5-20.3-6.8 5.8h-15l-2.6 14.5h-5.6l6.1-34.6h20.5l4.8 5.8zm-20.8.2h12.7l3-2.5.7-3.9-2.1-2.5h-12.7zm22.4 20.1 6.1-34.6h5.6l-6.1 34.6zm38.8-5.8-6.8 5.8h-14.7l-4.8-5.8 4.1-23 6.8-5.8h14.7l4.7 5.8zm-17.1-20.7-3.3 18.4 2.1 2.5h10.1l3-2.5 3.3-18.4-2.1-2.5h-10.1zm41.9 26.5-9.9-25-4.4 25h-5.6l6.1-34.6h6.5l9.9 25 4.4-25h5.6l-6.1 34.6zm42.8-25.6h-5.6l.2-.9-2.1-2.5h-10.2l-3 2.5-.7 3.9 2.1 2.5h12.5l4.8 5.8-1.5 8.5-6.8 5.8h-14.8l-4.8-5.8.6-3.2h5.6l-.2.9 2.1 2.5h10.1l3-2.5.7-3.9-2.1-2.5h-12.4l-4.8-5.8 1.5-8.5 6.8-5.8h14.7l4.7 5.8zm20.6 25.6 2.6-14.5h-14.2l-2.6 14.5h-5.6l6.1-34.6h5.6l-2.5 14.5h14.2l2.5-14.5h5.6l-6.1 34.6zm11.5 0 6.1-34.6h5.6l-6.1 34.6zm41.5-20.3-6.8 5.8h-15l-2.6 14.5h-5.6l6.1-34.6h20.5l4.8 5.8zm-20.8.2h12.7l3-2.5.7-3.9-2.1-2.5h-12.7z"/><path d="m3291.7 530.1v-22.5h-22v22.5h-8.6v-53.7h8.6v22.6h22v-22.6h8.6v53.7zm49.8 0h-22.9l-9-9v-44.7h8.6v41.2l3.9 3.9h15.7l3.9-3.9v-41.2h8.6v44.7zm66.5 0v-35.9l-15.4 35.9h-8.9l-15.4-35.9v35.9h-8.6v-53.7h10.3l18.1 42.2 18.1-42.2h10.4v53.7zm51.2 0-3.1-9.7h-19.6l-3.1 9.7h-9.1l17.3-53.7h9.4l17.3 53.7zm-5.9-18.3-7.1-22-7.1 22zm53.5 18.3-22.2-38.8v38.8h-8.6v-53.7h10l22.1 38.8v-38.8h8.6v53.7h-10z"/><path d="m3555.4 520.9-7.1-29.4h7.3l4.9 20.3 12-20.3h7.3l-17.5 29.4h-7zm34.9-22.6-2.7 2.3 1.9 2.3h13.8l4.7 5.8-.9 5.3-8.3 7h-22.3l1.2-6.8h19.6l3.5-2.9-1.4-1.7h-13.9l-5.8-7 .7-4.1 8.3-7h21.1l-1.2 6.8z"/><path d="m3682.2 490.3h-8.6v-1.4l-3.9-3.9h-15.8l-3.9 3.9v28.6l3.9 3.9h15.7l3.9-3.9v-10h-12.8v-8.6h21.5v22.2l-9 9h-22.8l-9-9v-35.8l9-9h22.9l9 9v5zm49.3 30.8-9 9h-22.9l-9-9v-35.8l9-9h22.9l9 9zm-32.2-32.2v28.6l3.9 3.9h15.8l3.9-3.9v-28.6l-3.9-3.9h-15.8zm82.3 9.7-9 9h-3.9l12.9 22.5h-9.9l-12.9-22.5h-9.4v22.5h-8.6v-53.7h31.9l8.9 9zm-32.2.3h19.6l3.9-3.9v-6.1l-3.9-3.9h-19.6zm40.6 31.2v-53.7h8.6v53.7zm53.8-8.7v8.6h-36v-53.6h8.6v45.1h27.4zm44.1 0v8.6h-36v-53.6h8.6v45.1h27.4zm41.9 8.7-3.1-9.7h-19.7l-3.1 9.7h-9.1l17.3-53.7h9.5l17.3 53.7zm-5.9-18.3-7.1-22-7.1 22z"/><path d="m4884.1 225.7v-54.7l-23.4 54.7h-8.8l-23.4-54.7v54.7h-7v-65.5h10l24.9 58 24.9-58h10v65.5h-7zm60.5 0-4-12.5h-28.7l-4 12.5h-7.4l21.1-65.5h9.3l21.1 65.5zm-6.3-19.6-12.1-37.5-12 37.5zm68.1-29.9h-7v-2.7l-6.3-6.3h-22.2l-6.3 6.3v38.9l6.3 6.3h22.1l6.3-6.3v-2.7h7v5.6l-10.3 10.4h-28l-10.4-10.4v-44.7l10.4-10.4h28l10.4 10.4zm49.5 49.5v-29.3h-32.7v29.3h-7v-65.5h7v29.3h32.7v-29.3h7v65.5zm18.3 0v-65.5h7v65.5zm57.3 0-32.1-56.1v56.1h-7v-65.5h9.7l32.1 56.1v-56.1h7v65.5zm28-58.5v22.2h35.5v7h-35.5v22.2h35.5v7h-42.5v-65.4h42.5v7zm95.6 47.1-11.4 11.4h-37.4v-65.5h37.4l11.4 11.4zm-41.8 4.4h27.5l7.3-7.3v-36.9l-7.3-7.3h-27.5zm-338 168.8h-7.4v-2.8l-6.6-6.6h-23.3l-6.6 6.6v10.1l6.6 6.6h26.3l11 11v16.2l-11 11h-29.3l-11-11v-5.9h7.4v2.8l6.6 6.6h23.2l6.6-6.6v-10.1l-6.6-6.6h-26.2l-11-10.9v-16.3l11-11h29.3l11 11zm50.1 51.9h-29.4l-10.9-11v-57.7h7.4v54.8l6.6 6.6h23.3l6.6-6.6v-54.8h7.4v57.8zm73.9-41.6-10.9 10.9h-32.9v30.7h-7.4v-68.7h40.3l10.9 11v16.2zm-43.8 3.5h29.9l6.6-6.6v-10l-6.6-6.6h-29.9v23.3zm105.3-3.5-11 10.9h-6.6l17.5 30.7h-8.5l-17.5-30.7h-17.7v30.7h-7.4v-68.7h40.3l11 11v16.2zm-43.8 3.6h29.9l6.6-6.6v-10.1l-6.6-6.6h-29.9zm62-23.4v23.3h37.3v7.4h-37.3v23.3h37.3v7.4h-44.7v-68.7h44.7v7.3zm114.9 61.4v-57.3l-24.6 57.4h-9.2l-24.6-57.4v57.4h-7.4v-68.8h10.5l26.1 60.9 26.1-60.9h10.5v68.8h-7.4zm26.5-61.4v23.3h37.3v7.4h-37.3v23.3h37.3v7.4h-44.7v-68.7h44.7v7.3z"/><path d="m4876.1 291.4-11 11h-6l17.1 29.9h-9.9l-17.1-29.9h-15.8v29.9h-8.5v-68.3h40.2l11 11v16.3zm-42.7 2.5h28.1l6-6v-9.3l-6-6h-28.1zm103.7 27.4-11 11h-29.2l-11-11v-46.2l11-11h29.2l11 11v46.3zm-42.7-42.7v39.1l6.1 6.1h22.1l6.1-6.1v-39.1l-6.1-6h-22.1zm105.7 12.8-6.8 6.8 6.8 6.8v16.3l-11 11h-40.3v-68.3h40.2l11 11v16.3zm-42.7 2.5h28.1l6.1-6v-9.3l-6.1-6h-28.1zm0 29.9h28.1l6.1-6.1v-9.3l-6.1-6h-28.1zm104.6-2.5-11 11h-29.2l-11-11v-46.2l11-11h29.2l11 11v46.3zm-42.7-42.7v39.1l6.1 6.1h22.1l6.1-6.1v-39.1l-6.1-6h-22.1zm78.3-6v59.8h-8.5v-59.8h-19.3v-8.6h47v8.5h-19.2zm29.5 59.7v-68.3h8.5v68.3zm71.4-51.2h-8.5v-2.5l-6-6h-22.1l-6 6v39.1l6 6.1h22.1l6-6.1v-2.5h8.5v6l-11 11h-29.2l-11-11v-46.1l11-11h29.2l11 11v6.1zm60 0h-8.5v-2.5l-6-6h-22.1l-6 6v9.3l6 6h25.6l11 11.1v16.3l-11 11h-29.2l-11-11v-6h8.5v2.5l6 6.1h22.2l6-6.1v-9.3l-6-6h-25.7l-11-11v-16.4l11-11h29.2l11 11v6.1zm-382.4 268.5v10.3h-53.9v-82.1h10.3v71.8zm12.3 10.2v-82h10.3v82.1h-10.3zm72.6 0-38-66.6v66.6h-10.3v-82h13.3l38 66.6v-66.6h10.3v82.1h-13.3zm37.6-71.8v25.6h43.6v10.3h-43.6v25.7h43.6v10.3h-53.8v-82.1h53.9v10.2zm109.9 71.8-4.9-15.4h-33.9l-4.9 15.4h-10.8l26.4-82.1h12.6l26.4 82.1zm-8.2-25.7-13.7-42.5-13.6 42.6h27.4zm87.6-35.8h-10.2v-3l-7.3-7.3h-26.5l-7.3 7.3v47l7.3 7.3h26.5l7.3-7.3v-18.4h-20.6v-10.3h30.8v32.9l-13.2 13.2h-35.1l-13.2-13.2v-55.5l13.2-13.2h35.1l13.2 13.2zm24.3-10.3v25.6h43.6v10.3h-43.6v25.7h43.6v10.3h-53.8v-82.1h53.9v10.2z"/><path d="m6201.5 307.7-4.2-56.5-24.1 56.5h-12.5l-10.9-74.7h11.2l8.4 57.9 24.7-57.9h12.9l4.3 57.9 28.9-57.9h11.2l-37.2 74.7zm89.4-13.8-16.2 13.8h-24.3l-11.4-13.8 4.3-24.2 16.2-13.8h24.2l11.4 13.8zm-37.7-19.8-2.7 15.4 6.2 7.5h15.4l8.9-7.5 2.7-15.4-6.2-7.5h-15.5zm97.2.8h-10.7l.4-2.4-5-6h-17.5l-7.3 41.1h-10.6l9.1-51.8h32.7l10.1 12.3zm30.4 1.5 19.6-20.5h13.5l-24.7 25.9 15.5 25.9h-13.5l-12.4-20.6h-10.3l-3.6 20.6h-10.7l13.2-74.7h10.7l-7.6 43.4h10.4z"/><path d="m6429.8 307.7-10.8-74.7h11.2l8.6 59.1 29.3-59.1h11.3l-37.2 74.7zm90.2-20.6h-41.1l-.7 3.9 5 6h30.6l-1.9 10.7h-35l-10.1-12.3 4.8-27.3 14.4-12.2h27.3l10.1 12.3zm-38.6-14.6-.7 3.9h30.5l.7-3.9-4.9-6h-18.4zm98.1 35.2h-10.7l6.2-35.2-4.9-6h-24.5l-7.3 41.1h-10.6l9.1-51.8h39.5l10.1 12.3zm51.6-51.8-1.9 10.7h-20.6l-4.3 24.4 5 6h14.6l-1.9 10.7h-19l-10.1-12.3 11-62.4h10.7l-4.1 22.9zm14.4 51.8-10.1-12.3 7-39.5h10.6l-6.2 35.1 4.9 6h24.5l7.3-41.1h10.7l-9.2 51.8zm103.2-32.8h-10.7l.4-2.4-5-6h-17.6l-7.3 41.1h-10.6l9.1-51.8h32.7l10.1 12.3zm58.1 12.2h-41.1l-.7 3.9 5 6h30.6l-1.9 10.7h-35l-10.1-12.3 4.8-27.3 14.4-12.3h27.2l10.1 12.3zm-38.6-14.6-.7 3.9h30.5l.7-3.9-4.9-6h-18.5z"/><path d="m6341 409.9-5.1 4.3h-8.9l-1-1.3h-11.5l-3.6-4.3 1.8-10.2 5-4.3h10.2l3.6 4.3-1.6 9 .7.8h3.9l1-.8 2.7-15.4-2.8-3.4h-23.1l-4 3.4-4.1 23.1 2.8 3.4h26.1l-1 6h-28.6l-5.7-6.9 5-28.1 8.1-6.9h28.1l5.6 6.9zm-22.8-9-.9 5.2.7.8h6l1-6-.7-.8h-5.2z"/><path d="m6394.7 393.3h-6l.2-1.3-2.8-3.4h-12.8l-4 3.4-4.1 23.1 2.8 3.4h12.9l4-3.4.2-1.3h6l-.7 3.8-8.1 6.9h-17.8l-5.7-6.9 5-28.1 8.1-6.9h17.8l5.6 6.9zm29.7 23.4-9.1 7.7h-13.6l-6.4-7.7 2.4-13.6 9.1-7.7h13.6l6.4 7.7zm-21.1-11.1-1.5 8.6 3.5 4.2h8.6l5-4.2 1.5-8.6-3.5-4.2h-8.6zm55.3 18.8-3.9-20.8-11.2 20.8h-6.6l-7-29h6.5l5.1 21.1 11.3-21.1h6.8l3.9 21.1 12.5-21.1h6.5l-17.2 29h-6.6zm51.5-7.7-9.1 7.7h-13.6l-6.4-7.7 2.4-13.6 9.1-7.7h13.6l6.4 7.7zm-21.1-11.1-1.5 8.6 3.5 4.2h8.6l5-4.2 1.5-8.6-3.5-4.2h-8.6zm54.4.5h-6l.2-1.3-2.8-3.3h-9.8l-4.1 23h-6l5.1-29h18.3l5.6 6.9zm17 .8 11-11.5h7.6l-13.8 14.5 8.7 14.5h-7.6l-6.9-11.5h-5.8l-2 11.5h-6l7.4-41.8h6l-4.3 24.3h5.8zm19.4 17.5 5.1-29h6l-5.1 29zm6.3-35.9 1-6h6l-1 6zm35.9 35.9h-6l3.5-19.7-2.7-3.3h-13.8l-4.1 23h-6l5.1-29h22.1l5.6 6.9zm25.9 12.9h-17l1.1-6h14.6l3.9-3.4.6-3.5h-15.3l-6.4-7.7 2.4-13.6 9.1-7.7h21.3l-6.2 35zm-10.6-31.6-1.5 8.6 3.5 4.2h12.8l3-17.1h-12.8zm-307.8 94.4-8.1 6.9h-17.9l-5.7-6.9 5-28.2 8.1-6.9h17.9l5.7 6.9zm-21.2-25.7-4.1 23.2 2.8 3.4h13l4-3.4 4.1-23.2-2.8-3.4h-13zm39.4 9.5-4 3.4-1.8 10.4 2.8 3.4h15.9l-1 6h-18.4l-5.7-6.9 2.7-15.3 8.1-6.9h18.4l-1 6h-16zm40.5-6-1 6h-11.6l-2.4 13.7 2.8 3.4h8.2l-1.1 6h-10.7l-5.7-6.9 6.2-35.1h6l-2.3 12.9zm30.1 21.4-9.1 7.8h-13.6l-6.4-7.8 2.4-13.6 9.1-7.7h13.6l6.4 7.7zm-21.2-11.1-1.5 8.7 3.5 4.2h8.7l5-4.2 1.5-8.7-3.5-4.2h-8.7zm52.7-10.3 6.4 7.7-2.4 13.6-9.1 7.8h-21.4l7.4-42h6l-2.2 12.9h15.4zm-19.5 23.1h12.9l5-4.2 1.5-8.7-3.5-4.2h-12.9zm58.6-5.5h-23.1l-.4 2.2 2.8 3.4h17.2l-1 6h-19.8l-5.7-6.9 2.7-15.3 8.1-6.9h15.3l5.7 6.9zm-21.7-8.2-.4 2.2h17.1l.4-2.2-2.8-3.4h-10.3zm54.4 1.3h-6l.2-1.3-2.8-3.4h-9.9l-4 23.1h-6l5.1-29.1h18.4l5.7 6.9z"/><path d="m6570.8 483.4-8.1 6.9h-12.8l-4 3.4-1.3 7.3h23.1l-1 6h-29.1l2.8-15.8 8.1-6.9h12.9l4-3.4 1.1-6.5-2.8-3.4h-10.4l-4 3.4-.2 1.3h-6l.7-3.8 8.1-6.9h15.3l5.7 6.9zm32.8 16.7-8.1 6.9h-15.3l-5.7-6.9 5-28.2 8.1-6.9h15.3l5.7 6.9zm-18.6-25.7-4.1 23.2 2.8 3.4h10.4l4-3.4 4.1-23.2-2.8-3.4h-10.4zm35.9 32.6h-6l5.8-32.6-2.8-3.4h-4.3l1-6h6.8l5.7 6.9zm36.3-6.9-8.1 6.9h-20.9l1-6h18.5l4-3.4 1-6h-16.2l-5.7-6.9 2.2-12.8 8.1-6.9h15.3l5.7 6.9zm-18.6-25.7-1.3 7.8 2.8 3.4h13.8l1.9-11.2-2.8-3.4h-10.4z"/><path d="m7784.8 190.9 16.1 19.6-5.8 33-23.1 19.6h-52.6l18.2-103.1h16.6l-5.5 30.9h36zm-45.8 55.6h29.2l11.6-9.9 3.4-19.3-8.1-9.9h-29.2zm139.1-28.8h-16.6l.5-2.7-6.2-7.5h-22.3l-9.8 55.6h-16.5l12.7-72.2h45.7l14.1 17.2zm71.7 45.4h-55l-14.1-17.2 1.7-9.9 20.3-17.2h38.5l.6-3.7-6.2-7.5h-42l2.9-16.6h48.8l14.2 17.2zm-49.9-22.2 4.6 5.6h31.6l2-11.3h-31.5zm85.8 22.2-17.3-72.2h18l11.9 49.8 29.5-49.8h18l-42.8 72.2zm129-19.6-23.1 19.6h-33l-16.1-19.6 5.8-33 23-19.6h33l16.2 19.6zm-51.1-26.2-3.4 19.3 8.1 9.9h19.3l11.6-9.9 3.4-19.3-8.1-9.9h-19.2zm-326.5 90.3-3.8 3.2-.9 5 2.6 3.2h14l1.3-7.2h8.8l-1.1 7.2h7.3l-1.6 8.8h-7.3l-1.4 8.3 2.6 3.2h4.1l-1.6 8.8h-7.7l-3.3-4-4.7 4h-18l-6.9-8.4 2.2-12.3 4.7-4-3.3-3.9 2.2-12.3 9.9-8.4h22.1l-1.6 8.8zm-7.4 23.5-.9 5 2.6 3.2h10.8l3.8-3.2 1.4-8.3h-14z"/><path d="m7810.7 319.5-4.7 3.9 3.2 4-2.2 12.3-9.8 8.4h-29.3l8.7-49.4h29.4l6.9 8.4zm-32.4 19.8h16.9l3.8-3.2.9-5-2.6-3.2h-17zm3.6-20.3h16.9l3.8-3.2.9-5-2.6-3.2h-17.1zm75.1.5-9.8 8.4h-3.2l8 20.3h-10.3l-8-20.3h-7.2l-3.6 20.3h-8.8l8.7-49.4h29.4l6.9 8.4zm-28.9-.5h16.9l3.8-3.2.9-5-2.6-3.2h-17zm70.1 20.7-9.8 8.4h-21l-6.9-8.4 5.7-32.6 9.9-8.4h21l6.9 8.4zm-23.8-29-4.5 25.3 2.6 3.2h13.7l3.8-3.2 4.5-25.3-2.6-3.2h-13.7zm57-3.1-7.2 40.6h-8.8l7.2-40.6h-13l1.6-8.8h34.8l-1.6 8.8zm40.8 40.5 3.6-20.3h-18.7l-3.6 20.3h-8.8l8.7-49.4h8.8l-3.5 20.3h18.7l3.6-20.3h8.8l-8.8 49.4zm33.2-40.5-2 11.5h24.6l-1.6 8.8h-24.5l-2 11.5h24.6l-1.6 8.8h-33.4l8.7-49.4h33.4l-1.6 8.8zm68.9 11.9-9.8 8.4h-3.2l8 20.3h-10.3l-8-20.3h-7.2l-3.6 20.3h-8.8l8.7-49.4h29.4l6.9 8.4zm-28.9-.5h16.9l3.8-3.2.9-5-2.6-3.2h-17zm74.3-7.2h-8.8l.2-1.1-2.6-3.2h-13.8l-3.8 3.2-.9 5 2.6 3.2h17.4l6.9 8.4-2.2 12.3-9.8 8.4h-20.9l-6.9-8.4.8-4.7h8.8l-.2 1.1 2.6 3.2h13.7l3.8-3.2.9-5-2.6-3.2h-17.4l-6.9-8.4 2.2-12.3 9.9-8.4h21l6.9 8.4z"/><path d="m7767.7 407.1-11.1 9.4h-3.6l9 22.8h-11.4l-9-22.8h-8.1l-4.1 22.8h-9.9l9.8-55.6h33.1l7.7 9.5zm-32.5-.5h19.1l4.3-3.6 1-5.7-3-3.6h-19.2zm53.6-12.9-2.3 12.9h27.7l-1.7 9.9h-27.7l-2.3 12.9h27.7l-1.8 9.9h-37.6l9.8-55.6h37.7l-1.7 9.9h-27.8zm78.2 4.8h-10l.2-1.2-3-3.6h-15.4l-4.3 3.6-1 5.7 3 3.6h19.6l7.7 9.5-2.3 13.9-11.1 9.5h-23.7l-7.8-9.5.9-5.3h9.9l-.2 1.2 3 3.6h15.5l4.3-3.6 1-5.7-3-3.6h-19.6l-7.8-9.4 2.5-13.9 11.1-9.5h23.7l7.7 9.5zm19.5-4.8-2.3 12.9h27.8l-1.7 9.9h-27.8l-2.3 12.9h27.8l-1.8 9.9h-37.7l9.8-55.6h37.7l-1.7 9.9h-27.8zm63.5 45.7-1.4-9.8h-19.1l-4.8 9.8h-10.5l27.7-55.6h10.5l8.1 55.6zm-2.9-19.7-2.9-19.8-9.9 19.8h12.7zm69.6-12.6-11.1 9.4h-3.6l9 22.8h-11.5l-9-22.8h-8.1l-4.1 22.8h-9.9l9.8-55.6h33.1l7.7 9.5zm-32.5-.5h19.1l4.3-3.6 1-5.7-3-3.6h-19.2zm84.5-8.1h-9.9l.2-1.2-3-3.6h-15.5l-4.3 3.6-5 28.5 3 3.6h15.5l4.3-3.6.2-1.2h9.9l-.9 5.3-11.1 9.5h-23.7l-7.8-9.5 6.5-36.7 11.1-9.5h23.7l7.7 9.5zm32.1 40.9 4.1-22.8h-21.1l-4.1 22.8h-9.9l9.8-55.6h9.9l-4 22.8h21.1l4-22.8h9.9l-9.8 55.6z"/><path d="m7799.8 499.7h-16.6l.4-2-5-6h-25.8l-7.1 6-1.7 9.5 5 6h32.7l12.9 15.8-4.1 23.2-18.5 15.8h-39.5l-13-15.8 1.5-8.8h16.6l-.3 2 5 6h25.7l7.1-6 1.7-9.5-5-6h-32.6l-13-15.7 4.1-23.2 18.6-15.8h39.6l12.9 15.8zm83.2 14.4-18.5 15.7h-38.8l-6.7 38.2h-16.6l16.4-93h55.4l12.9 15.8zm-54.4-.9h31.9l7.1-6 1.7-9.5-5-6h-31.8zm102.2 54.8-2.4-16.3h-31.9l-8.1 16.3h-17.5l46.3-93h17.5l13.5 93zm-4.8-32.9-4.8-33.1-16.5 33.1h21.2zm113.3-35.4h-16.6l.4-2-5-6h-25.8l-7.1 6-8.4 47.7 5 6h25.8l7.1-6 .3-2h16.6l-1.5 8.8-18.6 15.8h-39.5l-13-15.8 10.8-61.4 18.6-15.8h39.6l12.9 15.8zm32-8-3.8 21.6h46.3l-2.9 16.6h-46.3l-3.8 21.6h46.3l-3 16.6h-62.9l16.4-93h62.9l-2.9 16.6z"/><path d="m9043.7 241h-9.3v-3.6l-8.4-8.4h-29.399l-8.401 8.4v51.6l8.401 8.4h29.399l8.4-8.4v-21.2h-22.2v-9.3h31.5v34.3l-13.8 13.9h-37.2l-13.9-13.9v-59.2l13.9-13.9h37.1l13.801 13.9v7.4zm14.901 65.7v-87h9.299v87zm80.199 0-5.4-16.7h-37.9l-5.3 16.6h-9.8l27.9-87h12.4l27.901 87h-9.801zm-8.3-26-16-49.7-16 49.7zm82.4 26-42.5-74.5v74.5h-9.4v-87h12.9l42.5 74.5v-74.5h9.3v87zm60.201-77.7v77.6h-9.301v-77.6h-25v-9.3h59.301v9.3zm-211.101 271.3v-72.6l-31 72.6h-11.7l-31.1-72.5v72.5h-9.3v-87h13.3l33 77 33-77h13.2v86.9h-9.4zm33.601-77.6v29.5h47.099v9.3h-47.099v29.5h47.099v9.3h-56.4v-87h56.5v9.3h-47.199zm94.5 0v77.6h-9.301v-77.6h-25v-9.3h59.2v9.3h-25zm78.399 77.6-5.3-16.6h-38l-5.3 16.6h-9.799l27.899-87h12.4l27.9 86.9h-9.8zm-8.3-26-16-49.7-16 49.7zm87 16.7v9.3h-56.5v-87h9.3v77.7h47.101z"/><path d="m9024.4 373.9h-5.099v-19.2l-3.601-3.6h-8l-3.599 3.6v19.2h-5.101v-19.2l-3.6-3.6h-11.5v22.8h-5.099v-27.8h18.8l4 4 4-4h12.2l6.5 6.6v21.3zm32.5 0h-21.299l-6.601-6.5v-3.4l6.601-6.6h16.2v-2.7l-3.601-3.6h-16.599v-5.1h18.799l6.5 6.6zm-22.4-8.2 3.2 3.2h14.101v-6.3h-14.101zm36.801-14.6-3.601 3.6v10.6l3.601 3.6h15.399v5.1h-17.5l-6.5-6.5v-14.9l6.5-6.6h17.5v5.1zm45.8 5.1h-5.101v-1.5l-3.6-3.6h-10.299v22.8h-5.101v-27.8h17.5l6.5 6.6v3.6zm32.5 10.5-7.3 7.3h-13.301l-7.3-7.3v-13.3l7.3-7.3h13.301l7.3 7.3zm-22.8-11.2v9.1l4.3 4.3h9.099l4.3-4.3v-9.1l-4.3-4.3h-9.099zm35.699-4.4-3.199 3.2 3.199 3.2h13.9l5.3 5.3v4.6l-6.5 6.5h-21.3v-5.1h19.201l3.599-3.6v-.4l-2.3-2.3h-13.9l-6.5-6.5v-3.4l6.5-6.6h20v5.1zm32.2 0-3.599 3.6v10.6l3.599 3.6h15.401v5.1h-17.5l-6.5-6.5v-14.9l6.5-6.6h17.5v5.1zm47.901 15.6-7.3 7.3h-13.301l-7.3-7.3v-13.3l7.3-7.3h13.301l7.3 7.3zm-22.8-11.2v9.1l4.3 4.3h9.099l4.3-4.3v-9.1l-4.3-4.3h-9.099zm28.899-9.4h20.601l7.3 7.3v13.3l-7.3 7.3h-15.601v12.6h-5.099v-40.5zm22.8 9.4-4.3-4.3h-13.5v17.7h13.401l4.299-4.3v-9.1zm11.101-17v-5.1h5.099v5.1zm0 35.4v-27.8h5.099v27.8zm19.799-22.8-3.599 3.6v10.6l3.599 3.6h15.401v5.1h-17.601l-6.5-6.5v-14.9l6.5-6.6h17.5v5.1zm114.1 149.2h-32.699l106-250.5h-152.101v-30.1h182.2v35.9zm324.601-160.9-44.701 44.6h-89.4l-27 26.9v59.3h161.101v30.1h-191.201v-101.8l44.701-44.5h89.399l27.101-27.1v-50.1l-27.101-27h-77l-27 27v11.6h-30.1v-24l44.701-44.7h101.799l44.701 44.7z"/><path d="m10689.1 160.7h-8.6v-1.9l-4.801-4.8h-18.5l-4.8 4.8v7.5l4.8 4.8h22l9.901 9.9v14.6l-9.901 9.9h-25.599l-9.901-9.9v-5.4h8.601v1.9l4.8 4.8h18.5l4.799-4.8v-7.5l-4.799-4.8h-22l-9.901-9.9v-14.6l9.901-9.9h25.599l9.901 9.9zm31.099-6.7v51.5h-8.599v-51.5h-16.5v-8.6h41.7v8.6zm70.901 15.9-9.901 9.9h-4.8l14.701 25.7h-9.901l-14.699-25.7h-12.2v25.7h-8.601v-60.1h35.5l9.901 9.9zm-36.8 1.3h23.3l4.799-4.8v-7.5l-4.799-4.8h-23.3v17.2zm90.7 24.4-9.9 9.9h-25.6l-9.9-9.9v-40.3l9.9-9.9h25.6l9.9 9.9zm-36.801-36.8v33.2l4.801 4.8h18.5l4.8-4.8v-33.2l-4.8-4.8h-18.4zm82 46.7-26.3-46v46h-8.599v-60.1h10.5l26.3 46v-46h8.599v60.1zm66.101-44.8h-8.601v-1.9l-4.8-4.8h-18.5l-4.799 4.8v33.2l4.799 4.8h18.5l4.8-4.8v-12.3h-14.699v-8.6h23.3v24.5l-9.901 9.9h-25.599l-9.901-9.9v-40.3l9.901-9.9h25.599l9.901 9.9zm-267.2 184.6h-8.6v-1.9l-4.801-4.8h-18.5l-4.8 4.8v7.5l4.8 4.8h22l9.901 9.9v14.6l-9.901 9.9h-25.599l-9.901-9.9v-5.4h8.601v1.9l4.8 4.8h18.5l4.799-4.8v-7.5l-4.799-4.8h-22l-9.901-9.9v-14.7l9.901-9.9h25.599l9.901 9.9v5.4zm31.099-6.7v51.4h-8.599v-51.4h-16.5v-8.6h41.7v8.6zm70.901 15.8-9.901 9.9h-4.8l14.701 25.7h-9.901l-14.699-25.7h-12.2v25.7h-8.601v-60h35.5l9.901 9.9v14.6zm-36.8 1.3h23.3l4.799-4.8v-7.5l-4.799-4.8h-23.3v17.2zm90.7 24.5-9.9 9.9h-25.6l-9.9-9.9v-40.4l9.9-9.9h25.6l9.9 9.9v40.3zm-36.801-36.8v33.2l4.801 4.8h18.5l4.8-4.8v-33.2l-4.8-4.8h-18.4zm82 46.6-26.3-46v46h-8.599v-60h10.5l26.3 46v-46h8.599v60zm66.101-44.7h-8.601v-1.9l-4.8-4.8h-18.5l-4.799 4.8v33.2l4.799 4.8h18.5l4.8-4.8v-12.3h-14.699v-8.6h23.3v24.5l-9.901 9.9h-25.599l-9.901-9.9v-40.4l9.901-9.9h25.599l9.901 9.9v5.4zm-267.2 184.5h-8.6v-1.9l-4.801-4.8h-18.5l-4.8 4.8v7.5l4.8 4.8h22l9.901 9.9v14.6l-9.901 9.9h-25.599l-9.901-9.9v-5.4h8.601v1.9l4.8 4.8h18.5l4.799-4.8v-7.5l-4.799-4.8h-22l-9.901-9.9v-14.6l9.901-9.9h25.599l9.901 9.9zm31.099-6.7v51.5h-8.599v-51.5h-16.5v-8.6h41.7v8.6zm70.901 15.9-9.901 9.9h-4.8l14.701 25.7h-9.901l-14.699-25.7h-12.2v25.7h-8.601v-60.1h35.5l9.901 9.9zm-36.8 1.3h23.3l4.799-4.8v-7.5l-4.799-4.8h-23.3v17.2zm90.7 24.4-9.9 9.9h-25.6l-9.9-9.9v-40.3l9.9-9.9h25.6l9.9 9.9zm-36.801-36.8v33.2l4.801 4.8h18.5l4.8-4.8v-33.2l-4.8-4.8h-18.4zm82 46.7-26.3-46v46h-8.599v-60.1h10.5l26.3 46v-46h8.599v60.1zm66.101-44.8h-8.601v-1.9l-4.8-4.8h-18.5l-4.799 4.8v33.2l4.799 4.8h18.5l4.8-4.8v-12.3h-14.699v-8.6h23.3v24.5l-9.901 9.9h-25.599l-9.901-9.9v-40.3l9.901-9.9h25.599l9.901 9.9z"/><path d="m10689.1 253h-8.6v-1.9l-4.801-4.8h-18.5l-4.8 4.8v7.5l4.8 4.8h22l9.901 9.9v14.6l-9.901 9.9h-25.599l-9.901-9.9v-5.4h8.601v1.9l4.8 4.8h18.5l4.799-4.8v-7.5l-4.799-4.8h-22l-9.901-9.9v-14.6l9.901-9.9h25.599l9.901 9.9zm31.099-6.7v51.5h-8.599v-51.5h-16.5v-8.6h41.7v8.6zm70.901 15.8-9.901 9.9h-4.8l14.701 25.7h-9.901l-14.699-25.7h-12.2v25.7h-8.601v-60h35.5l9.901 9.9v14.6zm-36.8 1.3h23.3l4.799-4.8v-7.5l-4.799-4.8h-23.3v17.2zm90.7 24.5-9.9 9.9h-25.6l-9.9-9.9v-40.3l9.9-9.9h25.6l9.9 9.9zm-36.801-36.8v33.2l4.801 4.8h18.5l4.8-4.8v-33.2l-4.8-4.8h-18.4zm82 46.7-26.3-46v46h-8.599v-60.1h10.5l26.3 46v-46h8.599v60.1zm66.101-44.8h-8.601v-1.9l-4.8-4.8h-18.5l-4.799 4.8v33.2l4.799 4.8h18.5l4.8-4.8v-12.3h-14.699v-8.6h23.3v24.5l-9.901 9.9h-25.599l-9.901-9.9v-40.3l9.901-9.9h25.599l9.901 9.9zm-267.2 184.6h-8.6v-1.9l-4.801-4.8h-18.5l-4.8 4.8v7.5l4.8 4.8h22l9.901 9.9v14.6l-9.901 9.9h-25.599l-9.901-9.9v-5.5h8.601v1.9l4.8 4.8h18.5l4.799-4.8v-7.5l-4.799-4.8h-22l-9.901-9.9v-14.6l9.901-9.9h25.599l9.901 9.9v5.4zm31.099-6.8v51.5h-8.599v-51.5h-16.5v-8.6h41.7v8.6zm70.901 15.9-9.901 9.9h-4.8l14.701 25.7h-9.901l-14.699-25.7h-12.2v25.7h-8.601v-60.1h35.5l9.901 9.9zm-36.8 1.3h23.3l4.799-4.8v-7.5l-4.799-4.8h-23.3zm90.7 24.4-9.9 9.9h-25.6l-9.9-9.9v-40.3l9.9-9.9h25.6l9.9 9.9zm-36.801-36.8v33.2l4.801 4.8h18.5l4.8-4.8v-33.1l-4.8-4.8h-18.4zm82 46.7-26.3-46v46h-8.599v-60.1h10.5l26.3 46v-46h8.599v60.1zm66.101-44.7h-8.601v-1.9l-4.8-4.8h-18.5l-4.799 4.8v33.2l4.799 4.8h18.5l4.8-4.8v-12.3h-14.699v-8.6h23.3v24.5l-9.901 9.9h-25.599l-9.901-9.9v-40.4l9.901-9.9h25.599l9.901 9.9v5.4z"/><path d="m12148.3 238.9h-18.901l.5-2.3-5.599-6.9h-29.3l-8.101 6.9-9.599 54.1 5.599 6.9h29.301l8.1-6.9.4-2.3h18.8l-1.7 10-21 17.9h-44.901l-14.799-17.9 12.299-69.6 21.101-17.8h44.899l14.701 17.9zm61.8 77.5-2.701-18.5h-36.299l-9.1 18.5h-19.8l52.4-105.4h19.9l15.3 105.4zm-5.5-37.4-5.4-37.5-18.7 37.5zm74.4-49.2-4.3 24.5h52.5l-3.301 18.8h-52.5l-7.699 43.3h-18.801l18.601-105.4h71.399l-3.299 18.8zm88 0-4.3 24.5h52.5l-3.301 18.8h-52.5l-4.299 24.5h52.5l-3.4 18.8h-71.301l18.601-105.4h71.399l-3.299 18.8zm14.5-24.5-6.601-8 25.201-21.5 6.6 8z"/><path d="m12086 486.7-5.7 4.8 4 4.8h28.9l9.9 12-1.9 11.1-17.2 14.7h-46.8l2.4-14.1h41l7.2-6.1-2.9-3.5h-28.9l-12.1-14.6 1.5-8.5 17.3-14.6h44.2l-2.4 14.1h-38.5zm58.6 47.4-12-14.6 8.3-46.9h14.1l-7.2 41 5.2 6.4h26.9l8.3-47.4h14.1l-10.9 61.5zm125.7-23.7h-47.4l-.6 3.2 5.3 6.4h35.7l-2.4 14.1h-41.5l-12.1-14.7 5.6-32.2 17.3-14.6h32.2l12 14.6zm-44.3-17.3-.6 3.1h33.3l.6-3.1-5.3-6.4h-20.5zm114.8 41h-14.1l7.2-41-5.3-6.4h-26.8l-8.3 47.4h-14.2l10.9-61.5h46.9l12 14.6zm-9.5-75.6 3.3-2.8.9-5.6h9.5l-1.6 9.5-9.9 8.3h-8.1l-9.2-11.2h-.3l-3.3 2.9-1 5.5h-9.4l1.7-9.4 9.8-8.4h8.1l9.3 11.2h.3zm86.6 58.9-19.6 16.7h-28.2l-13.7-16.7 5-28.1 19.6-16.7h28l13.8 16.7zm-43.5-22.3-2.9 16.4 6.9 8.4h16.4l9.9-8.4 2.9-16.4-6.9-8.4h-16.4zm-255.7-72.9 9.5-53.7-32.5 53.7h-8.6l-13.6-53.7-9.5 53.7h-6.9l11.4-64.4h9.8l14.3 57 34.5-57h9.9l-11.4 64.4zm59.4 0-1.8-12.3h-28.1l-6.1 12.3h-7.3l32.1-64.4h9.1l9.3 64.4h-7.3zm-2.8-19.2-5.3-36.9-18.3 36.8h23.7zm-12.5-48.6 1.2-6.9h7l-1.2 6.9h-6.9zm11.5 0 1.2-6.9h6.9l-1.2 6.9zm58.6 67.8-21.8-55.2-9.7 55.1h-6.9l11.4-64.4h9.6l21.7 55.1 9.7-55.1h6.9l-11.4 64.4h-9.6zm59 0-21.8-55.2-9.7 55.1h-6.9l11.4-64.4h9.6l21.8 55.1 9.7-55.1h6.9l-11.4 64.4h-9.6zm37.6-57.5-3.8 21.8h34.9l-1.2 6.9h-34.9l-3.9 21.8h34.9l-1.2 6.9h-41.8l11.4-64.4h41.8l-1.2 6.9h-35zm90.7 18.5-12 10.2h-6.2l11.4 28.7h-8l-11.4-28.7h-16.7l-5.1 28.7h-6.9l11.4-64.4h37.7l8.4 10.3zm-41.6 3.3h28l7.3-6.2 1.7-9.4-5.1-6.2h-28z"/><path d="m13271.5 175.7-5 28.4h-6.2l5-28.4h-9.1l1.1-6.2h24.4l-1.1 6.2zm32.2 4 4.8 5.9-3.3 18.6h-6.2l2.8-16-1.9-2.2h-9.8l-3.1 18.2h-6.2l6.1-34.6h6.2l-1.8 10.2h12.4zm32.5 15.3h-18.2v.7l1.9 2.2h14l-1.1 6.2h-16.7l-4.8-5.9 2.2-12.7 6.9-5.9h12.7l4.8 5.9zm-17-6.9v.7h12.1v-.7l-1.9-2.2h-7.6z"/><path d="m13391.4 204.2h-4.9v-16.3l-2.8-2.8h-6.399l-2.801 2.8v16.3h-4.899v-16.3l-2.8-2.8h-9.2v19h-4.901v-24h16.2l3.201 3.2 3.2-3.2h10.5l5.699 5.7v18.3zm27.901 0h-18.301l-5.699-5.7v-3.1l5.699-5.7h13.4v-1.8l-2.799-2.8h-14.101v-4.9h16.2l5.7 5.7v18.3zm-18.601-7.2 2.3 2.3h11.301v-4.6h-11.2zm48.5 7.2h-4.899v-16.3l-2.801-2.8h-11.3v19h-4.899v-24h18.3l5.7 5.7v18.3zm5.2-24h4.901v16.3l2.8 2.8h11.299v-19h4.901v24h-18.2l-5.701-5.7zm36.701 4.9-2.3 2.3 2.3 2.3h11.7l4.599 4.6v4.2l-5.7 5.7h-18.399v-4.9h16.3l2.799-2.8-1.7-1.7h-11.7l-5.699-5.7v-3.1l5.699-5.7h17.301v4.9h-15.2zm27.7 0-2.801 2.8v8.5l2.801 2.8h13.099v4.9h-15.2l-5.7-5.7v-12.6l5.7-5.7h15.101v4.9h-13zm39.3 3.9h-4.901v-1.1l-2.8-2.8h-8.2v19h-4.899v-24h15.099l5.701 5.7zm4.5-14.5v-4.9h4.899v4.9zm0 29.6v-24h4.899v24zm10.799-23.9h17.6l6.4 6.4v11.2l-6.4 6.4h-12.6v10.6h-4.9v-34.6zm19 8.4-3.5-3.5h-10.5v14.1h10.6l3.5-3.5v-7.1zm24.401-8.4v4.9h-9.5v11.3l2.8 2.8h6.7v4.9h-8.801l-5.699-5.7v-28.8h4.899v10.6h9.5zm15.8-5.7v-4.9h4.899v4.9zm0 29.6v-24h4.899v24zm17.7-19-2.301 2.3 2.301 2.3h11.699l4.601 4.6v4.2l-5.701 5.7h-18.4v-4.9h16.301l2.8-2.8-1.701-1.7h-11.7l-5.7-5.7v-3.1l5.7-5.7h17.3v4.9h-15.199zm46.5-4.9v4.9h-9.5v11.3l2.8 2.8h6.7v4.9h-8.801l-5.699-5.7v-28.8h4.899v10.6h9.5zm26.3 8.8h-4.901v-1.1l-2.8-2.8h-8.2v19h-4.899v-24h15.099l5.701 5.7zm26.399 15.2h-18.3l-5.7-5.7v-3.1l5.7-5.7h13.401v-1.8l-2.8-2.8h-14.101v-4.9h16.2l5.701 5.7v18.3zm-18.5-7.3 2.301 2.3h11.3v-4.6h-11.3zm48.4 7.3h-4.9v-16.3l-2.8-2.8h-11.3v19h-4.9v-24h18.301l5.699 5.7v18.3zm13-19.1-2.299 2.3 2.299 2.3h11.6l4.601 4.6v4.2l-5.701 5.7h-18.299v-4.9h16.299l2.8-2.8-1.7-1.7h-11.699l-5.7-5.7v-3.1l5.7-5.7h17.3v4.9h-15.201zm27.701 0-2.8 2.8v8.5l2.8 2.8h13.099v4.9h-15.2l-5.699-5.7v-12.6l5.699-5.7h15.101v4.9h-13zm39.299 3.9h-4.9v-1.1l-2.8-2.8h-8.2v19h-4.899v-24h15.099l5.7 5.7zm4.5-14.5v-4.9h4.901v4.9zm0 29.6v-24h4.901v24zm28.401-23.9 6.399 6.4v11.2l-6.399 6.4h-17.601v-34.6h4.901v10.6zm-12.7 19h10.599l3.5-3.5v-7.1l-3.5-3.5h-10.5v14.1zm47.5-4.6h-19v1.8l2.799 2.8h14.1v4.9h-16.199l-5.7-5.7v-12.6l5.7-5.7h12.599l5.701 5.7zm-19-6.7v1.8h14.099v-1.8l-2.8-2.8h-8.5zm47.5 16.3h-17.601l-6.399-6.4v-11.3l6.399-6.4h12.7v-10.5h4.901zm-19-8.4 3.5 3.5h10.599v-14.2h-10.7l-3.5 3.5v7.1zm58.799 2-6.4 6.4h-11.199l-6.401-6.4v-11.3l6.401-6.4h11.199l6.4 6.4v11.2zm-19-9.2v7.1l3.5 3.5h7.1l3.5-3.5v-7.1l-3.5-3.5h-7.1zm48.1 15.6h-4.899v-16.3l-2.8-2.8h-11.301v19h-4.899v-24h18.299l5.701 5.7v18.3zm19.7-24v4.9h-9.5v11.3l2.8 2.8h6.7v4.9h-8.8l-5.7-5.7v-28.8h4.901v10.6h9.5zm27.901 17.6-6.401 6.4h-11.2l-6.399-6.4v-11.3l6.399-6.4h11.2l6.401 6.4v11.2zm-19-9.2v7.1l3.5 3.5h7.099l3.5-3.5v-7.1l-3.5-3.5h-7.099zm-785.3 50.8v4.9h-9.5v11.3l2.8 2.8h6.7v4.9h-8.801l-5.699-5.7v-28.7h4.899v10.6h9.5zm23.699 0 5.7 5.7v18.3h-4.899v-16.2l-2.801-2.8h-11.3v19h-4.899v-34.5h4.899v10.6h13.401zm11.601-5.6v-4.9h4.899v4.9zm0 29.6v-24h4.899v24zm34.899 0h-4.899v-16.2l-2.8-2.8h-11.301v19h-5v-24h18.301l5.699 5.7zm23.5-19-2.3 2.3 2.3 2.3h11.7l4.601 4.6v4.2l-5.7 5.7h-18.3v-4.9h16.3l2.799-2.8-1.7-1.7h-11.7l-5.699-5.7v-3.1l5.699-5.7h17.301v4.9h-15.301zm21.301 19v-34.5h4.899v34.6h-4.899zm10.8-29.6v-4.9h4.899v4.9zm0 29.6v-24h4.899v24zm28.5 10.6h-14.101v-4.9h12l2.801-2.8v-2.9h-12.7l-6.401-6.4v-11.2l6.401-6.4h17.599v28.9zm-13.401-26.2v7.2l3.5 3.5h10.601v-14.1h-10.601zm43.3-8.4 5.7 5.7v18.3h-4.899v-16.2l-2.801-2.8h-11.399v19h-4.901v-34.5h4.901v10.6h13.399zm25.301 0v4.9h-9.5v11.3l2.8 2.8h6.7v4.9h-8.801l-5.699-5.7v-28.7h4.899v10.6h9.5zm5.5 24v-34.5h4.899v34.6h-4.899zm15 10.6 4.399-10.5-10-24.1h5.401l7.399 17.6 7.301-17.6h5.399l-14.599 34.6zm63.5-10.6-6.2-17.2-6.201 17.2h-5.5l-10-24h5.401l7.3 17.4 6.299-17.4h5.6l6.301 17.4 7.3-17.4h5.399l-10 24h-5.5zm40.899 0h-18.3l-5.7-5.7v-3.1l5.7-5.7h13.401v-1.8l-2.801-2.8h-14.1v-4.9h16.201l5.7 5.7v18.3zm-18.599-7.2 2.299 2.3h11.3v-4.6h-11.2zm46.5 7.2h-6.101l-5.6-7.8-5.599 7.8h-6.101l8.7-12-8.7-12h6.101l5.599 7.8 5.6-7.8h6.101l-8.701 12zm26-9.5h-19.101v1.8l2.801 2.8h14.199v4.9h-16.199l-5.7-5.7v-12.6l5.7-5.7h12.599l5.701 5.7zm-19-6.7v1.8h14.099v-1.8l-2.8-2.8h-8.5zm47.399 16.2h-17.6l-6.4-6.4v-11.2l6.4-6.4h12.701v-10.5h4.899v34.6zm-19-8.4 3.5 3.5h10.601v-14.1h-10.701l-3.5 3.5v7.1zm42.5-10.6-2.3 2.3 2.3 2.3h11.7l4.601 4.6v4.2l-5.7 5.7h-18.3v-4.9h16.3l2.799-2.8-1.7-1.7h-11.7l-5.699-5.7v-3.1l5.699-5.7h17.301v4.9h-15.301zm39.5-5 5.7 5.7v18.3h-4.899v-16.2l-2.801-2.8h-11.3v19h-4.899v-34.5h4.899v10.6h13.401zm34.7 14.5h-19v1.8l2.8 2.8h14.2v4.9h-16.399l-5.7-5.7v-12.6l5.7-5.7h12.599l5.701 5.7v8.8zm-19-6.7v1.8h14.101v-1.8l-2.801-2.8h-8.5zm47.401 6.7h-19v1.8l2.799 2.8h14.201v4.9h-16.3l-5.7-5.7v-12.6l5.7-5.7h12.599l5.701 5.7zm-19-6.7v1.8h14.099v-1.8l-2.8-2.8h-8.5zm38.399-7.8v4.9h-9.5v11.3l2.801 2.8h6.699v4.9h-8.8l-5.7-5.7v-28.7h4.9v10.6h9.6zm12.7 5-2.3 2.3 2.3 2.3h11.7l4.6 4.6v4.2l-5.699 5.7h-18.401v-4.9h16.3l2.8-2.8-1.699-1.7h-11.7l-5.701-5.7v-3.1l5.701-5.7h17.299v4.9h-15.2zm56 12.6-6.399 6.4h-11.101l-6.399-6.4v-11.2l6.399-6.4h11.2l6.401 6.4v11.2zm-19-9.2v7.2l3.5 3.5h7.101l3.5-3.5v-7.1l-3.5-3.5h-7.101zm31.7-14-2.799 2.8v2.9h9.5v4.9h-9.5v19h-4.901v-28.9l5.7-5.7h8.8v4.9h-6.7zm22.6 5.6h17.601l6.399 6.4v11.2l-6.399 6.4h-12.701v10.6h-4.9zm19 8.4-3.5-3.5h-10.6v14.1h10.6l3.5-3.4v-7.1zm32.601 15.6h-18.3l-5.7-5.7v-3.1l5.7-5.7h13.399v-1.8l-2.8-2.8h-14.099v-4.9h16.199l5.7 5.7v18.3zm-18.601-7.2 2.301 2.3h11.3v-4.6h-11.3zm24.601-16.8h17.599l6.401 6.4v11.2l-6.401 6.4h-12.7v10.6h-4.899zm19 8.4-3.5-3.5h-10.601v14.1h10.601l3.5-3.5zm33.399 6.1h-19v1.8l2.801 2.8h14.199v4.9h-16.199l-5.7-5.7v-12.6l5.7-5.7h12.599l5.701 5.7v8.8zm-19-6.7v1.8h14v-1.8l-2.8-2.8h-8.5zm45 1.1h-5v-1.1l-2.8-2.8h-8.2v19h-4.899v-24h15.099l5.7 5.7v3.1zm33.4-8.9 6.401 6.4v11.2l-6.401 6.4h-17.599v-34.5h4.899v10.6h12.7zm-12.7 19h10.601l3.5-3.5v-7.1l-3.5-3.5h-10.601zm26.2 15.6 4.401-10.5-10-24.1h5.399l7.401 17.6 7.299-17.6h5.401l-14.601 34.6zm-839.599 48.7h-18.301l-5.699-5.7v-3.1l5.699-5.7h13.4v-1.8l-2.799-2.8h-14.101v-4.9h16.2l5.7 5.7v18.3zm-18.601-7.2 2.3 2.3h11.301v-4.6h-11.2zm34.401-16.8h17.599l6.401 6.4v11.2l-6.401 6.4h-12.599v10.6h-4.901v-34.6zm19 8.4-3.5-3.5h-10.5v14.1h10.599l3.5-3.5v-7.1zm31 .4h-4.901v-1.1l-2.8-2.8h-8.2v19h-4.899v-24h15.099l5.701 5.7v3.1zm27.899 8.8-6.399 6.4h-11.101l-6.399-6.4v-11.2l6.399-6.4h11.2l6.401 6.4v11.2zm-19-9.2v7.1l3.5 3.5h7.101l3.5-3.5v-7.1l-3.5-3.5h-7.101zm31.7-14-2.8 2.8v2.9h9.5v4.9h-9.5v19h-4.9v-28.9l5.7-5.7h8.8v4.9h-6.699zm34.2 20.1h-19v1.8l2.8 2.8h14.2v4.9h-16.299l-5.701-5.7v-12.6l5.701-5.7h12.599l5.7 5.7zm-19-6.7v1.8h14.1v-1.8l-2.8-2.8h-8.5zm30.401-2.8-2.301 2.3 2.301 2.3h11.699l4.601 4.6v4.1l-5.701 5.7h-18.299v-4.9h16.299l2.8-2.8-1.7-1.7h-11.699l-5.7-5.7v-3.1l5.7-5.7h17.3v4.9zm27.5 0-2.301 2.3 2.301 2.3h11.699l4.601 4.6v4.1l-5.701 5.7h-18.299v-4.9h16.299l2.8-2.8-1.7-1.7h-11.699l-5.7-5.7v-3.1l5.7-5.7h17.199v4.9zm21.199-10.6v-4.9h5v4.9zm0 29.6v-24h5v24zm34.101-6.4-6.401 6.4h-11.2l-6.399-6.4v-11.2l6.399-6.4h11.2l6.401 6.4zm-19-9.2v7.1l3.5 3.5h7.099l3.5-3.5v-7.1l-3.5-3.5h-7.099zm48.2 15.6h-4.901v-16.3l-2.799-2.8h-11.3v19h-4.901v-24h18.3l5.7 5.7v18.3zm27.899 0h-18.3l-5.7-5.7v-3.1l5.7-5.7h13.401v-1.8l-2.801-2.8h-14.1v-4.9h16.201l5.7 5.7v18.3zm-18.599-7.2 2.299 2.3h11.3v-4.6h-11.2zm24.599 7.2v-34.6h4.901v34.6zm28.401-19-2.8 2.8v8.5l2.8 2.8h13.099v4.9h-15.099l-5.701-5.7v-12.6l5.701-5.7h15.099v4.9h-13.099zm40.799 19h-18.299l-5.701-5.7v-3.1l5.701-5.7h13.399v-1.8l-2.8-2.8h-14.099v-4.9h16.2l5.699 5.7v18.3zm-18.599-7.2 2.3 2.3h11.299v-4.6h-11.2zm24.599 7.2v-34.6h4.901v34.6zm10.8 0v-34.6h4.901v34.6zm10.901-29.6v-4.9h4.899v4.9zm0 29.6v-24h4.899v24zm28.399 10.6h-14v-4.9h12l2.801-2.8v-2.9h-12.7l-6.401-6.4v-11.2l6.401-6.4h17.599v28.9zm-13.399-26.2v7.1l3.5 3.5h10.599v-14h-10.5zm45.899.4h-5v-1.1l-2.8-2.8h-8.2v19h-4.899v-24h15.099l5.7 5.7v3.1zm26.4 15.2h-18.299l-5.701-5.7v-3.1l5.701-5.7h13.399v-1.8l-2.8-2.8h-14.099v-4.9h16.2l5.699 5.7v18.3zm-18.599-7.2 2.3 2.3h11.299v-4.6h-11.2zm24.599-16.8h17.6l6.4 6.4v11.2l-6.4 6.4h-12.699v10.6h-4.901zm19 8.4-3.5-3.5h-10.599v14.1h10.599l3.5-3.5zm28.401-8.4 5.699 5.7v18.3h-4.899v-16.3l-2.8-2.8h-11.301v19h-4.899v-34.5h4.899v10.6h13.4zm34.599 14.5h-19v1.8l2.8 2.8h14.2v4.9h-16.299l-5.701-5.7v-12.6l5.701-5.7h12.599l5.7 5.7zm-19-6.7v1.8h14.1v-1.8l-2.8-2.8h-8.5zm45 1h-4.9v-1.1l-2.8-2.8h-8.2v19h-4.899v-24h15.099l5.7 5.7v3.1zm1.5 15.2v-4.9h4.901v4.9zm35.201-29.6v29.6h-4.901v-29.6h-9.5v-4.9h24v4.9h-9.5zm33 5.6 5.7 5.7v18.3h-4.901v-16.3l-2.799-2.8h-11.3v19h-4.901v-34.5h4.901v10.6h13.399zm34.7 14.5h-19v1.8l2.8 2.8h14.2v4.9h-16.401l-5.7-5.7v-12.6l5.7-5.7h12.6l5.7 5.7v8.8zm-19-6.7v1.8h14.099v-1.8l-2.799-2.8h-8.5zm34.8-7.8h17.599l6.401 6.4v11.2l-6.401 6.4h-12.7v10.6h-4.899zm19 8.4-3.5-3.5h-10.601v14.1h10.601l3.5-3.5zm32.599 15.6h-18.3l-5.7-5.7v-3.1l5.7-5.7h13.401v-1.8l-2.801-2.8h-14.1v-4.9h16.201l5.7 5.7v18.3zm-18.599-7.2 2.299 2.3h11.3v-4.6h-11.2zm24.599-16.8h17.601l6.399 6.4v11.2l-6.399 6.4h-12.7v10.6h-4.901zm19 8.4-3.5-3.5h-10.599v14.1h10.599l3.5-3.5zm33.401 6.1h-19v1.8l2.799 2.8h14.201v4.9h-16.201l-5.7-5.7v-12.6l5.7-5.7h12.6l5.7 5.7v8.8zm-19-6.7v1.8h14.099v-1.8l-2.8-2.8h-8.5zm45 1h-4.901v-1.1l-2.8-2.8h-8.2v19h-4.899v-24h15.099l5.701 5.7v3.1zm-876.3 44.9v-4.9h4.899v4.9zm0 29.6v-24h4.899v24zm17.599-19.1-2.299 2.3 2.299 2.3h11.701l4.599 4.6v4.2l-5.7 5.7h-18.3v-4.9h16.3l2.801-2.8-1.7-1.7h-11.701l-5.7-5.7v-3.1l5.7-5.7h17.3v4.9h-15.3zm32.1-4.9h17.601l6.399 6.4v11.2l-6.399 6.4h-12.601v10.6h-5zm19 8.4-3.5-3.5h-10.5v14.1h10.601l3.5-3.5v-7.1zm10.2 15.6v-34.6h4.901v34.6zm32.901 0h-18.3l-5.7-5.7v-3.1l5.7-5.7h13.399v-1.8l-2.8-2.8h-14.2v-4.9h16.2l5.701 5.7zm-18.601-7.2 2.301 2.3h11.3v-4.6h-11.3zm31.2-11.9-2.8 2.8v8.5l2.8 2.8h13.101v5h-15.101l-5.7-5.7v-12.6l5.7-5.7h15.101v4.9zm41.101 9.6h-19v1.8l2.8 2.8h14.2v4.9h-16.301l-5.699-5.7v-12.6l5.699-5.7h12.601l5.7 5.7zm-19-6.7v1.8h14.099v-1.8l-2.799-2.8h-8.5zm47.399 16.2h-17.599l-6.401-6.4v-11.2l6.401-6.4h12.7v-10.6h4.899zm-19-8.4 3.5 3.5h10.601v-14.2h-10.7l-3.5 3.5v7.1zm42.5-21.2-2.8 2.8v2.8h9.5v4.9h-9.5v19h-4.9v-28.8l5.7-5.7h8.8v4.9h-6.699zm33.7 29.6h-18.299l-5.701-5.7v-3.1l5.701-5.7h13.399v-1.8l-2.8-2.8h-14.099v-4.9h16.2l5.699 5.7v18.3zm-18.599-7.2 2.3 2.3h11.299v-4.6h-11.2zm31.3-11.9-2.8 2.8v8.5l2.8 2.8h13.099v5h-15.2l-5.699-5.7v-12.6l5.699-5.7h15.101v4.9zm41 9.6h-19v1.8l2.799 2.8h14.1v4.9h-16.199l-5.7-5.7v-12.6l5.7-5.7h12.599l5.701 5.7zm-19-6.7v1.8h14.099v-1.8l-2.8-2.8h-8.5zm58.799 16.2h-17.599l-6.401-6.4v-11.2l6.401-6.4h12.699v-10.6h4.9zm-19-8.4 3.5 3.5h10.6v-14.2h-10.6l-3.5 3.5v7.1zm48.201 2-6.401 6.4h-11.2l-6.399-6.4v-11.2l6.399-6.4h11.2l6.401 6.4zm-19-9.2v7.1l3.5 3.5h7.099l3.5-3.5v-7.1l-3.5-3.5h-7.099zm48.399 15.6-6.199-17.2-6.2 17.2h-5.5l-10-24h5.399l7.301 17.4 6.3-17.4h5.599l6.3 17.4 7.301-17.4h5.199l-10 24zm43.9 0h-4.9v-16.3l-2.8-2.8h-11.3v19h-4.9v-23.9h18.301l5.699 5.7v18.3zm39.8-6.4-6.399 6.4h-11.2l-6.401-6.4v-11.2l6.401-6.4h11.2l6.399 6.4zm-19-9.2v7.1l3.5 3.5h7.101l3.5-3.5v-7.1l-3.5-3.5h-7.101zm48.2 15.6h-4.9v-16.3l-2.8-2.8h-11.399v19h-4.901v-23.9h18.3l5.7 5.7zm39.8 0h-18.399l-5.7-5.7v-3.1l5.7-5.7h13.399v-1.8l-2.8-2.8h-14.099v-4.9h16.199l5.7 5.7zm-18.599-7.2 2.299 2.3h11.3v-4.6h-11.3zm52-16.8 6.399 6.4v11.2l-6.399 6.4h-17.601v-34.6h4.9v10.6zm-12.701 19h10.6l3.5-3.5v-7.1l-3.5-3.5h-10.6zm24.201 5v-34.6h4.899v34.6zm34.099-6.4-6.399 6.4h-11.101l-6.399-6.4v-11.2l6.399-6.4h11.2l6.401 6.4v11.2zm-19-9.2v7.1l3.5 3.5h7.101l3.5-3.5v-7.1l-3.5-3.5h-7.101zm31.2-3.5-2.799 2.8v8.5l2.799 2.8h13.1v5h-15.1l-5.7-5.7v-12.6l5.7-5.7h15.1v4.9zm28.3 4.6 7.401-9.5h6.2l-9.301 12 9.301 12h-6.2l-7.401-9.5h-4.8v9.5h-4.9v-34.6h4.9v20.1zm53.401 8.1-6.401 6.4h-11.2l-6.399-6.4v-11.2l6.399-6.4h11.2l6.401 6.4zm-19-9.2v7.1l3.5 3.5h7.099l3.5-3.5v-7.1l-3.5-3.5h-7.099zm48.2 15.6h-4.901v-16.3l-2.799-2.8h-11.3v19h-4.901v-23.9h18.3l5.7 5.7v18.3zm-730.101 59.3-6.2-17.2-6.199 17.2h-5.5l-10-24h5.399l7.3 17.4 6.301-17.4h5.599l6.3 17.4 7.3-17.4h5.4l-10 24h-5.5zm38.3-24 5.7 5.7v18.3h-4.899v-16.3l-2.801-2.8h-11.399v19h-4.901v-34.5h4.901v10.6zm11.601-5.7v-4.9h4.899v4.9zm0 29.6v-24h4.899v24zm17.799-19-2.799 2.8v8.5l2.799 2.8h13.1v4.9h-15.1l-5.7-5.7v-12.5l5.7-5.7h15.1v4.9zm36.901-4.9 5.699 5.7v18.3h-4.899v-16.3l-2.8-2.8h-11.401v19h-4.9v-34.5h4.9v10.6zm45.399 24h-18.3l-5.7-5.7v-3.1l5.7-5.7h13.401v-1.8l-2.801-2.8h-14.1v-4.9h16.201l5.7 5.7v18.3zm-18.5-7.3 2.3 2.3h11.301v-4.6h-11.301zm48.8-16.7v4.9h-9.5v11.3l2.801 2.8h6.699v4.9h-8.8l-5.7-5.7v-28.8h5v10.6zm23.801 0 5.699 5.7v18.3h-5v-16.3l-2.8-2.8h-11.3v19h-4.9v-34.5h4.9v10.6zm11.599-5.7v-4.9h4.901v4.9zm0 29.6v-24h4.901v24zm34.8.1h-4.899v-16.3l-2.801-2.8h-11.3v19h-4.899v-24h18.199l5.7 5.7v18.3zm15.8 0v-34.6h4.9v34.6zm32.9 0h-18.299l-5.701-5.7v-3.1l5.701-5.7h13.399v-1.8l-2.8-2.8h-14.2v-4.9h16.2l5.7 5.7zm-18.5-7.3 2.3 2.3h11.3v-4.6h-11.399zm26.1 17.9 4.4-10.5-10-24.1h5.401l7.399 17.6 7.3-17.6h5.4l-14.4 34.6zm45.801-20.2h-19v1.8l2.8 2.8h14.2v4.9h-16.301l-5.699-5.7v-12.5l5.699-5.7h12.601l5.7 5.7v8.8zm-19-6.7v1.8h14.099v-1.8l-2.799-2.8h-8.5zm45 1.1h-4.901v-1.1l-2.799-2.8h-8.201v19h-4.9v-24h15.101l5.7 5.7v3.1zm39.8 8.8-6.401 6.4h-11.2l-6.399-6.4v-11.2l6.399-6.4h11.2l6.401 6.4zm-19-9.2v7.1l3.5 3.5h7.099l3.5-3.5v-7.1l-3.5-3.5h-7.2zm31.599-14.1-2.8 2.8v2.9h9.6v4.9h-9.5v19h-4.899v-28.8l5.7-5.7h8.699v4.9h-6.699zm43.401 14.5h-4.901v-1.1l-2.8-2.8h-8.2v19h-4.899v-24h15.099l5.701 5.7v3.1zm4.399-14.5v-4.9h5v4.9zm0 29.6v-24h5v24zm17.9-19-2.799 2.8v8.5l2.799 2.8h13.1v4.9h-15.1l-5.7-5.7v-12.5l5.7-5.7h15.1v4.9zm41 9.5h-19v1.8l2.8 2.8h14.2v4.9h-16.299l-5.701-5.7v-12.5l5.701-5.7h12.599l5.7 5.7v8.8zm-19-6.7v1.8h14.1v-1.8l-2.8-2.8h-8.5zm34.8-7.7h17.601l6.399 6.4v11.2l-6.399 6.4h-12.601v10.6h-4.899v-34.6zm19 8.4-3.5-3.5h-10.5v14.1h10.601l3.5-3.5v-7.1zm32.7 15.6h-18.299l-5.701-5.7v-3.1l5.701-5.7h13.399v-1.8l-2.8-2.8h-14.2v-4.9h16.2l5.7 5.7zm-18.5-7.3 2.3 2.3h11.3v-4.6h-11.3zm31.401-11.8-2.301 2.3 2.301 2.3h11.699l4.601 4.6v4.2l-5.701 5.7h-18.299v-4.9h16.299l2.8-2.8-1.7-1.7h-11.699l-5.7-5.7v-3.2l5.7-5.7h17.3v4.9zm35.199-4.9v4.9h-9.5v11.3l2.801 2.8h6.699v4.9h-8.8l-5.7-5.7v-28.8h5v10.6zm28 14.4h-19v1.8l2.801 2.8h14.199v4.9h-16.3l-5.7-5.7v-12.5l5.7-5.7h12.601l5.699 5.7v8.8zm-19-6.7v1.8h14.101v-1.8l-2.8-2.8h-8.5zm53.101-7.7 5.7 5.7v18.3h-4.901v-16.3l-2.799-2.8h-11.3v19h-4.901v-34.5h4.901v10.6h13.399zm33.599 24h-18.3l-5.7-5.7v-3.1l5.7-5.7h13.401v-1.8l-2.801-2.8h-14.1v-4.9h16.201l5.7 5.7v18.3zm-18.599-7.2 2.299 2.3h11.3v-4.6h-11.3zm31.5-11.9-2.3 2.3 2.3 2.3h11.7l4.599 4.6v4.2l-5.7 5.7h-18.3v-4.9h16.3l2.8-2.8-1.699-1.7h-11.7l-5.701-5.7v-3.2l5.701-5.7h17.299v4.9h-15.2zm-772.201 54.4 6.401 6.4v11.2l-6.401 6.4h-17.599v-34.6h4.899v10.6zm-12.7 19h10.601l3.5-3.5v-7.1l-3.5-3.5h-10.5v14.1zm47.5-4.6h-19v1.8l2.8 2.8h14.2v4.9h-16.3l-5.7-5.7v-12.6l5.7-5.7h12.6l5.7 5.7zm-19-6.7v1.8h14.101v-1.8l-2.801-2.8h-8.5zm47.5 6.7h-19v1.8l2.8 2.8h14.2v4.9h-16.3l-5.7-5.7v-12.6l5.7-5.7h12.6l5.7 5.7zm-19-6.7v1.8h14.101v-1.8l-2.801-2.8h-8.5zm48.101 16.3h-4.901v-16.3l-2.799-2.8h-11.3v19h-4.901v-24h18.3l5.7 5.7v18.3zm30.3-24v4.9h-9.5v11.3l2.799 2.8h6.701v4.9h-8.8l-5.7-5.7v-28.8h4.899v10.6h9.5zm23.799 0 5.701 5.7v18.3h-4.901v-16.3l-2.8-2.8h-11.4v19h-4.899v-34.5h4.899v10.6zm11.6-5.7v-4.9h4.9v4.9zm0 29.6v-24h4.9v24zm34.801.1h-4.901v-16.3l-2.799-2.8h-11.3v19h-4.901v-24h18.3l5.7 5.7v18.3zm5.899 0v-34.6h4.901v34.6zm15.101 10.5 4.399-10.5-10-24.1h5.401l7.399 17.6 7.301-17.6h5.399l-14.399 34.6h-5.301zm43.3-29.6-2.3 2.3 2.3 2.3h11.7l4.599 4.6v4.2l-5.7 5.7h-18.3v-4.9h16.3l2.8-2.8-1.699-1.7h-11.801l-5.699-5.7v-3.1l5.699-5.7h17.301v4.9h-15.2zm21.2-4.9h17.599l6.401 6.4v11.2l-6.401 6.4h-12.7v10.6h-4.899zm19 8.4-3.5-3.5h-10.601v14.1h10.601l3.5-3.5zm31 .4h-4.901v-1.1l-2.799-2.8h-8.201v19h-4.9v-24h15.101l5.7 5.7v3.1zm27.899 5.6h-19v1.8l2.8 2.8h14.2v4.9h-16.3l-5.7-5.7v-12.6l5.7-5.7h12.6l5.7 5.7zm-19-6.7v1.8h14.101v-1.8l-2.801-2.8h-8.5zm46.7 16.3h-18.299l-5.701-5.7v-3.1l5.701-5.7h13.399v-1.8l-2.8-2.8h-14.099v-4.9h16.2l5.699 5.7v18.3zm-18.599-7.2 2.3 2.3h11.399v-4.7h-11.3zm47.5 7.2h-17.601l-6.399-6.4v-11.3l6.399-6.4h12.7v-10.5h4.901zm-19-8.4 3.5 3.5h10.599v-14.2h-10.599l-3.5 3.5v7.1zm58.8 8.4h-18.3l-5.7-5.7v-3.1l5.7-5.7h13.399v-1.8l-2.8-2.8h-14.099v-4.9h16.199l5.7 5.7v18.3zm-18.601-7.2 2.301 2.3h11.3v-4.7h-11.201zm48.5 7.2h-4.899v-16.3l-2.8-2.8h-11.301v19h-4.899v-24h18.299l5.701 5.7v18.3zm29 0h-17.6l-6.4-6.4v-11.3l6.4-6.4h12.701v-10.5h4.899zm-19-8.4 3.5 3.5h10.601v-14.2h-10.701l-3.5 3.5v7.1zm49.301-15.6v4.9h-9.5v11.3l2.8 2.8h6.7v4.9h-8.801l-5.699-5.7v-28.8h4.899v10.6h9.5zm23.699 0 5.7 5.7v18.3h-4.899v-16.3l-2.801-2.8h-11.399v19h-4.901v-34.5h4.901v10.6zm34.601 14.4h-19v1.8l2.799 2.8h14.1v4.9h-16.199l-5.7-5.7v-12.6l5.7-5.7h12.599l5.701 5.7zm-19-6.7v1.8h14.099v-1.8l-2.8-2.8h-8.5zm52.399-7.7 6.4 6.4v11.2l-6.4 6.4h-17.6v-34.6h4.901v10.6zm-12.699 19h10.599l3.5-3.5v-7.1l-3.5-3.5h-10.599zm46.8 5h-18.3l-5.7-5.7v-3.1l5.7-5.7h13.399v-1.8l-2.8-2.8h-14.2v-4.9h16.2l5.701 5.7zm-18.601-7.3 2.301 2.3h11.3v-4.6h-11.3zm31.301-11.8-2.801 2.8v8.5l2.801 2.8h13.099v4.9h-15.2l-5.7-5.7v-12.6l5.7-5.7h15.101v4.9h-13zm28.199 4.6 7.4-9.5h6.201l-9.3 12 9.3 12h-6.201l-7.4-9.5h-4.8v9.5h-4.899v-34.6h4.899v20.1zm-705.3 58.6h-4.899v-1.1l-2.801-2.8h-8.199v19h-4.901v-24h15.1l5.7 5.7v3.1zm4.401-8.9h4.899v16.3l2.801 2.8h11.3v-19h4.899v24h-18.199l-5.7-5.7zm47.5 0 6.399 6.4v11.2l-6.399 6.4h-17.601v-34.5h4.9v10.6h12.701zm-12.701 19h10.6l3.5-3.5v-7.1l-3.5-3.5h-10.6zm41.901-19 6.399 6.4v11.2l-6.399 6.4h-17.601v-34.5h4.901v10.6h12.7zm-12.7 19h10.599l3.5-3.5v-7.1l-3.5-3.5h-10.599zm47.5-4.5h-19.101v1.8l2.801 2.8h14.199v4.9h-16.199l-5.7-5.7v-12.6l5.7-5.7h12.599l5.701 5.7zm-19-6.7v1.8h14.099v-1.8l-2.8-2.8h-8.5zm47.399 16.2h-17.6l-6.4-6.4v-11.2l6.4-6.4h12.701v-10.5h4.899v34.6zm-19-8.4 3.5 3.5h10.601v-14.1h-10.601l-3.5 3.5zm62.7 8.4-6.2-17.2-6.199 17.2h-5.5l-10-24h5.399l7.3 17.4 6.301-17.4h5.599l6.3 17.4 7.3-17.4h5.4l-10 24h-5.5zm20-29.6v-4.9h4.901v4.9zm0 29.6v-24h4.901v24zm25.3-24v4.9h-9.5v11.3l2.801 2.8h6.699v4.9h-8.8l-5.7-5.7v-28.7h5v10.6h9.5zm23.7 0 5.7 5.7v18.3h-4.9v-16.2l-2.8-2.8h-11.3v19h-4.9v-34.5h4.9v10.6h13.401zm45.5 24h-18.3l-5.7-5.7v-3.1l5.7-5.7h13.401v-1.8l-2.801-2.8h-14.1v-4.9h16.1l5.7 5.7zm-18.599-7.2 2.299 2.3h11.3v-4.6h-11.2zm42.2-22.4-2.801 2.8v2.9h9.5v4.9h-9.5v19h-4.899v-28.9l5.7-5.7h8.699v4.9h-6.699zm12.099 29.6v-34.5h4.901v34.6h-4.901zm32.901 0h-18.301l-5.699-5.7v-3.1l5.699-5.7h13.4v-1.8l-2.799-2.8h-14.101v-4.9h16.2l5.7 5.7v18.3zm-18.601-7.2 2.3 2.3h11.301v-4.6h-11.2zm38.3-16.8v4.9h-9.5v11.3l2.801 2.8h6.699v4.9h-8.8l-5.7-5.7v-28.7h4.9v10.6h9.6zm15.801 0h17.599l6.401 6.4v11.2l-6.401 6.4h-12.7v10.6h-4.899zm19 8.4-3.5-3.5h-10.601v14.1h10.601l3.5-3.5zm32.699 15.6h-18.3l-5.7-5.7v-3.1l5.7-5.7h13.401v-1.8l-2.8-2.8h-14.2v-4.9h16.2l5.699 5.7zm-18.6-7.2 2.3 2.3h11.3v-4.6h-11.3zm24.5 7.2v-34.5h4.901v34.6h-4.901zm49.701 0h-4.901v-16.2l-2.8-2.8h-6.4l-2.8 2.8v16.3h-4.899v-16.3l-2.801-2.8h-9.199v19h-4.901v-24h16.201l3.2 3.2 3.199-3.2h10.5l5.7 5.7v18.3zm5.899-9.5v-4.9h17.601v4.9zm31.301-20.1-2.801 2.8v2.9h9.5v4.9h-9.5v19h-4.899v-28.9l5.7-5.7h8.699v4.9h-6.699zm12.199 0v-4.9h4.9v4.9zm0 29.6v-24h4.9v24zm28.4-24 6.401 6.4v11.2l-6.401 6.4h-17.599v-34.5h4.899v10.6h12.7zm-12.7 19h10.601l3.5-3.5v-7.1l-3.5-3.5h-10.5v14.1zm45.101-10.1h-4.901v-1.1l-2.799-2.8h-8.201v19h-4.9v-24h15.101l5.7 5.7v3.1zm27.899 5.6h-19v1.8l2.8 2.8h14.2v4.9h-16.3l-5.7-5.7v-12.6l5.7-5.7h12.6l5.7 5.7zm-19-6.7v1.8h14.101v-1.8l-2.801-2.8h-8.5zm52.5-7.8 6.401 6.4v11.2l-6.401 6.4h-17.599v-34.5h4.899v10.6h12.7zm-12.7 19h10.601l3.5-3.5v-7.1l-3.5-3.5h-10.601zm45-10.1h-4.899v-1.1l-2.8-2.8h-8.2v19h-4.901v-24h15.101l5.699 5.7v3.1zm4.5-8.9h4.9v16.3l2.8 2.8h11.3v-19h4.9v24h-18.299l-5.701-5.7v-18.4zm36.7 5-2.3 2.3 2.3 2.3h11.7l4.6 4.6v4.2l-5.699 5.7h-18.301v-4.9h16.301l2.8-2.8-1.701-1.7h-11.7l-5.7-5.7v-3.1l5.7-5.7h17.3v4.9h-15.199zm39.5-5 5.7 5.7v18.3h-4.9v-16.2l-2.8-2.8h-11.3v19h-4.9v-34.5h4.9v10.6h13.401zm11.601 24v-4.9h4.899v4.9zm10.8 0v-4.9h4.899v4.9zm10.899 0v-4.9h4.9v4.9z"/></svg>