<svg viewBox="0 0 14400 720" xmlns="http://www.w3.org/2000/svg"><path d="M0 720h1440V0H0z" fill="#f9f9f9"/><path d="M617.2 402.6l-6.7-16.6H569l-6.8 16.5H544l38.6-94.1h14l38.6 94.1h-18zm-13.7-33.3l-13.8-33.6-13.7 33.5h27.6zM717 402.6h-16.8v-6a37.071 37.071 0 01-6.5 3.3 43.212 43.212 0 01-15.5 2.8 42.585 42.585 0 01-15.4-2.8 36.395 36.395 0 01-12.5-8.1 35.107 35.107 0 01-8.1-12.5 41.894 41.894 0 01-2.8-15.5 41.202 41.202 0 012.8-15.4 35.301 35.301 0 0120.6-20.6 41.202 41.202 0 0115.4-2.8 41.813 41.813 0 0115.5 2.8 32.997 32.997 0 016.5 3.3v-33.7H717zm-54.8-54.8c-3.9 3.8-6 9.4-6 16s2.1 12.2 6 16.1c3.9 3.9 9.4 5.9 16 5.9s12.2-2 16.1-5.9c3.9-3.9 5.9-9.4 5.9-16.1 0-6.7-2-12.2-5.9-16-3.9-3.8-9.4-6-16.1-6-6.7 0-12.2 2.1-16 6zm91.7-45.3a8.4 8.4 0 11-16.8 0 8.4 8.4 0 0116.8 0zm-16.8 100.1V325h16.8v77.6zm74.6-77.6v16.8h-22.1V372a21.392 21.392 0 001.9 9.3 16.293 16.293 0 004.8 6.2l6.7 5.1-10.2 13.3-6.7-5.1a32.499 32.499 0 01-9.9-12.4 38.403 38.403 0 01-3.4-16.3v-63.6h16.8V325zm67.5 77.6v-6a39.455 39.455 0 01-6.5 3.3 44.703 44.703 0 01-30.9 0 35.8 35.8 0 01-20.6-20.6 43.212 43.212 0 01-2.8-15.5 42.585 42.585 0 012.8-15.4 35.6 35.6 0 018.1-12.5 34.3 34.3 0 0112.4-8.1 43.7 43.7 0 0130.9 0 34.9 34.9 0 016.5 3.3V325H896v77.6zm-38-54.8c-3.8 3.8-5.9 9.4-5.9 16s2.1 12.2 5.9 16.1c3.8 3.9 9.4 5.9 16.1 5.9 6.7 0 12.2-2 16.1-5.9 3.9-3.9 5.9-9.4 5.9-16.1 0-6.7-2.1-12.2-5.9-16-3.8-3.8-9.4-6-16.1-6-6.7 0-12.3 2.1-16.2 6z" fill="#bf9e77"/><path d="M1440 720h1440V0H1440z" fill="#0c0c0c"/><path d="M1903.7 333.5a10 10 0 00-6.5 2.1 10.504 10.504 0 00-3.3 6.2c-.3 1.9-.3 4.4 1.1 6.2 1.4 1.8 3.9 2.1 5.8 2.1h20.8a28 28 0 0110.8 2 19.902 19.902 0 018.1 6 20.6 20.6 0 014.4 9.2 28.012 28.012 0 010 11 33.585 33.585 0 01-3.9 11 31.585 31.585 0 01-7.6 9.2 33.107 33.107 0 01-10.2 6 33.597 33.597 0 01-11.4 2h-49l3.5-19.9h49a10.298 10.298 0 006.6-2.1 9.7 9.7 0 003.2-6.2c.3-1.9.5-4.4-1-6.2-1.5-1.8-4-2.1-5.8-2.1h-21.1a27 27 0 01-10.6-2 20.103 20.103 0 01-8.2-6 21.297 21.297 0 01-4.4-9.2 29.196 29.196 0 01-.1-11 35.308 35.308 0 014-11 32.714 32.714 0 017.6-9.2 33.411 33.411 0 0110.3-6 32.996 32.996 0 0111.3-2h45.1l-3.5 19.9zm128.4-15.6a33.101 33.101 0 0113.7 12.5l-17.8 12.3a17.8 17.8 0 00-7.3-6.7 28.097 28.097 0 00-12.3-2.5c-8 0-15.1 2.5-20.6 7.2-5.5 4.7-9.1 11.3-10.5 19.3-1.4 8-.1 14.7 3.7 19.4 3.8 4.7 10.1 7.2 18.1 7.2 4.489.037 8.94-.813 13.1-2.5a29.2 29.2 0 009.7-6.7l13.5 12.3a54.81 54.81 0 01-18.2 12.5 56 56 0 01-21.7 4.3 46.799 46.799 0 01-17.9-3.3 33.4 33.4 0 01-20.2-24.6 48.182 48.182 0 01-.1-18.5 58.204 58.204 0 016.6-18.5 53.572 53.572 0 0112.3-14.9 52.888 52.888 0 0116.6-9.7 56.512 56.512 0 0119.1-3.3 45.508 45.508 0 0120.2 4.2zm13.7 88.6l16.3-92.9h19.9l-16.3 92.9zm72.6-73l-2.9 16.6h52.2l-3.6 19.9H2112l-2.9 16.6h52.2l-3.5 19.9h-72.1l16.3-92.9h72.1l-3.5 19.9zm121.7 73l-32.5-56.5-10 56.5h-19.8l16.3-92.9h17.5l32.5 56.5 10-56.5h19.9l-16.3 92.9zm115.2-88.6a33.101 33.101 0 0113.7 12.5l-17.9 12.3a17.8 17.8 0 00-7.3-6.7 28.097 28.097 0 00-12.3-2.5c-8 0-15.1 2.5-20.6 7.2-5.5 4.7-9.1 11.3-10.5 19.3-1.4 8-.1 14.7 3.7 19.4 3.8 4.7 10.1 7.2 18.1 7.2 4.489.037 8.94-.813 13.1-2.5a29.2 29.2 0 009.7-6.7l13.5 12.3a54.81 54.81 0 01-18.2 12.5 56 56 0 01-21.7 4.3 46.799 46.799 0 01-17.9-3.3 33.4 33.4 0 01-20.2-24.6 48.182 48.182 0 01-.1-18.5 58.09 58.09 0 016.6-18.5 53.572 53.572 0 0112.3-14.9 52.888 52.888 0 0116.6-9.7 56.512 56.512 0 0119.1-3.3c7-.181 13.947 1.257 20.3 4.2zm46.4 15.6l-2.9 16.6h52.2l-3.5 19.9h-52.3l-2.9 16.6h52.2l-3.5 19.9h-72l16.3-92.9h72.1l-3.5 19.9zm-574.4-129.4a25.497 25.497 0 019.7 7.6l-6.5 5a17.105 17.105 0 00-6.7-5.2 22.7 22.7 0 00-9.6-2 22.994 22.994 0 00-8.5 1.5 17.5 17.5 0 00-10.4 10.4 24.895 24.895 0 000 17.1 17.5 17.5 0 0010.4 10.4 24.895 24.895 0 0017.1 0 17.5 17.5 0 0010.4-10.4 19.913 19.913 0 001.2-4.5h-20.1v-8.2h28.6v4.2a31.913 31.913 0 01-2 11.5 26.002 26.002 0 01-15.1 15.1 33.296 33.296 0 01-23 0 26.002 26.002 0 01-15.1-15.1 33.296 33.296 0 010-23 25.999 25.999 0 0115.1-15.1 31.78 31.78 0 0111.5-2 30.9 30.9 0 0113 2.7zm54.8 9.4a21.496 21.496 0 0112.3 12.3 26.904 26.904 0 010 18.7 21.2 21.2 0 01-12.3 12.3 26.904 26.904 0 01-18.7 0 20.9 20.9 0 01-12.3-12.3 26.904 26.904 0 010-18.7 21.2 21.2 0 0112.3-12.3 26.904 26.904 0 0118.7 0zm-20.4 10.6c-2.7 2.7-4.1 6.5-4.1 11.1a14.199 14.199 0 0015.2 15.2c4.5 0 8.4-1.4 11.1-4.1a15.2 15.2 0 004.1-11c0-4.5-1.4-8.4-4.1-11.1-2.7-2.7-6.5-4.1-11.1-4.1a15.198 15.198 0 00-11.1 4.1zm42.6 34.5v-64.3h8.2v64.2h-8.2zm63 0h-8.2v-5a21.091 21.091 0 01-5.8 3.4 26.904 26.904 0 01-18.7 0 21.499 21.499 0 01-12.3-12.3 26.904 26.904 0 010-18.7 21.2 21.2 0 0112.3-12.3 26.904 26.904 0 0118.7 0 21.091 21.091 0 015.8 3.4v-22.8h8.2v64.2zm-34.4-34.4a15.196 15.196 0 00-4.1 11c0 4.5 1.4 8.4 4.1 11.1 2.7 2.7 6.5 4.1 11.1 4.1a15.2 15.2 0 0011-4.1c2.7-2.7 4.1-6.5 4.1-11.1A14.2 14.2 0 001944 220c-4.5 0-8.4 1.5-11.1 4.2zm75.3-10.7a21.499 21.499 0 0112.3 12.3 25.892 25.892 0 011.7 9.4v4.1h-38.1a14.003 14.003 0 003.7 6.9 15.205 15.205 0 0011 4.1 16.003 16.003 0 009.4-2.7l4.7 6.7a24.095 24.095 0 01-14.2 4.2 25.794 25.794 0 01-9.3-1.7 20.903 20.903 0 01-12.3-12.3 26.904 26.904 0 010-18.7 21.2 21.2 0 0112.3-12.3 26.901 26.901 0 0118.8 0zm-20.4 10.6a14.001 14.001 0 00-3.7 7h29.5a13.603 13.603 0 00-3.7-7c-2.7-2.7-6.5-4.1-11.1-4.1a15.198 15.198 0 00-11 4.2zm75.3-10.6a21.496 21.496 0 0112.3 12.3 25.892 25.892 0 011.7 9.4v23.3h-8.2v-23.3c0-4.5-1.4-8.4-4.1-11.1-2.7-2.7-6.5-4.1-11.1-4.1a15.196 15.196 0 00-11 4.1c-2.7 2.7-4.1 6.5-4.1 11.1v23.3h-8.2v-46.6h8.2v5a21.091 21.091 0 015.8-3.4 26.904 26.904 0 0118.7 0zm156 248.4a25.794 25.794 0 019.8 7.7l-8 6.3a15.697 15.697 0 00-6-4.7 20.596 20.596 0 00-8.7-1.8c-5.5 0-10.1 1.7-13.4 5-3.3 3.3-5 7.9-5 13.4s1.7 10.1 5 13.4c3.3 3.3 7.9 5 13.4 5 2.996.04 5.965-.574 8.7-1.8a15.697 15.697 0 006-4.7l8 6.3a25.9 25.9 0 01-9.8 7.7 31.404 31.404 0 01-13 2.7 31.818 31.818 0 01-11.4-2 25.9 25.9 0 01-15.1-15.1 33.096 33.096 0 010-22.9 25.9 25.9 0 0115.1-15.1 31.818 31.818 0 0111.4-2 31.407 31.407 0 0113 2.6zm41.5 17.6a12.503 12.503 0 00-13.4 13.4v23.6H2237v-47.2h10.2v3.7a20.289 20.289 0 014-2 25.112 25.112 0 019.4-1.7h5.1v10.2zm42.1-8.5a21.404 21.404 0 0112.5 12.5 25.112 25.112 0 011.7 9.4v5.1h-36.1a11.999 11.999 0 002.8 4.7c2.4 2.4 5.7 3.6 9.8 3.6a14.1 14.1 0 008.3-2.4l5.9 8.3a24.297 24.297 0 01-14.3 4.3 26.29 26.29 0 01-9.4-1.7 21.502 21.502 0 01-12.5-12.5 26.29 26.29 0 01-1.7-9.4 25.892 25.892 0 011.7-9.4 22.09 22.09 0 014.9-7.6 21.387 21.387 0 017.6-4.9 25.396 25.396 0 019.4-1.7c3.213-.04 6.404.537 9.4 1.7zm-19.1 12.1a11.799 11.799 0 00-2.8 4.6h25.2a11.503 11.503 0 00-2.9-4.6 14.9 14.9 0 00-19.5 0zm76 33.3v-3.7a23.98 23.98 0 01-4 2 27.206 27.206 0 01-18.8 0 21.802 21.802 0 01-12.5-12.5 26.29 26.29 0 01-1.7-9.4 25.892 25.892 0 011.7-9.4 21.693 21.693 0 014.9-7.6 20.793 20.793 0 017.6-4.9 26.604 26.604 0 0118.8 0c1.4.524 2.741 1.194 4 2v-3.7h10.2v47.2zm-23.1-33.3a15 15 0 000 19.5c2.4 2.4 5.7 3.6 9.8 3.6 4.1 0 7.4-1.2 9.8-3.6a15 15 0 000-19.5 14.9 14.9 0 00-19.6 0zm68-13.8v10.2H2391v18.4a12.994 12.994 0 001.1 5.6 9.904 9.904 0 002.9 3.8l4 3.1-6.2 8.1-4-3.1a19.801 19.801 0 01-6-7.6 23.387 23.387 0 01-2.1-9.9v-38.7h10.3v10.1h13.4zm19.2-13.7a5.102 5.102 0 01-8.706 3.606 5.1 5.1 0 118.706-3.606zm-10.2 60.8v-47.1h10.2v47.2h-10.2zm51.3-45.4a21.404 21.404 0 0112.5 12.5 25.112 25.112 0 011.7 9.4 25.4 25.4 0 01-1.7 9.4 21.396 21.396 0 01-4.9 7.6 22.1 22.1 0 01-7.6 4.9 25.892 25.892 0 01-9.4 1.7 26.29 26.29 0 01-9.4-1.7 21.502 21.502 0 01-12.5-12.5 26.29 26.29 0 01-1.7-9.4 25.892 25.892 0 011.7-9.4 22.09 22.09 0 014.9-7.6 21.387 21.387 0 017.6-4.9 25.396 25.396 0 019.4-1.7c3.213-.04 6.404.537 9.4 1.7zm-19.1 12.1c-2.4 2.3-3.6 5.7-3.6 9.7 0 4 1.2 7.4 3.6 9.8 2.4 2.4 5.7 3.6 9.8 3.6 4.1 0 7.4-1.2 9.7-3.6 5.018-5.444 4.846-13.876-.389-19.111-5.235-5.235-13.668-5.407-19.111-.389zm74.4-12.1a21.404 21.404 0 0112.5 12.5 25.112 25.112 0 011.7 9.4v23.6h-10.2v-23.7a13.8 13.8 0 00-23.1-9.7c-2.4 2.3-3.6 5.7-3.6 9.7v23.6h-10.2v-47.1h10.2v3.7a19.992 19.992 0 014-2 25.4 25.4 0 019.4-1.7c3.18-.028 6.336.549 9.3 1.7z" fill="#999"/><path d="M2880 720h1440V0H2880z" fill="#f9f9f9"/><path d="M3340.8 227.5a35.2 35.2 0 0113.1 10.3l-12.9 10a18.297 18.297 0 00-7-5.5 25.302 25.302 0 00-10.4-2.1c-6.6 0-12.1 2-15.9 5.9-3.8 3.9-5.9 9.3-5.9 15.9s2 12.1 5.9 15.9c3.9 3.8 9.3 5.9 15.9 5.9s12.1-2 15.9-5.9a19.292 19.292 0 004.7-7.7h-20.6v-16.3h38v8.1a42.203 42.203 0 01-2.7 15.2 35 35 0 01-20.2 20.2 43.604 43.604 0 01-30.3 0 35 35 0 01-20.2-20.2 43.604 43.604 0 010-30.3 35 35 0 0120.2-20.2 42.207 42.207 0 0115.2-2.7 41.198 41.198 0 0117.2 3.5zm70.8-3.5a29.106 29.106 0 0110.8 2 24.5 24.5 0 018.9 5.8 25.497 25.497 0 015.8 8.9 30.706 30.706 0 010 21.6 25.2 25.2 0 01-5.8 8.9 27.281 27.281 0 01-4.6 3.6L3439 300h-18.1l-10.3-21.3h-20.7V300h-16.3v-76zm-21.7 38.4h21.7c3.4 0 6.2-1 8.1-2.9a11.1 11.1 0 00-8.1-19.2h-21.7zm117.9 37.6l-5.3-12.8h-29.8l-5.2 12.8h-17.6l31.2-76h13l31.2 76zm-11.9-29.1l-8.3-19.9-8.2 19.9h16.4zm91.9 29.1l-34.7-46.3V300h-16.3v-76h14.3l34.8 46.3V224h16.3v76zm60.2-76a42.207 42.207 0 0115.2 2.7 35.004 35.004 0 0120.1 20.2 43.604 43.604 0 010 30.3 34.998 34.998 0 01-20.1 20.2 42.205 42.205 0 01-15.2 2.6h-29.5v-76zm-13.2 59.7h13.2c6.5 0 12-2 15.9-5.9 3.9-3.9 5.9-9.3 5.9-15.9s-2-12.1-5.9-15.9c-3.9-3.8-9.3-5.9-15.9-5.9h-13.2v43.5zM3428.9 322a24.59 24.59 0 019 1.6 21.303 21.303 0 017.5 4.9 22.102 22.102 0 014.9 7.5 25.799 25.799 0 010 18 22.81 22.81 0 01-3.4 5.9 22.81 22.81 0 013.4 5.9 25.799 25.799 0 010 18 22.102 22.102 0 01-4.9 7.5 21.29 21.29 0 01-7.5 4.9 24.59 24.59 0 01-9 1.6h-42.3V322zm-26 29.9h26a7.298 7.298 0 005.1-1.7 8.201 8.201 0 000-10.1 7.298 7.298 0 00-5.1-1.7h-26V352zm0 29.9h26a7.3 7.3 0 005.1-1.8 8.201 8.201 0 000-10.1 7.298 7.298 0 00-5.1-1.7h-26zm122.2-.1V398h-59v-76h16.3v59.7zm67.7 16.3l-5.3-12.8h-29.8l-5.2 12.8h-17.6l31.2-76h13l31.2 76zm-11.9-29.1l-8.3-19.9-8.2 19.9h16.4zm85.7-43.4a35.2 35.2 0 0113.1 10.3l-12.9 10a18.297 18.297 0 00-7-5.5 25.302 25.302 0 00-10.4-2.1c-6.6 0-12.1 2-15.9 5.9-3.8 3.9-5.9 9.3-5.9 15.9s2 12.1 5.9 15.9c3.9 3.8 9.3 5.9 15.9 5.9a25.302 25.302 0 0010.4-2.1 18.297 18.297 0 007-5.5l12.9 10a35.3 35.3 0 01-13.1 10.3 41.192 41.192 0 01-17.1 3.5 42.207 42.207 0 01-15.2-2.7 34.998 34.998 0 01-20.2-20.1 43.604 43.604 0 010-30.3 35 35 0 0120.2-20.2 42.207 42.207 0 0115.2-2.7 41.192 41.192 0 0117.1 3.5zm93.2 72.5h-19.7l-21.2-31-12.1 13.3V398h-16.3v-76h16.3v34l30.9-34h22.1l-29.7 32.6zm-239.9 22a29.395 29.395 0 0110.8 2 25.505 25.505 0 0114.6 14.6 30.695 30.695 0 010 21.6 24.5 24.5 0 01-5.8 8.9 26.297 26.297 0 01-8.9 5.8 30.59 30.59 0 01-10.8 1.9h-21.6V496h-16.3v-76zm-21.7 38.4h21.7c3.4 0 6.2-1 8.1-2.9a11.1 11.1 0 00-8.1-19.2h-21.7zM3602 496l-5.3-12.8h-29.8l-5.2 12.8h-17.6l31.2-76h13l31.2 76zm-12-29.1l-8.2-19.9-8.2 19.9zm99.9 12.8V496H3631v-76h16.3v59.7h42.7zm67.7 16.3l-5.3-12.8h-29.7l-5.3 12.8h-17.6l31.3-76h13l31.2 76zm-11.9-29.1l-8.2-19.9-8.2 19.9zm85.7-43.4a35.2 35.2 0 0113.1 10.3l-12.9 10a18.297 18.297 0 00-7-5.5 25.302 25.302 0 00-10.4-2.1c-6.6 0-12.1 2-15.9 5.9-3.8 3.9-5.9 9.3-5.9 15.9s2 12.1 5.9 15.9c3.9 3.8 9.3 5.9 15.9 5.9a25.302 25.302 0 0010.4-2.1 18.297 18.297 0 007-5.5l12.9 10a35.3 35.3 0 01-13.1 10.3 41.196 41.196 0 01-17.1 3.5 42.207 42.207 0 01-15.2-2.7 34.995 34.995 0 01-20.1-20.2 43.604 43.604 0 010-30.3 35 35 0 0120.2-20.2 42.207 42.207 0 0115.2-2.7 41.203 41.203 0 0117 3.6zm40.3 12.8v13.6h42.7v16.3h-42.7v13.6h42.7V496h-59v-76h59v16.3z" fill="#999"/><path d="M4320 720h1440V0H4320z" fill="#0c0c0c"/><path d="M4812.5 340.5V398h-9.6v-57.5h-21.5V331h52.7v9.6h-21.6zm58 4.7a25.2 25.2 0 0114.5 14.5 30.403 30.403 0 012 11v4.8h-44.8a16.4 16.4 0 004.4 8.1c3.2 3.2 7.6 4.8 12.9 4.8a18.799 18.799 0 0011.1-3.2l5.6 7.8a28.302 28.302 0 01-16.6 5 30.303 30.303 0 01-10.9-2 24.5 24.5 0 01-14.5-14.5 31.503 31.503 0 010-21.9 24.896 24.896 0 0114.5-14.5 31.502 31.502 0 0121.8.1zm-23.9 12.5a16.395 16.395 0 00-4.4 8.2h34.6a16.005 16.005 0 00-4.3-8.2c-3.2-3.2-7.7-4.8-13-4.8s-9.7 1.6-12.9 4.8zm91-9.4l-5.6 7.8a18.799 18.799 0 00-11.1-3.2c-5.3 0-9.8 1.7-12.9 4.8-3.1 3.1-4.8 7.7-4.8 13s1.7 9.8 4.8 12.9c3.1 3.1 7.6 4.8 12.9 4.8a18.799 18.799 0 0011.1-3.2l5.6 7.8a28.302 28.302 0 01-16.6 5 30.303 30.303 0 01-10.9-2 24.5 24.5 0 01-14.5-14.5 31.503 31.503 0 010-21.9 24.896 24.896 0 0114.5-14.5 30.303 30.303 0 0110.9-2 28.297 28.297 0 0116.6 5.2zm48-3.1a25.201 25.201 0 0114.4 14.5 30.403 30.403 0 012 11V398h-9.6v-27.3c0-5.3-1.7-9.8-4.8-13-3.1-3.2-7.7-4.8-13-4.8s-9.8 1.7-12.9 4.8c-3.1 3.1-4.8 7.7-4.8 13V398h-9.6v-54.7h9.6v5.9a24.798 24.798 0 016.9-3.9 31.502 31.502 0 0121.8-.1zm63.4 0a25.2 25.2 0 0114.5 14.5 31.503 31.503 0 010 21.9 24.896 24.896 0 01-14.5 14.5 31.503 31.503 0 01-21.9 0 24.5 24.5 0 01-14.5-14.5 31.503 31.503 0 010-21.9 24.896 24.896 0 0114.5-14.5 31.503 31.503 0 0121.9 0zm-24 12.5c-3.2 3.2-4.8 7.7-4.8 13s1.7 9.8 4.8 12.9c3.1 3.1 7.6 4.8 12.9 4.8 5.3 0 9.8-1.7 13-4.8 3.2-3.1 4.8-7.6 4.8-12.9 0-5.3-1.7-9.8-4.8-13-3.1-3.2-7.7-4.8-13-4.8s-9.7 1.6-12.9 4.8zm50 40.3v-75.3h9.6V398zm57.5-52.8a25.2 25.2 0 0114.5 14.5 31.503 31.503 0 010 21.9 24.896 24.896 0 01-14.5 14.5 31.503 31.503 0 01-21.9 0 24.5 24.5 0 01-14.5-14.5 31.503 31.503 0 010-21.9 24.896 24.896 0 0114.5-14.5 31.503 31.503 0 0121.9 0zm-23.9 12.5c-3.2 3.2-4.8 7.7-4.8 13s1.7 9.8 4.8 12.9c3.1 3.1 7.6 4.8 12.9 4.8 5.3 0 9.8-1.7 13-4.8 3.2-3.1 4.8-7.6 4.8-12.9 0-5.3-1.7-9.8-4.8-13-3.1-3.2-7.7-4.8-13-4.8s-9.8 1.6-12.9 4.8zm101.8 39.7a26.695 26.695 0 01-2.4 11.5 22.801 22.801 0 01-6.9 8.7l-3.8 2.9-5.8-7.6 3.8-2.9a13.304 13.304 0 004.1-5.1 18.009 18.009 0 001.5-7.5v-5.2a24.015 24.015 0 01-6.8 3.9 31.605 31.605 0 01-21.9 0 24.896 24.896 0 01-14.5-14.5 32.196 32.196 0 010-21.9 25.2 25.2 0 0114.3-14.5 31.594 31.594 0 0121.9 0 26.518 26.518 0 016.8 3.9v-5.9h9.6v54.1zm-40.4-39.7c-3.2 3.2-4.8 7.7-4.8 13s1.6 9.8 4.8 12.9c3.2 3.1 7.7 4.8 13 4.8s9.8-1.7 13-4.8c3.2-3.1 4.8-7.6 4.8-12.9 0-5.3-1.6-9.8-4.8-13-3.2-3.2-7.7-4.8-13-4.8s-9.8 1.6-13 4.8zm64.3-32.1a4.8 4.8 0 01-4.8 4.7 4.697 4.697 0 01-4.7-4.7 4.8 4.8 0 014.701-4.8 4.9 4.9 0 014.799 4.8zm-9.6 72.4v-54.7h9.6V398zm64.3 0v-5.9a25.183 25.183 0 01-6.8 3.9 31.605 31.605 0 01-21.9 0 25.608 25.608 0 01-8.8-5.7 25.9 25.9 0 01-5.7-8.8 32.196 32.196 0 010-21.9 25.2 25.2 0 0114.5-14.5 31.605 31.605 0 0121.9 0 25.183 25.183 0 016.8 3.9v-5.9h9.6V398zm-30.8-40.3c-3.2 3.2-4.8 7.7-4.8 13s1.6 9.8 4.8 12.9c3.2 3.1 7.7 4.8 13 4.8s9.8-1.7 13-4.8c3.2-3.1 4.8-7.6 4.8-12.9 0-5.3-1.6-9.8-4.8-13-3.2-3.2-7.7-4.8-13-4.8s-9.8 1.6-12.9 4.8zm-476.8-56.2v-67.1h9.6v67.1zm62.3-52.8a25.2 25.2 0 0114.5 14.5 30.403 30.403 0 012 11v27.4h-9.6v-27.5c0-5.3-1.7-9.8-4.8-13-3.1-3.2-7.7-4.8-13-4.8s-9.8 1.7-12.9 4.8c-3.1 3.1-4.8 7.7-4.8 13v27.4h-9.6v-54.8h9.6v5.9a24.798 24.798 0 016.9-3.9 31.501 31.501 0 0121.7 0zm42.3 52.8l-24.9-54.8h10.5l18.4 40.6 18.5-40.6h10.5l-24.9 54.8zm72.4-52.8a25.2 25.2 0 0114.5 14.5 30.403 30.403 0 012 11v4.8h-44.8a16.5 16.5 0 004.4 8.1c3.2 3.2 7.6 4.8 12.9 4.8a18.799 18.799 0 0011.1-3.2l5.6 7.8a28.302 28.302 0 01-16.6 5 30.303 30.303 0 01-10.9-2A24.499 24.499 0 014922 285a31.503 31.503 0 010-21.9 24.896 24.896 0 0114.5-14.5 31.498 31.498 0 0121.9.1zm-23.9 12.5a16.395 16.395 0 00-4.4 8.2h34.6a16.005 16.005 0 00-4.3-8.2c-3.2-3.2-7.7-4.8-13-4.8s-9.8 1.5-12.9 4.7zm88.2-12.5a25.2 25.2 0 0114.5 14.5 30.403 30.403 0 012 11v27.4h-9.6v-27.5c0-5.3-1.7-9.8-4.8-13-3.1-3.2-7.7-4.8-13-4.8s-9.8 1.7-12.9 4.8c-3.1 3.1-4.8 7.7-4.8 13v27.4h-9.6v-54.8h9.5v5.9a24.798 24.798 0 016.9-3.9 31.496 31.496 0 0121.8 0zm52.6-2v9.6h-16.5v24a18.009 18.009 0 001.5 7.5 13.206 13.206 0 004 5.1l3.8 2.9-5.8 7.6-3.8-2.9a22.896 22.896 0 01-6.9-8.7 27.398 27.398 0 01-2.4-11.5v-45.9h9.6v12.3h16.4zm20.1-17.6a4.8 4.8 0 01-4.8 4.7 4.7 4.7 0 01-4.7-4.7 4.8 4.8 0 014.701-4.8 4.9 4.9 0 014.799 4.8zm-9.6 72.4v-54.8h9.6v54.8zm44.1 0l-24.9-54.8h10.5l18.5 40.6 18.5-40.6h10.5l-24.9 54.8zm79.2 0v-5.9a25.183 25.183 0 01-6.8 3.9 31.605 31.605 0 01-21.9 0 25.608 25.608 0 01-8.8-5.7 25.9 25.9 0 01-5.7-8.8 32.196 32.196 0 010-21.9 25.2 25.2 0 0114.5-14.5 31.605 31.605 0 0121.9 0 25.183 25.183 0 016.8 3.9v-5.9h9.6v54.8h-9.6zm-30.8-40.3c-3.2 3.2-4.8 7.7-4.8 13s1.6 9.8 4.8 12.9c3.2 3.1 7.7 4.8 13 4.8s9.8-1.7 13-4.8c3.2-3.1 4.8-7.6 4.8-12.9 0-5.3-1.6-9.8-4.8-13-3.2-3.2-7.7-4.8-13-4.8s-9.8 1.5-13 4.7zm-357.4 172.1a15.898 15.898 0 014.9 10.2c.9 8.6-4.7 15.9-13.8 18.7 4 3.9 8.9 8.1 13.3 12a52.001 52.001 0 004.3-8.8l1.6-4.5 9 3.3-1.7 4.5a54.986 54.986 0 01-5.8 11.6h-.1l5.8 4.7 3.7 3-6 7.5-3.7-3-6-5-1.4 1.2a32.719 32.719 0 01-9.3 5.3 30.702 30.702 0 01-10.3 1.7c-3.72-.017-7.396-.8-10.8-2.3a23.896 23.896 0 01-8.7-6.5 18.902 18.902 0 01-3.9-7.4 19.894 19.894 0 01-.3-8.9 17.202 17.202 0 014.1-8.5 20.5 20.5 0 016.7-4.9l2.1-.9a29.036 29.036 0 01-2-4.1 21.202 21.202 0 01-1.5-6.6 15.811 15.811 0 011.2-7.2 15.5 15.5 0 013.4-5 16.811 16.811 0 014.8-3.2 19.896 19.896 0 0111.1-1.5 17 17 0 019.3 4.6zm-24.2 32.7a12.396 12.396 0 00-3.7 2.7 7.802 7.802 0 00-1.9 3.9 10.797 10.797 0 00.1 4.6 10.398 10.398 0 002 3.8c2.7 3.3 7.4 5.3 12.2 5.3a21.095 21.095 0 0013.5-4.8c-6.2-5.4-13.3-11.7-18.2-16.9a29.871 29.871 0 00-4 1.3zm7.9-26.8a6.5 6.5 0 00-3.4 3.2 8.7 8.7 0 00.4 6.5 23.007 23.007 0 002.9 5.1l2.6-.4a12.798 12.798 0 007.3-3.5 6.697 6.697 0 002-5.6 6.402 6.402 0 00-1.9-4.2 8.301 8.301 0 00-5.6-2 10.392 10.392 0 00-4.3.8zm98.5 56.6l-5.1-12.3h-32.7l-5 12.3h-10.5l27.6-67.1h8.5l27.6 67.1zm-9-21.9l-12.4-30.3-12.5 30.3zm67.7-30.9a25.2 25.2 0 0114.5 14.5 30.4 30.4 0 012 11v27.4h-9.6v-27.5c0-5.3-1.7-9.8-4.8-13-3.1-3.2-7.7-4.8-13-4.8s-9.8 1.7-12.9 4.8c-3.1 3.1-4.8 7.7-4.8 13v27.4h-9.6V441h9.6v5.9a24.798 24.798 0 016.9-3.9 31.501 31.501 0 0121.7 0zm38.5-19.6a4.8 4.8 0 01-4.8 4.7 4.697 4.697 0 01-4.7-4.7 4.8 4.8 0 014.701-4.8 4.9 4.9 0 014.799 4.8zm-9.6 72.4V441h9.6v54.8zm115.7-29.4v29.4h-9.6v-29.4c0-4.7-1.5-8.7-4.3-11.5-2.8-2.8-6.8-4.3-11.5-4.3s-8.7 1.5-11.5 4.3c-2.8 2.8-4.3 6.8-4.3 11.5v29.4h-9.6v-29.4c0-4.7-1.5-8.7-4.3-11.5-2.8-2.8-6.8-4.3-11.5-4.3s-8.7 1.5-11.5 4.3c-2.8 2.8-4.3 6.8-4.3 11.5v29.4h-9.6V441h9.6v4.9a26.198 26.198 0 0116-4.9c8.8 0 16.1 3.6 20.5 9.7 4.5-6.1 11.7-9.7 20.6-9.7 14.9 0 25.3 10.5 25.3 25.4zm47-23.4a25.2 25.2 0 0114.5 14.5 31.503 31.503 0 010 21.9 24.896 24.896 0 01-14.5 14.5 31.503 31.503 0 01-21.9 0 24.499 24.499 0 01-14.5-14.6 31.503 31.503 0 010-21.9 24.898 24.898 0 0114.5-14.4 31.503 31.503 0 0121.9 0zm-23.9 12.5c-3.2 3.2-4.8 7.7-4.8 13s1.7 9.8 4.8 12.9c3.1 3.1 7.6 4.8 12.9 4.8 5.3 0 9.8-1.7 13-4.8 3.2-3.1 4.8-7.6 4.8-12.9 0-5.3-1.7-9.8-4.8-13-3.1-3.2-7.7-4.8-13-4.8s-9.8 1.6-13 4.7z" fill="#999"/><path d="M5760 720h1440V0H5760z" fill="#f9f9f9"/><path d="M6281.4 237.2a9.2 9.2 0 100 18.3h18.6a26.104 26.104 0 019.2 1.6 21.398 21.398 0 0112.4 12.5 25.704 25.704 0 010 18.3 21.4 21.4 0 01-12.4 12.5 26.104 26.104 0 01-9.2 1.6h-41.8v-14h41.8a9.399 9.399 0 006.8-2.4 10.6 10.6 0 000-13.5 9.399 9.399 0 00-6.8-2.4h-18.6a25.78 25.78 0 01-9.1-1.6 21.7 21.7 0 01-12.5-12.5 26.5 26.5 0 010-18.3 21.7 21.7 0 0112.5-12.5 25.78 25.78 0 019.1-1.6h38.4v14.1h-38.4zm101.4 64.9V297a33.045 33.045 0 01-5.5 2.8 37.598 37.598 0 01-26 0 30.098 30.098 0 01-17.3-17.3 36.302 36.302 0 01-2.3-13 35.802 35.802 0 012.3-12.9 29.895 29.895 0 016.8-10.5 28.812 28.812 0 0110.4-6.8 36.698 36.698 0 0126 0 29.32 29.32 0 015.5 2.8V237h14.1v65.2h-14zm-32-46c-3.2 3.2-5 7.9-5 13.4s1.8 10.2 5 13.5c3.2 3.3 7.9 5 13.5 5s10.2-1.7 13.5-5c3.3-3.3 5-7.9 5-13.5s-1.7-10.2-5-13.4c-3.3-3.2-7.9-5-13.5-5s-10.2 1.7-13.4 5zm108.6-16.8a29.398 29.398 0 0110.5 6.8 29.895 29.895 0 016.8 10.5 35.806 35.806 0 012.3 12.9 36.302 36.302 0 01-2.3 13 29.895 29.895 0 01-6.8 10.5 29.297 29.297 0 01-10.5 6.8 35.806 35.806 0 01-12.9 2.3 36.306 36.306 0 01-13-2.3 31.003 31.003 0 01-5.5-2.8v28.3h-14.1V237h14.1v5.1a31.343 31.343 0 015.5-2.8 36.306 36.306 0 0113-2.3 35.785 35.785 0 0112.9 2.3zm-26.4 16.8c-3.3 3.2-5 7.9-5 13.4s1.7 10.2 5 13.5c3.3 3.3 7.9 5 13.5 5s10.2-1.7 13.5-5c3.3-3.3 5-7.9 5-13.5s-1.7-10.2-5-13.4c-3.3-3.2-8-5-13.5-5s-10.3 1.7-13.6 5zm71.4-38a7.1 7.1 0 11-14.201 0 7.1 7.1 0 0114.201 0zm-14.1 84.1V237h14.1v65.2zm70.9-62.9a29.597 29.597 0 0117.3 17.3 34.693 34.693 0 012.4 12.9v7.1h-50a16.594 16.594 0 003.9 6.4c3.3 3.3 7.9 5 13.5 5a19.501 19.501 0 0011.5-3.3l8.2 11.5a33.6 33.6 0 01-19.7 5.9 36.306 36.306 0 01-13-2.3 29.597 29.597 0 01-17.3-17.3 36.302 36.302 0 01-2.3-13 35.806 35.806 0 012.3-12.9 30.582 30.582 0 016.8-10.5 29.506 29.506 0 0110.5-6.8 35.096 35.096 0 0113-2.4c4.414-.03 8.792.784 12.9 2.4zm-26.4 16.8a16.4 16.4 0 00-3.9 6.4h34.8a15.802 15.802 0 00-4-6.4c-3.2-3.3-7.9-5-13.4-5s-10.2 1.7-13.5 5zm102.9-16.8a29.597 29.597 0 0117.3 17.3 34.693 34.693 0 012.4 12.9v32.6h-14.2v-32.6c0-5.5-1.8-10.2-5-13.4-3.2-3.2-7.9-5-13.4-5s-10.2 1.7-13.5 5c-3.3 3.3-5 7.9-5 13.4v32.6h-14.2V237h14.1v5.1a27.73 27.73 0 015.5-2.8 35.096 35.096 0 0113-2.4 34.602 34.602 0 0113 2.4zm64.1-2.3v14.1h-18.5v25.4a17.993 17.993 0 001.6 7.8 13.708 13.708 0 004.1 5.2l5.6 4.3-8.6 11.2-5.6-4.3a27.306 27.306 0 01-8.3-10.4 32.296 32.296 0 01-2.9-13.7v-53.5h14.1V237h18.6zm-384.9 103.7a36.492 36.492 0 0113.8 10.9l-11.4 8.8a22.198 22.198 0 00-8.4-6.6 29.106 29.106 0 00-12.3-2.5c-7.8 0-14.3 2.4-19 7-4.7 4.6-7.1 11.2-7.1 19 0 7.8 2.4 14.3 7.1 19 4.7 4.7 11.2 7.1 19 7.1 7.8 0 14.3-2.4 19-7.1a24.199 24.199 0 006.3-11.7h-25.3v-14.4h40.5v7.2a45.017 45.017 0 01-2.9 16.2 36.598 36.598 0 01-21.4 21.4 46.706 46.706 0 01-32.4 0 36.598 36.598 0 01-21.4-21.4 46.797 46.797 0 010-32.4 36.598 36.598 0 0121.4-21.4 45.017 45.017 0 0116.2-2.9 44.396 44.396 0 0118.3 3.8zm83.6 77.1v-5.2a33.929 33.929 0 01-5.6 2.8 38.504 38.504 0 01-26.6 0 30.798 30.798 0 01-17.7-17.7 37.203 37.203 0 01-2.4-13.3 36.61 36.61 0 012.4-13.2 30.598 30.598 0 017-10.7 29.5 29.5 0 0110.7-6.9 37.601 37.601 0 0126.6 0 29.988 29.988 0 015.6 2.8v-5.3h14.5v66.7zm-32.7-47.1c-3.3 3.3-5.1 8.1-5.1 13.8 0 5.7 1.8 10.5 5.1 13.8 3.3 3.3 8.1 5.1 13.8 5.1 5.7 0 10.5-1.7 13.8-5.1 3.3-3.4 5.1-8.1 5.1-13.8 0-5.7-1.8-10.5-5.1-13.8-3.3-3.3-8.1-5.1-13.8-5.1-5.7 0-10.4 1.8-13.8 5.1zm97.9-5.1c-5.7 0-10.5 1.8-13.8 5.1-3.3 3.3-5.1 8.1-5.1 13.8v33.3h-14.5v-66.7h14.4v5.3a28.77 28.77 0 015.7-2.8 35.497 35.497 0 0113.2-2.4h7.2v14.4h-7.2zm79.7 52.2h-14.5v-5.2a31.905 31.905 0 01-5.6 2.8 37.203 37.203 0 01-13.3 2.4c-4.51.02-8.985-.794-13.2-2.4a31.297 31.297 0 01-10.7-6.9 30.216 30.216 0 01-6.9-10.7 36.005 36.005 0 01-2.4-13.3 35.497 35.497 0 012.4-13.2 30.3 30.3 0 0117.7-17.7 35.497 35.497 0 0113.2-2.4 35.985 35.985 0 0113.3 2.4 28.399 28.399 0 015.6 2.8v-29h14.4zm-47.1-47.1c-3.4 3.3-5.1 8.1-5.1 13.8 0 5.7 1.8 10.5 5.1 13.8 3.3 3.3 8.1 5.1 13.8 5.1 5.7 0 10.5-1.7 13.8-5.1 3.3-3.4 5.1-8.1 5.1-13.8 0-5.7-1.7-10.5-5.1-13.8-3.4-3.3-8.1-5.1-13.8-5.1-5.7 0-10.5 1.8-13.8 5.1zm105.2-17.1a30.3 30.3 0 0117.7 17.7 35.497 35.497 0 012.4 13.2v7.2h-51.1a17.001 17.001 0 004 6.6c3.4 3.4 8.1 5.1 13.8 5.1a19.996 19.996 0 0011.7-3.4l8.4 11.8a34.402 34.402 0 01-20.2 6.1 37.203 37.203 0 01-13.3-2.4 30.3 30.3 0 01-17.7-17.7 37.203 37.203 0 01-2.4-13.3 36.61 36.61 0 012.4-13.2 31.297 31.297 0 016.9-10.7 30.202 30.202 0 0110.7-6.9 36.005 36.005 0 0113.3-2.4 35.494 35.494 0 0113.4 2.3zm-27 17.2a16.71 16.71 0 00-4 6.5h35.6a16.205 16.205 0 00-4-6.5c-3.3-3.4-8.1-5.1-13.8-5.1-5.7 0-10.5 1.7-13.9 5zm105.2-17.2a30.3 30.3 0 0117.7 17.7 35.497 35.497 0 012.4 13.2v33.3h-14.4v-33.3c0-5.7-1.8-10.5-5.1-13.8-3.3-3.3-8.1-5.1-13.8-5.1-5.7 0-10.5 1.8-13.8 5.1-3.3 3.3-5.1 8.1-5.1 13.8v33.3h-14.4v-66.7h14.4v5.3a28.399 28.399 0 015.6-2.8 36.005 36.005 0 0113.3-2.4 35.497 35.497 0 0113.2 2.4zm-204 107.6a20.387 20.387 0 016.2 7.8 24 24 0 012.1 10.2V519h-10.4v-39.8a13.697 13.697 0 00-1.2-5.8 10.399 10.399 0 00-3-3.8l-4.2-3.2 6.4-8.3zm28.1 24.9a8.7 8.7 0 002.3 6.3 8.5 8.5 0 006.3 2.3h15.4v-13.8h10.5V519h-10.5v-13.8h-15.4a20.301 20.301 0 01-7.6-1.3 17.197 17.197 0 01-6.2-4 17.998 17.998 0 01-4-6.2 20.996 20.996 0 01-1.3-7.5v-26h10.5v26zm72.3-26a18.991 18.991 0 016.8 1.2 15.483 15.483 0 015.6 3.7 16.303 16.303 0 013.7 5.6 19.7 19.7 0 010 13.7 16.303 16.303 0 01-3.7 5.6 15.595 15.595 0 01-5.6 3.7 18.991 18.991 0 01-6.8 1.2h-10.4a6.297 6.297 0 00-6.8 6.9v6.8h34.5V519h-45v-17.3a19.202 19.202 0 011.2-6.9 16.1 16.1 0 019.3-9.3 19.201 19.201 0 016.8-1.2h10.4a6.998 6.998 0 005-1.8 8 8 0 000-10 7.002 7.002 0 00-5-1.8H6553v-10.6zm52.6 0a18.991 18.991 0 016.8 1.2 15.896 15.896 0 015.6 3.7 16.303 16.303 0 013.7 5.6 19.7 19.7 0 010 13.7 15.8 15.8 0 01-3.3 5.3 15.8 15.8 0 013.3 5.3 19.7 19.7 0 010 13.7 16.303 16.303 0 01-3.7 5.6 15.896 15.896 0 01-5.6 3.7 18.991 18.991 0 01-6.8 1.2h-26v-10.6h26a6.998 6.998 0 005-1.8 8 8 0 000-10 6.998 6.998 0 00-5-1.8h-20.8v-10.6h20.8a6.998 6.998 0 005-1.8 8 8 0 000-10 7.002 7.002 0 00-5-1.8h-26v-10.6zm57.6 1.6a20.7 20.7 0 0112 12 24.893 24.893 0 011.6 9v13.8a24.897 24.897 0 01-1.6 9 20.7 20.7 0 01-12 12 25.904 25.904 0 01-17.9 0 20.802 20.802 0 01-11.9-12 24.004 24.004 0 01-1.6-9v-13.8a24.004 24.004 0 011.6-9 20.802 20.802 0 0111.9-12 25.904 25.904 0 0117.9 0zm-20.9 20.9v13.8c0 7.4 4.6 12 12 12s12-4.6 12-12v-13.7c0-7.4-4.6-12-12-12s-12.1 4.6-12.1 12z" fill="#999"/><path d="M7200 720h1440V0H7200z" fill="#0c0c0c"/><path d="M7823 369.8v-48.9l-25.6 32-25.6-32v48.9h-14.5v-74.4h13l27.2 34.1 27.3-34.1h12.9v74.4zm72.2 0v-4a29.822 29.822 0 01-3.9 1.9 35.395 35.395 0 01-24.4 0 28.598 28.598 0 01-9.9-6.4 28.086 28.086 0 01-6.4-9.9 35.395 35.395 0 010-24.4 27.893 27.893 0 016.4-10 28.598 28.598 0 019.9-6.4 35.395 35.395 0 0124.4 0 24.57 24.57 0 013.9 1.9v-4.1h14.6V370h-14.6zm-28-42.6c-2.8 2.8-4.3 6.9-4.3 11.8s1.5 9 4.3 11.8c2.8 2.8 7 4.4 11.8 4.4 4.8 0 9-1.5 11.8-4.4 2.8-2.9 4.3-6.9 4.3-11.8s-1.5-9-4.3-11.8c-2.8-2.8-7-4.4-11.8-4.4-4.8 0-9 1.5-11.8 4.4zm88.6-19v14.6h-17.1v22.6a16.596 16.596 0 001.4 6.9 11.9 11.9 0 003.5 4.4l5.8 4.5-8.9 11.6-5.8-4.5a25.699 25.699 0 01-7.9-9.9 30.79 30.79 0 01-2.7-13v-50h14.6v12.8zm54.7 5.6l-8.5 12a17.194 17.194 0 00-10.1-2.9c-4.9 0-9 1.5-11.8 4.4-2.8 2.9-4.4 6.9-4.4 11.8s1.5 9 4.4 11.8c2.9 2.8 6.9 4.4 11.8 4.4a17.201 17.201 0 0010.1-2.9l8.5 11.9a31.902 31.902 0 01-18.6 5.6 34.209 34.209 0 01-12.2-2.2 28.198 28.198 0 01-16.4-16.4 35.395 35.395 0 010-24.4 29.397 29.397 0 016.4-10 29.693 29.693 0 019.9-6.4 34.209 34.209 0 0112.2-2.2 31.895 31.895 0 0118.7 5.5zm25.2-1.5a26.762 26.762 0 013.9-1.9 35.395 35.395 0 0124.4 0 28 28 0 0116.4 16.4 34.005 34.005 0 012.2 12.2v30.8h-14.5V339c0-4.9-1.5-9-4.4-11.8-2.9-2.8-6.9-4.4-11.8-4.4s-9 1.5-11.8 4.4c-2.8 2.9-4.4 6.9-4.4 11.8v30.8h-14.6v-82.9h14.6v25.5zm-259.5-102.7c3.31-.033 6.598.543 9.7 1.7a22.401 22.401 0 0112.9 12.9 27.998 27.998 0 010 19.4 22.401 22.401 0 01-12.9 12.9 27.008 27.008 0 01-9.7 1.7h-18.9v-48.6zm-8.5 38.3h8.5a13.999 13.999 0 0010.2-3.8c2.5-2.4 3.8-6 3.8-10.2 0-4.2-1.3-7.7-3.8-10.2a13.999 13.999 0 00-10.2-3.8h-8.5v27.9zm51-27.9v8.7h27.4v10.4h-27.4v8.7h27.4v10.4h-37.9v-48.6h37.8V220zm70.4-8.1a22.602 22.602 0 018.4 6.6l-8.3 6.4a11.71 11.71 0 00-4.5-3.5 16.211 16.211 0 00-6.7-1.3c-4.2 0-7.7 1.3-10.2 3.8-2.5 2.5-3.8 6-3.8 10.2 0 4.2 1.3 7.7 3.8 10.2 2.5 2.5 6 3.8 10.2 3.8 2.3.047 4.584-.396 6.7-1.3a11.71 11.71 0 004.5-3.5l8.3 6.4a22.594 22.594 0 01-8.4 6.6 26.399 26.399 0 01-11 2.3 27.008 27.008 0 01-9.7-1.7 22.398 22.398 0 01-12.9-12.9 27.998 27.998 0 010-19.4 22.398 22.398 0 0112.9-12.9 26.986 26.986 0 019.7-1.7c3.76-.158 7.51.49 11 1.9zm15.3 46.5v-48.8h10.4v48.8zM7938 220a4.4 4.4 0 100 8.7h11a16.098 16.098 0 015.8 1 13.503 13.503 0 014.8 3.1 13.21 13.21 0 013.1 4.8 16.5 16.5 0 010 11.6 13.21 13.21 0 01-3.1 4.8 13.503 13.503 0 01-4.8 3.1 16.098 16.098 0 01-5.8 1h-25.8v-10.2h25.8a4.602 4.602 0 003.2-1.1 5.302 5.302 0 000-6.5 4.602 4.602 0 00-3.2-1.1h-11a15.788 15.788 0 01-5.8-1 13.801 13.801 0 01-8-8 16.5 16.5 0 010-11.6 13.798 13.798 0 018-8 15.788 15.788 0 015.8-1h23.7V220zm33.4 38.4v-48.8h10.4v48.8zm37.8 0l-20-48.8h11.3l12.9 31.4 12.9-31.4h11.3l-20 48.8zm46.1-38.4v8.7h27.4v10.4h-27.4v8.7h27.4v10.4h-37.8v-48.6h37.8V220zm-232.4 189.2c3.974-.04 7.916.708 11.6 2.2a22.401 22.401 0 018.9 6.5 23.098 23.098 0 014.7 10.1c.795 3.957.828 8.03.1 12a36.597 36.597 0 01-4.3 12 38.587 38.587 0 01-8.3 10.1 36.404 36.404 0 01-23.6 8.7h-17a11.198 11.198 0 00-7.2 2.3 11.7 11.7 0 00-3.5 6.7l-1.6 9h56.8l-3.8 21.7h-78.4l5.4-30.7a36.597 36.597 0 014.3-12 37.206 37.206 0 018.3-10.1 36.402 36.402 0 0123.6-8.7h17.1a11.3 11.3 0 007.2-2.3 11.7 11.7 0 003.5-6.7c.4-2 .4-4.8-1.2-6.7-1.6-1.9-4.3-2.3-6.3-2.3h-43.6l3.8-21.7h43.5zm58.8 2.2a28.496 28.496 0 018.4 13.6 39.102 39.102 0 01.7 17.7l-11.9 67.7h-21.8l11.9-67.7a18.901 18.901 0 00-.2-8.6 11.104 11.104 0 00-3.4-5.5l-7.4-6.6 16.2-17.2zm44.7 42.7c-.4 2.6-.6 6.3 1.5 8.8 2.1 2.5 5.6 3.1 8.2 3.1h23.3l4-22.8h21.7l-11.9 67.2h-21.7l4-22.7h-23.2a32.696 32.696 0 01-12.7-2.4 23.5 23.5 0 01-9.7-7.1 24.299 24.299 0 01-5.1-10.9 32.5 32.5 0 01-.1-13.2l7.9-44.9h21.7zm99.9-23.2l-1.6 9c-.4 2-.4 4.8 1.2 6.7 1.6 1.9 4.3 2.3 6.3 2.3h17.1c3.974-.04 7.916.708 11.6 2.2a22.401 22.401 0 018.9 6.5 23.098 23.098 0 014.7 10.1c.795 3.957.828 8.03.1 12a36.597 36.597 0 01-4.3 12 38.587 38.587 0 01-8.3 10.1 36.404 36.404 0 01-23.6 8.7h-47.8l3.8-21.7h47.8c2.593.082 5.135-.73 7.2-2.3a11.7 11.7 0 003.5-6.7c.4-2 .4-4.8-1.2-6.7-1.6-1.9-4.3-2.3-6.3-2.3h-17.1a30.094 30.094 0 01-11.6-2.2 22.3 22.3 0 01-13.6-16.6 31.783 31.783 0 01-.1-12l5.4-30.7h74.3l-3.8 21.7h-52.6z" fill="#999"/><path d="M8640 720h1440V0H8640z" fill="#f9f9f9"/><path d="M9182.3 219a26.6 26.6 0 0111.4 10.4l-10 6.9a18.4 18.4 0 00-7.9-7.1 27.592 27.592 0 00-12.6-2.7 34.608 34.608 0 00-12 2.1 30.29 30.29 0 00-9.6 5.5 31.392 31.392 0 00-7.1 8.6 35.315 35.315 0 00-4.1 11.7 29.212 29.212 0 000 11.7 18.5 18.5 0 0011.7 14.2 28.406 28.406 0 0011.3 2.1 34.608 34.608 0 0012-2.1 30.308 30.308 0 009.6-5.5 31.41 31.41 0 007.1-8.6 32.922 32.922 0 002.7-6.1h-27.5l2-11.1h39l-.9 5.6a49.996 49.996 0 01-5.6 15.7 45.4 45.4 0 01-24.2 20.6 47.604 47.604 0 01-16.2 2.8 39.496 39.496 0 01-15.2-2.8 27.5 27.5 0 01-11-8.1 28.49 28.49 0 01-5.9-12.5 41.094 41.094 0 010-15.7 48.483 48.483 0 015.5-15.7 45.9 45.9 0 0124.2-20.8 47.604 47.604 0 0116.2-2.8 37.793 37.793 0 0117.1 3.7zm61.1 21.8a24.495 24.495 0 00-16.1 5.6 25.501 25.501 0 00-8.3 15.1l-5.6 31.8h-11.2l11.2-63.7h11.1l-1.2 6.9a37.371 37.371 0 018.8-4.6 38.601 38.601 0 0113.2-2.3h5.6l-2 11.1h-5.6zm54.3 52.5l1.2-6.9a36.985 36.985 0 01-8.7 4.6 38.997 38.997 0 01-13.2 2.3 31.9 31.9 0 01-12.3-2.3 23.201 23.201 0 01-9.1-6.6 24.916 24.916 0 01-4.8-10.3 33.613 33.613 0 010-12.7 41.395 41.395 0 014.5-12.8 38.48 38.48 0 018.5-10.2 36.49 36.49 0 0111.4-6.6 38.402 38.402 0 0113.2-2.3 32.409 32.409 0 0112.4 2.3 23.382 23.382 0 017.1 4.6l1.2-6.9h11.1l-11.3 63.7h-11.2zm-27.5-46.9a25.199 25.199 0 00-8.3 15.1c-1.1 6.2-.1 11.4 2.9 15.1 3 3.7 8 5.6 14.2 5.6a24.301 24.301 0 0016.1-5.6 24.999 24.999 0 008.3-15.1c1.1-6.2.1-11.4-2.9-15.1-3-3.7-7.9-5.6-14.1-5.6a24.4 24.4 0 00-16.2 5.6zm111.3-11l-8.1 9.1c-3-2.5-7.2-3.7-12.2-3.7a24.3 24.3 0 00-16.1 5.6 25.304 25.304 0 00-8.3 15.1c-1.1 6.2-.1 11.4 3 15.1 3.1 3.7 7.9 5.6 14.1 5.6a24.796 24.796 0 0013.5-3.7l4.9 9.1a38 38 0 01-20.4 5.8 31.804 31.804 0 01-12.3-2.3 23.396 23.396 0 01-9.1-6.6 24.803 24.803 0 01-4.7-10.3 33.492 33.492 0 01-.1-12.7 41.395 41.395 0 014.5-12.8 38.302 38.302 0 018.4-10.2 36.683 36.683 0 0111.4-6.6 38.301 38.301 0 0113.1-2.3c7.4 0 13.7 2 18.4 5.8zm50.8-3.5a22.8 22.8 0 0113.8 16.8 32.71 32.71 0 01.1 12.8l-1 5.6h-52a16.1 16.1 0 003.4 9.5c3.1 3.7 7.9 5.6 14.1 5.6a24.796 24.796 0 0013.5-3.7l4.9 9.1a38 38 0 01-20.4 5.8 31.804 31.804 0 01-12.3-2.3 23.396 23.396 0 01-9.1-6.6 24.79 24.79 0 01-4.7-10.3 33.492 33.492 0 01-.1-12.7 41.395 41.395 0 014.5-12.8 38.302 38.302 0 018.4-10.2 36.683 36.683 0 0111.4-6.6 38.301 38.301 0 0113.1-2.3 32.39 32.39 0 0112.4 2.3zm-30.4 14.5a24.001 24.001 0 00-6.7 9.5h40.3a15.4 15.4 0 00-3.3-9.499c-3.1-3.701-7.9-5.601-14.1-5.601a24.303 24.303 0 00-16.2 5.6zm81.2-30.7a20.001 20.001 0 00-5.7 5.9 24.7 24.7 0 00-3.2 8h19.1l-2 11.1h-19.1l-9.3 52.6h-11.1l11.1-62.9a36.097 36.097 0 015.1-13.4 34.899 34.899 0 019.9-10.1l5-3.4 5.2 8.9zm63.8 77.6l1.2-6.9a36.385 36.385 0 01-8.8 4.6 38.6 38.6 0 01-13.1 2.3 32.21 32.21 0 01-12.4-2.3 22.595 22.595 0 01-9-6.6 23.1 23.1 0 01-4.8-10.2 33.812 33.812 0 01-.1-12.8l5.6-31.8h11.2l-5.6 31.8c-1.1 6.2-.1 11.4 3 15.1 3.1 3.7 7.9 5.6 14.1 5.6a24.407 24.407 0 0016.1-5.6 25.199 25.199 0 008.3-15.1l5.6-31.8h11.2l-11.2 63.7zm27.9 0l15.4-87.6h11.2l-15.4 87.6zm-417.9 51.3a23.795 23.795 0 019 7.1l-6.7 5.2a15.914 15.914 0 00-5.8-4.6 20.195 20.195 0 00-8.4-1.7c-5.4 0-9.8 1.7-13 4.9-3.2 3.2-4.9 7.7-4.9 13s1.7 9.8 4.9 13c3.2 3.2 7.7 4.9 13 4.9a20.195 20.195 0 008.4-1.7 15.8 15.8 0 005.8-4.6l6.7 5.2a23.795 23.795 0 01-9 7.1 28.8 28.8 0 01-11.9 2.5 29.206 29.206 0 01-10.6-1.9 23.899 23.899 0 01-13.9-13.9 30.504 30.504 0 010-21.1 23.897 23.897 0 0113.9-14 29.206 29.206 0 0110.6-1.9 28.8 28.8 0 0111.9 2.5zm56 28.6c0 11.9-8 21.6-21.6 21.6-13.6 0-21.6-8.9-21.6-21.6 0-12.7 8.8-21.6 21.6-21.6s21.6 8.9 21.6 21.6zm-31.2-9.6c-4.783 5.382-4.542 13.559.549 18.651 5.092 5.091 13.269 5.332 18.651.549 4.783-5.382 4.542-13.56-.549-18.651-5.091-5.092-13.269-5.332-18.651-.549zm98.4-10.6a17.8 17.8 0 016.5 4.2c1.826 1.821 3.256 4 4.2 6.4a22.087 22.087 0 011.4 8v23.2h-8.5v-23.1a11.6 11.6 0 00-23.2 0v23.2h-8.5v-23.2a12 12 0 00-20-8.4 11.597 11.597 0 00-3.1 8.4v23.2h-8.5v-43.3h8.6v3.3a16.9 16.9 0 013.6-1.8 22.998 22.998 0 0116 0 18.108 18.108 0 016.5 4.2l1.4 1.5 1.4-1.5a18 18 0 016.4-4.2 23.003 23.003 0 0115.8-.1zm34.5-9.6a9.499 9.499 0 00-2.9 3.7 12.9 12.9 0 00-1.1 4.5h12.6v8.5h-12.7v34.8h-8.5v-42.2a21.806 21.806 0 011.9-9.1 18.395 18.395 0 015.5-6.9l3.4-2.6 5.1 6.7zm55.6 29.8c0 11.9-8 21.6-21.6 21.6-13.6 0-21.6-8.9-21.6-21.6 0-12.7 8.8-21.6 21.6-21.6s21.6 8.9 21.6 21.6zm-31.2-9.6c-4.783 5.382-4.542 13.56.549 18.651 5.092 5.091 13.269 5.332 18.651.549 4.783-5.382 4.542-13.56-.549-18.651-5.091-5.092-13.269-5.332-18.651-.549zm60.4-3.5c-3.54-.169-7 1.092-9.6 3.5a13.298 13.298 0 00-3.5 9.6v21.6h-8.5v-43.2h8.5v4a19.254 19.254 0 014.5-2.4 23.896 23.896 0 018.6-1.5h4.2v8.5h-4.2zm33.6-8.5v8.5h-12.6V378a13.087 13.087 0 001.1 5.5 9.6 9.6 0 002.9 3.7l3.4 2.6-5.1 6.7-3.4-2.6a18.405 18.405 0 01-5.5-6.9 21.907 21.907 0 01-1.9-9.1v-35.8h8.5v9.5zm38.6 43.3v-4a20.805 20.805 0 01-4.5 2.4 23.9 23.9 0 01-8.6 1.5c-12.7 0-21.6-8.9-21.6-21.6a23.896 23.896 0 011.5-8.6 19.5 19.5 0 0111.5-11.5 23.9 23.9 0 018.6-1.5 22.399 22.399 0 0113.2 4v-4h8.3v43.3h-8.5zm-22.8-31.2c-4.935 5.23-4.777 13.448.357 18.483 5.133 5.036 13.353 5.036 18.486 0 5.134-5.035 5.292-13.253.357-18.483a14.8 14.8 0 00-19.2-.1zm51-8.1a20 20 0 014.5-2.4 23.896 23.896 0 018.6-1.5c12.7 0 21.6 8.9 21.6 21.6a23.9 23.9 0 01-1.5 8.6 19.504 19.504 0 01-11.5 11.5 23.9 23.9 0 01-8.6 1.5 22.399 22.399 0 01-13.2-4v4h-8.5v-59.1h8.5v19.8zm3.5 8.1c-4.783 5.382-4.542 13.56.549 18.651 5.091 5.092 13.269 5.332 18.651.549 4.813-5.357 4.616-13.537-.45-18.656-5.066-5.119-13.243-5.401-18.65-.644zm38.8 31.2v-59.1h8.5v59.1zm59.3-21.7v4.2h-34.2a12.105 12.105 0 003 5.4 13.303 13.303 0 009.6 3.5 14.096 14.096 0 008.2-2.3l4.9 6.9a22.197 22.197 0 01-13.1 4c-12.7 0-21.6-8.9-21.6-21.6 0-12.7 8.9-21.6 21.6-21.6 12.7 0 21.6 8.8 21.6 21.5zm-31.2-9.6a12.002 12.002 0 00-3 5.4h25.3a12.002 12.002 0 00-3-5.4 14.8 14.8 0 00-19.3 0zm-384.4 72.6a30.504 30.504 0 0112.1 8.8 31.599 31.599 0 016.4 13.6 45.902 45.902 0 01.1 17 54.411 54.411 0 01-6.1 17A49.397 49.397 0 019172 515a51.808 51.808 0 01-17.6 3 42.997 42.997 0 01-16.5-3 29.89 29.89 0 01-12-8.8 31.102 31.102 0 01-6.4-13.6 44.679 44.679 0 010-17 52.802 52.802 0 016-17 50.001 50.001 0 0126.3-22.4 51.808 51.808 0 0117.6-3c5.61-.08 11.181.94 16.4 3zm-31.7 11.3a33.007 33.007 0 00-10.4 6 34.207 34.207 0 00-7.7 9.4 38.409 38.409 0 00-4.4 12.7 31.798 31.798 0 000 12.7 20.1 20.1 0 0012.7 15.4 30.903 30.903 0 0012.3 2.2c4.463.05 8.898-.695 13.1-2.2a33.007 33.007 0 0010.4-6 34.207 34.207 0 007.7-9.4 39.899 39.899 0 004.5-12.7c.792-4.2.758-8.513-.1-12.7a20.1 20.1 0 00-12.7-15.4 30.903 30.903 0 00-12.3-2.2 37.595 37.595 0 00-13.1 2.3zm100.2 13.4a26.704 26.704 0 00-17.5 6.1 27.796 27.796 0 00-9 16.4l-6.1 34.6h-12.1l12.2-69.3h12.1l-1.3 7.5a40.689 40.689 0 019.5-5 41.998 41.998 0 0114.3-2.5h6.1l-2.1 12.1h-6.1zm71.5 56.3a40.397 40.397 0 01-5.6 14.6 37.289 37.289 0 01-10.7 11l-5.5 3.7-5.6-9.6 5.4-3.7a21.29 21.29 0 006.3-6.4 26.088 26.088 0 003.6-9.5l1.2-6.6a38.192 38.192 0 01-9.5 5 41 41 0 01-14.4 2.5 33.6 33.6 0 01-13.4-2.5 25.2 25.2 0 01-9.9-7.2 25.999 25.999 0 01-5.2-11.2 36.48 36.48 0 010-13.8 44.992 44.992 0 014.9-13.9 41.895 41.895 0 019.2-11.1 39.685 39.685 0 0112.4-7.2 41.801 41.801 0 0114.3-2.5c4.62-.058 9.207.791 13.5 2.5a26.71 26.71 0 017.7 5l1.3-7.5h12.1zm-42.3-50.2c-4.7 4-7.8 9.7-9 16.4-1.2 6.7-.1 12.4 3.2 16.4 3.3 4 8.7 6.1 15.4 6.1a26.403 26.403 0 0017.5-6.1c4.7-3.9 7.8-9.6 9-16.4 1.2-6.8.1-12.4-3.2-16.4-3.3-4-8.6-6.1-15.3-6.1a26.603 26.603 0 00-17.6 6.1zm111.3 51.1l1.3-7.5a40.405 40.405 0 01-9.5 5 42.427 42.427 0 01-14.4 2.5 34.697 34.697 0 01-13.4-2.5 25.2 25.2 0 01-9.9-7.2 27.1 27.1 0 01-5.2-11.2 36.48 36.48 0 010-13.8 45 45 0 014.9-13.9 41.895 41.895 0 019.2-11.1 39.685 39.685 0 0112.4-7.2 41.801 41.801 0 0114.3-2.5c4.62-.058 9.207.791 13.5 2.5a25.495 25.495 0 017.7 5l1.3-7.5h12.1l-12.1 69.4zm-29.9-51.1c-4.7 4-7.8 9.7-9 16.4-1.2 6.7-.1 12.4 3.2 16.4 3.3 4 8.7 6.1 15.4 6.1a26.403 26.403 0 0017.5-6.1 27.2 27.2 0 009-16.4c1.2-6.7.1-12.4-3.2-16.4-3.3-4-8.6-6.1-15.3-6.1a26.603 26.603 0 00-17.6 6.1zm120.6-15.7a24.603 24.603 0 019.8 7.2 25.206 25.206 0 015.3 11.1 36.8 36.8 0 010 13.9l-6.1 34.6h-12.1l6.1-34.6c1.2-6.7.1-12.4-3.2-16.4-3.3-4-8.6-6.1-15.3-6.1a26.503 26.503 0 00-17.5 6.1 27.802 27.802 0 00-9 16.4l-6.1 34.6h-12.2l12.2-69.3h12.1l-1.3 7.5a38.427 38.427 0 019.5-5 41.998 41.998 0 0114.3-2.5 35.088 35.088 0 0113.5 2.5zm24.8 66.8l12.2-69.3h12.1l-12.2 69.3zm28.3-91.6a7.6 7.6 0 01-7.2 6 4.901 4.901 0 01-5-6 7.6 7.6 0 017.1-6.1 4.996 4.996 0 014.059 1.788 4.996 4.996 0 011.041 4.312zm62.8 28.6l-8.8 9.9c-3.2-2.7-7.8-4.1-13.3-4.1a26.401 26.401 0 00-17.5 6.1 27.502 27.502 0 00-9 16.4c-1.2 6.7-.1 12.4 3.2 16.4 3.3 4 8.6 6.1 15.3 6.1a26.9 26.9 0 0014.7-4.1l5.3 9.9a41.299 41.299 0 01-22.2 6.3 34.598 34.598 0 01-13.3-2.5 25.402 25.402 0 01-9.9-7.2 27.006 27.006 0 01-5.2-11.2 36.4 36.4 0 01-.1-13.8 45.078 45.078 0 014.9-13.9 41.6 41.6 0 019.2-11.1 40 40 0 0112.4-7.2 41.705 41.705 0 0114.3-2.5c8.1.2 15 2.4 20 6.5z" fill="#999"/><path d="M10080 720h1440V0h-1440z" fill="#0c0c0c"/><path d="M10553.9 386.9v11.7h29.6v9h-29.6v11.7h29.6v9h-38.6v-50.4h38.6v9zm82.6 41.4h-10.9l-11.6-17.2-11.7 17.2h-10.9l17.1-25.2-17.1-25.2h10.9l11.7 17.2 11.7-17.2h10.9l-17.1 25.2zm33.1-50.4a19.695 19.695 0 017.1 1.3c2.168.82 4.142 2.08 5.8 3.7a16.205 16.205 0 013.7 5.8 18.905 18.905 0 011.3 7.1 19.212 19.212 0 01-1.3 7.1 16.203 16.203 0 01-9.5 9.5 19.695 19.695 0 01-7.1 1.3h-16.2v14.8h-9v-50.6zm-16.2 26.6h16.2a9.2 9.2 0 006.4-15.3 9.001 9.001 0 00-6.4-2.3h-16.2zm80.6 14.8v9h-38.6v-50.4h9v41.4zm37.4-39.6a22.798 22.798 0 0113.3 13.3 29.1 29.1 0 010 20.2 22.798 22.798 0 01-13.3 13.3 29.1 29.1 0 01-20.2 0 22.798 22.798 0 01-13.3-13.3 29.1 29.1 0 010-20.2 22.798 22.798 0 0113.3-13.3 29.1 29.1 0 0120.2 0zm-21.9 11.6c-2.9 2.9-4.4 7-4.4 11.8 0 4.8 1.5 8.9 4.4 11.8 2.9 2.9 7 4.4 11.8 4.4 4.8 0 8.9-1.5 11.8-4.4 2.9-2.9 4.4-7 4.4-11.8 0-4.8-1.5-8.9-4.4-11.8-2.9-2.9-7-4.4-11.8-4.4-4.8 0-8.9 1.5-11.8 4.4zm70.2-13.4a19.695 19.695 0 017.1 1.3 16.6 16.6 0 019.5 9.5 19.708 19.708 0 011.3 7.1 20.003 20.003 0 01-1.3 7.1 16.807 16.807 0 01-3.7 5.8 17.983 17.983 0 01-3.3 2.6l8.4 17.2h-10l-7.2-14.8h-17v14.8h-9v-50.6zm-16.2 26.6h16.2a9.1 9.1 0 006.4-15.3 9.001 9.001 0 00-6.4-2.3h-16.2zm80.5 23.8l-3.6-8.9h-22.3l-3.6 8.9h-9.8l20.7-50.4h7.6l20.7 50.4zm-7.3-17.9l-7.4-18-7.4 18zm37.9-23.5v41.4h-9v-41.4h-15.5v-9h40.1v9zm24.2 41.4v-50.4h9v50.4zm52.2-48.6a22.803 22.803 0 0113.4 13.3 29.202 29.202 0 010 20.2 22.803 22.803 0 01-13.4 13.3 29.1 29.1 0 01-20.2 0 22.798 22.798 0 01-13.3-13.3 29.202 29.202 0 010-20.2 22.798 22.798 0 0113.3-13.3 29.1 29.1 0 0120.2 0zm-21.9 11.6c-2.9 2.9-4.4 7-4.4 11.8 0 4.8 1.5 8.9 4.4 11.8 2.9 2.9 7 4.4 11.8 4.4 4.8 0 8.9-1.5 11.8-4.4 2.9-2.9 4.4-7 4.4-11.8 0-4.8-1.5-8.9-4.4-11.8-2.9-2.9-7-4.4-11.8-4.4-4.8 0-8.9 1.5-11.8 4.4zm79.8 37l-25.8-34.4v34.4h-9v-50.4h8.2l25.8 34.4v-34.4h9v50.4zm-482.5-263.7v39.7h-8.6v-39.7h-14.9V156h38.4v8.6zm46.9 39.7h-8.6v-16.1l-17.9-32.2h9.9l12.3 22.2 12.3-22.2h9.9l-17.9 32.2zm49.3-48.3a18.815 18.815 0 016.8 1.2 16.094 16.094 0 015.5 3.6 15.504 15.504 0 013.6 5.5 18.115 18.115 0 011.2 6.8 18.407 18.407 0 01-1.2 6.8 15.497 15.497 0 01-9.1 9.1 18.815 18.815 0 01-6.8 1.2h-15.5v14.2h-8.6V156h24.2zm-15.5 25.5h15.5a8.8 8.8 0 006.2-14.6 8.604 8.604 0 00-6.2-2.2h-15.5v16.9zm71.2-23.8a21.899 21.899 0 0112.8 12.8 27.9 27.9 0 010 19.3 21.899 21.899 0 01-12.8 12.8 27.9 27.9 0 01-19.3 0 21.899 21.899 0 01-12.8-12.8 27.9 27.9 0 010-19.3 21.899 21.899 0 0112.8-12.8 27.9 27.9 0 0119.3 0zm-21 11.1c-2.8 2.8-4.2 6.7-4.2 11.3 0 4.6 1.4 8.6 4.2 11.3 2.8 2.7 6.7 4.2 11.3 4.2 4.6 0 8.6-1.4 11.3-4.2 2.7-2.8 4.2-6.7 4.2-11.3 0-4.6-1.4-8.6-4.2-11.3-2.8-2.7-6.7-4.2-11.3-4.2-4.6 0-8.5 1.4-11.3 4.2zm76.1-10.6a21.807 21.807 0 018.2 6.5l-6.8 5.3a13.194 13.194 0 00-5-3.9 17.388 17.388 0 00-7.4-1.5c-4.7 0-8.6 1.4-11.3 4.2-2.7 2.8-4.2 6.7-4.2 11.3 0 4.6 1.4 8.6 4.2 11.3 2.8 2.7 6.7 4.2 11.3 4.2 4.6 0 8.6-1.4 11.3-4.2a14.405 14.405 0 003.8-7h-15v-8.6h24.2v4.3a26.807 26.807 0 01-1.7 9.7 21.899 21.899 0 01-12.8 12.8 27.9 27.9 0 01-19.3 0 21.899 21.899 0 01-12.8-12.8 27.9 27.9 0 010-19.3 21.899 21.899 0 0112.8-12.8 26.803 26.803 0 019.7-1.7 26.499 26.499 0 0110.8 2.2zm45-2.2a18.815 18.815 0 016.8 1.2 15.902 15.902 0 019.1 9.1 18.815 18.815 0 011.2 6.8 19.105 19.105 0 01-1.2 6.8 16.109 16.109 0 01-3.6 5.5 17.128 17.128 0 01-3.2 2.5l8 16.5h-9.6l-6.9-14.3h-16.1v14.2h-8.6V156h24.2zm-15.5 25.5h15.5a8.699 8.699 0 006.2-14.6 8.604 8.604 0 00-6.2-2.2h-15.5v16.9zm77.1 22.8l-3.5-8.5h-21.3l-3.5 8.5h-9.4l19.9-48.3h7.2l19.8 48.3zm-7-17.1l-7.1-17.3-7.1 17.3h14.1zm47.7-31.2a18.815 18.815 0 016.8 1.2 16.094 16.094 0 015.5 3.6 15.504 15.504 0 013.6 5.5 18.115 18.115 0 011.2 6.8 18.407 18.407 0 01-1.2 6.8 15.497 15.497 0 01-9.1 9.1 18.815 18.815 0 01-6.8 1.2h-15.5v14.2h-8.6V156h24.2zm-15.5 25.5h15.5a8.802 8.802 0 006.2-14.6 8.604 8.604 0 00-6.2-2.2h-15.5v16.9zm71.4 22.8v-19.9h-22.6v19.8h-8.6V156h8.6v19.8h22.6V156h8.6v48.3zm18.9 0V156h8.6v48.3zm51.4-46.1a21.807 21.807 0 018.2 6.5l-6.8 5.3a13.194 13.194 0 00-5-3.9 17.388 17.388 0 00-7.4-1.5c-4.7 0-8.6 1.4-11.3 4.2-2.7 2.8-4.2 6.7-4.2 11.3 0 4.6 1.5 8.6 4.2 11.3 2.7 2.7 6.7 4.2 11.3 4.2a17.403 17.403 0 007.4-1.5 13.204 13.204 0 005-3.9l6.8 5.3a21.807 21.807 0 01-8.2 6.5 26.497 26.497 0 01-10.9 2.2c-3.311.037-6.6-.539-9.7-1.7a21.899 21.899 0 01-12.8-12.8 27.9 27.9 0 010-19.3 21.899 21.899 0 0112.8-12.8 26.803 26.803 0 019.7-1.7c3.755-.014 7.47.77 10.9 2.3zm-488.5 102.1v18.6h47.2v14.3h-47.2v33h-14.3v-80.3h61.5v14.3h-47.2zm104.9 2.1a30.101 30.101 0 0117.5 17.6 35.202 35.202 0 012.4 13.1 35.71 35.71 0 01-2.4 13.2 30.014 30.014 0 01-6.8 10.7 31.117 31.117 0 01-10.7 6.9 36.385 36.385 0 01-13.1 2.4c-4.51.013-8.984-.8-13.2-2.4a30.102 30.102 0 01-17.6-17.6 36.902 36.902 0 01-2.4-13.2 36.387 36.387 0 012.4-13.101 31.108 31.108 0 016.9-10.699 30.005 30.005 0 0110.7-6.9 35.71 35.71 0 0113.2-2.4c4.48-.041 8.926.774 13.1 2.4zm-26.8 17c-3.3 3.3-5 8-5 13.7 0 5.7 1.7 10.4 5 13.7 3.3 3.3 8 5 13.7 5 5.7 0 10.4-1.7 13.7-5 3.3-3.3 5.1-8 5.1-13.7 0-5.7-1.8-10.4-5.1-13.7-3.3-3.3-8-5.1-13.7-5.1-5.7 0-10.4 1.8-13.8 5.2zm91.3-5c-5.6 0-10.4 1.8-13.7 5.1-3.3 3.3-5 8-5 13.7v33.1h-14.4V260h14.3v5.2a28.508 28.508 0 015.6-2.8 35.202 35.202 0 0113.1-2.4h7.3v14.3h-7.2zm89.7 51.8l-15-41.2-15 41.2h-12l-30.2-66.2h15.8l19.5 43 15.6-43h12.4l15.6 43 19.5-43h15.8l-30.1 66.2h-12zm95 0V321a33.773 33.773 0 01-5.6 2.8 38.205 38.205 0 01-26.4 0 30.5 30.5 0 01-17.5-17.5 36.88 36.88 0 01-2.4-13.2 36.387 36.387 0 012.4-13.101 30.399 30.399 0 016.9-10.699 29.303 29.303 0 0110.6-6.9 37.304 37.304 0 0126.4 0 29.806 29.806 0 015.6 2.8V260h14.3v66.2zm-32.5-46.8c-3.3 3.3-5 8-5 13.7 0 5.7 1.8 10.4 5 13.7 3.2 3.3 8 5 13.7 5 5.7 0 10.4-1.7 13.7-5 3.3-3.3 5-8 5-13.7 0-5.7-1.8-10.4-5-13.7-3.2-3.3-8-5.1-13.7-5.1-5.7 0-10.3 1.8-13.6 5.2zm97.2-5c-5.6 0-10.4 1.8-13.7 5.1-3.3 3.3-5 8-5 13.7v33.1h-14.4V260h14.3v5.2a28.508 28.508 0 015.6-2.8 35.202 35.202 0 0113.1-2.4h7.2v14.3h-7.2zm79.1 51.8h-14.3V321a31.665 31.665 0 01-5.6 2.8 36.91 36.91 0 01-13.2 2.4 36.407 36.407 0 01-13.1-2.4 31.108 31.108 0 01-10.7-6.9 30.005 30.005 0 01-6.9-10.7 35.69 35.69 0 01-2.4-13.2 35.202 35.202 0 012.4-13.1 30.1 30.1 0 0117.6-17.6 35.202 35.202 0 0113.1-2.4 35.71 35.71 0 0113.2 2.4 28.128 28.128 0 015.6 2.8v-28.6h14.3zm-46.8-46.8c-3.3 3.3-5.1 8-5.1 13.7 0 5.7 1.8 10.4 5.1 13.7 3.3 3.3 8 5 13.7 5 5.7 0 10.4-1.7 13.7-5 3.3-3.3 5-8 5-13.7 0-5.7-1.7-10.4-5-13.7-3.3-3.3-8-5.1-13.7-5.1-5.7 0-10.4 1.8-13.6 5.2zm-399.3 270v15.7h-67.2v-87.9h15.7v72.2zm56.9-54.1a33 33 0 0119.2 19.2 38.504 38.504 0 012.6 14.4 39.108 39.108 0 01-2.6 14.4 32.81 32.81 0 01-7.5 11.7 34 34 0 01-11.7 7.5 39.8 39.8 0 01-14.4 2.6 40.4 40.4 0 01-14.4-2.6 32.896 32.896 0 01-19.2-19.2 40.403 40.403 0 01-2.6-14.4 39.8 39.8 0 012.6-14.4 34 34 0 017.5-11.7 32.8 32.8 0 0111.7-7.5 39.105 39.105 0 0114.4-2.6c4.922-.062 9.81.821 14.4 2.6zm-29.4 18.6c-3.6 3.6-5.5 8.8-5.5 14.9s1.9 11.4 5.5 15c3.6 3.6 8.8 5.5 15 5.5 6.2 0 11.4-1.9 14.9-5.5s5.6-8.8 5.6-15c0-6.2-1.9-11.4-5.6-14.9-3.7-3.5-8.8-5.6-14.9-5.6s-11.3 2-15 5.6zm110.6-18.6a33 33 0 0119.2 19.2 38.504 38.504 0 012.6 14.4 39.108 39.108 0 01-2.6 14.4 32.81 32.81 0 01-7.5 11.7 34 34 0 01-11.7 7.5 39.8 39.8 0 01-14.4 2.6 40.403 40.403 0 01-14.4-2.6 32.896 32.896 0 01-19.2-19.2 40.403 40.403 0 01-2.6-14.4 39.8 39.8 0 012.6-14.4 34 34 0 017.5-11.7 32.8 32.8 0 0111.7-7.5 39.108 39.108 0 0114.4-2.6c4.922-.062 9.81.821 14.4 2.6zm-29.4 18.6c-3.6 3.6-5.5 8.8-5.5 14.9s1.9 11.4 5.5 15c3.6 3.6 8.8 5.5 15 5.5 6.2 0 11.4-1.9 14.9-5.5s5.6-8.8 5.6-15c0-6.2-1.9-11.4-5.6-14.9-3.7-3.5-8.8-5.6-14.9-5.6s-11.3 2-15 5.6zm109.7-21.2h22.2l-29.6 29.6 29.6 42.8h-19.1l-21.8-31.5-11.5 11.4v20.1h-15.7v-98.2h15.7v55.9zm51.6-21.1a7.8 7.8 0 11-15.6 0 7.8 7.8 0 0115.6 0zm-15.7 93.5v-72.4h15.7v72.4h-15.6zm85.2-69.8a33 33 0 0119.2 19.2 38.504 38.504 0 012.6 14.4v36.2h-15.7v-36.2c0-6.2-1.9-11.4-5.6-14.9-3.7-3.5-8.8-5.6-14.9-5.6s-11.4 1.9-15 5.6c-3.6 3.7-5.5 8.8-5.5 14.9v36.2h-15.7v-72.4h15.7v5.7a30.814 30.814 0 016.1-3.1 39.108 39.108 0 0114.4-2.6c4.922-.062 9.81.821 14.4 2.6zm105.5 67.1a35.908 35.908 0 01-3.2 15.3 31.009 31.009 0 01-9.2 11.6l-6.2 4.8-9.5-12.4 6.2-4.8a15.21 15.21 0 004.5-5.8 20.919 20.919 0 001.8-8.7v-3a34.705 34.705 0 01-6.1 3.1 41.801 41.801 0 01-28.9 0 33 33 0 01-19.2-19.2 40.403 40.403 0 01-2.6-14.4 39.796 39.796 0 012.6-14.4 33.3 33.3 0 0119.2-19.3 41.801 41.801 0 0128.9 0c2.13.83 4.173 1.869 6.1 3.1v-5.7h15.7v69.7zm-51.2-48.5c-3.6 3.6-5.5 8.9-5.5 15s1.9 11.4 5.5 15c3.6 3.6 8.8 5.5 15 5.5 6.2 0 11.4-1.9 15-5.5 3.6-3.6 5.5-8.8 5.5-15 0-6.2-1.9-11.4-5.5-15-3.6-3.6-8.8-5.5-15-5.5-6.2 0-11.3 1.9-15 5.5z" fill="#999"/><path d="M11520 720h1440V0h-1440z" fill="#f9f9f9"/><path d="M12077.2 211.4a35.091 35.091 0 0112.6 2.3 29.405 29.405 0 0110.2 6.6 28.805 28.805 0 016.6 10.2 35.087 35.087 0 012.3 12.6 34.52 34.52 0 01-2.3 12.6 29.11 29.11 0 01-6.6 10.2 28.283 28.283 0 01-6.6 4.9l15.4 31.8h-14.4l-13.6-28.1h-36.1v27.9h-13v-91h45.6zm-32.5 50.2h32.5c5.6 0 10.3-1.7 13.6-5 3.3-3.3 5-7.9 5-13.5s-1.8-10.3-5-13.6c-3.2-3.3-8-5-13.6-5h-32.5v37.2zm135.2 41v-8a34.33 34.33 0 01-9.2 5.3 43 43 0 01-29.8 0 34.713 34.713 0 01-11.9-7.7 35.208 35.208 0 01-7.7-12 43.8 43.8 0 010-29.7 34.3 34.3 0 0119.7-19.7 43 43 0 0129.8 0 34.277 34.277 0 019.2 5.3v-8h13v74.4h-13zm-41.8-54.8c-4.3 4.3-6.5 10.4-6.5 17.6 0 7.2 2.2 13.3 6.5 17.6 4.3 4.3 10.4 6.6 17.6 6.6 7.2 0 13.3-2.3 17.6-6.6 4.3-4.3 6.5-10.4 6.5-17.6 0-7.2-2.2-13.3-6.5-17.6-4.3-4.3-10.4-6.6-17.6-6.6-7.2 0-13.2 2.3-17.5 6.6zm91.3 41.7h49.3v13h-68.8v-12l49.4-49.4h-49.4v-13h68.8v12zm109.2-58.7a34.3 34.3 0 0119.7 19.7 42.8 42.8 0 010 29.7 33.802 33.802 0 01-19.7 19.7 42.8 42.8 0 01-29.7 0 33.3 33.3 0 01-19.7-19.7 42.8 42.8 0 010-29.7 33.796 33.796 0 0119.7-19.7 42.8 42.8 0 0129.7 0zm-32.5 16.9c-4.3 4.3-6.6 10.4-6.6 17.6 0 7.2 2.3 13.3 6.6 17.6 4.3 4.3 10.4 6.6 17.6 6.6 7.2 0 13.3-2.3 17.6-6.6 4.3-4.3 6.6-10.4 6.6-17.6 0-7.2-2.3-13.3-6.6-17.6-4.3-4.3-10.4-6.6-17.6-6.6-7.2 0-13.3 2.4-17.6 6.7zm10.6-24.5l-9.2-9.2 23.2-23.2 9.2 9.2zm109.3 7.6a34.3 34.3 0 0119.7 19.7 41.29 41.29 0 012.7 14.9v37.2h-13v-37.2c0-7.2-2.3-13.3-6.6-17.6-4.3-4.3-10.4-6.6-17.6-6.6-7.2 0-13.3 2.3-17.6 6.6-4.3 4.3-6.6 10.4-6.6 17.6v37.2h-13v-74.4h13v8a33.695 33.695 0 019.3-5.3 42.8 42.8 0 0129.7-.1zm-361.3 120a17.295 17.295 0 016.7 1.3 12.203 12.203 0 015 3.7 12.696 12.696 0 012.7 5.7 17.92 17.92 0 010 6.9 21.806 21.806 0 01-2.4 6.9 20.703 20.703 0 01-4.7 5.7 20.498 20.498 0 01-13.5 4.9h-14l-2.4 13.7h-10.4l8.6-48.8zm-18.3 24.7h13.9a8.404 8.404 0 005.5-1.8 8.795 8.795 0 002.8-5.2 5.4 5.4 0 00-5.9-7.1h-13.8zm52.1-14.3l-1.5 8.7h27.4l-1.8 10.5h-27.5l-1.5 8.7h27.4l-1.8 10.5h-37.9l8.6-48.8h37.9l-1.8 10.5h-27.5zm77.6 16.7a27.388 27.388 0 01-3 8.6 26.707 26.707 0 01-5.8 7 25.6 25.6 0 01-16.7 6.1 21.813 21.813 0 01-8.3-1.5 16 16 0 01-6.2-4.5 16.303 16.303 0 01-3.3-7 22.822 22.822 0 010-8.6l4.8-27.2h10.4l-4.8 27.2c-.6 3.4 0 6.2 1.6 8.2 1.6 2 4.3 3 7.7 3a13.403 13.403 0 008.8-3 13.697 13.697 0 004.4-8.2l4.8-27.2h10.5zm36.2-16.7l-6.8 38.4h-10.5l6.8-38.4h-14.4l1.8-10.5h39.2l-1.8 10.5zm13.4 23.3l1.8-10.5h24.2l-1.8 10.5zm49.2-23.3l-1.5 8.7h27.4l-1.8 10.5h-27.5l-1.5 8.7h27.4l-1.8 10.5h-37.9l8.6-48.8h37.9l-1.8 10.5h-27.5zm18-13.1l-5.8-8-8.6 8-4.4-4.7 12.1-11.2h4.6l8.1 11.2zm42.6 13.1l-6.8 38.4h-10.4l6.8-38.4h-14.5l1.8-10.5h39.2l-1.8 10.5zm49-10.4a17.107 17.107 0 016.7 1.3 12.095 12.095 0 015.1 3.7 13.092 13.092 0 012.7 5.7c.45 2.278.45 4.622 0 6.9a21.7 21.7 0 01-2.4 6.9 21.397 21.397 0 01-4.7 5.7 24.412 24.412 0 01-3.4 2.3l5.1 16.3h-11.8l-4.2-13.7h-13.2l-2.4 13.7h-10.5l8.6-48.8zm-18.3 24.7h13.9a8.404 8.404 0 005.5-1.8 8.8 8.8 0 002.8-5.2 5.4 5.4 0 00-5.9-7.1h-13.8zm52.9-14.3l-1.5 8.7h27.4l-1.8 10.5h-27.5l-1.5 8.7h27.4l-1.8 10.5h-37.9l8.6-48.8h37.9l-1.8 10.5h-27.5zm-349 96c-2.87-.066-5.67.891-7.9 2.7a12.403 12.403 0 00-4 7.5c-.6 3.1-.1 5.7 1.4 7.4 1.5 1.7 3.8 2.7 6.9 2.7h20.6a26.208 26.208 0 019.9 1.8 18.704 18.704 0 017.4 5.4 19.498 19.498 0 013.9 8.4c.694 3.361.728 6.826.1 10.2a32.297 32.297 0 01-3.7 10.1 30.602 30.602 0 01-16.2 13.8 31.504 31.504 0 01-10.5 1.8h-46.3l2.8-15.6h46.3c2.903.081 5.74-.877 8-2.7a12.704 12.704 0 004-7.4c.5-3.2.1-5.8-1.4-7.5-1.5-1.7-3.9-2.7-7.1-2.7h-20.6a26.094 26.094 0 01-9.8-1.8 19 19 0 01-11.4-13.8 27.48 27.48 0 010-10.1 31.5 31.5 0 0110.5-18.6 30.7 30.7 0 019.4-5.4 31.103 31.103 0 0110.4-1.8h42.5l-2.8 15.6zm101.6 71.9l1-5.7a39.506 39.506 0 01-6.6 3.1 42.502 42.502 0 01-14.8 2.6 35.008 35.008 0 01-13.9-2.6 25.601 25.601 0 01-15.8-19.1 36.61 36.61 0 01-.1-14.3l6.4-36.1h15.6l-6.4 36c-1.1 6.1-.1 11.3 2.9 14.9 3 3.6 7.8 5.6 13.9 5.6a24 24 0 0015.9-5.6 24.498 24.498 0 008.2-14.9l6.4-36.1h15.6l-12.7 72.2zm-8.2-83.1a7.7 7.7 0 01-7.4 6.3 5.1 5.1 0 01-5.1-6.3 7.8 7.8 0 017.3-6.3 5.102 5.102 0 015.2 6.3zm17.2 0a7.7 7.7 0 01-7.4 6.3 5.102 5.102 0 01-5.1-6.3 7.8 7.8 0 017.3-6.3 5.102 5.102 0 015.2 6.3zm75.7 83.1l.9-5.6a41.782 41.782 0 01-6.6 3.1 44.007 44.007 0 01-14.8 2.6 36.098 36.098 0 01-13.9-2.6 26.697 26.697 0 01-10.3-7.5 25.701 25.701 0 01-5.4-11.6 37.004 37.004 0 01-.1-14.4 43.713 43.713 0 015.2-14.3 41.698 41.698 0 0122.5-19.1 41.89 41.89 0 0114.8-2.6c4.761-.074 9.488.81 13.9 2.6a26.33 26.33 0 015.5 3.1l5.5-31.3h15.6l-17.2 97.6zm-26.4-51a24.902 24.902 0 00-8.2 14.9c-1.1 6.2-.1 11.3 2.9 14.9 3 3.6 7.8 5.5 13.9 5.5a23.902 23.902 0 0015.9-5.5 24.7 24.7 0 008.1-14.9c1.1-6.1.1-11.3-2.9-14.9-3-3.6-7.8-5.6-13.9-5.6a24 24 0 00-15.8 5.6zm117.2-18.6a24.895 24.895 0 0110.3 7.5 26.094 26.094 0 015.5 11.6 36.697 36.697 0 010 14.4l-1.4 7.8h-55.3a15.1 15.1 0 003.1 7.1c3 3.6 7.8 5.5 14 5.5a24.696 24.696 0 0013.4-3.7l6.8 12.8a42.603 42.603 0 01-22.9 6.6 36.684 36.684 0 01-13.9-2.6 25.601 25.601 0 01-15.8-19.1 38.32 38.32 0 01-.1-14.4 44.992 44.992 0 015.1-14.3 42.903 42.903 0 019.5-11.6 41.792 41.792 0 0113-7.5 42.502 42.502 0 0114.8-2.6 35 35 0 0113.9 2.5zm-32.6 18.6a23.804 23.804 0 00-5.6 7.1h38.5a13.8 13.8 0 00-3.1-7.1c-2.9-3.6-7.8-5.6-13.9-5.6a24.101 24.101 0 00-15.9 5.6zm117.2-18.6a24.695 24.695 0 0110.3 7.5 25.406 25.406 0 015.4 11.6 36.61 36.61 0 01.1 14.3l-6.4 36.1h-15.5l6.4-36.1c1.1-6.1.1-11.3-2.9-14.9-3-3.6-7.8-5.6-13.9-5.6a24.101 24.101 0 00-15.9 5.6 24.497 24.497 0 00-8.1 14.9l-6.4 36.1h-15.7l12.8-72.2h15.6l-1 5.7a36.808 36.808 0 016.6-3.1 42.902 42.902 0 0114.9-2.6 34.693 34.693 0 0113.7 2.7z" fill="#999"/><path d="M12960 720h1440V0h-1440z" fill="#0c0c0c"/><path d="M13345.7 264.8l-4.8 27.6h-6l4.8-27.6h-10.4l1.1-6h26.7l-1.1 6zm21.7 2.1a14.47 14.47 0 012.5-1.2 16.296 16.296 0 015.7-1 13.41 13.41 0 015.3 1 9.603 9.603 0 013.9 2.9 10.008 10.008 0 012.1 4.5 14.101 14.101 0 010 5.5l-2.4 13.8h-6l2.4-13.8c.503-1.969.1-4.06-1.1-5.7a6.603 6.603 0 00-5.3-2.1 9.302 9.302 0 00-6.1 2.1 9.498 9.498 0 00-3.1 5.7l-2.4 13.8h-6l6.6-37.5h6zm45.6-1.2a9.603 9.603 0 013.9 2.9 10.008 10.008 0 012.1 4.5 14.101 14.101 0 010 5.5l-.5 3h-21.2c.16.989.574 1.919 1.2 2.7a6.701 6.701 0 005.4 2.1 9.495 9.495 0 005.1-1.4l2.6 4.9a16.404 16.404 0 01-8.8 2.5 14.098 14.098 0 01-5.4-1 9.798 9.798 0 01-6-7.3 14.701 14.701 0 010-5.5 17.303 17.303 0 012-5.5 16.504 16.504 0 013.6-4.5 16.003 16.003 0 015-2.9 16.296 16.296 0 015.7-1 13.41 13.41 0 015.3 1zm-12.5 7.1a9.083 9.083 0 00-2.1 2.7h14.8a5.3 5.3 0 00-1.2-2.7 6.603 6.603 0 00-5.3-2.1 9.302 9.302 0 00-6.2 2.2zm77.7-7.1a9.403 9.403 0 013.7 2.7 9.706 9.706 0 012 4.2 13.501 13.501 0 010 5.1l-2.6 14.8h-6l2.6-14.8c.7-4.2-1.4-6.9-5.6-6.9a7.9 7.9 0 00-8.1 6.9l-2.6 14.8h-6l2.6-14.8c.7-4.2-1.4-6.9-5.6-6.9a7.9 7.9 0 00-8.1 6.9l-2.6 14.8h-6l4.9-27.7h6l-.3 1.8 1.9-.8a15.005 15.005 0 015.3-.9 12.402 12.402 0 014.9.9 9.006 9.006 0 013.7 2.7l.5.6.7-.6a13.102 13.102 0 014.6-2.7 15.122 15.122 0 015.3-.9c1.637-.05 3.268.222 4.8.8zm29.1 26.7l.4-2.2-2.5 1.2a16.89 16.89 0 01-5.7 1 14.098 14.098 0 01-5.4-1 9.997 9.997 0 01-6-7.3 14.701 14.701 0 010-5.5 17.303 17.303 0 012-5.5 16.102 16.102 0 013.7-4.5 15.697 15.697 0 015-2.9 16.296 16.296 0 015.7-1 13.607 13.607 0 015.4 1c.743.319 1.447.722 2.1 1.2l.4-2.2h6l-4.9 27.7h-6zm-10.2-19.6a9.7 9.7 0 00-3.1 5.7 6.996 6.996 0 001.1 5.7 6.7 6.7 0 005.4 2.1 9.203 9.203 0 006.1-2.1 9.607 9.607 0 003.1-5.7c.503-1.969.1-4.06-1.1-5.7a6.6 6.6 0 00-5.4-2.1 9.302 9.302 0 00-6 2.2zm47.5-7.1a9.493 9.493 0 014 2.9 9.707 9.707 0 012.1 4.5 14.101 14.101 0 010 5.5l-2.4 13.8h-6l2.4-13.8c.503-1.969.1-4.06-1.1-5.7a6.603 6.603 0 00-5.3-2.1 9.304 9.304 0 00-6.1 2.1 9.4 9.4 0 00-3.1 5.7l-2.4 13.8h-6l4.9-27.7h6l-.4 2.2a14.186 14.186 0 012.5-1.2 16.513 16.513 0 015.7-1 13.32 13.32 0 015.2 1zm29.6 26.7l.4-2.2c-.795.475-1.632.877-2.5 1.2a16.3 16.3 0 01-5.7 1 13.41 13.41 0 01-5.3-1 9.798 9.798 0 01-6-7.3 14.101 14.101 0 010-5.5l2.4-13.8h6l-2.5 13.8a6.798 6.798 0 001.1 5.7 6.598 6.598 0 005.4 2.1 9.203 9.203 0 006.1-2.1 9.4 9.4 0 003.1-5.7l2.4-13.8h6l-4.9 27.7h-6zm24.1-21.7a2.999 2.999 0 00-1.9.6 2.898 2.898 0 00-.9 1.8 2.2 2.2 0 00.3 1.8 2.101 2.101 0 001.7.6h9.9a8.612 8.612 0 013.2.6 6.002 6.002 0 013.7 4.5 8.407 8.407 0 010 3.3 9.811 9.811 0 01-1.2 3.3 10.503 10.503 0 01-2.3 2.8 10.39 10.39 0 01-3.1 1.8c-1.089.4-2.24.603-3.4.6h-18.3l1.1-6h18.3a2.599 2.599 0 002.8-2.4 1.8 1.8 0 00-2-2.4h-9.9a8.386 8.386 0 01-3.2-.6 5.89 5.89 0 01-2.4-1.8 6.193 6.193 0 01-1.3-2.7 8.08 8.08 0 010-3.3 9.988 9.988 0 011.2-3.3 10.9 10.9 0 012.3-2.8 10.09 10.09 0 013.1-1.8 10.186 10.186 0 013.4-.6h16.8l-1.1 6zm44.4-3.4l-4.3 4.9a7.403 7.403 0 00-4.7-1.4 9.304 9.304 0 00-6.1 2.1 9.498 9.498 0 00-3.1 5.7 6.901 6.901 0 001.1 5.7 6.701 6.701 0 005.4 2.1 9.495 9.495 0 005.1-1.4l2.6 4.9a16.404 16.404 0 01-8.8 2.5 14.098 14.098 0 01-5.4-1 9.798 9.798 0 01-6-7.3 14.701 14.701 0 010-5.5 17.303 17.303 0 012-5.5 16.504 16.504 0 013.6-4.5 16.003 16.003 0 015-2.9 16.296 16.296 0 015.7-1 12.3 12.3 0 017.9 2.6zm18.1 3.4a9.302 9.302 0 00-6.1 2.1 9.498 9.498 0 00-3.1 5.7l-2.4 13.8h-6l4.9-27.7h6l-.4 2.2a14.47 14.47 0 012.5-1.2 16.205 16.205 0 015.7-1h3l-1.1 6h-3zm4.4 21.7l4.9-27.7h6l-4.9 27.7zm12.3-35.7a3.7 3.7 0 01-3.5 3 2.498 2.498 0 01-2.5-3 3.7 3.7 0 013.5-3 2.503 2.503 0 012.5 3zm25 9a9.7 9.7 0 013.9 2.9 10.008 10.008 0 012.1 4.5 14.101 14.101 0 010 5.5 17.101 17.101 0 01-2 5.5 16.074 16.074 0 01-3.7 4.5 15.794 15.794 0 01-5 2.9 16.789 16.789 0 01-5.7 1 14 14 0 01-5.3-1 10.81 10.81 0 01-2.1-1.2l-2.1 12h-6l6.6-37.6h6l-.4 2.2a15.397 15.397 0 012.5-1.2 16.809 16.809 0 015.7-1c1.882-.04 3.752.3 5.5 1zm-12.5 7.2a9.4 9.4 0 00-3.1 5.7 6.901 6.901 0 001.1 5.7 6.598 6.598 0 005.4 2.1 9.304 9.304 0 006.1-2.1 9.607 9.607 0 003.1-5.7 6.901 6.901 0 00-1.1-5.7 6.701 6.701 0 00-5.4-2.1 9.304 9.304 0 00-6.1 2.1zm39.2-8.2l-1.1 6h-7.9l-1.9 10.8a7.189 7.189 0 00.1 3.3 4.607 4.607 0 001.3 2.2l2.1 1.8-4.5 4.8-2.1-1.8a9.193 9.193 0 01-2.7-4.4 12.802 12.802 0 01-.2-5.8l4-22.7h6l-1 5.9h7.9zm14.3 27.7l4.9-27.7h6l-4.9 27.7zm12.3-35.7a3.7 3.7 0 01-3.5 3 2.498 2.498 0 01-2.5-3 3.7 3.7 0 013.5-3 2.503 2.503 0 012.5 3zm12.2 14a2.999 2.999 0 00-1.9.6 2.898 2.898 0 00-.9 1.8 2.2 2.2 0 00.3 1.8 2.101 2.101 0 001.7.6h9.8a8.612 8.612 0 013.2.6 6 6 0 013.7 4.5 8.407 8.407 0 010 3.3 9.811 9.811 0 01-1.2 3.3 10.503 10.503 0 01-2.3 2.8 10.39 10.39 0 01-3.1 1.8c-1.089.4-2.24.603-3.4.6h-18.1l1.1-6h18.3a2.599 2.599 0 002.8-2.4 1.8 1.8 0 00-2-2.4h-9.9a8.386 8.386 0 01-3.2-.6 5.89 5.89 0 01-2.4-1.8 6.193 6.193 0 01-1.3-2.7 8.08 8.08 0 010-3.3 9.988 9.988 0 011.2-3.3 10.9 10.9 0 012.3-2.8 10.09 10.09 0 013.1-1.8 10.186 10.186 0 013.4-.6h16.8l-1.1 6zm52.4-6l-1.1 6h-7.9l-1.9 10.8a7.189 7.189 0 00.1 3.3 4.6 4.6 0 001.3 2.2l2.1 1.8-4.5 4.8-2.1-1.8a9.193 9.193 0 01-2.7-4.4 12.802 12.802 0 01-.2-5.8l4-22.7h6l-1 5.9h7.9zm18.1 6a9.304 9.304 0 00-6.1 2.1 9.498 9.498 0 00-3.1 5.7l-2.4 13.8h-6l4.9-27.7h6l-.4 2.2a14.47 14.47 0 012.5-1.2 16.201 16.201 0 015.7-1h3l-1.1 6h-3zm23.3 21.7l.4-2.2-2.5 1.2a16.89 16.89 0 01-5.7 1 14.098 14.098 0 01-5.4-1 9.997 9.997 0 01-6-7.3 14.701 14.701 0 010-5.5 17.303 17.303 0 012-5.5 16.102 16.102 0 013.7-4.5 15.697 15.697 0 015-2.9 16.296 16.296 0 015.7-1 13.607 13.607 0 015.4 1c.743.319 1.447.722 2.1 1.2l.4-2.2h6l-4.9 27.7h-6zm-10.2-19.6a9.7 9.7 0 00-3.1 5.7 6.996 6.996 0 001.1 5.7 6.7 6.7 0 005.4 2.1 9.203 9.203 0 006.1-2.1 9.607 9.607 0 003.1-5.7c.503-1.969.1-4.06-1.1-5.7a6.6 6.6 0 00-5.4-2.1 9.302 9.302 0 00-6.1 2.2zm47.4-7.1a9.493 9.493 0 014 2.9 9.707 9.707 0 012.1 4.5 14.101 14.101 0 010 5.5l-2.4 13.8h-6l2.4-13.8c.503-1.969.1-4.06-1.1-5.7a6.603 6.603 0 00-5.3-2.1 9.304 9.304 0 00-6.1 2.1 9.4 9.4 0 00-3.1 5.7l-2.5 13.8h-6l4.9-27.7h6l-.4 2.2a14.116 14.116 0 012.5-1.2 16.513 16.513 0 015.7-1c1.816-.032 3.62.308 5.3 1zm21.7 5a2.999 2.999 0 00-1.9.6 2.898 2.898 0 00-.9 1.8 2.197 2.197 0 00.3 1.8 2.1 2.1 0 001.7.6h9.9a8.612 8.612 0 013.2.6 6.002 6.002 0 013.7 4.5 8.407 8.407 0 010 3.3 9.811 9.811 0 01-1.2 3.3 10.503 10.503 0 01-2.3 2.8 10.414 10.414 0 01-3.1 1.8c-1.089.4-2.24.603-3.4.6h-18.3l1.1-6h18.3a2.599 2.599 0 002.8-2.4 1.8 1.8 0 00-2-2.4h-9.9a8.386 8.386 0 01-3.2-.6 5.89 5.89 0 01-2.4-1.8 6.193 6.193 0 01-1.3-2.7 8.08 8.08 0 010-3.3 9.988 9.988 0 011.2-3.3 10.9 10.9 0 012.3-2.8 10.09 10.09 0 013.1-1.8 10.186 10.186 0 013.4-.6h16.8l-1.1 6zm44.5-3.4l-4.3 4.9a7.403 7.403 0 00-4.7-1.4 9.304 9.304 0 00-6.1 2.1 9.498 9.498 0 00-3.1 5.7 6.901 6.901 0 001.1 5.7 6.701 6.701 0 005.4 2.1 9.495 9.495 0 005.1-1.4l2.6 4.9a16.404 16.404 0 01-8.8 2.5 14.098 14.098 0 01-5.4-1 9.798 9.798 0 01-6-7.3 14.701 14.701 0 010-5.5 17.303 17.303 0 012-5.5 16.504 16.504 0 013.6-4.5 16.003 16.003 0 015-2.9 16.296 16.296 0 015.7-1 12.3 12.3 0 017.9 2.6zm18 3.4a9.304 9.304 0 00-6.1 2.1 9.498 9.498 0 00-3.1 5.7l-2.4 13.8h-6l4.9-27.7h6l-.4 2.2a14.47 14.47 0 012.5-1.2 16.201 16.201 0 015.7-1h3l-1.1 6h-3zm4.4 21.7l4.9-27.7h6l-4.9 27.7zm12.3-35.7a3.7 3.7 0 01-3.5 3 2.498 2.498 0 01-2.5-3 3.7 3.7 0 013.5-3 2.501 2.501 0 012.6 3zm11.5 10.2a14.47 14.47 0 012.5-1.2 16.296 16.296 0 015.7-1 13.41 13.41 0 015.3 1 9.603 9.603 0 013.9 2.9 10.008 10.008 0 012.1 4.5 14.101 14.101 0 010 5.5 17 17 0 01-2 5.5 16.199 16.199 0 01-8.6 7.3 16.588 16.588 0 01-5.7 1 14.098 14.098 0 01-5.4-1 10.81 10.81 0 01-2.1-1.2l-.4 2.2h-6l6.6-37.5h6zm1.1 6a9.493 9.493 0 00-3.1 5.7 6.898 6.898 0 001.1 5.7 6.701 6.701 0 005.4 2.1 9.101 9.101 0 006.1-2.1 9.498 9.498 0 003.1-5.7c.504-1.969.1-4.06-1.1-5.7a6.603 6.603 0 00-5.3-2.1 9.303 9.303 0 00-6.3 2.1zm43.5-7.2a9.603 9.603 0 013.9 2.9 10.008 10.008 0 012.1 4.5 14.101 14.101 0 010 5.5l-.5 3h-21.2c.16.989.574 1.919 1.2 2.7a6.701 6.701 0 005.4 2.1 9.495 9.495 0 005.1-1.4l2.6 4.9a16.404 16.404 0 01-8.8 2.5 14.098 14.098 0 01-5.4-1 9.798 9.798 0 01-6-7.3 14.701 14.701 0 010-5.5 17.303 17.303 0 012-5.5 16.504 16.504 0 013.6-4.5 16.003 16.003 0 015-2.9 16.296 16.296 0 015.7-1 13.41 13.41 0 015.3 1zm-12.5 7.1a9.2 9.2 0 00-2.1 2.7h14.8a5.3 5.3 0 00-1.2-2.7 6.603 6.603 0 00-5.3-2.1 9.302 9.302 0 00-6.2 2.2zm41.2 19.6l.4-2.2-2.5 1.2a16.89 16.89 0 01-5.7 1 13.9 13.9 0 01-5.3-1 10.297 10.297 0 01-4-2.9 9.895 9.895 0 01-2.1-4.5 14.178 14.178 0 010-5.5 16.706 16.706 0 012-5.5 15.999 15.999 0 018.6-7.3 16.09 16.09 0 015.7-1 13.607 13.607 0 015.4 1c.745.315 1.451.717 2.1 1.2l2.1-12h6l-6.6 37.5h-6zm-10.1-19.6a9.597 9.597 0 00-3.1 5.7 6.898 6.898 0 001.1 5.7 6.6 6.6 0 005.4 2.1 9.203 9.203 0 006.1-2.1 9.504 9.504 0 003.1-5.7c.503-1.969.1-4.06-1.1-5.7a6.6 6.6 0 00-5.4-2.1 9.202 9.202 0 00-6.2 2.2zm-726.1 50.5a9.603 9.603 0 013.9 2.9 10.008 10.008 0 012.1 4.5 14.101 14.101 0 010 5.5 17.101 17.101 0 01-2 5.5 16.199 16.199 0 01-8.6 7.3 16.588 16.588 0 01-5.7 1 14.098 14.098 0 01-5.4-1 9.798 9.798 0 01-6-7.3 14.701 14.701 0 010-5.5 17.285 17.285 0 012-5.5 16.49 16.49 0 013.6-4.5 16.003 16.003 0 015-2.9 16.3 16.3 0 015.7-1 13.41 13.41 0 015.4 1zm-12.5 7.2a9.498 9.498 0 00-3.1 5.7 6.901 6.901 0 001.1 5.7 6.701 6.701 0 005.4 2.1 9.101 9.101 0 006.1-2.1 9.498 9.498 0 003.1-5.7c.503-1.969.1-4.06-1.1-5.7a6.603 6.603 0 00-5.3-2.1 9.304 9.304 0 00-6.2 2.1zm45-7.2a9.502 9.502 0 014 2.9 9.707 9.707 0 012.1 4.5 14.101 14.101 0 010 5.5l-2.5 13.8h-6l2.4-13.8c.503-1.969.1-4.06-1.1-5.7a6.603 6.603 0 00-5.3-2.1 9.304 9.304 0 00-6.1 2.1 9.4 9.4 0 00-3.1 5.7l-2.5 13.8h-6l4.9-27.7h6l-.4 2.2a14.186 14.186 0 012.5-1.2 16.513 16.513 0 015.7-1c1.85-.046 3.689.295 5.4 1zm27.5-1l-1.1 6h-7.9l-1.9 10.8a7.189 7.189 0 00.1 3.3 4.6 4.6 0 001.3 2.2l2.1 1.8-4.5 4.8-2.1-1.8a9.193 9.193 0 01-2.7-4.4 12.802 12.802 0 01-.2-5.8l4-22.7h6l-1 5.9h7.9zm21.6 1a9.603 9.603 0 013.9 2.9 10.008 10.008 0 012.1 4.5 14.101 14.101 0 010 5.5 17.101 17.101 0 01-2 5.5 16.199 16.199 0 01-8.6 7.3 16.588 16.588 0 01-5.7 1 14.098 14.098 0 01-5.4-1 9.798 9.798 0 01-6-7.3 14.701 14.701 0 010-5.5 17.285 17.285 0 012-5.5 16.49 16.49 0 013.6-4.5 16.003 16.003 0 015-2.9 16.296 16.296 0 015.7-1 13.41 13.41 0 015.4 1zm-12.5 7.1a9.498 9.498 0 00-3.1 5.7 6.901 6.901 0 001.1 5.7 6.701 6.701 0 005.4 2.1 9.101 9.101 0 006.1-2.1 9.498 9.498 0 003.1-5.7c.503-1.969.1-4.06-1.1-5.7a6.603 6.603 0 00-5.3-2.1 9.302 9.302 0 00-6.3 2.2zm54.1-8.1l-1.1 6h-7.9l-1.9 10.8a7.189 7.189 0 00.1 3.3 4.607 4.607 0 001.3 2.2l2.1 1.8-4.5 4.8-2.1-1.8a9.2 9.2 0 01-2.7-4.4 12.802 12.802 0 01-.2-5.8l4-22.7h6l-1 5.9h7.9zm10.9 2.2a14.47 14.47 0 012.5-1.2 16.296 16.296 0 015.7-1 13.41 13.41 0 015.3 1 9.603 9.603 0 013.9 2.9 10.008 10.008 0 012.1 4.5 14.101 14.101 0 010 5.5l-2.3 13.8h-6l2.4-13.8c.503-1.969.1-4.06-1.1-5.7a6.603 6.603 0 00-5.3-2.1 9.304 9.304 0 00-6.1 2.1 9.498 9.498 0 00-3.1 5.7l-2.5 13.8h-6l6.6-37.5h6zm23.4 25.5l4.9-27.7h6l-4.9 27.7zm12.3-35.7a3.7 3.7 0 01-3.5 3 2.498 2.498 0 01-2.5-3 3.7 3.7 0 013.5-3 2.5 2.5 0 012.5 3zm25 9a9.502 9.502 0 014 2.9 9.697 9.697 0 012.1 4.5 14.101 14.101 0 010 5.5l-2.5 13.8h-6l2.4-13.8c.503-1.969.1-4.06-1.1-5.7a6.603 6.603 0 00-5.3-2.1 9.304 9.304 0 00-6.1 2.1 9.4 9.4 0 00-3.1 5.7l-2.5 13.8h-6l4.9-27.7h6l-.4 2.2a14.186 14.186 0 012.5-1.2 16.513 16.513 0 015.7-1c1.85-.046 3.689.295 5.4 1zm35.1 5a2.999 2.999 0 00-1.9.6 2.898 2.898 0 00-.9 1.8 2.2 2.2 0 00.3 1.8 2.101 2.101 0 001.7.6h9.9a8.592 8.592 0 013.2.6 6 6 0 013.7 4.5 8.407 8.407 0 010 3.3 9.811 9.811 0 01-1.2 3.3 10.503 10.503 0 01-2.3 2.8 10.39 10.39 0 01-3.1 1.8c-1.089.4-2.24.603-3.4.6h-18.3l1.1-6h18.3a2.599 2.599 0 002.8-2.4 1.8 1.8 0 00-2-2.4h-9.9a8.386 8.386 0 01-3.2-.6 5.89 5.89 0 01-2.4-1.8 6.193 6.193 0 01-1.3-2.7 8.08 8.08 0 010-3.3 10.01 10.01 0 011.2-3.3 10.9 10.9 0 012.3-2.8c.918-.78 1.968-1.39 3.1-1.8a10.186 10.186 0 013.4-.6h16.8l-1.1 6zm19.5 21.7l6.6-37.5h6l-6.6 37.5zm13.2 0l4.9-27.7h6l-4.9 27.7zm12.3-35.7a3.7 3.7 0 01-3.5 3 2.498 2.498 0 01-2.5-3 3.7 3.7 0 013.5-3 2.5 2.5 0 012.5 3zm26.3 34.7a15.7 15.7 0 01-6.6 10.3l-2.7 1.8-2.8-4.8 2.7-1.8a7.697 7.697 0 002.1-2.2 9.108 9.108 0 001.2-3.3l.2-1.1-2.5 1.2a16.887 16.887 0 01-5.7 1 14.098 14.098 0 01-5.4-1 9.798 9.798 0 01-6-7.3 14.701 14.701 0 010-5.5 17.294 17.294 0 012-5.5 16.201 16.201 0 018.6-7.4 16.911 16.911 0 015.7-1 14.098 14.098 0 015.4 1c.74.324 1.444.727 2.1 1.2l.4-2.2h6zm-16.3-18.6a9.797 9.797 0 00-3.1 5.7 6.996 6.996 0 001.1 5.7 6.7 6.7 0 005.4 2.1 9.203 9.203 0 006.1-2.1 9.607 9.607 0 003.1-5.7 6.901 6.901 0 00-1.1-5.7 6.701 6.701 0 00-5.4-2.1 9.4 9.4 0 00-6.1 2.2zm33.9-5.9a14.47 14.47 0 012.5-1.2 16.296 16.296 0 015.7-1 13.41 13.41 0 015.3 1 9.603 9.603 0 013.9 2.9 10.008 10.008 0 012.1 4.5 14.101 14.101 0 010 5.5l-2.3 13.8h-6l2.4-13.8c.503-1.969.1-4.06-1.1-5.7a6.603 6.603 0 00-5.3-2.1 9.304 9.304 0 00-6.1 2.1 9.498 9.498 0 00-3.1 5.7l-2.5 13.8h-6l6.6-37.5h6zm41-2.2l-1.1 6h-7.9l-1.9 10.8a7.189 7.189 0 00.1 3.3 4.6 4.6 0 001.3 2.2l2.1 1.8-4.5 4.8-2.1-1.8a9.2 9.2 0 01-2.7-4.4 12.802 12.802 0 01-.2-5.8l4-22.7h6l-1 5.9h7.9zm.4 27.7l6.6-37.5h6l-6.6 37.5zm15.4 9.9l7.4-11.8-7.2-25.8h6.7l5.2 18.5 11.7-18.5h6.6l-23.7 37.6h-6.6zm74.8-9.9l-3.2-17.3-9.4 17.3h-5l-7.7-27.7h6.6l5 18 9.7-18h5.2l3.4 18 11.3-18h6.6l-17.5 27.7zm39.8 0l.4-2.2-2.5 1.2a16.89 16.89 0 01-5.7 1 14.098 14.098 0 01-5.4-1 9.999 9.999 0 01-6-7.3 14.701 14.701 0 010-5.5 17.285 17.285 0 012-5.5 16.102 16.102 0 013.7-4.5 15.697 15.697 0 015-2.9 16.296 16.296 0 015.7-1 13.607 13.607 0 015.4 1c.743.32 1.447.722 2.1 1.2l.4-2.2h6l-5.1 27.7zm-10.2-19.6a9.7 9.7 0 00-3.1 5.7 6.996 6.996 0 001.1 5.7 6.7 6.7 0 005.4 2.1 9.203 9.203 0 006.1-2.1 9.607 9.607 0 003.1-5.7c.503-1.969.1-4.06-1.1-5.7a6.6 6.6 0 00-5.4-2.1 9.302 9.302 0 00-6.1 2.2zm49 19.6h-7.4l-4.8-8.7-7.9 8.7h-7.4l12.5-13.8-7.6-13.8h7.4l4.8 8.7 7.9-8.7h7.4l-12.5 13.8zm24.6-26.7a9.603 9.603 0 013.9 2.9 10.008 10.008 0 012.1 4.5 14.101 14.101 0 010 5.5l-.5 3h-21.2c.16.989.574 1.919 1.2 2.7a6.701 6.701 0 005.4 2.1 9.495 9.495 0 005.1-1.4l2.6 4.9a16.404 16.404 0 01-8.8 2.5 14.098 14.098 0 01-5.4-1 9.798 9.798 0 01-6-7.3 14.701 14.701 0 010-5.5 17.285 17.285 0 012-5.5 16.49 16.49 0 013.6-4.5 16.003 16.003 0 015-2.9 16.296 16.296 0 015.7-1 13.41 13.41 0 015.3 1zm-12.5 7.1a9.083 9.083 0 00-2.1 2.7h14.8a5.297 5.297 0 00-1.2-2.7 6.603 6.603 0 00-5.3-2.1 9.304 9.304 0 00-6.2 2.2zm41.2 19.6l.4-2.2-2.5 1.2a16.887 16.887 0 01-5.7 1 13.9 13.9 0 01-5.3-1 10.297 10.297 0 01-4-2.9 9.895 9.895 0 01-2.1-4.5 14.178 14.178 0 010-5.5 16.813 16.813 0 012-5.5 15.614 15.614 0 013.6-4.5 15.794 15.794 0 015-2.9 16.09 16.09 0 015.7-1 13.607 13.607 0 015.4 1c.746.315 1.45.717 2.1 1.2l2.1-12h6l-6.7 37.6zm-10.1-19.6a9.597 9.597 0 00-3.1 5.7 6.901 6.901 0 001.1 5.7 6.601 6.601 0 005.3 2.2 9.203 9.203 0 006.1-2.1 9.504 9.504 0 003.1-5.7c.503-1.969.1-4.06-1.1-5.7a6.6 6.6 0 00-5.4-2.1 9.2 9.2 0 00-6 2.1zm-584 55.5a2.999 2.999 0 00-1.9.6 2.898 2.898 0 00-.9 1.8 2.2 2.2 0 00.3 1.8 2.1 2.1 0 001.7.6h9.9a8.592 8.592 0 013.2.6 6 6 0 013.7 4.5 8.407 8.407 0 010 3.3 9.811 9.811 0 01-1.2 3.3 10.503 10.503 0 01-2.3 2.8 10.39 10.39 0 01-3.1 1.8c-1.089.4-2.24.603-3.4.6h-18.2l1.1-6h18.3a2.599 2.599 0 002.8-2.4 1.8 1.8 0 00-2-2.4h-9.9a8.386 8.386 0 01-3.2-.6 5.897 5.897 0 01-2.4-1.8 6.193 6.193 0 01-1.3-2.7 8.08 8.08 0 010-3.3 9.988 9.988 0 011.2-3.3 10.9 10.9 0 012.3-2.8 10.105 10.105 0 016.5-2.4h16.8l-1.1 6zm30-3.8a14.47 14.47 0 012.5-1.2 16.296 16.296 0 015.7-1 13.41 13.41 0 015.3 1 9.603 9.603 0 013.9 2.9 10.008 10.008 0 012.1 4.5 14.101 14.101 0 010 5.5l-2.4 13.8h-6l2.4-13.8c.503-1.969.1-4.06-1.1-5.7a6.603 6.603 0 00-5.3-2.1 9.302 9.302 0 00-6.1 2.1 9.498 9.498 0 00-3.1 5.7l-2.4 13.8h-6l6.6-37.5h6zm45.6-1.2a9.603 9.603 0 013.9 2.9 10.008 10.008 0 012.1 4.5 14.101 14.101 0 010 5.5l-.5 3h-21.2c.16.989.573 1.919 1.2 2.7a6.701 6.701 0 005.4 2.1 9.495 9.495 0 005.1-1.4l2.6 4.9a16.404 16.404 0 01-8.8 2.5 14.098 14.098 0 01-5.4-1 9.798 9.798 0 01-6-7.3 14.701 14.701 0 010-5.5 17.294 17.294 0 012-5.5 16.404 16.404 0 013.6-4.5 16.003 16.003 0 015-2.9 16.296 16.296 0 015.7-1 13.41 13.41 0 015.3 1zm-12.5 7.1a9.099 9.099 0 00-2.1 2.7h14.8a5.297 5.297 0 00-1.2-2.7 6.603 6.603 0 00-5.3-2.1 9.304 9.304 0 00-6.2 2.2zm43.5-7.1a9.603 9.603 0 013.9 2.9 10.008 10.008 0 012.1 4.5 14.101 14.101 0 010 5.5l-.5 3h-21.1c.16.989.574 1.919 1.2 2.7a6.701 6.701 0 005.4 2.1 9.495 9.495 0 005.1-1.4l2.6 4.9a16.404 16.404 0 01-8.8 2.5 14.098 14.098 0 01-5.4-1 9.798 9.798 0 01-6-7.3 14.701 14.701 0 010-5.5 17.294 17.294 0 012-5.5 16.404 16.404 0 013.6-4.5 16.003 16.003 0 015-2.9 16.3 16.3 0 015.7-1 13.4 13.4 0 015.2 1zm-12.5 7.1a9.099 9.099 0 00-2.1 2.7h14.8a5.297 5.297 0 00-1.2-2.7 6.603 6.603 0 00-5.3-2.1 9.304 9.304 0 00-6.2 2.2zm39.3-8.1l-1.1 6h-7.9l-1.9 10.8a7.189 7.189 0 00.1 3.3 4.6 4.6 0 001.3 2.2l2.1 1.8-4.5 4.8-2.1-1.8a9.193 9.193 0 01-2.7-4.4 12.802 12.802 0 01-.2-5.8l4-22.7h6l-1 5.9h7.9zm11.2 6a2.999 2.999 0 00-1.9.6 2.898 2.898 0 00-.9 1.8 2.2 2.2 0 00.3 1.8 2.101 2.101 0 001.7.6h9.9a8.612 8.612 0 013.2.6 6.002 6.002 0 013.7 4.5 8.407 8.407 0 010 3.3 9.811 9.811 0 01-1.2 3.3 10.503 10.503 0 01-2.3 2.8 10.39 10.39 0 01-3.1 1.8c-1.089.4-2.24.603-3.4.6h-18.3l1.1-6h18.3a2.599 2.599 0 002.8-2.4 1.8 1.8 0 00-2-2.4h-9.9a8.386 8.386 0 01-3.2-.6 5.89 5.89 0 01-2.4-1.8 6.193 6.193 0 01-1.3-2.7 8.08 8.08 0 010-3.3 9.988 9.988 0 011.2-3.3 10.9 10.9 0 012.3-2.8 10.105 10.105 0 016.5-2.4h16.8l-1.1 6zm57.7-5a9.603 9.603 0 013.9 2.9 10.008 10.008 0 012.1 4.5 14.101 14.101 0 010 5.5 17.101 17.101 0 01-2 5.5 16.202 16.202 0 01-8.6 7.3 16.684 16.684 0 01-5.7 1 14.098 14.098 0 01-5.4-1 9.798 9.798 0 01-6-7.3 14.701 14.701 0 010-5.5 17.285 17.285 0 012-5.5 16.404 16.404 0 013.6-4.5 16.003 16.003 0 015-2.9 16.296 16.296 0 015.7-1 13.41 13.41 0 015.4 1zm-12.5 7.1a9.498 9.498 0 00-3.1 5.7 6.901 6.901 0 001.1 5.7 6.7 6.7 0 005.4 2.1 9.101 9.101 0 006.1-2.1 9.504 9.504 0 003.1-5.7c.503-1.969.1-4.06-1.1-5.7a6.603 6.603 0 00-5.3-2.1 9.302 9.302 0 00-6.2 2.2zm35-12.5a7.593 7.593 0 00-2.1 2.2 9.957 9.957 0 00-1 2.3h7.8l-1.1 6h-7.9l-3.8 21.7h-6l4.7-26.7a15.59 15.59 0 012.3-5.8 14.905 14.905 0 014.3-4.4l2.7-1.8 2.8 4.8zm43.1 5.4a9.7 9.7 0 013.9 2.9 10.008 10.008 0 012.1 4.5 14.101 14.101 0 010 5.5 17.101 17.101 0 01-2 5.5 16.074 16.074 0 01-3.7 4.5 15.794 15.794 0 01-5 2.9 16.789 16.789 0 01-5.7 1 14 14 0 01-5.3-1 10.81 10.81 0 01-2.1-1.2l-2.1 12h-6l6.6-37.6h6l-.4 2.2a15.397 15.397 0 012.5-1.2 16.809 16.809 0 015.7-1 13.9 13.9 0 015.5 1zm-12.5 7.2a9.4 9.4 0 00-3.1 5.7 6.901 6.901 0 001.1 5.7 6.598 6.598 0 005.4 2.1 9.299 9.299 0 006.1-2.1 9.607 9.607 0 003.1-5.7 6.901 6.901 0 00-1.1-5.7 6.701 6.701 0 00-5.4-2.1 9.304 9.304 0 00-6.1 2.1zm41.2 19.5l.4-2.2-2.5 1.2a16.89 16.89 0 01-5.7 1 14.098 14.098 0 01-5.4-1 10 10 0 01-6-7.3 14.701 14.701 0 010-5.5 17.285 17.285 0 012-5.5 16.102 16.102 0 013.7-4.5 15.697 15.697 0 015-2.9 16.296 16.296 0 015.7-1 13.607 13.607 0 015.4 1c.743.319 1.448.722 2.1 1.2l.4-2.2h6l-4.9 27.7h-6zm-10.2-19.6a9.697 9.697 0 00-3.1 5.7 7 7 0 001.1 5.7 6.701 6.701 0 005.4 2.1 9.203 9.203 0 006.1-2.1 9.607 9.607 0 003.1-5.7c.503-1.969.1-4.06-1.1-5.7a6.6 6.6 0 00-5.4-2.1 9.302 9.302 0 00-6.1 2.2zm47.4-7.1a9.7 9.7 0 013.9 2.9 10.008 10.008 0 012.1 4.5 14.101 14.101 0 010 5.5 17.101 17.101 0 01-2 5.5 16.074 16.074 0 01-3.7 4.5 15.794 15.794 0 01-5 2.9 16.789 16.789 0 01-5.7 1 14 14 0 01-5.3-1 10.81 10.81 0 01-2.1-1.2l-2.1 12h-6l6.6-37.6h6l-.4 2.2a15.397 15.397 0 012.5-1.2 16.809 16.809 0 015.7-1 13.9 13.9 0 015.5 1zm-12.5 7.2a9.4 9.4 0 00-3.1 5.7 6.901 6.901 0 001.1 5.7 6.598 6.598 0 005.4 2.1 9.299 9.299 0 006.1-2.1 9.607 9.607 0 003.1-5.7 6.901 6.901 0 00-1.1-5.7 6.701 6.701 0 00-5.4-2.1 9.304 9.304 0 00-6.1 2.1zm43.6-7.2a9.603 9.603 0 013.9 2.9 10.008 10.008 0 012.1 4.5 14.101 14.101 0 010 5.5l-.5 3h-21.2c.16.989.574 1.919 1.2 2.7a6.701 6.701 0 005.4 2.1 9.495 9.495 0 005.1-1.4l2.6 4.9a16.404 16.404 0 01-8.8 2.5 14.098 14.098 0 01-5.4-1 9.798 9.798 0 01-6-7.3 14.701 14.701 0 010-5.5 17.294 17.294 0 012-5.5 16.404 16.404 0 013.6-4.5 16.003 16.003 0 015-2.9 16.296 16.296 0 015.7-1 13.41 13.41 0 015.3 1zm-12.5 7.1a9.2 9.2 0 00-2.1 2.7h14.8a5.297 5.297 0 00-1.2-2.7 6.603 6.603 0 00-5.3-2.1 9.304 9.304 0 00-6.2 2.2zm38.6-2.1a9.304 9.304 0 00-6.1 2.1 9.498 9.498 0 00-3.1 5.7l-2.5 13.9h-6l4.9-27.7h6l-.4 2.2a14.47 14.47 0 012.5-1.2 16.205 16.205 0 015.7-1h3l-1.1 6h-3zm28.9-3.8a14.47 14.47 0 012.5-1.2 16.296 16.296 0 015.7-1 13.41 13.41 0 015.3 1 9.509 9.509 0 013.9 2.9 10.008 10.008 0 012.1 4.5 14.101 14.101 0 010 5.5 17.101 17.101 0 01-2 5.5 16.199 16.199 0 01-8.6 7.3 16.588 16.588 0 01-5.7 1 14.098 14.098 0 01-5.4-1 10.81 10.81 0 01-2.1-1.2l-.4 2.2h-6l6.6-37.5h6zm1.1 6a9.498 9.498 0 00-3.1 5.7 6.901 6.901 0 001.1 5.7 6.701 6.701 0 005.4 2.1 9.101 9.101 0 006.1-2.1 9.498 9.498 0 003.1-5.7c.503-1.969.1-4.06-1.1-5.7a6.603 6.603 0 00-5.3-2.1 9.303 9.303 0 00-6.3 2.1zm21.2 29.4l7.4-11.8-7.2-25.8h6.6l5.2 18.5 11.7-18.5h6.6l-23.7 37.6zm66.3-9.9l.4-2.2-2.5 1.2a16.89 16.89 0 01-5.7 1 14.098 14.098 0 01-5.4-1 9.999 9.999 0 01-6-7.3 14.701 14.701 0 010-5.5 17.285 17.285 0 012-5.5 16.102 16.102 0 013.7-4.5 15.697 15.697 0 015-2.9 16.296 16.296 0 015.7-1 13.607 13.607 0 015.4 1c.743.319 1.447.722 2.1 1.2l.4-2.2h6l-4.9 27.7h-6zm-10.2-19.5a9.7 9.7 0 00-3.1 5.7 6.996 6.996 0 001.1 5.7 6.7 6.7 0 005.4 2.1 9.203 9.203 0 006.1-2.1 9.607 9.607 0 003.1-5.7c.503-1.969.1-4.06-1.1-5.7a6.6 6.6 0 00-5.4-2.1 9.304 9.304 0 00-6.1 2.1zm-486.5 50.4a9.7 9.7 0 013.9 2.9 10.008 10.008 0 012.1 4.5 14.101 14.101 0 010 5.5 17.022 17.022 0 01-2 5.5 16.09 16.09 0 01-3.7 4.5 15.904 15.904 0 01-5 2.9 16.789 16.789 0 01-5.7 1 14 14 0 01-5.3-1 10.81 10.81 0 01-2.1-1.2l-2.1 12h-6l6.6-37.6h6l-.4 2.2a15.521 15.521 0 012.5-1.2 16.784 16.784 0 015.7-1c1.882-.04 3.752.3 5.5 1zm-12.5 7.2a9.4 9.4 0 00-3.1 5.7 6.901 6.901 0 001.1 5.7 6.598 6.598 0 005.4 2.1 9.304 9.304 0 006.1-2.1 9.607 9.607 0 003.1-5.7 6.901 6.901 0 00-1.1-5.7 6.701 6.701 0 00-5.4-2.1 9.304 9.304 0 00-6.1 2.1zm38.6-2.2a9.304 9.304 0 00-6.1 2.1 9.498 9.498 0 00-3.1 5.7l-2.4 13.8h-6l4.9-27.7h6l-.4 2.2a14.47 14.47 0 012.5-1.2 16.201 16.201 0 015.7-1h3l-1.1 6h-3zm25.7-5a9.603 9.603 0 013.9 2.9 10.008 10.008 0 012.1 4.5 14.101 14.101 0 010 5.5 17.022 17.022 0 01-2 5.5 16.199 16.199 0 01-8.6 7.3 16.588 16.588 0 01-5.7 1 14.098 14.098 0 01-5.4-1 9.798 9.798 0 01-6-7.3 14.701 14.701 0 010-5.5 17.294 17.294 0 012-5.5 16.404 16.404 0 013.6-4.5 16.003 16.003 0 015-2.9 16.296 16.296 0 015.7-1c1.85-.043 3.688.297 5.4 1zm-12.5 7.1a9.498 9.498 0 00-3.1 5.7 6.901 6.901 0 001.1 5.7 6.701 6.701 0 005.4 2.1 9.101 9.101 0 006.1-2.1 9.498 9.498 0 003.1-5.7c.503-1.969.1-4.06-1.1-5.7a6.603 6.603 0 00-5.3-2.1 9.299 9.299 0 00-6.2 2.2zm35-12.5a7.71 7.71 0 00-2.1 2.2 9.957 9.957 0 00-1 2.3h7.8l-1.1 6h-7.9l-3.8 21.7h-6l4.7-26.7a15.59 15.59 0 012.3-5.8 14.905 14.905 0 014.3-4.4l2.7-1.8 2.8 4.8zm26.2 5.4a9.603 9.603 0 013.9 2.9 10.008 10.008 0 012.1 4.5 14.101 14.101 0 010 5.5l-.5 3h-21.2c.16.989.574 1.919 1.2 2.7a6.701 6.701 0 005.4 2.1 9.495 9.495 0 005.1-1.4l2.6 4.9a16.404 16.404 0 01-8.8 2.5 14.098 14.098 0 01-5.4-1 9.798 9.798 0 01-6-7.3 14.701 14.701 0 010-5.5 17.303 17.303 0 012-5.5 16.404 16.404 0 013.6-4.5 16.003 16.003 0 015-2.9 16.296 16.296 0 015.7-1 13.41 13.41 0 015.3 1zm-12.5 7.1a9.083 9.083 0 00-2.1 2.7h14.8a5.3 5.3 0 00-1.2-2.7 6.603 6.603 0 00-5.3-2.1 9.297 9.297 0 00-6.2 2.2zm32-2.1a2.999 2.999 0 00-1.9.6 2.898 2.898 0 00-.9 1.8 2.2 2.2 0 00.3 1.8 2.101 2.101 0 001.7.6h9.9a8.592 8.592 0 013.2.6 6 6 0 013.7 4.5 8.407 8.407 0 010 3.3 9.811 9.811 0 01-1.2 3.3 10.503 10.503 0 01-2.3 2.8 10.39 10.39 0 01-3.1 1.8c-1.089.4-2.24.603-3.4.6h-18.2l1.1-6h18.3a2.599 2.599 0 002.8-2.4 1.8 1.8 0 00-2-2.4h-9.9a8.386 8.386 0 01-3.2-.6 5.89 5.89 0 01-2.4-1.8 6.193 6.193 0 01-1.3-2.7 8.116 8.116 0 010-3.3 9.988 9.988 0 011.2-3.3 10.883 10.883 0 012.3-2.8 10.09 10.09 0 013.1-1.8 10.186 10.186 0 013.4-.6h16.8l-1.1 6zm30.6 0a2.999 2.999 0 00-1.9.6 2.898 2.898 0 00-.9 1.8 2.2 2.2 0 00.3 1.8 2.101 2.101 0 001.7.6h9.9a8.612 8.612 0 013.2.6 6 6 0 013.7 4.5 8.407 8.407 0 010 3.3 9.811 9.811 0 01-1.2 3.3 10.503 10.503 0 01-2.3 2.8 10.39 10.39 0 01-3.1 1.8c-1.089.4-2.24.603-3.4.6h-18.3l1.1-6h18.3a2.599 2.599 0 002.8-2.4 1.8 1.8 0 00-2-2.4h-9.9a8.386 8.386 0 01-3.2-.6 5.89 5.89 0 01-2.4-1.8 6.193 6.193 0 01-1.3-2.7 8.116 8.116 0 010-3.3 9.988 9.988 0 011.2-3.3 10.883 10.883 0 012.3-2.8 10.09 10.09 0 013.1-1.8 10.186 10.186 0 013.4-.6h16.8l-1.1 6zm19.4 21.7l4.9-27.7h6l-4.9 27.7zm12.3-35.7a3.7 3.7 0 01-3.5 3 2.499 2.499 0 01-2.5-3 3.7 3.7 0 013.5-3 2.503 2.503 0 012.5 3zm22.6 9a9.603 9.603 0 013.9 2.9 10.008 10.008 0 012.1 4.5 14.101 14.101 0 010 5.5 17 17 0 01-2 5.5 16.202 16.202 0 01-8.6 7.3 16.588 16.588 0 01-5.7 1 14.098 14.098 0 01-5.4-1 9.798 9.798 0 01-6-7.3 14.701 14.701 0 010-5.5 17.294 17.294 0 012-5.5 16.404 16.404 0 013.6-4.5 16.003 16.003 0 015-2.9 16.296 16.296 0 015.7-1c1.85-.043 3.688.297 5.4 1zm-12.5 7.1a9.498 9.498 0 00-3.1 5.7 6.901 6.901 0 001.1 5.7 6.7 6.7 0 005.4 2.1 9.101 9.101 0 006.1-2.1 9.504 9.504 0 003.1-5.7c.503-1.969.1-4.06-1.1-5.7a6.603 6.603 0 00-5.3-2.1 9.299 9.299 0 00-6.2 2.2zm45-7.1a9.502 9.502 0 014 2.9 9.701 9.701 0 012.1 4.5 13.987 13.987 0 010 5.5l-2.4 13.8h-6l2.4-13.8c.503-1.969.1-4.06-1.1-5.7a6.603 6.603 0 00-5.3-2.1 9.304 9.304 0 00-6.1 2.1 9.4 9.4 0 00-3.1 5.7l-2.4 13.8h-6l4.9-27.7h6l-.4 2.2a14.186 14.186 0 012.5-1.2 16.49 16.49 0 015.7-1 13.302 13.302 0 015.2 1zm29.6 26.7l.4-2.2-2.5 1.2a16.887 16.887 0 01-5.7 1 14.098 14.098 0 01-5.4-1 10 10 0 01-6-7.3 14.701 14.701 0 010-5.5 17.294 17.294 0 012-5.5 16.102 16.102 0 013.7-4.5 15.697 15.697 0 015-2.9 16.296 16.296 0 015.7-1 13.607 13.607 0 015.4 1c.743.319 1.447.722 2.1 1.2l.4-2.2h6l-4.9 27.7h-6zm-10.2-19.6a9.7 9.7 0 00-3.1 5.7 6.996 6.996 0 001.1 5.7 6.7 6.7 0 005.4 2.1 9.203 9.203 0 006.1-2.1 9.602 9.602 0 003.1-5.7c.503-1.969.1-4.06-1.1-5.7a6.6 6.6 0 00-5.4-2.1 9.302 9.302 0 00-6 2.2zm23.5 19.6l6.6-37.5h6l-6.6 37.5zm51.8-25.1l-4.3 4.9a7.403 7.403 0 00-4.7-1.4 9.304 9.304 0 00-6.1 2.1 9.498 9.498 0 00-3.1 5.7 6.901 6.901 0 001.1 5.7 6.698 6.698 0 005.4 2.1 9.495 9.495 0 005.1-1.4l2.6 4.9a16.404 16.404 0 01-8.8 2.5 14.098 14.098 0 01-5.4-1 9.798 9.798 0 01-6-7.3 14.701 14.701 0 010-5.5 17.303 17.303 0 012-5.5 16.404 16.404 0 013.6-4.5 16.003 16.003 0 015-2.9 16.296 16.296 0 015.7-1 12.3 12.3 0 017.9 2.6zm19.7 25.1l.4-2.2-2.5 1.2a16.887 16.887 0 01-5.7 1 14.098 14.098 0 01-5.4-1 10 10 0 01-6-7.3 14.701 14.701 0 010-5.5 17.294 17.294 0 012-5.5 16.102 16.102 0 013.7-4.5 15.697 15.697 0 015-2.9 16.296 16.296 0 015.7-1 13.607 13.607 0 015.4 1c.743.319 1.448.722 2.1 1.2l.4-2.2h6l-4.9 27.7h-6zm-10.2-19.6a9.7 9.7 0 00-3.1 5.7 7 7 0 001.1 5.7 6.701 6.701 0 005.4 2.1 9.203 9.203 0 006.1-2.1 9.607 9.607 0 003.1-5.7c.503-1.969.1-4.06-1.1-5.7a6.6 6.6 0 00-5.4-2.1 9.302 9.302 0 00-6 2.2zm23.4 19.6l6.6-37.5h6l-6.6 37.5zm13.3 0l6.6-37.5h6l-6.6 37.5zm13.2 0l4.9-27.7h6l-4.9 27.7zm12.3-35.7a3.7 3.7 0 01-3.5 3 2.499 2.499 0 01-2.5-3 3.7 3.7 0 013.5-3 2.503 2.503 0 012.5 3zm26.4 34.7a15.7 15.7 0 01-6.6 10.3l-2.7 1.8-2.8-4.8 2.7-1.8a7.697 7.697 0 002.1-2.2 9.108 9.108 0 001.2-3.3l.2-1.1-2.5 1.2a16.887 16.887 0 01-5.7 1 14.098 14.098 0 01-5.4-1 9.798 9.798 0 01-6-7.3 14.701 14.701 0 010-5.5 17.303 17.303 0 012-5.5 16.197 16.197 0 018.6-7.4 16.911 16.911 0 015.7-1 14.098 14.098 0 015.4 1c.74.325 1.444.727 2.1 1.2l.4-2.2h6zm-16.3-18.6a9.797 9.797 0 00-3.1 5.7 6.996 6.996 0 001.1 5.7 6.7 6.7 0 005.4 2.1 9.203 9.203 0 006.1-2.1 9.607 9.607 0 003.1-5.7 6.901 6.901 0 00-1.1-5.7 6.701 6.701 0 00-5.4-2.1 9.403 9.403 0 00-6.2 2.2zm40.9-2.1a9.302 9.302 0 00-6.1 2.1 9.498 9.498 0 00-3.1 5.7l-2.4 13.8h-6l4.9-27.7h6l-.4 2.2a14.47 14.47 0 012.5-1.2 16.205 16.205 0 015.7-1h3l-1.1 6h-3zm23.3 21.7l.4-2.2-2.5 1.2a16.887 16.887 0 01-5.7 1 14.098 14.098 0 01-5.4-1 10 10 0 01-6-7.3 14.701 14.701 0 010-5.5 17.294 17.294 0 012-5.5 16.102 16.102 0 013.7-4.5 15.697 15.697 0 015-2.9 16.296 16.296 0 015.7-1 13.607 13.607 0 015.4 1c.743.319 1.447.722 2.1 1.2l.4-2.2h6l-4.9 27.7h-6zm-10.2-19.6a9.7 9.7 0 00-3.1 5.7 6.996 6.996 0 001.1 5.7 6.7 6.7 0 005.4 2.1 9.203 9.203 0 006.1-2.1 9.607 9.607 0 003.1-5.7c.503-1.969.1-4.06-1.1-5.7a6.6 6.6 0 00-5.4-2.1 9.302 9.302 0 00-6 2.2zm47.5-7.1a9.7 9.7 0 013.9 2.9 10.008 10.008 0 012.1 4.5 14.101 14.101 0 010 5.5 17 17 0 01-2 5.5 16.074 16.074 0 01-3.7 4.5 15.794 15.794 0 01-5 2.9 16.789 16.789 0 01-5.7 1 14 14 0 01-5.3-1 10.81 10.81 0 01-2.1-1.2l-2.1 12h-6l6.6-37.6h6l-.4 2.2a15.521 15.521 0 012.5-1.2 16.784 16.784 0 015.7-1c1.882-.04 3.752.3 5.5 1zm-12.5 7.2a9.4 9.4 0 00-3.1 5.7c-.4 2.4 0 4.3 1.1 5.7a6.598 6.598 0 005.4 2.1 9.304 9.304 0 006.1-2.1 9.607 9.607 0 003.1-5.7 6.901 6.901 0 00-1.1-5.7 6.701 6.701 0 00-5.4-2.1 9.304 9.304 0 00-6.1 2.1zm31.4-6a14.47 14.47 0 012.5-1.2 16.296 16.296 0 015.7-1 13.41 13.41 0 015.3 1 9.603 9.603 0 013.9 2.9 10.008 10.008 0 012.1 4.5 14.101 14.101 0 010 5.5l-2.3 13.8h-6l2.4-13.8c.503-1.969.1-4.06-1.1-5.7a6.603 6.603 0 00-5.3-2.1 9.304 9.304 0 00-6.1 2.1 9.498 9.498 0 00-3.1 5.7l-2.4 13.8h-6l6.6-37.5h6zm45.6-1.2a9.603 9.603 0 013.9 2.9 10.008 10.008 0 012.1 4.5 14.101 14.101 0 010 5.5l-.5 3h-21.2c.16.989.574 1.919 1.2 2.7a6.697 6.697 0 005.4 2.1 9.495 9.495 0 005.1-1.4l2.6 4.9a16.404 16.404 0 01-8.8 2.5 14.098 14.098 0 01-5.4-1 9.798 9.798 0 01-6-7.3 14.701 14.701 0 010-5.5 17.303 17.303 0 012-5.5 16.504 16.504 0 013.6-4.5 16.003 16.003 0 015-2.9 16.296 16.296 0 015.7-1 13.41 13.41 0 015.3 1zm-12.5 7.1a9.099 9.099 0 00-2.1 2.7h14.8a5.297 5.297 0 00-1.2-2.7 6.603 6.603 0 00-5.3-2.1 9.299 9.299 0 00-6.2 2.2zm38.6-2.1a9.304 9.304 0 00-6.1 2.1 9.498 9.498 0 00-3.1 5.7l-2.4 13.8h-6l4.9-27.7h6l-.4 2.2a14.47 14.47 0 012.5-1.2 16.201 16.201 0 015.7-1h3l-1.1 6h-3z" fill="#999"/></svg>