<svg viewBox="0 0 14400 720" xmlns="http://www.w3.org/2000/svg"><path d="m0 720h14400v-720h-14400z" fill="#eae3d8"/><path d="m617.2 402.6-6.7-16.6h-41.5l-6.8 16.5h-18.2l38.6-94.1h14l38.6 94.1h-18zm-13.7-33.3-13.8-33.6-13.7 33.5h27.6zm113.5 33.3h-16.8v-6c-2.053 1.311-4.23 2.416-6.5 3.3-4.951 1.875-10.205 2.824-15.5 2.8-5.262.026-10.484-.923-15.4-2.8-4.681-1.809-8.936-4.567-12.5-8.1-3.563-3.539-6.325-7.802-8.1-12.5-1.905-4.943-2.855-10.203-2.8-15.5-.059-5.265.891-10.493 2.8-15.4 3.581-9.512 11.088-17.019 20.6-20.6 4.907-1.909 10.135-2.859 15.4-2.8 5.297-.057 10.557.893 15.5 2.8 2.282.857 4.462 1.963 6.5 3.3v-33.7h16.8zm-54.8-54.8c-3.9 3.8-6 9.4-6 16s2.1 12.2 6 16.1 9.4 5.9 16 5.9 12.2-2 16.1-5.9 5.9-9.4 5.9-16.1-2-12.2-5.9-16-9.4-6-16.1-6-12.2 2.1-16 6zm91.7-45.3c.003 3.004-1.597 5.78-4.197 7.283-2.601 1.503-5.805 1.503-8.406 0-2.6-1.503-4.201-4.28-4.197-7.283.005-4.635 3.765-8.39 8.4-8.39s8.395 3.755 8.4 8.39zm-16.8 100.1v-77.6h16.8v77.6zm74.6-77.6v16.8h-22.1v30.2c-.071 3.203.578 6.381 1.9 9.3 1.071 2.427 2.719 4.555 4.8 6.2l6.7 5.1-10.2 13.3-6.7-5.1c-4.274-3.252-7.675-7.512-9.9-12.4-2.312-5.119-3.472-10.683-3.4-16.3v-63.6h16.8v16.5zm67.5 77.6v-6c-2.06 1.298-4.236 2.403-6.5 3.3-9.973 3.673-20.927 3.673-30.9 0-9.476-3.636-16.964-11.124-20.6-20.6-1.875-4.952-2.824-10.205-2.8-15.5-.026-5.263.923-10.484 2.8-15.4 1.788-4.691 4.549-8.951 8.1-12.5 3.494-3.571 7.726-6.335 12.4-8.1 9.956-3.763 20.944-3.763 30.9 0 2.276.87 4.455 1.976 6.5 3.3v-6.1h16.9v77.6zm-38-54.8c-3.8 3.8-5.9 9.4-5.9 16s2.1 12.2 5.9 16.1 9.4 5.9 16.1 5.9 12.2-2 16.1-5.9 5.9-9.4 5.9-16.1-2.1-12.2-5.9-16-9.4-6-16.1-6-12.3 2.1-16.2 6z"/><path d="m1903.7 333.5c-2.346-.085-4.647.659-6.5 2.1-1.779 1.627-2.944 3.816-3.3 6.2-.3 1.9-.3 4.4 1.1 6.2s3.9 2.1 5.8 2.1h20.8c3.697-.053 7.367.627 10.8 2 3.17 1.272 5.959 3.338 8.1 6 2.215 2.649 3.728 5.813 4.4 9.2.727 3.631.727 7.369 0 11-.648 3.866-1.968 7.589-3.9 11-1.926 3.522-4.505 6.644-7.6 9.2-3.012 2.596-6.467 4.629-10.2 6-3.656 1.321-7.513 1.998-11.4 2h-49l3.5-19.9h49c2.376.083 4.708-.659 6.6-2.1 1.799-1.598 2.939-3.808 3.2-6.2.3-1.9.5-4.4-1-6.2s-4-2.1-5.8-2.1h-21.1c-3.632.053-7.237-.627-10.6-2-3.202-1.265-6.026-3.331-8.2-6-2.19-2.665-3.7-5.822-4.4-9.2-.73-3.627-.764-7.36-.1-11 .712-3.864 2.064-7.581 4-11 1.948-3.507 4.524-6.625 7.6-9.2 3.046-2.601 6.535-4.634 10.3-6 3.621-1.322 7.445-1.998 11.3-2h45.1l-3.5 19.9zm128.4-15.6c5.664 2.776 10.418 7.113 13.7 12.5l-17.8 12.3c-1.75-2.879-4.282-5.203-7.3-6.7-3.859-1.75-8.064-2.605-12.3-2.5-8 0-15.1 2.5-20.6 7.2s-9.1 11.3-10.5 19.3-.1 14.7 3.7 19.4 10.1 7.2 18.1 7.2c4.489.037 8.94-.813 13.1-2.5 3.655-1.551 6.956-3.83 9.7-6.7l13.5 12.3c-5.156 5.358-11.348 9.611-18.2 12.5-6.875 2.862-14.253 4.324-21.7 4.3-6.125.082-12.207-1.039-17.9-3.3-10.459-4.258-18.058-13.513-20.2-24.6-1.228-6.102-1.262-12.385-.1-18.5 1.136-6.496 3.368-12.752 6.6-18.5 3.163-5.671 7.331-10.72 12.3-14.9 4.894-4.22 10.521-7.508 16.6-9.7 6.129-2.192 12.591-3.308 19.1-3.3 6.966-.165 13.877 1.272 20.2 4.2zm13.7 88.6 16.3-92.9h19.9l-16.3 92.9zm72.6-73-2.9 16.6h52.2l-3.6 19.9h-52.1l-2.9 16.6h52.2l-3.5 19.9h-72.1l16.3-92.9h72.1l-3.5 19.9zm121.7 73-32.5-56.5-10 56.5h-19.8l16.3-92.9h17.5l32.5 56.5 10-56.5h19.9l-16.3 92.9zm115.2-88.6c5.665 2.776 10.418 7.113 13.7 12.5l-17.9 12.3c-1.75-2.879-4.281-5.203-7.3-6.7-3.859-1.75-8.064-2.605-12.3-2.5-8 0-15.1 2.5-20.6 7.2s-9.1 11.3-10.5 19.3-.1 14.7 3.7 19.4 10.1 7.2 18.1 7.2c4.489.037 8.94-.813 13.1-2.5 3.655-1.551 6.956-3.83 9.7-6.7l13.5 12.3c-5.156 5.358-11.348 9.611-18.2 12.5-6.875 2.862-14.252 4.324-21.7 4.3-6.125.082-12.207-1.039-17.9-3.3-10.459-4.258-18.058-13.513-20.2-24.6-1.228-6.102-1.262-12.385-.1-18.5 1.134-6.497 3.366-12.753 6.6-18.5 3.164-5.671 7.331-10.72 12.301-14.9 4.894-4.22 10.52-7.508 16.599-9.7 6.13-2.192 12.591-3.308 19.1-3.3 7-.181 13.948 1.257 20.301 4.2zm46.4 15.6-2.9 16.6h52.2l-3.5 19.9h-52.3l-2.9 16.6h52.2l-3.5 19.9h-72l16.3-92.9h72.1l-3.5 19.9zm-574.4-129.4c3.806 1.702 7.137 4.312 9.7 7.6l-6.5 5c-1.761-2.268-4.066-4.057-6.7-5.2-3.016-1.358-6.293-2.041-9.6-2-2.903-.041-5.787.468-8.5 1.5-4.826 1.771-8.629 5.574-10.4 10.4-2.019 5.521-2.019 11.579 0 17.1 1.771 4.826 5.574 8.629 10.4 10.4 5.521 2.019 11.579 2.019 17.1 0 4.826-1.771 8.629-5.574 10.4-10.4.575-1.448.977-2.958 1.2-4.5h-20.1v-8.2h28.6v4.2c.046 3.924-.632 7.822-2 11.5-2.639 6.963-8.137 12.461-15.1 15.1-7.423 2.732-15.577 2.732-23 0-6.963-2.639-12.461-8.137-15.1-15.1-2.732-7.423-2.732-15.577 0-23 2.639-6.964 8.136-12.461 15.1-15.1 3.677-1.371 7.576-2.049 11.5-2 4.478-.053 8.913.869 13 2.7zm54.8 9.4c5.65 2.184 10.116 6.65 12.3 12.3 2.236 6.033 2.236 12.667 0 18.7-2.152 5.671-6.629 10.148-12.3 12.3-6.033 2.236-12.667 2.236-18.7 0-5.693-2.118-10.182-6.607-12.3-12.3-2.236-6.033-2.236-12.667 0-18.7 2.152-5.671 6.629-10.148 12.3-12.3 6.033-2.236 12.667-2.236 18.7 0zm-20.4 10.6c-2.7 2.7-4.1 6.5-4.1 11.1-.302 4.117 1.202 8.161 4.121 11.079 2.918 2.919 6.963 4.423 11.079 4.121 4.5 0 8.4-1.4 11.1-4.1 2.784-2.97 4.261-6.932 4.1-11 0-4.5-1.4-8.4-4.1-11.1s-6.5-4.1-11.1-4.1c-4.102-.189-8.106 1.29-11.1 4.1zm42.6 34.5v-64.3h8.2v64.2h-8.2zm63 0h-8.2v-5c-1.739 1.436-3.697 2.584-5.8 3.4-6.033 2.236-12.667 2.236-18.7 0-5.65-2.184-10.116-6.65-12.3-12.3-2.236-6.033-2.236-12.667 0-18.7 2.152-5.671 6.629-10.148 12.3-12.3 6.033-2.236 12.667-2.236 18.7 0 2.103.816 4.061 1.964 5.8 3.4v-22.8h8.2v64.2zm-34.4-34.4c-2.785 2.969-4.262 6.932-4.1 11 0 4.5 1.4 8.4 4.1 11.1s6.5 4.1 11.1 4.1c4.068.162 8.03-1.315 11-4.1 2.7-2.7 4.1-6.5 4.1-11.1.298-4.098-1.193-8.124-4.089-11.039-2.895-2.915-6.912-4.432-11.011-4.161-4.5 0-8.4 1.5-11.1 4.2zm75.3-10.7c5.65 2.184 10.116 6.65 12.3 12.3 1.145 3.001 1.721 6.188 1.7 9.4v4.1h-38.1c.552 2.605 1.836 4.999 3.7 6.9 2.97 2.784 6.932 4.261 11 4.1 3.338.103 6.625-.841 9.4-2.7l4.7 6.7c-4.175 2.856-9.143 4.325-14.2 4.2-3.178.011-6.331-.565-9.3-1.7-5.692-2.118-10.182-6.608-12.3-12.3-2.236-6.033-2.236-12.667 0-18.7 2.151-5.671 6.629-10.148 12.3-12.3 6.063-2.261 12.737-2.261 18.8 0zm-20.4 10.6c-1.881 1.929-3.166 4.359-3.7 7h29.5c-.512-2.649-1.8-5.085-3.7-7-2.7-2.7-6.5-4.1-11.1-4.1-4.082-.135-8.047 1.379-11 4.2zm75.3-10.6c5.65 2.184 10.116 6.65 12.3 12.3 1.145 3.001 1.721 6.188 1.7 9.4v23.3h-8.2v-23.3c0-4.5-1.4-8.4-4.1-11.1s-6.5-4.1-11.1-4.1c-4.068-.162-8.031 1.315-11 4.1-2.7 2.7-4.1 6.5-4.1 11.1v23.3h-8.2v-46.6h8.2v5c1.739-1.436 3.697-2.584 5.8-3.4 6.033-2.236 12.667-2.236 18.7 0zm156 248.4c3.847 1.727 7.212 4.371 9.8 7.7l-8 6.3c-1.584-2.036-3.644-3.65-6-4.7-2.735-1.226-5.704-1.84-8.7-1.8-5.5 0-10.1 1.7-13.4 5s-5 7.9-5 13.4 1.7 10.1 5 13.4 7.9 5 13.4 5c2.996.04 5.965-.574 8.7-1.8 2.356-1.05 4.416-2.664 6-4.7l8 6.3c-2.591 3.326-5.955 5.969-9.8 7.7-4.091 1.816-8.524 2.737-13 2.7-3.891.036-7.754-.642-11.4-2-6.971-2.628-12.472-8.129-15.1-15.1-2.725-7.39-2.725-15.51 0-22.9 2.628-6.971 8.129-12.472 15.1-15.1 3.646-1.358 7.509-2.036 11.4-2 4.469-.068 8.901.818 13 2.6zm41.5 17.6c-3.631-.271-7.199 1.053-9.773 3.627s-3.898 6.143-3.627 9.773v23.6h-10.2v-47.2h10.2v3.7c1.256-.812 2.597-1.483 4-2 2.996-1.163 6.187-1.74 9.4-1.7h5.1v10.2zm42.1-8.5c5.773 2.171 10.329 6.727 12.5 12.5 1.163 2.996 1.74 6.187 1.7 9.4v5.1h-36.1c.559 1.761 1.517 3.37 2.8 4.7 2.4 2.4 5.7 3.6 9.8 3.6 2.949.088 5.852-.751 8.3-2.4l5.9 8.3c-4.197 2.899-9.2 4.403-14.3 4.3-3.211.012-6.397-.564-9.4-1.7-5.766-2.182-10.318-6.734-12.5-12.5-1.136-3.003-1.712-6.189-1.7-9.4-.021-3.212.556-6.399 1.7-9.4 1.092-2.844 2.76-5.432 4.9-7.6 2.155-2.156 4.746-3.827 7.6-4.9 2.998-1.156 6.187-1.733 9.4-1.7 3.213-.04 6.404.537 9.4 1.7zm-19.1 12.1c-1.276 1.297-2.234 2.871-2.8 4.6h25.2c-.585-1.743-1.58-3.32-2.9-4.6-5.598-4.844-13.902-4.844-19.5 0zm76 33.3v-3.7c-1.268.79-2.607 1.459-4 2-6.068 2.234-12.733 2.234-18.8 0-5.745-2.215-10.285-6.755-12.5-12.5-1.136-3.003-1.712-6.189-1.7-9.4-.021-3.212.555-6.399 1.7-9.4 1.081-2.849 2.751-5.439 4.9-7.6 2.143-2.171 4.738-3.844 7.6-4.9 6.058-2.288 12.742-2.288 18.8 0 1.4.524 2.741 1.194 4 2v-3.7h10.2v47.2zm-23.1-33.3c-4.801 5.613-4.801 13.887 0 19.5 2.4 2.4 5.7 3.6 9.8 3.6s7.4-1.2 9.8-3.6c4.801-5.613 4.801-13.887 0-19.5-5.614-4.902-13.986-4.902-19.6 0zm68-13.8v10.2h-13.5v18.4c-.053 1.925.323 3.838 1.1 5.6.642 1.484 1.637 2.789 2.9 3.8l4 3.1-6.2 8.1-4-3.1c-2.598-1.998-4.66-4.609-6-7.6-1.415-3.107-2.131-6.486-2.1-9.9v-38.7h10.3v10.1h13.4zm19.2-13.7c-.002 2.062-1.245 3.92-3.15 4.708-1.904.789-4.097.354-5.556-1.102-1.632-1.632-1.965-4.157-.811-6.156 1.154-2 3.507-2.974 5.737-2.377 2.23.598 3.78 2.619 3.78 4.927zm-10.2 60.8v-47.1h10.2v47.2h-10.2zm51.3-45.4c5.773 2.171 10.329 6.727 12.5 12.5 1.163 2.996 1.74 6.187 1.7 9.4.033 3.213-.544 6.402-1.7 9.4-1.073 2.853-2.744 5.445-4.9 7.6-2.169 2.14-4.756 3.808-7.6 4.9-3.001 1.145-6.188 1.721-9.4 1.7-3.211.012-6.397-.564-9.4-1.7-5.766-2.182-10.318-6.734-12.5-12.5-1.136-3.003-1.712-6.189-1.7-9.4-.021-3.212.555-6.399 1.7-9.4 1.092-2.844 2.76-5.432 4.9-7.6 2.155-2.156 4.746-3.827 7.6-4.9 2.998-1.156 6.187-1.733 9.4-1.7 3.213-.04 6.404.537 9.4 1.7zm-19.1 12.1c-2.4 2.3-3.6 5.7-3.6 9.7s1.2 7.4 3.6 9.8 5.7 3.6 9.8 3.6 7.4-1.2 9.7-3.6c5.018-5.444 4.846-13.876-.389-19.111s-13.668-5.407-19.111-.389zm74.4-12.1c5.773 2.171 10.329 6.727 12.5 12.5 1.163 2.996 1.74 6.187 1.7 9.4v23.6h-10.2v-23.7c-.19-5.377-3.488-10.153-8.449-12.236-4.96-2.083-10.679-1.093-14.651 2.536-2.4 2.3-3.6 5.7-3.6 9.7v23.6h-10.2v-47.1h10.2v3.7c1.254-.814 2.596-1.485 4-2 2.997-1.156 6.187-1.733 9.4-1.7 3.179-.028 6.335.549 9.3 1.7z"/><path d="m3340.8 227.5c5.128 2.335 9.621 5.868 13.1 10.3l-12.9 10c-1.845-2.382-4.249-4.271-7-5.5-3.279-1.427-6.823-2.143-10.4-2.1-6.6 0-12.1 2-15.9 5.9s-5.9 9.3-5.9 15.9 2 12.1 5.9 15.9 9.3 5.9 15.9 5.9 12.1-2 15.9-5.9c2.154-2.159 3.764-4.798 4.7-7.7h-20.6v-16.3h38v8.1c.043 5.19-.872 10.342-2.699 15.2-3.555 9.3-10.901 16.646-20.201 20.2-9.775 3.622-20.524 3.622-30.3 0-9.3-3.554-16.646-10.9-20.2-20.2-3.622-9.775-3.622-20.525 0-30.3 3.554-9.3 10.9-16.646 20.2-20.2 4.858-1.827 10.011-2.742 15.201-2.7 5.918-.082 11.784 1.111 17.199 3.5zm70.8-3.5c3.694-.025 7.36.654 10.8 2 3.355 1.259 6.393 3.239 8.9 5.8 2.537 2.527 4.513 5.559 5.8 8.9 2.616 6.962 2.616 14.638 0 21.6-1.279 3.345-3.256 6.379-5.8 8.9-1.4 1.361-2.942 2.568-4.6 3.6l12.3 25.2h-18.1l-10.3-21.3h-20.7v21.3h-16.3v-76zm-21.7 38.4h21.7c3.4 0 6.2-1 8.1-2.9 3.401-3.177 4.46-8.138 2.651-12.427-1.809-4.288-6.102-6.993-10.751-6.773h-21.7zm117.9 37.6-5.3-12.8h-29.8l-5.2 12.8h-17.6l31.2-76h13l31.2 76zm-11.9-29.1-8.3-19.9-8.2 19.9h16.4zm91.9 29.1-34.7-46.3v46.3h-16.3v-76h14.3l34.8 46.3v-46.3h16.3v76zm60.2-76c5.189-.042 10.342.873 15.2 2.7 9.262 3.578 16.568 10.921 20.1 20.2 3.622 9.775 3.622 20.525 0 30.3-3.531 9.28-10.838 16.623-20.1 20.2-4.864 1.793-10.016 2.674-15.2 2.6h-29.5v-76zm-13.2 59.7h13.2c6.5 0 12-2 15.9-5.9s5.9-9.3 5.9-15.9-2-12.1-5.9-15.9-9.3-5.9-15.9-5.9h-13.2v43.5zm-205.9 38.3c3.074-.034 6.127.509 9 1.6 2.819 1.083 5.376 2.754 7.5 4.9 2.128 2.139 3.796 4.692 4.9 7.5 2.161 5.805 2.161 12.195 0 18-.832 2.126-1.978 4.115-3.4 5.9 1.422 1.785 2.568 3.774 3.4 5.9 2.161 5.805 2.161 12.195 0 18-1.104 2.808-2.772 5.361-4.9 7.5-2.124 2.147-4.681 3.817-7.5 4.9-2.873 1.091-5.926 1.634-9 1.6h-42.3v-75.8zm-26 29.9h26c1.854.103 3.678-.505 5.1-1.7 2.319-2.967 2.319-7.133 0-10.1-1.422-1.195-3.246-1.803-5.1-1.7h-26v13.6zm0 29.9h26c1.868.075 3.693-.569 5.1-1.8 2.319-2.967 2.319-7.133 0-10.1-1.422-1.195-3.246-1.803-5.1-1.7h-26zm122.2-.1v16.3h-59v-76h16.3v59.7zm67.7 16.3-5.3-12.8h-29.8l-5.2 12.8h-17.6l31.2-76h13l31.2 76zm-11.9-29.1-8.3-19.9-8.2 19.9h16.4zm85.7-43.4c5.128 2.335 9.621 5.868 13.1 10.3l-12.9 10c-1.845-2.382-4.249-4.271-7-5.5-3.279-1.427-6.824-2.143-10.4-2.1-6.6 0-12.1 2-15.9 5.9s-5.9 9.3-5.9 15.9 2 12.1 5.9 15.9 9.3 5.9 15.9 5.9c3.576.043 7.121-.673 10.4-2.1 2.751-1.229 5.155-3.118 7-5.5l12.9 10c-3.482 4.43-7.974 7.961-13.1 10.3-5.384 2.375-11.215 3.568-17.1 3.5-5.189.042-10.342-.873-15.2-2.7-9.279-3.531-16.622-10.838-20.2-20.1-3.622-9.775-3.622-20.525 0-30.3 3.554-9.3 10.9-16.646 20.2-20.2 4.858-1.827 10.011-2.742 15.2-2.7 5.885-.068 11.716 1.125 17.1 3.5zm93.2 72.5h-19.7l-21.2-31-12.1 13.3v17.7h-16.3v-76h16.3v34l30.9-34h22.1l-29.7 32.6zm-239.9 22c3.694-.018 7.358.661 10.8 2 6.707 2.591 12.009 7.893 14.6 14.6 2.617 6.962 2.617 14.638 0 21.6-1.259 3.355-3.239 6.393-5.8 8.9-2.541 2.519-5.57 4.492-8.9 5.8-3.456 1.279-7.115 1.922-10.8 1.9h-21.6v21.2h-16.3v-76zm-21.7 38.4h21.7c3.4 0 6.2-1 8.1-2.9 3.402-3.177 4.46-8.138 2.651-12.427-1.809-4.288-6.102-6.993-10.751-6.773h-21.7zm103.8 37.6-5.3-12.8h-29.8l-5.2 12.8h-17.6l31.2-76h13l31.2 76zm-12-29.1-8.2-19.9-8.2 19.9zm99.9 12.8v16.3h-58.9v-76h16.3v59.7h42.7zm67.7 16.3-5.3-12.8h-29.7l-5.3 12.8h-17.6l31.3-76h13l31.2 76zm-11.9-29.1-8.2-19.9-8.2 19.9zm85.7-43.4c5.129 2.335 9.621 5.868 13.1 10.3l-12.9 10c-1.845-2.382-4.249-4.271-7-5.5-3.279-1.427-6.824-2.143-10.4-2.1-6.6 0-12.1 2-15.9 5.9s-5.9 9.3-5.9 15.9 2 12.1 5.9 15.9 9.3 5.9 15.9 5.9c3.576.043 7.121-.673 10.4-2.1 2.751-1.229 5.155-3.118 7-5.5l12.9 10c-3.482 4.43-7.974 7.961-13.1 10.3-5.384 2.375-11.215 3.568-17.1 3.5-5.189.042-10.342-.873-15.2-2.7-9.262-3.577-16.569-10.92-20.1-20.2-3.622-9.775-3.622-20.525 0-30.3 3.554-9.3 10.9-16.646 20.2-20.2 4.858-1.827 10.01-2.742 15.2-2.7 5.858-.022 11.654 1.205 17 3.6zm40.3 12.8v13.6h42.7v16.3h-42.7v13.6h42.7v16.2h-59v-76h59v16.3z"/><path d="m4812.5 340.5v57.5h-9.6v-57.5h-21.5v-9.5h52.7v9.6h-21.6zm58 4.7c6.67 2.559 11.94 7.83 14.5 14.5 1.341 3.512 2.019 7.241 2 11v4.8h-44.8c.663 3.065 2.19 5.876 4.401 8.1 3.199 3.2 7.599 4.8 12.899 4.8 3.944.125 7.827-.995 11.1-3.2l5.6 7.8c-4.873 3.362-10.679 5.111-16.599 5-3.726.009-7.421-.669-10.9-2-6.722-2.481-12.02-7.779-14.501-14.5-2.619-7.065-2.619-14.835 0-21.9 2.526-6.692 7.808-11.974 14.5-14.5 7.047-2.562 14.777-2.527 21.8.1zm-23.9 12.5c-2.228 2.251-3.756 5.099-4.4 8.2h34.6c-.594-3.097-2.09-5.95-4.3-8.2-3.2-3.2-7.7-4.8-13-4.8s-9.7 1.6-12.9 4.8zm91-9.4-5.6 7.8c-3.272-2.205-7.156-3.325-11.1-3.2-5.3 0-9.8 1.7-12.9 4.8s-4.8 7.7-4.8 13 1.7 9.8 4.8 12.9 7.6 4.8 12.9 4.8c3.944.125 7.828-.995 11.1-3.2l5.6 7.8c-4.874 3.362-10.68 5.111-16.6 5-3.726.009-7.42-.669-10.9-2-6.721-2.481-12.019-7.779-14.5-14.5-2.619-7.065-2.619-14.835 0-21.9 2.526-6.692 7.808-11.974 14.5-14.5 3.48-1.331 7.174-2.009 10.9-2 5.941-.053 11.75 1.767 16.6 5.2zm48-3.1c6.632 2.583 11.863 7.85 14.4 14.5 1.341 3.512 2.019 7.241 2 11v27.3h-9.6v-27.3c0-5.3-1.7-9.8-4.8-13s-7.7-4.8-13-4.8-9.8 1.7-12.9 4.8-4.8 7.7-4.8 13v27.3h-9.6v-54.7h9.6v5.9c2.076-1.662 4.406-2.978 6.9-3.9 7.023-2.627 14.753-2.662 21.8-.1zm63.4 0c6.67 2.559 11.94 7.83 14.5 14.5 2.619 7.065 2.619 14.835 0 21.9-2.526 6.692-7.808 11.974-14.5 14.5-7.065 2.619-14.835 2.619-21.9 0-6.721-2.481-12.019-7.779-14.5-14.5-2.619-7.065-2.619-14.835 0-21.9 2.526-6.692 7.808-11.974 14.5-14.5 7.065-2.619 14.835-2.619 21.9 0zm-24 12.5c-3.2 3.2-4.8 7.7-4.8 13s1.7 9.8 4.8 12.9 7.6 4.8 12.9 4.8 9.8-1.7 13-4.8 4.8-7.6 4.8-12.9-1.7-9.8-4.8-13-7.7-4.8-13-4.8-9.7 1.6-12.9 4.8zm50 40.3v-75.3h9.6v75.3zm57.5-52.8c6.67 2.559 11.94 7.83 14.5 14.5 2.619 7.065 2.619 14.835 0 21.9-2.526 6.692-7.808 11.974-14.5 14.5-7.065 2.619-14.835 2.619-21.9 0-6.721-2.481-12.019-7.779-14.5-14.5-2.619-7.065-2.619-14.835 0-21.9 2.526-6.692 7.808-11.974 14.5-14.5 7.065-2.619 14.835-2.619 21.9 0zm-23.9 12.5c-3.2 3.2-4.8 7.7-4.8 13s1.7 9.8 4.8 12.9 7.6 4.8 12.9 4.8 9.8-1.7 13-4.8 4.8-7.6 4.8-12.9-1.7-9.8-4.8-13-7.7-4.8-13-4.8-9.8 1.6-12.9 4.8zm101.8 39.7c.064 3.964-.756 7.893-2.4 11.5-1.548 3.424-3.918 6.413-6.9 8.7l-3.8 2.9-5.8-7.6 3.8-2.9c1.77-1.332 3.179-3.085 4.1-5.1 1.031-2.364 1.543-4.921 1.5-7.5v-5.2c-2.038 1.664-4.335 2.981-6.8 3.9-7.067 2.61-14.832 2.61-21.899 0-6.693-2.526-11.975-7.808-14.501-14.5-2.559-7.076-2.559-14.824 0-21.9 2.514-6.63 7.706-11.894 14.3-14.5 7.066-2.611 14.833-2.611 21.9 0 2.447.956 4.739 2.27 6.8 3.9v-5.9h9.6v54.1zm-40.4-39.7c-3.2 3.2-4.8 7.7-4.8 13s1.6 9.8 4.8 12.9 7.7 4.8 13 4.8 9.8-1.7 13-4.8 4.8-7.6 4.8-12.9-1.6-9.8-4.8-13-7.7-4.8-13-4.8-9.8 1.6-13 4.8zm64.3-32.1c-.054 2.612-2.188 4.7-4.8 4.7-1.247.001-2.443-.494-3.325-1.376-.882-.881-1.376-2.077-1.375-3.324 0-2.614 2.09-4.747 4.702-4.8 2.627.054 4.745 2.172 4.798 4.8zm-9.6 72.4v-54.7h9.6v54.7zm64.3 0v-5.9c-2.049 1.647-4.344 2.963-6.8 3.9-7.067 2.61-14.833 2.61-21.9 0-3.295-1.273-6.291-3.213-8.8-5.7-2.479-2.514-4.419-5.509-5.7-8.8-2.559-7.076-2.559-14.824 0-21.9 2.56-6.67 7.83-11.941 14.5-14.5 7.067-2.61 14.833-2.61 21.9 0 2.456.937 4.751 2.253 6.8 3.9v-5.9h9.6v54.9zm-30.8-40.3c-3.2 3.2-4.8 7.7-4.8 13s1.6 9.8 4.8 12.9 7.7 4.8 13 4.8 9.8-1.7 13-4.8 4.8-7.6 4.8-12.9-1.6-9.8-4.8-13-7.7-4.8-13-4.8-9.8 1.6-12.9 4.8zm-476.8-56.2v-67.1h9.6v67.1zm62.3-52.8c6.671 2.559 11.941 7.83 14.5 14.5 1.341 3.512 2.019 7.241 2 11v27.4h-9.6v-27.5c0-5.3-1.7-9.8-4.8-13s-7.7-4.8-13-4.8-9.8 1.7-12.9 4.8-4.8 7.7-4.8 13v27.4h-9.6v-54.8h9.6v5.9c2.076-1.662 4.406-2.978 6.9-3.9 7.005-2.57 14.695-2.57 21.7 0zm42.3 52.8-24.9-54.8h10.5l18.4 40.6 18.5-40.6h10.5l-24.9 54.8zm72.4-52.8c6.67 2.559 11.94 7.83 14.5 14.5 1.341 3.512 2.019 7.241 2 11v4.8h-44.8c.667 3.063 2.193 5.873 4.4 8.1 3.2 3.2 7.6 4.8 12.9 4.8 3.944.125 7.828-.995 11.1-3.2l5.6 7.8c-4.874 3.362-10.68 5.111-16.6 5-3.726.009-7.42-.669-10.9-2-6.759-2.456-12.098-7.758-14.6-14.5-2.619-7.065-2.619-14.835 0-21.9 2.526-6.692 7.808-11.974 14.5-14.5 7.078-2.587 14.847-2.552 21.9.1zm-23.9 12.5c-2.229 2.251-3.756 5.099-4.4 8.2h34.6c-.595-3.097-2.091-5.95-4.301-8.2-3.199-3.2-7.699-4.8-12.999-4.8s-9.8 1.5-12.9 4.7zm88.2-12.5c6.671 2.559 11.941 7.83 14.5 14.5 1.341 3.512 2.019 7.241 2 11v27.4h-9.6v-27.5c0-5.3-1.7-9.8-4.8-13s-7.7-4.8-13-4.8-9.8 1.7-12.9 4.8-4.8 7.7-4.8 13v27.4h-9.6v-54.8h9.5v5.9c2.076-1.662 4.406-2.978 6.9-3.9 7.036-2.595 14.765-2.595 21.8 0zm52.6-2v9.6h-16.5v24c-.043 2.579.469 5.136 1.5 7.5.889 2.006 2.263 3.759 4 5.1l3.8 2.9-5.8 7.6-3.8-2.9c-2.979-2.29-5.349-5.278-6.9-8.7-1.622-3.615-2.441-7.538-2.4-11.5v-45.9h9.6v12.3h16.4zm20.1-17.6c-.054 2.612-2.188 4.7-4.8 4.7-1.246 0-2.442-.495-3.323-1.377-.881-.881-1.377-2.076-1.377-3.323 0-2.614 2.09-4.747 4.702-4.8 2.627.054 4.745 2.172 4.798 4.8zm-9.6 72.4v-54.8h9.6v54.8zm44.1 0-24.9-54.8h10.5l18.5 40.6 18.5-40.6h10.5l-24.9 54.8zm79.2 0v-5.9c-2.049 1.647-4.344 2.963-6.8 3.9-7.068 2.61-14.833 2.61-21.9 0-3.295-1.273-6.291-3.213-8.8-5.7-2.48-2.514-4.42-5.509-5.7-8.8-2.559-7.076-2.559-14.824 0-21.9 2.559-6.67 7.829-11.941 14.5-14.5 7.067-2.61 14.832-2.61 21.899 0 2.457.937 4.751 2.253 6.801 3.9v-5.9h9.6v54.8h-9.6zm-30.8-40.3c-3.2 3.2-4.8 7.7-4.8 13s1.6 9.8 4.8 12.9 7.7 4.8 13 4.8 9.8-1.7 13-4.8 4.8-7.6 4.8-12.9-1.6-9.8-4.8-13-7.7-4.8-13-4.8-9.8 1.5-13 4.7zm-357.4 172.1c2.829 2.684 4.572 6.314 4.899 10.2.901 8.6-4.699 15.9-13.799 18.7 4 3.9 8.9 8.1 13.3 12 1.707-2.792 3.146-5.738 4.3-8.8l1.6-4.5 9 3.3-1.7 4.5c-1.469 4.082-3.416 7.976-5.8 11.6h-.1l5.8 4.7 3.7 3-6 7.5-3.7-3-6-5-1.4 1.2c-2.789 2.265-5.931 4.056-9.3 5.3-3.311 1.15-6.795 1.725-10.3 1.7-3.72-.017-7.396-.8-10.8-2.3-3.36-1.47-6.337-3.694-8.7-6.5-1.836-2.144-3.169-4.673-3.9-7.4-.771-2.906-.874-5.949-.3-8.9.548-3.16 1.968-6.104 4.1-8.5 1.876-2.073 4.157-3.741 6.7-4.9l2.101-.9c-.773-1.312-1.442-2.683-2-4.1-.851-2.105-1.357-4.334-1.5-6.6-.167-2.461.244-4.926 1.2-7.2.794-1.874 1.949-3.573 3.4-5 1.403-1.335 3.027-2.418 4.799-3.2 3.48-1.553 7.333-2.073 11.101-1.5 3.503.527 6.754 2.135 9.299 4.6zm-24.2 32.7c-1.39.662-2.645 1.578-3.7 2.7-.99 1.094-1.648 2.447-1.9 3.9-.297 1.523-.263 3.092.1 4.6.395 1.392 1.076 2.686 2 3.8 2.7 3.3 7.4 5.3 12.2 5.3 4.923.024 9.698-1.674 13.5-4.8-6.2-5.4-13.299-11.7-18.2-16.9-1.362.339-2.699.773-4 1.3zm7.9-26.8c-1.49.609-2.702 1.749-3.399 3.2-.714 2.137-.571 4.467.399 6.5.745 1.817 1.72 3.531 2.9 5.1l2.6-.4c2.748-.346 5.31-1.574 7.3-3.5 1.504-1.452 2.244-3.523 2-5.6-.09-1.587-.767-3.084-1.9-4.2-1.555-1.335-3.55-2.048-5.6-2-1.474-.041-2.94.231-4.3.8zm98.5 56.6-5.1-12.3h-32.7l-5 12.3h-10.5l27.6-67.1h8.5l27.6 67.1zm-9-21.9-12.4-30.3-12.5 30.3zm67.7-30.9c6.67 2.559 11.94 7.83 14.5 14.5 1.341 3.512 2.019 7.241 2 11v27.4h-9.6v-27.5c0-5.3-1.7-9.8-4.8-13s-7.7-4.8-13-4.8-9.8 1.7-12.9 4.8-4.8 7.7-4.8 13v27.4h-9.6v-54.8h9.6v5.9c2.076-1.662 4.405-2.978 6.9-3.9 7.004-2.57 14.695-2.57 21.7 0zm38.5-19.6c-.054 2.612-2.188 4.7-4.8 4.7-1.247.001-2.443-.494-3.325-1.376-.882-.881-1.376-2.077-1.375-3.324 0-2.614 2.09-4.747 4.702-4.8 2.627.054 4.745 2.172 4.798 4.8zm-9.6 72.4v-54.8h9.6v54.8zm115.7-29.4v29.4h-9.6v-29.4c0-4.7-1.5-8.7-4.3-11.5s-6.8-4.3-11.5-4.3-8.7 1.5-11.5 4.3-4.3 6.8-4.3 11.5v29.4h-9.6v-29.4c0-4.7-1.5-8.7-4.3-11.5s-6.8-4.3-11.5-4.3-8.7 1.5-11.5 4.3-4.3 6.8-4.3 11.5v29.4h-9.6v-54.8h9.6v4.9c4.654-3.338 10.274-5.06 16-4.9 8.8 0 16.1 3.6 20.5 9.7 4.5-6.1 11.7-9.7 20.6-9.7 14.9 0 25.3 10.5 25.3 25.4zm47-23.4c6.67 2.559 11.94 7.83 14.5 14.5 2.619 7.065 2.619 14.835 0 21.9-2.526 6.692-7.808 11.974-14.5 14.5-7.065 2.619-14.835 2.619-21.9 0-6.742-2.503-12.044-7.841-14.5-14.6-2.619-7.065-2.619-14.835 0-21.9 2.55-6.654 7.829-11.896 14.5-14.4 7.065-2.619 14.835-2.619 21.9 0zm-23.9 12.5c-3.2 3.2-4.8 7.7-4.8 13s1.7 9.8 4.8 12.9 7.6 4.8 12.9 4.8 9.8-1.7 13-4.8 4.8-7.6 4.8-12.9-1.7-9.8-4.8-13-7.7-4.8-13-4.8-9.8 1.6-13 4.7z"/><path d="m6281.4 237.2c-3.498-.366-6.898 1.293-8.761 4.276-1.863 2.982-1.863 6.766 0 9.748 1.863 2.983 5.263 4.642 8.761 4.276h18.6c3.137-.024 6.254.518 9.199 1.6 5.736 2.194 10.252 6.747 12.4 12.5 2.246 5.893 2.246 12.407.001 18.3-2.149 5.753-6.665 10.305-12.4 12.5-2.946 1.082-6.062 1.624-9.2 1.6h-41.8v-14h41.8c2.495.136 4.942-.728 6.799-2.4 3.236-3.918 3.236-9.582 0-13.5-1.857-1.672-4.304-2.536-6.799-2.4h-18.601c-3.104.019-6.187-.523-9.099-1.6-5.753-2.204-10.297-6.748-12.501-12.5-2.173-5.906-2.173-12.394 0-18.3 2.204-5.752 6.748-10.296 12.5-12.5 2.913-1.077 5.996-1.619 9.101-1.6h38.399v14.1h-38.4zm101.4 64.9v-5.1c-1.742 1.103-3.584 2.04-5.5 2.8-8.391 3.092-17.609 3.092-26 0-7.956-3.057-14.243-9.344-17.3-17.3-1.555-4.156-2.334-8.563-2.3-13-.033-4.405.746-8.778 2.3-12.9 1.501-3.94 3.818-7.519 6.8-10.5 2.93-2.996 6.48-5.317 10.4-6.8 8.376-3.173 17.623-3.173 26 0 1.926.737 3.77 1.676 5.5 2.8v-5.1h14.1v65.2h-14zm-32-46c-3.2 3.2-5 7.9-5 13.4s1.8 10.2 5 13.5 7.9 5 13.5 5 10.2-1.7 13.5-5 5-7.9 5-13.5-1.7-10.2-5-13.4-7.9-5-13.5-5-10.2 1.7-13.4 5zm108.6-16.8c3.947 1.487 7.528 3.806 10.5 6.8 2.982 2.981 5.299 6.56 6.8 10.5 1.553 4.122 2.333 8.495 2.3 12.9.034 4.438-.746 8.844-2.3 13-1.501 3.94-3.818 7.519-6.8 10.5-2.97 2.996-6.551 5.316-10.5 6.8-4.122 1.554-8.495 2.333-12.9 2.3-4.437.034-8.844-.745-13-2.3-1.922-.748-3.764-1.686-5.5-2.8v28.3h-14.1v-88.3h14.1v5.1c1.737-1.112 3.579-2.05 5.5-2.8 4.156-1.555 8.563-2.334 13-2.3 4.405-.034 8.778.746 12.9 2.3zm-26.4 16.8c-3.3 3.2-5 7.9-5 13.4s1.7 10.2 5 13.5 7.9 5 13.5 5 10.2-1.7 13.5-5 5-7.9 5-13.5-1.7-10.2-5-13.4-8-5-13.5-5-10.3 1.7-13.6 5zm71.4-38c0 3.922-3.179 7.101-7.101 7.101-3.921 0-7.1-3.179-7.1-7.101s3.179-7.101 7.1-7.101c3.922 0 7.101 3.179 7.101 7.101zm-14.1 84.1v-65.2h14.1v65.2zm70.9-62.9c7.991 3.002 14.298 9.308 17.3 17.3 1.614 4.108 2.428 8.486 2.4 12.9v7.1h-50c.794 2.403 2.128 4.592 3.899 6.4 3.301 3.3 7.901 5 13.501 5 4.084.132 8.107-1.022 11.5-3.3l8.2 11.5c-5.789 3.977-12.678 6.041-19.7 5.9-4.438.034-8.844-.745-13-2.3-7.992-3.002-14.298-9.308-17.3-17.3-1.555-4.156-2.334-8.562-2.3-13-.033-4.405.746-8.778 2.3-12.9 1.519-3.931 3.834-7.506 6.8-10.5 2.973-2.991 6.554-5.31 10.5-6.8 4.142-1.616 8.554-2.431 13-2.4 4.414-.03 8.792.784 12.9 2.4zm-26.4 16.8c-1.777 1.804-3.112 3.994-3.9 6.4h34.8c-.797-2.425-2.17-4.621-4-6.4-3.2-3.3-7.9-5-13.4-5s-10.2 1.7-13.5 5zm102.9-16.8c7.991 3.002 14.298 9.308 17.3 17.3 1.614 4.108 2.428 8.486 2.4 12.9v32.6h-14.2v-32.6c0-5.5-1.8-10.2-5-13.4s-7.9-5-13.4-5-10.2 1.7-13.5 5-5 7.9-5 13.4v32.6h-14.2v-65.1h14.1v5.1c1.723-1.135 3.568-2.074 5.5-2.8 4.142-1.616 8.553-2.431 13-2.4 4.447-.043 8.861.772 13 2.4zm64.1-2.3v14.1h-18.5v25.4c-.056 2.687.49 5.352 1.599 7.8.923 2.042 2.33 3.828 4.101 5.2l5.6 4.3-8.6 11.2-5.6-4.3c-3.582-2.729-6.433-6.302-8.3-10.4-1.957-4.3-2.947-8.976-2.9-13.7v-53.5h14.1v13.9h18.6zm-384.9 103.7c5.42 2.454 10.157 6.196 13.8 10.9l-11.4 8.8c-2.221-2.851-5.105-5.117-8.4-6.6-3.869-1.718-8.067-2.571-12.3-2.5-7.8 0-14.3 2.4-19 7s-7.1 11.2-7.1 19 2.4 14.3 7.1 19 11.2 7.1 19 7.1 14.3-2.4 19-7.1c3.15-3.236 5.333-7.289 6.3-11.7h-25.3v-14.4h40.5v7.2c.037 5.533-.947 11.024-2.901 16.2-3.711 9.887-11.512 17.688-21.399 21.4-10.455 3.866-21.946 3.866-32.401 0-9.886-3.712-17.687-11.513-21.399-21.4-3.858-10.455-3.858-21.945 0-32.4 3.712-9.887 11.513-17.688 21.4-21.4 5.176-1.954 10.668-2.937 16.2-2.9 6.3-.046 12.539 1.249 18.3 3.8zm83.6 77.1v-5.2c-1.776 1.104-3.65 2.041-5.6 2.8-8.586 3.16-18.015 3.16-26.6 0-8.14-3.128-14.572-9.56-17.7-17.7-1.606-4.25-2.419-8.757-2.4-13.3-.021-4.511.793-8.986 2.4-13.2 1.553-4.02 3.939-7.666 7-10.7 3.022-3.051 6.673-5.406 10.7-6.9 8.57-3.241 18.029-3.241 26.599 0 1.961.735 3.838 1.674 5.601 2.8v-5.3h14.5v66.7zm-32.7-47.1c-3.3 3.3-5.1 8.1-5.1 13.8s1.8 10.5 5.1 13.8 8.1 5.1 13.8 5.1 10.5-1.7 13.8-5.1 5.1-8.1 5.1-13.8-1.8-10.5-5.1-13.8-8.1-5.1-13.8-5.1-10.4 1.8-13.8 5.1zm97.9-5.1c-5.7 0-10.5 1.8-13.8 5.1s-5.1 8.1-5.1 13.8v33.3h-14.5v-66.7h14.4v5.3c1.791-1.141 3.702-2.08 5.7-2.8 4.207-1.632 8.687-2.446 13.2-2.4h7.2v14.4h-7.2zm79.7 52.2h-14.5v-5.2c-1.771 1.115-3.646 2.053-5.6 2.8-4.25 1.605-8.758 2.419-13.3 2.4-4.51.02-8.985-.794-13.2-2.4-4.002-1.543-7.644-3.891-10.7-6.9-3.033-3.036-5.386-6.684-6.899-10.7-1.633-4.242-2.448-8.755-2.401-13.3-.046-4.513.768-8.993 2.4-13.2 3.073-8.175 9.525-14.627 17.7-17.7 4.208-1.632 8.688-2.446 13.201-2.4 4.545-.047 9.058.767 13.299 2.4 1.965.724 3.843 1.663 5.6 2.8v-29h14.4zm-47.1-47.1c-3.4 3.3-5.1 8.1-5.1 13.8s1.8 10.5 5.1 13.8 8.1 5.1 13.8 5.1 10.5-1.7 13.8-5.1 5.1-8.1 5.1-13.8-1.7-10.5-5.1-13.8-8.1-5.1-13.8-5.1-10.5 1.8-13.8 5.1zm105.2-17.1c8.175 3.073 14.626 9.525 17.7 17.7 1.631 4.207 2.446 8.687 2.399 13.2l.001 7.2h-51.1c.809 2.478 2.178 4.736 4 6.6 3.399 3.4 8.1 5.1 13.799 5.1 4.159.111 8.249-1.077 11.701-3.4l8.399 11.8c-5.928 4.099-12.993 6.233-20.199 6.1-4.543.019-9.051-.795-13.3-2.4-8.175-3.073-14.627-9.525-17.7-17.7-1.605-4.25-2.418-8.757-2.4-13.3-.02-4.511.794-8.986 2.4-13.2 1.542-4.002 3.89-7.644 6.899-10.7 3.037-3.034 6.684-5.387 10.701-6.9 4.242-1.632 8.755-2.447 13.3-2.4 4.573-.104 9.123.677 13.4 2.3zm-27 17.2c-1.817 1.829-3.186 4.054-4 6.5h35.6c-.797-2.454-2.168-4.683-4-6.5-3.3-3.4-8.1-5.1-13.8-5.1s-10.5 1.7-13.9 5zm105.2-17.2c8.175 3.073 14.627 9.525 17.7 17.7 1.631 4.207 2.446 8.687 2.399 13.2l.001 33.3h-14.4v-33.3c0-5.7-1.8-10.5-5.1-13.8s-8.1-5.1-13.8-5.1-10.5 1.8-13.8 5.1-5.1 8.1-5.1 13.8v33.3h-14.4v-66.7h14.4v5.3c1.757-1.137 3.635-2.076 5.599-2.8 4.243-1.632 8.756-2.447 13.301-2.4 4.512-.046 8.992.768 13.2 2.4zm-204 107.6c2.68 2.047 4.81 4.727 6.2 7.8 1.438 3.205 2.156 6.687 2.1 10.2v39.8h-10.4v-39.8c.028-1.998-.382-3.977-1.2-5.8-.687-1.485-1.715-2.787-3-3.8l-4.2-3.2 6.4-8.3zm28.1 24.9c-.106 2.323.722 4.592 2.301 6.3 1.695 1.598 3.973 2.429 6.299 2.3h15.4v-13.8h10.5v38.1h-10.5v-13.8h-15.4c-2.594.056-5.173-.385-7.601-1.3-2.331-.869-4.446-2.234-6.199-4-1.747-1.768-3.11-3.879-4-6.2-.887-2.4-1.328-4.942-1.3-7.5v-26h10.5v26zm72.3-26c2.321-.019 4.626.388 6.8 1.2 2.115.809 4.027 2.072 5.6 3.7 1.608 1.59 2.869 3.497 3.7 5.6 1.639 4.42 1.639 9.28 0 13.7-.831 2.103-2.092 4.01-3.7 5.6-1.576 1.625-3.487 2.888-5.6 3.7-2.174.812-4.479 1.219-6.8 1.2h-10.4c-1.866-.159-3.705.521-5.019 1.854-1.315 1.334-1.967 3.183-1.781 5.046v6.8h34.5v10.5h-45v-17.3c-.026-2.354.38-4.693 1.2-6.9 1.635-4.282 5.017-7.665 9.3-9.3 2.175-.808 4.479-1.214 6.8-1.2h10.4c1.838.081 3.634-.566 5-1.8 2.339-2.923 2.339-7.077 0-10-1.366-1.234-3.162-1.88-5-1.8h-25.1v-10.6zm52.6 0c2.321-.019 4.626.388 6.8 1.2 2.109.821 4.018 2.082 5.6 3.7 1.608 1.59 2.869 3.497 3.7 5.6 1.639 4.42 1.639 9.28 0 13.7-.736 1.969-1.858 3.77-3.3 5.3 1.442 1.53 2.564 3.331 3.3 5.3 1.639 4.42 1.639 9.28 0 13.7-.831 2.103-2.092 4.01-3.7 5.6-1.582 1.618-3.491 2.879-5.6 3.7-2.174.812-4.479 1.219-6.8 1.2h-26v-10.6h26c1.839.081 3.635-.566 5-1.8 2.34-2.923 2.34-7.077 0-10-1.365-1.234-3.161-1.881-5-1.8h-20.8v-10.6h20.8c1.839.081 3.635-.566 5-1.8 2.34-2.923 2.34-7.077 0-10-1.365-1.234-3.161-1.88-5-1.8h-26v-10.6zm57.6 1.6c5.531 2.101 9.899 6.469 12 12 1.084 2.876 1.627 5.927 1.6 9v13.8c.026 3.073-.516 6.125-1.601 9-2.1 5.531-6.468 9.899-11.999 12-5.777 2.127-12.123 2.127-17.9 0-5.486-2.136-9.81-6.496-11.9-12-1.104-2.87-1.647-5.925-1.6-9v-13.8c-.047-3.075.496-6.13 1.6-9 2.09-5.504 6.414-9.864 11.9-12 5.776-2.127 12.122-2.127 17.899 0zm-20.9 20.9v13.8c0 7.4 4.6 12 12 12s12-4.6 12-12v-13.7c0-7.4-4.6-12-12-12s-12.1 4.6-12.1 12z"/><path d="m7823 369.8v-48.9l-25.6 32-25.6-32v48.9h-14.5v-74.4h13l27.2 34.1 27.3-34.1h12.9v74.4zm72.2 0v-4c-1.252.727-2.555 1.362-3.9 1.9-7.877 2.892-16.524 2.892-24.4 0-3.709-1.423-7.08-3.602-9.9-6.4-2.81-2.81-4.991-6.184-6.4-9.9-2.892-7.876-2.892-16.524 0-24.4 1.391-3.754 3.574-7.165 6.4-10 2.82-2.798 6.191-4.977 9.9-6.4 7.876-2.892 16.524-2.892 24.4 0 1.353.517 2.658 1.153 3.9 1.9v-4.1h14.6v61.6h-14.6zm-28-42.6c-2.8 2.8-4.3 6.9-4.3 11.8s1.5 9 4.3 11.8 7 4.4 11.8 4.4 9-1.5 11.8-4.4 4.3-6.9 4.3-11.8-1.5-9-4.3-11.8-7-4.4-11.8-4.4-9 1.5-11.8 4.4zm88.6-19v14.6h-17.1v22.6c-.032 2.374.446 4.727 1.401 6.9.797 1.725 1.998 3.234 3.499 4.4l5.8 4.5-8.9 11.6-5.8-4.5c-3.418-2.589-6.134-5.993-7.9-9.9-1.835-4.085-2.756-8.522-2.7-13v-50h14.6v12.8zm54.7 5.6-8.5 12c-2.981-1.997-6.513-3.011-10.1-2.9-4.9 0-9 1.5-11.8 4.4s-4.4 6.9-4.4 11.8 1.5 9 4.4 11.8 6.9 4.4 11.8 4.4c3.587.111 7.119-.903 10.1-2.9l8.5 11.9c-5.467 3.755-11.968 5.712-18.6 5.6-4.167.016-8.301-.73-12.2-2.2-7.566-2.861-13.539-8.834-16.4-16.4-2.892-7.876-2.892-16.524 0-24.4 1.431-3.734 3.609-7.137 6.4-10 2.839-2.774 6.205-4.95 9.9-6.4 3.899-1.47 8.033-2.216 12.2-2.2 6.655-.163 13.193 1.76 18.7 5.5zm25.2-1.5c1.247-.738 2.551-1.373 3.901-1.9 7.875-2.892 16.523-2.892 24.399 0 7.581 2.839 13.561 8.82 16.4 16.4 1.475 3.897 2.221 8.033 2.2 12.2v30.8h-14.5v-30.8c0-4.9-1.5-9-4.4-11.8s-6.9-4.4-11.8-4.4-9 1.5-11.8 4.4-4.4 6.9-4.4 11.8v30.8h-14.6v-82.9h14.6v25.5zm-259.5-102.7c3.31-.033 6.598.543 9.7 1.7 5.935 2.275 10.624 6.965 12.899 12.9 2.313 6.26 2.313 13.14.001 19.4-2.276 5.935-6.965 10.625-12.901 12.9-3.101 1.156-6.389 1.733-9.699 1.7h-18.9v-48.6zm-8.5 38.3h8.5c3.773.161 7.451-1.209 10.199-3.8 2.501-2.4 3.801-6 3.801-10.2s-1.3-7.7-3.8-10.2c-2.748-2.591-6.427-3.961-10.2-3.8h-8.5v27.9zm51-27.9v8.7h27.4v10.4h-27.4v8.7h27.4v10.4h-37.9v-48.6h37.8v10.4zm70.4-8.1c3.287 1.497 6.168 3.76 8.4 6.6l-8.3 6.4c-1.189-1.52-2.734-2.722-4.5-3.5-2.116-.904-4.4-1.347-6.7-1.3-4.2 0-7.7 1.3-10.2 3.8s-3.8 6-3.8 10.2 1.3 7.7 3.8 10.2 6 3.8 10.2 3.8c2.3.047 4.584-.396 6.7-1.3 1.766-.778 3.311-1.98 4.5-3.5l8.3 6.4c-2.232 2.84-5.113 5.103-8.4 6.6-3.459 1.547-7.211 2.332-11 2.3-3.31.033-6.598-.544-9.7-1.7-5.936-2.275-10.626-6.964-12.9-12.9-2.312-6.26-2.312-13.14 0-19.4 2.274-5.936 6.964-10.625 12.9-12.9 3.101-1.157 6.39-1.733 9.7-1.7 3.76-.158 7.51.49 11 1.9zm15.3 46.5v-48.8h10.4v48.8zm33.6-38.4c-1.711-.26-3.417.507-4.357 1.961s-.94 3.324 0 4.778 2.646 2.221 4.357 1.961h11c1.979-.026 3.944.313 5.8 1 1.803.679 3.439 1.736 4.8 3.1 1.371 1.355 2.429 2.993 3.1 4.8 1.404 3.739 1.404 7.861 0 11.6-.671 1.807-1.729 3.445-3.1 4.8-1.361 1.364-2.997 2.421-4.8 3.1-1.856.687-3.821 1.026-5.8 1h-25.8v-10.2h25.8c1.167.053 2.312-.34 3.2-1.1 1.484-1.913 1.484-4.587 0-6.5-.888-.76-2.033-1.153-3.2-1.1h-11c-1.979.033-3.946-.306-5.8-1-3.687-1.401-6.599-4.313-8-8-1.404-3.739-1.404-7.861 0-11.6 1.401-3.688 4.313-6.599 8-8 1.854-.694 3.821-1.033 5.8-1h23.7v10.4zm33.4 38.4v-48.8h10.4v48.8zm37.8 0-20-48.8h11.3l12.9 31.4 12.9-31.4h11.3l-20 48.8zm46.1-38.4v8.7h27.4v10.4h-27.4v8.7h27.4v10.4h-37.8v-48.6h37.8v10.4zm-232.4 189.2c3.974-.04 7.916.708 11.6 2.2 3.461 1.392 6.521 3.626 8.9 6.5 2.367 2.933 3.981 6.4 4.7 10.1.795 3.957.828 8.03.1 12-.721 4.221-2.176 8.282-4.301 12-2.171 3.814-4.978 7.23-8.299 10.1-6.583 5.612-14.95 8.696-23.6 8.7h-17c-2.594-.091-5.139.722-7.2 2.3-1.876 1.785-3.107 4.141-3.5 6.7l-1.6 9h56.8l-3.8 21.7h-78.4l5.4-30.7c.72-4.221 2.175-8.282 4.3-12 2.149-3.83 4.959-7.25 8.3-10.1 6.583-5.612 14.95-8.696 23.6-8.7h17.1c2.592.082 5.134-.73 7.199-2.3 1.877-1.785 3.108-4.141 3.501-6.7.4-2 .4-4.8-1.2-6.7s-4.3-2.3-6.3-2.3h-43.6l3.8-21.7h43.5zm58.8 2.2c4.04 3.639 6.955 8.358 8.4 13.6 1.585 5.769 1.824 11.824.7 17.7l-11.9 67.7h-21.8l11.9-67.7c.596-2.844.527-5.787-.2-8.6-.562-2.13-1.745-4.045-3.399-5.5l-7.401-6.6 16.2-17.2zm44.7 42.7c-.4 2.6-.6 6.3 1.5 8.8s5.6 3.1 8.2 3.1h23.3l4-22.8h21.7l-11.9 67.2h-21.7l4-22.7h-23.2c-4.351.053-8.669-.763-12.7-2.4-3.794-1.486-7.137-3.932-9.7-7.1-2.587-3.148-4.341-6.897-5.101-10.9-.935-4.347-.969-8.84-.099-13.2l7.9-44.9h21.7zm99.9-23.2-1.6 9c-.4 2-.4 4.8 1.2 6.7s4.3 2.3 6.3 2.3h17.1c3.974-.04 7.916.708 11.6 2.2 3.461 1.392 6.52 3.626 8.899 6.5 2.368 2.933 3.982 6.4 4.701 10.1.795 3.957.828 8.03.1 12-.72 4.221-2.176 8.282-4.3 12-2.172 3.814-4.979 7.23-8.3 10.1-6.583 5.612-14.949 8.696-23.6 8.7h-47.8l3.8-21.7h47.8c2.593.082 5.135-.73 7.2-2.3 1.876-1.785 3.107-4.141 3.5-6.7.4-2 .4-4.8-1.2-6.7s-4.3-2.3-6.3-2.3h-17.1c-3.974.04-7.917-.708-11.6-2.2-7.073-2.845-12.202-9.106-13.6-16.6-.795-3.957-.829-8.03-.1-12l5.399-30.7h74.301l-3.801 21.7h-52.6z"/><path d="m9182.3 219c4.744 2.264 8.711 5.883 11.4 10.4l-10 6.9c-1.878-3.092-4.626-5.561-7.9-7.1-3.928-1.882-8.245-2.807-12.6-2.7-4.093-.015-8.155.696-12 2.1-3.511 1.228-6.764 3.093-9.599 5.5-2.861 2.42-5.266 5.333-7.1 8.6-2.046 3.628-3.434 7.589-4.1 11.7-.789 3.86-.789 7.84 0 11.7 1.104 6.475 5.557 11.879 11.702 14.2 3.584 1.463 7.429 2.177 11.299 2.1 4.092.015 8.155-.696 11.999-2.1 3.51-1.229 6.765-3.093 9.6-5.5 2.86-2.42 5.265-5.333 7.1-8.6 1.105-1.937 2.009-3.98 2.701-6.1h-27.501l2-11.1h39l-.901 5.6c-.974 5.51-2.868 10.817-5.599 15.7-5.321 9.558-13.914 16.873-24.199 20.6-5.199 1.866-10.68 2.813-16.202 2.8-5.202.077-10.367-.875-15.2-2.8-4.29-1.732-8.073-4.518-11-8.1-2.963-3.619-4.989-7.912-5.9-12.5-1.009-5.185-1.009-10.515 0-15.7.915-5.511 2.775-10.823 5.5-15.7 5.319-9.604 13.905-16.984 24.2-20.8 5.196-1.866 10.678-2.813 16.199-2.8 5.912-.121 11.769 1.146 17.101 3.7zm61.099 21.8c-5.864-.121-11.576 1.866-16.099 5.6-4.435 3.918-7.369 9.256-8.3 15.1l-5.6 31.8h-11.2l11.2-63.7h11.1l-1.2 6.9c2.716-1.918 5.675-3.465 8.8-4.6 4.231-1.53 8.698-2.309 13.199-2.3h5.6l-2 11.1h-5.599zm54.301 52.5 1.199-6.9c-2.681 1.914-5.607 3.461-8.699 4.6-4.235 1.522-8.701 2.301-13.201 2.3-4.211.053-8.391-.729-12.299-2.3-3.528-1.421-6.653-3.687-9.099-6.6-2.372-3.018-4.014-6.543-4.799-10.3-.808-4.195-.808-8.505-.001-12.7.786-4.485 2.306-8.81 4.5-12.8 2.22-3.867 5.096-7.318 8.5-10.2 3.368-2.873 7.231-5.11 11.4-6.6 4.232-1.534 8.699-2.313 13.2-2.3 4.245-.053 8.457.729 12.401 2.3 2.627 1.089 5.032 2.648 7.099 4.6l1.201-6.9h11.099l-11.3 63.7h-11.2zm-27.5-46.9c-4.455 3.902-7.394 9.248-8.301 15.1-1.099 6.2-.099 11.4 2.901 15.1s8 5.6 14.199 5.6c5.867.139 11.586-1.85 16.101-5.6 4.469-3.891 7.411-9.242 8.3-15.1 1.099-6.2.099-11.4-2.901-15.1s-7.899-5.6-14.1-5.6c-5.899-.154-11.655 1.836-16.2 5.6zm111.3-11-8.101 9.1c-3-2.5-7.199-3.7-12.199-3.7-5.867-.139-11.586 1.85-16.1 5.6-4.449 3.907-7.385 9.251-8.3 15.1-1.1 6.2-.1 11.4 3 15.1 3.099 3.7 7.9 5.6 14.099 5.6 4.762.089 9.45-1.196 13.5-3.7l4.901 9.1c-6.112 3.83-13.188 5.842-20.401 5.8-4.211.055-8.392-.726-12.299-2.3-3.525-1.428-6.648-3.693-9.1-6.6-2.34-3.025-3.948-6.55-4.7-10.3-.843-4.188-.877-8.499-.1-12.7.786-4.485 2.307-8.81 4.5-12.8 2.189-3.861 5.03-7.312 8.401-10.2 3.371-2.87 7.233-5.106 11.4-6.6 4.199-1.525 8.633-2.303 13.1-2.3 7.4 0 13.7 2 18.4 5.8zm50.8-3.5c7.144 2.905 12.337 9.226 13.799 16.8.877 4.218.911 8.568.1 12.8l-1 5.6h-52c.086 3.449 1.279 6.78 3.401 9.5 3.099 3.7 7.9 5.6 14.099 5.6 4.762.089 9.449-1.196 13.5-3.7l4.901 9.1c-6.113 3.83-13.188 5.842-20.401 5.8-4.213.055-8.393-.726-12.301-2.3-3.523-1.428-6.646-3.693-9.098-6.6-2.34-3.025-3.949-6.55-4.7-10.3-.843-4.188-.877-8.499-.1-12.7.786-4.485 2.307-8.81 4.5-12.8 2.188-3.861 5.03-7.312 8.4-10.2 3.371-2.87 7.234-5.106 11.401-6.6 4.199-1.525 8.633-2.303 13.099-2.3 4.245-.053 8.458.728 12.401 2.3zm-30.401 14.5c-2.977 2.57-5.278 5.832-6.699 9.5h40.3c-.006-3.446-1.168-6.791-3.3-9.499-3.099-3.701-7.9-5.601-14.099-5.601-5.903-.163-11.661 1.828-16.202 5.6zm81.201-30.7c-2.287 1.552-4.229 3.561-5.701 5.9-1.527 2.459-2.61 5.166-3.2 8h19.1l-2 11.1h-19.1l-9.3 52.6h-11.1l11.1-62.9c.788-4.763 2.521-9.319 5.1-13.4 2.576-4.007 5.945-7.444 9.9-10.1l5-3.4 5.201 8.9zm63.799 77.6 1.201-6.9c-2.71 1.928-5.671 3.476-8.801 4.6-4.199 1.519-8.632 2.297-13.099 2.3-4.245.058-8.459-.724-12.4-2.3-3.505-1.413-6.599-3.682-9-6.6-2.418-2.951-4.067-6.456-4.8-10.2-.848-4.221-.882-8.566-.1-12.8l5.6-31.8h11.2l-5.599 31.8c-1.101 6.2-.101 11.4 3 15.1 3.099 3.7 7.899 5.6 14.099 5.6 5.865.129 11.581-1.859 16.101-5.6 4.456-3.902 7.394-9.248 8.301-15.1l5.598-31.8h11.2l-11.2 63.7zm27.901 0 15.4-87.6h11.199l-15.399 87.6zm-417.901 51.3c3.535 1.598 6.623 4.035 9 7.1l-6.7 5.2c-1.546-1.968-3.533-3.544-5.801-4.6-2.645-1.161-5.509-1.741-8.399-1.7-5.4 0-9.8 1.7-13 4.9s-4.9 7.7-4.9 13 1.7 9.8 4.9 13 7.7 4.9 13 4.9c2.89.041 5.754-.539 8.4-1.7 2.271-1.052 4.258-2.629 5.8-4.6l6.7 5.2c-2.377 3.065-5.465 5.502-9 7.1-3.743 1.671-7.8 2.523-11.9 2.5-3.62.029-7.215-.615-10.6-1.9-6.413-2.425-11.475-7.487-13.9-13.9-2.51-6.809-2.51-14.291 0-21.1 2.401-6.451 7.467-11.553 13.9-14 3.385-1.285 6.98-1.929 10.6-1.9 4.1-.023 8.157.829 11.9 2.5zm56 28.6c0 11.9-8 21.6-21.599 21.6-13.6 0-21.6-8.9-21.6-21.6s8.8-21.6 21.6-21.6 21.599 8.9 21.599 21.6zm-31.199-9.6c-4.783 5.382-4.542 13.559.549 18.651 5.092 5.091 13.269 5.332 18.65.549 4.784-5.382 4.542-13.56-.548-18.651-5.091-5.092-13.269-5.332-18.651-.549zm98.4-10.6c2.448.906 4.668 2.34 6.5 4.2 1.826 1.821 3.255 4 4.2 6.4.958 2.557 1.432 5.27 1.4 8l-.001 23.2h-8.5v-23.1c0-4.144-2.211-7.974-5.8-10.046-3.588-2.072-8.01-2.072-11.599 0s-5.8 5.902-5.8 10.046l-.001 23.2h-8.5v-23.2c-.206-4.634-3.065-8.734-7.342-10.53-4.276-1.796-9.205-.967-12.658 2.13-2.116 2.272-3.232 5.298-3.1 8.4v23.2h-8.5v-43.3h8.6v3.3c1.123-.741 2.332-1.346 3.6-1.8 5.162-1.915 10.839-1.915 16.001 0 2.444.915 4.661 2.348 6.5 4.2l1.4 1.5 1.399-1.5c1.808-1.843 3.991-3.275 6.401-4.2 5.089-1.898 10.685-1.933 15.799-.1zm34.5-9.6c-1.261.971-2.258 2.243-2.9 3.7-.635 1.421-1.008 2.946-1.099 4.5h12.599v8.5h-12.699v34.8h-8.5v-42.2c-.027-3.135.62-6.238 1.9-9.1 1.245-2.712 3.133-5.08 5.499-6.9l3.401-2.6 5.099 6.7zm55.6 29.8c0 11.9-8 21.6-21.6 21.6s-21.6-8.9-21.6-21.6 8.8-21.6 21.6-21.6c12.799 0 21.6 8.9 21.6 21.6zm-31.2-9.6c-4.783 5.382-4.542 13.56.549 18.651 5.092 5.091 13.268 5.332 18.651.549 4.782-5.382 4.542-13.56-.55-18.651-5.09-5.092-13.268-5.332-18.65-.549zm60.399-3.5c-3.54-.169-7 1.092-9.599 3.5-2.399 2.606-3.658 6.062-3.5 9.6v21.6h-8.5v-43.2h8.5v4c1.387-.996 2.9-1.803 4.5-2.4 2.75-1.024 5.665-1.532 8.599-1.5h4.201v8.5h-4.201zm33.601-8.5v8.5h-12.601v17.9c-.036 1.891.34 3.768 1.1 5.5.647 1.455 1.643 2.726 2.901 3.7l3.401 2.6-5.101 6.7-3.399-2.6c-2.365-1.82-4.253-4.188-5.5-6.9-1.278-2.862-1.925-5.966-1.901-9.1v-35.8h8.5v9.5zm38.6 43.3v-4c-1.396.981-2.908 1.788-4.5 2.4-2.75 1.024-5.665 1.532-8.6 1.5-12.7 0-21.6-8.9-21.6-21.6-.032-2.935.477-5.85 1.5-8.6 1.976-5.325 6.175-9.524 11.5-11.5 2.75-1.024 5.665-1.532 8.6-1.5 4.71-.088 9.329 1.311 13.199 4l.001-4h8.3v43.3h-8.5zm-22.8-31.2c-4.935 5.23-4.778 13.448.357 18.483 5.133 5.036 13.353 5.036 18.486 0 5.133-5.035 5.292-13.253.357-18.483-5.506-4.744-13.643-4.786-19.199-.1zm51-8.1c1.391-.989 2.903-1.795 4.5-2.4 2.75-1.024 5.665-1.532 8.599-1.5 12.701 0 21.6 8.9 21.6 21.6.032 2.935-.477 5.85-1.5 8.6-1.976 5.325-6.175 9.524-11.5 11.5-2.75 1.024-5.665 1.532-8.6 1.5-4.711.088-9.33-1.311-13.2-4v4h-8.5v-59.1h8.5v19.8zm3.5 8.1c-4.783 5.382-4.542 13.56.549 18.651 5.09 5.092 13.269 5.332 18.651.549 4.813-5.357 4.616-13.537-.45-18.656-5.067-5.119-13.243-5.401-18.651-.644zm38.8 31.2v-59.1h8.5v59.1zm59.299-21.7v4.2h-34.199c.517 2.029 1.55 3.89 3 5.4 2.607 2.398 6.062 3.658 9.6 3.5 2.905.097 5.769-.706 8.2-2.3l4.9 6.9c-3.837 2.681-8.421 4.081-13.101 4-12.699 0-21.599-8.9-21.599-21.6s8.9-21.6 21.6-21.6 21.599 8.8 21.599 21.5zm-31.199-9.6c-1.454 1.507-2.488 3.369-3 5.4h25.3c-.512-2.031-1.546-3.893-3-5.4-5.549-4.771-13.751-4.771-19.3 0zm-384.4 72.6c4.701 1.883 8.859 4.908 12.099 8.8 3.197 3.953 5.392 8.618 6.401 13.6 1.092 5.611 1.125 11.377.099 17-1.072 5.967-3.133 11.713-6.099 17-5.785 10.389-15.123 18.342-26.3 22.4-5.648 2.011-11.604 3.026-17.6 3-5.643.093-11.25-.927-16.5-3-4.677-1.875-8.805-4.902-12-8.8-3.212-3.942-5.411-8.612-6.4-13.6-1.088-5.614-1.088-11.386 0-17 1.011-5.969 3.04-11.719 6-17 5.827-10.354 15.15-18.295 26.3-22.4 5.648-2.011 11.603-3.026 17.599-3 5.611-.08 11.181.94 16.401 3zm-31.7 11.3c-3.804 1.347-7.329 3.381-10.4 6-3.108 2.649-5.716 5.832-7.701 9.4-2.201 3.942-3.69 8.241-4.399 12.7-.854 4.19-.854 8.51 0 12.7 1.204 7.021 6.036 12.88 12.699 15.4 3.908 1.563 8.094 2.312 12.301 2.2 4.463.05 8.898-.695 13.099-2.2 3.805-1.347 7.329-3.381 10.401-6 3.107-2.649 5.714-5.832 7.7-9.4 2.209-3.948 3.73-8.242 4.5-12.7.792-4.2.758-8.513-.1-12.7-1.205-7.021-6.037-12.88-12.7-15.4-3.908-1.563-8.094-2.312-12.301-2.2-4.468-.018-8.903.761-13.098 2.3zm100.2 13.4c-6.374-.121-12.582 2.043-17.5 6.1-4.805 4.263-7.986 10.058-9 16.4l-6.1 34.6h-12.1l12.2-69.3h12.099l-1.299 7.5c2.931-2.079 6.126-3.76 9.5-5 4.586-1.657 9.424-2.503 14.3-2.5h6.099l-2.1 12.1h-6.099zm71.5 56.3c-.898 5.185-2.8 10.144-5.6 14.6-2.766 4.369-6.41 8.115-10.701 11l-5.499 3.7-5.6-9.6 5.4-3.7c2.531-1.661 4.679-3.843 6.3-6.4 1.81-2.9 3.034-6.128 3.599-9.5l1.2-6.6c-2.915 2.106-6.113 3.789-9.5 5-4.611 1.689-9.489 2.536-14.4 2.5-4.591.091-9.151-.76-13.4-2.5-3.842-1.55-7.243-4.023-9.901-7.2-2.608-3.262-4.392-7.103-5.201-11.2-.877-4.558-.877-9.242.001-13.8.858-4.871 2.514-9.568 4.9-13.9 2.402-4.204 5.514-7.959 9.2-11.1 3.663-3.133 7.865-5.573 12.401-7.2 4.584-1.661 9.424-2.507 14.3-2.5 4.62-.058 9.207.791 13.5 2.5 2.835 1.21 5.44 2.901 7.699 5l1.301-7.5h12.1zm-42.3-50.2c-4.7 4-7.8 9.7-9 16.4s-.101 12.4 3.2 16.4c3.3 4 8.699 6.1 15.4 6.1 6.379.148 12.595-2.019 17.5-6.1 4.7-3.9 7.799-9.6 9-16.4 1.2-6.8.099-12.4-3.201-16.4-3.299-4-8.599-6.1-15.299-6.1-6.411-.154-12.661 2.012-17.6 6.1zm111.3 51.1 1.3-7.5c-2.93 2.082-6.125 3.763-9.5 5-4.62 1.66-9.493 2.506-14.401 2.5-4.588.061-9.142-.789-13.4-2.5-3.842-1.55-7.242-4.023-9.901-7.2-2.571-3.283-4.35-7.116-5.199-11.2-.879-4.558-.879-9.242-.001-13.8.859-4.871 2.514-9.568 4.901-13.9 2.402-4.204 5.514-7.96 9.2-11.1 3.662-3.133 7.864-5.573 12.4-7.2 4.585-1.661 9.425-2.507 14.301-2.5 4.619-.058 9.206.791 13.499 2.5 2.85 1.187 5.458 2.881 7.701 5l1.299-7.5h12.101l-12.101 69.4zm-29.901-51.1c-4.699 4-7.799 9.7-9 16.4-1.199 6.7-.099 12.4 3.201 16.4 3.299 4 8.7 6.1 15.4 6.1 6.379.148 12.596-2.019 17.5-6.1 4.845-4.231 8.033-10.041 9-16.4 1.2-6.7.1-12.4-3.2-16.4s-8.6-6.1-15.3-6.1c-6.41-.154-12.66 2.012-17.6 6.1zm120.601-15.7c3.817 1.542 7.188 4.018 9.8 7.2 2.656 3.206 4.476 7.019 5.3 11.1.882 4.591.882 9.309 0 13.9l-6.1 34.6h-12.101l6.101-34.6c1.199-6.7.1-12.4-3.2-16.4s-8.601-6.1-15.3-6.1c-6.377-.139-12.591 2.027-17.5 6.1-4.805 4.263-7.984 10.058-9 16.4l-6.1 34.6h-12.2l12.2-69.3h12.1l-1.3 7.5c2.917-2.103 6.115-3.786 9.5-5 4.585-1.657 9.424-2.503 14.3-2.5 4.621-.064 9.209.786 13.5 2.5zm24.8 66.8 12.2-69.3h12.1l-12.201 69.3zm28.3-91.6c-.734 3.418-3.705 5.894-7.2 6-1.533.07-3.008-.58-3.99-1.758-.981-1.178-1.356-2.748-1.011-4.242.686-3.422 3.614-5.938 7.1-6.1 1.558-.07 3.059.591 4.059 1.788 1.001 1.196 1.385 2.791 1.041 4.312zm62.799 28.6-8.799 9.9c-3.201-2.7-7.8-4.1-13.3-4.1-6.379-.148-12.596 2.019-17.5 6.1-4.824 4.247-8.009 10.05-9 16.4-1.2 6.7-.1 12.4 3.2 16.4s8.6 6.1 15.3 6.1c5.194.081 10.3-1.343 14.701-4.1l5.299 9.9c-6.653 4.167-14.353 6.352-22.201 6.3-4.554.05-9.074-.799-13.299-2.5-3.838-1.557-7.237-4.029-9.901-7.2-2.576-3.282-4.356-7.115-5.201-11.2-.912-4.552-.945-9.236-.098-13.8.859-4.871 2.515-9.567 4.9-13.9 2.396-4.207 5.51-7.964 9.199-11.1 3.667-3.127 7.868-5.567 12.402-7.2 4.583-1.663 9.422-2.509 14.298-2.5 8.101.2 15.001 2.4 20.001 6.5z"/><path d="m10553.9 386.9v11.7h29.6v9h-29.6v11.7h29.6v9h-38.6v-50.4h38.6v9zm82.6 41.4h-10.899l-11.601-17.2-11.699 17.2h-10.901l17.1-25.2-17.1-25.2h10.901l11.699 17.2 11.7-17.2h10.901l-17.101 25.2zm33.101-50.4c2.426-.008 4.833.433 7.099 1.3 2.168.82 4.142 2.08 5.8 3.7 1.634 1.646 2.896 3.624 3.699 5.8.886 2.261 1.327 4.672 1.301 7.1.019 2.428-.423 4.837-1.301 7.1-1.641 4.392-5.106 7.857-9.499 9.5-2.266.867-4.673 1.308-7.099 1.3h-16.201v14.8h-9v-50.6zm-16.201 26.6h16.201c3.533-.183 6.647-2.375 8.011-5.638 1.365-3.262.739-7.019-1.611-9.662-1.752-1.574-4.049-2.4-6.401-2.3h-16.201zm80.6 14.8v9h-38.6v-50.4h9v41.4zm37.4-39.6c6.141 2.313 10.988 7.159 13.3 13.3 2.412 6.517 2.412 13.683 0 20.2-2.312 6.141-7.159 10.987-13.3 13.3-6.517 2.412-13.681 2.412-20.199 0-6.14-2.313-10.987-7.159-13.3-13.3-2.413-6.517-2.413-13.683-.001-20.2 2.314-6.141 7.161-10.987 13.301-13.3 6.518-2.412 13.682-2.412 20.199 0zm-21.9 11.6c-2.899 2.9-4.399 7-4.399 11.8s1.5 8.9 4.399 11.8c2.9 2.9 7 4.4 11.801 4.4 4.8 0 8.899-1.5 11.8-4.4 2.899-2.9 4.399-7 4.399-11.8s-1.5-8.9-4.399-11.8c-2.901-2.9-7-4.4-11.8-4.4-4.801 0-8.901 1.5-11.801 4.4zm70.2-13.4c2.427-.008 4.834.433 7.101 1.3 4.364 1.686 7.813 5.136 9.5 9.5.867 2.266 1.308 4.673 1.301 7.1-.001 2.433-.442 4.839-1.303 7.107-.818 2.161-2.077 4.135-3.697 5.793-.996.993-2.104 1.865-3.301 2.6l8.4 17.2h-10l-7.2-14.8h-17v14.8h-9v-50.6zm-16.2 26.6h16.2c3.574-.101 6.759-2.286 8.139-5.585 1.38-3.298.699-7.099-1.738-9.715-1.751-1.574-4.048-2.4-6.401-2.3h-16.2zm80.5 23.8-3.6-8.9h-22.299l-3.601 8.9h-9.8l20.7-50.4h7.6l20.7 50.4zm-7.3-17.9-7.399-18-7.401 18zm37.901-23.5v41.4h-9v-41.4h-15.5v-9h40.099v9zm24.2 41.4v-50.4h9v50.4zm52.199-48.6c6.179 2.289 11.064 7.139 13.4 13.3 2.404 6.519 2.404 13.681 0 20.2-2.336 6.161-7.221 11.011-13.4 13.3-6.518 2.412-13.682 2.412-20.199 0-6.141-2.313-10.988-7.159-13.3-13.3-2.404-6.519-2.404-13.681-.001-20.2 2.313-6.141 7.16-10.987 13.301-13.3 6.517-2.412 13.681-2.412 20.199 0zm-21.899 11.6c-2.901 2.9-4.401 7-4.401 11.8s1.5 8.9 4.401 11.8c2.899 2.9 7 4.4 11.799 4.4 4.8 0 8.901-1.5 11.8-4.4 2.901-2.9 4.401-7 4.401-11.8s-1.5-8.9-4.401-11.8c-2.899-2.9-7-4.4-11.8-4.4-4.799 0-8.9 1.5-11.799 4.4zm79.799 37-25.799-34.4v34.4h-9v-50.4h8.2l25.8 34.4v-34.4h9v50.4zm-482.5-263.7v39.7h-8.599v-39.7h-14.901v-8.6h38.401v8.6zm46.901 39.7h-8.601v-16.1l-17.899-32.2h9.899l12.3 22.2 12.301-22.2h9.899l-17.899 32.2zm49.3-48.3c2.32-.023 4.626.384 6.798 1.2 2.063.809 3.935 2.034 5.501 3.6 1.579 1.555 2.807 3.43 3.6 5.5.831 2.169 1.239 4.477 1.199 6.8.033 2.322-.374 4.629-1.199 6.8-1.571 4.209-4.891 7.529-9.1 9.1-2.172.816-4.478 1.223-6.799 1.2h-15.5v14.2h-8.6v-48.4h24.199zm-15.5 25.5h15.5c3.378-.157 6.368-2.237 7.69-5.351 1.322-3.113.743-6.708-1.49-9.249-1.693-1.526-3.923-2.317-6.199-2.2h-15.501v16.9zm71.2-23.8c5.914 2.221 10.58 6.887 12.801 12.8 2.294 6.228 2.294 13.072-.001 19.3-2.22 5.913-6.886 10.579-12.799 12.8-6.231 2.296-13.073 2.296-19.302 0-5.912-2.221-10.578-6.887-12.799-12.8-2.296-6.228-2.296-13.072 0-19.3 2.221-5.913 6.887-10.579 12.8-12.8 6.228-2.296 13.071-2.296 19.3 0zm-21 11.1c-2.801 2.8-4.2 6.7-4.2 11.3s1.399 8.6 4.2 11.3c2.8 2.7 6.699 4.2 11.3 4.2 4.599 0 8.599-1.4 11.299-4.2 2.701-2.8 4.201-6.7 4.201-11.3s-1.401-8.6-4.201-11.3c-2.799-2.7-6.7-4.2-11.299-4.2-4.601 0-8.5 1.4-11.3 4.2zm76.099-10.6c3.221 1.469 6.036 3.7 8.201 6.5l-6.8 5.3c-1.325-1.687-3.041-3.026-5-3.9-2.327-1.036-4.854-1.548-7.401-1.5-4.7 0-8.599 1.4-11.299 4.2-2.701 2.8-4.201 6.7-4.201 11.3s1.401 8.6 4.201 11.3c2.799 2.7 6.7 4.2 11.299 4.2 4.6 0 8.6-1.4 11.3-4.2 1.899-1.93 3.215-4.356 3.799-7h-14.999v-8.6h24.2v4.3c.037 3.311-.539 6.6-1.7 9.7-2.221 5.913-6.887 10.579-12.8 12.8-6.228 2.296-13.071 2.296-19.3 0-5.914-2.221-10.58-6.887-12.8-12.8-2.295-6.228-2.295-13.072.001-19.3 2.219-5.913 6.885-10.579 12.798-12.8 3.101-1.161 6.39-1.737 9.701-1.7 3.713-.032 7.393.718 10.799 2.2zm45-2.2c2.322-.023 4.627.384 6.8 1.2 4.18 1.616 7.485 4.92 9.1 9.1.817 2.173 1.223 4.479 1.201 6.8.016 2.321-.392 4.625-1.201 6.8-.81 2.061-2.034 3.934-3.6 5.5-.964.957-2.038 1.797-3.2 2.5l8 16.5h-9.6l-6.9-14.3h-16.1v14.2h-8.6v-48.3h24.2zm-15.5 25.5h15.5c3.421-.074 6.48-2.147 7.818-5.297 1.338-3.149.705-6.79-1.617-9.303-1.694-1.526-3.924-2.317-6.201-2.2h-15.5v16.9zm77.1 22.8-3.5-8.5h-21.3l-3.5 8.5h-9.399l19.899-48.3h7.2l19.8 48.3zm-7-17.1-7.1-17.3-7.099 17.3h14.099zm47.7-31.2c2.321-.023 4.627.384 6.8 1.2 2.062.809 3.934 2.034 5.5 3.6 1.579 1.555 2.807 3.43 3.6 5.5.831 2.169 1.239 4.477 1.199 6.8.033 2.322-.374 4.629-1.199 6.8-1.572 4.209-4.891 7.529-9.1 9.1-2.173.816-4.479 1.223-6.8 1.2h-15.5v14.2h-8.599v-48.4h24.199zm-15.5 25.5h15.5c3.379-.159 6.366-2.239 7.689-5.352 1.322-3.112.744-6.707-1.488-9.248-1.693-1.526-3.923-2.317-6.2-2.2h-15.501v16.9zm71.401 22.8v-19.9h-22.601v19.8h-8.6v-48.2h8.6v19.8h22.601v-19.8h8.599v48.3zm18.899 0v-48.3h8.601v48.3zm51.4-46.1c3.221 1.469 6.036 3.7 8.201 6.5l-6.8 5.3c-1.325-1.687-3.041-3.026-5-3.9-2.327-1.036-4.854-1.548-7.401-1.5-4.7 0-8.599 1.4-11.299 4.2-2.701 2.8-4.201 6.7-4.201 11.3s1.5 8.6 4.201 11.3c2.7 2.7 6.7 4.2 11.299 4.2 2.547.048 5.074-.464 7.401-1.5 1.959-.875 3.675-2.213 5-3.9l6.8 5.3c-2.165 2.8-4.98 5.031-8.201 6.5-3.436 1.496-7.152 2.246-10.9 2.2-3.311.037-6.6-.539-9.7-1.7-5.913-2.221-10.579-6.887-12.8-12.8-2.296-6.228-2.296-13.072 0-19.3 2.221-5.913 6.887-10.579 12.8-12.8 3.1-1.161 6.389-1.737 9.7-1.7 3.755-.014 7.47.77 10.9 2.3zm-488.5 102.1v18.6h47.201v14.3h-47.201v33h-14.299v-80.3h61.5v14.3h-47.201zm104.901 2.1c8.093 3.077 14.47 9.49 17.5 17.6 1.626 4.174 2.441 8.62 2.4 13.1.041 4.512-.773 8.991-2.4 13.2-1.479 4.01-3.797 7.658-6.8 10.7-3.053 3.013-6.696 5.362-10.7 6.9-4.182 1.599-8.623 2.413-13.1 2.4-4.51.013-8.984-.8-13.2-2.4-8.131-3.053-14.547-9.469-17.6-17.6-1.599-4.216-2.413-8.69-2.4-13.2-.013-4.477.801-8.919 2.4-13.101 1.538-4.004 3.888-7.647 6.901-10.699 3.032-3.039 6.68-5.392 10.7-6.9 4.209-1.627 8.688-2.441 13.2-2.4 4.481-.041 8.926.774 13.1 2.4zm-26.801 17c-3.3 3.3-5 8-5 13.7s1.7 10.4 5 13.7c3.301 3.3 8 5 13.7 5s10.401-1.7 13.7-5c3.3-3.3 5.1-8 5.1-13.7s-1.8-10.4-5.1-13.7c-3.299-3.3-8-5.1-13.7-5.1s-10.399 1.8-13.8 5.2zm91.301-5c-5.601 0-10.401 1.8-13.7 5.1-3.3 3.3-5 8-5 13.7v33.1h-14.401v-66.3h14.3v5.2c1.759-1.136 3.637-2.075 5.601-2.8 4.173-1.626 8.62-2.441 13.099-2.4h7.3v14.3h-7.2zm89.699 51.8-15-41.2-15 41.2h-12l-30.199-66.2h15.8l19.5 43 15.599-43h12.401l15.599 43 19.5-43h15.8l-30.1 66.2h-12zm95 0v-5.2c-1.775 1.105-3.65 2.042-5.6 2.8-8.52 3.137-17.879 3.137-26.4 0-8.044-3.098-14.401-9.456-17.5-17.5-1.601-4.216-2.414-8.69-2.4-13.2-.013-4.477.8-8.919 2.4-13.101 1.52-4.013 3.871-7.66 6.9-10.699 2.99-3.044 6.607-5.399 10.6-6.9 8.506-3.218 17.895-3.218 26.4 0 1.96.734 3.837 1.673 5.6 2.8v-5.2h14.3v66.2zm-32.5-46.8c-3.3 3.3-5 8-5 13.7s1.801 10.4 5 13.7c3.2 3.3 8 5 13.7 5s10.401-1.7 13.7-5c3.3-3.3 5-8 5-13.7s-1.799-10.4-5-13.7c-3.2-3.3-8-5.1-13.7-5.1s-10.3 1.8-13.599 5.2zm97.2-5c-5.599 0-10.399 1.8-13.7 5.1-3.3 3.3-5 8-5 13.7v33.1h-14.399v-66.3h14.299v5.2c1.758-1.136 3.636-2.075 5.6-2.8 4.174-1.626 8.62-2.441 13.1-2.4h7.2v14.3h-7.2zm79.101 51.8h-14.301v-5.2c-1.77 1.116-3.646 2.054-5.6 2.8-4.215 1.6-8.689 2.413-13.199 2.4-4.477.012-8.919-.801-13.1-2.4-4.004-1.538-7.648-3.887-10.701-6.9-3.039-3.032-5.392-6.681-6.9-10.7-1.627-4.209-2.442-8.688-2.4-13.2-.041-4.48.774-8.926 2.4-13.1 3.053-8.131 9.469-14.547 17.6-17.6 4.173-1.626 8.62-2.441 13.099-2.4 4.511-.041 8.99.773 13.199 2.4 1.966.722 3.844 1.661 5.601 2.8v-28.6h14.3zm-46.801-46.8c-3.3 3.3-5.1 8-5.1 13.7s1.8 10.4 5.1 13.7c3.301 3.3 8 5 13.7 5s10.401-1.7 13.7-5c3.3-3.3 5-8 5-13.7s-1.7-10.4-5-13.7c-3.299-3.3-8-5.1-13.7-5.1s-10.399 1.8-13.599 5.2zm-399.3 270v15.7h-67.2v-87.9h15.7v72.2zm56.901-54.1c8.858 3.348 15.851 10.341 19.2 19.2 1.779 4.59 2.661 9.478 2.599 14.4.047 4.921-.835 9.806-2.599 14.4-1.636 4.391-4.194 8.38-7.5 11.7-3.341 3.279-7.324 5.832-11.699 7.5-4.6 1.749-9.482 2.631-14.402 2.6-4.918.017-9.799-.864-14.4-2.6-8.866-3.337-15.863-10.334-19.2-19.2-1.736-4.602-2.618-9.482-2.6-14.4-.031-4.92.851-9.802 2.6-14.4 1.668-4.375 4.22-8.358 7.5-11.7 3.318-3.307 7.308-5.864 11.699-7.5 4.595-1.765 9.48-2.647 14.401-2.6 4.922-.062 9.81.821 14.401 2.6zm-29.401 18.6c-3.599 3.6-5.5 8.8-5.5 14.9s1.901 11.4 5.5 15c3.601 3.6 8.8 5.5 15 5.5s11.401-1.9 14.901-5.5 5.599-8.8 5.599-15-1.899-11.4-5.599-14.9c-3.701-3.5-8.8-5.6-14.901-5.6-6.099 0-11.3 2-15 5.6zm110.601-18.6c8.858 3.349 15.85 10.342 19.199 19.2 1.779 4.59 2.661 9.478 2.6 14.4.046 4.921-.835 9.806-2.6 14.4-1.636 4.391-4.193 8.38-7.5 11.7-3.341 3.279-7.324 5.832-11.699 7.5-4.6 1.749-9.482 2.631-14.402 2.6-4.918.017-9.798-.864-14.4-2.6-8.866-3.337-15.863-10.334-19.2-19.2-1.736-4.602-2.617-9.482-2.6-14.4-.031-4.92.851-9.802 2.6-14.4 1.668-4.375 4.221-8.358 7.5-11.7 3.318-3.307 7.308-5.864 11.699-7.5 4.595-1.765 9.481-2.647 14.401-2.6 4.922-.062 9.81.821 14.401 2.6zm-29.401 18.6c-3.599 3.6-5.5 8.8-5.5 14.9s1.901 11.4 5.5 15c3.6 3.6 8.8 5.5 15 5.5 6.201 0 11.401-1.9 14.901-5.5s5.599-8.8 5.599-15-1.9-11.4-5.599-14.9c-3.7-3.5-8.801-5.6-14.901-5.6-6.099 0-11.299 2-15 5.6zm109.701-21.2h22.2l-29.601 29.6 29.601 42.8h-19.101l-21.8-31.5-11.5 11.4v20.1h-15.7v-98.2h15.7v55.9zm51.599-21.1c.02 2.8-1.462 5.395-3.884 6.801-2.421 1.406-5.41 1.406-7.832 0-2.421-1.406-3.903-4.001-3.883-6.801.03-4.286 3.513-7.745 7.799-7.745 4.287 0 7.77 3.459 7.8 7.745zm-15.7 93.5v-72.4h15.7v72.4h-15.599zm85.2-69.8c8.859 3.348 15.852 10.341 19.2 19.2 1.78 4.59 2.662 9.478 2.6 14.4v36.2h-15.7v-36.2c0-6.2-1.9-11.4-5.6-14.9s-8.8-5.6-14.9-5.6-11.4 1.9-15 5.6-5.5 8.8-5.5 14.9v36.2h-15.7v-72.4h15.7v5.7c1.912-1.257 3.958-2.296 6.1-3.1 4.594-1.765 9.48-2.647 14.401-2.6 4.922-.062 9.809.821 14.4 2.6zm105.5 67.1c.07 5.273-1.022 10.497-3.2 15.3-2.084 4.553-5.241 8.533-9.199 11.6l-6.201 4.8-9.5-12.4 6.2-4.8c1.951-1.537 3.496-3.528 4.5-5.8 1.216-2.738 1.83-5.705 1.8-8.7v-3c-1.926 1.232-3.97 2.27-6.1 3.1-9.327 3.436-19.573 3.436-28.9 0-8.858-3.349-15.851-10.342-19.2-19.2-1.736-4.602-2.618-9.482-2.6-14.4-.031-4.92.85-9.803 2.599-14.401 3.358-8.874 10.343-15.895 19.201-19.299 9.327-3.436 19.573-3.436 28.9 0 2.13.83 4.173 1.869 6.1 3.1v-5.7h15.7v69.7zm-51.2-48.5c-3.6 3.6-5.5 8.9-5.5 15s1.9 11.4 5.5 15c3.601 3.6 8.801 5.5 15 5.5 6.2 0 11.4-1.9 15-5.5 3.601-3.6 5.5-8.8 5.5-15s-1.899-11.4-5.5-15c-3.6-3.6-8.8-5.5-15-5.5-6.199 0-11.3 1.9-15 5.5z"/><path d="m12077.2 211.4c4.306-.013 8.576.767 12.6 2.3 3.822 1.466 7.297 3.714 10.2 6.6 2.9 2.892 5.15 6.369 6.6 10.2 1.534 4.023 2.313 8.294 2.3 12.6.027 4.307-.754 8.58-2.299 12.6-1.459 3.826-3.708 7.302-6.601 10.2-1.949 1.946-4.173 3.597-6.6 4.9l15.401 31.8h-14.401l-13.599-28.1h-36.101v27.9h-13v-91h45.601zm-32.5 50.2h32.5c5.6 0 10.3-1.7 13.6-5 3.301-3.3 5-7.9 5-13.5s-1.8-10.3-5-13.6c-3.199-3.3-8-5-13.6-5h-32.5v37.2zm135.2 41v-8c-2.773 2.233-5.877 4.021-9.2 5.3-9.616 3.552-20.182 3.552-29.799 0-4.455-1.721-8.506-4.342-11.901-7.7-3.357-3.433-5.978-7.517-7.699-12-3.46-9.598-3.46-20.102-.001-29.7 3.484-9.058 10.642-16.216 19.7-19.7 9.617-3.552 20.184-3.552 29.8 0 3.324 1.278 6.429 3.066 9.201 5.3l-.001-8h13v74.4h-13zm-41.799-54.8c-4.301 4.3-6.5 10.4-6.5 17.6s2.199 13.3 6.5 17.6c4.299 4.3 10.399 6.6 17.599 6.6s13.3-2.3 17.6-6.6c4.301-4.3 6.5-10.4 6.5-17.6s-2.199-13.3-6.5-17.6c-4.3-4.3-10.4-6.6-17.6-6.6s-13.2 2.3-17.5 6.6zm91.299 41.7h49.3v13h-68.8v-12l49.4-49.4h-49.4v-13h68.8v12zm109.201-58.7c9.057 3.484 16.215 10.642 19.699 19.7 3.545 9.583 3.545 20.117 0 29.7-3.43 9.093-10.607 16.271-19.7 19.7-9.583 3.545-20.117 3.545-29.7 0-9.13-3.372-16.329-10.57-19.701-19.7-3.545-9.583-3.545-20.117 0-29.7 3.428-9.094 10.606-16.271 19.699-19.7 9.585-3.545 20.119-3.545 29.702 0zm-32.5 16.9c-4.301 4.3-6.601 10.4-6.601 17.6s2.3 13.3 6.601 17.6c4.299 4.3 10.399 6.6 17.599 6.6s13.3-2.3 17.6-6.6c4.301-4.3 6.6-10.4 6.6-17.6s-2.299-13.3-6.6-17.6c-4.3-4.3-10.4-6.6-17.6-6.6s-13.3 2.4-17.599 6.7zm10.599-24.5-9.2-9.2 23.2-23.2 9.2 9.2zm109.3 7.6c9.058 3.484 16.216 10.642 19.7 19.7 1.811 4.758 2.727 9.809 2.7 14.9v37.2h-13v-37.2c0-7.2-2.299-13.3-6.599-17.6-4.301-4.3-10.401-6.6-17.601-6.6s-13.3 2.3-17.599 6.6c-4.3 4.3-6.601 10.4-6.601 17.6v37.2h-13v-74.4h13v8c2.798-2.251 5.938-4.04 9.301-5.3 9.569-3.577 20.104-3.613 29.699-.1zm-361.3 120c2.299-.016 4.575.426 6.7 1.3 1.958.781 3.681 2.055 5 3.7 1.365 1.643 2.293 3.603 2.7 5.7.448 2.278.448 4.622.001 6.9-.407 2.419-1.218 4.751-2.401 6.9-1.213 2.166-2.805 4.097-4.701 5.7-3.761 3.208-8.556 4.948-13.499 4.9h-14l-2.4 13.7h-10.4l8.6-48.8zm-18.3 24.7h13.9c1.988.07 3.937-.568 5.5-1.8 1.505-1.359 2.494-3.196 2.8-5.2.614-1.784.254-3.759-.953-5.21-1.206-1.451-3.082-2.168-4.948-1.89h-13.8zm52.1-14.3-1.5 8.7h27.4l-1.799 10.5h-27.5l-1.5 8.7h27.399l-1.8 10.5h-37.9l8.6-48.8h37.9l-1.8 10.5h-27.5zm77.601 16.7c-.513 3.014-1.528 5.921-3 8.6-1.519 2.648-3.481 5.015-5.8 7-4.658 3.963-10.582 6.127-16.699 6.1-2.838.045-5.658-.465-8.3-1.5-2.401-.976-4.529-2.52-6.2-4.5-1.647-2.035-2.779-4.436-3.301-7-.545-2.841-.545-5.759 0-8.6l4.8-27.2h10.4l-4.8 27.2c-.6 3.4 0 6.2 1.6 8.2 1.599 2 4.3 3 7.7 3 3.196.082 6.317-.982 8.799-3 2.38-2.136 3.936-5.037 4.401-8.2l4.8-27.2h10.5zm36.199-16.7-6.8 38.4h-10.5l6.8-38.4h-14.4l1.8-10.5h39.2l-1.799 10.5zm13.4 23.3 1.8-10.5h24.2l-1.8 10.5zm49.2-23.3-1.5 8.7h27.4l-1.8 10.5h-27.5l-1.5 8.7h27.4l-1.799 10.5h-37.901l8.6-48.8h37.9l-1.8 10.5h-27.5zm18-13.1-5.799-8-8.601 8-4.399-4.7 12.099-11.2h4.6l8.1 11.2zm42.6 13.1-6.8 38.4h-10.4l6.801-38.4h-14.5l1.799-10.5h39.201l-1.801 10.5zm49-10.4c2.297-.021 4.576.421 6.699 1.3 1.998.761 3.758 2.038 5.101 3.7 1.351 1.652 2.278 3.608 2.7 5.7.45 2.278.45 4.622 0 6.9-.404 2.419-1.216 4.752-2.4 6.9-1.225 2.158-2.815 4.087-4.701 5.7-1.066.861-2.204 1.63-3.4 2.3l5.1 16.3h-11.8l-4.2-13.7h-13.2l-2.4 13.7h-10.5l8.6-48.8zm-18.3 24.7h13.901c1.988.07 3.937-.568 5.5-1.8 1.504-1.359 2.493-3.196 2.799-5.2.615-1.784.254-3.759-.952-5.21s-3.082-2.168-4.948-1.89h-13.8zm52.901-14.3-1.5 8.7h27.399l-1.8 10.5h-27.5l-1.5 8.7h27.401l-1.801 10.5h-37.9l8.6-48.8h37.9l-1.799 10.5h-27.5zm-349 96c-2.871-.066-5.67.891-7.901 2.7-2.175 1.951-3.592 4.607-4 7.5-.599 3.1-.099 5.7 1.401 7.4s3.799 2.7 6.899 2.7h20.601c3.384-.045 6.747.566 9.899 1.8 2.876 1.159 5.419 3.014 7.4 5.4 1.956 2.446 3.294 5.327 3.901 8.4.694 3.361.727 6.826.099 10.2-.66 3.55-1.91 6.964-3.699 10.1-3.575 6.39-9.323 11.286-16.2 13.8-3.372 1.192-6.923 1.8-10.5 1.8h-46.3l2.8-15.6h46.3c2.903.081 5.74-.877 8-2.7 2.135-1.941 3.546-4.551 4-7.4.5-3.2.099-5.8-1.401-7.5s-3.899-2.7-7.099-2.7h-20.6c-3.352.035-6.68-.576-9.801-1.8-5.864-2.41-10.14-7.586-11.4-13.8-.624-3.338-.624-6.762 0-10.1 1.227-7.234 4.94-13.812 10.5-18.6 2.788-2.343 5.972-4.172 9.4-5.4 3.339-1.188 6.857-1.797 10.401-1.8h42.5l-2.8 15.6zm101.599 71.9 1-5.7c-2.099 1.235-4.308 2.272-6.599 3.1-4.74 1.739-9.751 2.619-14.8 2.6-4.762.088-9.492-.797-13.901-2.6-8.203-3.223-14.171-10.438-15.799-19.1-.973-4.714-1.007-9.573-.1-14.3l6.4-36.1h15.6l-6.4 36c-1.1 6.1-.1 11.3 2.9 14.9s7.8 5.6 13.9 5.6c5.804.117 11.453-1.872 15.901-5.6 4.423-3.828 7.332-9.113 8.198-14.9l6.401-36.1h15.6l-12.7 72.2zm-8.2-83.1c-.661 3.588-3.751 6.218-7.398 6.3-1.59.045-3.109-.654-4.109-1.889-1-1.236-1.367-2.866-.992-4.411.687-3.533 3.703-6.136 7.299-6.3 1.606-.076 3.154.609 4.178 1.848 1.023 1.24 1.402 2.89 1.023 4.452zm17.2 0c-.662 3.588-3.753 6.219-7.4 6.3-1.589.044-3.107-.655-4.107-1.89s-1.367-2.866-.993-4.41c.688-3.533 3.703-6.136 7.299-6.3 1.606-.076 3.154.609 4.178 1.848 1.023 1.24 1.402 2.89 1.023 4.452zm75.7 83.1.9-5.6c-2.106 1.224-4.314 2.261-6.6 3.1-4.748 1.709-9.754 2.588-14.8 2.6-4.759.058-9.483-.825-13.9-2.6-3.989-1.632-7.523-4.205-10.301-7.5-2.748-3.35-4.606-7.34-5.399-11.6-.976-4.747-1.01-9.64-.1-14.4.885-5.034 2.646-9.874 5.201-14.3 4.92-8.897 12.921-15.689 22.499-19.1 4.738-1.752 9.751-2.633 14.801-2.6 4.76-.074 9.487.81 13.9 2.6 1.951.809 3.797 1.85 5.5 3.1l5.5-31.3h15.599l-17.199 97.6zm-26.4-51c-4.396 3.85-7.299 9.125-8.199 14.9-1.101 6.2-.101 11.3 2.899 14.9s7.8 5.5 13.9 5.5c5.792.154 11.442-1.8 15.9-5.5 4.374-3.855 7.243-9.133 8.1-14.9 1.099-6.1.099-11.3-2.901-14.9s-7.8-5.6-13.899-5.6c-5.769-.093-11.378 1.895-15.8 5.6zm117.2-18.6c4.026 1.564 7.575 4.149 10.3 7.5 2.771 3.348 4.661 7.336 5.5 11.6.951 4.753.951 9.647 0 14.4l-1.4 7.8h-55.3c.398 2.596 1.467 5.043 3.1 7.1 3 3.6 7.8 5.5 14 5.5 4.729.075 9.38-1.209 13.401-3.7l6.8 12.8c-6.851 4.334-14.795 6.623-22.901 6.6-4.757.043-9.478-.84-13.899-2.6-8.203-3.223-14.172-10.438-15.8-19.1-.943-4.751-.977-9.637-.1-14.4.878-5.021 2.602-9.857 5.1-14.3 2.461-4.394 5.677-8.321 9.5-11.6 3.846-3.264 8.25-5.805 13-7.5 4.739-1.739 9.751-2.619 14.8-2.6 4.755-.12 9.485.731 13.9 2.5zm-32.599 18.6c-2.304 1.987-4.205 4.397-5.601 7.1h38.5c-.334-2.614-1.409-5.078-3.1-7.1-2.9-3.6-7.799-5.6-13.9-5.6-5.801-.108-11.446 1.88-15.899 5.6zm117.199-18.6c4.03 1.556 7.582 4.142 10.301 7.5 2.76 3.343 4.619 7.336 5.4 11.6.973 4.714 1.007 9.573.1 14.3l-6.401 36.1h-15.5l6.401-36.1c1.099-6.1.099-11.3-2.901-14.9s-7.8-5.6-13.899-5.6c-5.802-.108-11.447 1.88-15.901 5.6-4.387 3.844-7.259 9.127-8.099 14.9l-6.401 36.1h-15.699l12.8-72.2h15.6l-1 5.7c2.09-1.249 4.301-2.288 6.599-3.1 4.775-1.742 9.82-2.623 14.902-2.6 4.701-.038 9.362.881 13.699 2.7z"/><path d="m13345.7 264.8-4.8 27.6h-6l4.8-27.6h-10.4l1.1-6h26.701l-1.101 6zm21.7 2.1c.793-.479 1.63-.881 2.5-1.2 1.826-.671 3.756-1.009 5.701-1 1.816-.029 3.619.311 5.299 1 1.528.616 2.871 1.615 3.901 2.9 1.066 1.3 1.789 2.847 2.099 4.5.362 1.816.362 3.684 0 5.5l-2.4 13.8h-6l2.4-13.8c.503-1.969.1-4.06-1.099-5.7-1.359-1.466-3.307-2.238-5.301-2.1-2.219-.05-4.382.695-6.1 2.1-1.67 1.477-2.767 3.495-3.099 5.7l-2.401 13.8h-6l6.601-37.5h6zm45.6-1.2c1.527.616 2.87 1.615 3.9 2.9 1.067 1.3 1.789 2.847 2.1 4.5.361 1.816.361 3.684 0 5.5l-.5 3h-21.2c.16.989.574 1.919 1.2 2.7 1.389 1.482 3.375 2.255 5.4 2.1 1.798.026 3.567-.46 5.1-1.4l2.6 4.9c-2.637 1.651-5.689 2.518-8.8 2.5-1.849.024-3.684-.316-5.401-1-3.119-1.244-5.382-3.999-6-7.3-.345-1.817-.345-3.683 0-5.5.35-1.934 1.026-3.794 2-5.5.927-1.7 2.146-3.223 3.6-4.5 1.477-1.262 3.171-2.245 5-2.9 1.826-.671 3.757-1.009 5.701-1 1.817-.029 3.619.311 5.3 1zm-12.5 7.1c-.864.759-1.577 1.675-2.1 2.7h14.8c-.137-.996-.554-1.932-1.201-2.7-1.357-1.466-3.307-2.238-5.3-2.1-2.265-.046-4.47.736-6.2 2.2zm77.7-7.1c1.438.581 2.708 1.509 3.7 2.7.997 1.217 1.684 2.659 2 4.2.325 1.685.325 3.415 0 5.1l-2.599 14.8h-6l2.599-14.8c.701-4.2-1.4-6.9-5.599-6.9-4.076-.136-7.587 2.854-8.101 6.9l-2.599 14.8h-6l2.599-14.8c.7-4.2-1.4-6.9-5.599-6.9-4.076-.136-7.586 2.854-8.1 6.9l-2.601 14.8h-6l4.9-27.7h6l-.3 1.8 1.9-.8c1.7-.617 3.495-.921 5.301-.9 1.677-.035 3.344.272 4.9.9 1.446.566 2.72 1.496 3.701 2.7l.499.6.7-.6c1.332-1.206 2.897-2.125 4.6-2.7 1.697-.614 3.492-.919 5.298-.9 1.638-.05 3.269.222 4.801.8zm29.1 26.7.4-2.2-2.5 1.2c-1.828.659-3.757.997-5.7 1-1.849.024-3.684-.316-5.4-1-3.097-1.275-5.349-4.015-6-7.3-.346-1.817-.346-3.683 0-5.5.349-1.934 1.025-3.794 2-5.5.949-1.713 2.203-3.237 3.7-4.5 1.472-1.268 3.168-2.251 5-2.9 1.826-.671 3.757-1.009 5.701-1 1.849-.037 3.686.303 5.399 1 .744.319 1.448.722 2.1 1.2l.4-2.2h6l-4.9 27.7h-6zm-10.199-19.6c-1.657 1.488-2.751 3.5-3.1 5.7-.478 1.97-.076 4.049 1.099 5.7 1.388 1.482 3.375 2.255 5.4 2.1 2.22.059 4.387-.687 6.1-2.1 1.663-1.483 2.758-3.498 3.099-5.7.503-1.969.1-4.06-1.099-5.7-1.38-1.495-3.373-2.27-5.401-2.1-2.197.002-4.322.781-6 2.2zm47.5-7.1c1.566.597 2.946 1.597 4 2.9 1.078 1.293 1.801 2.843 2.099 4.5.362 1.816.362 3.684 0 5.5l-2.4 13.8h-6l2.4-13.8c.503-1.969.1-4.06-1.099-5.7-1.359-1.466-3.307-2.238-5.301-2.1-2.219-.05-4.382.695-6.1 2.1-1.677 1.472-2.775 3.492-3.099 5.7l-2.401 13.8h-6l4.901-27.7h6l-.401 2.2c.792-.481 1.63-.883 2.5-1.2 1.827-.666 3.757-1.005 5.701-1 1.783-.018 3.55.322 5.2 1zm29.599 26.7.401-2.2c-.795.475-1.633.877-2.5 1.2-1.826.671-3.756 1.009-5.701 1-1.817.029-3.62-.311-5.3-1-3.119-1.244-5.382-3.999-5.999-7.3-.362-1.816-.362-3.684 0-5.5l2.4-13.8h6l-2.5 13.8c-.504 1.969-.101 4.06 1.1 5.7 1.379 1.495 3.373 2.27 5.4 2.1 2.22.059 4.387-.687 6.1-2.1 1.676-1.472 2.775-3.492 3.099-5.7l2.401-13.8h6l-4.901 27.7h-6zm24.1-21.7c-.683-.022-1.354.189-1.9.6-.505.473-.825 1.112-.9 1.8-.165.615-.056 1.272.3 1.8.448.445 1.073.666 1.701.6h9.899c1.095-.005 2.181.198 3.2.6 1.926.761 3.325 2.462 3.699 4.5.219 1.089.219 2.211.001 3.3-.198 1.163-.605 2.281-1.2 3.3-.599 1.059-1.377 2.007-2.3 2.8-.921.775-1.97 1.384-3.1 1.8-1.089.4-2.24.603-3.4.6h-18.3l1.101-6h18.299c.691.055 1.374-.167 1.9-.617.525-.451.849-1.093.9-1.783.225-.605.109-1.284-.304-1.78-.414-.496-1.06-.732-1.696-.62h-9.9c-1.096.011-2.183-.193-3.199-.6-.943-.383-1.77-1.003-2.401-1.8-.647-.78-1.094-1.707-1.3-2.7-.226-1.088-.226-2.212 0-3.3.202-1.162.608-2.28 1.2-3.3.605-1.055 1.382-2.002 2.299-2.8.919-.78 1.968-1.39 3.101-1.8 1.091-.392 2.241-.595 3.4-.6h16.8l-1.099 6zm44.4-3.4-4.3 4.9c-1.362-.987-3.019-1.481-4.7-1.4-2.219-.05-4.382.695-6.099 2.1-1.67 1.477-2.768 3.495-3.1 5.7-.489 1.969-.087 4.054 1.1 5.7 1.388 1.482 3.375 2.255 5.4 2.1 1.798.026 3.566-.46 5.1-1.4l2.599 4.9c-2.636 1.651-5.687 2.518-8.799 2.5-1.849.024-3.684-.316-5.401-1-3.119-1.244-5.383-3.999-6-7.3-.346-1.817-.346-3.683 0-5.5.35-1.934 1.025-3.793 2-5.5.927-1.699 2.146-3.223 3.6-4.5 1.476-1.262 3.171-2.245 5-2.9 1.825-.671 3.755-1.009 5.7-1 2.855-.077 5.648.842 7.9 2.6zm18.1 3.4c-2.219-.05-4.382.695-6.1 2.1-1.67 1.477-2.767 3.495-3.099 5.7l-2.401 13.8h-6l4.901-27.7h6l-.401 2.2c.793-.479 1.63-.881 2.5-1.2 1.824-.673 3.756-1.011 5.7-1h3l-1.099 6h-3zm4.4 21.7 4.901-27.7h6l-4.901 27.7zm12.3-35.7c-.325 1.693-1.776 2.938-3.5 3-.76.016-1.485-.314-1.972-.898-.486-.584-.681-1.358-.528-2.102.325-1.693 1.776-2.938 3.5-3 .759-.014 1.483.317 1.97.9.486.583.681 1.356.53 2.1zm25 9c1.525.62 2.867 1.618 3.9 2.9 1.067 1.3 1.789 2.847 2.1 4.5.361 1.816.361 3.684 0 5.5-.346 1.935-1.022 3.795-2 5.5-.948 1.713-2.202 3.238-3.699 4.5-1.475 1.266-3.17 2.249-5.001 2.9-1.828.661-3.757.999-5.7 1-1.816.013-3.616-.326-5.301-1-.741-.32-1.446-.723-2.099-1.2l-2.099 12h-6l6.599-37.6h6l-.4 2.2c.796-.474 1.632-.876 2.5-1.2 1.829-.66 3.758-.999 5.701-1 1.881-.04 3.751.3 5.499 1zm-12.5 7.2c-1.677 1.472-2.775 3.492-3.1 5.7-.489 1.969-.087 4.054 1.1 5.7 1.38 1.495 3.373 2.27 5.4 2.1 2.219.05 4.382-.695 6.1-2.1 1.663-1.483 2.759-3.498 3.1-5.7.489-1.969.087-4.054-1.1-5.7-1.389-1.482-3.375-2.255-5.4-2.1-2.219-.05-4.382.695-6.1 2.1zm39.2-8.2-1.099 6h-7.901l-1.9 10.8c-.223 1.093-.189 2.223.1 3.3.217.841.668 1.604 1.3 2.2l2.1 1.8-4.5 4.8-2.1-1.8c-1.302-1.179-2.239-2.706-2.7-4.4-.51-1.893-.578-3.877-.2-5.8l4-22.7h6l-1 5.9h7.9zm14.3 27.7 4.9-27.7h6l-4.9 27.7zm12.3-35.7c-.325 1.693-1.777 2.938-3.5 3-.76.016-1.486-.314-1.972-.898s-.682-1.358-.528-2.102c.325-1.693 1.776-2.938 3.5-3 .759-.014 1.483.317 1.97.9.486.583.681 1.356.53 2.1zm12.2 14c-.682-.022-1.353.189-1.898.6-.507.473-.827 1.112-.902 1.8-.166.615-.056 1.272.299 1.8.448.445 1.073.666 1.701.6h9.8c1.094-.005 2.181.198 3.199.6 1.929.76 3.328 2.462 3.701 4.5.218 1.089.218 2.211 0 3.3-.197 1.163-.603 2.281-1.199 3.3-.598 1.059-1.377 2.007-2.3 2.8-.922.775-1.97 1.384-3.1 1.8-1.089.4-2.24.603-3.401.6h-18.099l1.099-6h18.301c.691.055 1.374-.167 1.9-.617.525-.451.849-1.093.9-1.783.225-.605.108-1.284-.305-1.78s-1.059-.732-1.695-.62h-9.9c-1.096.011-2.183-.193-3.2-.6-.942-.383-1.769-1.003-2.4-1.8-.647-.78-1.094-1.707-1.3-2.7-.226-1.088-.226-2.212 0-3.3.201-1.162.608-2.28 1.199-3.3.606-1.055 1.383-2.002 2.3-2.8.919-.78 1.968-1.39 3.101-1.8 1.091-.392 2.241-.595 3.4-.6h16.8l-1.1 6zm52.4-6-1.1 6h-7.9l-1.9 10.8c-.222 1.093-.187 2.223.102 3.3.215.841.666 1.604 1.298 2.2l2.1 1.8-4.5 4.8-2.1-1.8c-1.3-1.179-2.238-2.706-2.699-4.4-.512-1.893-.58-3.877-.202-5.8l4.001-22.7h6l-1 5.9h7.9zm18.1 6c-2.219-.05-4.382.695-6.1 2.1-1.67 1.477-2.767 3.495-3.099 5.7l-2.401 13.8h-6l4.901-27.7h6l-.401 2.2c.793-.479 1.63-.881 2.5-1.2 1.825-.673 3.756-1.011 5.701-1h3l-1.1 6h-3zm23.3 21.7.4-2.2-2.5 1.2c-1.828.659-3.757.997-5.7 1-1.849.024-3.684-.316-5.4-1-3.097-1.275-5.349-4.015-6-7.3-.346-1.817-.346-3.683 0-5.5.349-1.934 1.025-3.794 2-5.5.949-1.713 2.203-3.237 3.7-4.5 1.472-1.268 3.168-2.251 5-2.9 1.826-.671 3.757-1.009 5.701-1 1.849-.037 3.686.303 5.399 1 .744.319 1.448.722 2.1 1.2l.4-2.2h6l-4.9 27.7h-6zm-10.199-19.6c-1.657 1.488-2.751 3.5-3.1 5.7-.478 1.97-.076 4.049 1.099 5.7 1.388 1.482 3.375 2.255 5.4 2.1 2.22.059 4.387-.687 6.1-2.1 1.663-1.483 2.758-3.498 3.099-5.7.503-1.969.1-4.06-1.099-5.7-1.38-1.495-3.373-2.27-5.401-2.1-2.231-.022-4.396.759-6.099 2.2zm47.399-7.1c1.566.597 2.946 1.597 4 2.9 1.078 1.293 1.802 2.843 2.1 4.5.361 1.816.361 3.684 0 5.5l-2.401 13.8h-6l2.401-13.8c.503-1.969.099-4.06-1.1-5.7-1.358-1.466-3.307-2.238-5.301-2.1-2.219-.05-4.382.695-6.099 2.1-1.677 1.472-2.776 3.492-3.1 5.7l-2.5 13.8h-6l4.9-27.7h6l-.4 2.2c.792-.481 1.629-.883 2.5-1.2 1.826-.666 3.756-1.005 5.7-1 1.817-.032 3.62.308 5.3 1zm21.7 5c-.683-.022-1.353.189-1.9.6-.506.473-.825 1.112-.901 1.8-.166.615-.056 1.272.3 1.8.447.445 1.072.666 1.699.6h9.902c1.095-.005 2.18.198 3.199.6 1.928.761 3.326 2.462 3.7 4.5.218 1.089.218 2.211 0 3.3-.197 1.163-.603 2.281-1.199 3.3-.599 1.059-1.377 2.007-2.3 2.8-.923.775-1.971 1.384-3.1 1.8-1.089.4-2.241.603-3.401.6h-18.3l1.101-6h18.3c.689.055 1.373-.167 1.898-.617.526-.451.85-1.093.901-1.783.225-.605.109-1.284-.304-1.78s-1.06-.732-1.695-.62h-9.901c-1.095.011-2.182-.193-3.199-.6-.942-.383-1.77-1.003-2.4-1.8-.649-.78-1.095-1.707-1.301-2.7-.226-1.088-.226-2.212.001-3.3.202-1.162.608-2.28 1.2-3.3.605-1.055 1.383-2.002 2.3-2.8.918-.78 1.967-1.39 3.099-1.8 1.091-.392 2.242-.595 3.401-.6h16.8l-1.1 6zm44.5-3.4-4.3 4.9c-1.362-.987-3.019-1.481-4.7-1.4-2.219-.05-4.382.695-6.099 2.1-1.67 1.477-2.768 3.495-3.1 5.7-.489 1.969-.087 4.054 1.1 5.7 1.388 1.482 3.375 2.255 5.4 2.1 1.798.026 3.566-.46 5.1-1.4l2.599 4.9c-2.636 1.651-5.687 2.518-8.799 2.5-1.849.024-3.684-.316-5.401-1-3.119-1.244-5.383-3.999-6-7.3-.346-1.817-.346-3.683 0-5.5.35-1.934 1.025-3.793 2-5.5.927-1.699 2.146-3.223 3.6-4.5 1.476-1.262 3.171-2.245 5-2.9 1.825-.671 3.755-1.009 5.7-1 2.855-.077 5.648.842 7.9 2.6zm18 3.4c-2.219-.05-4.382.695-6.099 2.1-1.67 1.477-2.768 3.495-3.1 5.7l-2.4 13.8h-6l4.9-27.7h6l-.4 2.2c.793-.479 1.629-.881 2.5-1.2 1.825-.673 3.756-1.011 5.701-1h2.999l-1.1 6h-3zm4.401 21.7 4.899-27.7h6l-4.899 27.7zm12.299-35.7c-.325 1.693-1.776 2.938-3.5 3-.759.016-1.485-.314-1.971-.898-.487-.584-.682-1.358-.529-2.102.326-1.693 1.777-2.938 3.5-3 .777-.047 1.53.271 2.039.859.51.588.717 1.379.561 2.141zm11.5 10.2c.793-.479 1.63-.881 2.5-1.2 1.826-.671 3.756-1.009 5.701-1 1.816-.029 3.619.311 5.299 1 1.528.616 2.871 1.615 3.901 2.9 1.066 1.3 1.789 2.847 2.099 4.5.362 1.816.362 3.684 0 5.5-.343 1.935-1.02 3.796-2 5.5-1.899 3.385-4.951 5.976-8.599 7.3-1.826.665-3.755 1.003-5.699 1-1.85.024-3.685-.316-5.402-1-.742-.32-1.447-.723-2.099-1.2l-.401 2.2h-6l6.601-37.5h6zm1.1 6c-1.671 1.477-2.768 3.495-3.1 5.7-.489 1.969-.087 4.054 1.1 5.7 1.389 1.482 3.375 2.255 5.4 2.1 2.222.068 4.391-.679 6.1-2.1 1.67-1.477 2.768-3.495 3.1-5.7.504-1.969.099-4.06-1.1-5.7-1.358-1.466-3.307-2.238-5.301-2.1-2.288-.099-4.53.649-6.301 2.1zm43.5-7.2c1.527.616 2.87 1.615 3.9 2.9 1.067 1.3 1.789 2.847 2.1 4.5.361 1.816.361 3.684 0 5.5l-.5 3h-21.2c.16.989.574 1.919 1.2 2.7 1.389 1.482 3.375 2.255 5.4 2.1 1.798.026 3.567-.46 5.1-1.4l2.6 4.9c-2.637 1.651-5.689 2.518-8.8 2.5-1.849.024-3.684-.316-5.401-1-3.119-1.244-5.382-3.999-6-7.3-.345-1.817-.345-3.683 0-5.5.35-1.934 1.026-3.794 2-5.5.927-1.7 2.146-3.223 3.6-4.5 1.477-1.262 3.171-2.245 5-2.9 1.826-.671 3.757-1.009 5.701-1 1.817-.029 3.619.311 5.3 1zm-12.5 7.1c-.862.761-1.574 1.677-2.1 2.7h14.8c-.137-.996-.554-1.932-1.201-2.7-1.357-1.466-3.307-2.238-5.3-2.1-2.265-.046-4.47.736-6.2 2.2zm41.2 19.6.401-2.2-2.5 1.2c-1.829.659-3.757.997-5.701 1-1.815.016-3.615-.324-5.299-1-1.549-.628-2.922-1.623-4-2.9-1.072-1.297-1.794-2.846-2.1-4.5-.359-1.816-.359-3.684 0-5.5.338-1.937 1.015-3.799 2-5.5 1.885-3.397 4.941-5.991 8.6-7.3 1.825-.675 3.755-1.014 5.701-1 1.848-.037 3.685.303 5.399 1 .745.315 1.451.717 2.1 1.2l2.1-12h6l-6.6 37.5h-6zm-10.099-19.6c-1.663 1.482-2.759 3.498-3.1 5.7-.49 1.969-.089 4.054 1.099 5.7 1.379 1.495 3.373 2.27 5.4 2.1 2.22.059 4.387-.687 6.1-2.1 1.67-1.478 2.766-3.495 3.099-5.7.503-1.969.1-4.06-1.099-5.7-1.38-1.495-3.373-2.27-5.401-2.1-2.266-.056-4.474.728-6.199 2.2zm-726.101 50.5c1.527.616 2.87 1.615 3.9 2.9 1.067 1.3 1.789 2.847 2.1 4.5.361 1.816.361 3.684 0 5.5-.346 1.935-1.022 3.795-2 5.5-1.899 3.385-4.951 5.976-8.6 7.3-1.826.665-3.754 1.003-5.699 1-1.849.024-3.684-.316-5.401-1-3.119-1.244-5.383-3.999-6-7.3-.346-1.817-.346-3.683 0-5.5.349-1.934 1.025-3.794 2-5.5.927-1.7 2.144-3.223 3.599-4.5 1.477-1.262 3.171-2.245 5-2.9 1.826-.671 3.756-1.009 5.701-1 1.849-.043 3.688.298 5.4 1zm-12.5 7.2c-1.67 1.477-2.768 3.495-3.1 5.7-.489 1.969-.087 4.054 1.1 5.7 1.389 1.482 3.375 2.255 5.4 2.1 2.222.068 4.391-.679 6.1-2.1 1.67-1.477 2.768-3.495 3.1-5.7.503-1.969.099-4.06-1.1-5.7-1.358-1.466-3.307-2.238-5.301-2.1-2.252-.074-4.455.672-6.199 2.1zm45-7.2c1.565.597 2.945 1.598 4 2.9 1.078 1.293 1.802 2.843 2.1 4.5.361 1.816.361 3.684 0 5.5l-2.5 13.8h-6l2.4-13.8c.503-1.969.1-4.06-1.101-5.7-1.357-1.466-3.306-2.238-5.299-2.1-2.219-.05-4.382.695-6.1 2.1-1.677 1.472-2.775 3.492-3.1 5.7l-2.5 13.8h-6l4.901-27.7h6l-.401 2.2c.792-.481 1.63-.883 2.5-1.2 1.827-.666 3.756-1.005 5.701-1 1.849-.046 3.689.295 5.4 1zm27.5-1-1.1 6h-7.9l-1.899 10.8c-.224 1.093-.19 2.223.099 3.3.217.841.667 1.604 1.3 2.2l2.1 1.8-4.5 4.8-2.1-1.8c-1.301-1.179-2.238-2.706-2.699-4.4-.512-1.893-.58-3.877-.202-5.8l4.001-22.7h6l-1 5.9h7.9zm21.601 1c1.528.616 2.871 1.615 3.9 2.9 1.065 1.3 1.788 2.847 2.099 4.5.361 1.816.361 3.684 0 5.5-.346 1.935-1.023 3.795-2 5.5-1.9 3.385-4.952 5.976-8.6 7.3-1.826.665-3.755 1.003-5.699 1-1.85.024-3.685-.316-5.402-1-3.119-1.244-5.382-3.999-6-7.3-.345-1.817-.345-3.683 0-5.5.35-1.934 1.026-3.794 2-5.5.927-1.7 2.145-3.223 3.6-4.5 1.477-1.262 3.171-2.245 5-2.9 1.826-.671 3.757-1.009 5.701-1 1.849-.043 3.688.298 5.4 1zm-12.5 7.1c-1.67 1.477-2.768 3.495-3.1 5.7-.49 1.969-.088 4.054 1.099 5.7 1.388 1.482 3.375 2.255 5.4 2.1 2.222.068 4.391-.679 6.1-2.1 1.67-1.477 2.767-3.495 3.099-5.7.503-1.969.1-4.06-1.099-5.7-1.359-1.466-3.307-2.238-5.301-2.1-2.301-.071-4.545.713-6.301 2.2zm54.099-8.1-1.099 6h-7.901l-1.9 10.8c-.223 1.093-.189 2.223.1 3.3.217.841.668 1.604 1.3 2.2l2.1 1.8-4.5 4.8-2.1-1.8c-1.302-1.179-2.238-2.706-2.7-4.4-.51-1.893-.578-3.877-.2-5.8l4-22.7h6l-1 5.9h7.9zm10.901 2.2c.793-.479 1.629-.881 2.5-1.2 1.826-.671 3.756-1.009 5.701-1 1.816-.029 3.619.311 5.3 1 1.526.616 2.869 1.615 3.899 2.9 1.066 1.3 1.789 2.847 2.1 4.5.361 1.816.361 3.684 0 5.5l-2.3 13.8h-6l2.399-13.8c.503-1.969.101-4.06-1.099-5.7-1.358-1.466-3.307-2.238-5.3-2.1-2.219-.05-4.382.695-6.1 2.1-1.67 1.477-2.767 3.495-3.099 5.7l-2.5 13.8h-6l6.599-37.5h6zm23.399 25.5 4.9-27.7h6l-4.9 27.7zm12.3-35.7c-.325 1.693-1.777 2.938-3.5 3-.76.016-1.486-.314-1.972-.898s-.682-1.358-.528-2.102c.325-1.693 1.776-2.938 3.5-3 .76-.015 1.485.315 1.971.899.487.584.681 1.357.529 2.101zm25 9c1.565.597 2.945 1.598 4 2.9 1.078 1.292 1.802 2.843 2.099 4.5.362 1.816.362 3.684 0 5.5l-2.5 13.8h-6l2.401-13.8c.503-1.969.099-4.06-1.101-5.7-1.358-1.466-3.307-2.238-5.301-2.1-2.217-.05-4.38.695-6.098 2.1-1.677 1.472-2.776 3.492-3.1 5.7l-2.5 13.8h-6l4.901-27.7h6l-.401 2.2c.792-.481 1.63-.883 2.5-1.2 1.827-.666 3.757-1.005 5.701-1 1.849-.046 3.689.295 5.4 1zm35.1 5c-.683-.022-1.353.189-1.9.6-.506.473-.825 1.112-.9 1.8-.165.615-.056 1.272.299 1.8.449.445 1.074.666 1.702.6h9.899c1.095-.006 2.181.198 3.199.6 1.927.76 3.326 2.462 3.699 4.5.219 1.089.219 2.211.001 3.3-.198 1.163-.604 2.281-1.2 3.3-.598 1.059-1.377 2.007-2.3 2.8-.92.775-1.969 1.384-3.099 1.8-1.089.4-2.24.603-3.401.6h-18.299l1.1-6h18.3c.69.055 1.374-.167 1.899-.617.526-.451.85-1.093.901-1.783.224-.605.108-1.284-.305-1.78s-1.059-.732-1.695-.62h-9.901c-1.095.011-2.182-.193-3.199-.6-.942-.383-1.769-1.003-2.4-1.8-.648-.78-1.094-1.707-1.3-2.7-.227-1.088-.227-2.212 0-3.3.202-1.162.608-2.279 1.2-3.3.605-1.055 1.382-2.002 2.299-2.8.919-.78 1.969-1.39 3.101-1.8 1.09-.392 2.241-.595 3.4-.6h16.8l-1.1 6zm19.5 21.7 6.6-37.5h6l-6.6 37.5zm13.201 0 4.899-27.7h6l-4.899 27.7zm12.299-35.7c-.325 1.693-1.776 2.938-3.5 3-.759.016-1.485-.314-1.971-.898-.487-.584-.682-1.358-.529-2.102.326-1.693 1.777-2.938 3.5-3 .76-.015 1.486.315 1.972.899s.681 1.357.528 2.101zm26.3 34.7c-.717 4.184-3.097 7.9-6.599 10.3l-2.701 1.8-2.799-4.8 2.7-1.8c.839-.586 1.553-1.334 2.099-2.2.61-1.012 1.017-2.133 1.2-3.3l.201-1.1-2.5 1.2c-1.828.659-3.757.997-5.7 1-1.849.024-3.684-.316-5.401-1-3.119-1.244-5.383-3.999-6-7.3-.346-1.817-.346-3.683 0-5.5.35-1.934 1.026-3.794 2-5.5 1.881-3.422 4.935-6.05 8.6-7.4 1.828-.658 3.757-.997 5.7-1 1.849-.024 3.684.316 5.4 1 .741.324 1.445.727 2.1 1.2l.4-2.2h6zm-16.3-18.6c-1.652 1.493-2.745 3.503-3.101 5.7-.476 1.97-.074 4.049 1.1 5.7 1.389 1.482 3.375 2.255 5.401 2.1 2.22.059 4.387-.687 6.099-2.1 1.664-1.483 2.759-3.498 3.1-5.7.489-1.969.087-4.054-1.1-5.7-1.388-1.482-3.375-2.255-5.4-2.1-2.229-.013-4.392.766-6.1 2.2zm33.9-5.9c.793-.479 1.63-.881 2.5-1.2 1.826-.671 3.757-1.009 5.701-1 1.816-.029 3.619.311 5.3 1 1.526.616 2.869 1.615 3.899 2.9 1.067 1.3 1.789 2.847 2.1 4.5.361 1.816.361 3.684 0 5.5l-2.3 13.8h-6l2.399-13.8c.503-1.969.101-4.06-1.099-5.7-1.358-1.466-3.307-2.238-5.3-2.1-2.219-.05-4.382.695-6.1 2.1-1.67 1.477-2.767 3.495-3.099 5.7l-2.5 13.8h-6l6.599-37.5h6zm41-2.2-1.1 6h-7.9l-1.9 10.8c-.223 1.093-.189 2.223.1 3.3.218.841.668 1.604 1.301 2.2l2.098 1.8-4.5 4.8-2.099-1.8c-1.302-1.179-2.238-2.706-2.7-4.4-.51-1.893-.579-3.877-.201-5.8l4-22.7h6l-1 5.9h7.901zm.4 27.7 6.6-37.5h6l-6.6 37.5zm15.401 9.9 7.399-11.8-7.2-25.8h6.7l5.2 18.5 11.7-18.5h6.6l-23.7 37.6h-6.6zm74.799-9.9-3.2-17.3-9.4 17.3h-5l-7.699-27.7h6.599l5 18 9.7-18h5.201l3.399 18 11.3-18h6.6l-17.5 27.7zm39.8 0 .401-2.2-2.5 1.2c-1.829.659-3.757.997-5.701 1-1.848.024-3.683-.316-5.4-1-3.096-1.275-5.349-4.016-6-7.3-.346-1.817-.346-3.683 0-5.5.35-1.934 1.025-3.794 2-5.5.949-1.713 2.203-3.237 3.7-4.5 1.473-1.268 3.168-2.251 5-2.9 1.826-.671 3.757-1.009 5.701-1 1.849-.037 3.686.303 5.4 1 .743.32 1.447.722 2.099 1.2l.401-2.2h6l-5.1 27.7zm-10.2-19.6c-1.657 1.488-2.751 3.501-3.1 5.7-.476 1.97-.075 4.049 1.1 5.7 1.389 1.482 3.375 2.255 5.4 2.1 2.22.059 4.387-.687 6.1-2.1 1.663-1.483 2.759-3.498 3.1-5.7.503-1.969.099-4.06-1.1-5.7-1.38-1.495-3.373-2.27-5.4-2.1-2.232-.022-4.397.759-6.1 2.2zm49 19.6h-7.399l-4.801-8.7-7.9 8.7h-7.4l12.5-13.8-7.6-13.8h7.4l4.801 8.7 7.899-8.7h7.4l-12.5 13.8zm24.601-26.7c1.528.616 2.871 1.615 3.9 2.9 1.065 1.3 1.788 2.847 2.099 4.5.361 1.816.361 3.684 0 5.5l-.5 3h-21.201c.161.989.575 1.919 1.201 2.7 1.388 1.482 3.375 2.255 5.4 2.1 1.798.026 3.566-.46 5.1-1.4l2.599 4.9c-2.636 1.651-5.688 2.518-8.8 2.5-1.848.024-3.683-.316-5.4-1-3.119-1.244-5.383-3.999-6-7.3-.346-1.817-.346-3.683 0-5.5.35-1.934 1.025-3.794 2-5.5.927-1.7 2.145-3.223 3.6-4.5 1.476-1.262 3.171-2.245 5-2.9 1.826-.671 3.756-1.009 5.701-1 1.816-.029 3.619.311 5.3 1zm-12.5 7.1c-.865.759-1.578 1.675-2.1 2.7h14.799c-.137-.996-.553-1.932-1.201-2.7-1.358-1.466-3.307-2.238-5.3-2.1-2.266-.046-4.471.736-6.2 2.2zm41.199 19.6.4-2.2-2.5 1.2c-1.829.659-3.758.997-5.701 1-1.814.016-3.614-.324-5.299-1-1.549-.628-2.922-1.623-4-2.9-1.071-1.297-1.794-2.846-2.099-4.5-.36-1.816-.36-3.684 0-5.5.339-1.936 1.016-3.798 2-5.5.91-1.71 2.13-3.236 3.599-4.5 1.474-1.266 3.169-2.249 5-2.9 1.825-.675 3.756-1.014 5.701-1 1.849-.037 3.686.303 5.4 1 .746.315 1.45.717 2.099 1.2l2.101-12h6l-6.7 37.6zm-10.1-19.6c-1.664 1.483-2.76 3.498-3.099 5.7-.49 1.969-.087 4.054 1.099 5.7 1.339 1.503 3.29 2.313 5.3 2.2 2.22.059 4.387-.687 6.1-2.1 1.67-1.478 2.766-3.495 3.099-5.7.503-1.969.1-4.06-1.099-5.7-1.38-1.495-3.373-2.27-5.401-2.1-2.185-.035-4.313.709-6 2.1zm-584 55.5c-.683-.022-1.353.189-1.9.6-.506.473-.825 1.112-.901 1.8-.166.615-.056 1.272.299 1.8.448.445 1.073.666 1.7.6h9.902c1.095-.006 2.18.198 3.199.6 1.928.76 3.327 2.462 3.7 4.5.218 1.089.218 2.211 0 3.3-.197 1.163-.603 2.281-1.199 3.3-.599 1.059-1.377 2.007-2.3 2.8-.922.775-1.971 1.384-3.1 1.8-1.089.4-2.241.603-3.401.6h-18.199l1.1-6h18.299c.69.055 1.373-.167 1.899-.617.525-.451.849-1.093.9-1.783.226-.605.11-1.284-.303-1.78-.414-.496-1.06-.732-1.696-.62h-9.9c-1.096.011-2.183-.193-3.199-.6-.943-.383-1.769-1.003-2.401-1.8-.648-.78-1.095-1.707-1.301-2.7-.225-1.088-.225-2.212.001-3.3.203-1.162.609-2.28 1.201-3.3.605-1.055 1.382-2.002 2.299-2.8 1.817-1.541 4.119-2.391 6.5-2.4h16.8l-1.099 6zm30-3.8c.793-.479 1.63-.881 2.5-1.2 1.826-.671 3.757-1.009 5.701-1 1.817-.029 3.62.311 5.3 1 1.527.616 2.869 1.615 3.9 2.9 1.066 1.3 1.789 2.847 2.099 4.5.362 1.816.362 3.684 0 5.5l-2.4 13.8h-6l2.4-13.8c.503-1.969.1-4.06-1.099-5.7-1.359-1.466-3.307-2.238-5.301-2.1-2.219-.05-4.382.695-6.1 2.1-1.67 1.477-2.767 3.495-3.099 5.7l-2.401 13.8h-6l6.601-37.5h6zm45.6-1.2c1.527.616 2.87 1.615 3.9 2.9 1.067 1.3 1.789 2.847 2.1 4.5.361 1.816.361 3.684 0 5.5l-.5 3h-21.2c.16.989.573 1.919 1.2 2.7 1.388 1.482 3.375 2.255 5.4 2.1 1.798.026 3.567-.46 5.1-1.4l2.599 4.9c-2.635 1.651-5.687 2.518-8.798 2.5-1.85.024-3.685-.316-5.402-1-3.119-1.244-5.383-3.999-6-7.3-.345-1.817-.345-3.683 0-5.5.35-1.934 1.026-3.794 2-5.5.925-1.701 2.144-3.224 3.6-4.5 1.476-1.262 3.171-2.245 5-2.9 1.825-.671 3.756-1.009 5.7-1 1.816-.029 3.619.311 5.3 1zm-12.5 7.1c-.864.759-1.577 1.675-2.1 2.7h14.8c-.136-.996-.552-1.932-1.2-2.7-1.358-1.466-3.307-2.238-5.3-2.1-2.266-.046-4.471.736-6.2 2.2zm43.5-7.1c1.527.616 2.87 1.615 3.9 2.9 1.067 1.3 1.789 2.847 2.1 4.5.361 1.816.361 3.684 0 5.5l-.5 3h-21.1c.159.989.573 1.919 1.199 2.7 1.389 1.482 3.375 2.255 5.401 2.1 1.798.026 3.566-.46 5.099-1.4l2.6 4.9c-2.636 1.651-5.687 2.518-8.799 2.5-1.849.024-3.684-.316-5.401-1-3.119-1.244-5.383-3.999-6-7.3-.346-1.817-.346-3.683 0-5.5.349-1.934 1.025-3.794 2-5.5.925-1.701 2.143-3.224 3.599-4.5 1.477-1.262 3.171-2.245 5-2.9 1.825-.671 3.755-1.009 5.7-1 1.784-.016 3.552.324 5.202 1zm-12.5 7.1c-.864.759-1.577 1.675-2.1 2.7h14.8c-.136-.996-.552-1.932-1.2-2.7-1.358-1.466-3.307-2.238-5.3-2.1-2.266-.046-4.471.736-6.2 2.2zm39.301-8.1-1.101 6h-7.899l-1.901 10.8c-.223 1.093-.189 2.223.1 3.3.217.841.667 1.604 1.3 2.2l2.099 1.8-4.5 4.8-2.099-1.8c-1.301-1.179-2.239-2.706-2.7-4.4-.511-1.893-.58-3.877-.202-5.8l4.001-22.7h6l-1 5.9h7.901zm11.199 6c-.683-.022-1.354.189-1.9.6-.505.473-.825 1.112-.9 1.8-.165.615-.056 1.272.3 1.8.448.445 1.073.666 1.701.6h9.899c1.095-.005 2.181.198 3.2.6 1.926.761 3.325 2.462 3.699 4.5.219 1.089.219 2.211.001 3.3-.198 1.163-.605 2.281-1.2 3.3-.599 1.059-1.377 2.007-2.3 2.8-.921.775-1.97 1.384-3.1 1.8-1.089.4-2.24.603-3.4.6h-18.3l1.101-6h18.299c.691.055 1.374-.167 1.9-.617.525-.451.849-1.093.9-1.783.225-.605.109-1.284-.304-1.78-.414-.496-1.06-.732-1.696-.62h-9.9c-1.096.011-2.183-.193-3.199-.6-.943-.383-1.77-1.003-2.401-1.8-.647-.78-1.094-1.707-1.3-2.7-.226-1.088-.226-2.212 0-3.3.202-1.162.608-2.28 1.2-3.3.605-1.055 1.382-2.002 2.299-2.8 1.818-1.541 4.12-2.391 6.501-2.4h16.8l-1.099 6zm57.7-5c1.527.616 2.87 1.615 3.9 2.9 1.067 1.3 1.789 2.847 2.1 4.5.361 1.816.361 3.684 0 5.5-.346 1.935-1.022 3.795-2 5.5-1.899 3.385-4.951 5.975-8.6 7.3-1.826.663-3.755 1.001-5.699 1-1.849.024-3.684-.316-5.401-1-3.119-1.244-5.383-3.999-6-7.3-.346-1.817-.346-3.683 0-5.5.349-1.934 1.025-3.794 2-5.5.925-1.701 2.143-3.224 3.599-4.5 1.477-1.262 3.171-2.245 5-2.9 1.827-.671 3.757-1.009 5.702-1 1.848-.043 3.687.298 5.399 1zm-12.5 7.1c-1.67 1.477-2.768 3.495-3.1 5.7-.489 1.969-.087 4.054 1.1 5.7 1.389 1.482 3.375 2.255 5.4 2.1 2.222.068 4.391-.679 6.1-2.1 1.67-1.478 2.767-3.495 3.1-5.7.503-1.969.099-4.06-1.1-5.7-1.358-1.466-3.307-2.238-5.301-2.1-2.265-.046-4.47.736-6.2 2.2zm35-12.5c-.841.584-1.556 1.333-2.1 2.2-.428.721-.764 1.494-1 2.3h7.8l-1.099 6h-7.901l-3.8 21.7h-6l4.701-26.7c.368-2.069 1.15-4.041 2.299-5.8 1.113-1.75 2.578-3.248 4.301-4.4l2.699-1.8 2.8 4.8zm43.101 5.4c1.524.62 2.867 1.618 3.899 2.9 1.066 1.3 1.789 2.847 2.1 4.5.361 1.816.361 3.684 0 5.5-.346 1.935-1.023 3.795-2 5.5-.949 1.713-2.203 3.238-3.7 4.5-1.474 1.266-3.17 2.249-5.001 2.9-1.828.661-3.756.999-5.7 1-1.815.013-3.615-.326-5.301-1-.741-.32-1.446-.723-2.098-1.2l-2.1 12h-6l6.6-37.6h6l-.401 2.2c.796-.474 1.632-.876 2.5-1.2 1.83-.66 3.758-.999 5.702-1 1.88-.043 3.752.298 5.499 1zm-12.5 7.2c-1.677 1.472-2.776 3.492-3.1 5.7-.49 1.969-.088 4.054 1.099 5.7 1.379 1.495 3.373 2.27 5.4 2.1 2.219.05 4.382-.695 6.1-2.1 1.663-1.483 2.758-3.498 3.099-5.7.489-1.969.087-4.054-1.099-5.7-1.389-1.482-3.375-2.255-5.401-2.1-2.219-.05-4.382.695-6.099 2.1zm41.199 19.5.4-2.2-2.5 1.2c-1.828.659-3.757.997-5.7 1-1.849.024-3.684-.316-5.4-1-3.096-1.275-5.349-4.016-6-7.3-.346-1.817-.346-3.683 0-5.5.349-1.934 1.025-3.794 2-5.5.949-1.713 2.203-3.237 3.7-4.5 1.472-1.268 3.168-2.251 5-2.9 1.826-.671 3.757-1.009 5.701-1 1.849-.037 3.686.303 5.399 1 .744.319 1.449.722 2.1 1.2l.4-2.2h6l-4.9 27.7h-6zm-10.199-19.6c-1.658 1.488-2.752 3.5-3.101 5.7-.476 1.97-.074 4.049 1.1 5.7 1.388 1.482 3.375 2.255 5.4 2.1 2.22.059 4.387-.687 6.1-2.1 1.663-1.483 2.758-3.498 3.099-5.7.503-1.969.1-4.06-1.099-5.7-1.38-1.495-3.373-2.27-5.401-2.1-2.231-.022-4.396.759-6.099 2.2zm47.399-7.1c1.525.62 2.867 1.618 3.9 2.9 1.067 1.3 1.789 2.847 2.1 4.5.361 1.816.361 3.684 0 5.5-.346 1.935-1.022 3.795-2 5.5-.948 1.713-2.202 3.238-3.699 4.5-1.475 1.266-3.17 2.249-5.001 2.9-1.828.661-3.757.999-5.7 1-1.816.013-3.616-.326-5.301-1-.741-.32-1.446-.723-2.099-1.2l-2.099 12h-6l6.599-37.6h6l-.4 2.2c.796-.474 1.632-.876 2.5-1.2 1.829-.66 3.758-.999 5.701-1 1.881-.043 3.752.298 5.499 1zm-12.5 7.2c-1.677 1.472-2.775 3.492-3.1 5.7-.489 1.969-.087 4.054 1.1 5.7 1.38 1.495 3.373 2.27 5.4 2.1 2.219.05 4.382-.695 6.1-2.1 1.663-1.483 2.759-3.498 3.1-5.7.489-1.969.087-4.054-1.1-5.7-1.389-1.482-3.375-2.255-5.4-2.1-2.219-.05-4.382.695-6.1 2.1zm43.601-7.2c1.528.616 2.871 1.615 3.9 2.9 1.065 1.3 1.788 2.847 2.099 4.5.361 1.816.361 3.684 0 5.5l-.5 3h-21.201c.161.989.575 1.919 1.201 2.7 1.388 1.482 3.375 2.255 5.4 2.1 1.798.026 3.566-.46 5.1-1.4l2.599 4.9c-2.636 1.651-5.688 2.518-8.8 2.5-1.848.024-3.683-.316-5.4-1-3.119-1.244-5.383-3.999-6-7.3-.346-1.817-.346-3.683 0-5.5.35-1.934 1.025-3.794 2-5.5.925-1.701 2.144-3.224 3.6-4.5 1.476-1.262 3.171-2.245 5-2.9 1.826-.671 3.756-1.009 5.701-1 1.816-.029 3.619.311 5.3 1zm-12.5 7.1c-.863.761-1.575 1.677-2.1 2.7h14.799c-.137-.996-.553-1.932-1.201-2.7-1.358-1.466-3.307-2.238-5.3-2.1-2.266-.046-4.471.736-6.2 2.2zm38.599-2.1c-2.219-.05-4.382.695-6.099 2.1-1.67 1.477-2.768 3.495-3.1 5.7l-2.5 13.9h-6l4.9-27.7h6l-.4 2.2c.793-.479 1.63-.881 2.5-1.2 1.824-.673 3.756-1.011 5.7-1h3l-1.099 6h-3zm28.901-3.8c.793-.479 1.629-.881 2.5-1.2 1.826-.671 3.756-1.009 5.701-1 1.816-.029 3.619.311 5.3 1 1.528.612 2.872 1.612 3.899 2.9 1.066 1.3 1.789 2.847 2.1 4.5.361 1.816.361 3.684 0 5.5-.346 1.935-1.023 3.795-2 5.5-1.9 3.385-4.952 5.976-8.6 7.3-1.827.665-3.756 1.003-5.7 1-1.849.024-3.684-.316-5.401-1-.742-.32-1.447-.723-2.099-1.2l-.401 2.2h-6l6.601-37.5h6zm1.099 6c-1.67 1.477-2.767 3.495-3.099 5.7-.49 1.969-.087 4.054 1.099 5.7 1.389 1.482 3.375 2.255 5.401 2.1 2.221.068 4.39-.679 6.099-2.1 1.67-1.477 2.768-3.495 3.1-5.7.503-1.969.099-4.06-1.1-5.7-1.358-1.466-3.306-2.238-5.301-2.1-2.287-.099-4.529.649-6.299 2.1zm21.2 29.4 7.4-11.8-7.199-25.8h6.599l5.2 18.5 11.701-18.5h6.599l-23.7 37.6zm66.3-9.9.401-2.2-2.5 1.2c-1.829.659-3.757.997-5.701 1-1.848.024-3.683-.316-5.4-1-3.096-1.275-5.349-4.016-6-7.3-.346-1.817-.346-3.683 0-5.5.35-1.934 1.025-3.794 2-5.5.949-1.713 2.203-3.237 3.7-4.5 1.473-1.268 3.168-2.251 5-2.9 1.826-.671 3.757-1.009 5.701-1 1.849-.037 3.686.303 5.4 1 .743.319 1.447.722 2.099 1.2l.401-2.2h6l-4.901 27.7h-6zm-10.2-19.5c-1.657 1.488-2.751 3.501-3.1 5.7-.476 1.97-.075 4.049 1.1 5.7 1.389 1.482 3.375 2.255 5.4 2.1 2.22.059 4.387-.687 6.1-2.1 1.663-1.483 2.759-3.498 3.1-5.7.503-1.969.099-4.06-1.1-5.7-1.38-1.495-3.373-2.27-5.4-2.1-2.219-.05-4.382.695-6.1 2.1zm-486.5 50.4c1.525.62 2.867 1.618 3.9 2.9 1.067 1.3 1.789 2.847 2.1 4.5.361 1.816.361 3.684 0 5.5-.344 1.935-1.021 3.796-2 5.5-.948 1.713-2.202 3.238-3.699 4.5-1.477 1.264-3.171 2.247-5.001 2.9-1.828.661-3.757.999-5.7 1-1.816.013-3.616-.326-5.301-1-.741-.32-1.446-.723-2.099-1.2l-2.099 12h-6l6.599-37.6h6l-.4 2.2c.796-.474 1.633-.875 2.5-1.2 1.828-.661 3.757-.999 5.7-1 1.882-.04 3.752.3 5.5 1zm-12.5 7.2c-1.677 1.472-2.775 3.492-3.1 5.7-.489 1.969-.087 4.054 1.1 5.7 1.38 1.495 3.373 2.27 5.4 2.1 2.219.05 4.382-.695 6.1-2.1 1.663-1.483 2.759-3.498 3.1-5.7.489-1.969.087-4.054-1.1-5.7-1.389-1.482-3.375-2.255-5.4-2.1-2.219-.05-4.382.695-6.1 2.1zm38.601-2.2c-2.218-.05-4.382.695-6.1 2.1-1.671 1.477-2.769 3.495-3.101 5.7l-2.4 13.8h-6l4.9-27.7h6l-.4 2.2c.793-.479 1.63-.881 2.5-1.2 1.824-.673 3.756-1.011 5.7-1h3l-1.099 6h-3zm25.699-5c1.527.616 2.87 1.615 3.9 2.9 1.067 1.3 1.789 2.847 2.1 4.5.361 1.816.361 3.684 0 5.5-.344 1.935-1.021 3.796-2 5.5-1.9 3.385-4.951 5.976-8.6 7.3-1.827.665-3.756 1.003-5.7 1-1.849.024-3.684-.316-5.4-1-3.12-1.244-5.383-3.999-6-7.3-.346-1.817-.346-3.683 0-5.5.349-1.934 1.025-3.794 2-5.5.924-1.701 2.143-3.224 3.599-4.5 1.477-1.262 3.171-2.245 5-2.9 1.825-.671 3.756-1.009 5.7-1 1.85-.043 3.689.297 5.401 1zm-12.5 7.1c-1.67 1.477-2.768 3.495-3.1 5.7-.489 1.969-.087 4.054 1.1 5.7 1.388 1.482 3.375 2.255 5.4 2.1 2.222.068 4.391-.679 6.1-2.1 1.67-1.477 2.767-3.495 3.099-5.7.503-1.969.1-4.06-1.099-5.7-1.359-1.466-3.307-2.238-5.301-2.1-2.267-.047-4.472.736-6.201 2.2zm35-12.5c-.839.587-1.553 1.335-2.1 2.2-.429.721-.764 1.494-1 2.3h7.8l-1.1 6h-7.9l-3.8 21.7h-6l4.7-26.7c.37-2.069 1.152-4.041 2.301-5.8 1.111-1.75 2.575-3.248 4.299-4.4l2.7-1.8 2.8 4.8zm26.2 5.4c1.527.616 2.87 1.615 3.9 2.9 1.067 1.3 1.789 2.847 2.1 4.5.361 1.816.361 3.684 0 5.5l-.5 3h-21.2c.16.989.574 1.919 1.2 2.7 1.389 1.482 3.375 2.255 5.4 2.1 1.798.026 3.567-.46 5.1-1.4l2.6 4.9c-2.637 1.651-5.689 2.518-8.8 2.5-1.849.024-3.684-.316-5.401-1-3.119-1.244-5.382-3.999-6-7.3-.345-1.817-.345-3.683 0-5.5.35-1.934 1.026-3.794 2-5.5.925-1.701 2.144-3.224 3.6-4.5 1.477-1.262 3.171-2.245 5-2.9 1.826-.671 3.757-1.009 5.701-1 1.817-.029 3.619.311 5.3 1zm-12.5 7.1c-.864.759-1.577 1.675-2.1 2.7h14.8c-.137-.996-.554-1.932-1.201-2.7-1.357-1.466-3.307-2.238-5.3-2.1-2.264-.047-4.47.735-6.199 2.2zm32-2.1c-.683-.022-1.354.189-1.899.6-.506.473-.826 1.112-.901 1.8-.166.615-.056 1.272.299 1.8.448.445 1.073.666 1.701.6h9.901c1.094-.006 2.18.198 3.199.6 1.928.76 3.327 2.462 3.7 4.5.218 1.089.218 2.211 0 3.3-.197 1.163-.604 2.281-1.199 3.3-.599 1.059-1.377 2.007-2.3 2.8-.922.775-1.971 1.384-3.101 1.8-1.088.4-2.24.603-3.4.6h-18.199l1.099-6h18.3c.69.055 1.373-.167 1.899-.617.525-.451.849-1.093.9-1.783.226-.605.109-1.284-.304-1.78s-1.059-.732-1.695-.62h-9.9c-1.096.011-2.183-.193-3.2-.6-.942-.383-1.769-1.003-2.4-1.8-.648-.78-1.095-1.707-1.301-2.7-.224-1.088-.224-2.212.001-3.3.202-1.162.609-2.28 1.2-3.3.606-1.055 1.383-2.002 2.301-2.8.917-.78 1.966-1.39 3.099-1.8 1.091-.392 2.241-.595 3.4-.6h16.8l-1.1 6zm30.601 0c-.684-.022-1.354.189-1.901.6-.506.473-.825 1.112-.9 1.8-.166.615-.057 1.272.299 1.8.448.445 1.073.666 1.701.6h9.9c1.095-.005 2.181.198 3.199.6 1.928.76 3.328 2.462 3.701 4.5.217 1.089.217 2.211 0 3.3-.198 1.163-.604 2.281-1.2 3.3-.598 1.059-1.377 2.007-2.299 2.8-.922.775-1.971 1.384-3.101 1.8-1.089.4-2.24.603-3.4.6h-18.3l1.1-6h18.3c.69.055 1.373-.167 1.899-.617.525-.451.849-1.093.9-1.783.226-.605.109-1.284-.304-1.78s-1.059-.732-1.695-.62h-9.9c-1.096.011-2.183-.193-3.2-.6-.942-.383-1.769-1.003-2.4-1.8-.648-.78-1.095-1.707-1.301-2.7-.224-1.088-.224-2.212.001-3.3.202-1.162.609-2.28 1.2-3.3.606-1.055 1.383-2.002 2.301-2.8.917-.78 1.966-1.39 3.099-1.8 1.091-.392 2.241-.595 3.4-.6h16.8l-1.1 6zm19.399 21.7 4.9-27.7h6l-4.9 27.7zm12.3-35.7c-.325 1.693-1.777 2.938-3.5 3-.76.016-1.486-.315-1.972-.899-.486-.583-.681-1.357-.528-2.101.325-1.693 1.776-2.938 3.5-3 .759-.014 1.483.317 1.97.9.486.583.681 1.356.53 2.1zm22.6 9c1.528.616 2.871 1.615 3.9 2.9 1.066 1.3 1.789 2.847 2.099 4.5.362 1.816.362 3.684 0 5.5-.343 1.935-1.02 3.796-2 5.5-1.899 3.385-4.951 5.975-8.599 7.3-1.827.665-3.756 1.003-5.7 1-1.849.024-3.684-.316-5.401-1-3.119-1.244-5.383-3.999-6-7.3-.345-1.817-.345-3.683 0-5.5.35-1.934 1.026-3.794 2-5.5.925-1.701 2.144-3.224 3.6-4.5 1.476-1.262 3.171-2.245 5-2.9 1.825-.671 3.756-1.009 5.7-1 1.85-.043 3.689.297 5.4 1zm-12.5 7.1c-1.671 1.477-2.768 3.495-3.1 5.7-.489 1.969-.087 4.054 1.099 5.7 1.389 1.482 3.375 2.255 5.401 2.1 2.221.068 4.39-.679 6.099-2.1 1.67-1.478 2.767-3.495 3.1-5.7.503-1.969.1-4.06-1.1-5.7-1.358-1.466-3.306-2.238-5.3-2.1-2.267-.047-4.472.736-6.202 2.2zm45-7.1c1.566.597 2.946 1.598 4 2.9 1.079 1.292 1.802 2.843 2.1 4.5.364 1.815.364 3.685 0 5.5l-2.4 13.8h-6l2.4-13.8c.503-1.969.1-4.06-1.1-5.7-1.358-1.466-3.306-2.238-5.3-2.1-2.219-.05-4.382.695-6.1 2.1-1.677 1.472-2.775 3.492-3.1 5.7l-2.4 13.8h-6l4.9-27.7h6l-.4 2.2c.792-.481 1.63-.883 2.5-1.2 1.825-.667 3.755-1.005 5.699-1 1.784-.019 3.553.322 5.201 1zm29.6 26.7.4-2.2-2.5 1.2c-1.828.659-3.756.997-5.7 1-1.848.024-3.683-.316-5.4-1-3.096-1.275-5.349-4.016-6-7.3-.346-1.817-.346-3.683 0-5.5.349-1.934 1.025-3.794 2-5.5.95-1.713 2.204-3.237 3.701-4.5 1.472-1.268 3.167-2.251 4.999-2.9 1.825-.671 3.756-1.009 5.7-1 1.85-.037 3.687.303 5.401 1 .743.319 1.447.722 2.099 1.2l.401-2.2h6l-4.901 27.7h-6zm-10.2-19.6c-1.657 1.488-2.751 3.501-3.1 5.7-.476 1.97-.075 4.049 1.1 5.7 1.388 1.482 3.375 2.255 5.4 2.1 2.22.059 4.387-.687 6.1-2.1 1.663-1.483 2.759-3.498 3.099-5.7.503-1.969.1-4.06-1.099-5.7-1.38-1.495-3.373-2.27-5.401-2.1-2.197.002-4.322.781-6 2.2zm23.5 19.6 6.6-37.5h6l-6.6 37.5zm51.801-25.1-4.301 4.9c-1.362-.987-3.02-1.481-4.699-1.4-2.219-.05-4.382.695-6.1 2.1-1.67 1.477-2.768 3.495-3.1 5.7-.489 1.969-.087 4.054 1.1 5.7 1.389 1.483 3.375 2.255 5.4 2.1 1.798.026 3.567-.46 5.1-1.4l2.6 4.9c-2.636 1.651-5.688 2.518-8.799 2.5-1.85.024-3.685-.316-5.402-1-3.119-1.244-5.382-3.999-6-7.3-.345-1.817-.345-3.683 0-5.5.35-1.934 1.026-3.793 2-5.5.925-1.701 2.144-3.224 3.6-4.5 1.477-1.262 3.171-2.245 5-2.9 1.825-.671 3.756-1.009 5.7-1 2.856-.077 5.649.842 7.901 2.6zm19.699 25.1.4-2.2-2.5 1.2c-1.829.659-3.758.997-5.701 1-1.848.024-3.683-.316-5.399-1-3.096-1.275-5.349-4.016-6-7.3-.346-1.817-.346-3.683 0-5.5.349-1.934 1.025-3.794 2-5.5.949-1.713 2.203-3.237 3.7-4.5 1.472-1.268 3.168-2.251 5-2.9 1.826-.671 3.757-1.009 5.701-1 1.849-.037 3.686.303 5.399 1 .744.319 1.449.722 2.1 1.2l.4-2.2h6l-4.9 27.7h-6zm-10.199-19.6c-1.657 1.488-2.751 3.5-3.1 5.7-.477 1.97-.075 4.049 1.099 5.7 1.388 1.482 3.375 2.255 5.4 2.1 2.22.059 4.387-.687 6.1-2.1 1.663-1.483 2.758-3.498 3.099-5.7.503-1.969.1-4.06-1.099-5.7-1.38-1.495-3.373-2.27-5.401-2.1-2.197.002-4.322.781-6 2.2zm23.399 19.6 6.601-37.5h6l-6.601 37.5zm13.3 0 6.6-37.5h6l-6.6 37.5zm13.2 0 4.9-27.7h6l-4.9 27.7zm12.3-35.7c-.325 1.693-1.777 2.938-3.5 3-.76.016-1.486-.315-1.972-.899-.486-.583-.681-1.357-.528-2.101.325-1.693 1.776-2.938 3.5-3 .759-.014 1.483.317 1.97.9.486.583.681 1.356.53 2.1zm26.4 34.7c-.717 4.184-3.097 7.9-6.599 10.3l-2.701 1.8-2.799-4.8 2.7-1.8c.839-.586 1.553-1.334 2.099-2.2.61-1.012 1.017-2.133 1.2-3.3l.201-1.1-2.5 1.2c-1.828.659-3.757.997-5.7 1-1.849.024-3.684-.316-5.401-1-3.119-1.244-5.383-3.999-6-7.3-.346-1.817-.346-3.683 0-5.5.35-1.934 1.026-3.793 2-5.5 1.881-3.423 4.935-6.051 8.6-7.4 1.828-.658 3.757-.997 5.7-1 1.849-.024 3.684.316 5.4 1 .741.325 1.445.727 2.1 1.2l.4-2.2h6zm-16.3-18.6c-1.652 1.493-2.745 3.503-3.101 5.7-.476 1.97-.074 4.049 1.1 5.7 1.389 1.482 3.375 2.255 5.401 2.1 2.22.059 4.387-.687 6.099-2.1 1.664-1.483 2.759-3.498 3.1-5.7.489-1.969.087-4.054-1.1-5.7-1.388-1.482-3.375-2.255-5.4-2.1-2.266-.037-4.467.744-6.201 2.2zm40.9-2.1c-2.219-.05-4.382.695-6.1 2.1-1.67 1.477-2.767 3.495-3.099 5.7l-2.401 13.8h-6l4.901-27.7h6l-.401 2.2c.793-.479 1.63-.881 2.5-1.2 1.824-.673 3.756-1.011 5.7-1h3l-1.099 6h-3zm23.301 21.7.399-2.2-2.5 1.2c-1.828.659-3.757.997-5.7 1-1.849.024-3.684-.316-5.401-1-3.095-1.275-5.348-4.016-6-7.3-.345-1.817-.345-3.683 0-5.5.35-1.934 1.026-3.794 2-5.5.951-1.713 2.205-3.237 3.702-4.5 1.471-1.268 3.167-2.251 4.999-2.9 1.825-.671 3.755-1.009 5.7-1 1.849-.037 3.686.303 5.4 1 .743.319 1.447.722 2.1 1.2l.4-2.2h6l-4.9 27.7h-6zm-10.201-19.6c-1.657 1.488-2.752 3.5-3.1 5.7-.477 1.97-.075 4.049 1.099 5.7 1.389 1.482 3.375 2.255 5.401 2.1 2.22.059 4.387-.687 6.099-2.1 1.664-1.483 2.759-3.498 3.1-5.7.503-1.969.1-4.06-1.1-5.7-1.379-1.495-3.373-2.27-5.4-2.1-2.197.002-4.322.781-6 2.2zm47.5-7.1c1.524.62 2.867 1.618 3.899 2.9 1.067 1.3 1.79 2.847 2.1 4.5.362 1.816.362 3.684 0 5.5-.343 1.935-1.02 3.796-2 5.5-.949 1.713-2.203 3.238-3.7 4.5-1.473 1.266-3.169 2.249-5 2.9-1.827.661-3.756.999-5.699 1-1.815.013-3.615-.326-5.301-1-.742-.32-1.447-.723-2.099-1.2l-2.1 12h-6l6.6-37.6h6l-.401 2.2c.796-.474 1.633-.875 2.5-1.2 1.827-.661 3.756-.999 5.699-1 1.883-.04 3.753.3 5.501 1zm-12.5 7.2c-1.677 1.472-2.776 3.492-3.1 5.7-.401 2.4 0 4.3 1.099 5.7 1.38 1.495 3.373 2.27 5.401 2.1 2.219.05 4.382-.695 6.099-2.1 1.664-1.483 2.759-3.498 3.1-5.7.489-1.969.087-4.054-1.1-5.7-1.388-1.482-3.375-2.255-5.4-2.1-2.219-.05-4.382.695-6.1 2.1zm31.4-6c.793-.479 1.63-.881 2.5-1.2 1.826-.671 3.757-1.009 5.701-1 1.816-.029 3.619.311 5.3 1 1.526.616 2.869 1.615 3.899 2.9 1.067 1.3 1.789 2.847 2.1 4.5.361 1.816.361 3.684 0 5.5l-2.3 13.8h-6l2.399-13.8c.503-1.969.101-4.06-1.099-5.7-1.358-1.466-3.307-2.238-5.3-2.1-2.219-.05-4.382.695-6.1 2.1-1.67 1.477-2.767 3.495-3.099 5.7l-2.401 13.8h-6l6.601-37.5h6zm45.6-1.2c1.528.616 2.871 1.615 3.9 2.9 1.066 1.3 1.789 2.847 2.099 4.5.362 1.816.362 3.684 0 5.5l-.5 3h-21.2c.16.989.574 1.919 1.2 2.7 1.389 1.483 3.375 2.255 5.401 2.1 1.798.026 3.566-.46 5.099-1.4l2.6 4.9c-2.636 1.651-5.687 2.518-8.799 2.5-1.849.024-3.684-.316-5.401-1-3.119-1.244-5.383-3.999-6-7.3-.346-1.817-.346-3.683 0-5.5.349-1.934 1.025-3.794 2-5.5.927-1.699 2.145-3.223 3.599-4.5 1.477-1.262 3.171-2.245 5-2.9 1.826-.671 3.756-1.009 5.701-1 1.816-.029 3.619.311 5.299 1zm-12.5 7.1c-.864.759-1.577 1.675-2.1 2.7h14.8c-.136-.996-.552-1.932-1.201-2.7-1.357-1.466-3.306-2.238-5.299-2.1-2.266-.047-4.471.736-6.201 2.2zm38.6-2.1c-2.219-.05-4.382.695-6.1 2.1-1.67 1.477-2.767 3.495-3.099 5.7l-2.401 13.8h-6l4.901-27.7h6l-.401 2.2c.793-.479 1.63-.881 2.5-1.2 1.825-.673 3.756-1.011 5.701-1h3l-1.1 6h-3z"/></svg>