<svg viewBox="0 0 1000 660" xmlns="http://www.w3.org/2000/svg"><path d="m0 660h1000v-660h-1000z" fill="#eae3d8"/><path d="m295.568 414.438-13.324-33.012h-82.529l-13.522 32.813h-36.193l76.761-187.131h27.841l76.761 187.131h-35.795zm-27.245-66.222-27.443-66.818-27.244 66.619h54.887zm225.711 66.222h-33.409v-11.932c-4.083 2.607-8.413 4.805-12.927 6.562-9.846 3.73-20.294 5.617-30.823 5.569-10.465.051-20.849-1.837-30.626-5.569-9.308-3.598-17.771-9.083-24.858-16.108-7.085-7.038-12.578-15.515-16.107-24.858-3.788-9.83-5.678-20.289-5.569-30.823-.118-10.471 1.773-20.867 5.569-30.626 7.12-18.916 22.049-33.845 40.965-40.965 9.759-3.796 20.155-5.687 30.626-5.569 10.534-.113 20.994 1.776 30.823 5.569 4.538 1.703 8.874 3.904 12.927 6.562v-67.017h33.409zm-108.977-108.978c-7.756 7.557-11.933 18.694-11.933 31.819s4.177 24.261 11.933 32.017c7.755 7.756 18.693 11.733 31.818 11.733s24.261-3.977 32.017-11.733 11.733-18.693 11.733-32.017-3.977-24.262-11.733-31.819c-7.756-7.556-18.693-11.932-32.017-11.932-13.325 0-24.262 4.177-31.818 11.932zm182.357-90.085c0 6.758-4.07 12.849-10.313 15.435-6.242 2.585-13.427 1.156-18.205-3.622-4.777-4.778-6.206-11.964-3.62-18.206s8.678-10.312 15.435-10.311c9.224 0 16.703 7.478 16.703 16.704zm-33.409 199.063v-154.319h33.409v154.319zm148.353-154.319v33.409h-43.949v60.057c-.141 6.37 1.15 12.691 3.778 18.495 2.131 4.825 5.408 9.057 9.546 12.329l13.324 10.142-20.284 26.449-13.324-10.142c-8.499-6.467-15.263-14.939-19.688-24.659-4.598-10.18-6.906-21.246-6.761-32.415v-126.477h33.409v32.812zm134.232 154.319v-11.932c-4.097 2.581-8.424 4.778-12.925 6.562-19.832 7.305-41.617 7.305-61.449 0-18.846-7.23-33.736-22.12-40.966-40.966-3.73-9.846-5.617-20.294-5.568-30.823-.052-10.466 1.836-20.85 5.568-30.627 3.557-9.328 9.046-17.799 16.108-24.857 6.949-7.101 15.364-12.598 24.659-16.107 19.799-7.484 41.65-7.484 61.449 0 4.526 1.73 8.858 3.929 12.926 6.562v-12.131h33.608v154.319zm-75.567-108.978c-7.557 7.557-11.733 18.694-11.733 31.819s4.176 24.261 11.733 32.017c7.556 7.756 18.693 11.733 32.016 11.733 13.324 0 24.262-3.977 32.018-11.733 7.755-7.756 11.732-18.693 11.732-32.017s-4.176-24.262-11.732-31.819c-7.557-7.556-18.694-11.932-32.018-11.932-13.323 0-24.46 4.177-32.215 11.932z"/></svg>