<svg viewBox="0 0 1000 660" xmlns="http://www.w3.org/2000/svg"><path d="M0 660h1000V0H0z" fill="#f9f9f9"/><path d="M295.568 414.438l-13.324-33.012h-82.529l-13.522 32.813H150l76.761-187.131h27.841l76.761 187.131h-35.795zm-27.245-66.222l-27.443-66.818-27.244 66.619h54.887zm225.711 66.222h-33.409v-11.932a73.687 73.687 0 01-12.927 6.562 85.903 85.903 0 01-30.823 5.569 84.722 84.722 0 01-30.626-5.569 72.386 72.386 0 01-24.858-16.108 69.806 69.806 0 01-16.107-24.858 83.323 83.323 0 01-5.569-30.823 81.935 81.935 0 015.569-30.626 70.191 70.191 0 0140.965-40.965 81.935 81.935 0 0130.626-5.569 83.133 83.133 0 0130.823 5.569 65.634 65.634 0 0112.927 6.562v-67.017h33.409zM385.057 305.46c-7.756 7.557-11.933 18.694-11.933 31.819s4.177 24.261 11.933 32.017c7.755 7.756 18.693 11.733 31.818 11.733s24.261-3.977 32.017-11.733c7.756-7.756 11.733-18.693 11.733-32.017 0-13.324-3.977-24.262-11.733-31.819-7.756-7.556-18.693-11.932-32.017-11.932-13.325 0-24.262 4.177-31.818 11.932zm182.357-90.085a16.705 16.705 0 11-16.704-16.704c9.225 0 16.704 7.478 16.704 16.704zm-33.409 199.063V260.119h33.409v154.319zm148.353-154.319v33.409h-43.949v60.057a42.557 42.557 0 003.778 18.495 32.412 32.412 0 009.546 12.329l13.324 10.142L644.773 421l-13.324-10.142a64.63 64.63 0 01-19.688-24.659A76.355 76.355 0 01605 353.784V227.307h33.409v32.812zM816.59 414.438v-11.932a78.55 78.55 0 01-12.925 6.562 88.89 88.89 0 01-61.449 0 71.186 71.186 0 01-40.966-40.966 85.88 85.88 0 01-5.568-30.823 84.7 84.7 0 015.568-30.626 70.805 70.805 0 0116.108-24.858 68.21 68.21 0 0124.659-16.107 86.897 86.897 0 0161.449 0 69.372 69.372 0 0112.926 6.562v-12.131H850v154.319zM741.023 305.46c-7.557 7.557-11.733 18.694-11.733 31.819s4.176 24.261 11.733 32.017c7.556 7.756 18.693 11.733 32.016 11.733 13.324 0 24.262-3.977 32.018-11.733 7.755-7.756 11.732-18.693 11.732-32.017 0-13.324-4.176-24.262-11.732-31.819-7.557-7.556-18.694-11.932-32.018-11.932-13.323 0-24.46 4.177-32.215 11.932z" fill="#bf9e77"/></svg>