<svg viewBox="0 0 1000 660" xmlns="http://www.w3.org/2000/svg"><path d="m0 660h1000v-660h-1000z" fill="#eae3d8"/><path d="m850.362 416.851v-155.586h-30.493v14.231c-12.74-9.081-28.868-14.231-47.299-14.231-11.114 0-21.549 1.898-31.036 5.557-9.623 3.659-18.025 9.08-25.073 16.128-7.047 7.047-12.468 15.45-16.128 25.072-3.659 9.487-5.556 19.923-5.556 31.036 0 45.808 31.984 77.793 77.793 77.793 11.113 0 21.549-1.897 31.035-5.557 5.828-2.304 11.385-5.15 16.264-8.673v14.23zm-77.792-125.092c14.23 0 26.157 4.337 34.559 12.74 8.267 8.402 12.74 20.329 12.74 34.559 0 14.231-4.473 26.157-12.74 34.56-8.402 8.267-20.329 12.739-34.559 12.739-14.231 0-26.157-4.472-34.56-12.739-8.267-8.403-12.739-20.329-12.739-34.56 0-14.23 4.472-26.157 12.739-34.559 8.403-8.403 20.329-12.74 34.56-12.74zm-136.883-30.494v-34.153h-30.494v129.023c0 11.791 2.304 22.768 6.776 32.662 4.608 10.029 11.249 18.296 19.787 24.937l12.198 9.216 18.432-24.26-12.062-9.216c-4.608-3.523-8.132-7.996-10.571-13.417-2.711-5.827-4.066-12.604-4.066-19.922v-64.376h45.537v-30.494zm-83.756-63.02c-8.403 0-15.179 6.912-15.179 15.315 0 8.402 6.776 15.179 15.179 15.179 8.402 0 15.314-6.777 15.314-15.179 0-8.403-6.912-15.315-15.314-15.315zm15.314 218.606v-155.586h-30.493v155.586zm-71.152-212.507h-30.493v71.152c-5.015-3.524-10.436-6.506-16.264-8.674-9.487-3.659-19.922-5.557-31.035-5.557-45.809 0-77.793 31.985-77.793 77.793 0 11.113 1.897 21.549 5.556 31.036 3.66 9.622 9.081 18.025 16.128 25.073 7.048 7.047 15.45 12.468 25.073 16.127 9.487 3.66 19.922 5.557 31.036 5.557 18.431 0 34.559-5.15 47.299-14.23v14.23h30.493zm-77.792 87.415c14.23 0 26.156 4.337 34.559 12.74 8.267 8.402 12.74 20.329 12.74 34.559 0 14.231-4.473 26.157-12.74 34.56-8.403 8.267-20.329 12.739-34.559 12.739-14.231 0-26.157-4.472-34.56-12.739-8.403-8.403-12.74-20.329-12.74-34.56 0-14.23 4.337-26.157 12.74-34.559 8.403-8.403 20.329-12.74 34.56-12.74zm-85.925 125.092-77.928-189.739h-26.157l-77.928 189.739h33.068l13.96-34.153h88.093l13.959 34.153zm-122.517-64.647 31.578-76.573 31.442 76.573z"/></svg>