<svg xmlns="http://www.w3.org/2000/svg" viewBox="0 0 1000 660"><path d="M0 660h1000V0H0z" fill="#eae3d8"/><path d="M84.51 333.083a.294.294 0 01-.145-.056l-.001-.003c-.167-.402.27-1.121.53-1.472.394-.442.157-.953.693-1.247.519-.26.27-.65.704-.982.284-.233.307-.219.215.119-.159 1.045-.943 1.548-1.312 2.559-.161.397-.365 1.1-.684 1.082zm-2.209-1.621c-.456-.037-.697-.475-.697-.982.021-.721-1.032-1.512-.963-2.264.125-1.344.995-2.992 1.381-4.381.384-1.005.384-1.005-.131-1.618-.334-.328-.435-.696-.435-1.086 0-.643.283-1.352.268-2.048.271-1.634 2.321-4.258 2.701-5.897.319-.889.32-.915-.088-1.349-1.298-1.258 2.559-3.836 1.441-6.624-.092-.417-.263-.579-.47-.579-.619 0-1.556 1.43-1.653 1.872-.321 1.347-1.09 2.32-1.737 3.554-.26.624-1.379 1.821-1.456 2.486.015.536-.57 1.037-.57 1.567-.002.223-.138.521-.302.658-.981 1.048-.983 2.193-1.792 3.6-.521 1.193-1.37 1.559-1.545 2.547.054 1.189-.944.522-1.05-.304a1.42 1.42 0 01-.041-.344c0-.805.722-1.329.868-2.21.111-.281.138-.523.138-.748 0-.603-.219-1.058.369-1.683 1.137-1.227.984-2.622 1.989-4.007.572-.817 1.062-1.777 1.504-2.438.369-.623.136-1.48.766-2.158 1.482-1.677 1.747-2.685 2.431-5.027.739-2.507 1.762-3.355 2.588-5.566.578-1.725 1.677-3.241 2.317-4.876.812-1.94 1.871-4.866 3.129-6.559.962-.742.914-2.476 1.483-3.45.739-1.245 1.241-2.821 1.879-4.087 7.825-16.424 15.524-32.945 22.2-49.892 4.561-11.204 8.379-22.867 12.917-34.039 1.508-3.31 2.734-6.896 4.703-9.97.288-.365 1.01-.466 1.88-.466 1.347 0 3.051.241 4.044.118 4.901-.019 9.095.398 12.589-3.556 1.712-1.629 1.726-1.635 2.734-1.637a1.76 1.76 0 01.254-.019c1.599 0 1.174 2.546 1.861 3.762 1.215 3.041 2.38 5.976 3.6 8.896 2.392 6.367 5.432 12.871 7.381 19.339 1.196 2.53 2.302 6.292 3.455 8.885 0 .556.412.524.387 1.114.038.813.374 1.101.723 2.002.654 1.931 1.251 3.758 1.953 5.664 1.279 3.586 2.735 6.687 3.932 10.335.064.971 1.199 2.05.88 2.715-.171.205-.169.373.008.711.672.897 1.045 1.902 1.589 2.895.547.536.147 1.8.672 2.252 1.71 2.513 2.868 5.949 4.14 8.808.386.778.664 1.451.624 1.491-.288.119-.776-.236-.893-.582-.304-.648-1.404-1.47-1.558-2.302a928.409 928.409 0 01-4.628-9.431c-1.245-2.86-2.245-6.299-3.85-8.927-.603 1.61 2.624 6.982 3.271 9.026 1.478 3.927 3.736 8.061 4.754 12.014.849.923 1.208 2.64 1.698 3.733.962 1.08 1.314 2.914 1.725 4.224 1.237 1.674 1.706 3.438 2.68 5.378.346.836.958 1.829.985 2.462-.32.002-.63-.591-1.089-.693-.83-.39-.768-1.583-1.46-2.288-.713-.878-.639-1.414-1.056-2.363-.296-.699-2.125-3.003-2.12-1.011-.057.567 1.677 3.672 1.762 4.172.759 1.149.911 3.756 2.479 4.028.72.127 3.73.431 4.414.58.294.072.43.018.43-.162.021-1.101-1.49-2.16-1.815-3.136-.836-1.777-1.683-4.11-2.511-5.914-.253-1.32-1.787-2.776-1.314-4.126.277.136.928 1.926 1.218 2.111.836 1.124 1.017 2.914 1.826 4.029.682.672.624 1.742 1.116 2.595.857 1.67 1.158 2.29 2.049 4.077.319.657.774 1.318 1.01 1.468.696.411 4.978.67 5.783.778 1.691.355 3.883.753 5.407 1.531 1.141 1.158-.258.563-.869.502-.774 0-1.958-.224-2.782-.439-1.266-.298-3.189-.205-4.609-.485-1.047-.075-1.774-.518-2.329-.133.146 1.615 4.436 1.348 5.596 1.652 2.31.721 5.41 1.09 7.673 1.913-.261-.624-.518-1.248-.77-1.873-.409.046-1.142-.161-.633-.472.094-.068.24-.098.4-.104l-.288-.724c-1.908-5.516-2.106-11.831-2.106-18.008 0-2.778.041-5.526-.017-8.162l-.002-2.555c0-5.671.161-11.383 1.834-16.62 4.415-16.906 16.616-31.476 31.668-40.148 6.04-3.8 13.385-6.394 20.259-8.246 5.324-1.341 10.492-2.532 16.094-2.755 1.163-.036 2.355-.056 3.569-.056 12.157 0 26.676 2.102 35.563 10.194 1.468 1.175 1.535 1.266 1.623 2.142.163 1.241.257 3.504.257 5.627 0 1.635-.055 3.188-.174 4.123-.141.421-.185.873-.195 1.341-.009.581.039 1.187.039 1.779 0 .709-.067 1.398-.386 2.016-.094.463-.075.813.059.954.152.318.203.785.193 1.292-.013.688-.133 1.453-.249 2.026-.49 2.109-.976 2.91-1.615 2.898-1.668-.03-4.37-5.559-10.854-7.809-4.895-2.28-11.08-3.415-16.542-3.997-2.834-.271-6.069-.745-9.104-.802a62.53 62.53 0 00-.611-.003c-4.722 0-9.886.739-14.512 1.378-2.82.961-6.528 2.278-9.515 2.798-1.895.227-2.765 1.587-4.64 1.624-.819-.048-.948.516-1.657.67-.549.063-1.476.851-1.953.987-1.731.595-3.844 2.06-5.337 3.099-2.684 1.195-5.171 3.109-7.73 4.478-1.107.592-3.972 3.466-5.178 4.298-5.172 4.117-9.339 9.957-12.413 15.669-1.892 3.337-3.5 6.63-4.72 10.28a15.428 15.428 0 00-.709 4.689c0 6.03 3.227 11.942 6.067 17.125 4.007 7.197 9.911 13.446 16.878 18.001 4.572 3.241 8.97 6.04 14.124 8.119 11.26 4.87 23.959 6.845 36.473 6.845 3.858 0 7.69-.186 11.45-.534 2.411-.816 5.796-.466 8.132-1.638 5.487-1.402 11.127-3.085 15.982-6.015 3.689-2.734 6.993-4.844 10.136-8.398 2.215-2.301 3.312-4.447 4.743-6.893 1.072-1.691 2.905-5.215 3.413-7.171 3.265-6.72 4.975-14.664 4.878-22.157-.003-.092-.003-.204-.003-.331.016-.788.162-2.171.185-3.35v-.294c0-.753-.061-1.385-.265-1.664-.24-.463-.279-.712-.133-.854.35-1.629.857-2.492.866-4.628a9.177 9.177 0 01-.003-.47c.027-1.554.536-3.106 1.393-1.191.486 1.134.482 3.584.591 4.78-.065 6.947-.613 19.018-1.008 26.207-1.078 17.135-5.866 35.434-20.301 45.96-7.702 5.283-16.908 8.344-26.139 9.431-2.609.572-6.375.687-10.113.687l-.037-.021c-3.262 0-6.503-.088-8.941-.035-4.995-.207-8.808-.659-13.402-1.527-1.694-.667-4.363-.916-6.037-1.629-.914-.736-2.865-.703-3.835-1.317-3.412-.652-6.327-1.965-9.672-3.216-1.957-.785-3.085-1.782-4.841-2.537-.551-.094-1.831-.889-2.098-1.369-.373-.648-2.639-1.601-3.312-1.911-1.646-.935-3.382-2.376-4.957-3.35-3.237-2.641-6.837-6.078-9.665-9.227-1.306-1.464-1.631-2.822-2.826-4.04-.82-.338-.928-1.764-1.7-2.24-2.126-3.288-3.858-6.896-5.408-10.548a1.472 1.472 0 00-.741.02c-3.378-.219-6.973-1.452-10.479-1.541-.407-.027-.841.105-.845.503.018.473-.41.467-.387 0-.057-.576-1.603-1.277-2.128-.944-.307.105-.906.142-1.327.08-.521-.015-2.588-.621-2.588.023 0 1.006 1.356.651 1.737 1.026.067.111.355.148.651.086.088-.005.173-.007.254-.007.991 0 1.425.401 3.006.491 2.269.2 1.8.653 3.915.841 1.683.131 1.656.291 3.005.677 1.712.328 3.366.503 4.801 1.479.419.168 2.294.815.947 1.021-1.408-.325-4.259-1.349-5.807-.575.144 1.33 5.152 1.592 6.205 2.172.699.321 2.128 1.363.816 1.722a1.837 1.837 0 01-.512.056c-.636 0-1.349-.133-1.637.555-.312.984-3.045.729-3.942.623-.913-.033-1.911-.924-2.61-.557-.726.416-1.876.013-.666 1.169 1.491 1.226 3.767 1.347 5.583 2.156 1.154.569 3.277.212 4.041 1.128.298.317.425.618.425.891 0 1.204-2.414 1.916-3.409 1.178-1.215-.351-2.316-.64-3.073-.64-.64 0-1.029.206-1.029.749 0 .525.359 1.36 1.206 2.63.478.74.509 2.521.951 3.221.131.136 1.334 4.041.329 3.081-.655-.907-.498-2.54-1.255-3.468-.646-.882-.587-2.889-1.379-3.773-.73-.943-.694-1.829-1.503-2.622-.465-.448-.762-.553-1.629-.59-1.089-.019-4.07-1.095-2.695.876.429.874 1.402 2.735 1.512 3.727-.065.176.078.571.345.93.663.909 1.105 2.224 1.595 3.307 1.572 3.975 3.179 7.947 4.705 11.908.561 1.81 1.558 4.095 1.969 6.046.246 1.119.83 1.443.987 2.574-.075.74 1.692 3.305-.105 2.337a1.789 1.789 0 00-1.003-.275c-1.316 0-1.607.154-1.886-.175-.446-.532-1.376-2.401-1.503-3.141-.146-.935-.999-1.622-.958-2.621.057-.945-.56-.972-.575-1.81.035-.705-.851-1.616-.961-2.254-.18-.746-1.202-.73-1.113.332a.868.868 0 00-.018.195c0 .811.765 2.268.861 2.867-1.717.061-2.152-3.74-3.157-4.973-.987-2.465-2.426-5.038-3.402-7.526a2.006 2.006 0 01-.157-.807c0-.511.111-.88-.698-1.622-1.22-1.112-1.304-1.992-1.929-3.289-.373-.522-.753-.716-.903-.109-.048.534.575 1.181.648 1.771.715 2.067 1.473 3.758 2.468 5.76a589.163 589.163 0 004.618 12.136c.494.903.481 1.243-.32.503-.296-.284-.539-.708-.539-.945-.081-.749-1.056-1.593-1.384-2.34-.304-.695-1.872-4.115-2.671-2.651a.815.815 0 00-.103.413c0 .712.735 1.601 1.012 2.196.434.801.663 1.946 1.034 2.618-.035.348.816 1.187.684 1.55-.023.686.681 1.355.893 2.235.643 2.197 1.548 4.05 2.134 6.217.115.607.102.622-.553.622-.525 0-.709-.098-.837-.438-.093-.242-.383-.538-.646-.655-.932-.575-1.011-2.011-1.309-3.222-.288-1.371-.366-1.854-1.459-2.33-.872-.215-1.823-2.824-2.064-3.62-.259-1.029-1.177-2.707-1.496-3.742-2.14-6.192-5.831-11.957-8.233-18.057-.801-1.454-2.468-5.36-3.265-6.802-1.479-.477-3.122-.592-4.97-.673-1.063-.128-1.737-.169-2.338-.169-.973 0-1.76.109-3.7.146a75.81 75.81 0 00-4.688-.134c-4.978 0-9.8.393-14.911.393-4.463 0-9.186.051-13.995.051-8.946 0-18.178-.174-26.527-1.167-1.041-.209-1.767-.317-2.288-.317-1.765 0-1.179 1.22-2.607 3.704-.48 1.005-1.385 2.681-1.844 3.655-.453.543-.548.019-.288-.27.115-.115.215-.519.218-.891.014-.944.596-1.732 1.094-2.523.236-.359.43-.895.43-1.187-.017-.701.801-1.444.82-2.14.229-.699-1.002-.953-1.323-.632-.872 1.398-1.898 3.49-2.634 5.077-4.234 8.732-8.799 17.254-13.018 25.986-.836 1.852-1.631 2.598-2.494 4.029-.399.572-.61 1.756-1.148 2.232-1.093.98-.98 3.214-2.352 3.913l.01.024zm4.374-2.712v-.005c.03-1.293 1.041-3.204 1.7-4.411.661-1.193 1.95-2.409 2.202-3.904.668-2.159 2.005-4.264 3.11-6.174 1.258-2.417 2.613-5.448 4.102-7.777.857-.935 3.287-7.212 4.428-7.631-.432 2.146-2.437 4.921-3.287 6.958-1.661 3.608-3.763 7.577-5.698 11.107-1.396 2.524-2.486 5.158-3.975 7.621-.647 1.053-1.497 3.521-2.582 4.216zm626.144-.247l.002-.035c-2.029 0-2.156-3.576-3.284-4.992-.417-.849-.42-.915-.117-1.38.4-.613.431-1.295-.034-1.872-.765-1.283-1.011-2.746-1.079-4.379a2.606 2.606 0 01-.015-.267c0-1.176.82-2.716.496-3.572-.346-2.252.113-5.967.57-8.19.013-1.049-.558-2.071-.426-3.141a2.46 2.46 0 00.035-.383c0-.638-.335-.852-.162-1.538.165-.421.444-3.871.361-4.282-.017-2.69-.398-8.174.764-10.676-.101-.557-.704-.986-.752-1.712-.073-.451-.219-.718-.394-.718-.495.002-.616 2.432-.414 2.722-.014 6.839-.62 16.399-.504 23.228-.225 2.577-.196 8.175-.607 10.892-.154.931-1.491 3.284-2.083 3.922-.246.16-.447.231-.632.231-.495 0-.876-.513-1.702-1.24-1.378-1.7-2.511-.76-2.738-2.783-.359-1.729-.482-3.37-.482-4.991 0-2.847.381-5.635.544-8.74.154-1.683.194-3.682.194-5.774 0-2.215-.044-4.53-.044-6.68 0-1.677.026-3.251.122-4.596.098-.705.08-1.273-.049-1.558a1.745 1.745 0 01-.091-.591c0-.757.35-1.614.305-2.494.002-.119.005-.238.005-.355 0-1.062-.146-2.098-.146-3.178 0-2.169.54-5.362 1.239-7.554.225-.425.261-.903-.091-1.279-.357-.586-.713-1.85-1.322-.496-.219.944-1.043.93-.488 2.075.15.722.204 1.716.204 2.782 0 1.786-.15 3.778-.232 5.031-.256.647-.155 1.892-.448 2.448-.107.146-.081.46.069.82.16.507.218.976.218 1.431 0 1.393-.556 2.652-.419 4.53.013 6.333-.123 15.461-.384 21.895-.117 2.494-.318 4.339-.669 6.147-.569 2.18-.406 3.542-1.647 4.575-.586.236-1.294 1.47-1.939 1.297-.628-.24-2.137-1.905-2.379-2.593a4.92 4.92 0 01-.318-1.77c0-.914.195-1.928.243-3.724.178-2.848.491-20.864.376-23.369.236-11.362 1.242-23.733 1.828-35.521.647-13.029.804-29.522 2.218-42.524.169-1.654.58-5.066.63-6.54.031-.768.031-.768-1.409-.843-6.452.24-19.869-.325-31.724-.325-7.817 0-14.958.245-18.964 1.133a.415.415 0 01-.266.094c-.616 0-1.331-1.346-1.383-1.832-.263-.445-.345-.968-.345-1.525 0-1.122.345-2.381.278-3.413a1.885 1.885 0 01-.02-.301c0-1.018.502-3.063.131-3.653-.159-.255-.157-.472.014-.846a.609.609 0 00.119-.379c0-.551-.578-1.168-.274-1.64.29-.417-.141-1.62.174-1.989.164-.198.162-.388-.009-.764a.992.992 0 01-.112-.492c0-.727.508-1.691.42-2.354 0-.401-.11-.905-.243-1.12a.54.54 0 01-.089-.296c0-.609.977-1.291.909-2.083.171-1.137.404-1.115 1.403-.879 1.035.277 2.22.405 3.386.405 2.273 0 4.413-.133 6.484-.133 7.506 0 14.063.543 22.27.543 8.113 0 13.393.109 18.647.234.173.009.325.015.465.015 1.33 0 1.344-.486 2.343-.915.522-.088.814-.591 1.348-.437.813.128 1.163-.45 2.216-.09.792.176.986.161 1.28-.106.433-.421.723-.058 1.196-.311.67-.252.783.422 1.701.131 1.245-.434 2.993-.658 4.284-.674.127.014.255.019.388.019 1.6 0 3.546-.891 5.088-.883.123.015.25.022.379.022 1.145 0 2.599-.5 3.452.155 2.222.962 1.244 2.016 2.331 2.064 8.117-.469 16.746-.888 25.287-.888 6.104 0 12.161.213 17.955.779.819.014 1.839.141 2.264.279.215.112.569.152.998.152 1.093 0 2.657-.256 3.552-.229 4.479.369 9.458.902 13.873 1.418 3.681.44 8.58 1.005 12.267 1.437 2.987.346 6.595.387 9.382 1.299.294.137.5.13.675-.014.205-.267 1.723-.059 1.873.17-.544.541-1.504.365-2.783.48-2.143.123-2.354.208-4.223.334-1.395.377-2.996.864-4.308 1.12a.797.797 0 01-.41.111c-.498 0-1.006-.411-1.642-.403a2.495 2.495 0 00-.351-.025c-.819 0-.665.582-1.81.263a4.5 4.5 0 00-.733-.058c-1.111 0-1.816.421-3.704.264-.123.002-.242.002-.36.002-2.242 0-3.829-.446-5.712-.525-.747.023-1.871.207-2.217-.139-2.459-1.023-6.445-1.029-9.175-1.092-1.159-.1-3.579.493-4.443-.05-1.522-.592-2.884-.25-5.157-.421-4.365.006-11.395-.434-15.393-.249-.169.05-.341.068-.52.068-1.119 0-2.426-.829-3.846-.199-5.337.576-12.555.505-17.982.808-1.097.15-4.699-.034-4.993.72.316.293 1.064.391 2.015.391 2.367 0 5.996-.618 7.425-.459 4.734-.063 12.951-.238 19.929-.238 3.254 0 6.236.036 8.47.138.782.039 6.734.273 6.734.67 0 .112-.481.238-1.7.379-1.282.169-.822.719-2.74.613a430.077 430.077 0 00-6.674-.053c-3.666 0-7.491.133-13.618.133-3.256 0-4.284-.219-5.78-.203-1.76.747-5.525.604-7.7.753-1.491.02-3.658.14-2.077.989.508.092 1.224.125 2.016.125 1.79 0 3.984-.177 5.136-.273 1.009.244 3.474.319 4.45.582.219.131.506.131.878.002.112-.071.289-.102.5-.102.703 0 1.779.325 2.086.478-.926.732-4.609.493-5.622 1.113a.554.554 0 00-.084.271c0 .961 3.938.367 4.611.767.269.079.538.109.814.109 1.055 0 2.16-.456 3.261-.411 1.137.05 2.902.139 3.878.489.748.338 1.224.456 1.919.456.446 0 .98-.048 1.737-.123.857-.163 1.518-.231 2.044-.231 2.273 0 1.993 1.245 4.202 1.017 1.264-.256 3.086.32 4.206-.095.42-.146 1.06-.264 1.419-.264 1.135.075 1.135.725 2.562.689 1.583.256 3.789-.272 4.873.948.35.561.922.762 1.416 1.026 1.858.943 5.274.768 7.187 1.472.164.128.238.225.238.304 0 .459-2.62.11-3.961.233-5.228.119-3.176-.509-6.926-.799-1.936-.119-7.007-.187-8.833-.302-1.418-.104-3.066-.346-4.653-.346-1.276 0-2.509.158-3.549.669a.939.939 0 00-.14.448c0 1.158 3.621.555 4.28 1.062.898.538 1.63.06 2.346.07 2.113.319 4.551.534 6.916.534a31.76 31.76 0 003.224-.155c2.351.081 3.509.252 5.803.444 1.118.265 4.315.223 5.212.688.823.363 2.518.794 2.518 1.126 0 .171-.439.315-1.655.417-2.061.321-1.274-.51-3.053-.014-1.712.321-3.567.514-5.237.329a1.745 1.745 0 00-.543-.096c-.56 0-.788.363-1.589.186-3.512-.376-7.416-.408-10.914-.984-10.084.183-21.192.048-31.332.769-1.337.088-7.216.088-8.015.618-.647 1.766-.678 4.024-.999 6.202-1.37 10.021-1.449 20.484-2.202 30.545-.02 14.483-1.377 27.552-1.867 39.765-.373 10.574-.033 27.121-1.064 37.528.019 1.248.447 6.634.48 7.9.036 1.233.036 1.218-.822 1.218zm-511.217-2.885l-.001-.002c-.648-.352-.716-1.947-1.164-2.559-.319-.517.389-.102.565.278.267.39.84 1.885.6 2.283zm384.967-.399a.16.16 0 01-.044-.003l.003-.004c-1.003-.299.207-1.314.703-.615.07.193-.424.611-.662.622zm-163.629-.052c-3.344-.253-10.051-.512-13.375-1.142-.157-.064-.858-.094-1.551-.071-.14.013-.273.019-.403.019-1.428 0-2.215-.736-3.658-.938-6.974-1.143-13.84-2.995-20.224-6.096-3.068-1.346-6.291-3.548-9.123-5.252-.446-.123-2.469-2.193-2.918-2.37-1.403-.765-3.103-3.135-4.456-3.972-4.906-4.307-8.834-10.063-11.735-15.845-1.241-3.345-2.858-6.336-3.447-9.796-1.374-4.207-1.82-8.76-2.285-13.254-.471-6.027-1.216-12.284-1.216-18.359 0-12.551 5.198-24.865 13.859-34.087 2.277-2.96 2.828-1.037 4.955-2.67 4.494-3.57 3.825-1.969 8.192-3.423.964-.269 1.271-1.029 1.892-1.3 2.834-1.471 5.398-3.824 8.503-4.842 1.385-.507 2.307-1.808 4.128-1.943 2.35-.338 1.733-1.251 3.9-1.843 2.552-.778 3.399-2.21 6.048-2.71 1.861-.056 1.458-1.214 2.738-1.03.54.1.683.043.956-.374 1.347-1.201 3.36-1.53 5.182-1.741 1.642-.381 3.145-.702 4.513-1.599.494-.301 3.241-.495 3.675-.924 1.155-.651 2.793-.433 4.151-.964 1.721-.703 7.683-.134 8.111-1.921-.49-1.176-2.581-.311-2.979-1.613-.455-.671-1.245-.865-2.125-.865-1.248 0-2.675.398-3.562.399a.76.76 0 00-.202-.024c-.699 0-2.299.602-2.724.379-.219-.088-1.112-.155-1.984-.153h-.185c-.914 0-1.256-.074-1.256-.18 0-.273 2.25-.754 2.986-.727 1.354.048.864-.655 2.113-.808.14-.031.294-.043.457-.043.98 0 2.325.426 3.086.157.757-.345 2.831.36 3.496-.126.465-.388 1.846-.131 2.217-.49.046-.071.192-.107.393-.107.805 0 1.082.143 1.48-.22 3.298-1.233 8.09-1.089 11.946-.918 4.061.206 6.714.675 10.562.934.949.194 3.441.699 4.223.878.534.338 1.862.544 2.6.646 1.723.18 2.995 1.177 4.73 1.477.979.123 1.303.784 1.999.953 1.214.196 2.526 1 3.723 1.325 1.372.49 3.247.613 4.512 1.263.132.157.517.286.859.286.748-.033 1.926.633 2.604.78 3.145 1.166 6.954 3.679 9.745 5.404 1.635.738 3.126 2.324 4.546 3.544 1.52 1.293 3.451 2.813 4.64 4.425 4.559 5.494 8.464 11.796 9.88 18.881 1.228 5.17 1.378 10.088 1.399 15.738.092 1.854.125 2.757.125 3.468 0 1.064-.075 1.69-.146 4.437-.042 4.617.094 8.524-.903 12.561-.561 3.333-.847 7.258-2.253 10.274-.11 1.168-.583 2.588-.924 3.649 0 .482-.623.715-.573 1.249-1.082 3.442-3.106 6.625-5.162 9.597-4.505 7.627-11.187 14.884-17.89 20.557-1.11 1.35-2.313 2.103-3.756 3.306-.844.872-1.324.569-1.81 1.297-.098.263-.296.478-.442.478-.464.075-.944.87-1.528.901-.321.063-.633.295-.752.561-.945 1.037-2.767 1.973-3.987 2.764-15.279 8.861-28.117 11.573-45.599 12.144l.009.009zm416.505 0c-3.344-.253-10.051-.512-13.375-1.142-.157-.064-.857-.094-1.55-.071-.14.013-.273.019-.403.019-1.428 0-2.215-.736-3.658-.938-6.974-1.143-13.841-2.995-20.225-6.096-3.068-1.346-6.291-3.548-9.123-5.252-.446-.123-2.469-2.193-2.918-2.37-1.403-.765-3.102-3.135-4.455-3.972-4.906-4.307-8.834-10.063-11.735-15.845-1.241-3.345-2.859-6.336-3.448-9.796-1.374-4.207-1.819-8.76-2.284-13.254-.471-6.026-1.217-12.284-1.217-18.359 0-12.551 5.199-24.865 13.86-34.087 2.276-2.96 2.827-1.037 4.954-2.67 4.494-3.57 3.825-1.969 8.192-3.423.964-.269 1.272-1.029 1.893-1.3 2.834-1.471 5.398-3.824 8.503-4.842 1.385-.507 2.307-1.808 4.128-1.943 2.35-.338 1.733-1.251 3.9-1.843 2.552-.778 3.399-2.21 6.048-2.71 1.861-.056 1.458-1.214 2.738-1.03.54.1.683.043.956-.374 1.347-1.201 3.36-1.53 5.182-1.741 1.642-.381 3.144-.702 4.512-1.599.494-.301 3.242-.495 3.676-.924 1.155-.651 2.793-.433 4.151-.964 1.721-.703 7.683-.134 8.111-1.921-.49-1.176-2.582-.311-2.98-1.613-.455-.671-1.245-.865-2.125-.865-1.249 0-2.674.398-3.561.399a.76.76 0 00-.202-.024c-.699 0-2.299.602-2.724.379-.219-.088-1.112-.155-1.984-.153h-.185c-.914 0-1.256-.074-1.256-.18 0-.273 2.25-.754 2.986-.727 1.354.048.864-.655 2.113-.808.14-.031.293-.043.456-.043.98 0 2.325.426 3.086.157.757-.345 2.832.36 3.497-.126.465-.388 1.846-.131 2.217-.49.046-.071.191-.107.393-.107.805 0 1.082.143 1.48-.22 3.298-1.233 8.09-1.089 11.946-.918 4.061.206 6.714.675 10.562.934.949.194 3.441.699 4.223.878.534.338 1.861.544 2.598.646 1.724.18 2.996 1.177 4.73 1.477.98.123 1.306.784 2.001.953 1.214.196 2.526 1 3.723 1.325 1.372.49 3.246.613 4.51 1.263.133.157.519.286.861.286.748-.033 1.925.633 2.603.78 3.145 1.166 6.955 3.679 9.746 5.404 1.635.738 3.126 2.324 4.546 3.544 1.52 1.293 3.45 2.813 4.639 4.425 4.559 5.494 8.465 11.796 9.881 18.881 1.228 5.17 1.377 10.088 1.398 15.738.092 1.854.126 2.757.126 3.468 0 1.064-.075 1.69-.146 4.437-.042 4.617.093 8.524-.904 12.561-.561 3.333-.847 7.258-2.253 10.274-.11 1.168-.583 2.588-.925 3.649 0 .482-.622.715-.572 1.249-1.082 3.442-3.106 6.625-5.162 9.597-4.505 7.627-11.187 14.884-17.89 20.557-1.11 1.35-2.312 2.103-3.755 3.306-.844.872-1.324.569-1.81 1.297-.098.263-.296.478-.442.478-.464.075-.945.87-1.529.901-.321.063-.633.295-.752.561-.945 1.037-2.766 1.973-3.986 2.764-15.279 8.861-28.118 11.573-45.6 12.144l.009.009zm-256.998-.284a2.568 2.568 0 01-.448-.046 7.526 7.526 0 01-.274-.009l-.003.002c-1.495-.112-1.653-.937-3.248-.755-.232.048-.43.061-.599.047-.878-.063-1.031-.841-1.88-1.143-.285-.094-.557-.078-.637.034-.331.301-1.675.137-1.91-.32-.153-.507-1.758-.405-1.969-.704.384-.363 1.848-.149 2.396.11 2.006.294 4.273.881 6.409 1.192.177-.013.336-.014.482-.004 1.19.088 1.571.893 2.609 1.112.265.027.371.081.37.145-.011.153-.645.352-1.298.339zm12.915-1.407c-2.084.001-4.164-.05-5.868-.116l-.027.014c-1.346-.511-1.658-.65-1.969-.673-.298-.02-.594.066-1.8.033-1.036-.283-1.466-.782-2.69-.801a2.548 2.548 0 01-.328-.002c-1.089-.081-1.435-.87-2.319-1.303-2.129-.759-6.098-1.132-8.235-2.056-1.269-.267-1.966-.862-3.042-1.002-1.237-.26-1.981-1.235-3.566-1.32-2.284-.503-5.995-.791-8.153-1.051-4.215-1.454-9.549-2.438-13.602-4.399-.713-.456-2.002-.469-2.674-.74-1.766-.573-4.198-1.648-5.889-2.399-4.857-1.808-9.64-4.614-13.982-7.415-.755-.532-1.523-.753-2.436-1.458-.749-.542-1.026-.651-1.324-.519-.136.085-.347.102-.606.085-1.324-.1-3.801-1.187-2.785.652 1.831 4.013-6.273-4.454-6.089-5.341-2.407-3.489-3.336-7.999-3.007-12.362.133-1.77.471-3.517 1.001-5.161.356-.515.305-1.662 1.281-1.443a.378.378 0 01.204-.044c.38.027.43.808.367 1.679-.079 1.035-.32 2.193-.372 2.345-.298 5.297 2.462 5.599 4.672 9.089.538 1.126 1.11.817 2.203 2.033 1.856 1.677 2.285 1.617 4.225 2.992.987.83 3.133 2.574 4.141 3.118.796.359 2.133 1.137 2.751 1.811 1.493 1.149 3.559 2.448 5.123 3.593 1.538.68 1.744 1.187 3.139 1.756 4.088 2.006 8.987 3.398 13.307 4.912 3.372.919 7.841.689 10.99 2.415.774.326 3.736 1.458 4.28.776.367-.308.676-.392.974-.517.054-.263-.536-.787-.538-1.119a.536.536 0 00-.429-.375c-.405-.064-5.683-.348-5.45-1.036-.448-.709-1.423-.511-1.951-.92-.156-.152-.662-.417-1.125-.59-1.014-.497-2.498-.786-3.307-1.328-.002-.073.106-.092.287-.078.809.061 3.059.818 3.068.937 1.097.499 3.534 1.065 4.875 1.345.446.023 1.299-.038 1.458.185.207.345 1.024-.087 1.068-.333-.455-.906-2.348-.9-3.04-1.465-.376-.352-2.08-.554-2.435-.848-.129-.15-.041-.204.293-.177.433-.119.761-.155 1.055-.132.577.044 1.025.311 1.868.651 1.402 1.162 8.237 1.087 9.842 1.748.612.337 2.261.577 2.966.752.363.088.815.259.999.382.359.418 1.322-.517 1.303-.85-.824-1.133-2.649-.825-3.942-1.31-1.77-.434-2.955-.995-4.742-1.375-1.381-.119-1.453-.873-2.525-1.205-1.185-.363-5.159-.301-6.072-1.284-.188-.072-.423-.102-.676-.122-.625-.048-1.382-.015-1.948-.269-.878-.251-1.183-.602-1.882-.727a.867.867 0 01-.576-.33c-4.695-1.356-10.533-3.152-15.008-5.354-.908-.513-1.02-.705-2.114-.945-1.262-.29-1.454-.866-2.751-1.318-3.819-1.704-7.38-3.885-10.656-6.415-3.79-2.24-6.84-5.968-9.351-9.541-.559-.658-.765-1.138-.74-1.475.034-.495.578-.67 1.246-.62.688.05 1.506.34 2.048.773 1.572 1.248 2.565 2.393 4.3 3.408.369.269.791.718.945.99.372.686 1.199.898 1.724 1.463 1.642 1.464 3.982 2.457 5.878 3.42a.874.874 0 01.577.33c.478.488 1.125.293 1.751.91 1.186.949 2.81 1.416 4.078 2.148 1.687.882 3.479 1.796 5.217 2.649.993.339 1.481 1.125 2.53 1.324 1.237.308 1.176.719 2.669 1.007 1.381.342 3.721.726 4.897 1.335 1.402.864 3.546 1.206 5.092 1.431 1.743.384 3.853 1.557 5.53 1.972 1.001.372 2.693.505 3.99.781 3.31.692 7.168 1.908 10.399 2.678 1.818.139 4.409.722 6.152 1.283 4.413.85 9.252 1.58 14.086 1.943 4.046.302 8.084.35 11.869-.005 10.601-1.416 20.413-5.818 28.72-12.417 2.999-2.839 7.197-6.059 9.631-9.592 2.113-2.787 4.617-5.238 4.411-8.692-.207-6.282-2.567-12.43-8.161-15.746-1.136-.839-2.064-.833-2.911-1.402-.403-.413-1.654-.773-2.207-.88-2.471-.922-6.38-.937-8.974-1.425-6.918-.019-13.865 1.235-20.748 2.174-3.026.477-5.669 1.531-8.518 2.309-3.627.984-7.871 2.152-11.452 3.197-4.127.778-8.19 1.947-12.344 2.988-1.204.434-2.717.249-3.635.649-.638.369-1.117.116-1.968.479-6.154 1.214-12.717 1.886-19.126 1.406-5.7-.429-11.279-1.771-16.333-4.457-6.532-4.088-12.119-10.517-13.853-18.263-.442-1.7-.521-3.465-.389-5.244.219-2.915 1.008-5.863 1.702-8.614.885-4.813 2.346-9.109 3.553-13.76 2.851-13.274 14.057-22.947 26.183-28.061 6.101-2.542 12.115-4.42 18.605-5.346 5.594-1.353 11.228-1.768 17.412-1.305 10.027.753 19.844 2.865 29.465 5.472 6.161 2.163 12.144 4.666 18.18 7.296 1.817.836 4.04 1.518 5.473 2.698.761.449.371 2.48.213 3.141-.221.692-.468.722-.618 1.393-.079.353-.307.524-.949.708-1.014.246-1.351 1.011-2.081 1.553-.936.551-1.29.607-1.304.775-.009.163.301.43.722 1.365.315 1.793.929 3.456.523 5.458-.133.934-.338 1.781-.451 1.879-.386.626-.266 1.727-.698 2.597-.277.926-.742 1.266-.723 1.968.044.153-.034.465-.182.688-.759 1.335-1.001.555-1.916.184-1.07-.859-2.526-1.637-3.932-2.342-6.394-3.097-12.862-5.765-19.613-8.005-9.127-2.842-19.004-5.148-28.712-5.878a87.525 87.525 0 00-4.839-.226c-4.949.242-10.013.614-14.77 1.75-1.983.766-4.462.986-6.48 1.664-1.773.931-3.634 1.274-5.586 1.925-5.401 2.014-10.211 4.757-14.753 8.407-2.757 2.242-6.826 4.945-7.095 8.522-.061.83.078 1.704.486 2.63 2.455 7.168 9.46 13.329 16.533 15.792 3.46 1.271 7.249 1.965 11.122 2.255 5.775.433 11.737-.027 17.083-.797 3.351-.757 6.588-1.081 9.977-2.068 1.718-.46 3.129-.491 4.682-.822 2.053-.459 4.151-1.311 6.195-1.519 3.161-.647 6.559-2.102 9.825-2.757 3.154-.893 5.998-1.388 9.064-2.172 7.715-1.066 15.811-2.828 23.694-2.236 5.752.432 11.905 1.617 16.281 5.574 5.093 4.966 6.386 11.696 5.875 18.518-.393 5.241-1.858 10.54-3.483 15.134-.202 1.69-1.475 4.591-1.94 6.159-.415 1.183-.642 3.008-1.33 4.075-1.44 3.515-2.635 7.634-4.802 10.823-.761 2.113-2.853 4.274-4.273 5.927-2.468 3.258-5.408 5.923-8.758 8.914-4.686 4.263-9.341 6.215-14.39 9.46-.384.194-.943.336-1.237.317-.901-.013-1.579 1.076-2.542 1.335-2.372.726-4.495 1.071-6.877 1.897-1.877.202-3.674.52-5.465.895-1.718.142-3.806.195-5.889.196zm-381.218-.279c-.917-.428-2.322-8.166-.608-3.832.098.953 1.48 2.971.606 3.828l.002.004zm219.094-1.568c.612-.556.793-.021 1.394-.36a.823.823 0 01.331-.076c.464 0 .82.44 1.707.171.992-.254 4.229.059 4.909-.594.907-.617 1.56-.566 2.582-1.345 1.735-1.114 3.652-.709 5.431-1.673.494-.323 1.639-.691 2.163-.945.538-.297 1.618.167 2.077-.331 1.412-.985 3.539-1.749 5.103-2.431 1.101-.434 2.136-.412 3.158-1.002.29-.226.724-.414.964-.414.469.061 1.548-.992 1.89-1.119 1.385-.732.921-.092 2.028-.126.543-.156.628-.907 1.287-.869.769-.028 2.437-1.229 3.123-1.581 3.233-2.215 6.451-4.522 9.421-7.056 1.149-.865 1.591-1.377 1.591-1.65 0-.181-.197-.256-.516-.256-.625 0-1.708.285-2.659.608-.553.086-4.796 3.573-5.195 3.796-.123.052-.453.328-.731.612-.483.586-1.693.872-2.062 1.456-.429.615-1.259.565-1.899 1.151-2.488 1.643-5.169 3.054-7.821 4.382-3.532 1.934-7.48 3.406-11.332 4.399-1.739.49-3.266.879-4.993 1.509-.932.39-1.915.188-2.799.638-.59.476-5.011.353-5.812.505a1.785 1.785 0 01-.311.024c-.966 0-2.465-.587-3.24-.287a6.368 6.368 0 01-1.38.192c-.992.013-.855.321-1.912.528-1.281.398-3.356-.088-4.296.857a.77.77 0 00-.082.313c0 .832 2.326.448 3.539.536h.858c1.864 0 2.483.048 3.474.425l.01.013zm416.504 0c.613-.556.794-.021 1.395-.36a.823.823 0 01.33-.076c.465 0 .822.44 1.709.171.992-.254 4.228.059 4.908-.594.907-.617 1.561-.566 2.583-1.345 1.735-1.114 3.652-.709 5.431-1.673.494-.323 1.638-.691 2.162-.945.538-.297 1.619.167 2.078-.331 1.412-.985 3.538-1.749 5.102-2.431 1.101-.434 2.136-.412 3.158-1.002.29-.226.725-.414.965-.414.469.061 1.548-.992 1.89-1.119 1.386-.732.921-.092 2.028-.126.543-.156.627-.907 1.286-.869.768-.028 2.438-1.229 3.124-1.581 3.233-2.215 6.451-4.522 9.421-7.056 1.149-.865 1.591-1.377 1.591-1.65 0-.181-.197-.256-.516-.256-.625 0-1.708.285-2.659.608-.553.086-4.796 3.573-5.195 3.796-.123.052-.454.328-.733.612-.482.586-1.691.872-2.06 1.456-.429.615-1.259.565-1.899 1.151-2.488 1.643-5.169 3.054-7.82 4.382-3.534 1.934-7.481 3.406-11.333 4.399-1.739.49-3.267.879-4.994 1.509-.932.39-1.915.188-2.799.638-.59.476-5.01.353-5.811.505-.096.017-.2.024-.312.024-.966 0-2.464-.587-3.239-.287a6.368 6.368 0 01-1.38.192c-.992.013-.856.321-1.913.528-1.281.398-3.355-.088-4.295.857a.774.774 0 00-.083.313c0 .832 2.326.448 3.539.536h.858c1.864 0 2.482.048 3.474.425l.009.013zm-754.527-4.641c-.125 0-.175-.062-.175-.163 0-.337.542-1.097.749-1.461.813-.991 1.182-3.556 2.436-3.919-.006.734-.618 1.444-.895 2.149-.525 1.023-.686 2.95-1.909 3.357a.769.769 0 01-.201.034l-.005.003zm186.475-1.71h.002a18.376 18.376 0 012.483-.102c.549.009 1.105.032 1.743.044.839.015 1.819.01 3.131-.071 3.791-.136 7.171-.715 10.32-1.014 3.783-.338 6.89-1.601 10.371-2.675 1.914-.978 4.73-1.438 6.548-2.46 1.663-1.407 4.104-2.335 6.135-2.974a.5.5 0 01.2-.041c.788.013.761 2.298 1.789.834.263-.336.517-.417.78-.415.258.006.528.094.823.1.408.006.867-.141 1.422-.871 1.704-1.443 3.088-3.788 4.598-5.225.673-.43.751-1.157 1.257-1.778.367-.655 1.048-.399 1.446-.733.311-.73-2.297-1.478-2.555-.346-1.13 1.708-2.882.35-4.254 2.064-3.389 3.379-7.583 6.41-11.932 8.206-.628.377-3.573.801-4.282 1.211-1.354.62-1.466 1.076-3.274 1.095-.081-.002-.159-.004-.234-.004-1.431 0-1.779.654-2.842.856-1.031.319-2.369.965-3.558 1.102-.734.205-3.6.395-4.214.837-.292.448-3.062.096-3.5.363a89.016 89.016 0 01-7.215.316c-2.948 0-5.944-.192-8.159-.772a.827.827 0 00-.476-.158c-.586-.009-1.197.531-1.996.399-.529-.002-1.15-.103-1.382-.222a1.612 1.612 0 00-.546-.094c-.763-.016-1.627.361-2.576.184-1.162.127-5.102-.936-7.654-.984l-.176-.001c-1.086 0-1.885.201-2.052.791-.006.294.196.434.887.621 1.045.259 1.672.706 2.605 1.039.233.044.425.063.592.065.967.019 1.047-.553 3.101-.161 3.607.442 9.145.868 12.644.974zm260.602-.345l.005-.003c-.359-.038-2.949-.736-3.112-1.154-.027-.121.071-.154.248-.143.472.037 1.504.414 2.156.385 1.819.077 2.607.837.703.915zm-331.34-.708c-.421 0-.797-1.879-.975-2.298-.655-2.234-1.989-4.223-2.511-6.349.517-.141.469.726.914.945.4.332 1.472 2.036 1.257 2.601-.071.369.036.706.361 1.134.586.722.33 1.007.785 1.715.342.709.696 1.396.36 2.109-.063.092-.127.133-.189.133l-.002.01zm326.185-1.249c-.415-.067-.914-.661-1.506-.634-1.12-.307-2.65-.886-3.689-1.372-.726-.611-2.221-.674-2.926-1.3-.328-.356-.958-.34-1.246-.799-.506-.586-2.225-.652-2.911-1.169-.455-.315-1.528-.901-.873-1.166.177-.052.461.047.628.222.412.438 1.667.301 2.149.626.638.359 1.045.447 1.659.978.707.601 1.778.561 2.583.96 1.055.703 2.736 1.341 4.015 1.434.828.192 1.934.601 2.205 1.431.019.396.229.654-.09.787l.002.002zm-117.961-.192c.333-.167.638-.217.953-.217.582 0 1.191.177 2.009.119 1.036-.067 2.802-.079 3.634-.327.361.05.721.073 1.085.073.993 0 2.004-.163 3.097-.313a2.73 2.73 0 01.514-.053c1.074 0 .948.883 2.569.141 3.46-1.005 7.387-1.347 10.889-2.087 1.124-.29 1.372-.448 2.452-.846 1.07-.419 1.968-.156 2.988-.769 2.082-.908 4.533-1.795 6.581-2.708 1.382-.372 2.871-1.13 4.123-1.768 1.155-.397 2.724-.313 3.698-1.394.359-.319.774-.577.92-.577.351.006 1.747-1.279 2.068-1.347.544-.259 1.921-1.784 2.637-1.924 2.999-1.687 5.712-4.02 8.674-5.791.673-.686.957-.24 1.543-.578.774-.534 1.072-.696 2.055-1.662 1.066-1.035 1.067-1.036.667-1.435-.329-.329-.46-.359-.731-.171-.851.525-1.481.84-2.577 1.689a118.866 118.866 0 01-12.067 8.732c-.678.395-1.197.685-1.727 1.075-.417.304-1.802.628-2.204 1.018-1.277 1.069-3.287 1.553-4.706 2.36-.621.123-1.74.692-2.213 1.126-1.887.901-4.718 1.548-6.714 2.27-1.316.494-2.579.871-4.034 1.249-.528.073-1.087.248-1.246.388-.844.473-1.464.196-2.88.482-2.002.388-3.252.58-5.012.951-.459.228-1.895-.123-2.379.162-2.163.424-6.797.962-8.902.791a5.86 5.86 0 01-.988.063c-1.523 0-3.848-.288-4.962-.442-1.604-.232-1.604-.232-2.104.267-.246.198-.347.366-.347.506 0 .669 2.267.78 2.63.937l.007.01zm416.506 0c.333-.167.637-.217.952-.217.582 0 1.192.177 2.01.119 1.036-.067 2.802-.079 3.634-.327.361.05.721.073 1.085.073.993 0 2.004-.163 3.097-.313a2.73 2.73 0 01.514-.053c1.074 0 .948.883 2.569.141 3.46-1.005 7.387-1.347 10.889-2.087 1.124-.29 1.372-.448 2.452-.846 1.07-.419 1.967-.156 2.987-.769 2.082-.908 4.533-1.795 6.581-2.708 1.381-.372 2.871-1.13 4.123-1.768 1.155-.397 2.725-.313 3.699-1.394.359-.319.774-.577.92-.577.351.006 1.746-1.279 2.067-1.347.543-.259 1.922-1.784 2.638-1.924 2.999-1.687 5.712-4.02 8.674-5.791.673-.686.957-.24 1.543-.578.774-.534 1.072-.696 2.055-1.662 1.066-1.035 1.067-1.036.667-1.435-.329-.329-.461-.359-.732-.171-.851.525-1.479.84-2.576 1.689a118.88 118.88 0 01-12.068 8.732c-.678.395-1.196.685-1.726 1.075-.417.304-1.802.628-2.204 1.018-1.277 1.069-3.287 1.553-4.706 2.36-.621.123-1.741.692-2.214 1.126-1.887.901-4.718 1.548-6.714 2.27-1.316.494-2.578.871-4.033 1.249-.528.073-1.087.248-1.246.388-.844.473-1.464.196-2.88.482-2.002.388-3.253.58-5.013.951-.459.228-1.894-.123-2.378.162-2.163.424-6.797.962-8.902.791-.25.046-.593.063-.989.063-1.523 0-3.847-.288-4.961-.442-1.604-.232-1.604-.232-2.104.267-.246.198-.348.366-.348.506 0 .669 2.267.78 2.63.937l.008.01zm-737.256-2.321c-.038.006-.063-.009-.072-.046l.004.004c.651-1.425 1.652-3.107 2.225-4.513.063.061.09.221.09.436 0 .663-.254 1.835-.367 2.064.036.109-1.515 1.999-1.88 2.055zm425.108-4.43c-.11.001-.25-.014-.427-.048l.001-.002c-.743.255-10.31-5.588-7.741-5.769 1.172.534 2.161 2.355 3.788 2.209.566-.111 6.024 3.593 4.379 3.61zm-58.315-1.397c.071.002.15-.002.234-.012h-.009c.272-.065.669-.286.888-.487.652-.54 1.526-.254 2.273-.849.39-.264.898-.479 1.134-.479.682-.042 1.835-1.024 2.533-1.212 3.344-2.019 5.392-3.537 8.495-6.37 2.561-3.005 3.232-.543 5.073-2.683.223-.513 1.135-1.246 1.69-1.252.713.002.972.698 1.774.106 1.183-.657 2.403-1.925 2.985-3.109 1.935-1.617 1.725.215 3.591-2.959.672-1.01 1.512-1.833 1.7-2.827-.058-.753-.528-1.103-1.256-.312-1.382 1.088-4.159 1.265-5.832 1.878-.95.232-1.48.413-1.801 1.164-.286.62-1.396 1.22-1.734 1.894-.857 1.105-1.722 1.137-2.969 2.482-1.498 1.443-1.466 1.439-2.69 2.675-1.921 1.604-4.011 3.366-6.144 4.764-1.584 1.293-3.031 2.463-4.756 3.306-.604.246-.702.79-1.174.915-.352.006-.88.811-1.279.766-.657.118-1.514 1.071-2.307 1.213-1.155.164-1.495 1.365-.419 1.388zm416.505 0c.072.002.15-.002.234-.012h-.009c.272-.065.67-.286.889-.487.652-.54 1.526-.254 2.273-.849.39-.264.897-.479 1.133-.479.682-.042 1.835-1.024 2.533-1.212 3.344-2.019 5.392-3.537 8.495-6.37 2.561-3.005 3.233-.543 5.074-2.683.223-.513 1.135-1.246 1.69-1.252.713.002.973.698 1.774.106 1.183-.657 2.403-1.925 2.985-3.109 1.935-1.617 1.725.215 3.591-2.959.672-1.01 1.512-1.833 1.7-2.827-.058-.753-.528-1.103-1.256-.312-1.382 1.088-4.16 1.265-5.834 1.878-.949.232-1.479.413-1.8 1.164-.286.62-1.396 1.22-1.734 1.894-.857 1.105-1.722 1.137-2.969 2.482-1.498 1.443-1.465 1.439-2.688 2.675-1.922 1.604-4.012 3.366-6.145 4.764-1.584 1.293-3.031 2.463-4.756 3.306-.604.246-.702.79-1.174.915-.352.006-.88.811-1.279.766-.657.118-1.515 1.071-2.308 1.213-1.155.164-1.494 1.365-.419 1.388zm-459.216-.715c.232.001.39-.041.526-.124.194-.123 1.003-.221 1.799-.221 2.013-.11 1.451.703 3.474.046 3.443-.966 7.689-.926 11.105-1.854 4.126-.87 8.184-1.687 12.026-3.433 2.809-1.001 5.673-1.758 8.263-3.232 2.582-1.454 5.206-2.687 7.579-4.481 3.276-1.896 6.753-4.409 9.679-6.728 1.527-.723 4.029-3.672 5.637-4.281.657-.367 1.789-2.303 2.569-2.761 1.428-1.285 3.046-3.591 4.473-4.842 2.826-3.677 6.012-6.792 8.366-11.015 2.787-4.04 4.089-7.127 5.81-11.524.496-1.612 1.439-3.741 1.764-5.322a4.884 4.884 0 01-.004-.196c0-.582.112-1.825.112-2.899 0-.861-.071-1.613-.33-1.842-.219-.432-.315-.881-.24-1.117a.925.925 0 00.024-.209c0-.511-.496-.843-.632-1.422-.594-1.231-1.362-3.615-2.181-4.687-.319-.313-1.377-1.773-1.346-2.263-.031-.517-1.014-1.23-1.168-1.72-.092-.24-.3-.49-.463-.552-.376-.119-.796-1.224-1.166-1.347-.438-.135-1.072.677-1.466.767-.578.214-.398 1.807.376 1.53.212-.08.262.024.214.445.019.993-1.286.133-1.378 1.13-.219 1.245-.824 1.889-2.008 1.053-1.373-1.134-1.809-3.599-2.994-5.019-1.533-1.817-2.627-3.054-4.458-4.631-5.844-5.11-12.987-9.004-19.953-12.368-1.307-.504-1.333-.594-3.103-.949-2.855-.555-4.998-2.152-7.673-2.824a97.062 97.062 0 00-19.102-1.914c-9.323 0-18.659 1.386-27.454 4.352-3.455 1.214-7.005 1.682-10.084 3.503-1.503.721-4.298 1.805-5.802 2.527-.442.237-.998.43-1.232.43-.628.019-1.153.688-1.696.99-3.145 1.014-4.89 2.341-8.07 4.051-3.062 1.476-4.764 3.556-7.425 5.018-3.064 1.649-5.654 5.545-8.395 7.673-2.106 1.568-3.608 4.15-5.254 6.086-3.451 4.202-6.239 9.517-7.964 14.682-.595 2.1-1.485 4.501-1.091 6.72.24.976-.357 1.134.06 2.049.284.628.451 2.328.803 2.862.144.167.263.534.265.818-.106.932 1.013 1.893.959 2.8.675 2.044 2.507 5.45 3.948 7.133.297.307.553.726.567.93.053.507 1.125 1.796 1.378 2.217 5.114 7.34 12.786 13.185 20.621 17.386 7.961 3.712 16.506 6.23 25.253 7.542.934.448 6.315.246 7.086.697.184.156.642.157 1.701-.001.38-.08.705-.113.999-.113 1.059 0 1.685.417 2.782.397l-.002-.026c1.087-.15 1.694-.31 2.945-.043.432.083.739.126.971.126zm416.506 0c.233.001.39-.041.526-.124.194-.123 1.002-.221 1.797-.221 2.014-.11 1.453.703 3.476.046 3.443-.966 7.689-.926 11.105-1.854 4.126-.87 8.184-1.687 12.026-3.433 2.809-1.001 5.673-1.758 8.263-3.232 2.582-1.454 5.206-2.687 7.579-4.481 3.276-1.896 6.753-4.409 9.679-6.728 1.527-.723 4.028-3.672 5.636-4.281.657-.367 1.791-2.303 2.57-2.761 1.428-1.285 3.046-3.591 4.473-4.842 2.826-3.677 6.011-6.792 8.364-11.015 2.788-4.04 4.091-7.127 5.812-11.524.496-1.612 1.439-3.741 1.764-5.322a4.884 4.884 0 01-.004-.196c0-.582.111-1.825.111-2.899 0-.861-.071-1.613-.33-1.842-.219-.432-.315-.881-.24-1.117a.925.925 0 00.024-.209c0-.511-.495-.843-.631-1.422-.594-1.231-1.362-3.615-2.181-4.687-.319-.313-1.377-1.773-1.346-2.263-.031-.517-1.015-1.23-1.169-1.72-.092-.24-.3-.49-.463-.552-.377-.119-.795-1.224-1.165-1.347-.438-.135-1.073.677-1.467.767-.578.214-.397 1.807.377 1.53.212-.08.261.024.213.445.019.993-1.285.133-1.377 1.13-.219 1.245-.824 1.889-2.008 1.053-1.373-1.134-1.81-3.599-2.995-5.019-1.533-1.817-2.626-3.054-4.457-4.631-5.844-5.11-12.987-9.004-19.953-12.368-1.307-.504-1.333-.594-3.103-.949-2.855-.555-4.998-2.152-7.673-2.824a97.062 97.062 0 00-19.102-1.914c-9.323 0-18.66 1.386-27.455 4.352-3.455 1.214-7.005 1.682-10.084 3.503-1.503.721-4.298 1.805-5.802 2.527-.442.237-.997.43-1.231.43-.628.019-1.154.688-1.697.99-3.145 1.014-4.889 2.341-8.069 4.051-3.062 1.476-4.764 3.556-7.425 5.018-3.064 1.649-5.654 5.545-8.395 7.673-2.106 1.568-3.608 4.15-5.254 6.086-3.451 4.202-6.239 9.517-7.964 14.682-.595 2.1-1.485 4.501-1.091 6.72.24.976-.357 1.134.06 2.049.284.628.451 2.328.803 2.862.144.167.263.534.265.818-.106.932 1.012 1.893.958 2.8.674 2.044 2.508 5.45 3.949 7.133.297.307.552.726.566.93.053.507 1.126 1.796 1.379 2.217 5.114 7.34 12.786 13.185 20.621 17.386 7.961 3.712 16.505 6.23 25.252 7.542.934.448 6.315.246 7.086.697.184.156.643.157 1.702-.001.38-.08.705-.113.999-.113 1.059 0 1.685.417 2.782.397l-.002-.026c1.087-.15 1.694-.31 2.945-.043.432.083.739.126.971.126zm-638.512-13.004c.996.009.13-1.379-.291-1.604-1.089.181-1.011 1.5.19 1.596l-.001.003c.036.003.07.005.102.005zm-53.929-11.306c.128.001.26-.001.399-.008l.002-.005c3.266-.161 7.344-.029 10.635-.461 1.268.202 2.064.263 2.9.263 1.38 0 2.864-.163 6.766-.115a83.847 83.847 0 012.48-.036c1.227 0 2.207.022 2.959.022 1.523 0 2.099-.098 1.846-.701-1.04-.16-2.823-.207-4.842-.207-4.178 0-9.373.213-11.129.131-2.788-.077-5.984.029-9.043.029-1.936 0-3.815-.041-5.497-.199a5.845 5.845 0 00-1.116-.116c-1.234 0-1.82.507-3.539.47-1.297.033-1.632.096-1.632.321.886.822 2.702.35 4.8.473.382-.018.718-.026 1.023-.026 1.391 0 2.091.159 2.988.165zm48.813-1.595c.668.005.545-.402.143-.779-.359-.349-4.153-.778-4.983-.659.446 1.498 3.425 1.218 4.693 1.431h.002c.052.004.1.006.145.007zm-23.529-1.744l.005-.002c.734 0 1.265-.084 1.618-.543.054-.363-1.353-.408-1.729-.466-6.359.177-6.914.238-6.914.48.84.812 2.519.345 4.609.529.319-.019.619-.024.899-.024.577 0 1.08.026 1.512.026zm-41.518-2.57l-.006-.009c11.643-.223 29.874.005 41.563-.611a2.44 2.44 0 00.063-.506c0-.534-.336-.824-1.567-.801-.896-.029-3.882-.173-4.502-.434.082-.313 4.706-.279 4.798-.463.852-.125.35-.467.058-1.197-1.74-4.71-4.023-9.31-5.967-13.913-1.176-2.909-2.639-5.673-3.704-8.616-.376-1.593-1.675-3.634-2.261-5.307a112.735 112.735 0 00-2.142-5.752c-.851-2.816-2.259-5.298-3.16-8.066-.6-1.508-1.356-4.499-2.223-5.884-.411-.596-.253-1.367-.565-1.795-.103-.064-.189-.258-.189-.425-.127-.657-.618-.941-.841-1.823-.367-1.341-1.162-2.152-1.271-3.481 0-.285-.15-.573-.357-.684-.613-.477-.473-1.335-.953-2.123-.429-.713-.778-2.78-1.374-1.254-.044.38-.828.885-.766 1.368 0 .242-.085.492-.191.555-.306.346-.144 1.076-.48 1.558-.536 1.425-1.21 2.48-1.677 3.951-.302.888-1.399 2.029-1.754 2.867-.348.651-.577 3.457-.963 4.058-.315.419-1.024 2.821-1.362 3.208-.363.476-.85 2.42-1.349 2.879-.242.263-.496.652-.563.863-.582 1.66-1.211 3.756-1.849 5.451-.14.463-.449.966-.681 1.12-.657.505-.59 1.692-1.162 2.392-.576.956-1.275 1.786-1.291 2.846.115 1.475-1.614 3.321-1.908 4.719-.085.771-.42.854-.489 1.433.071.222-.612 1.079-.579.47-.04-.469.865-1.388.431-1.832-.204-.323-.162-.498.29-1.184.883-1.59 1.006-2.867 1.678-4.568 2.323-4.336 4.398-9.079 6.208-13.651.272-.634.106-1.549.426-2.035a.618.618 0 00.162-.468c.075-1.189.503-2.837 1.032-4.005.188-.538 1.137-2.485 1.014-3.023-.822-.089-.995.781-1.262 1.582-2.59 6.402-5.072 13.001-8.065 19.18-2.406 6.883-6.154 13.493-9.145 20.213-1.316 2.383-1.51 3.323-2.857 5.907-.634 1.769-2.555 3.18-.182 3.309 3.971.897 8.81.233 12.81 1.36.684.216 15.287-.27 16.28.049.164.249 5.515-.425 5.175.157.131.54 2.469.198 2.784.474.947.24 1.33.452-.099.667-3.589.144-8.338.171-12.008.277-2.438-.012-3.75-.338-5.362-.338-.628 0-1.302.048-2.109.189-.2.14-6.346-.181-5.668.57 0 .238.055.487.125.567l-.042.001.048.008zm27.672-1.342c-.335-.006-.578-.094-.488-.441-.059-.131.985-.215 1.952-.215.897 0 1.729.071 1.564.242-.394.42-1.745.208-2.373.377l-.002.002c-.217.015-.451.04-.653.035zm30.337-12.307c-.399.061-1.084-1.962-1.093-2.128 0-.302.057-.42.142-.42.276 0 .851 1.229.778 1.475-.083.411.599.706.248 1.03v.002a.134.134 0 01-.075.041zm95.447-.416c-2.286 0-4.557-.027-6.797-.085-1.813-.109-7.889-.567-9.779-.813-2.721-.137-5.721-1.305-8.228-.929a1.517 1.517 0 01-.6.124c-.612-.014-1.079-.462-1.548-.863-.253-.291-.302-.75-.252-3.318-.025-4.425.726-6.346.542-9.994.054-.467.275-8.772.943-8.478.617-.342 1.143-.461 1.654-.452 1.145.023 2.217.688 4.098.913 1.418.282 3.005.616 3.529.739 5.172.802 10.657 1.09 16.136 1.198 4.956.096 9.91.04 14.626.076 5.762.054 10.996-.681 16.831-.862.878-.102 2.181-.131 3.666-.131 1.748 0 3.75.04 5.606.04 2.307 0 4.389-.061 5.488-.332 1.821-.673 3.858-.596 6.419-.721.825-.004 1.445-.022 1.91-.022 1.533 0 1.417.194 1.55 1.683-.04.638.538.836.323 1.496-.609 1.32-1.668.868-1.361 2.943-.004.313-.082.473-.257.614-1.835.801-5.769.937-7.813 1.026-.11.019-.216.024-.318.022-1.066-.017-1.848-1.029-2.722-.958-.931.328-1.84 1.16-3.073 1.383-1.097.376-2.16.088-2.896.582-.088.08-.129.152-.129.213 0 .332 1.129.434 2.566.461 1.333.027 2.929-.011 4.126.012.809.015 1.439.06 1.681.167.06.052.219.069.438.075 1.145.019 3.924-.406 2.603.486-.254.092-.774.259-1.154.371-2.096.384-5.68.472-7.768.849-.336.438.421 1.259.919 1.213.661-.009.92-.407 1.669-.461.857-.163.857.354 1.637.197.999-.242 1.229-.381 2.584-.369 1.341.109 2.671.421 3.764.797.169.175.328.175.681-.006.377-.184.98-.311 1.092.102-1.174.778-8.459.408-9.958.55-1.114.006-1.247.053-1.933.718-.678.657-.708.732-.405.968.477.26 1.267.418 2.054.431.782.015 1.56-.11 2.024-.412.21-.065.609-.087 1.119-.087 1.769 0 4.893.307 5.78.24.092-.002.182-.005.266-.005 1.112 0 1.662.196 1.637.942-.542.255-5.228.662-6.252.589-.726-.023-2.149-.307-2.276.546.144.459.686.606 1.45.606 1.443 0 3.673-.531 5.514-.531 1.539 0 2.797.373 3.105 1.731-1.042 2.267-5.81 2.027-8.165 2.077-4.788.809-9.283.823-14.336 1.14-10.382.88-21.413 1.479-32.041 1.479l.031.03zm-159.04-.519v-.003c-.104-.121-.148-.283-.148-.475 0-.839.856-2.203 1.242-2.693.308-.148.501-2.196.978-1.848-.285 1.519-1.335 3.615-2.072 5.019zm656.5-67.993l-.005-.002c-1.464 0-1.628-.198-2.83-.526-2.037-.442-3.12.288-5.42-.052-.722-.197-7.027-.276-5.884-1.203.688-.414 20.183 1.378 14.139 1.783zM322.979 512.498a42.716 42.716 0 01-1.678-.028l.002.024c-8.326-.818-16.397-4.762-22.231-10.758-1.917-1.904-5.184-4.594-5.916-7.268-.075-.607-.796-1.159-.961-1.702a1.868 1.868 0 00-.405-.677 40.085 40.085 0 01-1.793-5.452 26.557 26.557 0 01-.147-2.81c0-2.097.245-4.311.842-6.295-2.157-.353-1.833-3.343-3.362-4.79-.415-.454-.529-.917-.537-1.376-.005-.53.132-1.053.126-1.539-.006-.515-.177-.991-.856-1.391-.734.332-.944.712-.944 1.15 0 .604.403 1.315.413 2.159.007.459-.104.958-.463 1.499-.308-.257-.382-1.889-.746-2.227-.42-.8-.572-5.539-2.103-2.817-.202.425-.378 1.161-.398 1.635-.14.634.227 1.12-.293 1.155-.571-.219-.649-2.364-1.579-2.03-.486.237-.869 3.27-1.638 1.776-.215-.573-.689-1.605-.895-2.147-.213-.061-.912.402-.849.733-.044.578-.626.803-.861 1.404-.2.4-.317.509-.753.515-1.067.013-1.116-.086-1.328.586-.407 1.057-.835 1.464-1.242 1.47-.88.013-1.672-1.823-2.018-3.013-.346-.643-.14-2.903-.413-3.495-.336-1.008.784-3.292-.181-4.165-.119-.105-.207-.172-.335-.17-.264.002-.698.285-1.902 1.11-9.642 6.864-20.979 9.03-32.672 9.03-8.262 0-13.653-1.011-20.089-3.629-.655-.369-.855-.185-1.614-.558-.756-.303-1.006-.797-1.775-.81-2.83-.711-5.673-3.791-7.988-5.495-7.344-5.821-10.137-14.626-10.5-23.722-.338-3.368-.818-8.137-.818-12.767 0-3.777.321-7.44 1.308-10.125.256-1.885.769-3.689 1.259-5.385.434-1.334 1.348-2.627 1.773-4.017.092-.944.766-.902 1.3-1.382.529-.429 1.134-.183 1.616-.782.267-.171.328-.496.323-.873-.01-.783-.317-1.797.317-2.12.849-.657-.138-1.185.863-1.687 1.168-1.214 2.968-3.428 4.43-4.627 7.558-6.983 16.62-12.45 25.874-16.82 6.692-3.18 14.28-5.368 21.676-5.368 5.875 0 11.658 1.375 16.828 4.735 4.211 2.475 8.597 6.261 10.314 10.97.208.699.622.937.932 1.809.317 1.116 1.024 1.04.707 2.222-.136.672-.684 2.42-.914 2.966-.625.891-3.035 1.516-1.781 3.032.915 1.45 1.753 2.377 2.061 4.064.078.857 1.009 2.736.586 3.449-.763 1.199.301.607.541 1.329-.722.302-1.128-.221-2.006.847-2.385 3.472-3.373-6.445-17.268-11.481-3.401-1.337-7.07-1.853-10.774-1.853-3.778 0-7.565.536-11.133 1.295-1.756.29-3.037 1.421-4.631 1.652-.805.048-1.961.749-2.917.755-.062-.006-.123-.006-.185-.006-1.141.016-2.264 1.218-3.081.893a.81.81 0 00-.286-.046c-.826.012-2.161 1.063-3.035 1.434-1.132.628-2.077.995-2.894 1.564-.592.401-.972-.164-1.562.604-.661.782-1.846.635-2.644 1.194-1.1.739-2.445 1.435-3.568 2.098-.652.236-2.462 2.157-3.127 2.246-.188.003-.905.595-1.591 1.317-.685.721-1.4 1.358-1.591 1.412-.722.403-1.012 1.295-1.843 1.991-.467.453-.949.869-1.068.925-.338.183-.867.994-1.353 1.021-1.005.522-3.148 2.976-4.122 3.504-.782 1.241-1.647 2.202-2.408 3.591-.609 1.135-.798 2.163-1.453 3.17-1.233 2.288-2.042 5.649-2.042 8.095 0 2.065 1.778 4.447 2.696 6.195 3.345 4.429 8.07 8.46 13.182 10.564 6.136 2.831 13.061 3.953 19.994 3.953 5.777 0 11.552-.776 16.891-1.993.686-.403 2.115-.693 2.897-.885.745-.133 2.162-1.034 2.861-1.174.475-.031.749-.482 1.135-.35.11.068.478-.092.816-.351.747-.6 1.253-.539 1.989-1.073 4.232-2.119 6.564-4.425 10.341-8.089 2.578-2.626 2.583-2.63 2.685-3.681.647-3.546.179-16.671.519-20.327.083-.138.672-.31 1.302-.381 1.429-.123 1.34-.552 2.66-.744.188-.025.348-.034.484-.034 1.042-.015.865.502 2.562.344 3.759-.561 7.709-.745 11.599-.599.208-.027.404-.037.59-.037 2.392 0 2.909 2.067 2.942 4.44.002.088.001.181.001.271 0 1.873-.263 3.892-.122 5.216-.054 8.708-1.597 16.887-1.693 25.578-.25 3.658-.475 8.239-.475 12.712 0 3.489.136 6.904.509 9.761 0 .373.046.753.111 1.129a6.028 6.028 0 011.012-1.61c.126-.246.237-.345.335-.339.465.034.602 2.476.283 2.92-.72 2.067-1.324 4.945-1.535 7.714-.033.442-.056.882-.068 1.314a35 35 0 00-.007.721c0 1.442.136 2.779.449 3.872-.033.826.956.306 1.319 1.276.686 1.01 1.699 3.545 3.171 2.396.351-.252.653-1.235 1.053-1.345 2.228-1.227 6.013-1.608 6.211-4.21.004-.069.006-.139.006-.214 0-.548-.15-1.191-.492-1.95-.873-1.479-.284-3.309-.78-4.648a12.016 12.016 0 01-.125-1.802c0-2.242.477-4.838 1.151-6.478.409-1.391.997-2.65 1.846-3.556.267-.271.498-.651.512-.847.205-.703 1.427-1.224 2.103-1.618 1.212-.544.572-1.082.023-1.904-.586-.611-.997-1.613-1.765-1.808-.717-.18-.423-1.12-1.105-1.634-3.804-5.42-6.047-12.044-6.654-18.611-.561-3.89-.337-8.283-.355-12.262l.005-.166c.002-.067.001-.134.001-.203 0-.624-.084-1.22-.229-1.579-.121-.355-.165-.87-.165-1.47 0-1.608.326-3.827.365-5.125.031-.986-.063-1.941-.063-2.894 0-1.852.384-3.686.705-5.727.369-2.699.79-2.186 1.363-3.99.616-2.205 1.928-4.668 2.925-6.674 2.367-4.528 4.891-8.569 8.188-12.605 9.285-11.039 22.37-17.265 36.365-19.401.971-.279 3.501-.453 4.502-.423 1.203.094.988-.597 2.273-.019.801.307.946.317 1.24.09.386-.409 2.356.135 2.85-.09.778-.244.944.626 1.786.083.72-.075 1.618-.112 2.588-.112 1.085 0 2.265.046 3.403.131 1.076.081 2.116.199 3.004.355 3.041.747 4.463.605 7.364.982 4.501.809 8.276 3.448 12.077 5.715 1.732 1.454 2.895 2.271 4.599 4.014 1.508 1.564 1.617 2.194 2.224 3.98.603 1.653.405 3.425.405 5.204 0 .638.028 1.272.124 1.902.031.198.044.369.044.529 0 .703-.254 1.101-.156 1.692.083.158.131.554.11.878-.106 1.036-.658 1.529-.4 2.759.075.315.09.557.075.762-.044.571-.342.834-.362 1.499-.011.409.035.772.035 1.108 0 1.224-.491 2.083-.666 3.545a1.855 1.855 0 00-.048.334c-.075.966.503 1.816-.043 2.44-.48.173-.44 3.487-.878 3.723-.171.193-.332.617-.359.942-.044.547-.688 1.509-1.184.91a2.629 2.629 0 00-.66-.466c-.185-.112-.243-.335-.243-.621 0-.657.319-1.648.166-2.392-.023-3.406-.119-5.704-2.88-8.024-8.655-9.195-18.108-8.827-29.349-10.452-1.185.248-2.55.169-4.14.169-4.369 0-5.174.323-7.576.256-2.386.63-5.313.576-7.597 1.683-3.67.782-7.504 1.902-10.834 3.637-3.018 1.176-5.683 3.236-8.545 4.7-1.399 1.36-4.116 3.186-5.445 4.637-.281.58-1.395 1.734-1.946 2.172-.738.528-1.494 2.281-2.351 2.675-1.552.73-2.993 4.547-4.129 5.678-1.408 1.91-2.99 5.343-3.969 7.472-.323 1.556-1.539 2.81-1.508 4.589a4.116 4.116 0 00-.036.458c-.043 1.399.674 2.643.864 3.863.97 3.769 3.194 7.063 5.723 10.187 1.585 1.875 3.652 3.083 5.381 4.414.206.1.572.402.814.665.517.619 1.805.724 2.356 1.254 7.255 3.616 15.655 6.044 24.035 6.044a39.13 39.13 0 008.269-.857c11.145-1.871 22.346-7.168 29.542-16.111.175.048.273-.376.321-1.012.013-.188.023-.394.029-.611.005-.212.007-.436.007-.663 0-1.481-.119-3.167-.186-3.348-.26-1.033-.773-2.773-.221-3.795 1.291-1.533 3.039-3.27 4.249-5.043.533-.88.744-1.057 1.528-1.283 1.095-.29 1.357-.698 2.393-.667.571.015 1.168.012 1.259-.11.276-.281 1.295.275 1.6-.111 1.351-.565 3.57-.626 5.009-.803.805-.157 1.37-.757 2.244-.801.39-.03.862-.126 1.05-.211.686-.213 1.934.023 2.728-.327.72-.263 1.918-.608 2.929-.578.926.027 1.688.369 1.773 1.378-.04.524-.172.708-.7.975-.884.496-3.61 2.634-3.61 3.71a13.574 13.574 0 00-.274 2.447c-.006.191-.008.38-.008.572 0 1.906.261 3.84.376 5.732.321 3.128.24 6.581.355 9.674.031 2.706.089 5.484.089 8.283 0 10.182-.769 20.689-6.306 29.286-2.768 5.203-7.986 9.609-12.948 12.679-1.67 1.192-4.482 2.814-6.278 3.728-.225.373-1.151.35-1.395.786-.513.57-.968.197-1.746.731-2.919 1.251-5.718 2.533-8.636 3.73-1.769.722-3.122.862-4.96 1.584-2.281.819-4.564 1.789-6.839 2.542-1.474.69-3.431.74-4.885 1.312-7.832 2.605-16.166 4.917-24.551 4.936zm22.583-7.563c4.579.053 8.255-2.235 12.115-4.535 6.607-3.837 13.014-9.294 16.593-16.103 2.363-3.782 3.778-8.647 4.673-13.064.156-.53.317-2.113.463-3.995.273-3.583.479-8.25.408-8.791-.102-.041-.55.305-.997.774-1.114 1.35-4.204 4.492-5.802 5.276-.709.346-1.604.37-1.854 1.086-.05.233-.253.49-.451.575-.532.275-.582 1.204-1.016 1.633-.817.768-1.872.918-2.921 1.875-.945.812-1.918 1.212-2.737 1.527-.367.198-2.608 1.491-3.084 1.517-2.945 1.28-6.574 1.87-9.681 2.531-2.056.856-4.867 1.161-7.797 1.161-1.316 0-2.654-.062-3.956-.16a72.103 72.103 0 01-6.697-.847c-2.884-.966-6.575-1.207-9.182-2.874-.367-.192-.606-.256-.8-.269-.254-.02-.439.042-.742.021-.313-.025-.757-.14-1.539-.538-3.108-1.176-5.445-3.263-8.222-4.63-.477-.329-1.547 1.769-1.196 2.04.123.24.114.448-.039.667-.143.153-.387 2.239-.533 4.136-.119 1.567-.169 3.007-.042 3.116 1.765 15.052 18.912 27.559 33.622 27.77l-.036.006c.494.059.977.089 1.45.095zm241.164-25.086a6.358 6.358 0 01-.626-.038l-.029.008c-.469-.053-.901-.167-1.279-.375a.582.582 0 00-.412-.177c-.494 0-1.087.617-2.497.454a4.635 4.635 0 01-.49-.079c-1.525-.259-2.759-.013-3.556-.887-.253-.421-.479-.319-2.223-.519-.534-.062-1.03-.164-1.245-.271-.167-.096-.401-.132-.674-.132-.945 0-2.362.438-3.19.342-.055-.006-.111-.012-.161-.026-5.262-1.118-10.925-2.348-15.861-4.194-1.996-.207-4.273-1.216-6.146-1.873-.878-.188-3.298-1.065-3.938-1.526-.761-.548-2.509-.737-3.519-1.307-1.407-.579-1.345-1.041-2.688-1.335-9.533-3.329-20.144-10.139-23.677-20.021-.968-2.751-1.225-5.041-1.225-8.021 0-1.393.017-2.347.017-3.021 0-.936-.034-1.343-.209-1.647-.146-.098-.198-.286-.198-.522 0-.557.292-1.376.351-1.891.018-.171.016-.307-.034-.391-.023-.054-.033-.201-.033-.405 0-.417.049-1.077.12-1.715.098-.863.247-1.684.397-1.815.176-.256.194-.437.067-.633-.129-.201-.106-.399.092-.727.469-.421.024-3.285.754-3.424.109-.124.221-.179.332-.179.555 0 1.116 1.27 1.129 1.756.027.39.116.801.201.911.246.463-.057 1.071.568 1.513.294.267.536.723.572 1.079-.015.599 1.044 1.863 1.448 2.116.503.308.72.775.72 1.434 0 1.181-.171 1.214.692 2.092 1.275 1.722 3.164 2.893 4.812 4.217.753.787 1.147.545 1.57 1.215.086.223.299.42.468.441 1.322.822 2.897 1.648 4.136 2.645.498.593 2.115.734 2.722 1.203.538.38 1.584.954 2.18 1.05.835.465 1.849 1.004 2.863 1.28 1.917.659 5.066 2.747 6.928 3.46 1.875.376 4.073.332 5.695 1.479.843.337 4.29.892 5.208 1.31 1.642.936 3.072 1.052 4.834 1.703 6.403 1.913 14.551 2.787 21.346 3.51a82.89 82.89 0 006.456.255c14.124 0 28.566-3.748 39.011-13.497.504-.752.919-1.088.963-1.468.037-.338-.213-.711-.953-1.438-1.272-1.31-4.153-3.303-5.846-3.928-5.104-2.513-11.316-3.762-17.438-4.467-3.32-.384-6.617-.607-9.693-.784-3.94.031-7.631-.298-11.354-.298-1.806 0-3.616.08-5.468.312-5.266.726-11.434.915-16.675 1.237-2.334.423-6.872.326-9.27.198-.348.086-.883.125-1.541.125-2.826 0-7.87-.69-9.586-1.006-3.512-.818-6.369-2.051-9.47-3.536-.856-.696-1.38-1.074-2.356-1.558-1.865-.959-4.626-4.375-5.453-6.263-.518-2.04-.674-4.269-.674-6.532 0-3.087.294-6.242.373-9.087.123-2.501.105-5.133.399-7.694.181-1.581.483-3.131 1.013-4.605 3.516-7.83 9.517-14.399 16.867-19.146 6.678-4.655 14.459-5.849 21.984-7.553 4.284-.666 8.071-1.257 12.188-1.257 8.874 0 15.371 2.097 22.366 4.27 2.841 1.283 5.74 2.984 8.339 4.797 3.005 1.768 3.012 2.648 3.684 5.866-.079.582.733 1.949.658 2.61a.41.41 0 01-.094.24c-.14.175-.221.477-.184.671.026.483.557 1.185.121 1.621-.208.264-.243.654-.159 1.785.106.865-.006 1.32-.058 1.776-.032.278-.042.56.037.935.101.255.137.666.085.916-.165.484.224 1.012-.134 1.393-.167.159-.203.384-.114.705.084.346.159 1.245.08 1.948-.044.382-.133.705-.293.847-.294.332-.078.675-.17 1.47-.031.267-.189.461-.596.861-.565.403-.591.949-.649 1.443-.052.476-.137.902-.761 1.094-1.053-.032-1.783-.998-2.615-1.974-1.35-1.683-3.465-3.109-5.087-4.262-6.18-3.65-13.385-5.927-20.7-6.77a56.248 56.248 0 00-6.419-.37 53.14 53.14 0 00-7.696.553c-7.844 1.224-16.484 3.127-23.471 7.023-3.416 2.194-8.355 6.302-11.006 9.366-.486.448-.684.859-.684 1.235 0 1.378 2.665 2.318 3.772 3.048 3.952 1.769 8.143 2.752 12.439 3.246 2.709.315 5.46.43 8.213.43 5.256 0 10.526-.431 15.552-.767 4.118-.12 8.413-.536 12.518-.536 2.465 0 5.343.163 7.427.247 1.845-.271 3.844-.383 5.879-.383 2.893 0 5.857.225 8.555.534 10.061 1.163 24.605 2.794 29.181 13.868.878 2.174 1.152 4.063 1.152 5.99 0 2.567-.485 5.2-.659 8.664-.221 2.607-.392 5.014-.651 7.279-.7 6.048-2.034 11.093-6.641 16.28-4.906 5.255-11.586 9.498-18.469 11.644-4.242 1.639-8.727 2.911-13.313 3.476-2.129.144-3.174.314-5.31.464-1.083.078-2.449.373-3.699.39a7.704 7.704 0 01-.215 0zm-128.053-3.17l.002-.007c-5.971.013-12.729-.678-18.427-2.457-1.776-.51-4.239-1.118-5.785-2.046-.538-.428-1.116-.627-2.686-.921-2.49-.317-3.37-.906-4.951-2.239-2.593-1.047-4.824-2.456-6.918-4.448-1.129-1.128-1.258-.839-2.486-1.906-.674-.572-1.139-.814-1.55-.814-.475 0-.651-.127-.922-.648-4.984-6.572-9.628-14.18-9.628-22.738 0-.767.072-2.678.204-3.038.002-.926-.18-1.412-.18-2.524 0-.419.026-.93.097-1.587.324-3.858-.17-9.56.821-13.06.317-1.477.736-2.81 1.307-4.09.303-.936.152-1.211.805-2.267.963-1.86-.052-1.352 1.592-3.097.657-1.183 1.51-2.556 2.258-3.593.255-.818 1.393-1.842 1.792-2.504.089-.281.288-.383.753-.383.403-.006 2.496-.513 2.375-1.122.222-.829 2.024-2.532 2.724-3.243.822-.705 1.021-1.266 1.808-1.389.187 0 .38-.167.432-.373.24-.647 1.233-.243 1.881-.554 1.429-.555 1.828-1.787 3.453-1.787.134 0 .279.009.433.024 1.618.146 2.838-1.121 3.907-2.084.887-1.062 2.737-1.938 3.617-2.77 3.8-3.481 9.836-6.444 14.498-8.55 2.909-.78 5.227-2.105 8.274-2.553 2.931-.486 6.229-1.019 9.313-1.012 1.673-.03 1.823-.063 1.823-.409.171-.321-.611-.366-1.547-.366-.37 0-.766.007-1.135.007-.872 0-1.606-.041-1.548-.312.398-.456-6.394-.424-6.598-.505-1.416-.717 4.782-.844 5.647-1.063a50.736 50.736 0 014.764-.224c4.563 0 9.272.624 13.193 2.102.565.157 1.369.255 1.995.255.548 0 .963-.074.963-.251 0-.198-.506-.523-1.905-1.011-.988-.459-3.36-.659-4.155-1.157-1.416-.534-3.402-.343-5.542-.616-3.124-.188-5.552-.692-8.255-.35-.532.456-.979-.742-1.408-.742-.065 0-.132.031-.196.102-.609.425-1.6.332-2.426.496-1.07.094-2.212.559-3.084.86-.73-.242-1.12-.903-2.048-.399-1.477.703-3.233 1.553-4.907 1.633-.93.337-1.538-.765-2.288-.765a.87.87 0 00-.512.184c-.692.734-1.636.366-2.493.952-.987.598-1.486-.19-2.443.719-1.014.87-1.199.094-2.217.97-.463.367-.857.538-1.055.463-.509-.843 2.78-1.853 3.397-2.519 1.327-.919 3.347-1.779 4.828-2.196.333 0 .608-.14.731-.367.435-.649 1.395-.956 2.273-1.07 1.537-.171 2.799-1.155 4.332-1.324 1.46-.18 2.413-.64 3.964-.809 2.346-.079 3.504-.393 6.05-.44 2.001.045 3.942-.031 5.863-.031 1.829 0 3.639.068 5.464.379.857.123 4.242 1.028 4.905 1.474.62.484 2.246.2 2.928.803.618.469 1.177.311 1.751.311.264 0 .531.034.808.175 3.16 1.014 6.394 2.792 9.193 4.653 1.882.773 3.449 1.412 4.731 2.974 1.258 1.228 1.289.888 3.141 2.768 2.814 2.78 3.854 4.34 5.733 7.319.381.521.457 1.738.891 2.251.185.236.475.732.646 1.099.874 1.162 1.22 3.168 1.46 4.509 1.003 2.441 1.542 6.491 1.542 9.615 0 2.649.081 6.082-.038 8.245-.586 2.237-.213 6.211-.82 8.452-.394 4.904-.88 10.591-1.921 15.424-.12 1.151-.548 2.01-.957 2.965-.332.741-.811 2.788-1.295 3.456-.519.646.042.781-.504 1.36-.574.603-1.295 2.709-1.967 3.305-.791 1.734-2.561 4.272-4.007 5.819-1.574 1.844-1.438 2.248-3.393 4.148-1.088 1.333-1.992 1.684-2.937 1.684-.599 0-1.216-.143-1.906-.262-.277-.171-.514-.116-1.197.283-1.505.686-2.582 1.893-4.098 2.235-.373 0-.56.115-.631.39-.246.618-1.333.916-1.877 1.337-3.41 1.944-7.804 3.398-11.535 4.337-.997.187-1.574 1.534.234 1.123 1.811-.438 3.707-.834 5.446-1.412.478-.181 3.71-1.989 4.664-1.989.11 0 .189.023.231.073.905.302 1.176-.25 2.054-.215.35 0 .922-.175 1.274-.386.759-.41 1.225-1.297 2.049-1.499 1.265-.538 2.214-.822 3.369-1.788.722-.588 1.352-.882 1.642-.882.11 0 .168.04.168.123 0 .207-.382.675-1.356 1.41-1.268.928-1.587 1.539-2.549 1.769-1.606 1.017-4.365 3.289-6.178 4.037-.329.119-1.168.618-1.679.618a.55.55 0 01-.188-.029c-.223-.071-.469-.007-.601.153-.294.361-1.217.464-1.555.779-1.06.442-1.923.935-3.168 1.254-1.31.333-1.23.702-2.646.841-1.594.271-3.298 1.127-4.844 1.352-4.039.822-9.238.756-13.351 1.123zm293.168 0l.002-.007c-5.971.013-12.73-.678-18.428-2.457-1.775-.51-4.237-1.118-5.784-2.046-.538-.428-1.117-.627-2.686-.921-2.49-.317-3.37-.906-4.951-2.239-2.594-1.047-4.824-2.456-6.918-4.448-1.13-1.128-1.258-.839-2.485-1.906-.675-.572-1.139-.814-1.551-.814-.474 0-.652-.127-.923-.648-4.983-6.572-9.628-14.18-9.628-22.738 0-.767.073-2.678.206-3.038.002-.926-.181-1.412-.181-2.524 0-.419.025-.93.096-1.587.325-3.858-.169-9.56.822-13.06.318-1.477.736-2.81 1.306-4.09.304-.936.152-1.211.805-2.267.963-1.86-.051-1.352 1.594-3.097a38.804 38.804 0 012.256-3.593c.256-.818 1.393-1.842 1.793-2.504.088-.281.288-.383.753-.383.404-.006 2.496-.513 2.375-1.122.223-.829 2.025-2.532 2.724-3.243.822-.705 1.02-1.266 1.808-1.389.186 0 .38-.167.432-.373.24-.647 1.233-.243 1.88-.554 1.429-.555 1.828-1.787 3.453-1.787.135 0 .281.009.434.024 1.618.146 2.838-1.121 3.906-2.084.888-1.062 2.737-1.938 3.617-2.77 3.8-3.481 9.836-6.444 14.499-8.55 2.909-.78 5.226-2.105 8.273-2.553 2.932-.486 6.23-1.019 9.313-1.012 1.673-.03 1.824-.063 1.824-.409.171-.321-.612-.366-1.547-.366-.371 0-.767.007-1.136.007-.872 0-1.605-.041-1.548-.312.398-.456-6.394-.424-6.597-.505-1.416-.717 4.782-.844 5.646-1.063a50.742 50.742 0 014.765-.224c4.562 0 9.272.624 13.193 2.102.564.157 1.369.255 1.996.255.547 0 .961-.074.961-.251 0-.198-.506-.523-1.905-1.011-.987-.459-3.36-.659-4.155-1.157-1.416-.534-3.4-.343-5.54-.616-3.124-.188-5.553-.692-8.256-.35-.533.456-.98-.742-1.408-.742-.065 0-.133.031-.196.102-.609.425-1.6.332-2.426.496-1.071.094-2.211.559-3.084.86-.73-.242-1.12-.903-2.048-.399-1.478.703-3.233 1.553-4.906 1.633-.93.337-1.54-.765-2.289-.765a.872.872 0 00-.513.184c-.691.734-1.634.366-2.491.952-.987.598-1.488-.19-2.444.719-1.015.87-1.199.094-2.217.97-.463.367-.857.538-1.055.463-.509-.843 2.78-1.853 3.397-2.519 1.328-.919 3.346-1.779 4.828-2.196.332 0 .609-.14.732-.367.434-.649 1.395-.956 2.273-1.07 1.537-.171 2.799-1.155 4.332-1.324 1.46-.18 2.412-.64 3.962-.809 2.346-.079 3.504-.393 6.05-.44 2.002.045 3.943-.031 5.864-.031 1.829 0 3.638.068 5.463.379.857.123 4.242 1.028 4.905 1.474.621.484 2.246.2 2.928.803.619.469 1.177.311 1.752.311.263 0 .53.034.807.175 3.16 1.014 6.394 2.792 9.193 4.653 1.883.773 3.45 1.412 4.731 2.974 1.258 1.228 1.289.888 3.141 2.768 2.815 2.78 3.855 4.34 5.734 7.319.38.521.456 1.738.891 2.251.184.236.474.732.645 1.099.874 1.162 1.22 3.168 1.46 4.509 1.003 2.441 1.543 6.491 1.543 9.615 0 2.649.08 6.082-.039 8.245-.586 2.237-.213 6.211-.82 8.452-.394 4.904-.88 10.591-1.921 15.424-.119 1.151-.547 2.01-.956 2.965-.333.741-.811 2.788-1.295 3.456-.519.646.041.781-.504 1.36-.575.603-1.295 2.709-1.967 3.305-.792 1.734-2.561 4.272-4.008 5.819-1.573 1.844-1.436 2.248-3.392 4.148-1.087 1.333-1.992 1.684-2.937 1.684-.6 0-1.217-.143-1.907-.262-.276-.171-.512-.116-1.196.283-1.504.686-2.583 1.893-4.099 2.235-.372 0-.56.115-.631.39-.246.618-1.331.916-1.875 1.337-3.41 1.944-7.806 3.398-11.537 4.337-.997.187-1.574 1.534.234 1.123 1.812-.438 3.709-.834 5.447-1.412.479-.181 3.71-1.989 4.665-1.989.109 0 .188.023.23.073.905.302 1.176-.25 2.053-.215.35 0 .922-.175 1.274-.386.759-.41 1.227-1.297 2.051-1.499 1.264-.538 2.213-.822 3.367-1.788.723-.588 1.353-.882 1.643-.882.109 0 .167.04.167.123 0 .207-.38.675-1.354 1.41-1.268.928-1.587 1.539-2.549 1.769-1.607 1.017-4.365 3.289-6.179 4.037-.328.119-1.169.618-1.68.618a.54.54 0 01-.187-.029c-.223-.071-.469-.007-.602.153-.294.361-1.216.464-1.554.779-1.061.442-1.923.935-3.168 1.254-1.31.333-1.229.702-2.645.841-1.595.271-3.299 1.127-4.846 1.352-4.038.822-9.237.756-13.35 1.123zm-101.434-2.493c-1.299-.231-1.33-3.218-1.33-5.866v-.395c0-1.197-.005-2.29-.138-2.977-.104-6.192-.628-12.507-.74-18.729-.39-16.121-.863-35.464-1.532-51.575-3.658.087-7.158.165-10.564.165-4.77 0-9.357-.154-13.924-.667-1.898-.511-1.866-1.553-2.544-2.977-.644-.493-.207-2.44-.517-3.053-.1-.219-.134-.526-.134-.862 0-.586.111-1.258.2-1.675a1.01 1.01 0 00.06-.352c0-.686-.621-1.296-.283-1.973.075-.098.108-.393.108-.793 0-1.283-.321-3.629-.563-3.992a.497.497 0 01-.11-.304c0-.513.864-.99.711-1.668 0-.367-.09-.759-.2-.868-.336-.321.4-1.151.041-1.541-.277-.62.24-.857.038-1.625-.101-.653-.067-.72.551-1.012.193-.108.417-.152.661-.152 1.037 0 2.479.78 3.902.884 4.59.713 10.153.784 15.817.784 2.512 0 5.045-.014 7.519.005.129-9.917.458-18.235.798-28.143.036-1.934.133-3.953.133-5.836 0-1.149-.036-2.246-.145-3.239a3.111 3.111 0 01-.104-.759c0-1.285 1.059-1.692 2.056-1.05.106.034.211.047.316.047.769 0 1.551-.809 2.479-.532h.152c1.08 0 1.577-.49 2.918-.394h.505c1.447 0 2.523.023 3.712.732.907-.106 2.11-.167 3.376-.167 2.019 0 4.199.159 5.584.559.943.177 2.833.2 2.158 1.737-1.316 8.084-1.193 15.25-1.783 23.495.02.329.028.604.028.842 0 1.285-.267 1.39-.267 2.268 0 2.002.322 2.064-.16 2.577-.381.405-.4.523-.202 1.172.373 1.184.495 1.858.495 3.181 0 2.625-.132 2.59.556 2.886 1.225.208 3.135.269 5.261.269 3.164 0 6.807-.138 9.39-.138 7.388 0 9.826.103 15.733.297 7.237.075 16.009.95 23.195 2.003 2.63.261 4.766 1.235 7.471 1.302l-.063.065c.97.149 2.441.392 1.763 1.218-.707.565-1.285.223-2.125 1.139-.851.788-.851.788-2.229.669-.755-.067-1.515-.196-1.682-.291a5.669 5.669 0 00-.848-.053c-1.323 0-3.185.276-4.749.276-.838 0-1.588-.079-2.126-.324-1.076-.563-.888.202-2.012.096-1.962-.403-5.396-.413-7.429-.738-2.176-.582-3.915-.701-5.675-.701-1.94 0-3.909.146-6.524-.025a12.304 12.304 0 00-.753-.019c-1.591 0-3.821.194-3.957.196-.141.682.82.529 1.892.644 5.642.18 12.036.546 17.605 1.182.665.192 11.974 1.388 8.37 1.765-.874.202-1.625.277-2.328.277-1.975 0-3.564-.589-6.402-.589-4.722 0-5.617-.559-9.511-.621-1.162.031-3.175.093-4.474.137-2.267.081-2.36.098-2.306.486.054.375.215.411 2.457.538 3.328.233 6.081.181 9.026.828 2.926.111 7.604.447 10.457.929 1.101.312 1.391.445.259.952a4.525 4.525 0 01-1.481.227c-1.262 0-2.582-.399-3.809-.606a2.733 2.733 0 00-.936-.166c-.855 0-1.533.393-2.547.243-.554-.054-1.139-.242-1.354-.434-.271-.246-.446-.286-.621-.144-.167.069-.386.096-.638.096-.88 0-2.145-.327-2.961-.221-.552.127-4.461-.24-7.61-.24-2.856 0-5.088.302-3.624 1.558.753.446 4.45.241 5.376.461 5.178.955-7.593.88-8.258.969-4.238.048-8.999.534-13.157.649-1.093.144-2.774-.189-2.044.564.305.307.983.379 6.141.379 4.703 0 4.929.434 8.948.671 1.097-.123 1.796.009 1.629.714-.108.105-1.356.242-2.776.305-4.987.033-6.123.243-11.419.358-3.522.002-3.649.015-3.649.384 0 .359.144.385 2.402.429.123-.002.239-.002.348-.002 2.129 0 1.969.446 3.721.235 1.46-.271 2.108.101 3.678-.162.912-.129 1.417-.125 1.644.017.84.342 2.653.048 3.71.116l.153-.003c1.393 0 2.25.298 3.637.289 1.107-.035 2.217.057 3.116-.412.286-.111.557-.151.83-.151.87 0 1.748.414 3.152.243 3.499-.069 6.016.617 9.266.956 2.129.272 6.077.078 8.148.769 1.049.573 1.542.525 2.591.958.26.136.369.265.369.388 0 .538-2.126.932-2.996.987-3.053.404-5.444-.436-8.644-.511-4.385-.311-9.395-.4-13.854-.4-5.896 0-17.186.475-23.941.385-1.408-.019-1.679.027-1.679.276-.211.542-.286 1.172-.286 1.854 0 2.127.733 4.743.303 6.632.609 17.64.961 39.528 1.438 57.41.176 3.577.003 8.019.401 10.715.073.259.135.706.135 1.162 0 .664-.133 1.346-.556 1.504a1.276 1.276 0 01-.363.053c-.632 0-1.202-.48-.956-1.408.148-1.214.073-1.306.009-2.568-.874-11.091-.551-24.461-1.11-38.466-.045-.111-.064-.413-.064-.803 0-1.106.158-2.945.314-3.296.163-.517.137-.788-.124-1.368-.263-.582-.337-1.468-.393-4.538-.079-4.753-.312-9.798-.344-14.476-.023-3.415-.039-3.552-.406-3.552-.372 0-.382.133-.402 4.705.041 5.289.16 7.634.114 11.77.307.926.395 4.46.219 5.462-.271 1.088.386 3.084-.013 4.037-.198.543-.198.763.005 1.174.607 2.311.323 7.461.402 11.163a476.943 476.943 0 01-.036 4.895c-.041.565.404 2.502-.062 2.983-.304.568-.488.912-.027 1.337.38.269.206 1.585.513 1.875.175.174.165.914-.033 1.29-.115.096-.151.319-.151.602 0 .805.318 2.105.151 2.465-.098 3.075.218 8.498.618 11.466-.271.26.108 2.627-.203 2.867-.298.388-.105 1.757-.505 2.083-.159.067-.3.098-.425.098-.843 0-.863-1.439-.955-2.55-.486-12.245-.591-23.939-1.125-39.274-.129-3.673.069-4.317.069-5.256 0-.573-.062-1.256-.281-2.803-.063-1.197-.026-2.191.099-2.519.067-.257.09-.59.09-.968 0-1.414-.373-3.472-.296-4.73-.146-2.01.319-3.051-.133-4.636.192-3.083-.378-6.441-.218-10.055-.016-.259-.02-.508-.02-.745 0-1.527.225-2.467-.557-2.709-.459.415-.599 1.629-.599 3.164 0 3.079.572 7.451.322 9.224.016 2.434.296 4.086.296 5.917 0 .739-.044 1.508-.172 2.369.074 3.9.455 9.485.436 14.28.146 5.854.32 14.035.297 19.207-.119 1.093.663 4.407.094 5.106-.434.498-.18.962.066 1.521.43 1.548.111 5.284.309 7.202a6.123 6.123 0 00-.016.459c0 1.152.269 2.691.269 3.98 0 1.066-.183 1.966-.862 2.333-.294-.071-.303-.717-.303-1.43 0-.813.011-1.709-.373-1.934-.4-.64-.457-1-.524-3.311.002-1.36-.029-2.591-.029-3.767 0-1.498.048-2.905.267-4.378a.66.66 0 00.073-.265c0-.432-.752-.383-.425-1.824.092-.901.048-1.412-.165-2.501a1.9 1.9 0 01-.173-.834c0-.853.404-1.762.185-2.707-.021-2.28-.489-4.945-.489-7.408 0-1.018.079-4.883.302-5.79a3.42 3.42 0 00.156-.997c0-1.297-.836-2.098-.686-3.986-.175-8.855-.494-19.139-.811-27.951-.01-.1-.012-.248-.012-.43 0-.918.116-2.746.116-4.419 0-1.96-.159-3.704-.859-3.537-.198 1.111-.261 2.338-.261 3.641 0 2.928.331 6.234.235 9.453.126 5.138-.001 7.107.291 10.758.117 1.166.089 1.686-.117 2.176-.109.267-.167.468-.167.762 0 .329.071.771.221 1.542.244 1.237.335 2.889.372 6.554-.211 5.065.196 13.502.196 18.603 0 1.52-.033 2.996-.131 4.41-.036 3.288.472 7.469.562 10.408.194 1.491.296 2.93.296 4.323 0 1.214-.08 2.395-.247 3.549.175 1.551-.529 1.897-.706.344-.208-1.36-.131-1.489-.541-2.839-.418-2.014-.551-4.019-.551-6.094 0-1.347.054-2.722.125-4.146.119-2.205.1-2.506-.202-2.841-.516-1.331-.601-5.879-.601-9.736 0-3.428.068-9.652-.038-10.982.023-2.38-.486-4.162-.417-6.721a8.078 8.078 0 01-.019-.541c0-1.656.573-2.055.14-3.357-.655-2.181-.021-12.636-.736-14.663-.302-.212-.513-.304-.657-.304-.221 0-.288.208-.288.529 0 .563.207 1.47.176 2.2.067 1.174.031 1.938-.109 2.159a2.285 2.285 0 00-.044.447c0 .77.38 1.436.301 3.249.576 8.918.32 23.123.766 31.984.023.172.032.326.032.466 0 .743-.269 1.101-.269 1.799 0 1.114.573 2.372.106 3.346-.123.324-.172.743-.172 1.21 0 1.389.417 3.199.492 4.202a6.271 6.271 0 00-.072.943c0 1.082.293 1.895.235 4.152.01.4.014.789.014 1.156 0 1.692-.119 2.968-.438 2.968-.223 0-.538-.606-.98-2.11-.277-.786-.33-4.093-.459-4.994.014-4.075-.512-9.917-.512-14.643 0-1.903.083-3.717.323-5.331-.044-1.254-.464-5.881-.464-7.403 0-.557.057-1.085.207-1.548.05-.057.07-.233.07-.484 0-1.109-.429-3.675-.677-3.954-.071-.079-.303.093-.514.383-.254.303-.329.958-.329 1.736 0 1.403.244 3.202.135 4.069-.135.897.232 5.145.232 7.75 0 1.018-.053 1.787-.22 2.003a.858.858 0 00-.148.498c0 .709.67 1.645.551 3.282.074.722.101 1.282.101 1.76 0 1.42-.244 2.687-.205 4.67.171 1.372-.036 2.464.244 3.387.019.08.029.159.029.24 0 .543-.4 1.12-.184 1.879.096.548.18 1.692.18 2.841 0 1.31-.112 2.625-.452 3.059 0 .186.141.578.316.872.136.198.194.469.194.774 0 1.011-.625 2.416-1.133 2.875-.207-.208-.119-1.941-.407-2.198-.192-.163-.359-.235-.505-.235-.678 0-.872 1.564-.863 2.399.014 1.703-.595 2.642-2.014 3.038zm-413.849-5.334c.103-.002.213-.011.328-.026l-.002-.009c3.923-.002 8.404-.867 12.252-1.514.075.002.153.001.231.001 1.328-.019 3.25-.67 4.56-.561.884-.065 1.204-.757 2.196-.858 1.279-.394 2.751-.97 3.805-1.648.292-.386 1.614-1.463 2.077-1.574.561-.202 1.787-1.355 2.511-1.414 1.314-.304 3.364-2.745 4.488-3.809.983-1.022 1.179-1.342 1.173-1.884-.17-.997-.228-1.844-1.404-.322-3.777 4.03-8.598 6.655-13.486 9.022-.912.477-1.687.339-2.49.612-.519.212-1.046.456-1.582.541-.607.105-3.897.372-4.3.927-1.026.747-2.563.513-3.931.784-1.965.269-3.412.701-5.566.724-2.523-.21-2.404 1.045-.86 1.008zm323.977-5.891c1.371-.002 1.976-1.797 3.579-1.615.224.027.467.092.734.203 1.316.369 2.801.144 2.845-.237.023-.203-.361-.449-1.397-.674-8.067-1.787-16.011-4.521-23.691-7.508-6.144-2.499-12.532-5.126-17.691-9.339-1.214-1.02-3.002-2.764-4.064-3.847-.853-.579-1.562-2.431-2.51-2.54a.828.828 0 00-.407.061.606.606 0 01-.326.09c-.538 0-1.165-.586-1.597-.636-.256-.03-.444.125-.507.694a2.239 2.239 0 00-.013.175l-.002.201c0 1.52.634 2.74 1.154 4.143.536 1.683.917 2.023 2.775 3.963 3.45 3.52 6.495 5.66 10.47 8.032.538.452.949.596 1.3.596.672 0 1.129-.525 1.828-.446.255.031.539.141.881.383.651.486 2.794.699 3.485 1.262.754.547 2.578 1.055 3.404 1.287 2.285.903 5.182 2.044 7.658 2.332.53.065 1.058.679 1.65.419.342-.109.575-.069.897.163 2.657 1.09 6.523 2.223 9.401 2.807l.009.025c.046.003.091.006.135.006zm-103.753-7.793c.341.002.685.002 1.029-.001l-.038-.008c5.056-.029 8.809-.151 12.897-.611 2.753-1.037 6.477-1.514 9.19-2.59a177.548 177.548 0 018.931-3.208c3.683-1.512 6.726-4.906 10.127-6.987 1.444-1.408 2.674-2.622 3.85-4.102.403-.88 1.228-.983 1.721-1.717 1.879-3.118 4.417-6.058 5.521-9.57.848-1.658 1.199-2.923 1.199-4.247 0-1.168-.273-2.379-.718-3.939-1.068-6.115-5.203-11.363-9.17-16.014-2.576-2.26-5.358-4.195-8.211-6.081-.686-.373-2.382-.976-2.916-1.589-.297-.329-.622-.466-1.108-.466-1.512-.285-2.264-.717-3.939-1.134-2.086-1.039-5.319-1.601-7.477-2.342-.856-.421-1.049-.137-1.7-.352-.181-.096-.79-.22-1.353-.274-1.028-.027-1.147-.43-1.833-.43-.102 0-.212.009-.341.028-.507.105-3.993-.177-4.304-.643-.189-.531-1.508.272-1.76.414-.434.306-1.329-.833-1.632-1.092-.325-.352-.454-.361-2.302-.16-2.542.194-4.401.526-6.664.78-1.07.025-2.047-.119-2.969.515-.609.411-.835.454-1.977.369-2.146-.238-3.187.714-4.843 1.687-2.171 1.354-4.023 2.222-6.077 3.886-2.125 1.456-4.905 3.277-6.826 4.849-.937.945-2.532.044-3.502 1.404-1.954 1.649-3.802 2.546-5.657 4.32-1.53 1.79-3.255 2.238-5.128 3.684-1.472 1.287-2.572 2.68-3.906 4.113-.991 1.145-1.079.896-1.928 1.115-1.272 1.617-3.011 3.761-3.685 5.761-.092.655-.805 1.39-.805 1.917 0 .301.24.536.98.64.739.399 1.366-1.168 1.957-1.218.865.438.644 3.785.867 4.987.046 1.977.543 3.094.756 4.798.707 3.677 3.539 7.165 5.662 9.953 2.903 2.057 6.098 5.068 9.435 6.37 9.172 4.729 18.072 7.124 28.647 7.185zm293.168 0c.341.002.684.002 1.029-.001l-.039-.008c5.057-.029 8.809-.151 12.897-.611 2.753-1.037 6.478-1.514 9.191-2.59a177.548 177.548 0 018.931-3.208c3.683-1.512 6.726-4.906 10.126-6.987 1.445-1.408 2.674-2.622 3.85-4.102.403-.88 1.228-.983 1.722-1.717 1.879-3.118 4.416-6.058 5.521-9.57.847-1.658 1.2-2.923 1.2-4.247 0-1.168-.274-2.379-.72-3.939-1.068-6.115-5.202-11.363-9.169-16.014-2.577-2.26-5.358-4.195-8.211-6.081-.686-.373-2.382-.976-2.916-1.589-.298-.329-.623-.466-1.109-.466-1.512-.285-2.263-.717-3.939-1.134-2.086-1.039-5.319-1.601-7.476-2.342-.857-.421-1.049-.137-1.701-.352-.18-.096-.79-.22-1.352-.274-1.028-.027-1.147-.43-1.833-.43a2.35 2.35 0 00-.342.028c-.507.105-3.992-.177-4.303-.643-.188-.531-1.509.272-1.76.414-.434.306-1.329-.833-1.633-1.092-.325-.352-.454-.361-2.302-.16-2.541.194-4.401.526-6.664.78-1.07.025-2.046-.119-2.968.515-.609.411-.836.454-1.977.369-2.146-.238-3.188.714-4.844 1.687-2.171 1.354-4.023 2.222-6.076 3.886-2.125 1.456-4.905 3.277-6.826 4.849-.938.945-2.531.044-3.502 1.404-1.953 1.649-3.802 2.546-5.658 4.32-1.529 1.79-3.255 2.238-5.128 3.684-1.471 1.287-2.572 2.68-3.905 4.113-.991 1.145-1.08.896-1.929 1.115-1.272 1.617-3.01 3.761-3.685 5.761-.092.655-.805 1.39-.805 1.917 0 .301.24.536.98.64.74.399 1.366-1.168 1.958-1.218.864.438.643 3.785.866 4.987.046 1.977.544 3.094.757 4.798.707 3.677 3.539 7.165 5.661 9.953 2.903 2.057 6.099 5.068 9.436 6.37 9.171 4.729 18.072 7.124 28.647 7.185z"/></svg>