<svg xmlns="http://www.w3.org/2000/svg" viewBox="0 0 1000 660"><path d="M0 660h1000V0H0z" fill="#eae3d8"/><path d="M60.059 333.021a.303.303 0 01-.153-.059l-.001-.003c-.177-.426.286-1.187.561-1.559.417-.468.167-1.009.734-1.32.549-.275.285-.688.745-1.04.301-.246.326-.232.228.126-.169 1.107-.999 1.64-1.389 2.71-.171.42-.387 1.165-.725 1.145zm-2.339-1.716c-.482-.039-.738-.503-.738-1.04.022-.763-1.093-1.601-1.019-2.396.132-1.424 1.053-3.169 1.462-4.64.407-1.064.406-1.064-.139-1.713-.354-.347-.461-.736-.461-1.149 0-.682.3-1.432.284-2.169.287-1.731 2.458-4.509 2.861-6.244.337-.942.338-.968-.093-1.428-1.376-1.332 2.709-4.062 1.525-7.014-.097-.441-.278-.613-.498-.613-.655 0-1.647 1.514-1.75 1.982-.34 1.426-1.154 2.457-1.839 3.763-.275.661-1.461 1.929-1.542 2.632.016.568-.604 1.099-.604 1.66-.002.236-.146.551-.319.696-1.039 1.11-1.041 2.323-1.898 3.812-.551 1.263-1.45 1.651-1.635 2.697.057 1.259-1 .553-1.112-.322a1.493 1.493 0 01-.044-.364c0-.852.765-1.407.919-2.341.118-.297.147-.553.147-.791 0-.638-.232-1.121.39-1.782 1.205-1.3 1.042-2.776 2.106-4.243.606-.865 1.125-1.882 1.593-2.581.39-.659.144-1.567.811-2.285 1.569-1.776 1.849-2.843 2.574-5.323.783-2.655 1.865-3.552 2.74-5.894.612-1.826 1.775-3.431 2.453-5.162.86-2.055 1.981-5.153 3.313-6.945 1.019-.785.968-2.622 1.57-3.653.783-1.318 1.315-2.986 1.99-4.327 8.285-17.39 16.438-34.884 23.506-52.827 4.829-11.863 8.872-24.213 13.677-36.041 1.596-3.505 2.894-7.303 4.979-10.557.305-.387 1.07-.493 1.991-.493 1.426 0 3.23.255 4.282.125 5.189-.02 9.63.421 13.33-3.765 1.812-1.725 1.827-1.732 2.895-1.734.093-.014.183-.02.269-.02 1.692 0 1.242 2.696 1.97 3.983 1.286 3.22 2.52 6.328 3.812 9.42 2.532 6.741 5.752 13.627 7.814 20.476 1.267 2.679 2.438 6.662 3.659 9.408 0 .588.436.555.41 1.18.04.86.396 1.165.766 2.119.691 2.044 1.324 3.979 2.067 5.997 1.355 3.798 2.896 7.081 4.164 10.944.067 1.027 1.269 2.17.931 2.874-.181.217-.179.394.008.752.712.95 1.107 2.015 1.683 3.066.579.568.156 1.906.711 2.384 1.811 2.661 3.038 6.3 4.384 9.326.409.824.704 1.537.661 1.579-.305.127-.822-.25-.946-.616-.321-.686-1.486-1.556-1.649-2.437a996.164 996.164 0 01-4.9-9.986c-1.318-3.029-2.378-6.669-4.077-9.452-.638 1.704 2.778 7.392 3.464 9.557 1.564 4.157 3.955 8.535 5.033 12.721.899.976 1.279 2.795 1.798 3.953 1.019 1.143 1.391 3.085 1.826 4.472 1.31 1.772 1.807 3.639 2.838 5.694.366.885 1.015 1.936 1.043 2.607-.339.002-.667-.626-1.153-.734-.879-.413-.814-1.676-1.546-2.423-.755-.929-.677-1.497-1.118-2.501-.313-.741-2.25-3.18-2.244-1.071-.061.6 1.775 3.888 1.865 4.417.803 1.216.964 3.977 2.624 4.266.763.134 3.95.455 4.675.614.311.075.455.018.455-.173.022-1.165-1.578-2.287-1.922-3.32-.885-1.882-1.782-4.351-2.658-6.261-.269-1.398-1.892-2.939-1.392-4.37.293.145.982 2.04 1.289 2.236.885 1.19 1.077 3.086 1.934 4.265.722.712.661 1.845 1.181 2.749.907 1.767 1.227 2.425 2.171 4.316.337.696.819 1.396 1.069 1.554.736.436 5.271.711 6.123.825 1.79.376 4.111.797 5.724 1.621 1.209 1.226-.272.596-.919.531-.82 0-2.073-.237-2.946-.464-1.34-.316-3.376-.218-4.88-.515-1.108-.079-1.879-.547-2.466-.14.154 1.71 4.696 1.427 5.925 1.749 2.446.763 5.728 1.154 8.124 2.026a184.06 184.06 0 01-.815-1.983c-.432.048-1.209-.171-.67-.501.1-.071.254-.103.424-.11-.103-.255-.204-.511-.306-.766-2.019-5.84-2.229-12.527-2.229-19.067 0-2.941.043-5.852-.018-8.643l-.002-2.705c0-6.005.17-12.053 1.942-17.598 4.674-17.9 17.593-33.327 33.531-42.509 6.395-4.024 14.172-6.77 21.45-8.731 5.637-1.42 11.109-2.681 17.041-2.917 1.231-.039 2.493-.059 3.779-.059 12.872 0 28.244 2.225 37.654 10.793 1.554 1.245 1.625 1.34 1.719 2.268.173 1.314.272 3.71.272 5.958 0 1.731-.059 3.375-.185 4.366-.148.445-.195.924-.205 1.42-.01.614.041 1.257.041 1.883 0 .751-.071 1.48-.409 2.135-.1.491-.08.861.063 1.009.16.338.214.832.204 1.369-.014.729-.141 1.539-.264 2.145-.518 2.233-1.033 3.081-1.71 3.069-1.766-.032-4.627-5.886-11.492-8.268-5.183-2.415-11.732-3.617-17.515-4.233-3.001-.287-6.426-.788-9.64-.849a70.206 70.206 0 00-.647-.004c-5 0-10.467.783-15.365 1.46-2.986 1.017-6.912 2.412-10.076 2.963-2.005.24-2.927 1.68-4.912 1.718-.867-.05-1.004.547-1.754.71-.582.067-1.564.901-2.068 1.045-1.833.631-4.071 2.182-5.651 3.282-2.842 1.265-5.476 3.291-8.186 4.742-1.171.626-4.205 3.669-5.482 4.55-5.476 4.359-9.888 10.543-13.143 16.59-2.004 3.534-3.706 7.02-4.998 10.885a16.338 16.338 0 00-.75 4.965c0 6.385 3.417 12.645 6.424 18.133 4.243 7.62 10.494 14.237 17.87 19.06 4.841 3.431 9.498 6.395 14.955 8.596 11.923 5.157 25.368 7.248 38.619 7.248 4.084 0 8.142-.197 12.123-.565 2.553-.865 6.138-.494 8.611-1.735 5.81-1.485 11.781-3.267 16.922-6.369 3.905-2.895 7.404-5.128 10.732-8.892 2.346-2.436 3.507-4.709 5.022-7.298 1.135-1.791 3.076-5.523 3.613-7.593 3.458-7.116 5.268-15.527 5.166-23.46-.004-.098-.003-.217-.003-.351.016-.834.171-2.298.195-3.547v-.311c0-.798-.065-1.467-.28-1.762-.255-.49-.296-.754-.141-.905.37-1.725.907-2.638.917-4.9-.006-.163-.005-.33-.003-.497.028-1.646.567-3.289 1.474-1.261.515 1.2.511 3.794.627 5.061-.069 7.356-.649 20.137-1.068 27.749-1.142 18.142-6.211 37.518-21.495 48.663-8.155 5.594-17.903 8.834-27.677 9.985-2.762.607-6.749.728-10.708.728l-.038-.023c-3.454 0-6.886-.093-9.467-.036-5.289-.22-9.327-.698-14.191-1.617-1.794-.706-4.62-.97-6.392-1.725-.968-.779-3.034-.744-4.061-1.395-3.613-.689-6.699-2.08-10.24-3.404-2.073-.832-3.267-1.888-5.126-2.687-.584-.1-1.939-.941-2.222-1.45-.395-.685-2.794-1.695-3.506-2.022-1.744-.991-3.581-2.516-5.249-3.548-3.428-2.797-7.239-6.436-10.233-9.77-1.384-1.55-1.727-2.987-2.993-4.277-.868-.358-.982-1.868-1.8-2.372-2.251-3.481-4.084-7.302-5.726-11.169-.27-.052-.535-.059-.785.022-3.576-.232-7.383-1.538-11.095-1.632-.431-.028-.89.112-.894.533.018.5-.435.494-.41 0-.061-.61-1.698-1.352-2.253-1-.326.112-.96.15-1.406.085-.551-.016-2.74-.658-2.74.024 0 1.066 1.436.689 1.839 1.086.071.118.376.157.689.092.094-.006.184-.008.269-.008 1.05 0 1.509.424 3.183.52 2.402.212 1.906.692 4.145.891 1.782.138 1.754.307 3.182.716 1.813.348 3.564.533 5.083 1.567.444.177 2.43.863 1.004 1.08-1.491-.343-4.51-1.428-6.149-.608.152 1.408 5.455 1.685 6.57 2.3.74.339 2.253 1.442.864 1.823a1.938 1.938 0 01-.543.059c-.673 0-1.428-.14-1.733.588-.33 1.041-3.224.771-4.174.659-.966-.034-2.022-.978-2.763-.59-.769.442-1.986.014-.705 1.239 1.579 1.297 3.988 1.426 5.911 2.282 1.222.602 3.47.224 4.279 1.194.316.336.45.655.45.944 0 1.275-2.556 2.028-3.61 1.247-1.286-.372-2.452-.677-3.253-.677-.678 0-1.09.217-1.09.793 0 .555.38 1.44 1.277 2.785.507.783.539 2.669 1.007 3.409.138.145 1.412 4.28.348 3.263-.693-.96-.527-2.69-1.329-3.672-.683-.934-.622-3.059-1.46-3.995-.773-.999-.735-1.936-1.591-2.776-.492-.474-.807-.586-1.724-.625-1.154-.02-4.311-1.159-2.854.928.453.925 1.484 2.896 1.6 3.945-.069.188.083.605.366.986.702.962 1.17 2.354 1.689 3.502 1.664 4.208 3.366 8.413 4.981 12.608.594 1.916 1.65 4.335 2.085 6.402.261 1.184.879 1.527 1.046 2.725-.08.783 1.79 3.499-.112 2.474a1.895 1.895 0 00-1.062-.291c-1.393 0-1.702.163-1.997-.185-.472-.563-1.457-2.543-1.591-3.326-.155-.991-1.058-1.718-1.015-2.775.061-1.001-.592-1.03-.608-1.916.036-.747-.902-1.712-1.018-2.388-.191-.789-1.273-.773-1.179.352a.973.973 0 00-.018.207c0 .858.81 2.401.911 3.035-1.818.065-2.279-3.96-3.343-5.266-1.045-2.61-2.568-5.334-3.601-7.968a2.105 2.105 0 01-.167-.854c0-.541.117-.932-.739-1.717-1.292-1.178-1.381-2.11-2.042-3.483-.395-.553-.797-.759-.956-.116-.051.566.608 1.251.686 1.875.756 2.189 1.559 3.98 2.613 6.099a617.34 617.34 0 004.89 12.85c.523.956.509 1.316-.34.533-.313-.301-.571-.75-.571-1-.085-.794-1.117-1.687-1.465-2.478-.321-.737-1.981-4.358-2.828-2.808a.867.867 0 00-.109.437c0 .755.779 1.696 1.072 2.326.46.849.702 2.06 1.094 2.772-.036.368.865 1.257.724 1.642-.024.726.722 1.434.946 2.365.681 2.327 1.64 4.288 2.26 6.583.122.643.108.659-.586.659-.555 0-.75-.104-.886-.464-.098-.256-.405-.569-.684-.693-.986-.609-1.07-2.13-1.386-3.411-.305-1.453-.387-1.964-1.544-2.468-.924-.228-1.931-2.99-2.186-3.832-.274-1.091-1.247-2.867-1.584-3.963-2.266-6.556-6.174-12.661-8.717-19.119-.848-1.54-2.613-5.675-3.458-7.203-1.566-.504-3.305-.626-5.262-.711-1.125-.137-1.839-.18-2.476-.18-1.029 0-1.863.116-3.917.155a80.082 80.082 0 00-4.964-.142c-5.271 0-10.377.416-15.788.416-4.725 0-9.726.054-14.818.054-9.473 0-19.247-.184-28.087-1.235-1.103-.222-1.871-.336-2.423-.336-1.869 0-1.249 1.291-2.76 3.922-.509 1.063-1.467 2.838-1.953 3.869-.48.576-.58.02-.305-.285.122-.122.227-.55.231-.944.015-.999.631-1.833 1.158-2.671.251-.381.455-.948.455-1.257-.018-.742.849-1.529.869-2.265.242-.741-1.061-1.01-1.401-.67-.923 1.481-2.01 3.696-2.789 5.376-4.483 9.245-9.317 18.269-13.784 27.514-.885 1.961-1.727 2.751-2.64 4.266-.423.606-.646 1.859-1.216 2.364-1.157 1.037-1.038 3.402-2.49 4.143l.01.025zm4.631-2.871v-.006c.033-1.369 1.103-3.392 1.801-4.67.699-1.263 2.065-2.551 2.331-4.134.708-2.286 2.123-4.515 3.293-6.537 1.332-2.559 2.767-5.769 4.343-8.234.907-.991 3.481-7.637 4.689-8.08-.457 2.272-2.581 5.211-3.48 7.367-1.76 3.82-3.985 8.023-6.033 11.76-1.479 2.673-2.633 5.462-4.209 8.069-.686 1.115-1.586 3.729-2.735 4.465zm662.976-.262l.003-.037c-2.148 0-2.283-3.787-3.477-5.286-.442-.899-.445-.969-.124-1.461.423-.649.456-1.371-.036-1.982-.81-1.359-1.071-2.908-1.142-4.637a2.374 2.374 0 01-.016-.282c0-1.245.868-2.875.524-3.783-.366-2.384.12-6.317.604-8.671.014-1.111-.591-2.193-.451-3.326.025-.152.037-.287.037-.405 0-.676-.355-.903-.172-1.629.175-.446.47-4.098.383-4.534-.018-2.848-.421-8.655.809-11.303-.108-.59-.746-1.044-.797-1.813-.077-.478-.231-.761-.416-.761-.525.002-.653 2.575-.44 2.882-.014 7.242-.655 17.364-.533 24.595-.238 2.728-.207 8.656-.643 11.532-.162.987-1.579 3.478-2.205 4.153-.26.169-.473.245-.669.245-.524 0-.928-.544-1.802-1.313-1.459-1.8-2.659-.804-2.899-2.946-.381-1.831-.51-3.569-.51-5.286 0-3.014.403-5.966.575-9.253.163-1.782.206-3.899.206-6.114 0-2.345-.047-4.797-.047-7.073 0-1.776.028-3.443.13-4.866.104-.747.084-1.349-.052-1.65a1.824 1.824 0 01-.097-.626c0-.802.37-1.709.324-2.641.002-.126.004-.251.004-.375 0-1.125-.154-2.222-.154-3.365 0-2.296.571-5.678 1.312-7.999.238-.45.276-.956-.097-1.354-.378-.621-.754-1.959-1.399-.525-.232.999-1.104.984-.517 2.197.159.764.216 1.816.216 2.945 0 1.892-.159 4.001-.246 5.327-.271.686-.164 2.004-.474 2.592-.114.155-.086.488.073.868.169.537.23 1.034.23 1.516 0 1.475-.588 2.807-.443 4.797.014 6.704-.13 16.37-.407 23.183-.124 2.64-.336 4.593-.708 6.507-.602 2.309-.43 3.751-1.744 4.845-.62.25-1.37 1.557-2.053 1.374-.665-.255-2.263-2.018-2.519-2.746a5.212 5.212 0 01-.336-1.874c0-.969.206-2.042.257-3.944.189-3.014.52-22.091.398-24.743.25-12.03 1.315-25.129 1.935-37.611.686-13.795.852-31.258 2.349-45.025.179-1.751.614-5.364.667-6.924.033-.814.033-.814-1.492-.894-6.831.255-21.037-.344-33.59-.344-8.277 0-15.838.261-20.079 1.2a.441.441 0 01-.282.1c-.653 0-1.409-1.425-1.464-1.94-.279-.472-.366-1.025-.366-1.615 0-1.188.366-2.521.294-3.613a2.123 2.123 0 01-.02-.319c0-1.078.531-3.243.138-3.868-.169-.27-.166-.5.015-.896a.645.645 0 00.126-.401c0-.584-.612-1.236-.291-1.737.308-.441-.148-1.715.185-2.105.173-.21.171-.411-.01-.81a1.056 1.056 0 01-.118-.521c0-.769.538-1.79.444-2.491 0-.426-.116-.959-.257-1.187a.566.566 0 01-.094-.313c0-.645 1.034-1.367.963-2.206.181-1.204.427-1.181 1.485-.93 1.096.293 2.351.429 3.586.429 2.406 0 4.672-.141 6.865-.141 7.947 0 14.89.574 23.58.574 8.59 0 14.18.116 19.743.248.183.01.344.016.493.016 1.408 0 1.423-.515 2.48-.969.554-.093.863-.625 1.428-.463.861.137 1.232-.475 2.347-.095.838.187 1.044.17 1.355-.112.458-.446.765-.061 1.266-.33.71-.266.829.447 1.801.14 1.318-.46 3.169-.698 4.536-.714.134.014.271.02.411.02 1.694 0 3.754-.943 5.387-.935.131.016.265.023.401.023 1.212 0 2.752-.529 3.655.164 2.354 1.02 1.318 2.135 2.469 2.186 8.594-.497 17.731-.94 26.774-.94 6.463 0 12.877.225 19.012.825.866.014 1.946.149 2.396.295.228.118.603.161 1.057.161 1.157 0 2.814-.271 3.762-.243 4.741.391 10.014.955 14.688 1.502 3.898.466 9.085 1.063 12.988 1.521 3.164.366 6.984.41 9.935 1.376.311.144.529.138.714-.015.218-.283 1.825-.063 1.983.18-.575.573-1.592.386-2.947.508-2.268.13-2.492.22-4.471.354-1.477.399-3.172.915-4.561 1.185a.833.833 0 01-.435.118c-.526 0-1.064-.435-1.737-.426a2.54 2.54 0 00-.373-.027c-.866 0-.704.616-1.916.279a4.716 4.716 0 00-.776-.062c-1.176 0-1.923.446-3.922.28-.13.002-.256.002-.381.002-2.373 0-4.054-.473-6.048-.556-.791.024-1.981.219-2.347-.147-2.604-1.084-6.825-1.089-9.716-1.157-1.226-.105-3.788.523-4.704-.053-1.611-.626-3.053-.264-5.46-.445-4.621.006-12.065-.46-16.298-.264a1.915 1.915 0 01-.55.072c-1.186 0-2.57-.878-4.073-.211-5.651.61-13.293.535-19.04.856-1.161.159-4.975-.036-5.286.762.333.311 1.126.414 2.133.414 2.506 0 6.348-.655 7.862-.486 5.012-.067 13.713-.252 21.101-.252 3.446 0 6.603.039 8.968.147.828.04 7.13.288 7.13.709 0 .118-.508.252-1.8.401-1.357.179-.87.761-2.9.649-2.6-.039-4.804-.056-7.068-.056-3.881 0-7.931.141-14.418.141-3.448 0-4.536-.232-6.121-.215-1.863.791-5.85.639-8.152.798-1.579.02-3.873.147-2.199 1.046.537.098 1.296.133 2.134.133 1.896 0 4.218-.188 5.438-.29 1.068.259 3.679.338 4.712.617.232.138.535.138.93.002.118-.075.305-.108.529-.108.744 0 1.883.344 2.209.507-.981.775-4.881.521-5.953 1.178a.58.58 0 00-.089.287c0 1.017 4.17.388 4.882.812.285.083.57.115.862.115 1.117 0 2.287-.482 3.452-.435 1.205.052 3.074.147 4.107.517.792.358 1.296.484 2.032.484.472 0 1.038-.052 1.839-.131.907-.173 1.607-.244 2.165-.244 2.406 0 2.109 1.318 4.448 1.076 1.339-.27 3.268.34 4.454-.1.445-.154 1.122-.28 1.503-.28 1.202.079 1.201.768 2.712.73 1.677.27 4.012-.288 5.16 1.003.37.594.976.808 1.499 1.087 1.967.998 5.584.814 7.61 1.558.173.136.252.239.252.323 0 .486-2.774.116-4.194.246-5.535.126-3.362-.539-7.333-.846-2.051-.126-7.419-.198-9.354-.32-1.501-.11-3.246-.365-4.926-.365-1.351 0-2.657.167-3.757.708a.989.989 0 00-.149.473c0 1.227 3.835.588 4.532 1.125.95.57 1.725.064 2.484.074 2.238.338 4.819.565 7.323.565 1.17 0 2.321-.051 3.413-.163 2.49.085 3.716.266 6.145.47 1.184.28 4.569.236 5.519.728.87.385 2.665.84 2.665 1.192 0 .181-.464.334-1.752.442-2.182.34-1.349-.54-3.232-.015-1.813.34-3.778.544-5.546.349a1.817 1.817 0 00-.575-.102c-.592 0-.834.384-1.682.197-3.719-.399-7.852-.432-11.556-1.042-10.677.193-22.439.051-33.175.814-1.416.093-7.64.093-8.487.655-.685 1.869-.718 4.26-1.058 6.567-1.45 10.61-1.534 21.688-2.331 32.341-.021 15.335-1.458 29.173-1.976 42.104-.395 11.196-.035 28.716-1.128 39.735.021 1.323.474 7.025.509 8.365.039 1.306.039 1.29-.871 1.29zm-541.288-3.055l-.001-.002c-.686-.372-.758-2.061-1.232-2.71-.338-.547.411-.107.598.295.283.413.889 1.996.635 2.417zm407.613-.422a.142.142 0 01-.047-.004l.002-.003c-1.061-.317.22-1.392.745-.652.074.205-.449.648-.7.659zm-173.255-.055c-3.541-.268-10.643-.542-14.162-1.21-.166-.067-.908-.099-1.642-.075a4.22 4.22 0 01-.427.021c-1.511 0-2.345-.78-3.873-.993-7.384-1.211-14.654-3.172-21.413-6.455-3.249-1.426-6.662-3.757-9.66-5.561-.472-.13-2.614-2.322-3.09-2.51-1.485-.809-3.286-3.318-4.718-4.205-5.195-4.561-9.353-10.655-12.425-16.778-1.314-3.541-3.026-6.708-3.65-10.371-1.455-4.455-1.927-9.276-2.419-14.034-.499-6.381-1.288-13.007-1.288-19.439 0-13.289 5.504-26.328 14.674-36.092 2.411-3.134 2.995-1.098 5.247-2.827 4.758-3.78 4.05-2.085 8.673-3.625 1.021-.285 1.347-1.089 2.004-1.376 3-1.558 5.715-4.049 9.003-5.127 1.466-.537 2.443-1.914 4.371-2.057 2.488-.358 1.835-1.325 4.13-1.951 2.701-.824 3.598-2.341 6.403-2.87 1.971-.059 1.544-1.286 2.899-1.091.572.106.724.046 1.013-.396 1.426-1.271 3.557-1.619 5.486-1.843 1.739-.403 3.33-.743 4.779-1.693.522-.319 3.431-.525 3.891-.978 1.222-.69 2.957-.459 4.395-1.021 1.823-.744 8.135-.142 8.589-2.034-.519-1.245-2.734-.329-3.155-1.708-.482-.71-1.318-.916-2.25-.916-1.322 0-2.832.421-3.772.423a.793.793 0 00-.213-.026c-.741 0-2.435.638-2.885.402-.232-.094-1.177-.164-2.101-.162h-.195c-.968 0-1.33-.079-1.33-.191 0-.289 2.382-.798 3.161-.77 1.434.051.915-.693 2.237-.856.149-.032.312-.045.485-.045 1.037 0 2.461.452 3.267.167.801-.366 2.998.38 3.702-.134.492-.411 1.954-.139 2.347-.519.049-.075.203-.113.417-.113.852 0 1.145.151 1.566-.233 3.493-1.306 8.566-1.153 12.649-.972 4.3.218 7.109.714 11.183.989 1.005.205 3.644.74 4.472.93.565.358 1.971.575 2.752.683 1.825.191 3.172 1.247 5.008 1.564 1.038.13 1.381.83 2.117 1.009 1.286.208 2.676 1.059 3.943 1.403 1.452.519 3.438.65 4.776 1.337.141.167.549.304.911.304.791-.035 2.039.67 2.757.825 3.33 1.234 7.363 3.895 10.318 5.722 1.731.781 3.31 2.461 4.813 3.753 1.609 1.369 3.654 2.978 4.913 4.684 4.827 5.818 8.962 12.49 10.462 19.992 1.299 5.474 1.459 10.682 1.481 16.664.098 1.963.132 2.92.132 3.672 0 1.127-.079 1.79-.155 4.699-.044 4.888.1 9.025-.956 13.299-.594 3.529-.897 7.685-2.386 10.879-.115 1.237-.616 2.74-.978 3.863 0 .51-.659.757-.606 1.322-1.146 3.646-3.289 7.015-5.466 10.162-4.77 8.076-11.845 15.759-18.942 21.766-1.176 1.43-2.45 2.228-3.977 3.501-.893.923-1.402.603-1.916 1.374-.104.278-.314.506-.468.506-.492.079-1 .921-1.619.953-.34.067-.67.313-.796.594-1 1.098-2.929 2.089-4.221 2.927-16.178 9.382-29.771 12.254-48.282 12.858l.01.01zm441.005 0c-3.541-.268-10.642-.542-14.161-1.21-.167-.067-.908-.099-1.642-.075a4.192 4.192 0 01-.427.021c-1.511 0-2.345-.78-3.873-.993-7.384-1.211-14.655-3.172-21.414-6.455-3.249-1.426-6.662-3.757-9.66-5.561-.472-.13-2.614-2.322-3.09-2.51-1.485-.809-3.284-3.318-4.716-4.205-5.196-4.561-9.354-10.655-12.426-16.778-1.314-3.541-3.027-6.708-3.651-10.371-1.455-4.455-1.926-9.276-2.418-14.034-.498-6.381-1.288-13.007-1.288-19.439 0-13.289 5.505-26.328 14.675-36.092 2.41-3.134 2.993-1.098 5.245-2.827 4.758-3.78 4.05-2.085 8.674-3.625 1.021-.285 1.347-1.089 2.004-1.376 3.001-1.558 5.716-4.049 9.003-5.127 1.467-.537 2.443-1.914 4.371-2.057 2.488-.358 1.835-1.325 4.13-1.951 2.701-.824 3.598-2.341 6.403-2.87 1.971-.059 1.545-1.286 2.899-1.091.572.106.724.046 1.013-.396 1.426-1.271 3.558-1.619 5.486-1.843 1.739-.403 3.329-.743 4.778-1.693.523-.319 3.432-.525 3.892-.978 1.223-.69 2.957-.459 4.395-1.021 1.823-.744 8.135-.142 8.589-2.034-.519-1.245-2.735-.329-3.156-1.708-.482-.71-1.318-.916-2.25-.916-1.322 0-2.831.421-3.771.423a.788.788 0 00-.213-.026c-.74 0-2.435.638-2.884.402-.232-.094-1.178-.164-2.101-.162h-.196c-.968 0-1.33-.079-1.33-.191 0-.289 2.382-.798 3.161-.77 1.434.051.915-.693 2.238-.856.148-.032.31-.045.483-.045 1.038 0 2.462.452 3.267.167.801-.366 2.999.38 3.703-.134.492-.411 1.955-.139 2.347-.519.049-.075.203-.113.417-.113.852 0 1.145.151 1.566-.233 3.493-1.306 8.567-1.153 12.649-.972 4.3.218 7.109.714 11.184.989 1.004.205 3.643.74 4.471.93.565.358 1.97.575 2.751.683 1.825.191 3.172 1.247 5.009 1.564 1.037.13 1.381.83 2.118 1.009 1.285.208 2.675 1.059 3.942 1.403 1.453.519 3.437.65 4.776 1.337.14.167.549.304.911.304.791-.035 2.038.67 2.756.825 3.33 1.234 7.364 3.895 10.32 5.722 1.731.781 3.309 2.461 4.813 3.753 1.609 1.369 3.652 2.978 4.911 4.684 4.827 5.818 8.964 12.49 10.463 19.992 1.3 5.474 1.458 10.682 1.48 16.664.098 1.963.133 2.92.133 3.672 0 1.127-.079 1.79-.154 4.699-.045 4.888.098 9.025-.957 13.299-.594 3.529-.897 7.685-2.386 10.879-.116 1.237-.617 2.74-.979 3.863 0 .51-.659.757-.606 1.322-1.145 3.646-3.289 7.015-5.466 10.162-4.77 8.076-11.845 15.759-18.942 21.766-1.176 1.43-2.448 2.228-3.976 3.501-.893.923-1.401.603-1.916 1.374-.104.278-.313.506-.468.506-.492.079-1.001.921-1.62.953-.339.067-.669.313-.795.594-1.001 1.098-2.929 2.089-4.221 2.927-16.177 9.382-29.772 12.254-48.283 12.858l.01.01zm-272.115-.3a2.863 2.863 0 01-.474-.049 6.507 6.507 0 01-.291-.01l-.003.002c-1.583-.118-1.75-.993-3.439-.799a2.26 2.26 0 01-.634.05c-.93-.068-1.092-.891-1.991-1.21-.301-.1-.589-.083-.675.035-.35.319-1.773.146-2.021-.339-.163-.537-1.862-.428-2.086-.745.407-.385 1.958-.158 2.538.117 2.123.311 4.523.932 6.785 1.262.187-.014.357-.015.511-.005 1.259.094 1.663.946 2.762 1.177.281.029.394.087.392.154-.012.162-.683.373-1.374.36zm13.674-1.491c-2.206.001-4.408-.052-6.213-.122l-.028.014c-1.426-.541-1.756-.688-2.085-.713-.316-.02-.629.07-1.906.036-1.097-.299-1.553-.828-2.848-.848a2.67 2.67 0 01-.348-.003c-1.153-.085-1.519-.921-2.455-1.379-2.254-.803-6.457-1.199-8.719-2.177-1.344-.283-2.082-.913-3.221-1.061-1.31-.275-2.098-1.308-3.776-1.398-2.418-.533-6.348-.837-8.633-1.112-4.462-1.54-10.11-2.582-14.402-4.659-.755-.482-2.119-.496-2.831-.783-1.869-.606-4.445-1.745-6.235-2.54-5.143-1.915-10.208-4.885-14.805-7.851-.799-.563-1.613-.797-2.579-1.544-.793-.573-1.086-.689-1.402-.549-.144.089-.368.108-.642.09-1.402-.106-4.024-1.257-2.948.69 1.938 4.249-6.643-4.716-6.448-5.656-2.549-3.694-3.532-8.469-3.184-13.089a23.687 23.687 0 011.06-5.464c.377-.545.324-1.76 1.357-1.528a.406.406 0 01.216-.047c.402.029.455.856.388 1.778-.084 1.096-.339 2.323-.394 2.484-.315 5.608 2.608 5.927 4.947 9.623.569 1.192 1.175.865 2.332 2.152 1.966 1.776 2.42 1.712 4.474 3.169 1.046.878 3.317 2.725 4.385 3.301.842.38 2.258 1.204 2.913 1.918 1.58 1.216 3.768 2.591 5.423 3.804 1.63.72 1.847 1.257 3.324 1.859 4.329 2.124 9.516 3.598 14.091 5.201 3.57.973 8.302.73 11.636 2.557.82.345 3.956 1.544 4.531.821.389-.325.717-.414 1.032-.547.057-.278-.568-.833-.57-1.185-.053-.199-.258-.379-.454-.397-.429-.067-6.017-.368-5.771-1.097-.474-.75-1.506-.54-2.066-.974-.164-.16-.7-.441-1.19-.624-1.075-.527-2.646-.833-3.502-1.406-.002-.078.113-.097.304-.083.856.065 3.238.866 3.249.992 1.161.529 3.741 1.128 5.161 1.425.472.024 1.375-.041 1.544.195.22.366 1.084-.092 1.13-.352-.482-.96-2.485-.954-3.218-1.552-.398-.372-2.202-.586-2.579-.898-.136-.158-.043-.216.311-.187.458-.126.806-.164 1.117-.14.611.047 1.085.329 1.978.689 1.485 1.231 8.722 1.152 10.42 1.852.649.356 2.395.61 3.141.795.385.094.863.274 1.058.405.38.443 1.4-.548 1.379-.899-.872-1.201-2.805-.875-4.174-1.388-1.873-.459-3.129-1.053-5.02-1.456-1.463-.126-1.538-.924-2.674-1.276-1.255-.384-5.463-.318-6.429-1.36-.199-.075-.448-.108-.716-.128-.661-.051-1.463-.016-2.063-.285-.929-.266-1.251-.637-1.992-.77a.916.916 0 01-.609-.349c-4.972-1.436-11.154-3.338-15.891-5.669-.962-.543-1.081-.747-2.239-1.001-1.336-.307-1.539-.917-2.912-1.395-4.044-1.805-7.815-4.114-11.284-6.793-4.013-2.372-7.242-6.319-9.9-10.103-.592-.695-.811-1.204-.785-1.56.037-.525.613-.711 1.32-.658.729.053 1.595.361 2.169.819 1.664 1.322 2.716 2.534 4.553 3.608.39.285.837.76 1 1.049.394.726 1.27.951 1.825 1.549 1.739 1.55 4.216 2.602 6.224 3.621.209.014.486.17.611.349.506.517 1.191.311 1.854.964 1.256 1.005 2.976 1.5 4.318 2.275 1.786.933 3.683 1.902 5.524 2.805 1.052.358 1.568 1.19 2.679 1.402 1.31.325 1.245.76 2.825 1.065 1.463.363 3.941.769 5.186 1.414 1.484.915 3.754 1.277 5.391 1.515 1.845.407 4.08 1.648 5.855 2.088 1.06.394 2.852.534 4.225.827 3.505.732 7.59 2.02 11.011 2.836 1.925.146 4.669.764 6.514 1.358 4.672.9 9.796 1.673 14.914 2.057 4.284.32 8.56.371 12.567-.005 11.225-1.5 21.615-6.16 30.41-13.147 3.176-3.007 7.62-6.416 10.197-10.157 2.238-2.951 4.889-5.546 4.671-9.203-.219-6.652-2.718-13.161-8.641-16.672-1.203-.889-2.185-.883-3.082-1.485-.427-.437-1.752-.818-2.337-.932-2.616-.976-6.755-.991-9.502-1.508-7.325-.02-14.681 1.307-21.969 2.302-3.204.504-6.002 1.621-9.019 2.445-3.84 1.041-8.333 2.278-12.125 3.385-4.369.824-8.672 2.061-13.07 3.164-1.275.459-2.877.263-3.849.686-.676.391-1.183.123-2.084.508-6.516 1.285-13.465 1.996-20.251 1.488-6.035-.454-11.942-1.875-17.294-4.719-6.916-4.329-12.831-11.135-14.668-19.337-.468-1.8-.551-3.669-.411-5.553.232-3.086 1.067-6.208 1.801-9.121.938-5.095 2.485-9.645 3.762-14.569 3.019-14.054 14.884-24.296 27.724-29.711 6.46-2.691 12.827-4.681 19.699-5.661 5.923-1.432 11.889-1.872 18.437-1.382 10.616.798 21.011 3.034 31.198 5.794 6.523 2.291 12.858 4.941 19.249 7.726 1.924.885 4.278 1.607 5.795 2.856.806.476.393 2.626.226 3.326-.234.732-.496.764-.655 1.474-.083.375-.325.555-1.005.751-1.074.26-1.43 1.07-2.203 1.643-.991.584-1.366.644-1.38.821-.01.173.318.456.764 1.446.333 1.898.983 3.66.554 5.779-.141.989-.358 1.885-.478 1.989-.409.663-.281 1.829-.739 2.75-.293.981-.785 1.341-.765 2.083.047.163-.037.493-.193.729-.804 1.414-1.06.588-2.029.195-1.133-.909-2.674-1.733-4.163-2.48-6.77-3.279-13.618-6.104-20.766-8.476-9.665-3.009-20.123-5.45-30.402-6.223a91.971 91.971 0 00-5.124-.239c-5.24.256-10.602.65-15.638 1.852-2.1.812-4.725 1.044-6.861 1.762-1.878.987-3.849 1.349-5.915 2.039-5.718 2.131-10.812 5.037-15.621 8.901-2.919 2.374-7.227 5.236-7.512 9.024-.065.878.083 1.804.514 2.784 2.6 7.589 10.016 14.113 17.506 16.721 3.664 1.346 7.675 2.081 11.776 2.388 6.115.458 12.427-.029 18.088-.845 3.548-.801 6.976-1.144 10.564-2.189 1.818-.486 3.313-.52 4.957-.87 2.174-.486 4.396-1.389 6.56-1.608 3.346-.686 6.944-2.226 10.402-2.92 3.34-.946 6.351-1.47 9.598-2.3 8.169-1.129 16.741-2.994 25.087-2.368 6.091.458 12.606 1.713 17.24 5.903 5.392 5.258 6.761 12.384 6.22 19.607-.417 5.549-1.967 11.16-3.688 16.024-.213 1.79-1.562 4.861-2.054 6.521-.44 1.253-.68 3.186-1.408 4.315-1.526 3.722-2.791 8.083-5.085 11.46-.806 2.238-3.021 4.526-4.524 6.275-2.614 3.45-5.726 6.272-9.274 9.439-4.961 4.514-9.89 6.581-15.236 10.016-.407.206-.998.357-1.31.336-.954-.014-1.672 1.139-2.691 1.413-2.512.769-4.76 1.135-7.282 2.01-1.987.213-3.89.55-5.786.946-1.819.151-4.03.207-6.236.208zm-403.642-.295c-.971-.454-2.458-8.646-.644-4.057.104 1.009 1.567 3.145.641 4.052l.003.005zm231.981-1.661c.649-.588.84-.022 1.477-.38a.856.856 0 01.35-.081c.492 0 .868.466 1.808.181 1.05-.269 4.478.063 5.198-.629.96-.653 1.651-.6 2.733-1.423 1.837-1.18 3.867-.751 5.751-1.772.523-.342 1.735-.732 2.29-1 .57-.316 1.713.176 2.199-.351 1.495-1.044 3.748-1.853 5.403-2.575 1.166-.459 2.262-.435 3.345-1.06.307-.24.766-.439 1.02-.439.496.065 1.639-1.05 2.001-1.184 1.467-.775.975-.097 2.147-.134.575-.165.665-.96 1.363-.92.814-.03 2.581-1.302 3.307-1.674 3.423-2.345 6.83-4.788 9.975-7.471 1.217-.916 1.685-1.458 1.685-1.747 0-.191-.21-.272-.547-.272-.661 0-1.809.302-2.815.644-.586.092-5.078 3.784-5.501 4.02-.131.054-.479.347-.774.648-.511.62-1.793.923-2.183 1.541-.454.651-1.333.599-2.011 1.219-2.634 1.74-5.473 3.234-8.28 4.64-3.741 2.048-7.921 3.607-12 4.658-1.841.519-3.458.93-5.286 1.597-.987.413-2.028.2-2.964.676-.625.504-5.305.374-6.154.534a1.789 1.789 0 01-.329.027c-1.023 0-2.61-.622-3.43-.305a6.826 6.826 0 01-1.462.204c-1.05.014-.905.339-2.024.559-1.357.421-3.554-.094-4.549.907a.803.803 0 00-.087.332c0 .88 2.463.474 3.747.567h.909c1.973 0 2.628.051 3.678.45l.01.013zm441.005 0c.649-.588.841-.022 1.477-.38a.856.856 0 01.35-.081c.492 0 .87.466 1.809.181 1.05-.269 4.477.063 5.197-.629.96-.653 1.652-.6 2.734-1.423 1.837-1.18 3.867-.751 5.751-1.772.523-.342 1.734-.732 2.29-1 .569-.316 1.713.176 2.199-.351 1.496-1.044 3.747-1.853 5.403-2.575 1.165-.459 2.261-.435 3.344-1.06.307-.24.767-.439 1.021-.439.497.065 1.64-1.05 2.002-1.184 1.466-.775.974-.097 2.146-.134.576-.165.665-.96 1.362-.92.814-.03 2.582-1.302 3.308-1.674 3.424-2.345 6.831-4.788 9.976-7.471 1.216-.916 1.684-1.458 1.684-1.747 0-.191-.209-.272-.547-.272-.661 0-1.808.302-2.815.644-.586.092-5.078 3.784-5.501 4.02-.13.054-.48.347-.775.648-.511.62-1.792.923-2.182 1.541-.454.651-1.333.599-2.01 1.219-2.635 1.74-5.474 3.234-8.281 4.64-3.741 2.048-7.921 3.607-12 4.658-1.841.519-3.458.93-5.287 1.597-.987.413-2.028.2-2.964.676-.624.504-5.304.374-6.152.534a1.818 1.818 0 01-.331.027c-1.023 0-2.609-.622-3.429-.305a6.817 6.817 0 01-1.462.204c-1.05.014-.906.339-2.025.559-1.357.421-3.553-.094-4.547.907a.81.81 0 00-.089.332c0 .88 2.464.474 3.747.567h.909c1.974 0 2.628.051 3.678.45l.01.013zm-798.911-4.914c-.133 0-.185-.064-.185-.172 0-.356.573-1.162.793-1.546.861-1.05 1.251-3.766 2.579-4.15-.006.777-.655 1.529-.948 2.276-.555 1.082-.726 3.122-2.021 3.554a.832.832 0 01-.213.036l-.005.002zm197.444-1.81h.002c1.02-.112 1.82-.122 2.629-.108.582.01 1.17.034 1.846.046.889.017 1.926.011 3.315-.074 4.014-.145 7.593-.757 10.927-1.074 4.006-.358 7.296-1.695 10.981-2.832 2.026-1.036 5.008-1.523 6.933-2.606 1.761-1.489 4.346-2.471 6.496-3.148a.527.527 0 01.212-.044c.834.015.806 2.434 1.894.884.278-.356.548-.442.826-.44.273.006.559.1.872.106.431.006.917-.149 1.505-.922 1.805-1.528 3.27-4.011 4.869-5.533.712-.455.795-1.225 1.33-1.882.389-.693 1.11-.422 1.531-.776.33-.773-2.432-1.565-2.705-.367-1.196 1.809-3.051.371-4.504 2.185-3.588 3.579-8.029 6.788-12.634 8.69-.665.399-3.783.848-4.534 1.281-1.434.657-1.552 1.14-3.466 1.161-.086-.002-.168-.005-.248-.005-1.515 0-1.884.692-3.009.906-1.092.338-2.508 1.022-3.768 1.167-.776.217-3.811.418-4.462.886-.309.474-3.241.102-3.705.385a94.69 94.69 0 01-7.639.334c-3.123 0-6.294-.203-8.64-.817a.876.876 0 00-.504-.167c-.62-.01-1.267.562-2.113.422-.56-.002-1.217-.109-1.464-.235a1.692 1.692 0 00-.577-.1c-.808-.016-1.723.382-2.728.195-1.231.135-5.402-.991-8.104-1.042l-.187-.001c-1.149 0-1.996.213-2.173.838-.006.311.208.46.94.657 1.107.275 1.77.748 2.759 1.1.246.047.449.067.626.069 1.023.021 1.108-.585 3.283-.17 3.819.468 9.683.918 13.388 1.031zm275.931-.365l.006-.003c-.38-.041-3.122-.779-3.295-1.223-.029-.128.075-.163.262-.151.5.039 1.593.438 2.283.408 1.926.081 2.76.886.744.969zm-350.83-.75c-.445 0-.843-1.989-1.033-2.433-.693-2.365-2.105-4.471-2.658-6.723.547-.148.496.769.968 1.001.423.352 1.558 2.156 1.33 2.754-.075.391.039.747.383 1.201.62.765.349 1.066.831 1.816.362.751.737 1.478.381 2.233-.067.098-.134.141-.199.141l-.003.01zm345.373-1.322c-.44-.072-.969-.7-1.595-.671-1.186-.326-2.806-.939-3.906-1.453-.769-.647-2.351-.714-3.098-1.377-.348-.376-1.015-.36-1.32-.846-.535-.62-2.356-.69-3.082-1.237-.482-.334-1.618-.954-.924-1.235.187-.055.488.05.665.235.436.464 1.764.319 2.275.663.675.38 1.106.474 1.757 1.035.749.637 1.882.594 2.735 1.017 1.117.745 2.896 1.42 4.251 1.518.877.203 2.048.636 2.335 1.515.02.419.242.693-.096.833l.003.003zm-124.9-.204a2.144 2.144 0 011.009-.229c.616 0 1.261.187 2.127.126 1.097-.071 2.966-.084 3.847-.346.383.053.764.077 1.149.077 1.052 0 2.122-.173 3.279-.331.21-.041.391-.057.545-.057 1.137 0 1.003.935 2.72.15 3.664-1.064 7.821-1.427 11.53-2.21 1.189-.308 1.452-.475 2.596-.896 1.133-.443 2.083-.165 3.163-.814 2.205-.962 4.8-1.901 6.969-2.867 1.462-.395 3.039-1.197 4.366-1.872 1.222-.421 2.883-.332 3.915-1.477.38-.338.819-.611.974-.611.372.006 1.85-1.354 2.189-1.425.576-.275 2.034-1.889 2.793-2.038 3.175-1.786 6.047-4.256 9.184-6.132.712-.726 1.013-.254 1.633-.612.82-.565 1.135-.736 2.177-1.759 1.128-1.097 1.129-1.097.706-1.52-.348-.348-.488-.38-.775-.181-.901.556-1.567.889-2.728 1.788a125.924 125.924 0 01-12.776 9.246c-.718.419-1.268.725-1.829 1.138-.442.322-1.909.666-2.334 1.079-1.353 1.131-3.48 1.644-4.983 2.498-.657.13-1.843.732-2.343 1.192-1.998.954-4.996 1.64-7.109 2.404-1.394.523-2.731.922-4.271 1.323-.559.077-1.151.262-1.32.411-.893.5-1.55.206-3.049.509-2.12.411-3.443.615-5.307 1.007-.486.242-2.006-.129-2.519.172-2.29.449-7.196 1.018-9.426.837-.264.049-.626.067-1.045.067-1.613 0-4.075-.305-5.255-.467-1.698-.246-1.698-.247-2.227.282-.26.21-.368.388-.368.536 0 .708 2.4.825 2.785.992l.008.01zm441.006 0a2.143 2.143 0 011.008-.229c.617 0 1.262.187 2.129.126 1.096-.071 2.966-.084 3.846-.346.383.053.765.077 1.149.077 1.052 0 2.122-.173 3.28-.331.209-.041.39-.057.545-.057 1.137 0 1.003.935 2.719.15 3.664-1.064 7.822-1.427 11.53-2.21 1.19-.308 1.453-.475 2.596-.896 1.133-.443 2.082-.165 3.162-.814 2.205-.962 4.801-1.901 6.969-2.867 1.463-.395 3.039-1.197 4.366-1.872 1.222-.421 2.885-.332 3.916-1.477.38-.338.819-.611.974-.611.372.006 1.849-1.354 2.188-1.425.576-.275 2.035-1.889 2.794-2.038 3.175-1.786 6.048-4.256 9.184-6.132.712-.726 1.013-.254 1.634-.612.82-.565 1.134-.736 2.176-1.759 1.129-1.097 1.129-1.097.706-1.52-.348-.348-.489-.38-.775-.181-.902.556-1.567.889-2.728 1.788a125.825 125.825 0 01-12.777 9.246c-.718.419-1.266.725-1.828 1.138-.441.322-1.908.666-2.334 1.079-1.352 1.131-3.48 1.644-4.983 2.498-.657.13-1.843.732-2.344 1.192-1.997.954-4.996 1.64-7.109 2.404-1.394.523-2.729.922-4.269 1.323-.56.077-1.152.262-1.321.411-.893.5-1.55.206-3.049.509-2.119.411-3.444.615-5.307 1.007-.487.242-2.006-.129-2.518.172-2.291.449-7.197 1.018-9.426.837-.265.049-.628.067-1.047.067-1.613 0-4.074-.305-5.253-.467-1.699-.246-1.699-.247-2.227.282-.261.21-.369.388-.369.536 0 .708 2.4.825 2.784.992l.009.01zm-780.625-2.457c-.04.006-.066-.009-.076-.049l.005.005c.689-1.51 1.749-3.29 2.355-4.779.067.065.096.234.096.462 0 .701-.269 1.943-.389 2.185.039.116-1.604 2.117-1.991 2.176zm450.115-4.691a2.285 2.285 0 01-.452-.051l.001-.002c-.787.271-10.916-5.917-8.196-6.108 1.24.565 2.288 2.494 4.011 2.339.599-.118 6.378 3.804 4.636 3.822zm-61.746-1.479c.076.002.16-.002.249-.012h-.01c.289-.069.709-.303.941-.517.689-.571 1.615-.268 2.406-.899.413-.278.951-.506 1.201-.506.722-.045 1.943-1.084 2.681-1.284 3.542-2.138 5.71-3.744 8.995-6.745 2.712-3.181 3.423-.574 5.372-2.84.236-.543 1.202-1.319 1.79-1.326.755.002 1.029.739 1.877.113 1.253-.696 2.545-2.039 3.162-3.292 2.048-1.713 1.826.227 3.801-3.133.712-1.07 1.601-1.942 1.801-2.993-.062-.798-.56-1.169-1.331-.331-1.462 1.152-4.403 1.339-6.175 1.988-1.005.246-1.566.437-1.906 1.233-.303.657-1.478 1.291-1.836 2.005-.908 1.17-1.823 1.204-3.144 2.628-1.586 1.528-1.552 1.524-2.848 2.832-2.034 1.699-4.247 3.564-6.505 5.045-1.678 1.369-3.21 2.608-5.037 3.501-.638.26-.742.836-1.243.968-.372.006-.931.858-1.354.812-.696.124-1.603 1.133-2.443 1.283-1.222.174-1.582 1.446-.444 1.47zm441.007 0c.076.002.158-.002.247-.012h-.01c.289-.069.71-.303.942-.517.69-.571 1.615-.268 2.407-.899.413-.278.949-.506 1.199-.506.723-.045 1.943-1.084 2.682-1.284 3.541-2.138 5.709-3.744 8.994-6.745 2.712-3.181 3.424-.574 5.373-2.84.236-.543 1.202-1.319 1.79-1.326.755.002 1.029.739 1.878.113 1.253-.696 2.545-2.039 3.161-3.292 2.048-1.713 1.826.227 3.802-3.133.712-1.07 1.601-1.942 1.8-2.993-.061-.798-.56-1.169-1.33-.331-1.463 1.152-4.405 1.339-6.177 1.988-1.005.246-1.566.437-1.906 1.233-.303.657-1.478 1.291-1.836 2.005-.908 1.17-1.823 1.204-3.143 2.628-1.587 1.528-1.552 1.524-2.847 2.832-2.035 1.699-4.248 3.564-6.506 5.045-1.678 1.369-3.21 2.608-5.036 3.501-.639.26-.743.836-1.243.968-.373.006-.931.858-1.355.812-.695.124-1.603 1.133-2.444 1.283-1.222.174-1.58 1.446-.442 1.47zm-486.229-.757c.246.001.413-.043.556-.131.206-.131 1.063-.234 1.905-.234 2.132-.116 1.537.744 3.679.049 3.645-1.024 8.141-.981 11.757-1.963 4.37-.922 8.666-1.787 12.734-3.636 2.974-1.06 6.007-1.861 8.749-3.421 2.734-1.54 5.513-2.845 8.025-4.745 3.468-2.008 7.15-4.669 10.248-7.124 1.617-.765 4.266-3.888 5.969-4.533.696-.388 1.895-2.439 2.721-2.923 1.511-1.361 3.224-3.803 4.735-5.127 2.993-3.893 6.366-7.191 8.858-11.662 2.952-4.278 4.33-7.547 6.152-12.203.525-1.707 1.524-3.961 1.868-5.635a5.49 5.49 0 01-.004-.208c0-.616.118-1.932.118-3.069 0-.911-.075-1.708-.349-1.95-.232-.458-.334-.933-.255-1.183a.926.926 0 00.027-.221c0-.541-.526-.893-.67-1.506-.629-1.304-1.443-3.827-2.309-4.962-.338-.332-1.458-1.878-1.426-2.397-.032-.547-1.073-1.302-1.236-1.82-.098-.255-.317-.52-.49-.585-.399-.126-.843-1.297-1.235-1.427-.464-.142-1.135.717-1.552.813-.612.226-.421 1.913.398 1.62.224-.086.277.025.226.471.021 1.051-1.361.14-1.458 1.196-.232 1.318-.873 2-2.126 1.115-1.455-1.2-1.916-3.81-3.171-5.314-1.623-1.924-2.781-3.233-4.72-4.903-6.188-5.411-13.751-9.535-21.127-13.096-1.383-.533-1.412-.629-3.285-1.005-3.023-.588-5.293-2.278-8.124-2.99a102.775 102.775 0 00-20.226-2.026c-9.872 0-19.757 1.467-29.07 4.607-3.657 1.286-7.416 1.781-10.677 3.71-1.59.763-4.55 1.911-6.143 2.675-.468.251-1.056.456-1.304.456-.665.02-1.22.728-1.796 1.047-3.33 1.074-5.178 2.48-8.544 4.29-3.243 1.562-5.045 3.766-7.862 5.314-3.245 1.745-5.987 5.87-8.889 8.124-2.23 1.66-3.82 4.393-5.564 6.444-3.653 4.449-6.605 10.076-8.431 15.546-.631 2.223-1.573 4.765-1.156 7.115.254 1.033-.378 1.201.064 2.169.301.665.477 2.465.85 3.031.152.177.278.565.28.866-.112.986 1.073 2.003 1.016 2.964.714 2.164 2.654 5.771 4.18 7.553.315.325.586.768.6.984.057.537 1.191 1.902 1.46 2.347 5.415 7.773 13.538 13.961 21.833 18.41 8.43 3.93 17.478 6.596 26.739 7.986.989.474 6.687.259 7.502.737.196.165.681.166 1.802-.001.403-.085.747-.12 1.058-.12 1.121 0 1.784.441 2.945.421l-.002-.028c1.152-.159 1.794-.328 3.118-.046.458.089.783.134 1.029.134zm441.006 0c.246.001.413-.043.556-.131.206-.131 1.062-.234 1.904-.234 2.132-.116 1.538.744 3.68.049 3.645-1.024 8.141-.981 11.758-1.963 4.369-.922 8.665-1.787 12.734-3.636 2.974-1.06 6.006-1.861 8.748-3.421 2.734-1.54 5.513-2.845 8.026-4.745 3.468-2.008 7.15-4.669 10.248-7.124 1.617-.765 4.264-3.888 5.967-4.533.696-.388 1.896-2.439 2.722-2.923 1.511-1.361 3.225-3.803 4.736-5.127 2.992-3.893 6.364-7.191 8.856-11.662 2.952-4.278 4.331-7.547 6.154-12.203.525-1.707 1.523-3.961 1.867-5.635a5.822 5.822 0 01-.003-.208c0-.616.117-1.932.117-3.069 0-.911-.075-1.708-.35-1.95-.232-.458-.334-.933-.254-1.183a.976.976 0 00.026-.221c0-.541-.524-.893-.669-1.506-.628-1.304-1.442-3.827-2.309-4.962-.337-.332-1.458-1.878-1.425-2.397-.033-.547-1.075-1.302-1.238-1.82-.097-.255-.317-.52-.49-.585-.399-.126-.841-1.297-1.234-1.427-.464-.142-1.136.717-1.553.813-.612.226-.42 1.913.4 1.62.223-.086.275.025.224.471.021 1.051-1.359.14-1.457 1.196-.232 1.318-.873 2-2.126 1.115-1.455-1.2-1.917-3.81-3.172-5.314-1.623-1.924-2.78-3.233-4.718-4.903-6.189-5.411-13.752-9.535-21.128-13.096-1.383-.533-1.411-.629-3.285-1.005-3.022-.588-5.292-2.278-8.124-2.99a102.768 102.768 0 00-20.226-2.026c-9.871 0-19.758 1.467-29.07 4.607-3.658 1.286-7.417 1.781-10.677 3.71-1.591.763-4.551 1.911-6.144 2.675-.468.251-1.055.456-1.303.456-.665.02-1.221.728-1.797 1.047-3.33 1.074-5.176 2.48-8.543 4.29-3.242 1.562-5.045 3.766-7.862 5.314-3.244 1.745-5.986 5.87-8.889 8.124-2.23 1.66-3.82 4.393-5.563 6.444-3.654 4.449-6.605 10.076-8.432 15.546-.631 2.223-1.573 4.765-1.156 7.115.255 1.033-.378 1.201.064 2.169.301.665.478 2.465.85 3.031.153.177.278.565.28.866-.111.986 1.072 2.003 1.015 2.964.714 2.164 2.655 5.771 4.181 7.553.315.325.585.768.599.984.057.537 1.193 1.902 1.461 2.347 5.415 7.773 13.538 13.961 21.833 18.41 8.43 3.93 17.477 6.596 26.738 7.986.989.474 6.687.259 7.503.737.195.165.681.166 1.802-.001.403-.085.747-.12 1.058-.12 1.121 0 1.784.441 2.946.421l-.003-.028c1.152-.159 1.794-.328 3.119-.046.457.089.782.134 1.028.134zm-676.072-13.769c1.055.01.138-1.46-.308-1.698-1.153.191-1.07 1.588.201 1.69l-.001.002c.038.004.074.006.108.006zm-57.101-11.971c.136.001.276-.001.423-.008l.002-.006c3.458-.171 7.776-.03 11.26-.488 1.343.214 2.186.278 3.071.278 1.461 0 3.032-.172 7.164-.121.97-.029 1.846-.039 2.625-.039 1.3 0 2.338.024 3.133.024 1.613 0 2.224-.104 1.955-.742-1.1-.169-2.988-.219-5.126-.219-4.425 0-9.925.226-11.784.138-2.952-.081-6.336.031-9.575.031-2.05 0-4.039-.043-5.821-.21a6.105 6.105 0 00-1.182-.124c-1.305 0-1.926.537-3.747.498-1.373.035-1.727.102-1.727.34.937.87 2.86.37 5.082.5.404-.018.76-.027 1.084-.027 1.472 0 2.213.168 3.163.175zm51.684-1.689c.708.006.578-.426.152-.824-.38-.37-4.397-.824-5.276-.698.472 1.586 3.626 1.289 4.969 1.515h.002c.055.005.106.006.153.007zm-24.913-1.846l.006-.002c.777 0 1.339-.089 1.713-.576.057-.384-1.432-.431-1.831-.492-6.733.187-7.32.251-7.32.507.888.861 2.666.366 4.879.561.338-.02.656-.026.953-.026.61 0 1.143.028 1.6.028zm-43.96-2.722l-.007-.009c12.329-.237 31.633.005 44.008-.647.043-.195.067-.377.067-.536 0-.565-.355-.872-1.659-.848-.948-.03-4.11-.183-4.767-.459.088-.332 4.983-.296 5.081-.491.901-.132.371-.494.061-1.267-1.843-4.987-4.259-9.858-6.318-14.731-1.245-3.08-2.795-6.007-3.922-9.123-.398-1.687-1.773-3.848-2.394-5.619-.758-2.189-1.466-4.123-2.268-6.09-.901-2.982-2.392-5.61-3.346-8.541-.635-1.597-1.436-4.764-2.353-6.231-.435-.631-.269-1.447-.598-1.9-.11-.067-.201-.273-.201-.45-.135-.695-.654-.997-.89-1.93-.389-1.42-1.231-2.279-1.347-3.686 0-.301-.158-.607-.378-.724-.648-.505-.5-1.414-1.009-2.248-.453-.755-.823-2.943-1.454-1.328-.047.403-.876.938-.811 1.448 0 .257-.091.521-.202.588-.324.366-.153 1.139-.509 1.65-.567 1.509-1.281 2.626-1.775 4.184-.32.94-1.481 2.148-1.857 3.035-.369.69-.611 3.66-1.02 4.297-.333.443-1.084 2.987-1.443 3.396-.384.504-.899 2.563-1.427 3.049-.257.279-.525.69-.596.914-.617 1.757-1.283 3.977-1.959 5.771-.148.49-.474 1.023-.72 1.186-.696.535-.625 1.792-1.231 2.532-.61 1.013-1.35 1.891-1.367 3.014.123 1.562-1.709 3.516-2.02 4.997-.09.816-.444.904-.518 1.517.076.236-.647 1.143-.613.498-.042-.496.916-1.47.457-1.94-.216-.342-.172-.527.306-1.253.936-1.685 1.066-3.037 1.778-4.837 2.459-4.591 4.656-9.614 6.572-14.455.289-.671.112-1.64.452-2.154a.652.652 0 00.171-.495c.08-1.259.533-3.004 1.092-4.241.2-.57 1.204-2.632 1.074-3.201-.87-.094-1.053.827-1.336 1.675-2.742 6.778-5.37 13.766-8.539 20.308-2.547 7.288-6.516 14.287-9.683 21.403-1.394 2.522-1.599 3.517-3.025 6.253-.672 1.874-2.705 3.368-.193 3.504 4.204.95 9.328.247 13.563 1.441.725.228 16.187-.287 17.239.051.172.264 5.839-.45 5.479.167.138.571 2.614.209 2.948.502 1.003.254 1.408.478-.106.706-3.8.152-8.828.181-12.713.292-2.582-.012-3.972-.357-5.678-.357-.665 0-1.379.051-2.233.2-.212.148-6.719-.192-6.001.604 0 .252.057.515.131.6l-.044.001.051.008zm29.3-1.42c-.355-.007-.612-.1-.516-.468-.063-.138 1.042-.227 2.066-.227.95 0 1.831.075 1.656.256-.417.445-1.847.22-2.512.399l-.003.003c-.229.016-.478.041-.691.037zm32.121-13.031c-.422.064-1.147-2.078-1.157-2.254 0-.319.061-.445.15-.445.293 0 .902 1.302.824 1.562-.087.436.635.748.262 1.091v.003a.145.145 0 01-.079.043zm101.062-.441c-2.421 0-4.825-.028-7.197-.089-1.92-.116-8.353-.602-10.354-.862-2.881-.144-6.058-1.382-8.712-.983-.23.094-.438.133-.635.131-.649-.015-1.143-.489-1.639-.914-.269-.307-.32-.794-.267-3.513-.026-4.685.769-6.719.573-10.582.057-.494.291-9.288.999-8.977.653-.362 1.211-.488 1.752-.478 1.212.025 2.347.728 4.338.966 1.501.299 3.182.653 3.737.784 5.476.848 11.284 1.154 17.085 1.267 5.248.102 10.493.042 15.487.081 6.1.057 11.642-.721 17.82-.913.93-.107 2.31-.138 3.882-.138 1.851 0 3.971.042 5.936.042 2.443 0 4.647-.065 5.811-.352 1.928-.712 4.085-.631 6.797-.763.872-.004 1.529-.024 2.021-.024 1.624 0 1.502.206 1.642 1.783-.043.675.569.884.342 1.584-.645 1.398-1.766.919-1.441 3.116-.004.332-.087.501-.272.649-1.943.849-6.109.993-8.273 1.087-.116.02-.228.026-.336.024-1.129-.019-1.957-1.09-2.882-1.015-.987.348-1.949 1.228-3.255 1.464-1.161.399-2.287.094-3.066.616-.093.086-.136.161-.136.226 0 .352 1.195.46 2.716.488 1.412.029 3.102-.011 4.37.013.856.016 1.523.063 1.779.177.064.055.232.073.464.08 1.212.02 4.155-.43 2.756.514-.269.097-.819.275-1.222.393-2.219.406-6.014.5-8.225.899-.356.463.446 1.333.973 1.284.7-.01.974-.431 1.767-.488.908-.173.908.375 1.734.208 1.057-.256 1.301-.403 2.735-.39a16.75 16.75 0 013.986.844c.179.185.347.185.722-.007.398-.195 1.037-.329 1.155.108-1.243.824-8.956.432-10.543.583-1.18.006-1.32.056-2.046.76-.718.696-.751.775-.43 1.025.505.275 1.341.442 2.175.456.828.017 1.651-.116 2.143-.435.222-.07.645-.094 1.184-.094 1.874 0 5.181.326 6.121.255.098-.002.192-.005.282-.005 1.177 0 1.759.208 1.733.997-.574.27-5.536.701-6.62.624-.769-.024-2.276-.325-2.41.578.152.486.726.641 1.536.641 1.527 0 3.889-.562 5.838-.562 1.629 0 2.962.395 3.287 1.834-1.102 2.4-6.151 2.145-8.645 2.198-5.069.857-9.829.871-15.179 1.207-10.993.932-22.673 1.567-33.926 1.567l.033.031zm-168.396-.549v-.004c-.11-.128-.157-.299-.157-.502 0-.889.907-2.333 1.316-2.852.326-.156.531-2.325 1.035-1.957-.301 1.609-1.413 3.828-2.194 5.315zm695.119-71.993l-.006-.002c-1.55 0-1.723-.209-2.997-.557-2.156-.468-3.303.305-5.738-.055-.765-.209-7.441-.293-6.231-1.273.729-.44 21.371 1.458 14.972 1.887zM312.556 522.991a47.906 47.906 0 01-1.777-.03l.003.025c-8.816-.867-17.362-5.042-23.54-11.391-2.03-2.016-5.488-4.864-6.263-7.695-.079-.643-.843-1.227-1.018-1.803a1.977 1.977 0 00-.428-.716 42.221 42.221 0 01-1.899-5.773 28.004 28.004 0 01-.156-2.975c0-2.22.259-4.565.891-6.666-2.283-.373-1.94-3.539-3.56-5.072-.439-.48-.559-.97-.567-1.456-.006-.562.139-1.116.133-1.63-.007-.545-.188-1.049-.906-1.472-.777.351-1 .754-1 1.218 0 .638.427 1.392.437 2.285.008.486-.11 1.014-.491 1.588-.325-.273-.404-2.001-.789-2.359-.445-.846-.605-5.865-2.227-2.982-.213.449-.4 1.228-.421 1.731-.148.671.24 1.186-.311 1.222-.604-.231-.686-2.502-1.671-2.148-.514.25-.921 3.462-1.734 1.879-.228-.606-.73-1.698-.948-2.272-.226-.065-.966.425-.899.775-.047.612-.663.851-.912 1.487-.211.423-.336.539-.798.545-1.129.014-1.181-.091-1.405.621-.431 1.119-.884 1.55-1.316 1.556-.931.014-1.77-1.93-2.136-3.189-.366-.682-.148-3.075-.437-3.701-.356-1.068.829-3.486-.192-4.41-.126-.112-.219-.183-.355-.18-.279.002-.738.302-2.014 1.174-10.209 7.268-22.213 9.562-34.593 9.562-8.749 0-14.457-1.07-21.271-3.843-.694-.39-.905-.195-1.709-.59-.801-.322-1.066-.844-1.879-.858-2.997-.753-6.007-4.014-8.458-5.818-7.777-6.163-10.733-15.486-11.118-25.118-.358-3.566-.866-8.615-.866-13.517 0-3.999.339-7.878 1.385-10.722.271-1.995.814-3.905 1.333-5.701.459-1.412 1.428-2.781 1.877-4.254.098-.998.812-.954 1.377-1.463.559-.454 1.2-.193 1.711-.827.282-.181.347-.526.341-.924-.01-.83-.335-1.904.336-2.246.899-.695-.146-1.254.914-1.785 1.237-1.286 3.143-3.63 4.691-4.9 8.002-7.394 17.597-13.182 27.396-17.81 7.085-3.366 15.12-5.683 22.951-5.683 6.221 0 12.343 1.456 17.817 5.014 4.459 2.62 9.103 6.628 10.921 11.614.22.741.659.993.987 1.916.336 1.182 1.085 1.101.749 2.352-.144.712-.724 2.564-.968 3.141-.661.944-3.214 1.605-1.886 3.21.969 1.536 1.857 2.518 2.182 4.304.083.907 1.068 2.897.621 3.651-.808 1.27.319.643.573 1.408-.765.319-1.195-.234-2.125.897-2.524 3.675-3.57-6.825-18.283-12.156-3.601-1.416-7.485-1.963-11.407-1.963-4.001 0-8.011.568-11.789 1.371-1.859.307-3.215 1.505-4.903 1.749-.853.051-2.076.793-3.089.8-.065-.007-.13-.006-.195-.006-1.209.016-2.398 1.289-3.263.945a.85.85 0 00-.303-.048c-.875.012-2.288 1.125-3.213 1.517-1.199.665-2.2 1.054-3.064 1.656-.627.426-1.03-.173-1.654.641-.7.828-1.955.671-2.799 1.263-1.166.783-2.589 1.52-3.779 2.222-.69.25-2.606 2.284-3.31 2.378-.2.004-.958.63-1.685 1.395-.726.763-1.483 1.438-1.684 1.495-.765.427-1.072 1.371-1.953 2.108-.494.48-1.004.92-1.13.979-.358.194-.918 1.052-1.433 1.081-1.064.553-3.333 3.151-4.364 3.711-.828 1.314-1.744 2.331-2.55 3.801-.645 1.202-.844 2.291-1.538 3.357-1.306 2.423-2.162 5.982-2.162 8.571 0 2.187 1.882 4.709 2.854 6.56 3.542 4.689 8.545 8.957 13.958 11.185 6.497 2.998 13.829 4.186 21.17 4.186 6.117 0 12.231-.823 17.884-2.11.727-.427 2.24-.734 3.067-.938.79-.14 2.29-1.094 3.03-1.243.503-.032.793-.51 1.202-.37.116.071.506-.098.864-.372.791-.635 1.327-.571 2.106-1.136 4.481-2.244 6.95-4.686 10.949-8.565 2.73-2.781 2.735-2.784 2.843-3.897.685-3.755.19-17.652.55-21.523.088-.147.711-.328 1.378-.403 1.514-.13 1.419-.585 2.816-.788.2-.026.369-.036.514-.036 1.102-.017.915.531 2.711.364 3.981-.594 8.163-.789 12.283-.634.219-.029.427-.039.624-.039 2.532 0 3.08 2.188 3.115 4.701.002.093.001.191.001.287 0 1.983-.278 4.121-.13 5.522-.057 9.221-1.69 17.881-1.792 27.083-.264 3.873-.503 8.724-.503 13.46 0 3.694.145 7.31.539 10.335 0 .395.048.797.117 1.195a6.422 6.422 0 011.072-1.705c.134-.26.251-.365.355-.358.492.036.637 2.622.3 3.092-.763 2.188-1.402 5.236-1.626 8.167-.034.468-.059.934-.071 1.392-.006.256-.008.512-.008.762 0 1.528.144 2.943.475 4.101-.034.874 1.012.323 1.397 1.35.726 1.07 1.799 3.754 3.357 2.537.373-.266.692-1.307 1.115-1.423 2.36-1.3 6.368-1.703 6.577-4.458.004-.073.006-.147.006-.227 0-.579-.159-1.261-.521-2.065-.924-1.566-.301-3.503-.826-4.92a12.738 12.738 0 01-.132-1.909c0-2.373.505-5.122 1.219-6.859.433-1.473 1.055-2.805 1.954-3.765.283-.287.528-.69.542-.897.218-.745 1.511-1.296 2.227-1.713 1.284-.576.606-1.145.024-2.016-.62-.647-1.055-1.708-1.869-1.914-.758-.191-.448-1.186-1.17-1.731-4.028-5.738-6.402-12.752-7.044-19.705-.594-4.119-.358-8.771-.376-12.983l.004-.176c.002-.072.001-.142.001-.215 0-.661-.089-1.292-.241-1.672-.128-.376-.175-.922-.175-1.556 0-1.703.345-4.052.386-5.427.032-1.044-.067-2.055-.067-3.064 0-1.961.407-3.904.747-6.064.39-2.858.836-2.315 1.443-4.225.652-2.335 2.042-4.942 3.097-7.066 2.506-4.795 5.179-9.073 8.669-13.347 9.831-11.688 23.686-18.281 38.505-20.543 1.027-.294 3.707-.479 4.767-.447 1.273.1 1.045-.632 2.406-.02.848.325 1.002.335 1.313.095.409-.433 2.495.143 3.018-.095.823-.259 1 .663 1.891.087a27.646 27.646 0 012.74-.118c1.149 0 2.399.049 3.603.139 1.139.085 2.241.211 3.181.375 3.22.792 4.725.642 7.797 1.04 4.766.857 8.764 3.651 12.787 6.052 1.835 1.539 3.066 2.405 4.87 4.25 1.597 1.655 1.712 2.322 2.355 4.214.639 1.75.429 3.627.429 5.51 0 .676.029 1.347.131 2.014.032.209.046.391.046.56 0 .744-.268 1.165-.164 1.792.087.167.138.586.116.93-.112 1.096-.696 1.618-.424 2.92.08.334.096.59.08.807-.047.605-.363.883-.383 1.587-.012.434.036.818.036 1.174 0 1.296-.519 2.205-.705 3.753a1.988 1.988 0 00-.051.354c-.079 1.023.533 1.922-.045 2.584-.509.183-.466 3.692-.93 3.942-.181.203-.352.653-.38.996-.047.58-.728 1.599-1.253.964a2.82 2.82 0 00-.699-.494c-.196-.118-.257-.354-.257-.657 0-.696.338-1.745.175-2.532-.025-3.607-.126-6.04-3.049-8.497-9.164-9.735-19.174-9.345-31.076-11.066-1.255.262-2.699.179-4.383.179-4.626 0-5.479.341-8.021.27-2.527.668-5.626.611-8.045 1.782-3.885.828-7.945 2.015-11.47 3.852-3.196 1.245-6.018 3.426-9.049 4.976-1.48 1.441-4.357 3.374-5.765 4.91-.297.614-1.476 1.836-2.06 2.3-.781.559-1.582 2.415-2.49 2.832-1.643.773-3.169 4.815-4.371 6.013-1.491 2.022-3.166 5.657-4.203 7.91-.342 1.648-1.629 2.976-1.596 4.86a3.551 3.551 0 00-.039.485c-.045 1.48.714 2.798.915 4.089 1.027 3.991 3.382 7.479 6.059 10.786 1.678 1.986 3.868 3.265 5.699 4.675.217.106.605.425.861.704.547.655 1.911.766 2.495 1.328 7.681 3.828 16.576 6.399 25.449 6.399 2.949 0 5.883-.287 8.755-.907 11.8-1.982 23.66-7.59 31.28-17.059.185.051.288-.398.339-1.072.014-.199.025-.417.031-.647.006-.224.008-.461.008-.701 0-1.569-.127-3.354-.198-3.545-.274-1.095-.817-2.936-.234-4.019 1.367-1.623 3.219-3.462 4.5-5.339.564-.932.788-1.119 1.618-1.359 1.159-.307 1.437-.739 2.533-.706.604.016 1.237.013 1.333-.117.293-.297 1.371.292 1.695-.117 1.43-.598 3.779-.663 5.303-.85.852-.167 1.45-.801 2.376-.848.413-.033.913-.134 1.112-.224.727-.226 2.048.024 2.888-.346.763-.279 2.031-.644 3.101-.612.981.029 1.788.391 1.878 1.459-.043.555-.182.75-.741 1.033-.936.525-3.822 2.788-3.822 3.927a14.36 14.36 0 00-.291 2.592c-.006.201-.008.402-.008.605 0 2.018.276 4.066.398 6.069.34 3.312.254 6.969.376 10.244.033 2.864.094 5.806.094 8.77 0 10.781-.814 21.906-6.676 31.008-2.932 5.509-8.456 10.175-13.711 13.426-1.767 1.261-4.745 2.978-6.647 3.947-.238.394-1.218.37-1.477.832-.543.604-1.025.208-1.849.774-3.09 1.324-6.053 2.682-9.143 3.949-1.874.765-3.306.913-5.253 1.678-2.414.866-4.832 1.894-7.241 2.691-1.56.73-3.633.783-5.172 1.389-8.292 2.758-17.117 5.206-25.995 5.227zm23.912-8.009c4.848.057 8.74-2.366 12.827-4.801 6.995-4.063 13.78-9.841 17.569-17.05 2.502-4.005 4-9.156 4.948-13.833.165-.561.336-2.237.491-4.231.288-3.793.506-8.734.431-9.308-.108-.042-.582.324-1.056.82-1.18 1.43-4.451 4.757-6.143 5.587-.751.366-1.698.391-1.963 1.15-.053.246-.268.519-.478.608-.563.291-.616 1.276-1.076 1.729-.864.814-1.981.973-3.092 1.986-1.001.86-2.031 1.283-2.898 1.617-.388.21-2.761 1.578-3.266 1.606-3.118 1.355-6.961 1.979-10.25 2.679-2.176.907-5.154 1.23-8.256 1.23-1.393 0-2.809-.066-4.188-.17a76.498 76.498 0 01-7.091-.896c-3.054-1.023-6.961-1.278-9.722-3.044-.388-.203-.642-.27-.848-.285-.268-.02-.464.046-.785.023-.332-.026-.801-.149-1.629-.57-3.291-1.245-5.765-3.454-8.707-4.902-.504-.348-1.638 1.873-1.265 2.16.13.254.12.474-.042.706-.151.163-.41 2.372-.564 4.379-.127 1.66-.179 3.184-.045 3.3 1.87 15.938 20.025 29.18 35.6 29.403l-.038.007c.523.062 1.034.094 1.536.1zm255.349-26.561a6.519 6.519 0 01-.663-.041l-.03.009c-.497-.057-.954-.177-1.355-.397a.615.615 0 00-.436-.187c-.522 0-1.15.653-2.643.48a4.708 4.708 0 01-.519-.083c-1.615-.275-2.921-.014-3.765-.94-.269-.445-.508-.338-2.355-.549-.565-.065-1.09-.173-1.317-.287-.177-.102-.426-.14-.714-.14-1.001 0-2.501.464-3.377.362a1.112 1.112 0 01-.171-.027c-5.571-1.184-11.568-2.486-16.794-4.441-2.114-.219-4.524-1.287-6.508-1.983-.929-.199-3.492-1.128-4.169-1.616-.806-.58-2.657-.78-3.727-1.384-1.489-.612-1.424-1.102-2.846-1.413-10.093-3.525-21.328-10.735-25.069-21.199-1.025-2.913-1.297-5.338-1.297-8.493 0-1.475.018-2.485.018-3.199 0-.99-.037-1.422-.222-1.743-.154-.104-.21-.303-.21-.553 0-.59.31-1.457.373-2.003.018-.181.016-.324-.037-.414-.024-.057-.035-.212-.035-.428 0-.441.052-1.141.127-1.816.104-.913.262-1.783.42-1.922.187-.27.206-.462.072-.67-.136-.213-.112-.422.097-.77.497-.446.025-3.478.798-3.625.116-.132.234-.189.352-.189.588 0 1.181 1.344 1.196 1.859.028.413.122.848.212.964.26.49-.06 1.135.602 1.603.311.282.567.765.606 1.142-.017.634 1.105 1.972 1.532 2.24.533.326.763.82.763 1.518 0 1.251-.181 1.286.732 2.216 1.351 1.822 3.35 3.063 5.096 4.464.797.834 1.214.578 1.662 1.287.091.236.317.445.496.467 1.399.871 3.067 1.745 4.379 2.8.527.629 2.239.778 2.882 1.274.57.403 1.677 1.011 2.308 1.112.885.493 1.958 1.063 3.032 1.356 2.03.697 5.364 2.908 7.335 3.663 1.985.399 4.313.352 6.03 1.566.893.356 4.542.944 5.514 1.387 1.74.991 3.253 1.113 5.119 1.803 6.779 2.026 15.406 2.952 22.601 3.716 2.262.177 4.546.271 6.836.271 14.955 0 30.247-3.968 41.306-14.292.533-.795.973-1.151 1.02-1.554.038-.358-.226-.753-1.009-1.522-1.347-1.387-4.398-3.498-6.19-4.159-5.405-2.661-11.982-3.984-18.464-4.73-3.515-.407-7.006-.643-10.263-.83-4.172.033-8.08-.316-12.022-.316-1.912 0-3.829.085-5.79.331-5.575.769-12.106.968-17.655 1.31-2.472.447-7.277.345-9.816.209-.368.091-.935.132-1.631.132-2.992 0-8.334-.731-10.15-1.064-3.719-.867-6.744-2.173-10.027-3.745-.907-.736-1.462-1.137-2.495-1.649-1.975-1.016-4.899-4.632-5.773-6.632-.55-2.16-.714-4.52-.714-6.916 0-3.269.311-6.609.395-9.622.13-2.648.111-5.435.422-8.147.191-1.674.511-3.315 1.073-4.875 3.722-8.291 10.076-15.246 17.859-20.272 7.07-4.929 15.309-6.193 23.277-7.997 4.536-.706 8.546-1.332 12.905-1.332 9.396 0 16.275 2.221 23.681 4.521 3.009 1.359 6.078 3.16 8.83 5.08 3.182 1.872 3.189 2.803 3.901 6.21-.084.617.776 2.065.697 2.765a.44.44 0 01-.1.254c-.149.185-.234.505-.195.71.028.511.59 1.255.128 1.717-.22.278-.258.692-.168 1.89.112.915-.007 1.397-.061 1.879-.035.295-.045.594.038.99.108.271.146.706.091.971-.175.512.236 1.072-.142 1.474-.177.169-.215.408-.121.747.089.366.168 1.318.085 2.063-.047.405-.141.746-.31.897-.311.352-.083.714-.181 1.556-.032.283-.2.488-.631.911-.598.428-.626 1.005-.686 1.528-.055.505-.145.956-.806 1.159-1.115-.034-1.888-1.057-2.769-2.091-1.43-1.782-3.669-3.291-5.386-4.512-6.544-3.865-14.172-6.275-21.919-7.168a59.433 59.433 0 00-6.796-.392c-2.752 0-5.484.195-8.149.586-8.305 1.296-17.453 3.311-24.851 7.436-3.617 2.323-8.846 6.672-11.654 9.917-.514.474-.724.909-.724 1.307 0 1.459 2.822 2.455 3.994 3.228 4.184 1.873 8.622 2.914 13.171 3.437 2.868.333 5.781.455 8.696.455 5.565 0 11.145-.457 16.466-.813 4.361-.126 8.908-.567 13.255-.567 2.61 0 5.657.172 7.864.262 1.953-.287 4.07-.405 6.224-.405 3.064 0 6.203.237 9.059.565 10.653 1.231 26.053 2.958 30.898 14.683.93 2.303 1.219 4.303 1.219 6.343 0 2.718-.513 5.505-.698 9.173-.234 2.76-.414 5.309-.689 7.708-.741 6.403-2.153 11.746-7.031 17.238-5.195 5.563-12.268 10.056-19.556 12.328-4.492 1.736-9.241 3.082-14.096 3.68-2.254.153-3.361.333-5.623.492-1.147.083-2.593.394-3.916.413a8.664 8.664 0 01-.228 0zm-135.585-3.356l.002-.008c-6.322.014-13.478-.718-19.511-2.602-1.88-.539-4.488-1.183-6.126-2.166-.569-.454-1.181-.664-2.843-.975-2.636-.336-3.568-.96-5.242-2.371-2.746-1.109-5.108-2.601-7.325-4.71-1.196-1.194-1.333-.888-2.633-2.017-.714-.606-1.206-.863-1.641-.863-.502 0-.689-.134-.976-.685-5.277-6.959-10.195-15.014-10.195-24.077 0-.811.077-2.835.217-3.215.002-.981-.191-1.496-.191-2.674 0-.443.027-.984.102-1.68.344-4.084-.18-10.122.87-13.828.336-1.564.78-2.976 1.384-4.33.321-.991.161-1.282.852-2.401 1.019-1.969-.055-1.432 1.686-3.278.696-1.254 1.599-2.707 2.39-3.805.271-.867 1.475-1.95 1.898-2.652.094-.297.305-.405.797-.405.428-.006 2.643-.543 2.515-1.188.236-.878 2.144-2.681 2.884-3.434.871-.746 1.081-1.34 1.915-1.471.197 0 .402-.177.457-.395.255-.685 1.306-.257 1.991-.587 1.514-.587 1.936-1.892 3.657-1.892.142 0 .296.01.458.026 1.713.155 3.006-1.187 4.137-2.206.94-1.125 2.898-2.053 3.83-2.934 4.023-3.685 10.414-6.823 15.351-9.052 3.08-.826 5.534-2.229 8.76-2.703 3.104-.515 6.596-1.08 9.861-1.072 1.772-.032 1.931-.067 1.931-.433.181-.34-.648-.387-1.638-.387-.393 0-.812.007-1.202.007-.924 0-1.701-.044-1.639-.331.421-.482-6.77-.449-6.986-.534-1.499-.759 5.063-.893 5.979-1.125a53.55 53.55 0 015.044-.238c4.831 0 9.818.661 13.969 2.225.598.167 1.45.27 2.113.27.579 0 1.019-.078 1.019-.265 0-.21-.536-.554-2.017-1.071-1.046-.486-3.558-.698-4.4-1.224-1.499-.566-3.601-.364-5.867-.653-3.308-.199-5.879-.732-8.741-.37-.563.482-1.037-.786-1.49-.786-.07 0-.141.033-.208.108-.645.45-1.694.352-2.569.525-1.133.099-2.342.592-3.266.911-.773-.256-1.185-.956-2.168-.423-1.564.744-3.424 1.644-5.195 1.73-.985.356-1.629-.811-2.423-.811a.915.915 0 00-.542.195c-.733.777-1.732.388-2.639 1.008-1.046.633-1.574-.201-2.587.761-1.074.921-1.27.1-2.348 1.027-.49.389-.907.57-1.117.491-.539-.893 2.943-1.962 3.596-2.668 1.406-.972 3.545-1.883 5.113-2.325.352 0 .644-.148.774-.388.46-.688 1.477-1.013 2.407-1.133 1.627-.181 2.963-1.223 4.587-1.402 1.546-.191 2.555-.678 4.196-.857 2.484-.083 3.711-.416 6.406-.465 2.119.047 4.174-.033 6.208-.033 1.936 0 3.853.071 5.786.401.907.13 4.491 1.089 5.193 1.56.657.513 2.378.212 3.1.851.655.496 1.247.329 1.855.329.278 0 .562.036.854.185 3.347 1.074 6.77 2.956 9.734 4.927 1.994.818 3.653 1.496 5.01 3.149 1.332 1.3 1.365.94 3.326 2.931 2.98 2.944 4.081 4.595 6.07 7.75.403.551.484 1.839.944 2.382.195.251.502.775.683 1.164.925 1.231 1.292 3.355 1.546 4.774 1.062 2.586 1.633 6.874 1.633 10.181 0 2.806.086 6.44-.04 8.731-.621 2.367-.226 6.576-.869 8.948-.417 5.193-.931 11.214-2.034 16.332-.126 1.219-.579 2.128-1.013 3.139-.351.785-.858 2.952-1.371 3.66-.549.683.044.827-.533 1.439-.609.639-1.371 2.869-2.083 3.5-.838 1.836-2.712 4.524-4.243 6.161-1.666 1.953-1.522 2.38-3.593 4.392-1.151 1.412-2.108 1.783-3.109 1.783-.635 0-1.288-.151-2.019-.277-.292-.181-.543-.123-1.267.3-1.593.726-2.734 2.003-4.339 2.366-.395 0-.593.122-.669.413-.26.655-1.41.97-1.986 1.415-3.611 2.059-8.264 3.598-12.214 4.593-1.056.197-1.667 1.624.247 1.188 1.919-.463 3.926-.882 5.767-1.495.506-.191 3.928-2.105 4.939-2.105.116 0 .199.024.244.077.958.319 1.245-.265 2.175-.228.37 0 .976-.185 1.348-.409.804-.433 1.298-1.373 2.171-1.587 1.338-.569 2.344-.87 3.566-1.893.765-.623 1.432-.933 1.739-.933.116 0 .177.042.177.129 0 .22-.403.715-1.434 1.494-1.343.983-1.681 1.629-2.7 1.873-1.7 1.076-4.621 3.482-6.541 4.274-.348.126-1.237.655-1.778.655a.611.611 0 01-.199-.031c-.236-.075-.496-.008-.637.161-.311.383-1.288.492-1.646.826-1.122.467-2.036.99-3.354 1.328-1.387.352-1.302.743-2.801.89-1.689.286-3.493 1.193-5.13 1.431-4.276.871-9.781.801-14.136 1.19zm310.413 0l.002-.008c-6.322.014-13.478-.718-19.512-2.602-1.879-.539-4.486-1.183-6.124-2.166-.569-.454-1.183-.664-2.844-.975-2.637-.336-3.568-.96-5.243-2.371-2.746-1.109-5.107-2.601-7.325-4.71-1.196-1.194-1.331-.888-2.631-2.017-.714-.606-1.206-.863-1.641-.863-.503 0-.691-.134-.978-.685-5.276-6.959-10.194-15.014-10.194-24.077 0-.811.077-2.835.218-3.215.002-.981-.192-1.496-.192-2.674 0-.443.027-.984.102-1.68.344-4.084-.179-10.122.871-13.828.335-1.564.778-2.976 1.382-4.33.322-.991.161-1.282.853-2.401 1.019-1.969-.055-1.432 1.687-3.278.695-1.254 1.598-2.707 2.389-3.805.271-.867 1.475-1.95 1.898-2.652.094-.297.306-.405.798-.405.427-.006 2.643-.543 2.514-1.188.236-.878 2.144-2.681 2.885-3.434.87-.746 1.079-1.34 1.914-1.471.197 0 .402-.177.457-.395.254-.685 1.305-.257 1.991-.587 1.513-.587 1.935-1.892 3.656-1.892.143 0 .297.01.46.026 1.713.155 3.004-1.187 4.135-2.206.94-1.125 2.899-2.053 3.83-2.934 4.024-3.685 10.415-6.823 15.352-9.052 3.08-.826 5.533-2.229 8.76-2.703 3.104-.515 6.596-1.08 9.861-1.072 1.771-.032 1.93-.067 1.93-.433.181-.34-.647-.387-1.638-.387-.392 0-.811.007-1.202.007-.923 0-1.7-.044-1.639-.331.421-.482-6.77-.449-6.985-.534-1.5-.759 5.063-.893 5.978-1.125a53.588 53.588 0 015.045-.238c4.831 0 9.817.661 13.969 2.225.598.167 1.45.27 2.113.27.58 0 1.019-.078 1.019-.265 0-.21-.537-.554-2.018-1.071-1.045-.486-3.557-.698-4.399-1.224-1.499-.566-3.601-.364-5.867-.653-3.307-.199-5.879-.732-8.741-.37-.564.482-1.037-.786-1.491-.786-.069 0-.14.033-.207.108-.645.45-1.695.352-2.569.525-1.133.099-2.341.592-3.265.911-.773-.256-1.187-.956-2.169-.423-1.564.744-3.423 1.644-5.195 1.73-.984.356-1.63-.811-2.423-.811a.92.92 0 00-.543.195c-.732.777-1.73.388-2.638 1.008-1.045.633-1.575-.201-2.588.761-1.074.921-1.269.1-2.347 1.027-.491.389-.908.57-1.117.491-.539-.893 2.944-1.962 3.597-2.668 1.406-.972 3.543-1.883 5.112-2.325.351 0 .645-.148.775-.388.459-.688 1.477-1.013 2.406-1.133 1.628-.181 2.964-1.223 4.587-1.402 1.546-.191 2.554-.678 4.196-.857 2.484-.083 3.71-.416 6.405-.465 2.12.047 4.175-.033 6.21-.033 1.936 0 3.852.071 5.784.401.907.13 4.492 1.089 5.193 1.56.657.513 2.378.212 3.1.851.656.496 1.247.329 1.855.329.279 0 .562.036.855.185 3.346 1.074 6.77 2.956 9.734 4.927 1.993.818 3.652 1.496 5.009 3.149 1.333 1.3 1.365.94 3.326 2.931 2.98 2.944 4.081 4.595 6.071 7.75.403.551.483 1.839.943 2.382.195.251.502.775.683 1.164.926 1.231 1.292 3.355 1.547 4.774 1.061 2.586 1.633 6.874 1.633 10.181 0 2.806.085 6.44-.041 8.731-.62 2.367-.226 6.576-.868 8.948-.417 5.193-.932 11.214-2.034 16.332-.127 1.219-.58 2.128-1.013 3.139-.352.785-.859 2.952-1.371 3.66-.549.683.044.827-.534 1.439-.608.639-1.371 2.869-2.083 3.5-.838 1.836-2.711 4.524-4.243 6.161-1.666 1.953-1.521 2.38-3.591 4.392-1.152 1.412-2.11 1.783-3.111 1.783-.634 0-1.288-.151-2.018-.277-.293-.181-.543-.123-1.267.3-1.593.726-2.734 2.003-4.339 2.366-.395 0-.594.122-.669.413-.26.655-1.41.97-1.985 1.415-3.611 2.059-8.265 3.598-12.215 4.593-1.056.197-1.667 1.624.247 1.188 1.918-.463 3.927-.882 5.768-1.495.506-.191 3.928-2.105 4.939-2.105.116 0 .199.024.244.077.958.319 1.244-.265 2.173-.228.371 0 .977-.185 1.349-.409.803-.433 1.299-1.373 2.171-1.587 1.339-.569 2.343-.87 3.566-1.893.765-.623 1.432-.933 1.739-.933.116 0 .177.042.177.129 0 .22-.402.715-1.434 1.494-1.342.983-1.68 1.629-2.699 1.873-1.701 1.076-4.622 3.482-6.542 4.274-.348.126-1.237.655-1.779.655a.605.605 0 01-.198-.031c-.236-.075-.497-.008-.637.161-.311.383-1.288.492-1.646.826-1.123.467-2.036.99-3.354 1.328-1.388.352-1.301.743-2.801.89-1.688.286-3.493 1.193-5.13 1.431-4.276.871-9.781.801-14.136 1.19zm-107.401-2.641c-1.375-.244-1.408-3.407-1.408-6.21v-.419c0-1.267-.006-2.424-.146-3.152-.11-6.556-.665-13.242-.783-19.831-.413-17.069-.915-37.549-1.622-54.608-3.873.092-7.579.175-11.186.175-5.051 0-9.908-.164-14.743-.707-2.01-.541-1.976-1.644-2.694-3.151-.681-.523-.219-2.584-.547-3.233-.106-.232-.142-.557-.142-.913 0-.62.118-1.333.211-1.774.047-.128.064-.25.064-.372 0-.727-.658-1.373-.3-2.089.08-.104.115-.417.115-.84 0-1.359-.34-3.843-.596-4.227a.53.53 0 01-.117-.322c0-.543.915-1.048.753-1.766 0-.388-.095-.803-.211-.919-.356-.34.423-1.219.043-1.631-.293-.657.254-.908.041-1.721-.108-.692-.072-.763.583-1.072.203-.114.441-.161.699-.161 1.099 0 2.625.827 4.132.936 4.86.755 10.75.83 16.747.83 2.66 0 5.342-.014 7.962.006.136-10.5.484-19.308.844-29.799.039-2.048.141-4.186.141-6.179 0-1.217-.037-2.378-.153-3.429a3.266 3.266 0 01-.111-.804c0-1.361 1.122-1.792 2.178-1.113.112.037.223.05.335.05.813 0 1.641-.856 2.624-.563h.161c1.143 0 1.67-.518 3.09-.416h.535c1.531 0 2.67.023 3.929.774.961-.112 2.235-.176 3.575-.176 2.138 0 4.446.168 5.913.591.999.188 2.999.212 2.285 1.839-1.393 8.56-1.263 16.147-1.888 24.878.021.348.03.639.03.891 0 1.361-.283 1.472-.283 2.402 0 2.12.34 2.185-.17 2.728-.403.429-.423.554-.214 1.241.395 1.254.525 1.967.525 3.368 0 2.779-.14 2.743.588 3.056 1.298.22 3.319.285 5.571.285 3.35 0 7.208-.146 9.942-.146 7.823 0 10.404.109 16.659.314 7.662.079 16.951 1.006 24.558 2.121 2.785.276 5.047 1.308 7.911 1.379l-.067.068c1.027.159 2.586.416 1.868 1.291-.749.598-1.361.235-2.25 1.205-.901.834-.902.834-2.36.708-.8-.071-1.604-.208-1.781-.307a5.906 5.906 0 00-.898-.057c-1.402 0-3.373.293-5.029.293-.887 0-1.681-.084-2.251-.344-1.139-.596-.94.214-2.13.102-2.077-.427-5.714-.437-7.866-.781-2.305-.616-4.146-.742-6.009-.742-2.055 0-4.139.154-6.907-.028a13.82 13.82 0 00-.798-.019c-1.685 0-4.046.205-4.19.207-.149.722.868.56 2.003.682 5.975.191 12.744.579 18.641 1.252.704.203 12.679 1.47 8.862 1.868-.925.214-1.721.293-2.465.293-2.091 0-3.773-.623-6.778-.623-5 0-5.948-.592-10.071-.657-1.23.032-3.362.098-4.737.145-2.4.086-2.498.104-2.441.514.057.397.227.436 2.601.57 3.523.246 6.439.191 9.557.877 3.098.118 8.051.473 11.072.984 1.166.329 1.473.471.275 1.008a4.816 4.816 0 01-1.569.239c-1.336 0-2.733-.421-4.033-.641a2.897 2.897 0 00-.991-.176c-.905 0-1.623.416-2.697.258-.586-.057-1.206-.257-1.434-.46-.287-.26-.472-.303-.657-.152-.177.073-.409.101-.675.101-.932 0-2.271-.346-3.136-.234-.584.134-4.723-.254-8.057-.254-3.025 0-5.388.32-3.838 1.65.798.472 4.712.254 5.693.488 5.482 1.011-8.04.932-8.744 1.025-4.487.051-9.528.566-13.93.688-1.158.153-2.938-.2-2.165.597.323.326 1.04.401 6.502.401 4.98 0 5.219.46 9.475.711 1.161-.131 1.901.009 1.724.756-.114.111-1.435.256-2.939.323-5.28.035-6.483.257-12.091.379-3.729.002-3.863.016-3.863.407 0 .38.153.407 2.543.454l.369-.003c2.254 0 2.084.473 3.94.249 1.546-.287 2.231.107 3.893-.171.966-.137 1.501-.133 1.741.018.889.362 2.809.051 3.928.122l.162-.002c1.475 0 2.383.316 3.852.305 1.172-.036 2.347.061 3.299-.435.303-.118.589-.161.878-.161.922 0 1.852.439 3.339.258 3.704-.073 6.369.654 9.811 1.012 2.253.288 6.434.082 8.627.815 1.11.606 1.633.556 2.743 1.013.275.145.391.281.391.411 0 .57-2.251.987-3.173 1.046-3.232.427-5.764-.463-9.153-.542-4.642-.329-9.946-.423-14.668-.423-6.243 0-18.198.503-25.35.407-1.491-.02-1.777.029-1.777.293-.224.574-.303 1.241-.303 1.963 0 2.252.777 5.022.321 7.022.645 18.677 1.018 41.853 1.522 60.787.187 3.788.004 8.491.425 11.345.077.274.143.748.143 1.23 0 .704-.141 1.426-.588 1.593a1.326 1.326 0 01-.385.057c-.669 0-1.273-.509-1.013-1.492.157-1.286.078-1.382.011-2.719-.926-11.743-.585-25.899-1.176-40.728-.047-.118-.067-.437-.067-.85 0-1.172.166-3.119.331-3.491.173-.547.146-.834-.13-1.448-.279-.617-.358-1.555-.417-4.805-.083-5.033-.33-10.374-.364-15.327-.025-3.617-.041-3.762-.43-3.762-.394 0-.405.141-.425 4.982.042 5.6.169 8.083.12 12.463.326.98.419 4.722.232 5.783-.287 1.152.409 3.265-.014 4.274-.209.576-.21.808.006 1.243.643 2.447.342 7.901.425 11.82a502.897 502.897 0 01-.038 5.183c-.043.598.428 2.65-.066 3.158-.321.602-.517.966-.028 1.416.402.285.218 1.678.543 1.985.185.185.175.968-.035 1.367-.122.102-.16.338-.16.637 0 .852.337 2.229.16 2.609-.104 3.257.231 8.999.654 12.142-.287.274.115 2.781-.215 3.035-.315.411-.111 1.86-.534 2.206a1.165 1.165 0 01-.45.103c-.893 0-.913-1.524-1.011-2.699-.515-12.966-.627-25.348-1.192-41.585-.136-3.889.074-4.571.074-5.565 0-.607-.066-1.33-.298-2.968-.067-1.267-.027-2.319.105-2.667.071-.273.095-.625.095-1.025 0-1.497-.394-3.676-.313-5.008-.155-2.128.337-3.231-.141-4.909.204-3.265-.4-6.82-.231-10.646a12.713 12.713 0 01-.021-.789c0-1.617.238-2.612-.59-2.869-.486.44-.635 1.725-.635 3.35 0 3.261.606 7.889.342 9.767.016 2.577.313 4.326.313 6.265 0 .783-.046 1.597-.182 2.508.079 4.13.482 10.043.462 15.12.154 6.198.338 14.861.314 20.337-.126 1.158.702 4.667.1 5.407-.46.527-.191 1.018.069 1.61.456 1.639.119 5.595.328 7.625a6.315 6.315 0 00-.017.486c0 1.221.285 2.85.285 4.215 0 1.129-.195 2.082-.913 2.47-.311-.075-.321-.76-.321-1.514 0-.861.012-1.81-.395-2.048-.423-.677-.484-1.058-.555-3.505.002-1.44-.031-2.744-.031-3.989 0-1.587.051-3.076.283-4.636a.693.693 0 00.077-.28c0-.458-.795-.406-.449-1.931.097-.954.051-1.495-.175-2.649a2.015 2.015 0 01-.183-.883c0-.903.427-1.865.195-2.866-.022-2.414-.517-5.236-.517-7.844 0-1.078.084-5.17.32-6.13.118-.395.164-.739.164-1.056 0-1.373-.885-2.221-.726-4.221-.185-9.375-.523-20.264-.858-29.595a5.423 5.423 0 01-.013-.455c0-.972.123-2.907.123-4.679 0-2.075-.169-3.922-.909-3.745-.21 1.176-.277 2.476-.277 3.855 0 3.1.35 6.6.248 10.01.135 5.439 0 7.525.309 11.39.124 1.234.094 1.785-.124 2.304-.116.283-.177.496-.177.807 0 .348.075.817.234 1.632.258 1.31.355 3.059.394 6.941-.224 5.362.208 14.296.208 19.696 0 1.609-.035 3.173-.139 4.67-.038 3.481.499 7.908.595 11.02a35.38 35.38 0 01.313 4.577c0 1.286-.084 2.536-.261 3.759.185 1.641-.561 2.008-.748.364-.219-1.44-.139-1.577-.572-3.007-.443-2.132-.583-4.255-.583-6.452 0-1.426.056-2.882.131-4.39.126-2.335.106-2.654-.213-3.008-.547-1.409-.637-6.225-.637-10.309 0-3.629.072-10.22-.04-11.627.025-2.521-.514-4.408-.441-7.118a8.37 8.37 0 01-.021-.572c0-1.753.607-2.176.149-3.555-.694-2.309-.023-13.379-.78-15.525-.319-.224-.543-.321-.696-.321-.234 0-.304.219-.304.559 0 .596.219 1.557.186 2.329.072 1.243.033 2.053-.115 2.287-.033.166-.047.32-.047.473 0 .816.402 1.52.319 3.441.61 9.442.339 24.483.81 33.864.025.183.035.345.035.494 0 .787-.285 1.166-.285 1.905 0 1.179.606 2.511.112 3.542-.13.344-.182.788-.182 1.282 0 1.471.442 3.387.521 4.448a6.549 6.549 0 00-.077.999c0 1.146.311 2.007.25 4.397.01.423.015.835.015 1.223 0 1.793-.127 3.144-.465 3.144-.236 0-.569-.643-1.037-2.235-.293-.832-.35-4.334-.486-5.288.014-4.314-.543-10.5-.543-15.504 0-2.015.089-3.936.343-5.645-.047-1.328-.491-6.227-.491-7.838 0-.59.06-1.149.219-1.639.053-.061.074-.246.074-.513 0-1.174-.454-3.891-.717-4.186-.075-.084-.321.098-.545.405-.268.321-.348 1.015-.348 1.839 0 1.485.259 3.39.143 4.308-.142.95.246 5.447.246 8.206 0 1.078-.057 1.892-.233 2.12a.916.916 0 00-.157.528c0 .751.709 1.741.583 3.475.08.764.108 1.357.108 1.863 0 1.504-.259 2.846-.218 4.945.181 1.452-.038 2.61.259 3.586.02.085.031.169.031.254 0 .576-.423 1.187-.196 1.99.102.58.191 1.792.191 3.008 0 1.388-.118 2.779-.478 3.239 0 .197.149.613.334.924.144.209.205.496.205.819 0 1.07-.661 2.557-1.198 3.044-.22-.22-.127-2.055-.432-2.327-.203-.173-.38-.249-.534-.249-.718 0-.924 1.656-.914 2.54.014 1.803-.63 2.797-2.133 3.216zm-438.192-5.647c.109-.003.225-.012.347-.027l-.002-.01c4.154-.003 8.898-.918 12.972-1.603.079.002.162.001.245.001 1.406-.021 3.441-.71 4.828-.594.936-.069 1.275-.801 2.325-.909 1.355-.417 2.913-1.027 4.029-1.745.31-.409 1.709-1.548 2.199-1.666.594-.214 1.892-1.434 2.659-1.497 1.391-.322 3.561-2.907 4.751-4.034 1.042-1.082 1.249-1.42 1.243-1.994-.181-1.056-.242-1.953-1.487-.342-3.999 4.268-9.104 7.048-14.279 9.554-.966.504-1.786.359-2.636.648-.55.224-1.108.482-1.676.572-.643.112-4.126.394-4.553.982-1.086.791-2.713.543-4.161.83-2.081.284-3.614.743-5.894.767-2.672-.223-2.546 1.106-.91 1.067zm343.034-6.238c1.451-.002 2.092-1.902 3.789-1.709.238.028.495.096.777.214 1.394.391 2.966.152 3.013-.25.024-.216-.383-.476-1.479-.714-8.541-1.892-16.953-4.787-25.085-7.95-6.506-2.646-13.27-5.427-18.731-9.888-1.286-1.08-3.179-2.927-4.303-4.074-.904-.612-1.655-2.573-2.658-2.689a.89.89 0 00-.431.065.638.638 0 01-.345.095c-.57 0-1.234-.62-1.692-.673-.27-.033-.469.132-.537.734-.006.057-.011.12-.013.185l-.002.214c0 1.609.671 2.901 1.222 4.386.568 1.782.971 2.142 2.938 4.196 3.653 3.727 6.877 5.993 11.086 8.505.569.478 1.004.631 1.376.631.712 0 1.195-.556 1.936-.472.27.032.571.149.933.405.69.515 2.958.74 3.69 1.336.798.58 2.73 1.117 3.604 1.363 2.419.956 5.487 2.164 8.109 2.469.561.07 1.12.719 1.747.444.362-.116.608-.073.95.173 2.813 1.153 6.906 2.353 9.954 2.972l.009.026c.048.004.096.006.143.006zm-109.856-8.251c.361.002.725.002 1.089-.001l-.04-.009c5.354-.031 9.327-.16 13.655-.646 2.915-1.098 6.858-1.603 9.731-2.742a187.496 187.496 0 019.456-3.398c3.9-1.601 7.122-5.195 10.723-7.398 1.53-1.491 2.831-2.776 4.076-4.343.427-.931 1.3-1.041 1.823-1.818 1.99-3.302 4.677-6.414 5.846-10.132.897-1.756 1.269-3.096 1.269-4.498 0-1.236-.288-2.518-.76-4.17-1.131-6.475-5.509-12.032-9.709-16.957-2.728-2.392-5.673-4.441-8.694-6.438-.726-.395-2.522-1.034-3.088-1.683-.315-.347-.659-.493-1.173-.493-1.601-.301-2.397-.759-4.171-1.2-2.209-1.101-5.632-1.695-7.916-2.48-.908-.446-1.111-.145-1.801-.373-.191-.101-.836-.233-1.432-.29-1.088-.029-1.215-.456-1.941-.456-.108 0-.225.01-.361.03-.537.112-4.228-.187-4.558-.681-.199-.562-1.596.289-1.863.439-.459.324-1.407-.882-1.728-1.157-.344-.372-.481-.382-2.437-.169-2.692.206-4.66.557-7.056.826-1.133.026-2.167-.126-3.144.546-.644.435-.885.48-2.093.39-2.272-.252-3.375.756-5.128 1.786-2.299 1.434-4.26 2.353-6.434 4.114-2.25 1.542-5.194 3.471-7.228 5.135-.992 1.001-2.681.047-3.708 1.487-2.069 1.745-4.025 2.696-5.99 4.573-1.619 1.896-3.446 2.37-5.43 3.902-1.558 1.363-2.723 2.836-4.135 4.354-1.05 1.212-1.143.949-2.042 1.181-1.347 1.712-3.188 3.982-3.901 6.1-.098.693-.853 1.472-.853 2.029 0 .32.254.568 1.038.678.783.423 1.446-1.237 2.072-1.289.916.463.682 4.007.918 5.28.048 2.093.575 3.276.801 5.08.749 3.893 3.747 7.587 5.995 10.538 3.073 2.179 6.457 5.366 9.99 6.745 9.711 5.008 19.135 7.543 30.332 7.608zm310.412 0c.362.002.725.002 1.09-.001l-.041-.009c5.354-.031 9.327-.16 13.656-.646 2.915-1.098 6.859-1.603 9.731-2.742a187.884 187.884 0 019.457-3.398c3.9-1.601 7.121-5.195 10.722-7.398 1.529-1.491 2.831-2.776 4.076-4.343.427-.931 1.3-1.041 1.823-1.818 1.989-3.302 4.676-6.414 5.846-10.132.897-1.756 1.27-3.096 1.27-4.498 0-1.236-.29-2.518-.762-4.17-1.131-6.475-5.508-12.032-9.708-16.957-2.728-2.392-5.674-4.441-8.695-6.438-.726-.395-2.522-1.034-3.087-1.683-.315-.347-.659-.493-1.174-.493-1.601-.301-2.396-.759-4.17-1.2-2.209-1.101-5.632-1.695-7.917-2.48-.907-.446-1.11-.145-1.8-.373-.191-.101-.837-.233-1.433-.29-1.088-.029-1.213-.456-1.94-.456-.107 0-.225.01-.362.03-.537.112-4.227-.187-4.556-.681-.199-.562-1.597.289-1.864.439-.46.324-1.407-.882-1.729-1.157-.343-.372-.48-.382-2.437-.169-2.691.206-4.66.557-7.056.826-1.133.026-2.167-.126-3.143.546-.645.435-.885.48-2.093.39-2.272-.252-3.375.756-5.129 1.786-2.298 1.434-4.259 2.353-6.434 4.114-2.249 1.542-5.193 3.471-7.227 5.135-.993 1.001-2.68.047-3.707 1.487-2.069 1.745-4.027 2.696-5.992 4.573-1.619 1.896-3.446 2.37-5.429 3.902-1.558 1.363-2.724 2.836-4.135 4.354-1.05 1.212-1.143.949-2.042 1.181-1.347 1.712-3.188 3.982-3.902 6.1-.098.693-.852 1.472-.852 2.029 0 .32.254.568 1.037.678.783.423 1.446-1.237 2.073-1.289.915.463.681 4.007.917 5.28.049 2.093.576 3.276.802 5.08.748 3.893 3.746 7.587 5.994 10.538 3.074 2.179 6.457 5.366 9.99 6.745 9.712 5.008 19.136 7.543 30.332 7.608z"/></svg>