<svg viewBox="0 0 1000 660" xmlns="http://www.w3.org/2000/svg"><path d="M0 660h1000V0H0Z" fill="#eae3d8"/><path d="M316.45 620.78c-.55 0-1.1 0-1.65-.02l-.02.02a31.85 31.85 0 0 1-20.78-10.6c-1.7-1.87-4.63-4.52-5.08-7.16 0-.6-.66-1.14-.77-1.67a1.6 1.6 0 0 0-.32-.67 36.3 36.3 0 0 1-1.21-5.37c0-.88.04-1.82.14-2.77.22-2.06.7-4.24 1.49-6.2-2.1-.34-1.46-3.29-2.82-4.72-.37-.44-.43-.9-.39-1.35.05-.52.24-1.04.28-1.52.05-.5-.07-.97-.7-1.37-.76.33-1 .7-1.05 1.13-.06.6.26 1.3.19 2.13-.04.45-.2.95-.61 1.48-.27-.25-.18-1.86-.5-2.2-.34-.78 0-5.45-1.79-2.77-.24.42-.49 1.14-.55 1.61-.2.62.1 1.1-.42 1.14-.53-.22-.39-2.33-1.34-2-.5.23-1.2 3.22-1.8 1.75-.15-.57-.5-1.58-.65-2.12-.2-.06-.95.4-.91.73-.1.57-.7.79-1 1.38-.24.4-.36.5-.8.5-1.04.02-1.08-.08-1.36.58-.51 1.04-.98 1.44-1.38 1.45-.87.01-1.46-1.8-1.68-2.97-.27-.63.17-2.86-.04-3.44-.23-1 1.11-3.24.26-4.1-.11-.1-.19-.17-.32-.17-.26 0-.72.28-1.99 1.1-10.2 6.75-21.6 8.89-33.11 8.89-8.14 0-13.35-1-19.41-3.58-.61-.36-.83-.18-1.54-.54-.71-.3-.9-.8-1.66-.8-2.71-.7-5.2-3.74-7.3-5.42-6.63-5.73-8.47-14.4-7.89-23.36.02-3.32.03-8.02.52-12.58.38-3.72 1.08-7.33 2.33-9.97a40.4 40.4 0 0 1 1.8-5.3c.57-1.32 1.6-2.6 2.16-3.96.2-.93.85-.89 1.43-1.36.56-.43 1.13-.18 1.67-.77.28-.17.38-.5.41-.86.07-.77-.13-1.77.53-2.1.9-.64-.01-1.16 1.03-1.65 1.28-1.2 3.28-3.38 4.84-4.56 8.17-6.88 17.66-12.26 27.23-16.57 6.92-3.13 14.62-5.29 21.9-5.29 5.8 0 11.35 1.36 16.1 4.67 3.88 2.44 7.81 6.17 9.01 10.8.14.7.52.93.74 1.79.2 1.1.9 1.02.46 2.18-.2.67-.92 2.39-1.2 2.93-.71.87-3.15 1.49-2.07 2.98.75 1.43 1.47 2.34 1.6 4 0 .85.72 2.7.23 3.4-.88 1.18.23.6.4 1.31-.75.3-1.1-.22-2.07.84-2.7 3.42-2.66-6.35-15.82-11.31a27.46 27.46 0 0 0-10.42-1.83c-3.72 0-7.51.53-11.1 1.28-1.76.28-3.14 1.4-4.74 1.62-.8.05-2 .74-2.95.75h-.18c-1.12 0-2.36 1.2-3.13.87a.73.73 0 0 0-.27-.04c-.82 0-2.24 1.04-3.14 1.4-1.18.63-2.15.99-3.01 1.55-.63.4-.94-.16-1.6.6-.74.76-1.9.62-2.73 1.17-1.17.73-2.56 1.41-3.74 2.07-.66.23-2.65 2.12-3.3 2.2-.2.01-.96.6-1.71 1.3a9.42 9.42 0 0 1-1.71 1.4c-.76.4-1.14 1.27-2.03 1.96a9.5 9.5 0 0 1-1.15.91c-.35.18-.95.98-1.43 1-1.04.52-3.4 2.94-4.43 3.46-.9 1.22-1.84 2.17-2.74 3.53-.71 1.12-1 2.13-1.76 3.13a20.43 20.43 0 0 0-2.84 7.97c-.22 2.03 1.29 4.38 2.01 6.1 2.84 4.37 7.07 8.34 11.9 10.4 5.74 2.8 12.44 3.9 19.27 3.9 5.7 0 11.46-.76 16.85-1.96.72-.4 2.15-.68 2.94-.87.75-.13 2.24-1.02 2.95-1.16.47-.03.78-.47 1.15-.34.1.06.48-.1.84-.35.8-.6 1.29-.53 2.07-1.06 4.39-2.09 6.93-4.36 11.03-7.96 2.81-2.6 2.81-2.6 3.02-3.63 1-3.5 1.9-16.42 2.62-20.02.1-.14.69-.3 1.32-.38 1.42-.12 1.38-.54 2.7-.73l.48-.03c1.03-.02.8.49 2.49.33 3.76-.55 7.67-.73 11.48-.59l.59-.03c2.35 0 2.65 2.03 2.44 4.37l-.02.27c-.2 1.84-.67 3.83-.67 5.14-.95 8.57-3.32 16.63-4.31 25.19a196 196 0 0 0-1.79 12.52c-.36 3.44-.57 6.8-.5 9.62a6.4 6.4 0 0 0-.01 1.08 6.9 6.9 0 0 1 1.14-1.56c.15-.24.28-.34.37-.33.46.03.34 2.44-.02 2.87a34.58 34.58 0 0 0-2.6 9.6c-.14 1.43-.15 2.74.05 3.82-.12.82.9.3 1.16 1.26.57 1 1.3 3.49 2.88 2.36.37-.25.77-1.22 1.17-1.33 2.33-1.2 6.1-1.58 6.56-4.14l.03-.22a4.45 4.45 0 0 0-.28-1.92c-.71-1.45.06-3.25-.3-4.57-.02-.54 0-1.14.07-1.78.23-2.2.97-4.76 1.8-6.38a9.95 9.95 0 0 1 2.2-3.5c.28-.27.55-.64.58-.84.28-.69 1.53-1.2 2.24-1.59 1.25-.53.68-1.07.22-1.88-.51-.6-.81-1.58-1.55-1.77-.69-.18-.3-1.1-.92-1.62-3.18-5.33-4.7-11.86-4.63-18.33-.15-3.83.53-8.16.92-12.08l.02-.16.03-.2c.06-.61.04-1.2-.06-1.56a4.7 4.7 0 0 1-.02-1.44c.17-1.59.72-3.77.9-5.05.12-.97.13-1.91.23-2.85.19-1.82.76-3.63 1.28-5.64.65-2.66 1.01-2.15 1.76-3.93.83-2.17 2.38-4.6 3.57-6.58 2.8-4.46 5.7-8.44 9.37-12.41 10.29-10.88 23.82-17 37.83-19.11.98-.28 3.5-.45 4.47-.42 1.18.1 1.04-.59 2.25-.02.75.3.9.32 1.2.1.43-.41 2.32.12 2.82-.1.8-.24.87.62 1.76.08.71-.07 1.6-.1 2.56-.1 1.07 0 2.22.04 3.34.12 1.05.08 2.06.2 2.92.35 2.92.74 4.33.6 7.15.97 4.35.8 7.8 3.4 11.3 5.63 1.56 1.43 2.62 2.24 4.12 3.95 1.32 1.54 1.37 2.16 1.78 3.92.42 1.63.04 3.38-.14 5.13-.07.63-.1 1.25-.08 1.87v.52c-.08.7-.37 1.09-.33 1.67a2 2 0 0 1 .01.87c-.2 1.01-.8 1.5-.68 2.71.04.31.03.55 0 .75-.1.57-.43.83-.51 1.48-.06.4-.05.76-.08 1.1-.13 1.2-.7 2.04-1.02 3.48l-.09.33c-.17.95.3 1.8-.3 2.4-.49.18-.78 3.44-1.24 3.67-.19.2-.4.61-.45.93-.1.54-.84 1.49-1.26.9a2.26 2.26 0 0 0-.6-.46c-.17-.11-.2-.33-.18-.61.07-.65.49-1.63.41-2.36.33-3.35.47-5.62-2-7.9-7.58-9.06-16.93-8.7-27.83-10.3-1.2.25-2.53.17-4.1.17-4.3 0-5.13.32-7.49.25-2.41.62-5.29.57-7.66 1.66-3.7.77-7.59 1.87-11.05 3.58-3.09 1.16-5.93 3.19-8.9 4.63-1.52 1.34-4.38 3.14-5.84 4.57-.34.57-1.55 1.7-2.14 2.14-.78.52-1.71 2.24-2.6 2.63-1.6.72-3.41 4.48-4.65 5.6-1.58 1.88-3.5 5.26-4.68 7.36-.48 1.53-1.8 2.76-1.96 4.51l-.06.28-.02.18c-.19 1.37.39 2.6.45 3.8.56 3.72 2.41 6.96 4.58 10.03 1.37 1.85 3.28 3.04 4.85 4.35.19.1.52.4.73.66.45.6 1.7.71 2.2 1.23 6.76 3.56 14.79 5.95 23.04 5.95 2.75 0 5.5-.26 8.24-.84 11.16-1.84 22.75-7.06 30.76-15.87.17.05.3-.37.42-1a12.2 12.2 0 0 0 .17-1.25c.15-1.46.2-3.12.16-3.3-.15-1.01-.48-2.73.18-3.73 1.43-1.51 3.33-3.23 4.7-4.97.62-.87.84-1.04 1.64-1.27 1.11-.28 1.4-.68 2.43-.65.56.01 1.15 0 1.25-.11.3-.28 1.25.27 1.59-.11 1.39-.56 3.58-.62 5.01-.8.81-.15 1.43-.74 2.3-.78.38-.03.86-.13 1.05-.2.7-.22 1.9.01 2.72-.33.74-.26 1.96-.6 2.95-.57.9.03 1.62.36 1.6 1.36-.1.51-.24.7-.79.96-.92.49-3.82 2.6-3.93 3.65a14.13 14.13 0 0 0-.6 2.97c-.19 1.88-.13 3.79-.2 5.65-.02 3.08-.45 6.49-.66 9.53-.24 2.67-.47 5.4-.76 8.16-1.06 10.03-2.9 20.38-9.24 28.85-3.27 5.12-8.87 9.46-14.07 12.49a66.74 66.74 0 0 1-6.57 3.67c-.26.36-1.17.34-1.46.77-.56.56-.97.2-1.8.72-3 1.23-5.9 2.5-8.89 3.67-1.82.72-3.16.85-5.05 1.57-2.33.8-4.68 1.76-7 2.5-1.52.68-3.45.73-4.95 1.3-7.98 2.56-16.43 4.84-24.69 4.85Zm23-7.45c4.5.05 8.36-2.2 12.4-4.46 6.91-3.78 13.78-9.16 18.02-15.86 2.71-3.73 4.61-8.52 5.95-12.87.21-.52.53-2.08.87-3.94.64-3.53 1.33-8.12 1.31-8.66-.1-.04-.57.3-1.06.77-1.24 1.33-4.6 4.42-6.26 5.2-.74.33-1.62.36-1.94 1.06-.07.23-.3.48-.5.57-.56.27-.7 1.18-1.18 1.6-.88.76-1.93.91-3.06 1.85a9.92 9.92 0 0 1-2.86 1.5c-.38.2-2.72 1.48-3.2 1.5-3.03 1.26-6.66 1.84-9.79 2.5-2.11.84-4.91 1.14-7.8 1.14-1.3 0-2.6-.06-3.88-.16a68.45 68.45 0 0 1-6.51-.83c-2.74-.96-6.35-1.2-8.75-2.83a1.82 1.82 0 0 0-.76-.27c-.24-.02-.43.04-.72.02a3.8 3.8 0 0 1-1.47-.53c-2.94-1.16-5.02-3.21-7.61-4.56-.44-.32-1.7 1.74-1.39 2.01.1.24.06.44-.1.66-.16.15-.62 2.2-.96 4.07-.28 1.55-.48 2.96-.37 3.07.18 14.83 15.78 27.15 30.25 27.36h-.04c.48.06.95.09 1.42.1Zm240.1-24.7-.54-.04h-.03a3.13 3.13 0 0 1-1.22-.36.52.52 0 0 0-.38-.18c-.5 0-1.14.61-2.51.45-.15-.02-.3-.04-.47-.08-1.48-.26-2.72-.01-3.42-.87-.2-.42-.44-.32-2.13-.52-.52-.06-1-.16-1.2-.26-.16-.1-.38-.13-.65-.13-.93 0-2.38.43-3.18.33-.06 0-.1 0-.16-.02-5.06-1.1-10.52-2.31-15.19-4.13-1.94-.2-4.08-1.2-5.86-1.85a15.53 15.53 0 0 1-3.72-1.5c-.69-.54-2.39-.73-3.33-1.29-1.32-.57-1.22-1.02-2.51-1.31-9.04-3.28-18.8-9.99-21.25-19.72a21.35 21.35 0 0 1-.38-7.9l.34-2.98c.1-.92.1-1.32-.04-1.62-.14-.1-.17-.28-.15-.52.06-.54.44-1.35.55-1.86.03-.17.04-.3 0-.38a1.4 1.4 0 0 1 0-.4l.17-1.05a86.86 86.86 0 0 1-2.1 8.11c-.23 1.14-.74 1.98-1.24 2.92-.4.73-1.09 2.75-1.63 3.4-.58.64-.04.78-.64 1.35-.63.6-1.56 2.66-2.28 3.25-.96 1.71-2.97 4.21-4.55 5.73-1.74 1.82-1.65 2.22-3.77 4.09-1.21 1.31-2.14 1.66-3.07 1.66-.59 0-1.18-.14-1.85-.26-.26-.17-.5-.11-1.2.28-1.56.67-2.75 1.86-4.28 2.2-.36 0-.56.12-.66.38-.3.62-1.4.9-1.98 1.32-3.57 1.92-8.05 3.35-11.82 4.27-1 .19-1.71 1.51.11 1.11 1.83-.43 3.75-.82 5.51-1.4.5-.17 3.86-1.95 4.8-1.95.1 0 .18.02.22.07.86.3 1.18-.24 2.04-.2.35 0 .93-.18 1.3-.4.79-.4 1.34-1.27 2.17-1.47 1.3-.53 2.26-.8 3.5-1.76.77-.58 1.43-.87 1.71-.87.1 0 .17.04.16.13-.02.2-.45.66-1.48 1.38-1.34.92-1.72 1.52-2.7 1.75-1.68 1-4.63 3.24-6.5 3.97-.34.12-1.21.61-1.72.61-.07 0-.13 0-.18-.03a.6.6 0 0 0-.61.15c-.33.36-1.25.46-1.61.77-1.1.44-2 .92-3.25 1.24-1.33.32-1.29.69-2.7.82-1.6.27-3.36 1.11-4.9 1.34-4.07.8-9.18.74-13.27 1.1h.02c-5.89 0-12.48-.67-17.9-2.43-1.7-.5-4.06-1.1-5.49-2.01-.48-.42-1.03-.62-2.55-.9a6.84 6.84 0 0 1-4.64-2.21 18.27 18.27 0 0 1-6.36-4.38c-.99-1.12-1.15-.83-2.25-1.88-.6-.57-1.03-.8-1.44-.8-.47 0-.63-.13-.84-.64-4.23-6.48-8.02-13.97-7.13-22.4.08-.75.35-2.64.51-3 .1-.9-.03-1.38.08-2.48.05-.41.13-.91.27-1.56.72-3.8.82-9.42 2.16-12.86a22.37 22.37 0 0 1 1.71-4.03c.4-.92.28-1.2 1.03-2.24 1.14-1.83.09-1.33 1.89-3.05a45.01 45.01 0 0 1 2.6-3.53c.33-.81 1.56-1.82 2.02-2.47.12-.28.33-.38.78-.38.4 0 2.51-.5 2.46-1.1.3-.82 2.25-2.5 3.02-3.2.88-.7 1.13-1.25 1.92-1.37.18 0 .39-.16.46-.36.3-.64 1.24-.24 1.91-.55 1.47-.55 1.99-1.76 3.59-1.76.13 0 .27 0 .42.02 1.58.15 2.92-1.1 4.07-2.05.98-1.05 2.9-1.9 3.85-2.73 4.1-3.43 10.35-6.34 15.16-8.42 2.95-.77 5.37-2.07 8.41-2.51 2.94-.48 6.25-1 9.29-1 1.65-.03 1.8-.06 1.83-.4.2-.32-.56-.36-1.48-.36h-1.12c-.86 0-1.58-.04-1.5-.3.44-.45-6.25-.42-6.44-.5-1.32-.7 4.8-.83 5.67-1.05 1.54-.14 3.12-.22 4.71-.22 4.5 0 9.07.62 12.78 2.07.54.16 1.32.25 1.94.25.54 0 .95-.07.97-.25.02-.19-.44-.51-1.77-.99-.93-.45-3.24-.65-3.97-1.14-1.34-.53-3.32-.34-5.4-.6-3.06-.2-5.4-.69-8.1-.35-.57.44-.88-.73-1.3-.73-.07 0-.14.03-.21.1-.64.42-1.6.32-2.44.49-1.06.09-2.24.55-3.13.84-.7-.23-1-.89-1.97-.39-1.53.7-3.35 1.53-5 1.6-.96.34-1.44-.74-2.18-.74a.95.95 0 0 0-.53.18c-.75.72-1.64.36-2.55.93-1.03.6-1.44-.18-2.48.71-1.09.86-1.19.1-2.28.96-.5.36-.9.53-1.1.45-.4-.83 2.94-1.82 3.62-2.48a20.1 20.1 0 0 1 4.98-2.16c.33 0 .62-.14.76-.36.5-.64 1.47-.94 2.34-1.06 1.54-.17 2.88-1.13 4.4-1.3 1.46-.18 2.45-.63 4-.8 2.31-.07 3.49-.39 6-.43 1.97.04 3.89-.03 5.78-.03 1.8 0 3.58.07 5.35.37.83.12 4.07 1.02 4.67 1.45.56.48 2.2.2 2.8.8.56.46 1.13.3 1.7.3.26 0 .52.04.78.17 3 1 6 2.75 8.57 4.59 1.77.76 3.25 1.39 4.35 2.93 1.11 1.2 1.18.87 2.8 2.72 2.49 2.74 3.35 4.28 4.9 7.21.32.52.27 1.71.64 2.22.16.23.4.72.52 1.08.75 1.15.88 3.12.97 4.44.74 2.4.85 6.4.53 9.47-.27 2.61-.55 6-.9 8.13-.8 2.2-.84 6.11-1.68 8.32-.36 1.98-.76 4.08-1.2 6.2.17-.75.38-1.43.52-1.55.2-.25.24-.43.13-.62-.1-.2-.06-.4.17-.72.5-.41.36-3.24 1.1-3.37.12-.13.23-.18.34-.18.55 0 .97 1.25.94 1.73-.02.39.03.8.1.9.2.46-.16 1.06.4 1.5.27.25.46.7.46 1.05-.08.6.83 1.84 1.2 2.09.46.3.63.76.56 1.41-.12 1.16-.3 1.2.47 2.06 1.08 1.7 2.82 2.85 4.3 4.15.67.78 1.08.54 1.43 1.2.06.22.25.41.41.43 1.22.81 2.69 1.63 3.8 2.61.43.59 2.01.72 2.56 1.18.49.38 1.46.95 2.03 1.04.78.46 1.72.99 2.7 1.26 1.82.65 4.7 2.7 6.46 3.4 1.8.38 3.98.34 5.46 1.47.79.33 4.13.87 4.99 1.29 1.52.92 2.91 1.03 4.58 1.67 6.12 1.89 14.05 2.75 20.67 3.46 2.09.16 4.2.25 6.33.25 13.91 0 28.52-3.7 39.82-13.3.58-.73 1.02-1.07 1.1-1.44.07-.33-.13-.7-.78-1.41a17.67 17.67 0 0 0-5.36-3.88c-4.76-2.47-10.75-3.7-16.71-4.4-3.23-.37-6.46-.6-9.47-.77-3.88.03-7.49-.29-11.15-.29-1.78 0-3.57.08-5.42.3-5.26.72-11.35.9-16.55 1.23-2.34.41-6.8.32-9.15.2-.35.08-.88.11-1.53.11-2.79 0-7.68-.67-9.34-.99a39.46 39.46 0 0 1-8.96-3.48 9.43 9.43 0 0 0-2.16-1.53c-1.74-.95-4.1-4.31-4.72-6.17-.3-2.01-.23-4.2 0-6.44.33-3.04.94-6.14 1.32-8.95.38-2.46.63-5.05 1.18-7.58.34-1.56.8-3.08 1.48-4.53 4.27-7.72 10.86-14.19 18.6-18.86 7.06-4.59 14.84-5.76 22.43-7.44 4.3-.66 8.08-1.24 12.14-1.24 8.74 0 14.92 2.07 21.59 4.2a45.8 45.8 0 0 1 7.71 4.73c2.78 1.74 2.7 2.61 3.02 5.78-.14.57.52 1.92.38 2.57a.46.46 0 0 1-.12.24 1 1 0 0 0-.25.66c-.01.47.43 1.17-.04 1.6-.24.25-.3.64-.34 1.75.01.86-.14 1.3-.24 1.75-.06.27-.1.55-.06.92.07.25.07.66-.01.9-.21.48.12 1-.28 1.38-.18.16-.24.38-.19.7.05.33.03 1.22-.12 1.91-.08.38-.2.7-.37.84-.33.32-.15.66-.32 1.44-.06.27-.24.46-.68.85-.6.4-.68.94-.79 1.42-.1.47-.22.9-.86 1.08-1.03-.03-1.65-.98-2.37-1.94-1.15-1.66-3.09-3.07-4.57-4.2-5.7-3.6-12.57-5.84-19.69-6.67a54.43 54.43 0 0 0-13.92.18c-7.85 1.2-16.56 3.08-23.85 6.92a69.4 69.4 0 0 0-11.8 9.22c-.54.44-.77.85-.8 1.22-.15 1.36 2.38 2.28 3.4 3a38.22 38.22 0 0 0 11.9 3.2c2.64.3 5.34.42 8.05.42 5.18 0 10.41-.42 15.4-.75 4.07-.12 8.34-.53 12.39-.53 2.43 0 5.24.16 7.29.24 1.84-.26 3.82-.38 5.83-.38 2.85 0 5.74.23 8.37.53 9.79 1.14 23.95 2.75 27.3 13.66.64 2.14.71 4 .52 5.9-.27 2.53-1.01 5.12-1.55 8.53-.48 2.57-.9 4.95-1.4 7.18-1.3 5.95-3.14 10.92-8.22 16.03a49.53 49.53 0 0 1-19.4 11.47 59.8 59.8 0 0 1-13.47 3.42c-2.11.14-3.16.31-5.28.46-1.16.08-2.67.41-3.97.38Zm163.04-3.13h.01c-5.88 0-12.47-.67-17.9-2.43-1.69-.5-4.05-1.1-5.48-2.01-.48-.42-1.03-.62-2.55-.9a6.84 6.84 0 0 1-4.65-2.21 18.27 18.27 0 0 1-6.35-4.38c-1-1.12-1.15-.83-2.25-1.88-.6-.57-1.04-.8-1.44-.8-.47 0-.63-.13-.84-.64-4.23-6.48-8.02-13.97-7.13-22.4.08-.75.35-2.64.51-3 .1-.9-.03-1.38.08-2.48.05-.41.13-.91.26-1.56.72-3.8.83-9.42 2.17-12.86a22.37 22.37 0 0 1 1.7-4.03c.4-.92.28-1.2 1.04-2.24 1.14-1.83.09-1.33 1.89-3.05a45.27 45.27 0 0 1 2.6-3.53c.33-.81 1.56-1.82 2.02-2.47.12-.28.32-.38.78-.38.4 0 2.51-.5 2.46-1.1.3-.82 2.25-2.5 3.01-3.2.89-.7 1.14-1.25 1.93-1.37.18 0 .39-.16.46-.36.3-.64 1.24-.24 1.91-.55 1.47-.55 1.99-1.76 3.58-1.76.14 0 .28 0 .43.02 1.58.15 2.92-1.1 4.06-2.05.99-1.05 2.9-1.9 3.86-2.73 4.1-3.43 10.35-6.34 15.16-8.42 2.95-.77 5.36-2.07 8.41-2.51 2.94-.48 6.25-1 9.28-1 1.65-.03 1.8-.06 1.84-.4.2-.32-.56-.36-1.48-.36h-1.12c-.86 0-1.58-.04-1.5-.3.44-.45-6.25-.42-6.44-.5-1.32-.7 4.8-.83 5.67-1.05 1.53-.14 3.12-.22 4.71-.22 4.5 0 9.07.62 12.78 2.07.54.16 1.32.25 1.94.25.54 0 .95-.07.97-.25.02-.19-.45-.51-1.77-.99-.93-.45-3.25-.65-3.98-1.14-1.34-.53-3.31-.34-5.39-.6-3.06-.2-5.4-.69-8.1-.35-.57.44-.88-.73-1.3-.73-.07 0-.14.03-.21.1-.64.42-1.61.32-2.44.49-1.06.09-2.24.55-3.13.84-.7-.23-1-.89-1.97-.39-1.53.7-3.35 1.53-5 1.6-.96.34-1.45-.74-2.18-.74a.95.95 0 0 0-.53.18c-.76.72-1.64.36-2.55.93-1.03.6-1.44-.18-2.48.71-1.09.86-1.2.1-2.29.96-.5.36-.9.53-1.08.45-.42-.83 2.93-1.82 3.6-2.48 1.4-.9 3.49-1.75 4.99-2.16.32 0 .61-.14.75-.36.5-.64 1.48-.94 2.35-1.06 1.53-.17 2.88-1.13 4.4-1.3 1.46-.18 2.45-.63 4-.8 2.31-.07 3.49-.39 6-.43 1.97.04 3.89-.03 5.78-.03 1.8 0 3.58.07 5.34.37.84.12 4.07 1.02 4.68 1.45.56.48 2.2.2 2.8.8.56.46 1.13.3 1.7.3.25 0 .51.04.77.17 3.01 1 6.01 2.75 8.58 4.59 1.77.76 3.25 1.39 4.35 2.93 1.1 1.2 1.17.87 2.8 2.72 2.49 2.74 3.35 4.28 4.89 7.21.32.52.27 1.71.65 2.22.16.23.4.72.52 1.08.74 1.15.88 3.12.97 4.44.74 2.4.85 6.4.53 9.47-.28 2.61-.55 6-.9 8.13-.8 2.2-.85 6.11-1.68 8.32-.9 4.83-1.96 10.43-3.49 15.2-.23 1.13-.74 1.97-1.24 2.91-.4.73-1.09 2.75-1.63 3.4-.58.64-.04.78-.64 1.35-.63.6-1.56 2.66-2.28 3.25-.96 1.71-2.97 4.21-4.55 5.73-1.74 1.82-1.65 2.22-3.78 4.09-1.2 1.31-2.13 1.66-3.06 1.66-.59 0-1.18-.14-1.85-.26-.26-.17-.5-.11-1.2.28-1.56.67-2.75 1.86-4.28 2.2-.36 0-.56.12-.66.38-.3.62-1.41.9-1.99 1.32-3.56 1.92-8.04 3.35-11.81 4.27-1 .19-1.71 1.51.11 1.11 1.83-.43 3.74-.82 5.51-1.4.49-.17 3.86-1.95 4.8-1.95.1 0 .18.02.22.07.86.3 1.18-.24 2.04-.2.35 0 .93-.18 1.3-.4.78-.4 1.33-1.27 2.17-1.47 1.3-.53 2.26-.8 3.5-1.76.77-.58 1.42-.87 1.71-.87.1 0 .16.04.16.13-.02.2-.45.66-1.48 1.38-1.35.92-1.73 1.52-2.7 1.75-1.69 1-4.64 3.24-6.5 3.97-.34.12-1.22.61-1.72.61-.07 0-.13 0-.18-.03a.6.6 0 0 0-.61.15c-.33.36-1.25.46-1.61.77-1.1.44-2 .92-3.25 1.24-1.33.32-1.29.69-2.7.82-1.6.27-3.36 1.11-4.9 1.34-4.07.8-9.18.74-13.27 1.1Zm-99.64-2.45c-1.26-.23-.98-3.17-.7-5.78l.03-.4c.13-1.17.23-2.25.18-2.92.53-6.1.66-12.32 1.2-18.45 1.28-15.88 2.81-34.93 3.82-50.8-3.61.08-7.06.16-10.42.16-4.7 0-9.2-.15-13.65-.66-1.81-.5-1.67-1.53-2.2-2.93-.58-.48.05-2.4-.19-3a2.12 2.12 0 0 1-.04-.85c.06-.58.24-1.25.37-1.66.05-.12.08-.23.1-.34.06-.68-.48-1.28-.08-1.95.09-.1.15-.38.19-.78.13-1.26.06-3.57-.14-3.93a.45.45 0 0 1-.08-.3c.05-.5.96-.97.87-1.64.04-.36-.01-.75-.1-.86-.3-.31.5-1.13.2-1.51-.21-.61.32-.85.2-1.6-.03-.65.01-.71.65-1 .2-.1.43-.15.67-.15 1.02 0 2.36.77 3.75.87 4.44.7 9.92.77 15.5.77h7.4c1.16-9.76 2.34-17.95 3.7-27.71.24-1.9.54-3.9.74-5.75.12-1.13.2-2.21.19-3.2a3 3 0 0 1-.03-.74c.13-1.27 1.22-1.67 2.14-1.03.1.03.2.04.3.04.76 0 1.61-.8 2.5-.52h.14c1.07 0 1.6-.49 2.92-.39h.49c1.43 0 2.49.02 3.59.72.9-.1 2.1-.16 3.34-.16 1.99 0 4.12.15 5.44.55.91.17 2.77.2 1.95 1.7-2.14 7.97-2.75 15.03-4.19 23.15l-.05.83c-.13 1.27-.4 1.37-.5 2.24-.2 1.97.1 2.03-.42 2.53-.42.4-.45.52-.32 1.16.24 1.16.3 1.83.16 3.13-.27 2.59-.4 2.55.25 2.84 1.18.2 3.06.27 5.15.27 3.12 0 6.72-.14 9.26-.14 7.28 0 9.67.1 15.47.3 7.12.07 15.67.93 22.64 1.97 2.56.25 4.57 1.21 7.22 1.28l-.04.06c.94.15 2.36.39 1.61 1.2-.76.56-1.3.22-2.21 1.13-.92.77-.92.77-2.27.65a6.79 6.79 0 0 1-1.63-.28 5.36 5.36 0 0 0-.83-.06c-1.3 0-3.16.28-4.7.28-.83 0-1.56-.08-2.07-.32-1-.56-.9.2-1.99.1-1.89-.4-5.27-.42-7.24-.74a19.63 19.63 0 0 0-5.52-.69c-1.91 0-3.87.15-6.42-.02l-.74-.02c-1.57 0-3.78.2-3.92.2-.2.67.75.52 1.8.63 5.54.18 11.8.54 17.21 1.16.64.2 11.66 1.37 8.07 1.74-.88.2-1.63.27-2.32.27-1.95 0-3.45-.58-6.25-.58-4.65 0-5.47-.55-9.3-.6-1.15.02-3.14.09-4.42.13-2.24.08-2.33.1-2.32.48.01.37.17.4 2.36.53 3.26.22 5.98.17 8.81.81 2.87.11 7.44.44 10.2.92 1.05.3 1.33.44.16.94-.49.16-.98.22-1.48.22-1.25 0-2.5-.4-3.7-.6a2.55 2.55 0 0 0-.9-.16c-.85 0-1.55.38-2.54.24-.54-.05-1.1-.24-1.28-.43-.25-.24-.41-.28-.6-.14-.17.06-.4.1-.64.1-.86 0-2.08-.33-2.9-.23-.55.13-4.36-.23-7.46-.23-2.82 0-5.05.3-3.74 1.53.7.44 4.36.24 5.25.46 5 .94-7.57.86-8.24.95-4.17.05-8.91.53-13.02.64-1.1.14-2.72-.18-2.07.56.26.3.92.37 6 .37 4.64 0 4.82.43 8.75.66 1.1-.12 1.77.01 1.53.7-.11.1-1.36.24-2.76.3-4.92.04-6.06.24-11.29.36-3.47 0-3.6.01-3.63.38-.04.35.1.38 2.32.42h.34c2.1 0 1.9.43 3.65.23 1.46-.27 2.06.1 3.64-.16.91-.13 1.4-.13 1.61.01.8.34 2.61.05 3.64.12h.15c1.38 0 2.2.29 3.56.28 1.1-.03 2.18.06 3.11-.4.3-.11.57-.15.84-.15.85 0 1.67.4 3.08.24 3.45-.07 5.86.6 9.03.94 2.06.27 5.98.07 7.94.76.98.56 1.47.51 2.45.94.25.13.34.26.33.38-.05.53-2.2.92-3.06.97-3.04.4-5.31-.43-8.46-.5-4.28-.3-9.2-.4-13.6-.4-5.8 0-16.98.47-23.62.38-1.38-.01-1.66.03-1.68.28a5.3 5.3 0 0 0-.48 1.82c-.22 2.1.24 4.67-.38 6.53-1.23 17.38-3.14 38.94-4.53 56.55-.2 3.53-.82 7.9-.71 10.56.04.25.06.7.01 1.14-.06.66-.26 1.33-.7 1.48-.12.04-.24.06-.36.06-.62 0-1.14-.48-.8-1.4.27-1.19.2-1.28.27-2.52.29-10.93 2-24.1 2.9-37.89-.04-.1-.03-.4 0-.79.12-1.09.47-2.9.66-3.25.21-.5.22-.77.02-1.35-.2-.57-.18-1.44.08-4.46.41-4.69.7-9.66 1.15-14.26.33-3.37.33-3.5-.03-3.5-.37 0-.4.13-.89 4.63-.5 5.21-.63 7.52-1.1 11.6.2.9-.07 4.39-.35 5.38-.38 1.07.06 3.03-.43 3.97-.25.54-.27.75-.12 1.16.37 2.28-.45 7.35-.76 11a460.6 460.6 0 0 1-.54 4.82c-.1.55.14 2.46-.37 2.93-.36.56-.57.9-.16 1.32.34.27.03 1.56.3 1.85.16.17.07.9-.16 1.27-.12.1-.18.31-.22.6-.08.78.1 2.06-.1 2.42a87.32 87.32 0 0 0-.58 11.3c-.3.25-.16 2.58-.5 2.82-.33.38-.28 1.73-.7 2.05-.17.06-.31.1-.44.1-.83 0-.7-1.42-.68-2.52.79-12.06 1.9-23.57 2.95-38.68.26-3.62.52-4.25.61-5.18.06-.56.07-1.23.01-2.76.06-1.18.2-2.15.36-2.48.1-.25.16-.58.2-.95.14-1.4-.01-3.42.2-4.66.05-1.98.62-3 .34-4.57.5-3.03.29-6.34.82-9.9 0-.26.03-.5.05-.74.16-1.5.48-2.43-.27-2.67-.5.41-.76 1.6-.92 3.12-.31 3.03-.2 7.34-.63 9.09-.23 2.4-.13 4.02-.31 5.82-.08.73-.2 1.49-.42 2.34-.33 3.84-.53 9.34-1.05 14.06a754.01 754.01 0 0 1-1.7 18.92c-.22 1.08.2 4.35-.43 5.03-.48.5-.27.95-.09 1.5.27 1.53-.43 5.2-.44 7.1l-.06.45c-.12 1.13-.01 2.65-.14 3.92-.11 1.05-.39 1.93-1.1 2.3-.28-.08-.22-.71-.15-1.41.09-.8.2-1.69-.16-1.9-.33-.64-.35-1-.18-3.27l.36-3.71c.16-1.48.35-2.86.71-4.31.06-.11.1-.2.1-.26.05-.43-.7-.38-.22-1.8.18-.89.19-1.4.09-2.46a1.8 1.8 0 0 1-.08-.83c.09-.84.58-1.73.46-2.66.21-2.25.03-4.87.28-7.3.1-1 .58-4.8.9-5.7.15-.37.23-.69.25-.98.14-1.28-.6-2.07-.26-3.93a1782.57 1782.57 0 0 0 2.12-27.95c.1-.91.4-2.71.57-4.36.2-1.93.22-3.64-.48-3.48-.31 1.1-.5 2.3-.64 3.59-.3 2.88-.32 6.14-.74 9.3-.41 5.07-.74 7-.83 10.6 0 1.15-.08 1.66-.33 2.15a1.9 1.9 0 0 0-.25.75c-.03.32 0 .76.06 1.52.12 1.21.03 2.84-.3 6.45-.74 4.99-1.2 13.3-1.73 18.33-.16 1.5-.35 2.95-.6 4.34-.37 3.24-.3 7.36-.51 10.25.03 1.47-.02 2.89-.16 4.26-.12 1.2-.32 2.36-.6 3.5 0 1.52-.73 1.86-.74.33-.07-1.34.02-1.46-.24-2.8-.2-1.98-.13-3.95.09-6 .13-1.32.33-2.68.55-4.08.34-2.17.35-2.47.09-2.8-.37-1.3.01-5.79.41-9.59.36-3.38 1.07-9.5 1.1-10.82.27-2.34-.04-4.1.29-6.62 0-.18.01-.36.03-.53.17-1.63.78-2.02.49-3.3-.42-2.15 1.29-12.45.8-14.45-.28-.2-.48-.3-.63-.3-.21 0-.3.2-.33.52-.06.56.06 1.45-.05 2.17-.06 1.16-.17 1.91-.33 2.13-.05.15-.08.3-.1.44-.07.76.24 1.41-.03 3.2-.35 8.78-2.08 22.78-2.56 31.5.01.17 0 .32-.01.46-.08.73-.37 1.09-.44 1.77-.12 1.1.31 2.34-.25 3.3-.15.32-.25.73-.3 1.2-.14 1.36.1 3.14.06 4.13-.09.35-.14.65-.17.93-.1 1.06.1 1.87-.2 4.09l-.1 1.14c-.17 1.66-.42 2.92-.74 2.92-.21 0-.46-.6-.74-2.08-.2-.77.1-4.03.06-4.92.43-4.01.52-9.76 1.01-14.42.2-1.88.46-3.66.87-5.25.08-1.24.14-5.8.3-7.3.06-.54.17-1.06.36-1.52.06-.05.1-.23.12-.47.11-1.1-.04-3.62-.26-3.9-.06-.08-.3.1-.55.38-.28.3-.42.94-.5 1.7-.14 1.39-.09 3.16-.28 4.02-.23.88-.3 5.06-.57 7.63-.1 1-.24 1.76-.43 1.97a.93.93 0 0 0-.2.5c-.07.7.5 1.61.2 3.23 0 .7-.02 1.26-.07 1.73-.14 1.4-.52 2.65-.68 4.6.02 1.35-.3 2.43-.12 3.34.02.08.02.15.01.23-.06.54-.51 1.1-.38 1.85.04.54.01 1.67-.1 2.8-.14 1.3-.39 2.59-.77 3.01-.02.19.08.57.22.86.11.2.14.47.1.77-.1 1-.85 2.38-1.4 2.83-.18-.2.08-1.92-.17-2.17-.17-.16-.33-.23-.47-.23-.68 0-1.03 1.54-1.1 2.36-.16 1.68-.86 2.6-2.3 3Zm-407.13-5.26c.1 0 .2 0 .32-.02l.01-.01c3.87 0 8.37-.86 12.23-1.5h.23c1.3-.01 3.27-.65 4.54-.54.88-.07 1.27-.75 2.26-.85 1.3-.39 2.8-.96 3.91-1.62a8.12 8.12 0 0 1 2.21-1.55c.58-.2 1.9-1.34 2.63-1.4 1.32-.3 3.6-2.7 4.8-3.75 1.08-1 1.31-1.32 1.36-1.85-.07-.99-.04-1.82-1.35-.32-4.14 3.97-9.16 6.55-14.22 8.89-.95.47-1.7.33-2.52.6-.53.2-1.08.45-1.61.53-.61.1-3.88.37-4.34.91-1.09.74-2.57.5-3.95.78-1.96.26-3.44.69-5.56.71-2.46-.2-2.48 1.03-.95 1Zm319.76-5.8c1.35 0 2.13-1.77 3.69-1.6.21.03.45.1.7.2 1.26.37 2.74.15 2.83-.22.04-.2-.31-.45-1.3-.67-7.77-1.76-15.31-4.45-22.57-7.4-5.79-2.46-11.81-5.04-16.45-9.2-1.1-1-2.68-2.71-3.61-3.78-.78-.57-1.28-2.4-2.2-2.5a.84.84 0 0 0-.41.06.66.66 0 0 1-.33.09c-.53 0-1.09-.58-1.51-.63-.25-.03-.45.12-.57.68a1.93 1.93 0 0 0-.06.37c-.16 1.5.34 2.7.7 4.08.36 1.66.7 2 2.33 3.9a40.13 40.13 0 0 0 9.49 7.92c.48.44.87.59 1.21.59.67 0 1.17-.52 1.85-.44.25.03.52.13.83.37.6.48 2.68.7 3.3 1.25.69.54 2.43 1.04 3.22 1.27 2.16.88 4.9 2 7.3 2.3.52.06.98.66 1.58.4.35-.1.57-.06.87.16 2.5 1.08 6.2 2.2 8.97 2.77v.02l.14.01Zm-101.38-7.68h1-.03c4.98-.03 8.69-.15 12.76-.6 2.82-1.03 6.54-1.5 9.33-2.56 2.9-1.08 6.18-2.23 9.12-3.16 3.79-1.49 7.14-4.83 10.7-6.88a50.01 50.01 0 0 0 4.22-4.04c.49-.87 1.3-.97 1.87-1.7 2.17-3.06 4.98-5.96 6.43-9.42a9.73 9.73 0 0 0 1.62-4.18c.12-1.15-.02-2.35-.3-3.88-.42-6.02-3.95-11.2-7.37-15.77a63.32 63.32 0 0 0-7.46-6c-.64-.36-2.25-.96-2.7-1.56-.27-.32-.57-.46-1.05-.46-1.46-.28-2.16-.7-3.77-1.12-1.95-1.02-5.07-1.57-7.12-2.3-.8-.42-1.02-.14-1.63-.35-.17-.1-.76-.22-1.31-.27-1-.03-1.08-.42-1.76-.42-.1 0-.21 0-.34.03-.51.1-3.92-.18-4.17-.64-.13-.52-1.52.27-1.78.41-.46.3-1.22-.82-1.5-1.08-.28-.34-.4-.35-2.25-.15-2.52.19-4.38.52-6.64.76-1.06.03-2-.11-2.98.51-.64.4-.87.45-1.98.37-2.1-.24-3.22.7-4.95 1.66-2.28 1.33-4.2 2.19-6.39 3.82-2.24 1.44-5.17 3.23-7.22 4.78-1.03.93-2.5.04-3.6 1.38-2.1 1.63-4 2.51-6.02 4.26-1.69 1.76-3.44 2.2-5.43 3.63-1.58 1.26-2.8 2.64-4.27 4.05-1.1 1.13-1.16.88-2.02 1.1-1.42 1.59-3.35 3.7-4.22 5.67-.16.65-.94 1.37-.99 1.89-.03.3.18.53.9.63.69.4 1.47-1.15 2.06-1.2.8.43.24 3.73.33 4.91-.16 1.95.22 3.05.25 4.73.32 3.62 2.74 7.06 4.55 9.8 2.64 2.03 5.47 5 8.63 6.28a55.47 55.47 0 0 0 27.48 7.07Zm288.76 0h1.02-.04c4.98-.03 8.69-.15 12.76-.6 2.82-1.03 6.54-1.5 9.32-2.56 2.92-1.08 6.19-2.23 9.13-3.16 3.79-1.49 7.13-4.83 10.7-6.88a49.71 49.71 0 0 0 4.22-4.04c.48-.87 1.3-.97 1.87-1.7 2.17-3.06 4.98-5.96 6.43-9.42a9.76 9.76 0 0 0 1.62-4.18 13.8 13.8 0 0 0-.3-3.88c-.42-6.02-3.95-11.2-7.38-15.77a63.24 63.24 0 0 0-7.45-6c-.64-.36-2.25-.96-2.71-1.56-.26-.32-.57-.46-1.04-.46-1.46-.28-2.16-.7-3.77-1.12-1.95-1.02-5.07-1.57-7.12-2.3-.8-.42-1.02-.14-1.64-.35-.16-.1-.75-.22-1.3-.27-1.01-.03-1.09-.42-1.76-.42-.1 0-.21 0-.34.03-.51.1-3.92-.18-4.18-.64-.12-.52-1.5.27-1.77.41-.46.3-1.22-.82-1.5-1.08-.28-.34-.4-.35-2.25-.15-2.52.19-4.38.52-6.64.76-1.06.03-2-.11-2.98.51-.64.4-.87.45-1.98.37-2.1-.24-3.22.7-4.95 1.66-2.28 1.33-4.2 2.19-6.4 3.82-2.23 1.44-5.16 3.23-7.21 4.78-1.03.93-2.5.04-3.6 1.38-2.1 1.63-4 2.51-6.02 4.26-1.7 1.76-3.44 2.2-5.43 3.63-1.58 1.26-2.8 2.64-4.27 4.05-1.1 1.13-1.16.88-2.02 1.1-1.42 1.59-3.35 3.7-4.22 5.67-.16.65-.94 1.37-1 1.89-.02.3.19.53.9.63.7.4 1.48-1.15 2.07-1.2.8.43.24 3.73.33 4.91-.16 1.95.22 3.05.25 4.73.31 3.62 2.74 7.06 4.54 9.8 2.65 2.03 5.48 5 8.64 6.28a55.48 55.48 0 0 0 27.47 7.07Z"/><path d="M498.03 480.17v-.05c-2.94 0-3.13-5.2-4.76-7.24-.6-1.24-.61-1.33-.17-2 .58-.9.62-1.88-.05-2.71-1.11-1.87-1.47-3.99-1.56-6.36a3.53 3.53 0 0 1-.03-.38c0-1.7 1.2-3.94.72-5.18-.5-3.27.17-8.65.83-11.88.02-1.52-.81-3-.62-4.55.04-.2.05-.4.05-.56 0-.92-.48-1.23-.23-2.23.24-.6.64-5.6.52-6.2-.03-3.9-.58-11.86 1.1-15.48-.14-.81-1.01-1.43-1.08-2.49-.1-.65-.32-1.04-.57-1.04-.72 0-.9 3.53-.6 3.95-.02 9.92-.9 23.78-.73 33.68-.33 3.74-.29 11.85-.89 15.79-.22 1.35-2.16 4.76-3.01 5.69a1.7 1.7 0 0 1-.92.33c-.72 0-1.27-.74-2.47-1.8-2-2.46-3.64-1.1-3.97-4.03-.52-2.5-.7-4.89-.7-7.24 0-4.13.55-8.17.79-12.67.22-2.44.28-5.34.28-8.37 0-3.21-.06-6.57-.06-9.69 0-2.43.04-4.71.18-6.66a4.76 4.76 0 0 0-.08-2.26c-.1-.27-.13-.56-.13-.86 0-1.1.51-2.34.45-3.61v-.52c0-1.54-.2-3.04-.2-4.6 0-3.15.77-7.78 1.79-10.96.32-.61.38-1.3-.14-1.85-.51-.85-1.03-2.68-1.91-.72-.32 1.37-1.51 1.35-.7 3 .21 1.06.29 2.5.29 4.04 0 2.6-.22 5.48-.34 7.3-.37.94-.22 2.74-.65 3.55-.15.2-.12.66.1 1.18.23.74.32 1.42.32 2.08 0 2.02-.8 3.84-.61 6.57.02 9.18-.18 22.42-.56 31.74a59.93 59.93 0 0 1-.97 8.91c-.82 3.16-.59 5.14-2.38 6.64-.85.34-1.88 2.13-2.82 1.88-.9-.35-3.1-2.76-3.44-3.76a7.12 7.12 0 0 1-.47-2.57c0-1.32.29-2.8.36-5.4.25-4.13.7-30.25.54-33.88.35-16.47 1.8-34.4 2.65-51.5.94-18.9 1.17-42.8 3.22-61.66.24-2.4.84-7.34.91-9.48.05-1.11.05-1.11-2.04-1.22-9.36.35-28.81-.47-46-.47-11.33 0-21.69.35-27.5 1.64a.6.6 0 0 1-.38.14c-.9 0-1.93-1.95-2-2.66-.39-.64-.5-1.4-.5-2.21 0-1.63.5-3.45.4-4.95a2.79 2.79 0 0 1-.03-.44c0-1.47.73-4.44.19-5.29-.23-.37-.23-.69.02-1.23a.89.89 0 0 0 .17-.55c0-.8-.84-1.7-.4-2.38.42-.6-.2-2.34.26-2.88.23-.29.23-.56-.02-1.1-.11-.22-.16-.46-.16-.72 0-1.05.74-2.45.6-3.41 0-.59-.15-1.32-.34-1.63a.78.78 0 0 1-.13-.43c0-.88 1.42-1.87 1.32-3.02.25-1.64.58-1.61 2.03-1.27 1.5.4 3.22.59 4.91.59 3.3 0 6.4-.2 9.4-.2 10.88 0 20.4.79 32.29.79a1032.21 1032.21 0 0 1 27.71.36c1.93 0 1.95-.7 3.4-1.32.75-.13 1.18-.86 1.95-.64 1.18.19 1.69-.65 3.22-.13 1.14.26 1.42.24 1.85-.15.63-.61 1.05-.09 1.73-.45.98-.37 1.14.6 2.47.19 1.8-.63 4.34-.96 6.21-.98.19.02.37.03.57.03 2.32 0 5.13-1.3 7.37-1.28.18.02.36.03.55.03 1.66 0 3.77-.73 5 .22 3.23 1.4 1.81 2.92 3.39 3a640.7 640.7 0 0 1 36.66-1.3c8.85 0 17.63.32 26.03 1.14 1.19.02 2.67.2 3.28.4.32.17.83.22 1.45.22 1.59 0 3.85-.37 5.15-.33 6.5.54 13.72 1.3 20.12 2.06l17.78 2.08c4.33.5 9.56.56 13.6 1.88.43.2.73.2.98-.02.3-.38 2.5-.08 2.72.25-.79.78-2.18.53-4.04.7-3.1.17-3.4.3-6.12.48-2.02.54-4.34 1.25-6.24 1.62-.2.12-.4.17-.6.17-.72 0-1.46-.6-2.38-.59-.2-.03-.37-.04-.51-.04-1.19 0-.96.85-2.62.38a6.5 6.5 0 0 0-1.07-.08c-1.6 0-2.63.61-5.37.38h-.52c-3.25 0-5.55-.64-8.28-.75-1.08.03-2.71.3-3.21-.2-3.57-1.49-9.35-1.5-13.3-1.59-1.69-.14-5.2.72-6.45-.07-2.2-.86-4.18-.36-7.48-.61-6.32 0-16.52-.63-22.31-.36-.25.07-.5.1-.76.1-1.62 0-3.51-1.2-5.57-.3-7.74.84-18.2.74-26.08 1.18-1.59.22-6.8-.05-7.23 1.04.45.43 1.54.57 2.92.57 3.43 0 8.69-.9 10.76-.67 6.87-.09 18.78-.34 28.9-.34 4.72 0 9.04.05 12.28.2 1.13.05 9.76.4 9.76.97 0 .16-.7.35-2.47.55-1.85.25-1.19 1.04-3.97.89a630.7 630.7 0 0 0-9.67-.08c-5.32 0-10.87.2-19.75.2-4.72 0-6.21-.32-8.38-.3-2.55 1.08-8.01.87-11.16 1.1-2.16.02-5.3.2-3.01 1.43.73.13 1.77.18 2.92.18 2.6 0 5.77-.26 7.45-.4 1.46.36 5.03.46 6.45.85.31.19.73.19 1.27 0 .16-.1.42-.15.73-.15 1.01 0 2.57.47 3.02.7-1.34 1.06-6.68.7-8.15 1.6a.8.8 0 0 0-.12.4c0 1.4 5.7.53 6.68 1.11.4.12.78.16 1.18.16 1.53 0 3.13-.66 4.73-.6 1.65.08 4.2.2 5.62.71a6 6 0 0 0 2.79.66c.64 0 1.42-.06 2.51-.17a16.1 16.1 0 0 1 2.97-.34c3.3 0 2.89 1.8 6.09 1.47 1.83-.37 4.47.47 6.1-.13a7.64 7.64 0 0 1 2.05-.39c1.65.11 1.65 1.06 3.72 1 2.3.38 5.5-.4 7.07 1.38.5.81 1.33 1.1 2.05 1.49 2.7 1.36 7.64 1.11 10.42 2.13.24.19.34.33.34.44 0 .67-3.8.16-5.74.34-7.58.17-4.6-.74-10.04-1.16-2.8-.17-10.16-.27-12.81-.44-2.06-.15-4.45-.5-6.75-.5-1.85 0-3.63.23-5.14.97-.14.25-.2.47-.2.65 0 1.68 5.25.8 6.2 1.54 1.3.78 2.36.09 3.4.1 3.07.46 6.6.78 10.03.78 1.6 0 3.18-.07 4.67-.23 3.41.12 5.1.37 8.42.65 1.62.38 6.26.32 7.56 1 1.19.52 3.65 1.14 3.65 1.63 0 .24-.64.45-2.4.6-3 .46-1.85-.74-4.43-.02a26.6 26.6 0 0 1-7.6.48c-.3-.1-.56-.14-.78-.14-.81 0-1.14.52-2.3.27-5.1-.55-10.76-.6-15.83-1.43-14.62.27-30.72.07-45.43 1.11-1.93.13-10.46.13-11.62.9-.94 2.56-.98 5.83-1.45 9-1.98 14.52-2.1 29.7-3.19 44.28-.03 21-2 39.95-2.7 57.66-.54 15.33-.05 39.32-1.55 54.4.03 1.82.65 9.62.7 11.46.05 1.79.05 1.77-1.2 1.77Zm-183.05-4.76-.06-.01c-1.46-.44.3-1.91 1.02-.9.1.28-.62.9-.96.9Zm366.64-.08c-4.85-.37-14.57-.74-19.4-1.66a9.86 9.86 0 0 0-2.24-.1l-.58.03c-2.07 0-3.22-1.07-5.3-1.36-10.12-1.66-20.07-4.34-29.33-8.84-4.45-1.95-9.12-5.14-13.23-7.61-.64-.18-3.58-3.19-4.23-3.44-2.03-1.11-4.5-4.54-6.46-5.76-7.11-6.24-12.8-14.59-17.01-22.97-1.8-4.85-4.15-9.19-5-14.2-2-6.1-2.64-12.7-3.31-19.22-.69-8.74-1.77-17.81-1.77-26.62 0-18.2 7.54-36.05 20.1-49.43 3.3-4.29 4.1-1.5 7.18-3.86 6.52-5.18 5.55-2.86 11.88-4.97 1.4-.39 1.84-1.49 2.74-1.88 4.11-2.13 7.83-5.55 12.33-7.02 2-.74 3.35-2.63 5.99-2.82 3.4-.49 2.51-1.81 5.65-2.67 3.7-1.13 4.93-3.2 8.77-3.93 2.7-.08 2.11-1.76 3.97-1.5.78.15 1 .06 1.39-.54 1.95-1.74 4.87-2.22 7.5-2.52 2.39-.56 4.57-1.02 6.55-2.32.72-.44 4.7-.72 5.33-1.34 1.68-.94 4.05-.63 6.02-1.4 2.5-1.02 11.14-.2 11.76-2.78-.71-1.7-3.75-.45-4.32-2.34-.66-.97-1.8-1.26-3.08-1.26-1.81 0-3.88.58-5.17.58a1.08 1.08 0 0 0-.29-.03c-1.01 0-3.33.87-3.95.55-.32-.13-1.61-.23-2.88-.22h-.26c-1.33 0-1.82-.11-1.82-.26 0-.4 3.26-1.1 4.32-1.06 1.97.07 1.26-.95 3.07-1.17.2-.05.43-.06.66-.06 1.42 0 3.37.62 4.47.23 1.1-.5 4.11.52 5.07-.19.68-.56 2.68-.19 3.22-.7.07-.11.28-.17.57-.17 1.17 0 1.57.21 2.15-.31 4.78-1.79 11.73-1.58 17.32-1.33 5.88.3 9.73.97 15.31 1.35 1.38.28 4.99 1.01 6.12 1.27.78.5 2.7.79 3.77.94 2.5.26 4.34 1.7 6.86 2.14 1.42.18 1.89 1.14 2.9 1.38 1.76.29 3.66 1.45 5.4 1.93 1.98.7 4.7.88 6.54 1.82.19.23.75.42 1.24.42 1.09-.05 2.8.92 3.78 1.13 4.56 1.7 10.08 5.33 14.13 7.83 2.37 1.07 4.53 3.38 6.59 5.14 2.2 1.88 5 4.08 6.73 6.42 6.6 7.97 12.27 17.1 14.32 27.38 1.78 7.49 2 14.62 2.03 22.81.13 2.7.18 4 .18 5.03 0 1.55-.1 2.45-.21 6.44-.06 6.69.14 12.35-1.3 18.2-.82 4.84-1.24 10.53-3.28 14.9-.16 1.7-.84 3.76-1.34 5.3 0 .7-.9 1.03-.83 1.8-1.57 5-4.5 9.61-7.48 13.92-6.53 11.06-16.22 21.58-25.94 29.8-1.61 1.96-3.35 3.05-5.44 4.8-1.23 1.26-1.93.82-2.63 1.88-.14.38-.43.7-.64.7-.67.1-1.37 1.26-2.22 1.3-.46.1-.91.43-1.09.81-1.37 1.5-4 2.86-5.78 4.01-22.15 12.85-40.76 16.78-66.11 17.6l.01.02ZM309 474.92c-.22 0-.44-.03-.65-.07l-.4-.01c-2.17-.16-2.4-1.36-4.7-1.1a3.1 3.1 0 0 1-.88.08c-1.27-.1-1.5-1.22-2.73-1.66-.4-.14-.8-.12-.92.04-.48.44-2.43.2-2.77-.46-.22-.73-2.54-.58-2.85-1.02.56-.53 2.68-.21 3.47.16 2.91.43 6.2 1.28 9.3 1.73.25-.02.48-.02.7 0 1.72.12 2.27 1.29 3.78 1.6.38.05.54.13.53.22-.01.22-.93.5-1.88.49Zm18.73-2.04c-3.02 0-6.04-.07-8.51-.17l-.04.02c-1.95-.74-2.4-.94-2.85-.98-.44-.02-.87.1-2.61.05-1.5-.4-2.13-1.13-3.9-1.16h-.48c-1.58-.12-2.08-1.26-3.36-1.9-3.09-1.1-8.85-1.63-11.94-2.97-1.84-.39-2.85-1.25-4.41-1.46-1.8-.37-2.88-1.79-5.17-1.9-3.31-.74-8.7-1.16-11.82-1.53-6.12-2.11-13.85-3.54-19.73-6.38-1.03-.66-2.9-.68-3.87-1.07-2.56-.83-6.09-2.4-8.54-3.48-7.04-2.62-13.98-6.7-20.27-10.75-1.1-.77-2.21-1.1-3.53-2.12-1.1-.78-1.5-.94-1.92-.75-.2.12-.5.15-.88.13-1.93-.15-5.52-1.73-4.04.94 2.65 5.82-9.1-6.46-8.83-7.74-3.5-5.06-4.84-11.6-4.36-17.93.2-2.56.68-5.1 1.45-7.48.52-.75.44-2.41 1.86-2.1.1-.05.2-.06.3-.06.54.04.62 1.18.53 2.44-.12 1.5-.47 3.18-.55 3.4-.43 7.68 3.58 8.12 6.78 13.18.78 1.63 1.6 1.18 3.2 2.94 2.69 2.43 3.3 2.35 6.12 4.34 1.43 1.2 4.54 3.73 6 4.52 1.16.52 3.1 1.65 4 2.63 2.16 1.66 5.15 3.55 7.42 5.2 2.23 1 2.53 1.73 4.55 2.55 5.93 2.91 13.03 4.93 19.3 7.13 4.89 1.33 11.36 1 15.93 3.5 1.12.47 5.42 2.11 6.2 1.12.54-.44.99-.57 1.42-.75.08-.38-.78-1.14-.78-1.62a.78.78 0 0 0-.62-.54c-.6-.1-8.24-.5-7.9-1.5-.65-1.03-2.07-.75-2.84-1.34-.22-.22-.96-.6-1.63-.85-1.47-.73-3.62-1.14-4.8-1.93 0-.1.16-.13.43-.11 1.17.09 4.43 1.18 4.44 1.36 1.6.72 5.13 1.54 7.07 1.94.65.04 1.88-.05 2.12.27.3.5 1.48-.12 1.54-.48-.65-1.31-3.4-1.3-4.4-2.12-.55-.51-3.02-.8-3.53-1.23-.19-.22-.06-.3.42-.26.63-.17 1.1-.23 1.53-.2.84.07 1.49.46 2.7.95 2.04 1.69 11.95 1.58 14.28 2.54.89.48 3.28.83 4.3 1.09.53.12 1.18.37 1.45.55.52.6 1.92-.75 1.89-1.23-1.2-1.64-3.85-1.2-5.72-1.9-2.56-.63-4.28-1.44-6.88-2-2-.17-2.1-1.26-3.65-1.74-1.72-.53-7.49-.44-8.8-1.86-.28-.1-.62-.15-.99-.18-.9-.07-2-.02-2.82-.39-1.28-.37-1.72-.87-2.73-1.05a1.26 1.26 0 0 1-.84-.48c-6.8-1.97-15.27-4.57-21.76-7.76-1.31-.75-1.47-1.03-3.06-1.38-1.83-.42-2.11-1.25-3.99-1.9a75.85 75.85 0 0 1-15.45-9.3c-5.5-3.25-9.92-8.66-13.56-13.84-.8-.95-1.1-1.65-1.07-2.14.05-.72.84-.97 1.8-.9 1 .07 2.19.5 2.97 1.12 2.28 1.81 3.72 3.47 6.24 4.94a5.73 5.73 0 0 1 1.37 1.44c.54 1 1.74 1.3 2.5 2.12 2.38 2.12 5.77 3.56 8.52 4.96.29.02.67.23.84.48.69.7 1.63.42 2.54 1.32 1.72 1.37 4.07 2.05 5.91 3.11 2.45 1.28 5.04 2.6 7.56 3.84 1.44.5 2.15 1.63 3.67 1.92 1.8.45 1.7 1.04 3.87 1.46 2 .5 5.4 1.05 7.1 1.94 2.03 1.25 5.14 1.75 7.38 2.07 2.53.56 5.59 2.26 8.02 2.86 1.45.54 3.9.73 5.79 1.13 4.8 1 10.39 2.77 15.07 3.89 2.64.2 6.4 1.04 8.92 1.86a181.3 181.3 0 0 0 20.43 2.81c5.86.44 11.72.51 17.2 0 15.38-2.06 29.6-8.44 41.65-18 4.35-4.12 10.43-8.8 13.96-13.91 3.07-4.05 6.7-7.6 6.4-12.6-.3-9.11-3.72-18.03-11.84-22.84-1.64-1.21-2.99-1.2-4.22-2.03-.58-.6-2.4-1.12-3.2-1.27-3.58-1.34-9.25-1.37-13-2.07-10.04-.03-20.11 1.79-30.1 3.15-4.38.7-8.2 2.22-12.34 3.35a963.99 963.99 0 0 0-16.6 4.63c-5.99 1.13-11.88 2.82-17.9 4.33-1.75.63-3.94.37-5.27.95-.93.53-1.62.16-2.86.7-8.92 1.75-18.43 2.73-27.73 2.03-8.26-.62-16.35-2.57-23.68-6.46-9.47-5.93-17.57-15.25-20.08-26.48a23.28 23.28 0 0 1-.57-7.6c.32-4.23 1.47-8.5 2.47-12.5 1.28-6.97 3.4-13.2 5.15-19.95 4.13-19.24 20.38-33.26 37.97-40.68 8.84-3.68 17.56-6.4 26.97-7.75a79.94 79.94 0 0 1 25.25-1.9c14.53 1.1 28.77 4.16 42.72 7.94 8.93 3.14 17.6 6.77 26.36 10.58 2.63 1.21 5.86 2.2 7.93 3.91 1.1.65.54 3.6.31 4.56-.32 1-.68 1.04-.9 2.01-.1.52-.44.76-1.37 1.03-1.47.36-1.96 1.47-3.02 2.25-1.36.8-1.87.88-1.89 1.13-.01.23.44.62 1.05 1.97.45 2.6 1.34 5.02.76 7.92-.2 1.35-.5 2.58-.66 2.72-.56.91-.38 2.5-1.01 3.77-.4 1.34-1.07 1.83-1.05 2.85.07.23-.05.68-.26 1-1.1 1.94-1.45.8-2.78.27a33.37 33.37 0 0 0-5.7-3.4 233.95 233.95 0 0 0-28.44-11.6c-13.23-4.13-27.55-7.47-41.63-8.53-2.34-.17-4.69-.28-7.01-.33-7.18.36-14.52.9-21.42 2.54-2.87 1.11-6.47 1.43-9.4 2.41-2.56 1.35-5.26 1.85-8.1 2.8a75.93 75.93 0 0 0-21.38 12.19c-4 3.25-9.9 7.16-10.3 12.35-.08 1.2.12 2.47.72 3.81 3.56 10.4 13.71 19.33 23.97 22.9a59.9 59.9 0 0 0 16.12 3.27c8.37.63 17.02-.04 24.77-1.16 4.86-1.1 9.55-1.56 14.46-3 2.5-.66 4.54-.7 6.8-1.19 2.97-.66 6.01-1.9 8.98-2.2 4.58-.94 9.5-3.04 14.24-4 4.58-1.29 8.7-2 13.14-3.14 11.19-1.55 22.93-4.1 34.35-3.25 8.35.63 17.27 2.35 23.61 8.09 7.39 7.2 9.26 16.95 8.52 26.84-.57 7.6-2.7 15.29-5.05 21.95-.3 2.45-2.14 6.65-2.81 8.93-.6 1.71-.93 4.36-1.93 5.9-2.09 5.1-3.82 11.07-6.96 15.7-1.1 3.06-4.14 6.2-6.2 8.6-3.58 4.72-7.84 8.58-12.7 12.92-6.8 6.18-13.54 9-20.86 13.71a4.3 4.3 0 0 1-1.8.46c-1.3-.02-2.28 1.56-3.68 1.94-3.44 1.05-6.52 1.55-9.97 2.75-2.72.3-5.33.75-7.93 1.3-2.49.2-5.51.28-8.53.28Zm368.82-2.68c.9-.8 1.15-.03 2.03-.52.17-.08.33-.11.47-.11.68 0 1.2.64 2.48.25 1.44-.37 6.13.08 7.12-.87 1.31-.89 2.26-.82 3.74-1.94 2.52-1.62 5.3-1.03 7.87-2.43.72-.47 2.38-1 3.14-1.37.78-.43 2.35.24 3.01-.48 2.05-1.43 5.13-2.54 7.4-3.53 1.6-.63 3.1-.6 4.58-1.45.42-.33 1.05-.6 1.4-.6.68.09 2.24-1.44 2.74-1.62 2-1.06 1.33-.13 2.94-.18.79-.23.9-1.32 1.86-1.26 1.12-.05 3.54-1.79 4.53-2.3 4.69-3.2 9.36-6.55 13.66-10.23 1.67-1.25 2.3-2 2.3-2.39 0-.26-.28-.37-.74-.37-.9 0-2.48.41-3.86.88-.8.13-6.95 5.18-7.53 5.5-.18.08-.66.48-1.06.9-.7.84-2.45 1.26-2.99 2.1-.62.9-1.82.82-2.75 1.67-3.6 2.38-7.5 4.43-11.34 6.36a72.18 72.18 0 0 1-16.43 6.38c-2.52.7-4.74 1.27-7.24 2.18-1.35.57-2.78.28-4.06.93-.85.69-7.26.5-8.42.73-.14.02-.3.03-.46.03-1.4 0-3.57-.85-4.7-.41a9.3 9.3 0 0 1-2 .28c-1.43.02-1.23.46-2.76.76-1.86.58-4.87-.13-6.23 1.25a1.1 1.1 0 0 0-.13.45c0 1.2 3.38.65 5.14.78h1.24c2.7 0 3.6.06 5.04.61l.01.02Zm-445.77-9.7v-.01c-.51-.06-4.27-1.07-4.5-1.68-.04-.17.1-.22.36-.2.68.05 2.18.6 3.12.55 2.64.11 3.78 1.22 1.02 1.33Zm-7.48-2.85c-.6-.1-1.32-.95-2.18-.91a38.2 38.2 0 0 1-5.34-2c-1.06-.88-3.22-.97-4.25-1.88-.47-.51-1.39-.5-1.8-1.16-.74-.85-3.23-.94-4.22-1.69-.66-.46-2.22-1.3-1.27-1.7.26-.07.67.07.91.33.6.63 2.42.44 3.12.9.92.53 1.51.65 2.4 1.42 1.03.88 2.58.82 3.75 1.4a13.67 13.67 0 0 0 5.82 2.07c1.2.28 2.8.88 3.2 2.08.02.57.33.95-.14 1.14Zm432.86-.27c.49-.25.93-.32 1.39-.32.84 0 1.72.26 2.91.17 1.5-.1 4.06-.11 5.27-.47.52.07 1.05.1 1.57.1 1.44 0 2.9-.23 4.5-.45.28-.05.53-.08.74-.08 1.56 0 1.37 1.29 3.72.21 5.02-1.46 10.71-1.95 15.79-3.03 1.63-.42 1.99-.65 3.56-1.22 1.55-.61 2.85-.23 4.33-1.12 3.02-1.31 6.57-2.6 9.54-3.92 2-.55 4.16-1.64 5.98-2.57 1.67-.57 3.95-.45 5.36-2.02.52-.46 1.12-.84 1.33-.84.51.01 2.54-1.85 3-1.95.79-.37 2.78-2.58 3.82-2.79 4.35-2.44 8.28-5.82 12.58-8.4.98-.99 1.39-.34 2.24-.83 1.12-.78 1.55-1.01 2.98-2.41 1.54-1.5 1.54-1.5.97-2.08-.48-.48-.67-.52-1.07-.25-1.23.76-2.14 1.22-3.73 2.45-5.6 4.61-11.4 8.79-17.5 12.66-.98.57-1.73 1-2.5 1.56-.6.44-2.62.9-3.2 1.47-1.85 1.55-4.76 2.25-6.82 3.42-.9.18-2.52 1-3.21 1.64-2.74 1.3-6.84 2.24-9.74 3.29-1.9.72-3.73 1.26-5.84 1.81-.77.1-1.58.36-1.81.56-1.22.69-2.12.29-4.18.7-2.9.56-4.71.84-7.26 1.38-.67.33-2.75-.18-3.45.24-3.14.61-9.86 1.39-12.9 1.14-.37.07-.87.1-1.44.1-2.2 0-5.58-.42-7.2-.65-2.32-.33-2.32-.33-3.04.39-.36.29-.5.53-.5.73 0 .97 3.28 1.13 3.8 1.36l.01.02Zm-452.57-9.8c-.16.01-.37-.01-.63-.06-1.07.37-14.94-8.1-11.22-8.37 1.7.78 3.14 3.42 5.5 3.2.81-.16 8.73 5.21 6.34 5.24Zm519.33-2.02.33-.01c.4-.1.97-.42 1.29-.71.94-.78 2.21-.37 3.3-1.23.56-.38 1.3-.7 1.64-.7.99-.06 2.66-1.48 3.67-1.75a68.6 68.6 0 0 0 12.31-9.24c3.72-4.36 4.7-.79 7.36-3.89.32-.74 1.65-1.8 2.45-1.82 1.03 0 1.41 1.02 2.57.16 1.72-.95 3.49-2.8 4.33-4.5 2.8-2.35 2.5.3 5.2-4.3.98-1.46 2.2-2.66 2.47-4.1-.08-1.09-.76-1.6-1.82-.45-2 1.58-6.03 1.83-8.45 2.72-1.38.34-2.15.6-2.62 1.69-.41.9-2.02 1.77-2.51 2.75-1.24 1.6-2.5 1.65-4.3 3.6-2.18 2.09-2.13 2.08-3.9 3.87-2.79 2.33-5.82 4.88-8.91 6.91-2.3 1.87-4.4 3.57-6.9 4.8-.87.35-1.01 1.14-1.7 1.32-.51 0-1.28 1.18-1.86 1.11-.95.17-2.19 1.55-3.34 1.76-1.67.24-2.17 1.98-.6 2.01ZM681 444.53c.33 0 .56-.06.76-.18a7.7 7.7 0 0 1 2.6-.33c2.93-.15 2.11 1.03 5.05.07 4.99-1.4 11.14-1.34 16.1-2.69 5.98-1.26 11.86-2.44 17.43-4.97 4.07-1.45 8.23-2.55 11.98-4.69 3.75-2.1 7.55-3.9 10.99-6.5 4.75-2.75 9.8-6.39 14.03-9.75 2.22-1.05 5.84-5.32 8.18-6.2.95-.54 2.6-3.35 3.72-4.01 2.07-1.86 4.42-5.21 6.49-7.02 4.1-5.33 8.71-9.85 12.13-15.97 4.04-5.86 5.92-10.34 8.42-16.71.72-2.34 2.09-5.43 2.56-7.72v-.28c0-.84.15-2.65.15-4.2 0-1.25-.1-2.34-.48-2.68-.31-.62-.45-1.27-.34-1.61l.03-.3c0-.75-.72-1.23-.91-2.07-.87-1.79-1.98-5.24-3.16-6.8-.47-.45-2-2.57-1.96-3.28-.04-.75-1.47-1.78-1.69-2.49-.13-.35-.43-.71-.67-.8-.55-.17-1.15-1.78-1.7-1.95-.63-.2-1.55.98-2.12 1.11-.84.31-.57 2.62.55 2.22.3-.12.38.03.3.64.04 1.44-1.86.2-2 1.64-.3 1.8-1.19 2.74-2.9 1.53-2-1.65-2.62-5.22-4.34-7.28a52.44 52.44 0 0 0-6.47-6.71c-8.47-7.41-18.82-13.06-28.92-17.94-1.9-.73-1.94-.86-4.5-1.37-4.14-.8-7.25-3.12-11.13-4.1a140.67 140.67 0 0 0-27.7-2.77c-13.51 0-27.05 2-39.8 6.3-5.01 1.77-10.16 2.45-14.62 5.09-2.18 1.04-6.23 2.61-8.41 3.66-.64.34-1.45.62-1.8.62-.9.03-1.66 1-2.45 1.44-4.56 1.47-7.09 3.4-11.7 5.87-4.44 2.14-6.9 5.16-10.77 7.28-4.44 2.39-8.2 8.04-12.17 11.12-3.05 2.28-5.23 6.02-7.62 8.83-5 6.09-9.04 13.8-11.54 21.29-.86 3.04-2.15 6.52-1.58 9.74.35 1.41-.52 1.64.08 2.97.41.9.66 3.38 1.17 4.15.2.24.38.77.38 1.19-.15 1.35 1.47 2.74 1.4 4.05.97 2.97 3.63 7.9 5.72 10.35.43.44.8 1.05.82 1.35.07.73 1.63 2.6 2 3.2 7.41 10.65 18.53 19.13 29.9 25.22a133.67 133.67 0 0 0 36.61 10.93c1.35.65 9.15.36 10.27 1.01.27.23.93.23 2.47 0a6.93 6.93 0 0 1 1.45-.16c1.53 0 2.44.6 4.03.57v-.04c1.57-.21 2.46-.44 4.27-.06.63.12 1.07.19 1.4.19Zm-83.75-163.55c-2.13 0-2.37-.29-4.1-.76-2.96-.64-4.53.42-7.87-.08-1.04-.28-10.18-.4-8.53-1.74 1-.6 29.26 2 20.5 2.58Z"/><path d="M208.64 277.79a.4.4 0 0 1-.2-.08c-.24-.57.38-1.58.74-2.08.56-.62.22-1.34.98-1.75.73-.36.38-.91.99-1.38.4-.32.43-.3.3.17-.22 1.47-1.33 2.18-1.84 3.6-.23.55-.52 1.54-.97 1.52Zm-3.1-2.28c-.64-.06-.98-.67-.98-1.38.03-1.01-1.45-2.13-1.36-3.18.18-1.9 1.4-4.21 1.95-6.16.53-1.42.54-1.42-.19-2.28a2.01 2.01 0 0 1-.61-1.52c0-.9.4-1.9.38-2.88.38-2.3 3.26-6 3.8-8.3.44-1.25.44-1.28-.13-1.89-1.83-1.77 3.6-5.4 2.03-9.31-.13-.59-.38-.81-.67-.81-.87 0-2.18 2-2.32 2.63-.45 1.89-1.53 3.26-2.44 5-.37.87-1.94 2.55-2.05 3.49.03.75-.8 1.46-.8 2.2 0 .31-.2.73-.42.92-1.38 1.48-1.39 3.09-2.52 5.06-.74 1.68-1.93 2.2-2.18 3.58.08 1.68-1.32.74-1.47-.42a1.9 1.9 0 0 1-.06-.48c0-1.14 1.02-1.87 1.22-3.11.16-.4.2-.74.2-1.05 0-.85-.31-1.5.52-2.37 1.6-1.72 1.38-3.69 2.79-5.63.8-1.15 1.5-2.5 2.11-3.43.52-.87.2-2.08 1.08-3.03 2.09-2.36 2.46-3.78 3.42-7.07 1.04-3.52 2.48-4.72 3.64-7.82.81-2.43 2.35-4.56 3.25-6.86 1.15-2.72 2.63-6.84 4.4-9.22 1.36-1.04 1.29-3.48 2.09-4.85 1.04-1.75 1.74-3.96 2.64-5.74 11-23.09 21.82-46.31 31.2-70.13 6.42-15.75 11.78-32.15 18.16-47.86 2.12-4.65 3.84-9.69 6.61-14.01.4-.51 1.42-.65 2.65-.65 1.89 0 4.29.33 5.68.16 6.9-.03 12.79.56 17.7-5 2.4-2.29 2.43-2.3 3.84-2.3l.36-.03c2.25 0 1.65 3.58 2.62 5.3 1.7 4.27 3.34 8.4 5.06 12.5 3.36 8.95 7.63 18.09 10.37 27.18 1.68 3.56 3.24 8.85 4.86 12.5 0 .77.58.73.54 1.56.06 1.14.53 1.55 1.02 2.81.92 2.72 1.76 5.28 2.74 7.96 1.8 5.04 3.85 9.4 5.53 14.53.09 1.37 1.69 2.88 1.24 3.82-.24.29-.24.52 0 1 .95 1.26 1.48 2.67 2.24 4.07.77.75.2 2.53.95 3.16 2.4 3.53 4.03 8.37 5.82 12.39.54 1.09.93 2.03.88 2.09-.41.17-1.1-.33-1.26-.82-.43-.9-1.98-2.06-2.2-3.23-2.07-4.2-4.45-9.01-6.5-13.26-1.75-4.02-3.15-8.85-5.4-12.55-.86 2.26 3.68 9.81 4.6 12.69 2.07 5.52 5.24 11.33 6.67 16.89 1.2 1.3 1.7 3.7 2.39 5.24 1.35 1.52 1.85 4.1 2.42 5.94 1.74 2.36 2.4 4.83 3.77 7.56.49 1.18 1.35 2.57 1.39 3.46-.45 0-.89-.83-1.53-.97-1.17-.55-1.08-2.22-2.06-3.22-1-1.23-.9-1.98-1.48-3.32-.42-.98-2.99-4.22-2.98-1.42-.08.8 2.36 5.16 2.48 5.86 1.06 1.62 1.27 5.28 3.48 5.67 1.01.17 5.24.6 6.2.81.42.1.61.03.61-.23.03-1.54-2.1-3.03-2.55-4.4-1.18-2.5-2.37-5.78-3.53-8.32-.36-1.85-2.51-3.9-1.85-5.8.39.2 1.3 2.71 1.71 2.97 1.18 1.58 1.43 4.1 2.57 5.66.96.95.88 2.45 1.57 3.65 1.2 2.35 1.63 3.22 2.88 5.73a6.57 6.57 0 0 0 1.42 2.07c.98.57 7 .94 8.13 1.09 2.38.5 5.46 1.06 7.6 2.15 1.6 1.63-.36.8-1.22.7-1.09 0-2.75-.3-3.91-.61-1.78-.42-4.49-.29-6.48-.68-1.47-.1-2.5-.73-3.28-.19.2 2.27 6.24 1.9 7.87 2.32 3.25 1.02 7.6 1.54 10.79 2.7l-1.08-2.64c-.58.07-1.61-.23-.9-.66.14-.1.34-.14.57-.15l-.41-1.02c-2.68-7.75-2.96-16.63-2.96-25.31 0-3.9.06-7.77-.02-11.47v-3.6c0-7.97.22-16 2.57-23.36 6.2-23.77 23.36-44.25 44.52-56.44 8.5-5.34 18.81-8.98 28.48-11.59 7.48-1.88 14.75-3.56 22.62-3.87 1.63-.05 3.31-.08 5.02-.08 17.09 0 37.5 2.96 49.99 14.33 2.06 1.65 2.16 1.78 2.28 3.01a72 72 0 0 1 .36 7.91c0 2.3-.08 4.48-.24 5.8-.2.59-.26 1.22-.28 1.88-.01.82.06 1.67.06 2.5 0 1-.1 1.97-.55 2.84-.13.65-.1 1.14.09 1.34.21.45.28 1.1.27 1.82a17.1 17.1 0 0 1-.35 2.84c-.69 2.97-1.37 4.1-2.27 4.08-2.34-.05-6.14-7.82-15.26-10.98-6.88-3.2-15.57-4.8-23.25-5.62-3.98-.38-8.53-1.05-12.8-1.13h-.86c-6.64 0-13.9 1.04-20.4 1.94-3.96 1.35-9.18 3.2-13.38 3.93-2.66.32-3.88 2.23-6.52 2.28-1.15-.07-1.33.73-2.32.94-.78.1-2.08 1.2-2.75 1.4-2.44.83-5.4 2.89-7.5 4.35-3.78 1.68-7.27 4.37-10.87 6.3-1.56.82-5.58 4.87-7.28 6.03-7.27 5.8-13.13 14-17.45 22.03a81 81 0 0 0-6.63 14.45c-.7 2.2-1 4.4-1 6.6 0 8.47 4.54 16.78 8.53 24.07a72.99 72.99 0 0 0 23.73 25.3c6.42 4.56 12.6 8.5 19.85 11.41 15.83 6.85 33.68 9.63 51.27 9.63 5.42 0 10.81-.27 16.1-.75 3.38-1.15 8.14-.66 11.43-2.3 7.71-1.98 15.64-4.35 22.46-8.47 5.19-3.84 9.84-6.8 14.25-11.8 3.12-3.24 4.66-6.25 6.67-9.69 1.5-2.37 4.08-7.33 4.8-10.08a70.83 70.83 0 0 0 6.85-31.61c.02-1.1.23-3.05.26-4.71v-.41c0-1.06-.09-1.95-.37-2.34-.34-.65-.4-1-.19-1.2.5-2.3 1.2-3.5 1.22-6.51v-.66c.03-2.18.75-4.36 1.95-1.67.68 1.6.68 5.03.83 6.72-.09 9.76-.86 26.73-1.41 36.83-1.52 24.1-8.25 49.81-28.54 64.61-10.83 7.43-23.77 11.73-36.75 13.26-3.66.8-8.96.96-14.21.96l-.05-.02c-4.59 0-9.14-.13-12.57-.05-7.02-.3-12.38-.93-18.84-2.15-2.38-.94-6.13-1.29-8.49-2.29-1.28-1.03-4.02-.99-5.39-1.85-4.8-.92-8.9-2.76-13.6-4.52-2.75-1.1-4.33-2.5-6.8-3.57-.78-.13-2.57-1.25-2.95-1.92-.52-.91-3.71-2.25-4.66-2.69-2.31-1.31-4.75-3.34-6.96-4.7a128.94 128.94 0 0 1-13.59-12.98c-1.83-2.06-2.3-3.97-3.97-5.68-1.16-.47-1.3-2.48-2.4-3.15a97.1 97.1 0 0 1-7.6-14.83 2.06 2.06 0 0 0-1.04.03c-4.75-.3-9.8-2.04-14.73-2.16-.57-.04-1.18.15-1.18.7.02.67-.58.66-.55 0-.08-.8-2.25-1.79-2.99-1.32-.43.15-1.27.2-1.87.11-.73-.02-3.63-.87-3.63.03 0 1.42 1.9.92 2.44 1.44.1.16.5.21.91.13l.36-.02c1.4 0 2 .57 4.23.7 3.19.28 2.53.91 5.5 1.18 2.37.18 2.33.4 4.23.95 2.4.46 4.72.7 6.74 2.08.6.23 3.23 1.15 1.33 1.43-1.98-.45-5.98-1.9-8.16-.8.2 1.86 7.24 2.24 8.72 3.05.99.45 3 1.91 1.15 2.42-.22.06-.47.08-.72.08-.9 0-1.9-.19-2.3.78-.44 1.38-4.28 1.02-5.54.88-1.29-.05-2.69-1.3-3.67-.79-1.02.59-2.64.02-.94 1.65 2.1 1.72 5.3 1.89 7.85 3.03 1.62.8 4.6.3 5.68 1.58.42.45.6.87.6 1.25 0 1.7-3.4 2.7-4.8 1.66-1.7-.5-3.25-.9-4.31-.9-.9 0-1.45.29-1.45 1.05 0 .74.5 1.91 1.7 3.7.67 1.04.71 3.54 1.33 4.53.19.19 1.88 5.68.47 4.33-.93-1.28-.7-3.57-1.77-4.88-.9-1.24-.82-4.06-1.94-5.3-1.02-1.32-.97-2.57-2.1-3.69-.66-.63-1.08-.77-2.3-.82-1.53-.03-5.72-1.54-3.79 1.23.6 1.23 1.97 3.84 2.13 5.24-.1.24.1.8.48 1.3.94 1.28 1.56 3.13 2.24 4.65 2.21 5.6 4.47 11.17 6.62 16.74.79 2.55 2.19 5.76 2.77 8.5.34 1.57 1.16 2.03 1.38 3.62-.1 1.04 2.38 4.64-.14 3.28a2.53 2.53 0 0 0-1.41-.38c-1.85 0-2.26.21-2.66-.25a15.14 15.14 0 0 1-2.1-4.42c-.21-1.31-1.41-2.27-1.36-3.68.09-1.33-.78-1.37-.8-2.54.04-1-1.2-2.28-1.35-3.17-.26-1.05-1.7-1.03-1.57.46-.02.09-.02.18-.02.28 0 1.14 1.07 3.19 1.2 4.03-2.4.09-3.02-5.26-4.43-7-1.39-3.46-3.41-7.07-4.78-10.57a2.8 2.8 0 0 1-.22-1.13c0-.72.15-1.24-.99-2.28-1.71-1.57-1.83-2.8-2.7-4.63-.53-.73-1.06-1-1.28-.15-.06.75.81 1.66.91 2.49a65 65 0 0 0 3.47 8.1 824.1 824.1 0 0 0 6.5 17.05c.7 1.27.67 1.75-.45.71-.42-.4-.76-1-.76-1.33-.12-1.05-1.49-2.24-1.95-3.29-.42-.98-2.63-5.78-3.75-3.72-.1.18-.15.37-.15.58 0 1 1.04 2.25 1.43 3.09.6 1.12.93 2.73 1.45 3.68-.05.48 1.15 1.66.96 2.18-.03.96.96 1.9 1.26 3.13.9 3.1 2.17 5.7 3 8.75.16.85.14.87-.78.87-.74 0-1-.14-1.18-.62a1.95 1.95 0 0 0-.9-.92c-1.32-.8-1.43-2.82-1.85-4.53-.4-1.93-.51-2.6-2.05-3.27-1.22-.3-2.56-3.97-2.9-5.09-.36-1.45-1.65-3.8-2.1-5.26-3.01-8.7-8.2-16.8-11.57-25.38-1.13-2.05-3.47-7.54-4.6-9.57-2.07-.67-4.38-.83-6.98-.94-1.5-.18-2.44-.24-3.29-.24-1.36 0-2.47.15-5.2.2a107.1 107.1 0 0 0-6.59-.18c-7 0-13.77.55-20.96.55-6.27 0-12.91.07-19.67.07-12.58 0-25.56-.24-37.3-1.64a17.9 17.9 0 0 0-3.2-.44c-2.5 0-1.67 1.71-3.67 5.2-.68 1.41-1.95 3.77-2.6 5.14-.63.76-.77.03-.4-.38.16-.16.3-.73.3-1.25.03-1.33.84-2.44 1.55-3.55.33-.5.6-1.26.6-1.67-.03-.98 1.13-2.03 1.15-3 .32-.99-1.4-1.35-1.86-.9a73.76 73.76 0 0 0-3.7 7.14c-5.95 12.28-12.37 24.26-18.3 36.53-1.18 2.6-2.3 3.65-3.5 5.66-.57.81-.86 2.47-1.62 3.14-1.54 1.38-1.38 4.52-3.3 5.5v.04Zm6.15-3.81v-.01c.04-1.82 1.46-4.5 2.39-6.2.92-1.68 2.74-3.39 3.1-5.49.93-3.03 2.81-6 4.36-8.68 1.77-3.4 3.68-7.66 5.77-10.93 1.2-1.32 4.62-10.14 6.22-10.73-.6 3.02-3.42 6.92-4.62 9.78a261.99 261.99 0 0 1-8 15.62c-1.97 3.55-3.5 7.25-5.6 10.7-.9 1.49-2.1 4.96-3.62 5.94Zm161.55-4.4v-.01c-.91-.5-1-2.74-1.64-3.6-.44-.73.55-.14.8.4.38.54 1.18 2.64.84 3.2Zm311.14-.64c-4.7-.36-14.13-.72-18.8-1.6a9.56 9.56 0 0 0-2.18-.1l-.57.02c-2 0-3.11-1.04-5.14-1.32-9.8-1.6-19.46-4.2-28.43-8.57-4.31-1.89-8.84-4.99-12.82-7.38-.63-.17-3.47-3.08-4.1-3.33-1.98-1.08-4.37-4.4-6.27-5.58-6.9-6.06-12.42-14.15-16.5-22.28-1.74-4.7-4.01-8.9-4.84-13.77-1.93-5.91-2.56-12.31-3.21-18.63-.67-8.47-1.71-17.27-1.71-25.8 0-17.65 7.3-34.96 19.48-47.92 3.2-4.17 3.98-1.46 6.97-3.76 6.31-5.02 5.37-2.77 11.51-4.81 1.36-.38 1.79-1.44 2.66-1.83 3.98-2.06 7.59-5.37 11.95-6.8 1.95-.72 3.25-2.55 5.8-2.74 3.3-.47 2.44-1.75 5.49-2.59 3.59-1.09 4.78-3.1 8.5-3.8 2.62-.08 2.05-1.71 3.85-1.45.76.14.96.06 1.34-.53 1.9-1.69 4.73-2.15 7.29-2.45 2.3-.53 4.42-.98 6.34-2.24.7-.43 4.56-.7 5.17-1.3 1.62-.92 3.92-.61 5.83-1.36 2.42-.99 10.8-.19 11.4-2.7-.68-1.65-3.62-.44-4.18-2.27-.64-.94-1.75-1.21-2.99-1.21-1.75 0-3.76.56-5 .56a1.03 1.03 0 0 0-.3-.04c-.97 0-3.22.85-3.82.54-.3-.13-1.56-.22-2.79-.22h-.26c-1.28 0-1.77-.1-1.77-.25 0-.38 3.17-1.06 4.2-1.02 1.9.06 1.22-.92 2.97-1.14.2-.04.41-.06.64-.06 1.38 0 3.27.6 4.34.22 1.07-.48 3.98.5 4.92-.17.65-.55 2.6-.19 3.11-.7.07-.1.27-.14.56-.14 1.13 0 1.52.2 2.08-.31 4.63-1.74 11.37-1.53 16.79-1.3 5.7.3 9.44.95 14.85 1.32 1.33.27 4.83.98 5.93 1.23.75.48 2.62.77 3.66.91 2.42.25 4.2 1.66 6.64 2.08 1.38.17 1.84 1.1 2.82 1.34 1.7.27 3.55 1.4 5.23 1.86 1.93.69 4.56.86 6.34 1.78.19.22.73.4 1.21.4 1.05-.05 2.7.89 3.66 1.1 4.42 1.63 9.78 5.17 13.7 7.6 2.3 1.03 4.4 3.26 6.39 4.97 2.13 1.82 4.85 3.96 6.52 6.22 6.41 7.73 11.9 16.58 13.9 26.54 1.72 7.27 1.93 14.19 1.96 22.13.13 2.6.17 3.87.17 4.87 0 1.5-.1 2.38-.2 6.24-.06 6.49.13 11.98-1.27 17.66-.8 4.68-1.2 10.2-3.17 14.44-.15 1.64-.82 3.64-1.3 5.13 0 .68-.87 1-.8 1.75-1.52 4.84-4.37 9.32-7.26 13.5-6.33 10.72-15.73 20.92-25.15 28.9-1.56 1.89-3.25 2.95-5.28 4.64-1.18 1.23-1.86.8-2.54 1.82-.14.37-.42.67-.62.67-.66.1-1.33 1.23-2.15 1.27-.45.09-.89.42-1.06.79-1.33 1.46-3.89 2.77-5.6 3.88-21.48 12.46-39.53 16.27-64.1 17.08h.01Zm-293.5-2.77c-1.3-.6-3.27-11.48-.86-5.39.13 1.34 2.08 4.18.85 5.38Zm307.98-2.2c.86-.78 1.11-.03 1.96-.51.17-.07.32-.1.46-.1.65 0 1.15.61 2.4.23 1.4-.35 5.95.09 6.9-.83 1.28-.87 2.2-.8 3.63-1.9 2.44-1.56 5.13-.99 7.63-2.34.7-.46 2.3-.98 3.05-1.33.75-.42 2.27.23 2.92-.47 1.98-1.38 4.97-2.46 7.17-3.42 1.55-.6 3-.58 4.44-1.4.4-.32 1.02-.59 1.35-.59.66.09 2.18-1.4 2.66-1.57 1.95-1.03 1.3-.13 2.85-.18.76-.22.88-1.27 1.8-1.22 1.09-.04 3.44-1.73 4.4-2.22 4.55-3.11 9.07-6.36 13.24-9.92 1.62-1.21 2.24-1.94 2.24-2.32 0-.25-.28-.36-.73-.36-.87 0-2.4.4-3.73.85-.78.13-6.74 5.03-7.3 5.34-.18.07-.64.46-1.03.86-.68.83-2.38 1.23-2.9 2.05-.6.86-1.77.8-2.67 1.62-3.5 2.3-7.27 4.3-11 6.16a69.95 69.95 0 0 1-15.93 6.18c-2.44.69-4.59 1.24-7.01 2.12-1.31.55-2.7.27-3.94.9-.83.67-7.04.5-8.17.7a2.4 2.4 0 0 1-.43.05c-1.36 0-3.47-.83-4.56-.41-.54.15-1.41.27-1.94.27-1.4.02-1.2.45-2.69.74-1.8.56-4.72-.12-6.04 1.2-.08.17-.11.32-.11.45 0 1.17 3.27.63 4.97.75h1.2c2.63 0 3.5.07 4.9.6v.02Zm-475.17-6.53c-.18 0-.25-.09-.25-.23 0-.47.77-1.54 1.06-2.05 1.14-1.4 1.66-5 3.42-5.51 0 1.03-.87 2.03-1.25 3.02-.74 1.44-.97 4.15-2.69 4.72-.11.03-.2.05-.28.05Zm262.13-2.4c1.36-.15 2.42-.16 3.5-.15l2.44.07c1.19.02 2.56 0 4.4-.1 5.33-.2 10.09-1 14.51-1.43 5.32-.48 9.69-2.25 14.58-3.76 2.7-1.37 6.65-2.02 9.2-3.46 2.35-1.97 5.78-3.28 8.63-4.18a.7.7 0 0 1 .28-.06c1.11.02 1.07 3.24 2.52 1.18.37-.47.72-.6 1.1-.59.36.01.74.13 1.15.14.57.01 1.22-.2 2-1.22 2.4-2.03 4.34-5.32 6.46-7.34.95-.61 1.06-1.63 1.77-2.5.52-.92 1.47-.57 2.03-1.04.44-1.02-3.23-2.07-3.59-.48-1.59 2.4-4.05.5-5.98 2.9-4.76 4.75-10.66 9.01-16.77 11.54-.88.53-5.02 1.12-6.02 1.7-1.9.87-2.06 1.5-4.6 1.54h-.33c-2.01 0-2.5.9-4 1.2-1.45.44-3.33 1.35-5 1.54-1.03.3-5.06.56-5.92 1.18-.41.63-4.3.13-4.92.51-2.82.24-6.47.45-10.14.45-4.15 0-8.36-.28-11.48-1.1a1.16 1.16 0 0 0-.66-.21c-.83-.02-1.69.75-2.8.56-.75 0-1.62-.15-1.95-.31-.25-.1-.5-.13-.77-.14-1.07-.02-2.29.51-3.62.26-1.63.18-7.17-1.31-10.76-1.38h-.25c-1.52 0-2.65.28-2.88 1.1 0 .42.28.62 1.25.88 1.47.37 2.35 1 3.66 1.46.33.06.6.1.83.1 1.36.02 1.47-.78 4.36-.23a231.4 231.4 0 0 0 17.77 1.37Zm-99.44-1.48c-.59 0-1.12-2.65-1.37-3.23-.92-3.14-2.8-5.94-3.53-8.93.73-.2.66 1.02 1.29 1.33.56.47 2.07 2.86 1.76 3.66-.1.52.06.99.51 1.6.83 1 .47 1.4 1.1 2.4.49 1 .99 1.96.51 2.97-.09.13-.18.18-.26.18v.02Zm292.71-2.03c.47-.23.9-.3 1.34-.3.82 0 1.67.25 2.83.16 1.45-.09 3.93-.1 5.1-.45.5.07 1.02.1 1.53.1 1.4 0 2.81-.23 4.35-.44.28-.06.52-.08.73-.08 1.5 0 1.33 1.24 3.6.2 4.87-1.41 10.39-1.9 15.31-2.93 1.58-.41 1.93-.63 3.45-1.2 1.5-.58 2.76-.21 4.2-1.07 2.92-1.28 6.37-2.53 9.25-3.8a32.19 32.19 0 0 0 5.8-2.5c1.62-.55 3.82-.43 5.2-1.95.5-.45 1.08-.81 1.29-.81.5 0 2.45-1.8 2.9-1.9.77-.36 2.7-2.5 3.71-2.7 4.22-2.38 8.03-5.65 12.2-8.14.94-.97 1.34-.34 2.16-.82 1.1-.75 1.5-.98 2.9-2.33 1.49-1.46 1.49-1.46.93-2.02-.46-.46-.65-.5-1.03-.24-1.2.74-2.08 1.18-3.62 2.37a166.97 166.97 0 0 1-16.96 12.28c-.96.55-1.69.96-2.43 1.5-.59.44-2.54.9-3.1 1.44-1.8 1.5-4.62 2.18-6.62 3.32-.87.17-2.44.97-3.1 1.58-2.66 1.27-6.64 2.18-9.44 3.2-1.86.69-3.63 1.21-5.67 1.75-.75.1-1.53.35-1.76.54-1.18.67-2.05.28-4.04.68-2.82.55-4.58.81-7.05 1.34-.65.32-2.66-.18-3.34.22-3.05.6-9.56 1.36-12.52 1.12-.35.06-.83.09-1.39.09-2.14 0-5.4-.4-6.97-.63-2.26-.32-2.26-.32-2.96.38-.35.28-.49.51-.49.71 0 .94 3.19 1.1 3.7 1.32l.01.01ZM228.16 246c-.03 0-.04-.03-.05-.06.91-2 2.32-4.37 3.13-6.34.09.08.12.3.12.6 0 .94-.36 2.59-.51 2.91.05.16-2.28 3-2.7 2.89Zm515.65-8.2h.32c.38-.1.94-.41 1.25-.7.91-.75 2.14-.35 3.2-1.19a3.85 3.85 0 0 1 1.59-.67c.96-.06 2.58-1.44 3.56-1.7a66.44 66.44 0 0 0 11.94-8.96c3.6-4.22 4.54-.76 7.13-3.77.31-.72 1.6-1.75 2.38-1.76 1 0 1.36.98 2.49.15 1.66-.93 3.38-2.7 4.2-4.37 2.72-2.28 2.42.3 5.04-4.16.95-1.42 2.13-2.58 2.4-3.97-.09-1.06-.75-1.56-1.77-.44-1.94 1.53-5.85 1.77-8.2 2.63-1.34.33-2.08.59-2.53 1.64-.4.88-1.96 1.72-2.44 2.66-1.2 1.56-2.42 1.6-4.17 3.5-2.1 2.02-2.06 2.02-3.78 3.75-2.7 2.26-5.64 4.73-8.64 6.7-2.23 1.82-4.26 3.46-6.69 4.65-.84.35-.98 1.1-1.65 1.28-.5.01-1.24 1.15-1.8 1.08-.92.17-2.12 1.5-3.24 1.7-1.62.24-2.1 1.93-.59 1.96Zm-60.04-1c.33 0 .55-.05.74-.17a7.5 7.5 0 0 1 2.53-.31c2.83-.16 2.04.99 4.89.06 4.84-1.36 10.8-1.3 15.6-2.6 5.8-1.23 11.5-2.37 16.91-4.83 3.95-1.4 7.97-2.47 11.62-4.54 3.63-2.05 7.32-3.78 10.65-6.3 4.6-2.67 9.5-6.2 13.6-9.46 2.15-1.01 5.67-5.16 7.93-6.02.92-.51 2.52-3.24 3.61-3.88 2-1.8 4.28-5.05 6.29-6.8 3.97-5.17 8.45-9.55 11.76-15.49 3.92-5.68 5.75-10.02 8.17-16.2.7-2.26 2.02-5.26 2.47-7.48v-.28c0-.81.16-2.56.16-4.07 0-1.2-.1-2.27-.47-2.59-.3-.6-.44-1.24-.33-1.57l.03-.3c0-.71-.7-1.18-.89-2-.83-1.72-1.91-5.07-3.06-6.58-.45-.44-1.94-2.5-1.9-3.18-.04-.73-1.42-1.73-1.64-2.42-.13-.34-.42-.69-.65-.77-.53-.17-1.12-1.73-1.64-1.9-.61-.2-1.5.95-2.06 1.08-.81.3-.56 2.54.53 2.15.3-.11.37.03.3.63.03 1.4-1.8.18-1.93 1.58-.31 1.75-1.17 2.66-2.83 1.48-1.93-1.59-2.54-5.06-4.2-7.05a50.98 50.98 0 0 0-6.27-6.51c-8.22-7.18-18.26-12.66-28.05-17.39-1.84-.7-1.88-.83-4.36-1.33-4.02-.78-7.03-3.03-10.79-3.97a136.42 136.42 0 0 0-26.85-2.7c-13.1 0-26.23 1.95-38.6 6.13-4.85 1.7-9.84 2.36-14.17 4.92-2.11 1.01-6.04 2.54-8.16 3.55-.62.33-1.4.6-1.73.6-.88.03-1.62.97-2.38 1.4-4.42 1.42-6.88 3.29-11.35 5.7-4.3 2.07-6.7 5-10.43 7.05-4.31 2.31-7.95 7.8-11.8 10.78-2.96 2.2-5.08 5.84-7.4 8.56a66.66 66.66 0 0 0-11.19 20.64c-.83 2.95-2.08 6.33-1.53 9.44.34 1.38-.5 1.6.09 2.88.4.89.63 3.28 1.12 4.03.2.23.37.75.38 1.15-.15 1.3 1.42 2.66 1.34 3.93.95 2.88 3.53 7.66 5.55 10.03.42.43.78 1.02.8 1.3.08.72 1.58 2.53 1.94 3.12 7.19 10.32 17.97 18.54 28.99 24.44 11.19 5.22 23.2 8.76 35.5 10.6 1.3.63 8.87.35 9.96.98.25.22.9.22 2.39 0 .53-.11.99-.16 1.4-.16 1.49 0 2.37.6 3.91.56v-.03c1.53-.22 2.38-.44 4.14-.06.6.11 1.04.17 1.36.17ZM371.7 218.51c1.4.02.19-1.93-.4-2.25-1.53.25-1.43 2.1.26 2.24l.14.01Zm-75.8-15.89.56-.01c4.6-.23 10.32-.05 14.95-.66 1.78.29 2.9.37 4.08.37 1.93 0 4.02-.23 9.5-.16 1.3-.04 2.46-.05 3.5-.05 1.72 0 3.1.03 4.15.03 2.14 0 2.95-.13 2.6-.98-1.46-.23-3.97-.3-6.8-.3-5.88 0-13.18.3-15.65.19-3.92-.11-8.41.04-12.71.04-2.73 0-5.37-.06-7.73-.28a8.13 8.13 0 0 0-1.57-.16c-1.73 0-2.56.7-4.98.66-1.82.04-2.29.13-2.29.45 1.25 1.16 3.8.49 6.75.66l1.44-.03c1.95 0 2.94.22 4.2.23Zm68.61-2.24c.94 0 .77-.57.2-1.1-.5-.49-5.83-1.1-7-.92.63 2.1 4.81 1.7 6.6 2l.2.02Zm-33.07-2.45c1.04 0 1.78-.12 2.28-.77.08-.51-1.9-.57-2.43-.65-8.94.25-9.72.33-9.72.67 1.18 1.14 3.54.48 6.48.74l1.26-.03c.81 0 1.52.04 2.13.04Zm-58.37-3.62c16.37-.32 42 0 58.42-.87.06-.26.09-.5.09-.71 0-.75-.47-1.16-2.2-1.13-1.26-.04-5.46-.24-6.33-.6.12-.44 6.62-.4 6.75-.66 1.2-.17.49-.65.08-1.68-2.45-6.62-5.66-13.09-8.4-19.56-1.64-4.08-3.7-7.97-5.2-12.1-.53-2.25-2.35-5.12-3.18-7.47-1-2.9-1.94-5.47-3-8.08-1.2-3.96-3.18-7.45-4.45-11.34-.84-2.12-1.9-6.33-3.13-8.28-.57-.83-.35-1.92-.79-2.52-.14-.09-.27-.36-.27-.6-.18-.92-.86-1.32-1.18-2.56-.51-1.88-1.63-3.02-1.78-4.89 0-.4-.21-.8-.5-.96-.87-.67-.67-1.88-1.35-2.99-.6-1-1.09-3.9-1.93-1.76-.06.53-1.16 1.25-1.07 1.92 0 .34-.12.7-.27.78-.43.49-.2 1.52-.68 2.2-.75 2-1.7 3.48-2.36 5.55-.42 1.25-1.96 2.85-2.46 4.03-.49.91-.81 4.86-1.35 5.7-.45.59-1.44 3.97-1.92 4.51-.5.67-1.2 3.4-1.9 4.05-.33.37-.7.92-.78 1.21-.82 2.34-1.71 5.28-2.6 7.66-.2.66-.63 1.36-.96 1.58-.92.7-.83 2.38-1.63 3.36-.81 1.35-1.8 2.51-1.82 4 .16 2.08-2.27 4.67-2.68 6.64-.12 1.08-.6 1.2-.69 2.01.1.31-.86 1.52-.81.66-.06-.66 1.21-1.95.6-2.57-.28-.46-.22-.7.41-1.67 1.24-2.23 1.42-4.03 2.36-6.42 3.27-6.1 6.18-12.76 8.73-19.19.38-.9.14-2.18.6-2.86a.87.87 0 0 0 .22-.66c.1-1.67.7-3.99 1.45-5.63.27-.75 1.6-3.5 1.43-4.25-1.16-.12-1.4 1.1-1.78 2.23-3.64 9-7.13 18.27-11.33 26.96-3.38 9.67-8.65 18.97-12.86 28.41-1.85 3.35-2.12 4.67-4.01 8.3-.9 2.5-3.6 4.48-.26 4.66 5.58 1.26 12.38.33 18 1.91.97.3 21.5-.38 22.9.07.22.35 7.75-.6 7.27.22.18.76 3.47.28 3.91.67 1.33.33 1.87.63-.14.93-5.05.2-11.72.24-16.88.4-3.43-.02-5.27-.48-7.54-.48-.88 0-1.83.06-2.96.26-.28.2-8.92-.25-7.97.8 0 .34.08.7.18.8H273l.06.01Zm38.9-1.88c-.47-.01-.8-.13-.68-.62-.08-.19 1.39-.3 2.74-.3 1.27 0 2.43.1 2.2.34-.55.59-2.45.29-3.34.52-.3.03-.63.06-.92.06Zm42.65-17.3c-.56.08-1.52-2.76-1.54-3 0-.42.08-.59.2-.59.4 0 1.2 1.73 1.1 2.08-.12.58.84.99.35 1.44v.01a.2.2 0 0 1-.11.06Zm134.17-.59c-3.21 0-6.4-.03-9.55-.12-2.55-.15-11.1-.8-13.75-1.14-3.82-.2-8.04-1.84-11.57-1.3-.3.12-.58.17-.84.17-.86-.02-1.52-.65-2.18-1.22-.35-.4-.42-1.05-.35-4.66-.04-6.22 1.02-8.92.76-14.05.08-.65.39-12.33 1.33-11.92.87-.48 1.6-.64 2.32-.63 1.61.03 3.12.97 5.76 1.28 2 .4 4.23.87 4.97 1.04 7.26 1.13 14.97 1.53 22.68 1.69 6.96.13 13.93.05 20.56.1 8.1.08 15.45-.96 23.66-1.2 1.23-.15 3.06-.2 5.15-.2 2.46 0 5.27.06 7.88.06 3.24 0 6.17-.08 7.72-.46 2.55-.95 5.42-.84 9.02-1.02 1.16 0 2.03-.03 2.68-.03 2.16 0 2 .27 2.18 2.36-.06.9.76 1.18.46 2.11-.86 1.86-2.35 1.22-1.92 4.14 0 .44-.11.66-.36.86-2.58 1.13-8.1 1.32-10.98 1.44-.16.03-.3.03-.45.03-1.5-.02-2.6-1.44-3.82-1.34-1.31.46-2.6 1.63-4.32 1.94-1.55.53-3.04.12-4.07.82-.13.11-.19.21-.19.3 0 .47 1.59.6 3.61.65 1.87.03 4.12-.02 5.8.01 1.14.02 2.02.09 2.36.24.09.07.31.1.62.1 1.6.03 5.52-.57 3.66.69-.36.13-1.09.36-1.62.52-2.95.54-7.99.66-10.92 1.2-.48.6.59 1.76 1.29 1.7.93-.02 1.3-.57 2.34-.65 1.2-.23 1.2.5 2.3.27 1.4-.33 1.73-.53 3.64-.51 1.88.15 3.75.59 5.29 1.12.24.24.46.24.96-.01.53-.26 1.38-.44 1.53.14-1.65 1.1-11.89.57-14 .77-1.56.01-1.75.08-2.71 1.01s-1 1.03-.57 1.37a6.8 6.8 0 0 0 2.88.6c1.1.02 2.2-.15 2.85-.58.3-.09.86-.12 1.57-.12 2.49 0 6.88.43 8.13.34h.37c1.56 0 2.34.27 2.3 1.31-.76.36-7.35.94-8.78.83-1.03-.03-3.03-.43-3.2.77.2.65.96.85 2.03.85 2.03 0 5.17-.75 7.75-.75 2.17 0 3.94.53 4.37 2.44-1.47 3.19-8.17 2.85-11.48 2.92-6.73 1.13-13.05 1.15-20.15 1.6a541.62 541.62 0 0 1-45.04 2.08l.04.04Zm-223.56-.73a1 1 0 0 1-.21-.67c0-1.18 1.2-3.1 1.75-3.78.43-.21.7-3.1 1.37-2.6-.4 2.13-1.88 5.08-2.92 7.05Z"/></svg>