<svg viewBox="0 0 1000 660" xmlns="http://www.w3.org/2000/svg"><path d="M0 660h1000V0H0Z" fill="#eae3d8"/><path d="M305.565 632.784a46.142 46.142 0 0 1-1.746-.03l-.02.025c-8.596-.854-16.58-4.967-22.01-11.221-1.791-1.985-4.903-4.789-5.372-7.578-.012-.633-.705-1.209-.815-1.776a1.722 1.722 0 0 0-.345-.706c-.539-1.715-1.008-3.822-1.278-5.685 0-.936.048-1.926.152-2.933.231-2.187.732-4.495 1.571-6.564-2.213-.365-1.547-3.485-2.986-4.995-.382-.473-.452-.956-.408-1.435.05-.553.251-1.098.297-1.605.046-.537-.079-1.034-.74-1.451-.803.347-1.067.742-1.115 1.199-.064.629.278 1.372.2 2.252-.042.479-.212.999-.647 1.564-.289-.268-.189-1.972-.534-2.325-.35-.833.011-5.777-1.884-2.938-.257.443-.522 1.211-.59 1.706-.217.661.111 1.169-.436 1.205-.571-.228-.414-2.465-1.424-2.116-.533.247-1.267 3.409-1.902 1.851-.165-.598-.543-1.674-.695-2.239-.217-.064-.999.42-.965.765-.11.603-.743.837-1.054 1.464-.252.417-.385.53-.842.536-1.112.014-1.154-.09-1.446.611-.543 1.102-1.034 1.529-1.462 1.535-.916.014-1.543-1.902-1.774-3.142-.288-.672.173-3.027-.045-3.645-.24-1.051 1.178-3.436.27-4.345-.114-.11-.197-.179-.331-.177-.275.002-.761.298-2.11 1.158-10.807 7.159-22.863 9.417-35.06 9.417-8.621 0-14.132-1.053-20.554-3.784-.643-.385-.874-.193-1.625-.582-.754-.316-.959-.832-1.76-.846-2.871-.742-5.498-3.954-7.724-5.731-7.023-6.071-8.97-15.254-8.353-24.741.014-3.512.031-8.485.54-13.314.411-3.939 1.151-7.758 2.475-10.56.475-1.965 1.21-3.847 1.907-5.617.597-1.39 1.694-2.738 2.289-4.189.2-.983.899-.94 1.51-1.441.597-.447 1.199-.19 1.768-.815.299-.179.4-.518.434-.911.074-.817-.136-1.875.561-2.211.956-.685-.013-1.237 1.087-1.76 1.353-1.266 3.472-3.574 5.127-4.824 8.65-7.284 18.702-12.986 28.83-17.544 7.329-3.316 15.485-5.599 23.199-5.599 6.127 0 12.005 1.436 17.029 4.94 4.119 2.581 8.281 6.53 9.554 11.441.142.729.547.977.774 1.887.21 1.164.956 1.084.495 2.316-.217.701-.978 2.525-1.279 3.094-.751.93-3.333 1.58-2.191 3.161.794 1.513 1.565 2.482 1.703 4.241-.012.894.753 2.853.234 3.596-.928 1.251.25.632.42 1.385-.785.315-1.15-.228-2.186.886-2.865 3.62-2.812-6.723-16.749-11.975-3.402-1.394-7.176-1.934-11.035-1.934-3.941 0-7.948.56-11.749 1.351-1.863.303-3.327 1.483-5.018 1.723-.843.05-2.124.782-3.122.788a2.062 2.062 0 0 0-.193-.007c-1.19.016-2.497 1.272-3.312.933a.772.772 0 0 0-.291-.049c-.863.011-2.37 1.109-3.324 1.496-1.248.655-2.274 1.037-3.19 1.63-.663.419-.994-.17-1.696.631-.775.816-1.998.661-2.888 1.244-1.23.772-2.71 1.498-3.955 2.189-.703.246-2.802 2.249-3.505 2.341-.197.004-1.007.622-1.801 1.376-.793.751-1.611 1.415-1.814 1.471-.797.421-1.199 1.352-2.143 2.077-.537.473-1.087.907-1.219.965-.371.191-1.01 1.037-1.517 1.065-1.104.545-3.608 3.102-4.684 3.653-.954 1.295-1.958 2.298-2.901 3.746-.762 1.185-1.073 2.256-1.864 3.306-1.537 2.387-2.749 5.893-3.016 8.444-.226 2.154 1.367 4.638 2.132 6.462 3.002 4.618 7.489 8.822 12.592 11.016 6.089 2.953 13.185 4.123 20.416 4.123 6.025 0 12.132-.809 17.834-2.078.762-.42 2.284-.723 3.12-.924.793-.138 2.369-1.077 3.115-1.223.497-.032.835-.504 1.221-.366.106.07.51-.097.893-.368.843-.625 1.363-.562 2.188-1.119 4.649-2.21 7.337-4.614 11.677-8.435 2.979-2.739 2.982-2.743 3.206-3.839 1.062-3.699 2.012-17.388 2.765-21.201.103-.145.732-.321 1.399-.395 1.505-.129 1.458-.577 2.861-.777.198-.026.364-.036.511-.036 1.087-.016.843.523 2.629.358 3.983-.585 8.123-.776 12.165-.624.218-.028.425-.039.617-.039 2.497 0 2.807 2.158 2.586 4.632-.01.092-.015.188-.025.282-.204 1.953-.701 4.059-.701 5.44-1.012 9.082-3.517 17.611-4.568 26.675-.662 3.815-1.401 8.595-1.892 13.259-.382 3.639-.61 7.202-.536 10.181-.04.379-.034.762-.009 1.144a7.285 7.285 0 0 1 1.213-1.648c.158-.257.288-.358.388-.352.483.036.358 2.582-.023 3.045-.975 2.156-1.92 5.157-2.445 8.044a28.932 28.932 0 0 0-.302 2.123c-.156 1.504-.163 2.899.048 4.039-.124.861.962.318 1.233 1.33.603 1.054 1.379 3.698 3.04 2.5.394-.262.818-1.289 1.248-1.403 2.461-1.28 6.448-1.678 6.941-4.391a1.97 1.97 0 0 0 .03-.225c.06-.571-.023-1.241-.298-2.032-.747-1.543.065-3.451-.304-4.847-.03-.571-.006-1.209.064-1.88.246-2.338 1.025-5.046 1.909-6.757.581-1.451 1.332-2.762 2.318-3.708.307-.282.589-.679.625-.883.292-.733 1.623-1.276 2.374-1.687 1.321-.567.715-1.129.232-1.986-.547-.638-.864-1.683-1.644-1.885-.725-.188-.314-1.168-.972-1.705-3.372-5.652-4.986-12.562-4.901-19.41-.161-4.057.557-8.64.971-12.789.01-.056.017-.117.023-.173.01-.07.017-.139.025-.211.066-.651.045-1.274-.064-1.648-.088-.371-.08-.908-.015-1.533.178-1.677.762-3.99.946-5.344.137-1.028.143-2.024.246-3.018.2-1.931.804-3.846 1.36-5.973.683-2.815 1.068-2.281 1.861-4.162.884-2.3 2.525-4.869 3.783-6.961 2.965-4.723 6.036-8.936 9.919-13.146 10.894-11.513 25.222-18.006 40.051-20.234 1.046-.291 3.701-.473 4.74-.441 1.245.099 1.099-.623 2.375-.02.802.321.953.332 1.285.095.447-.426 2.444.139 2.981-.095.84-.255.918.653 1.858.086a27.462 27.462 0 0 1 2.708-.116c1.132 0 2.355.048 3.535.137 1.114.084 2.186.207 3.097.37 3.09.779 4.585.631 7.572 1.024 4.609.843 8.257 3.595 11.97 5.96 1.649 1.516 2.77 2.369 4.355 4.186 1.4 1.631 1.448 2.287 1.886 4.151.447 1.723.047 3.573-.15 5.428-.07.665-.114 1.327-.084 1.985.015.206.01.385-.006.551-.078.734-.384 1.147-.348 1.764.07.165.074.577.016.915-.22 1.08-.854 1.597-.717 2.879a2.66 2.66 0 0 1-.005.795c-.108.595-.448.869-.542 1.562-.057.427-.05.805-.084 1.156-.133 1.276-.739 2.173-1.081 3.698a2.054 2.054 0 0 0-.091.348c-.184 1.007.324 1.894-.311 2.545-.521.18-.837 3.636-1.321 3.882-.199.201-.413.645-.477.983-.102.571-.884 1.574-1.335.949a2.42 2.42 0 0 0-.636-.488c-.18-.116-.216-.348-.188-.647.074-.685.518-1.717.438-2.493.348-3.552.498-5.948-2.123-8.369-8.021-9.589-17.923-9.205-29.468-10.9-1.266.258-2.678.175-4.337.175-4.554 0-5.431.338-7.928.268-2.561.657-5.606.601-8.112 1.755-3.913.815-8.035 1.982-11.697 3.791-3.274 1.227-6.282 3.378-9.427 4.905-1.607 1.418-4.64 3.321-6.185 4.833-.359.605-1.645 1.809-2.266 2.266-.829.551-1.814 2.38-2.749 2.791-1.699.761-3.619 4.743-4.927 5.923-1.677 1.992-3.7 5.572-4.957 7.792-.506 1.623-1.908 2.931-2.072 4.786a3.487 3.487 0 0 0-.064.295c-.01.061-.017.122-.025.182-.196 1.459.415 2.758.479 4.03.597 3.931 2.556 7.363 4.852 10.621 1.447 1.956 3.47 3.216 5.129 4.605.2.104.552.42.779.694.47.646 1.797.755 2.318 1.308 7.167 3.771 15.663 6.303 24.402 6.303 2.908 0 5.828-.281 8.721-.892 11.826-1.952 24.089-7.477 32.574-16.804.176.05.327-.392.445-1.056.034-.196.07-.411.098-.638.03-.22.055-.453.079-.69.16-1.545.22-3.303.17-3.492-.158-1.078-.5-2.891.189-3.957 1.513-1.599 3.527-3.411 4.983-5.261.652-.917.89-1.101 1.735-1.337 1.174-.303 1.49-.727 2.57-.695.593.016 1.22.01 1.326-.118.321-.292 1.322.289 1.683-.113 1.468-.589 3.789-.654 5.308-.838.857-.164 1.513-.79 2.429-.836.411-.032.913-.132 1.119-.22.74-.222 2.014.024 2.879-.34.78-.275 2.072-.634 3.12-.602.962.028 1.718.383 1.698 1.435-.1.547-.256.741-.835 1.019-.974.517-4.055 2.747-4.169 3.869-.266.84-.442 1.692-.556 2.552-.024.198-.048.395-.068.595-.207 1.987-.145 4.004-.229 5.978-.009 3.262-.47 6.866-.686 10.092-.261 2.821-.504 5.717-.811 8.637-1.116 10.619-3.069 21.578-9.785 30.544-3.459 5.426-9.382 10.021-14.894 13.223-1.874 1.242-4.986 2.933-6.959 3.887-.275.389-1.239.365-1.54.819-.601.596-1.035.206-1.904.763-3.184 1.305-6.242 2.641-9.418 3.89-1.924.753-3.349.899-5.343 1.652-2.47.854-4.961 1.867-7.417 2.652-1.609.72-3.657.772-5.238 1.369-8.453 2.717-17.4 5.127-26.144 5.148Zm24.36-7.89c4.766.055 8.847-2.329 13.127-4.727 7.311-4.002 14.59-9.694 19.072-16.795 2.877-3.945 4.888-9.018 6.305-13.625.22-.553.563-2.205.919-4.168.68-3.737 1.406-8.603 1.39-9.168-.1-.042-.607.319-1.126.808-1.311 1.409-4.879 4.686-6.628 5.504-.779.36-1.714.383-2.054 1.13-.079.243-.317.512-.532.6-.589.286-.741 1.256-1.242 1.703-.935.801-2.05.959-3.249 1.957-1.076.847-2.138 1.263-3.024 1.591-.407.207-2.884 1.555-3.383 1.583-3.212 1.334-7.059 1.951-10.371 2.64-2.238.894-5.204 1.21-8.258 1.21-1.372 0-2.759-.065-4.109-.168a72.28 72.28 0 0 1-6.893-.883c-2.902-1.008-6.722-1.258-9.259-2.997-.363-.2-.606-.267-.806-.281-.261-.02-.459.044-.772.022-.325-.026-.777-.146-1.548-.56-3.112-1.227-5.318-3.403-8.065-4.83-.461-.342-1.805 1.845-1.467 2.128.1.25.067.468-.116.697-.164.16-.649 2.336-1.01 4.314-.294 1.635-.508 3.134-.388 3.249.192 15.698 16.705 28.743 32.024 28.964l-.04.004a14.02 14.02 0 0 0 1.503.098Zm254.218-26.162a6.28 6.28 0 0 1-.575-.039l-.027.009c-.481-.056-.921-.174-1.292-.39a.55.55 0 0 0-.411-.187c-.515 0-1.199.645-2.654.475a4.643 4.643 0 0 1-.499-.084c-1.563-.271-2.88-.013-3.615-.924-.216-.439-.466-.334-2.259-.543-.553-.064-1.062-.169-1.276-.281-.164-.101-.401-.139-.686-.139-.986 0-2.513.457-3.367.357-.056-.006-.111-.011-.163-.025-5.366-1.167-11.137-2.45-16.084-4.376-2.06-.216-4.321-1.267-6.203-1.952-.895-.196-3.322-1.113-3.939-1.594-.731-.571-2.534-.767-3.528-1.362-1.405-.603-1.292-1.085-2.659-1.392-9.577-3.472-19.897-10.574-22.498-20.881-.707-2.869-.724-5.257-.399-8.364.152-1.453.278-2.449.352-3.152.1-.976.105-1.4-.043-1.716-.141-.102-.174-.301-.15-.547.06-.581.456-1.434.576-1.971.036-.178.047-.321.005-.409-.018-.056-.016-.207.004-.42.031-.286.095-.685.175-1.112-.633 2.944-1.356 5.894-2.22 8.591-.249 1.2-.789 2.096-1.322 3.092-.428.774-1.148 2.906-1.727 3.603-.612.674-.042.816-.677 1.419-.665.63-1.643 2.826-2.409 3.447-1.018 1.809-3.143 4.456-4.82 6.069-1.845 1.923-1.746 2.343-3.996 4.325-1.28 1.391-2.259 1.757-3.244 1.757-.626 0-1.255-.148-1.962-.272-.271-.178-.521-.122-1.276.295-1.647.715-2.904 1.973-4.523 2.33-.387 0-.595.122-.699.408-.327.645-1.494.955-2.105 1.394-3.771 2.028-8.512 3.543-12.508 4.523-1.062.194-1.813 1.6.118 1.171 1.936-.456 3.962-.87 5.835-1.473.517-.188 4.084-2.073 5.082-2.073.11 0 .189.023.227.075.911.315 1.254-.259 2.163-.222.367 0 .981-.184 1.37-.405.837-.426 1.42-1.351 2.304-1.562 1.377-.561 2.398-.858 3.71-1.866.815-.613 1.505-.92 1.809-.92.113 0 .174.044.164.13-.02.216-.471.701-1.567 1.469-1.42.968-1.824 1.605-2.854 1.846-1.785 1.06-4.91 3.43-6.884 4.209-.356.124-1.287.645-1.818.645a.57.57 0 0 1-.195-.03.635.635 0 0 0-.645.159c-.351.377-1.323.485-1.708.813-1.158.461-2.109.975-3.442 1.308-1.404.347-1.357.732-2.851.876-1.691.283-3.56 1.176-5.197 1.41-4.304.858-9.717.791-14.045 1.174l.016-.009c-6.232.014-13.205-.708-18.952-2.563-1.795-.531-4.294-1.165-5.805-2.132-.511-.447-1.095-.654-2.702-.961-2.563-.33-3.415-.945-4.92-2.336-2.589-1.092-4.755-2.561-6.725-4.638-1.052-1.177-1.22-.877-2.382-1.989-.643-.597-1.101-.849-1.53-.849-.493 0-.666-.132-.89-.675-4.474-6.854-8.487-14.788-7.551-23.714.084-.8.37-2.795.547-3.17.102-.966-.032-1.471.086-2.631.048-.437.131-.97.277-1.656.761-4.023.872-9.969 2.289-13.62a23.773 23.773 0 0 1 1.811-4.266c.421-.976.293-1.262 1.09-2.364 1.208-1.939.095-1.411 2.001-3.23a47.185 47.185 0 0 1 2.747-3.747c.358-.853 1.657-1.922 2.15-2.613.12-.292.341-.4.826-.4.421-.006 2.658-.534 2.6-1.169.323-.865 2.387-2.641 3.194-3.383.936-.735 1.202-1.32 2.037-1.448.192 0 .413-.174.493-.388.318-.676 1.309-.255 2.02-.579 1.553-.58 2.103-1.864 3.794-1.864.143 0 .292.011.452.027 1.673.152 3.086-1.171 4.303-2.175 1.041-1.108 3.065-2.021 4.077-2.888 4.342-3.631 10.962-6.72 16.059-8.916 3.116-.814 5.677-2.197 8.905-2.664 3.111-.506 6.614-1.063 9.826-1.055 1.749-.032 1.91-.066 1.948-.427.211-.335-.597-.382-1.571-.382-.389 0-.803.007-1.187.007-.912 0-1.671-.042-1.578-.324.46-.475-6.625-.443-6.828-.527-1.398-.747 5.08-.88 6.006-1.108a53.674 53.674 0 0 1 4.988-.234c4.761 0 9.6.65 13.527 2.191.571.164 1.402.266 2.055.266.573 0 1.011-.077 1.031-.261.02-.207-.473-.545-1.878-1.054-.98-.479-3.434-.689-4.207-1.208-1.419-.557-3.513-.358-5.713-.642-3.239-.197-5.715-.723-8.57-.366-.608.475-.941-.772-1.388-.772-.07 0-.142.033-.22.107-.679.443-1.702.345-2.579.515-1.128.098-2.371.585-3.315.899-.735-.252-1.069-.942-2.091-.417-1.617.733-3.544 1.618-5.297 1.702-1.006.351-1.523-.797-2.302-.797-.17 0-.352.057-.559.193-.801.766-1.742.379-2.699.99-1.098.624-1.529-.196-2.627.752-1.154.908-1.262.097-2.42 1.01-.525.383-.953.562-1.154.484-.435-.88 3.106-1.932 3.821-2.627 1.485-.958 3.688-1.856 5.275-2.291.346 0 .653-.145.806-.381.52-.678 1.555-.999 2.481-1.117 1.623-.179 3.044-1.204 4.661-1.381 1.545-.188 2.591-.666 4.228-.842 2.454-.082 3.696-.413 6.357-.461 2.082.046 4.118-.032 6.121-.032 1.91 0 3.789.071 5.658.395.88.128 4.309 1.072 4.952 1.537.593.505 2.32.209 2.967.838.591.489 1.195.325 1.792.325.274 0 .549.035.824.181 3.184 1.058 6.36 2.913 9.077 4.855 1.878.805 3.441 1.472 4.607 3.101 1.176 1.28 1.245.924 2.972 2.886 2.629 2.899 3.541 4.528 5.172 7.635.345.543.291 1.811.688 2.346.17.246.42.763.554 1.146.785 1.212.924 3.304 1.026 4.702.779 2.547.899 6.771.556 10.029-.288 2.763-.581 6.344-.942 8.6-.858 2.332-.903 6.478-1.782 8.814a296.185 296.185 0 0 1-1.281 6.573c.186-.803.403-1.525.561-1.648.21-.267.25-.457.136-.661-.114-.211-.067-.416.175-.758.537-.439.385-3.428 1.16-3.572.128-.13.25-.186.37-.186.579 0 1.026 1.325.988 1.832-.014.407.037.835.111.949.203.483-.176 1.12.427 1.58.277.279.481.754.479 1.124-.084.625.883 1.943 1.276 2.207.489.321.665.809.595 1.496-.13 1.233-.313 1.267.49 2.182 1.14 1.795 2.987 3.018 4.559 4.398.702.822 1.139.568 1.506 1.267.064.232.266.437.44.459 1.287.857 2.842 1.721 4.026 2.76.453.62 2.125.765 2.704 1.254.521.396 1.546.996 2.157 1.096.821.485 1.821 1.045 2.847 1.333 1.931.687 4.982 2.867 6.85 3.61 1.909.393 4.207.346 5.773 1.542.842.35 4.378.93 5.286 1.367 1.613.975 3.089 1.096 4.856 1.775 6.472 1.996 14.872 2.907 21.881 3.66 2.21.174 4.448.268 6.706.268 14.729 0 30.201-3.911 42.165-14.079.607-.784 1.074-1.134 1.16-1.53.078-.353-.142-.742-.831-1.499-1.184-1.366-3.972-3.447-5.667-4.098-5.047-2.621-11.391-3.921-17.698-4.657-3.422-.4-6.836-.635-10.024-.819-4.111.032-7.928-.309-11.809-.309-1.881 0-3.779.082-5.735.325-5.57.757-12.023.953-17.527 1.289-2.479.441-7.202.341-9.688.207-.371.09-.936.129-1.621.129-2.948 0-8.133-.718-9.888-1.046-3.571-.854-6.414-2.141-9.484-3.69-.817-.725-1.325-1.121-2.291-1.626-1.841-.999-4.344-4.562-4.997-6.532-.316-2.127-.237-4.451.009-6.811.337-3.22.99-6.509 1.385-9.477.403-2.608.669-5.355 1.256-8.026.362-1.649.846-3.265 1.562-4.802 4.526-8.166 11.505-15.017 19.693-19.968 7.478-4.855 15.721-6.099 23.756-7.876 4.542-.695 8.555-1.313 12.851-1.313 9.254 0 15.8 2.189 22.858 4.455 2.819 1.339 5.659 3.11 8.169 5.002 2.94 1.843 2.851 2.763 3.197 6.119-.146.607.552 2.033.402 2.722a.487.487 0 0 1-.125.25c-.164.182-.283.497-.263.699-.02.503.453 1.237-.05 1.691-.249.275-.325.682-.359 1.862.016.902-.152 1.376-.254 1.851-.064.29-.102.585-.064.976.074.266.073.695-.011.956-.223.505.124 1.056-.291 1.453-.194.166-.258.401-.199.735.052.361.03 1.299-.13 2.032-.088.399-.215.735-.397.884-.343.346-.158.703-.341 1.532-.06.279-.248.48-.715.897-.633.421-.721.99-.836 1.505-.106.497-.239.942-.91 1.142-1.094-.034-1.747-1.041-2.509-2.059-1.222-1.755-3.273-3.243-4.84-4.445-6.045-3.807-13.31-6.18-20.847-7.059a57.455 57.455 0 0 0-6.651-.388 56.83 56.83 0 0 0-8.089.576c-8.315 1.277-17.534 3.264-25.25 7.327-3.803 2.288-9.404 6.571-12.507 9.767-.557.467-.809.895-.847 1.288-.151 1.436 2.525 2.417 3.601 3.178 3.927 1.846 8.19 2.871 12.614 3.385 2.793.329 5.648.45 8.519.45 5.482 0 11.026-.451 16.306-.801 4.31-.125 8.832-.559 13.114-.559 2.571 0 5.554.171 7.722.259 1.951-.283 4.047-.4 6.171-.4 3.015 0 6.082.234 8.861.556 10.367 1.213 25.358 2.914 28.917 14.463.675 2.268.748 4.239.54 6.248-.283 2.677-1.072 5.424-1.635 9.037-.515 2.719-.957 5.23-1.478 7.592-1.39 6.307-3.333 11.569-8.709 16.978-5.693 5.48-13.125 9.907-20.539 12.145-4.604 1.709-9.422 3.034-14.269 3.624-2.234.15-3.344.329-5.59.485-1.227.088-2.822.436-4.2.405Zm172.628-3.304.015-.009c-6.231.014-13.205-.708-18.951-2.563-1.795-.531-4.295-1.165-5.805-2.132-.511-.447-1.095-.654-2.702-.961-2.563-.33-3.416-.945-4.92-2.336-2.589-1.092-4.756-2.561-6.725-4.638-1.052-1.177-1.22-.877-2.382-1.989-.643-.597-1.101-.849-1.53-.849-.493 0-.666-.132-.89-.675-4.474-6.854-8.487-14.788-7.552-23.714.085-.8.371-2.795.548-3.17.102-.966-.032-1.471.086-2.631.048-.437.131-.97.277-1.656.761-4.023.872-9.969 2.288-13.62a23.775 23.775 0 0 1 1.812-4.266c.421-.976.293-1.262 1.09-2.364 1.208-1.939.095-1.411 2-3.23a47.688 47.688 0 0 1 2.747-3.747c.359-.853 1.658-1.922 2.151-2.613.12-.292.341-.4.826-.4.421-.006 2.658-.534 2.6-1.169.322-.865 2.387-2.641 3.194-3.383.936-.735 1.201-1.32 2.037-1.448.192 0 .412-.174.492-.388.319-.676 1.31-.255 2.021-.579 1.553-.58 2.101-1.864 3.792-1.864.142 0 .293.011.454.027 1.673.152 3.086-1.171 4.302-2.175 1.042-1.108 3.066-2.021 4.078-2.888 4.342-3.631 10.962-6.72 16.059-8.916 3.115-.814 5.677-2.197 8.904-2.664 3.112-.506 6.615-1.063 9.827-1.055 1.749-.032 1.91-.066 1.948-.427.21-.335-.598-.382-1.571-.382-.389 0-.803.007-1.188.007-.911 0-1.67-.042-1.578-.324.461-.475-6.624-.443-6.827-.527-1.398-.747 5.078-.88 6.003-1.108a53.739 53.739 0 0 1 4.991-.234c4.76 0 9.6.65 13.527 2.191.571.164 1.401.266 2.055.266.573 0 1.01-.077 1.03-.261.02-.207-.473-.545-1.877-1.054-.98-.479-3.436-.689-4.21-1.208-1.418-.557-3.51-.358-5.71-.642-3.24-.197-5.715-.723-8.571-.366-.607.475-.94-.772-1.387-.772-.07 0-.142.033-.22.107-.679.443-1.702.345-2.579.515-1.128.098-2.371.585-3.315.899-.736-.252-1.069-.942-2.091-.417-1.617.733-3.544 1.618-5.297 1.702-1.006.351-1.523-.797-2.302-.797-.171 0-.353.057-.559.193-.801.766-1.742.379-2.699.99-1.099.624-1.529-.196-2.627.752-1.154.908-1.263.097-2.421 1.01-.525.383-.953.562-1.153.484-.435-.88 3.106-1.932 3.821-2.627 1.485-.958 3.687-1.856 5.274-2.291.347 0 .652-.145.804-.381.521-.678 1.558-.999 2.484-1.117 1.623-.179 3.044-1.204 4.661-1.381 1.545-.188 2.591-.666 4.228-.842 2.454-.082 3.696-.413 6.357-.461 2.082.046 4.117-.032 6.121-.032 1.909 0 3.788.071 5.658.395.879.128 4.308 1.072 4.952 1.537.593.505 2.32.209 2.967.838.591.489 1.194.325 1.792.325.274 0 .549.035.824.181 3.183 1.058 6.36 2.913 9.077 4.855 1.877.805 3.44 1.472 4.607 3.101 1.176 1.28 1.244.924 2.972 2.886 2.628 2.899 3.541 4.528 5.172 7.635.344.543.291 1.811.688 2.346.17.246.419.763.554 1.146.785 1.212.924 3.304 1.026 4.702.779 2.547.899 6.771.556 10.029-.288 2.763-.581 6.344-.942 8.6-.858 2.332-.903 6.478-1.782 8.814-.948 5.115-2.08 11.045-3.694 16.086-.249 1.2-.789 2.096-1.322 3.092-.429.774-1.149 2.906-1.728 3.603-.611.674-.041.816-.676 1.419-.665.63-1.646 2.826-2.411 3.447-1.018 1.809-3.141 4.456-4.818 6.069-1.846 1.923-1.746 2.343-3.996 4.325-1.281 1.391-2.259 1.757-3.245 1.757-.625 0-1.254-.148-1.961-.272-.271-.178-.521-.122-1.276.295-1.647.715-2.904 1.973-4.523 2.33-.387 0-.595.122-.699.408-.327.645-1.494.955-2.105 1.394-3.771 2.028-8.513 3.543-12.508 4.523-1.062.194-1.813 1.6.118 1.171 1.936-.456 3.962-.87 5.835-1.473.517-.188 4.084-2.073 5.081-2.073.111 0 .189.023.227.075.912.315 1.254-.259 2.164-.222.367 0 .981-.184 1.369-.405.838-.426 1.421-1.351 2.305-1.562 1.376-.561 2.397-.858 3.71-1.866.815-.613 1.505-.92 1.809-.92.112 0 .174.044.164.13-.02.216-.471.701-1.567 1.469-1.42.968-1.824 1.605-2.854 1.846-1.785 1.06-4.91 3.43-6.884 4.209-.356.124-1.29.645-1.821.645a.559.559 0 0 1-.193-.03.636.636 0 0 0-.645.159c-.35.377-1.322.485-1.707.813-1.158.461-2.109.975-3.442 1.308-1.404.347-1.357.732-2.851.876-1.692.283-3.561 1.176-5.198 1.41-4.303.858-9.717.791-14.044 1.174Zm-105.503-2.602c-1.33-.24-1.033-3.355-.745-6.116l.041-.414c.13-1.248.244-2.388.182-3.106.567-6.457.709-13.042 1.274-19.532 1.358-16.813 2.98-36.987 4.048-53.789-3.823.09-7.48.173-11.03.173-4.977 0-9.745-.162-14.454-.697-1.921-.533-1.774-1.619-2.325-3.104-.617-.515.05-2.544-.206-3.183-.078-.229-.084-.549-.048-.899.062-.611.255-1.314.398-1.749a1.23 1.23 0 0 0 .099-.365c.073-.715-.506-1.354-.077-2.059.088-.103.151-.41.195-.827.139-1.338.065-3.785-.149-4.164a.475.475 0 0 1-.082-.315c.056-.535 1.012-1.032.924-1.74.038-.382-.014-.791-.116-.905-.314-.335.544-1.201.216-1.608-.225-.647.34-.894.216-1.696-.034-.681.012-.751.685-1.056a1.51 1.51 0 0 1 .709-.156c1.082 0 2.498.813 3.971.921 4.708.744 10.506.818 16.413.818 2.62 0 5.261-.016 7.839.004 1.223-10.342 2.476-19.017 3.917-29.35.25-2.017.572-4.123.779-6.087.124-1.198.208-2.342.202-3.378a3.168 3.168 0 0 1-.025-.792c.138-1.341 1.287-1.764 2.259-1.095.104.036.21.05.32.05.801 0 1.705-.845 2.64-.556h.157c1.126 0 1.701-.511 3.088-.411h.524c1.509 0 2.632.024 3.794.763.958-.11 2.219-.173 3.54-.173 2.106 0 4.361.165 5.76.582.966.184 2.935.208 2.064 1.811-2.262 8.432-2.913 15.906-4.432 24.505-.014.343-.033.63-.059.879-.138 1.34-.428 1.45-.525 2.366-.22 2.087.112 2.151-.449 2.686-.439.422-.473.546-.341 1.223.263 1.235.315 1.937.171 3.317-.287 2.737-.422 2.7.263 3.009 1.254.216 3.24.281 5.458.281 3.302 0 7.115-.145 9.808-.145 7.706 0 10.236.109 16.377.311 7.54.078 16.594.991 23.973 2.089 2.713.272 4.836 1.287 7.647 1.358l-.052.068c.998.156 2.503.41 1.71 1.271-.802.589-1.37.232-2.343 1.187-.976.822-.975.822-2.398.698-.783-.071-1.559-.204-1.725-.302a5.71 5.71 0 0 0-.879-.057c-1.381 0-3.353.288-4.984.288-.875 0-1.649-.082-2.184-.338-1.062-.587-.947.21-2.109.1-2-.421-5.586-.431-7.672-.77-2.204-.607-4.002-.731-5.84-.731-2.023 0-4.093.153-6.799-.025-.229-.014-.495-.02-.784-.02-1.659 0-4.006.202-4.15.204-.22.711.799.552 1.903.672 5.866.188 12.493.57 18.231 1.233.675.2 12.344 1.446 8.539 1.839-.933.21-1.723.288-2.456.288-2.06 0-3.653-.613-6.612-.613-4.927 0-5.798-.583-9.851-.647-1.217.032-3.321.097-4.68.143-2.374.084-2.472.102-2.456.506.014.391.178.429 2.502.561 3.448.243 6.323.19 9.324.865 3.038.117 7.882.467 10.803.97 1.112.324 1.4.463.164.992-.515.17-1.04.236-1.569.236-1.317 0-2.652-.415-3.91-.631a2.721 2.721 0 0 0-.958-.175c-.894 0-1.644.411-2.684.254-.571-.056-1.16-.251-1.362-.451-.256-.257-.435-.301-.631-.153-.182.073-.416.103-.679.103-.916 0-2.202-.342-3.067-.232-.587.132-4.624-.25-7.908-.25-2.98 0-5.34.313-3.953 1.624.735.464 4.616.251 5.556.481 5.297.996-8.016.918-8.719 1.01-4.422.05-9.443.557-13.793.677-1.154.15-2.872-.195-2.193.59.285.321.982.395 6.362.395 4.907 0 5.093.453 9.261.7 1.158-.129 1.873.009 1.619.744-.12.11-1.436.252-2.927.318-5.201.034-6.411.252-11.949.372-3.671.002-3.804.018-3.846.402-.038.375.108.402 2.459.448l.363-.003c2.22 0 2.004.464 3.857.243 1.553-.282 2.186.107 3.853-.168.968-.134 1.494-.13 1.714.018.836.357 2.759.051 3.853.121l.159-.003c1.453 0 2.316.312 3.765.302 1.158-.036 2.304.06 3.294-.429.311-.116.601-.159.883-.159.91 0 1.778.433 3.263.255 3.659-.072 6.209.644 9.561.996 2.188.285 6.33.083 8.416.804 1.03.597 1.551.546 2.593.997.258.142.359.276.345.404-.056.561-2.322.973-3.238 1.031-3.225.421-5.624-.456-8.954-.534-4.536-.324-9.754-.415-14.406-.415-6.147 0-17.974.494-25.009.399-1.465-.02-1.752.028-1.78.289-.282.565-.43 1.223-.504 1.934-.232 2.218.247 4.946-.406 6.916-1.297 18.397-3.328 41.226-4.791 59.876-.206 3.73-.872 8.361-.756 11.173.046.27.064.737.014 1.212-.07.693-.284 1.405-.741 1.569-.132.038-.26.057-.388.057-.657 0-1.201-.502-.844-1.469.288-1.267.22-1.363.288-2.68.302-11.566 2.107-25.509 3.061-40.116-.037-.116-.024-.431.018-.838.12-1.154.485-3.07.685-3.437.229-.539.233-.823.021-1.428-.209-.607-.191-1.53.084-4.732.439-4.957.743-10.219 1.224-15.098.346-3.563.346-3.703-.039-3.703-.389 0-.412.138-.933 4.906-.535 5.516-.669 7.963-1.169 12.276.214.966-.074 4.651-.371 5.697-.4 1.134.065 3.216-.456 4.209-.264.567-.287.795-.12 1.224.38 2.411-.484 7.782-.806 11.643a486.347 486.347 0 0 1-.575 5.106c-.106.589.147 2.607-.392 3.108-.379.593-.608.954-.175 1.397.366.28.04 1.652.329 1.954.16.183.071.954-.179 1.347-.129.1-.193.332-.225.627-.088.839.101 2.195-.114 2.57-.439 3.207-.699 8.865-.613 11.96-.306.271-.171 2.74-.522 2.99-.353.405-.303 1.83-.754 2.171-.176.07-.326.102-.456.102-.88 0-.742-1.5-.72-2.659.834-12.771 2.007-24.965 3.127-40.958.268-3.831.542-4.503.644-5.483.061-.597.07-1.309.009-2.922.065-1.249.215-2.285.38-2.627.102-.269.166-.616.204-1.011.154-1.474-.007-3.621.209-4.933.066-2.096.662-3.181.365-4.834.535-3.216.309-6.718.872-10.487.01-.271.031-.532.057-.779.166-1.593.499-2.572-.286-2.824-.525.433-.804 1.698-.972 3.299-.336 3.212-.217 7.77-.67 9.62-.25 2.538-.135 4.261-.336 6.171a17.283 17.283 0 0 1-.442 2.47c-.347 4.067-.562 9.893-1.111 14.894-.484 6.105-1.198 14.638-1.789 20.032-.242 1.14.209 4.597-.461 5.326-.508.519-.293 1.002-.095 1.585.279 1.615-.463 5.511-.465 7.511-.029.152-.05.312-.066.479-.126 1.202-.012 2.808-.155 4.152-.114 1.112-.406 2.049-1.153 2.432-.3-.074-.24-.746-.163-1.489.09-.848.199-1.784-.175-2.019-.349-.667-.366-1.043-.184-3.453.148-1.419.248-2.702.377-3.928.164-1.563.367-3.029.756-4.566a.752.752 0 0 0 .104-.277c.046-.451-.739-.4-.238-1.902.192-.94.201-1.473.095-2.609a1.915 1.915 0 0 1-.084-.87c.092-.889.614-1.836.486-2.822.228-2.378.031-5.158.3-7.726.112-1.062.618-5.094.951-6.04.158-.388.24-.727.27-1.039.142-1.353-.641-2.188-.277-4.158.79-9.234 1.579-19.959 2.214-29.15 0-.104.007-.259.027-.449.102-.958.424-2.864.606-4.609.215-2.044.235-3.862-.513-3.687-.326 1.158-.53 2.437-.672 3.796-.318 3.053-.337 6.502-.788 9.86-.432 5.358-.779 7.412-.872 11.218-.006 1.217-.089 1.76-.356 2.271-.146.278-.229.488-.261.795-.034.342-.006.804.068 1.607.116 1.29.031 3.013-.329 6.836-.775 5.282-1.271 14.082-1.828 19.401a69.091 69.091 0 0 1-.624 4.6c-.401 3.428-.33 7.789-.554 10.855a34.871 34.871 0 0 1-.164 4.507 26.764 26.764 0 0 1-.642 3.703c.01 1.617-.763 1.978-.779.359-.068-1.419.025-1.552-.252-2.961-.216-2.1-.134-4.193.091-6.357.146-1.405.353-2.838.583-4.323.367-2.3.376-2.614.096-2.963-.391-1.389.015-6.132.44-10.156.373-3.574 1.126-10.065 1.158-11.452.289-2.482-.044-4.342.307-7.011.006-.2.018-.389.034-.563.182-1.727.826-2.143.515-3.501-.439-2.274 1.366-13.18.845-15.294-.293-.22-.504-.315-.654-.315-.229 0-.323.217-.357.552-.06.587.06 1.531-.052 2.293-.06 1.224-.182 2.021-.352 2.252-.05.164-.079.317-.095.468-.082.803.244 1.496-.039 3.387-.374 9.301-2.203 24.117-2.706 33.357.006.181-.002.34-.016.486-.08.776-.396 1.148-.47 1.876-.12 1.162.336 2.473-.259 3.489-.164.339-.261.776-.311 1.263-.15 1.448.089 3.336.055 4.382-.093.37-.149.688-.178.985-.116 1.128.102 1.975-.208 4.33-.032.416-.071.823-.109 1.205-.183 1.765-.449 3.095-.781 3.095-.231 0-.496-.631-.791-2.2-.2-.82.102-4.269.064-5.209.461-4.249.555-10.342 1.072-15.271.206-1.985.49-3.877.919-5.56.088-1.308.154-6.135.32-7.722.06-.581.176-1.131.384-1.614.058-.06.101-.241.125-.504.12-1.156-.044-3.832-.273-4.123-.064-.082-.324.095-.581.397-.296.317-.447 1.001-.531 1.812-.152 1.463-.096 3.34-.302 4.244-.238.935-.322 5.365-.606 8.082-.11 1.062-.251 1.865-.447 2.089a.972.972 0 0 0-.212.52c-.076.739.519 1.715.216 3.422.002.753-.032 1.338-.082 1.836-.152 1.481-.547 2.803-.722 4.87.026 1.431-.31 2.572-.12 3.533.014.084.013.166.007.25-.06.567-.542 1.168-.4 1.959.042.571.009 1.767-.116 2.966-.142 1.366-.405 2.734-.808 3.187-.018.195.084.604.234.911.118.206.148.489.113.808-.108 1.054-.912 2.518-1.489 2.997-.192-.216.087-2.025-.184-2.293-.182-.171-.347-.243-.499-.243-.712 0-1.083 1.63-1.165 2.502-.17 1.775-.909 2.754-2.434 3.167Zm-431.078-5.562c.108-.003.223-.012.345-.028l.009-.009c4.096-.002 8.861-.905 12.948-1.58.077.002.157.002.239.002 1.386-.02 3.461-.7 4.815-.585.926-.069 1.34-.789 2.384-.895 1.375-.411 2.974-1.011 4.148-1.719.347-.402 1.846-1.525 2.339-1.641.609-.211 2.015-1.414 2.777-1.476 1.404-.317 3.806-2.863 5.097-3.973 1.134-1.066 1.378-1.397 1.43-1.962-.07-1.04-.038-1.925-1.432-.338-4.38 4.203-9.696 6.942-15.056 9.411-1.003.497-1.797.353-2.663.638-.565.22-1.145.475-1.712.563-.643.11-4.105.388-4.588.967-1.154.779-2.726.535-4.185.817-2.08.281-3.639.732-5.885.756-2.607-.219-2.625 1.09-1.01 1.052Zm338.567-6.144c1.429-.003 2.258-1.875 3.91-1.685.228.028.475.095.74.211 1.334.385 2.906.152 2.995-.245.046-.212-.329-.469-1.381-.704-8.217-1.863-16.205-4.715-23.885-7.83-6.133-2.607-12.509-5.347-17.428-9.741-1.154-1.064-2.827-2.881-3.816-4.011-.826-.604-1.361-2.536-2.339-2.65a.896.896 0 0 0-.427.063.685.685 0 0 1-.352.096c-.561 0-1.149-.611-1.596-.663-.26-.032-.476.129-.606.722a3.68 3.68 0 0 0-.059.393c-.166 1.585.361 2.858.749 4.32.375 1.755.736 2.109 2.457 4.132 3.216 3.671 6.158 5.904 10.047 8.378.51.471.923.622 1.289.622.701 0 1.232-.547 1.955-.465.26.032.55.147.876.4.63.507 2.84.727 3.497 1.314.729.571 2.575 1.102 3.41 1.344 2.284.942 5.18 2.131 7.731 2.432.545.068 1.03.706 1.673.436.371-.114.605-.072.917.17 2.651 1.136 6.558 2.32 9.498 2.929l.004.025c.048.004.095.007.141.007Zm-107.344-8.128c.356.002.712 0 1.072-.003l-.041-.006c5.273-.03 9.2-.16 13.514-.638 2.987-1.082 6.922-1.578 9.871-2.7a204.557 204.557 0 0 1 9.666-3.347c4.007-1.576 7.552-5.118 11.325-7.288 1.663-1.468 3.077-2.734 4.468-4.277.515-.918 1.386-1.026 1.98-1.792 2.302-3.251 5.272-6.316 6.809-9.978 1.066-1.729 1.568-3.052 1.714-4.432.126-1.218-.023-2.48-.316-4.107-.445-6.378-4.183-11.851-7.808-16.702-2.438-2.356-5.127-4.373-7.896-6.341-.676-.389-2.377-1.018-2.868-1.657-.274-.343-.599-.486-1.106-.486-1.544-.297-2.283-.748-3.984-1.183-2.064-1.084-5.37-1.67-7.54-2.443-.848-.439-1.082-.141-1.733-.366-.178-.1-.8-.232-1.385-.288-1.066-.028-1.146-.447-1.861-.447a2.45 2.45 0 0 0-.359.029c-.543.111-4.146-.185-4.421-.672-.136-.553-1.601.286-1.88.434-.484.319-1.291-.869-1.58-1.14-.3-.366-.435-.376-2.386-.166-2.671.203-4.646.549-7.034.813-1.122.026-2.124-.125-3.154.536-.679.429-.92.474-2.102.386-2.212-.248-3.402.746-5.238 1.76-2.414 1.412-4.439 2.317-6.766 4.052-2.372 1.519-5.475 3.418-7.649 5.057-1.082.985-2.645.046-3.807 1.464-2.22 1.719-4.244 2.655-6.376 4.505-1.787 1.867-3.636 2.335-5.746 3.843-1.677 1.343-2.974 2.795-4.525 4.289-1.158 1.194-1.223.934-2.134 1.163-1.505 1.687-3.551 3.924-4.473 6.01-.166.683-.991 1.449-1.047 1.998-.032.314.192.559.952.667.729.417 1.554-1.217 2.179-1.269.852.457.254 3.947.354 5.201-.168 2.062.23 3.225.264 5.002.334 3.835 2.906 7.476 4.813 10.383 2.801 2.146 5.801 5.285 9.141 6.643 9.049 4.932 18.07 7.429 29.093 7.493Zm305.755 0c.355.002.712 0 1.072-.003l-.041-.006c5.273-.03 9.2-.16 13.513-.638 2.988-1.082 6.923-1.578 9.872-2.7a204.913 204.913 0 0 1 9.665-3.347c4.008-1.576 7.552-5.118 11.325-7.288 1.663-1.468 3.078-2.734 4.468-4.277.515-.918 1.387-1.026 1.98-1.792 2.302-3.251 5.273-6.316 6.809-9.978 1.066-1.729 1.568-3.052 1.715-4.432.126-1.218-.024-2.48-.316-4.107-.445-6.378-4.183-11.851-7.808-16.702-2.439-2.356-5.128-4.373-7.897-6.341-.675-.389-2.376-1.018-2.867-1.657-.275-.343-.599-.486-1.106-.486-1.545-.297-2.283-.748-3.984-1.183-2.064-1.084-5.371-1.67-7.541-2.443-.847-.439-1.081-.141-1.732-.366-.178-.1-.8-.232-1.385-.288-1.066-.028-1.146-.447-1.862-.447-.106 0-.222.009-.358.029-.543.111-4.146-.185-4.421-.672-.136-.553-1.601.286-1.88.434-.485.319-1.292-.869-1.58-1.14-.301-.366-.435-.376-2.386-.166-2.671.203-4.646.549-7.034.813-1.122.026-2.124-.125-3.154.536-.679.429-.92.474-2.102.386-2.212-.248-3.403.746-5.238 1.76-2.414 1.412-4.44 2.317-6.766 4.052-2.372 1.519-5.475 3.418-7.649 5.057-1.082.985-2.645.046-3.808 1.464-2.22 1.719-4.243 2.655-6.375 4.505-1.787 1.867-3.637 2.335-5.746 3.843-1.677 1.343-2.975 2.795-4.525 4.289-1.158 1.194-1.223.934-2.135 1.163-1.504 1.687-3.551 3.924-4.472 6.01-.167.683-.991 1.449-1.047 1.998-.032.314.192.559.951.667.73.417 1.555-1.217 2.18-1.269.851.457.254 3.947.354 5.201-.168 2.062.229 3.225.263 5.002.335 3.835 2.906 7.476 4.814 10.383 2.801 2.146 5.801 5.285 9.141 6.643 9.049 4.932 18.069 7.429 29.093 7.493Z"/><path d="m497.823 483.895.002-.052c-3.115 0-3.309-5.493-5.041-7.667-.64-1.304-.645-1.402-.179-2.116.614-.941.659-1.987-.054-2.872-1.174-1.97-1.55-4.218-1.653-6.725a3.702 3.702 0 0 1-.025-.411c0-1.805 1.259-4.168.76-5.483-.531-3.457.175-9.159.877-12.572.02-1.61-.858-3.179-.654-4.822.035-.221.052-.417.052-.588 0-.979-.513-1.308-.247-2.361.253-.646.68-5.944.554-6.576-.027-4.129-.611-12.548 1.173-16.388-.156-.855-1.082-1.514-1.155-2.629-.112-.693-.336-1.103-.604-1.103-.761.003-.948 3.734-.638 4.18-.021 10.499-.949 25.177-.772 35.661-.345 3.955-.302 12.55-.933 16.72-.236 1.43-2.289 5.042-3.197 6.021-.378.245-.686.354-.97.354-.76 0-1.345-.788-2.613-1.902-2.114-2.611-3.854-1.168-4.202-4.273-.552-2.655-.741-5.174-.741-7.663 0-4.371.583-8.65.834-13.416.236-2.584.299-5.654.299-8.866 0-3.401-.068-6.955-.068-10.256 0-2.574.041-4.989.189-7.054.15-1.082.12-1.954-.077-2.391a2.651 2.651 0 0 1-.139-.908c0-1.162.538-2.479.47-3.83.003-.183.005-.365.005-.545 0-1.631-.223-3.219-.223-4.877 0-3.33.827-8.232 1.9-11.597.345-.652.402-1.386-.138-1.964-.549-.9-1.093-2.84-2.028-.761-.336 1.448-1.601 1.428-.749 3.186.23 1.109.311 2.634.311 4.27 0 2.743-.229 5.801-.356 7.724-.393.994-.238 2.906-.686 3.758-.165.224-.126.706.105 1.258.244.778.333 1.499.333 2.198 0 2.138-.852 4.069-.642 6.954.02 9.721-.189 23.736-.591 33.614-.18 3.828-.486 6.658-1.026 9.433-.873 3.348-.622 5.441-2.527 7.027-.899.363-1.988 2.255-2.979 1.989-.964-.368-3.279-2.924-3.65-3.98-.369-1.017-.489-1.839-.489-2.718 0-1.403.299-2.959.373-5.717.274-4.37.756-32.029.579-35.875.362-17.442 1.904-36.434 2.804-54.531.994-20.002 1.235-45.321 3.405-65.282.26-2.539.891-7.777.968-10.04.047-1.179.048-1.181-2.164-1.296-9.904.369-30.503-.497-48.703-.497-12.001 0-22.962.376-29.112 1.739a.633.633 0 0 1-.406.145c-.947 0-2.046-2.067-2.125-2.813-.404-.684-.532-1.488-.532-2.343 0-1.722.533-3.654.43-5.238a2.979 2.979 0 0 1-.03-.463c0-1.563.769-4.7.2-5.606-.245-.392-.242-.725.02-1.301a.933.933 0 0 0 .184-.581c0-.846-.888-1.792-.422-2.518.445-.64-.216-2.487.268-3.053.25-.304.249-.596-.014-1.174-.124-.221-.172-.477-.172-.754 0-1.115.78-2.597.644-3.615 0-.616-.168-1.388-.372-1.718a.827.827 0 0 1-.136-.454c0-.935 1.499-1.982 1.396-3.197.263-1.746.619-1.714 2.152-1.351 1.59.425 3.41.622 5.2.622 3.489 0 6.774-.204 9.953-.204 11.523 0 21.589.833 34.189.833 12.454 0 20.559.167 28.625.359.266.014.5.025.715.025 2.041 0 2.061-.748 3.594-1.406.803-.135 1.251-.908 2.071-.672 1.248.198 1.787-.69 3.403-.138 1.216.271 1.513.248 1.964-.162.664-.645 1.109-.089 1.835-.479 1.029-.386 1.203.65 2.613.205 1.911-.667 4.596-1.012 6.578-1.036.194.021.393.03.597.03 2.456 0 5.439-1.37 7.808-1.358.189.024.383.034.581.034 1.758 0 3.992-.767 5.301.239 3.413 1.477 1.912 3.093 3.581 3.167 12.461-.72 25.705-1.362 38.818-1.362 9.37 0 18.67.326 27.565 1.196 1.256.021 2.822.217 3.474.429.33.171.875.232 1.532.232 1.678 0 4.079-.391 5.454-.35 6.875.567 14.519 1.382 21.296 2.175 5.651.676 13.174 1.544 18.834 2.207 4.586.531 10.124.593 14.403 1.994.452.209.767.2 1.036-.021.315-.41 2.644-.092 2.874.259-.835.832-2.309.561-4.273.738-3.288.189-3.612.318-6.482.513-2.141.578-4.597 1.327-6.612 1.719a1.218 1.218 0 0 1-.631.172c-.764 0-1.544-.631-2.52-.619a3.726 3.726 0 0 0-.54-.039c-1.257 0-1.019.894-2.777.404a6.857 6.857 0 0 0-1.126-.089c-1.705 0-2.788.647-5.688.405-.188.003-.371.002-.551.002-3.442 0-5.878-.683-8.769-.804-1.147.036-2.872.318-3.403-.213-3.775-1.572-9.895-1.581-14.086-1.678-1.778-.153-5.495.757-6.822-.077-2.336-.909-4.426-.383-7.915-.645-6.701.009-17.493-.667-23.631-.384a2.78 2.78 0 0 1-.799.107c-1.72 0-3.724-1.274-5.903-.307-8.193.885-19.275.776-27.606 1.242-1.685.23-7.214-.055-7.665 1.101.483.452 1.632.602 3.092.602 3.633 0 9.205-.948 11.4-.704 7.267-.097 19.882-.365 30.594-.365 4.996 0 9.573.055 13.003.211 1.2.059 10.337.42 10.337 1.031 0 .171-.738.366-2.611.581-1.967.259-1.262 1.102-4.205.94-3.769-.056-6.964-.08-10.246-.08-5.628 0-11.499.205-20.904.205-4.999 0-6.578-.337-8.875-.314-2.702 1.148-8.482.926-11.82 1.156-2.289.03-5.615.215-3.188 1.519.779.142 1.877.191 3.092.191 2.749 0 6.118-.271 7.888-.418 1.548.375 5.331.49 6.829.895.336.2.777.199 1.349.002.171-.109.443-.157.767-.157 1.08 0 2.73.498 3.202.733-1.422 1.124-7.074.758-8.628 1.71a.848.848 0 0 0-.132.416c0 1.474 6.047.562 7.08 1.176.412.121.826.168 1.251.168 1.619 0 3.314-.699 5.004-.631 1.746.076 4.457.212 5.955.749 1.147.519 1.879.701 2.947.701.684 0 1.503-.073 2.665-.188 1.316-.251 2.33-.354 3.138-.354 3.489 0 3.059 1.91 6.45 1.559 1.941-.392 4.736.495 6.455-.143.646-.224 1.628-.408 2.18-.408 1.743.115 1.743 1.116 3.935 1.06 2.43.392 5.817-.42 7.481 1.453.536.861 1.415 1.172 2.172 1.576 2.852 1.448 8.097 1.179 11.035 2.259.251.198.365.349.365.47 0 .705-4.024.168-6.082.356-8.025.183-4.876-.783-10.633-1.228-2.972-.183-10.756-.286-13.561-.463-2.177-.159-4.707-.529-7.143-.529-1.958 0-3.851.242-5.446 1.026-.148.263-.216.491-.216.686 0 1.778 5.559.854 6.571 1.632 1.377.826 2.5.09 3.6.105 3.245.489 6.989.822 10.619.822 1.696 0 3.364-.074 4.948-.237 3.609.124 5.389.387 8.911.682 1.716.407 6.624.342 8.001 1.055 1.262.558 3.864 1.218 3.864 1.728 0 .263-.673.484-2.54.64-3.165.493-1.955-.781-4.687-.02-2.627.492-5.476.787-8.039.504a2.689 2.689 0 0 0-.836-.148c-.858 0-1.208.558-2.438.286-5.392-.578-11.385-.625-16.756-1.509-15.481.28-32.533.072-48.099 1.178-2.053.136-11.079.137-12.306.951-.994 2.711-1.04 6.176-1.532 9.52-2.103 15.384-2.225 31.446-3.381 46.891-.03 22.235-2.113 42.299-2.865 61.048-.573 16.233-.051 41.636-1.635 57.612.029 1.917.688 10.183.738 12.127.056 1.893.056 1.87-1.262 1.87Zm-193.816-5.04a.245.245 0 0 1-.068-.007l.004-.004c-1.539-.46.318-2.018 1.079-.945.108.296-.65.94-1.015.956Zm388.21-.079c-5.135-.39-15.431-.788-20.534-1.755-.242-.098-1.315-.145-2.379-.11-.215.021-.42.03-.62.03-2.191 0-3.4-1.13-5.615-1.439-10.706-1.755-21.247-4.599-31.048-9.359-4.71-2.068-9.659-5.446-14.006-8.062-.685-.189-3.79-3.369-4.48-3.64-2.153-1.174-4.762-4.81-6.838-6.096-7.533-6.612-13.563-15.448-18.016-24.325-1.906-5.135-4.387-9.728-5.293-15.04-2.108-6.459-2.794-13.449-3.508-20.347-.722-9.252-1.866-18.858-1.866-28.183 0-19.268 7.981-38.175 21.276-52.332 3.495-4.544 4.342-1.591 7.606-4.098 6.899-5.48 5.873-3.023 12.576-5.256 1.481-.413 1.954-1.577 2.906-1.993 4.351-2.259 8.287-5.873 13.053-7.436 2.127-.779 3.543-2.775 6.339-2.981 3.607-.519 2.661-1.921 5.987-2.829 3.917-1.194 5.217-3.395 9.284-4.162 2.858-.085 2.239-1.863 4.203-1.58.829.153 1.05.063 1.469-.577 2.067-1.843 5.157-2.347 7.953-2.672 2.522-.584 4.83-1.075 6.929-2.452.758-.463 4.976-.761 5.642-1.419 1.773-1 4.288-.666 6.374-1.48 2.642-1.08 11.793-.207 12.451-2.95-.752-1.805-3.965-.477-4.575-2.477-.699-1.029-1.91-1.328-3.261-1.328-1.917 0-4.107.61-5.469.613a1.156 1.156 0 0 0-.309-.038c-1.073 0-3.53.928-4.182.585-.336-.135-1.708-.239-3.047-.236h-.284c-1.404 0-1.927-.115-1.927-.277 0-.419 3.452-1.156 4.581-1.115 2.08.074 1.328-1.005 3.245-1.241.215-.048.453-.066.704-.066 1.504 0 3.568.656 4.736.243 1.162-.531 4.347.551 5.367-.196.714-.595 2.834-.2 3.403-.751.071-.109.295-.166.604-.166 1.236 0 1.663.222 2.273-.336 5.064-1.893 12.419-1.672 18.338-1.41 6.235.316 10.308 1.035 16.216 1.433 1.457.298 5.282 1.074 6.482 1.348.82.52 2.859.834 3.991.99 2.646.278 4.598 1.808 7.261 2.269 1.504.188 2.002 1.204 3.07 1.464 1.864.301 3.877 1.536 5.714 2.034 2.106.752 4.987.94 6.928 1.937.203.242.794.44 1.319.44 1.147-.05 2.957.973 3.998 1.197 4.828 1.79 10.675 5.648 14.96 8.296 2.51 1.133 4.8 3.57 6.979 5.442 2.333 1.985 5.297 4.319 7.122 6.793 6.999 8.436 12.996 18.108 15.169 28.985 1.885 7.936 2.116 15.488 2.148 24.162.142 2.846.191 4.233.191 5.324 0 1.634-.116 2.594-.225 6.811-.065 7.087.146 13.087-1.385 19.283-.861 5.117-1.301 11.142-3.46 15.773-.168 1.793-.894 3.973-1.419 5.601 0 .74-.955 1.096-.879 1.916-1.66 5.285-4.768 10.173-7.924 14.735-6.916 11.709-17.175 22.85-27.465 31.559-1.705 2.074-3.55 3.228-5.765 5.075-1.294 1.339-2.032.873-2.779 1.991-.15.404-.454.735-.678.735-.714.116-1.452 1.336-2.348 1.383-.493.098-.971.454-1.154.861-1.451 1.592-4.245 3.028-6.118 4.243-23.456 13.602-43.166 17.767-70.005 18.643l.014.016Zm-394.54-.436a4.01 4.01 0 0 1-.686-.073c-.15-.003-.286-.005-.422-.014l-.005.003c-2.294-.171-2.537-1.438-4.985-1.158-.357.073-.66.093-.92.072-1.348-.097-1.584-1.292-2.888-1.755-.436-.144-.852-.121-.976.05-.507.463-2.572.214-2.931-.488-.236-.779-2.698-.623-3.022-1.083.59-.557 2.837-.228 3.678.17 3.079.452 6.558 1.353 9.838 1.83.271-.02.516-.021.74-.006 1.825.135 2.412 1.371 4.005 1.707.407.041.57.125.567.222-.016.235-.991.542-1.993.523Zm19.828-2.162c-3.199.002-6.393-.075-9.009-.177l-.041.02c-2.068-.784-2.544-.997-3.022-1.033-.457-.029-.911.101-2.763.05-1.59-.433-2.252-1.201-4.13-1.23a4.216 4.216 0 0 1-.504-.002c-1.673-.124-2.204-1.337-3.56-2.001-3.268-1.165-9.362-1.737-12.642-3.156-1.95-.41-3.019-1.324-4.67-1.539-1.9-.398-3.041-1.895-5.474-2.025-3.507-.773-9.205-1.216-12.517-1.614-6.471-2.233-14.658-3.741-20.881-6.753-1.095-.699-3.073-.721-4.105-1.137-2.711-.879-6.446-2.53-9.041-3.683-7.456-2.775-14.8-7.081-21.465-11.382-1.159-.816-2.338-1.156-3.739-2.238-1.151-.832-1.575-1.001-2.032-.797-.21.13-.535.158-.934.132-2.032-.154-5.833-1.824-4.273.999 2.811 6.161-9.632-6.836-9.349-8.199-3.696-5.356-5.12-12.281-4.616-18.979a34.288 34.288 0 0 1 1.537-7.923c.546-.791.468-2.55 1.966-2.214a.594.594 0 0 1 .314-.068c.584.041.66 1.241.563 2.577-.121 1.59-.493 3.368-.572 3.601-.458 8.131 3.78 8.595 7.172 13.954.826 1.728 1.705 1.252 3.383 3.119 2.849 2.575 3.508 2.482 6.486 4.593 1.516 1.275 4.812 3.952 6.36 4.787 1.221.551 3.273 1.746 4.223 2.781 2.292 1.764 5.462 3.757 7.862 5.515 2.363 1.044 2.679 1.824 4.821 2.697 6.276 3.079 13.796 5.216 20.429 7.54 5.176 1.41 12.035 1.059 16.869 3.708 1.189.501 5.736 2.239 6.571 1.192.563-.472 1.039-.603 1.496-.795.083-.404-.823-1.208-.826-1.719-.077-.289-.376-.548-.659-.574-.622-.097-8.723-.534-8.366-1.589-.688-1.089-2.186-.787-2.997-1.415-.239-.233-1.015-.638-1.726-.904-1.557-.763-3.835-1.207-5.077-2.038-.002-.112.164-.141.441-.121 1.242.095 4.696 1.257 4.711 1.44 1.684.767 5.425 1.633 7.483 2.064.685.035 1.992-.059 2.237.283.318.531 1.574-.133 1.641-.51-.699-1.393-3.604-1.383-4.665-2.25-.578-.54-3.194-.85-3.74-1.301-.197-.23-.063-.314.45-.273.663-.183 1.167-.237 1.619-.202.884.068 1.572.477 2.867.999 2.153 1.784 12.647 1.669 15.11 2.684.941.516 3.472.885 4.554 1.153.558.136 1.25.399 1.533.588.551.643 2.03-.793 2-1.303-1.265-1.74-4.068-1.268-6.053-2.012-2.716-.666-4.536-1.527-7.279-2.111-2.12-.183-2.23-1.34-3.875-1.851-1.82-.557-7.922-.463-9.323-1.973-.289-.109-.648-.156-1.037-.186-.959-.074-2.121-.024-2.991-.413-1.347-.386-1.814-.923-2.888-1.115-.306-.02-.705-.247-.885-.506-7.208-2.082-16.172-4.839-23.04-8.219-1.395-.788-1.564-1.085-3.243-1.453-1.937-.445-2.234-1.33-4.225-2.023-5.863-2.616-11.33-5.963-16.358-9.847-5.819-3.439-10.499-9.163-14.354-14.649-.858-1.008-1.178-1.747-1.14-2.263.053-.761.888-1.028 1.914-.952 1.056.077 2.313.522 3.145 1.185 2.412 1.917 3.937 3.674 6.6 5.232.566.412 1.215 1.104 1.451 1.523.572 1.053 1.84 1.376 2.645 2.243 2.521 2.248 6.114 3.774 9.025 5.252.303.02.705.246.885.506.735.749 1.729.452 2.691 1.399 1.819 1.457 4.315 2.173 6.261 3.296a358.353 358.353 0 0 0 8.006 4.067c1.525.519 2.274 1.725 3.885 2.032 1.899.471 1.804 1.103 4.096 1.546 2.12.525 5.714 1.115 7.519 2.05 2.153 1.327 5.443 1.853 7.817 2.198 2.675.59 5.915 2.387 8.49 3.024 1.536.572 4.134.776 6.125 1.201 5.082 1.062 11.003 2.929 15.964 4.112 2.79.212 6.77 1.109 9.445 1.971 6.774 1.303 14.203 2.423 21.623 2.981 6.211.463 12.413.536 18.223-.009 16.274-2.174 31.339-8.93 44.092-19.061 4.603-4.359 11.048-9.302 14.785-14.726 3.244-4.279 7.086-8.04 6.77-13.343-.318-9.644-3.94-19.083-12.528-24.173-1.743-1.289-3.168-1.28-4.468-2.153-.62-.634-2.541-1.186-3.39-1.351-3.793-1.415-9.793-1.439-13.775-2.188-10.62-.03-21.287 1.897-31.854 3.339-4.645.732-8.702 2.35-13.076 3.545-5.568 1.51-12.084 3.304-17.582 4.908-6.335 1.195-12.572 2.986-18.949 4.584-1.849.667-4.171.386-5.581.999-.979.566-1.715.176-3.021.734-9.447 1.864-19.523 2.896-29.362 2.159-8.75-.658-17.315-2.72-25.074-6.843-10.028-6.276-18.604-16.144-21.268-28.036-.678-2.61-.798-5.322-.594-8.053.336-4.474 1.546-8.999 2.611-13.223 1.359-7.388 3.601-13.984 5.453-21.124 4.377-20.377 21.582-35.226 40.198-43.077 9.367-3.902 18.597-6.786 28.56-8.208 8.588-2.076 17.238-2.713 26.732-2.002 15.393 1.156 30.464 4.396 45.234 8.398 9.458 3.321 18.644 7.165 27.91 11.203 2.79 1.283 6.203 2.33 8.403 4.141 1.168.69.569 3.808.327 4.822-.339 1.062-.719 1.107-.949 2.137-.121.542-.472.806-1.457 1.09-1.558.377-2.074 1.55-3.195 2.381-1.436.847-1.982.933-2.003 1.19-.014.251.463.659 1.108 2.096.484 2.751 1.426 5.306.804 8.38-.203 1.433-.521 2.733-.695 2.883-.592.962-.405 2.653-1.069 3.989-.425 1.422-1.137 1.944-1.108 3.02.068.236-.054.714-.281 1.056-1.165 2.05-1.537.853-2.941.284-1.642-1.319-3.878-2.514-6.037-3.597-9.815-4.754-19.746-8.851-30.11-12.29-14.012-4.362-29.173-7.902-44.076-9.022a133.693 133.693 0 0 0-7.431-.348c-7.598.372-15.37.945-22.673 2.688-3.044 1.177-6.852 1.511-9.949 2.552-2.722 1.431-5.579 1.957-8.575 2.956-8.291 3.091-15.678 7.304-22.65 12.908-4.232 3.442-10.479 7.591-10.891 13.082-.095 1.274.121 2.615.747 4.037 3.769 11.004 14.521 20.463 25.381 24.244 5.311 1.952 11.128 3.017 17.073 3.462 8.866.664 18.018-.041 26.226-1.224 5.144-1.162 10.114-1.66 15.317-3.176 2.636-.705 4.802-.753 7.185-1.26 3.153-.705 6.375-2.013 9.514-2.332 4.851-.994 10.068-3.226 15.082-4.232 4.843-1.371 9.208-2.132 13.916-3.335 11.844-1.637 24.271-4.341 36.372-3.433 8.83.664 18.277 2.482 24.995 8.557 7.819 7.624 9.805 17.955 9.021 28.428-.605 8.046-2.852 16.182-5.347 23.234-.31 2.595-2.265 7.047-2.979 9.454-.637 1.817-.985 4.62-2.041 6.257-2.212 5.397-4.048 11.719-7.375 16.615-1.168 3.244-4.379 6.564-6.559 9.1-3.79 5.002-8.302 9.092-13.445 13.684-7.194 6.544-14.341 9.54-22.092 14.522-.59.297-1.447.517-1.898.488-1.383-.021-2.425 1.652-3.903 2.05-3.642 1.115-6.9 1.645-10.557 2.913-2.882.31-5.641.796-8.389 1.371-2.639.218-5.842.3-9.041.302Zm390.521-2.836c.941-.852 1.218-.032 2.141-.551.186-.083.353-.118.506-.118.714 0 1.26.676 2.623.263 1.522-.389 6.491.09 7.535-.913 1.392-.946 2.395-.869 3.964-2.064 2.664-1.71 5.606-1.087 8.338-2.567.758-.496 2.516-1.062 3.321-1.451.826-.457 2.483.255 3.188-.509 2.168-1.513 5.432-2.685 7.833-3.732 1.69-.667 3.28-.632 4.849-1.537.446-.348 1.112-.638 1.481-.638.719.094 2.376-1.522 2.901-1.717 2.127-1.124 1.414-.14 3.113-.193.835-.239.964-1.394 1.975-1.335 1.18-.044 3.743-1.887 4.796-2.427 4.963-3.401 9.905-6.942 14.465-10.832 1.763-1.327 2.44-2.115 2.44-2.534 0-.277-.303-.393-.792-.393-.959 0-2.622.438-4.082.933-.85.133-7.363 5.486-7.976 5.829-.189.079-.697.503-1.124.939-.741.9-2.597 1.34-3.163 2.237-.658.944-1.933.867-2.915 1.766-3.82 2.522-7.936 4.69-12.006 6.728-5.424 2.969-11.485 5.229-17.399 6.754-2.669.752-5.013 1.346-7.665 2.314-1.43.598-2.941.29-4.297.98-.906.732-7.691.542-8.921.775a2.769 2.769 0 0 1-.479.038c-1.484 0-3.784-.903-4.972-.442a9.837 9.837 0 0 1-2.121.295c-1.522.02-1.311.492-2.933.81-1.968.611-5.154-.134-6.596 1.317a1.18 1.18 0 0 0-.127.481c0 1.277 3.572.687 5.433.822h1.319c2.861 0 3.809.074 5.331.652l.016.02Zm-471.994-10.278.01-.007c-.552-.059-4.529-1.128-4.78-1.771-.041-.185.11-.235.382-.218.725.056 2.308.633 3.308.588 2.793.118 4.003 1.287 1.08 1.408Zm-7.917-3.008c-.636-.107-1.402-1.011-2.309-.97-1.719-.472-4.066-1.36-5.662-2.107-1.115-.937-3.409-1.034-4.491-1.995-.504-.546-1.472-.524-1.914-1.229-.776-.899-3.415-.998-4.468-1.791-.699-.484-2.345-1.384-1.34-1.791.272-.08.709.07.965.338.631.672 2.557.464 3.297.963.979.551 1.604.686 2.547 1.5 1.086.923 2.729.863 3.964 1.476 1.62 1.08 4.2 2.059 6.165 2.2 1.271.295 2.969.924 3.385 2.198.029.608.351 1.004-.139 1.208Zm458.324-.291c.51-.256.98-.334 1.464-.334.894 0 1.827.271 3.083.182 1.59-.103 4.302-.121 5.579-.502.554.077 1.109.114 1.666.114 1.525 0 3.076-.251 4.755-.482.303-.058.566-.081.79-.081 1.648 0 1.454 1.356 3.944.218 5.311-1.543 11.338-2.071 16.714-3.206 1.726-.445 2.107-.688 3.765-1.299 1.643-.643 3.02-.237 4.586-1.178 3.197-1.395 6.96-2.759 10.104-4.16 2.12-.572 4.407-1.734 6.33-2.713 1.772-.61 4.183-.48 5.678-2.141.551-.489 1.188-.885 1.412-.885.54.009 2.682-1.963 3.174-2.066.835-.399 2.948-2.741 4.048-2.956 4.604-2.59 8.769-6.17 13.316-8.889 1.033-1.053 1.469-.369 2.369-.888 1.188-.82 1.645-1.068 3.155-2.552 1.637-1.59 1.638-1.589 1.024-2.202-.504-.505-.708-.553-1.124-.264-1.306.806-2.271 1.29-3.955 2.593-5.922 4.887-12.062 9.308-18.524 13.405-1.041.607-1.838 1.052-2.652 1.65-.64.466-2.766.966-3.383 1.565-1.961 1.64-5.045 2.382-7.224 3.621-.953.189-2.674 1.061-3.399 1.728-2.896 1.383-7.244 2.378-10.308 3.487-2.02.758-3.957 1.336-6.189 1.917-.811.112-1.672.379-1.916.594-1.295.726-2.247.301-4.421.741-3.073.595-4.993.89-7.694 1.459-.705.351-2.908-.186-3.651.25-3.321.652-10.436 1.477-13.668 1.215-.384.071-.907.098-1.515.098-2.338 0-5.909-.443-7.619-.679-2.463-.357-2.462-.358-3.229.408-.377.304-.533.562-.533.777 0 1.026 3.479 1.197 4.036 1.439l.012.016Zm-479.202-10.364a3.503 3.503 0 0 1-.657-.075l.003-.003c-1.142.393-15.829-8.579-11.886-8.857 1.799.82 3.319 3.617 5.817 3.393.868-.172 9.248 5.515 6.723 5.542Zm549.887-2.144c.106.003.22-.004.343-.018.419-.1 1.031-.439 1.367-.749 1-.829 2.342-.389 3.489-1.303.599-.404 1.377-.736 1.74-.736 1.047-.065 2.816-1.573 3.887-1.862 5.134-3.099 8.278-5.428 13.041-9.778 3.931-4.613 4.964-.833 7.79-4.119.342-.787 1.743-1.914 2.595-1.923 1.094.003 1.492 1.072 2.722.163 1.817-1.008 3.691-2.955 4.584-4.772 2.97-2.483 2.649.331 5.513-4.541 1.032-1.551 2.32-2.816 2.609-4.341-.089-1.156-.81-1.694-1.928-.479-2.121 1.669-6.386 1.94-8.955 2.881-1.457.357-2.27.634-2.763 1.787-.439.953-2.144 1.873-2.663 2.908-1.315 1.696-2.643 1.748-4.557 3.813-2.3 2.214-2.251 2.208-4.13 4.104-2.949 2.463-6.157 5.166-9.431 7.314-2.433 1.984-4.653 3.781-7.302 5.076-.926.378-1.077 1.212-1.802 1.403-.54.009-1.351 1.247-1.964 1.179-1.009.18-2.324 1.641-3.542 1.859-1.773.252-2.293 2.099-.643 2.134Zm-65.57-1.098c.357 0 .6-.063.808-.191.298-.189 1.54-.341 2.761-.341 3.091-.168 2.23 1.082 5.336.073 5.285-1.484 11.802-1.423 17.046-2.847 6.335-1.336 12.565-2.589 18.463-5.27 4.312-1.537 8.709-2.699 12.685-4.961 3.964-2.232 7.991-4.127 11.634-6.882 5.028-2.91 10.368-6.768 14.86-10.328 2.345-1.109 6.184-5.635 8.652-6.57 1.009-.564 2.749-3.537 3.946-4.239 2.192-1.973 4.675-5.516 6.866-7.436 4.339-5.645 9.229-10.425 12.842-16.908 4.279-6.202 6.278-10.942 8.92-17.693.761-2.475 2.211-5.742 2.709-8.169-.003-.077-.007-.179-.007-.3 0-.894.173-2.804.173-4.452 0-1.322-.111-2.476-.509-2.827-.336-.664-.483-1.351-.368-1.714.027-.115.039-.219.039-.323 0-.784-.762-1.294-.972-2.182-.911-1.89-2.09-5.551-3.346-7.197-.49-.481-2.116-2.721-2.069-3.474-.047-.793-1.555-1.886-1.791-2.638-.142-.368-.46-.752-.711-.847-.578-.183-1.222-1.882-1.791-2.07-.673-.207-1.646 1.042-2.25 1.18-.888.328-.61 2.773.579 2.348.324-.124.401.037.327.683.029 1.525-1.975.204-2.116 1.735-.337 1.911-1.264 2.899-3.081 1.617-2.109-1.741-2.778-5.525-4.598-7.704-2.353-2.79-4.032-4.69-6.843-7.111-8.972-7.845-19.936-13.823-30.63-18.988-2.006-.772-2.047-.912-4.764-1.457-4.382-.853-7.676-3.305-11.781-4.337a148.954 148.954 0 0 0-29.325-2.936c-14.313 0-28.646 2.126-42.148 6.68-5.303 1.864-10.752 2.583-15.48 5.379-2.306 1.106-6.598 2.769-8.907 3.878-.678.362-1.531.66-1.891.66-.965.03-1.77 1.056-2.604 1.519-4.829 1.558-7.507 3.596-12.388 6.221-4.701 2.265-7.315 5.459-11.4 7.704-4.704 2.53-8.678 8.511-12.887 11.779-3.232 2.406-5.539 6.37-8.067 9.343-5.297 6.45-9.575 14.61-12.224 22.541-.914 3.223-2.28 6.908-1.675 10.314.368 1.498-.549 1.741.091 3.145.436.964.693 3.575 1.232 4.395.222.257.404.819.407 1.256-.162 1.43 1.554 2.906 1.471 4.298 1.035 3.138 3.85 8.366 6.062 10.95.457.472.849 1.115.87 1.428.082.779 1.729 2.758 2.118 3.404 7.851 11.269 19.627 20.241 31.654 26.691 12.222 5.698 25.342 9.565 38.77 11.579 1.434.687 9.693.376 10.876 1.069.283.239.988.24 2.613-.002a7.34 7.34 0 0 1 1.535-.175c1.625 0 2.586.64 4.271.611l-.005-.041c1.669-.23 2.603-.476 4.523-.066.663.129 1.133.195 1.489.196Zm-88.669-173.164-.01-.002c-2.247 0-2.497-.304-4.343-.809-3.126-.678-4.788.443-8.319-.079-1.109-.304-10.789-.425-9.034-1.846 1.056-.637 30.984 2.113 21.706 2.736Z"/><path d="M191.415 269.61a.422.422 0 0 1-.214-.082l-.002-.007c-.249-.598.402-1.668.788-2.191.586-.658.235-1.417 1.033-1.855.772-.386.401-.965 1.047-1.46.423-.346.457-.326.32.177-.237 1.556-1.404 2.304-1.953 3.808-.24.59-.545 1.637-1.019 1.61Zm-3.288-2.414c-.677-.054-1.037-.705-1.037-1.46.031-1.072-1.536-2.251-1.433-3.369.186-2.002 1.48-4.456 2.055-6.523.572-1.496.573-1.495-.193-2.407-.498-.489-.65-1.036-.65-1.616 0-.958.423-2.012.4-3.047.403-2.434 3.455-6.341 4.021-8.78.475-1.324.475-1.361-.132-2.007-1.933-1.873 3.81-5.709 2.146-9.858-.137-.621-.393-.861-.702-.861-.92 0-2.313 2.126-2.459 2.784-.477 2.004-1.622 3.454-2.586 5.29-.386.929-2.051 2.711-2.166 3.701.023.797-.849 1.544-.849 2.334-.003.331-.206.773-.449.976-1.461 1.561-1.464 3.265-2.668 5.358-.775 1.776-2.04 2.322-2.3 3.792.08 1.77-1.402.778-1.56-.452a2.05 2.05 0 0 1-.063-.511c0-1.198 1.074-1.98 1.292-3.292a2.9 2.9 0 0 0 .206-1.11c0-.898-.325-1.577.55-2.507 1.692-1.827 1.462-3.903 2.958-5.964.852-1.215 1.581-2.645 2.239-3.628.549-.927.204-2.201 1.142-3.211 2.204-2.496 2.598-3.997 3.616-7.483 1.101-3.732 2.624-4.994 3.853-8.285.861-2.568 2.495-4.823 3.447-7.256 1.209-2.888 2.786-7.244 4.659-9.763 1.432-1.104 1.36-3.686 2.207-5.136 1.101-1.853 1.848-4.198 2.797-6.082 11.646-24.446 23.107-49.036 33.044-74.259 6.788-16.677 12.47-34.037 19.224-50.665 2.244-4.927 4.068-10.265 6.999-14.84.429-.543 1.504-.692 2.8-.692 2.004 0 4.54.358 6.019.175 7.294-.029 13.536.59 18.738-5.295 2.547-2.425 2.569-2.433 4.07-2.436.132-.02.257-.027.377-.027 2.379 0 1.747 3.788 2.77 5.599 1.807 4.526 3.543 8.894 5.358 13.241 3.56 9.476 8.085 19.156 10.985 28.784 1.781 3.766 3.429 9.365 5.145 13.225 0 .827.611.78.574 1.658.057 1.209.558 1.638 1.078 2.979.973 2.873 1.861 5.593 2.904 8.43 1.905 5.338 4.072 9.954 5.854 15.384.094 1.444 1.784 3.05 1.31 4.039-.255.306-.252.555.011 1.058 1.001 1.336 1.556 2.831 2.366 4.31.815.798.218 2.679.999 3.351 2.545 3.74 4.271 8.857 6.164 13.112.575 1.158.989 2.158.929 2.218-.429.177-1.156-.35-1.331-.865-.452-.964-2.089-2.188-2.318-3.426a1397.43 1397.43 0 0 1-6.889-14.038c-1.852-4.258-3.342-9.375-5.73-13.287-.898 2.396 3.906 10.392 4.87 13.434 2.199 5.845 5.559 11.997 7.075 17.882 1.263 1.373 1.797 3.929 2.527 5.556 1.432 1.607 1.956 4.339 2.567 6.289 1.842 2.491 2.54 5.115 3.99 8.003.514 1.244 1.426 2.721 1.466 3.665-.477.003-.937-.879-1.621-1.031-1.235-.581-1.143-2.356-2.173-3.406-1.06-1.306-.952-2.104-1.573-3.517-.44-1.04-3.162-4.47-3.154-1.505-.085.844 2.497 5.464 2.623 6.207 1.129 1.71 1.354 5.591 3.687 5.997 1.072.188 5.553.642 6.571.865.437.106.642.026.642-.243.032-1.639-2.221-3.216-2.704-4.668-1.244-2.645-2.505-6.115-3.737-8.8-.378-1.965-2.658-4.132-1.955-6.142.412.203 1.38 2.868 1.812 3.142 1.244 1.673 1.514 4.338 2.718 5.997 1.015 1 .93 2.592 1.662 3.862 1.275 2.484 1.722 3.409 3.049 6.068.474.978 1.153 1.962 1.505 2.185 1.035.612 7.409.997 8.607 1.158 2.517.529 5.779 1.121 8.047 2.279 1.698 1.724-.383.836-1.292.745-1.153 0-2.915-.332-4.141-.652-1.885-.443-4.749-.304-6.862-.722-1.558-.111-2.64-.769-3.467-.197.218 2.404 6.603 2.007 8.331 2.458 3.439 1.074 8.051 1.624 11.42 2.85-.389-.93-.769-1.858-1.145-2.788-.607.068-1.704-.242-.944-.706.14-.101.359-.146.599-.155-.143-.359-.291-.718-.433-1.076-2.84-8.209-3.133-17.609-3.133-26.802 0-4.135.06-8.226-.025-12.149 0-1.267-.005-2.534-.005-3.803 0-8.442.241-16.944 2.731-24.739 6.571-25.163 24.733-46.848 47.137-59.756 8.99-5.656 19.92-9.517 30.151-12.274 7.924-1.995 15.617-3.768 23.956-4.1 1.73-.054 3.505-.082 5.312-.082 18.095 0 39.703 3.127 52.931 15.171 2.185 1.75 2.284 1.884 2.416 3.188.243 1.847.383 5.216.383 8.376 0 2.433-.083 4.744-.261 6.137-.208.626-.274 1.298-.288 1.995-.014.864.057 1.767.057 2.648 0 1.055-.1 2.083-.575 3.003-.14.69-.111 1.208.089 1.417.226.475.3 1.171.286 1.926-.02 1.023-.196 2.163-.368 3.015-.729 3.139-1.452 4.331-2.404 4.313-2.482-.045-6.506-8.276-16.157-11.624-7.286-3.394-16.491-5.082-24.62-5.949-4.218-.403-9.032-1.108-13.55-1.194-.303-.003-.61-.004-.911-.004-7.028 0-14.715 1.1-21.601 2.052-4.197 1.43-9.716 3.389-14.163 4.164-2.819.337-4.113 2.361-6.904 2.416-1.218-.072-1.41.77-2.466.999-.817.094-2.199 1.266-2.908 1.469-2.576.886-5.72 3.064-7.942 4.611-3.995 1.779-7.698 4.627-11.507 6.666-1.647.881-5.91 5.16-7.705 6.398-7.698 6.128-13.902 14.818-18.477 23.32-2.817 4.967-5.209 9.869-7.025 15.302a22.978 22.978 0 0 0-1.056 6.98c0 8.975 4.804 17.775 9.03 25.49 5.965 10.711 14.754 20.011 25.122 26.791 6.806 4.824 13.35 8.991 21.022 12.085 16.759 7.249 35.66 10.188 54.286 10.188 5.742 0 11.446-.277 17.042-.795 3.589-1.215 8.629-.694 12.106-2.438 8.167-2.088 16.561-4.594 23.787-8.955 5.49-4.069 10.409-7.209 15.087-12.499 3.297-3.425 4.929-6.617 7.059-10.257 1.596-2.517 4.324-7.765 5.079-10.676 4.861-10.002 7.406-21.826 7.263-32.978a14.036 14.036 0 0 1-.007-.493c.023-1.172.241-3.23.275-4.986v-.438c0-1.121-.092-2.06-.395-2.474-.357-.69-.412-1.063-.195-1.274.52-2.425 1.275-3.709 1.289-6.889a14.644 14.644 0 0 1-.006-.697c.04-2.313.797-4.624 2.073-1.773.723 1.687.718 5.334.88 7.116-.097 10.339-.911 28.303-1.5 39.003-1.604 25.504-8.732 52.742-30.217 68.409-11.464 7.863-25.165 12.417-38.904 14.035-3.883.852-9.489 1.024-15.053 1.024l-.055-.031c-4.855 0-9.678-.13-13.307-.05-7.434-.309-13.111-.981-19.948-2.273-2.522-.992-6.493-1.364-8.984-2.425-1.361-1.095-4.266-1.047-5.71-1.962-5.079-.969-9.416-2.922-14.395-4.783-2.913-1.17-4.593-2.655-7.206-3.778-.821-.14-2.724-1.324-3.122-2.039-.555-.964-3.93-2.382-4.931-2.843-2.451-1.392-5.032-3.536-7.377-4.986-4.818-3.931-10.176-9.049-14.385-13.736-1.945-2.179-2.429-4.199-4.207-6.012-1.221-.503-1.38-2.626-2.53-3.335-3.164-4.894-5.743-10.263-8.051-15.7-.379-.074-.752-.082-1.103.032-5.027-.326-10.377-2.162-15.596-2.294-.606-.04-1.252.158-1.258.75.026.703-.608.694-.574 0-.086-.858-2.389-1.903-3.169-1.408-.458.157-1.35.212-1.976.12-.775-.023-3.85-.924-3.85.034 0 1.499 2.017.968 2.583 1.526.1.166.529.221.97.129.131-.008.257-.011.377-.011 1.475 0 2.121.599 4.475.734 3.377.297 2.68.97 5.828 1.251 2.505.194 2.465.431 4.473 1.005 2.547.489 5.009.75 7.145 2.203.623.248 3.414 1.213 1.41 1.519-2.096-.484-6.339-2.009-8.644-.856.215 1.978 7.669 2.371 9.236 3.235 1.041.478 3.168 2.026 1.215 2.561-.232.069-.494.084-.763.084-.946 0-2.007-.197-2.436.826-.463 1.465-4.534 1.084-5.869.927-1.358-.049-2.842-1.375-3.883-.829-1.08.621-2.793.02-.992 1.742 2.219 1.824 5.608 2.004 8.31 3.208 1.719.846 4.879.314 6.017 1.677.443.472.631.92.631 1.326 0 1.793-3.593 2.851-5.075 1.753-1.807-.523-3.446-.951-4.572-.951-.952 0-1.533.305-1.533 1.115 0 .78.535 2.024 1.796 3.914.712 1.101.757 3.752 1.415 4.793.194.203 1.986 6.016.49 4.586-.975-1.35-.742-3.779-1.869-5.161-.96-1.312-.874-4.299-2.052-5.614-1.087-1.404-1.033-2.725-2.236-3.906-.692-.666-1.136-.822-2.425-.876-1.622-.029-6.059-1.631-4.012 1.303.638 1.301 2.087 4.071 2.25 5.547-.097.263.118.85.515 1.385.987 1.352 1.644 3.312 2.373 4.924 2.339 5.917 4.734 11.827 7.004 17.723.835 2.694 2.317 6.093 2.929 8.998.366 1.664 1.237 2.149 1.471 3.833-.111 1.101 2.517 4.917-.156 3.476-.489-.286-.894-.409-1.494-.409-1.959 0-2.394.228-2.809-.261-.663-.792-2.047-3.574-2.236-4.675-.218-1.392-1.486-2.414-1.426-3.9.086-1.407-.833-1.446-.856-2.693.051-1.05-1.265-2.409-1.428-3.358-.269-1.11-1.791-1.086-1.66.495-.02.091-.025.187-.025.293 0 1.206 1.138 3.374 1.281 4.266-2.557.091-3.202-5.568-4.698-7.404-1.47-3.669-3.612-7.497-5.065-11.2a2.977 2.977 0 0 1-.234-1.201c0-.761.166-1.31-1.038-2.414-1.815-1.655-1.94-2.965-2.869-4.895-.555-.777-1.121-1.067-1.344-.163-.072.795.854 1.758.962 2.636 1.064 3.077 2.193 5.593 3.674 8.573 2.17 5.928 4.584 12.222 6.875 18.064.735 1.343.715 1.85-.477.749-.44-.423-.804-1.056-.804-1.408-.12-1.115-1.57-2.37-2.059-3.483-.452-1.035-2.786-6.125-3.976-3.946a1.223 1.223 0 0 0-.154.616c0 1.06 1.096 2.383 1.507 3.269.647 1.192.988 2.895 1.54 3.896-.052.518 1.214 1.769 1.017 2.309-.034 1.021 1.016 2.014 1.33 3.324.958 3.271 2.305 6.029 3.177 9.254.171.904.151.927-.824.927-.781 0-1.055-.146-1.247-.652-.137-.36-.569-.802-.96-.976-1.387-.855-1.505-2.994-1.948-4.795-.429-2.042-.546-2.761-2.173-3.47-1.298-.32-2.715-4.201-3.072-5.385-.386-1.533-1.753-4.031-2.227-5.572-3.186-9.216-8.677-17.796-12.252-26.875-1.192-2.165-3.674-7.979-4.861-10.126-2.201-.709-4.646-.881-7.397-1.001-1.581-.192-2.585-.25-3.48-.25-1.447 0-2.62.161-5.508.216a112.69 112.69 0 0 0-6.977-.2c-7.409 0-14.585.586-22.191.586-6.643 0-13.675.075-20.832.075-13.316 0-27.058-.257-39.485-1.735-1.55-.312-2.631-.472-3.405-.472-2.628 0-1.756 1.815-3.881 5.512-.715 1.496-2.061 3.988-2.745 5.438-.674.809-.815.029-.429-.4.172-.171.322-.771.327-1.326.02-1.404.887-2.577 1.628-3.755.352-.535.64-1.332.64-1.766-.025-1.044 1.193-2.151 1.222-3.186.34-1.041-1.493-1.419-1.971-.942-1.298 2.082-2.826 5.196-3.921 7.558-6.302 12.997-13.096 25.681-19.376 38.677-1.244 2.757-2.428 3.866-3.712 5.996-.595.853-.909 2.615-1.71 3.324-1.627 1.459-1.457 4.783-3.498 5.824l.013.034Zm6.512-4.035v-.009c.046-1.924 1.548-4.768 2.529-6.563.984-1.776 2.904-3.586 3.279-5.81.995-3.215 2.985-6.349 4.629-9.191 1.873-3.597 3.889-8.109 6.105-11.575 1.276-1.392 4.893-10.735 6.591-11.359-.643 3.194-3.629 7.327-4.892 10.358-2.474 5.37-5.603 11.278-8.483 16.531-2.079 3.757-3.7 7.677-5.917 11.343-.963 1.567-2.225 5.24-3.841 6.275Zm171.059-4.663-.005-.002c-.963-.524-1.063-2.898-1.73-3.81-.474-.769.58-.151.843.415.397.581 1.249 2.805.892 3.397Zm329.44-.67c-4.979-.377-14.96-.762-19.907-1.7-.235-.095-1.277-.141-2.309-.107-.209.02-.405.029-.6.029-2.124 0-3.297-1.096-5.444-1.396-10.38-1.701-20.6-4.457-30.102-9.072-4.566-2.005-9.364-5.281-13.579-7.818-.664-.183-3.674-3.265-4.343-3.528-2.088-1.138-4.619-4.663-6.632-5.91-7.303-6.411-13.147-14.978-17.465-23.585-1.847-4.978-4.255-9.431-5.133-14.581-2.045-6.262-2.709-13.039-3.401-19.728-.701-8.97-1.81-18.283-1.81-27.324 0-18.681 7.739-37.01 20.629-50.735 3.389-4.407 4.209-1.545 7.375-3.976 6.688-5.313 5.692-2.93 12.192-5.095 1.436-.4 1.894-1.529 2.818-1.932 4.217-2.19 8.034-5.693 12.655-7.209 2.062-.754 3.433-2.692 6.144-2.892 3.497-.503 2.58-1.862 5.805-2.743 3.798-1.158 5.059-3.291 9.003-4.034 2.77-.083 2.168-1.807 4.073-1.533.803.149 1.02.064 1.426-.556 2.004-1.787 4.999-2.276 7.71-2.591 2.445-.566 4.682-1.044 6.718-2.379.735-.449 4.823-.738 5.47-1.376 1.718-.969 4.158-.646 6.18-1.435 2.562-1.046 11.434-.201 12.072-2.861-.729-1.75-3.843-.463-4.434-2.402-.678-.998-1.854-1.285-3.163-1.285-1.859 0-3.981.592-5.302.595a1.097 1.097 0 0 0-.302-.039c-1.04 0-3.42.9-4.052.568-.326-.131-1.656-.232-2.954-.229h-.275c-1.361 0-1.871-.111-1.871-.268 0-.406 3.348-1.123 4.444-1.083 2.015.071 1.285-.975 3.144-1.203.209-.046.438-.062.681-.062 1.459 0 3.461.634 4.593.234 1.127-.515 4.215.535 5.204-.188.692-.578 2.747-.194 3.299-.729.069-.106.288-.161.588-.161 1.198 0 1.608.213 2.2-.327 4.91-1.836 12.043-1.622 17.782-1.367 6.045.306 9.993 1.006 15.721 1.392 1.412.289 5.12 1.039 6.284 1.305.795.503 2.771.809 3.869.961 2.565.268 4.459 1.754 7.041 2.2 1.458.183 1.941 1.165 2.976 1.416 1.807.292 3.761 1.49 5.542 1.973 2.042.73 4.832.914 6.714 1.88.197.235.772.427 1.281.427 1.112-.048 2.866.943 3.875 1.16 4.681 1.736 10.351 5.477 14.506 8.044 2.433 1.099 4.651 3.459 6.764 5.275 2.261 1.924 5.136 4.187 6.906 6.586 6.786 8.178 12.598 17.556 14.706 28.101 1.827 7.695 2.05 15.017 2.082 23.427.137 2.759.186 4.102.186 5.16 0 1.585-.112 2.516-.218 6.605-.063 6.871.14 12.687-1.344 18.695-.835 4.961-1.26 10.804-3.353 15.293-.164 1.739-.867 3.853-1.376 5.431 0 .718-.926 1.063-.852 1.858-1.61 5.124-4.623 9.862-7.683 14.285-6.705 11.352-16.651 22.153-26.628 30.596-1.652 2.011-3.442 3.133-5.589 4.923-1.256 1.298-1.972.846-2.695 1.93-.146.391-.439.71-.657.71-.692.112-1.407 1.296-2.277 1.342-.477.095-.939.441-1.117.836-1.407 1.544-4.117 2.936-5.932 4.114-22.742 13.187-41.852 17.225-67.873 18.075l.014.013Zm-310.775-2.933c-1.364-.638-3.454-12.152-.903-5.701.145 1.418 2.202 4.421.901 5.696l.002.005Zm326.103-2.332c.912-.826 1.18-.032 2.075-.536.18-.08.341-.113.49-.113.692 0 1.222.654 2.543.254 1.475-.377 6.294.089 7.306-.883 1.35-.918 2.323-.845 3.844-2.003 2.582-1.658 5.435-1.055 8.083-2.49.735-.481 2.439-1.031 3.219-1.408.801-.443 2.409.25 3.093-.49 2.101-1.467 5.267-2.607 7.594-3.622 1.639-.646 3.179-.611 4.7-1.489.432-.338 1.078-.618 1.435-.618.698.092 2.306-1.475 2.815-1.664 2.062-1.089 1.368-.137 3.015-.188.81-.232.936-1.349 1.917-1.292 1.143-.043 3.629-1.831 4.65-2.355 4.812-3.297 9.601-6.731 14.022-10.503 1.71-1.287 2.368-2.05 2.368-2.456 0-.269-.295-.38-.77-.38-.929 0-2.542.424-3.957.904-.824.129-7.136 5.32-7.731 5.651-.183.077-.675.487-1.09.911-.718.872-2.518 1.299-3.067 2.168-.638.915-1.875.84-2.827 1.712-3.703 2.445-7.694 4.547-11.64 6.523-5.259 2.879-11.134 5.069-16.868 6.548-2.587.729-4.862 1.307-7.433 2.245-1.387.581-2.851.28-4.166.949-.878.709-7.456.526-8.648.752a2.686 2.686 0 0 1-.463.038c-1.439 0-3.67-.875-4.823-.429a9.53 9.53 0 0 1-2.055.286c-1.475.02-1.272.477-2.844.786-1.908.592-4.998-.131-6.396 1.276a1.127 1.127 0 0 0-.123.465c0 1.238 3.463.666 5.268.797h1.278c2.774 0 3.694.073 5.17.634l.016.02Zm-503.117-6.909c-.186 0-.261-.091-.261-.243 0-.5.808-1.634 1.117-2.175 1.209-1.475 1.756-5.292 3.623-5.833-.008 1.093-.918 2.152-1.33 3.202-.781 1.521-1.021 4.388-2.843 4.995-.12.034-.22.05-.297.05l-.009.004Zm277.549-2.545h.004a27.643 27.643 0 0 1 3.697-.152c.818.014 1.643.049 2.593.066 1.249.023 2.708.013 4.661-.107 5.642-.203 10.675-1.064 15.362-1.51 5.63-.503 10.253-2.381 15.434-3.98 2.848-1.455 7.042-2.141 9.747-3.662 2.476-2.093 6.109-3.475 9.132-4.427a.736.736 0 0 1 .297-.059c1.172.02 1.133 3.42 2.663 1.241.392-.5.769-.622 1.16-.619.384.008.786.141 1.226.149.607.009 1.29-.209 2.117-1.296 2.536-2.147 4.595-5.637 6.843-7.776 1-.641 1.118-1.722 1.87-2.645.547-.975 1.561-.595 2.153-1.092.463-1.087-3.42-2.2-3.803-.516-1.682 2.542-4.288.522-6.33 3.072-5.044 5.03-11.288 9.542-17.762 12.215-.935.561-5.318 1.192-6.373 1.801-2.016.923-2.181 1.601-4.872 1.63a14.15 14.15 0 0 0-.35-.005c-2.13 0-2.646.971-4.227 1.272-1.536.474-3.527 1.438-5.297 1.641-1.093.306-5.358.589-6.274 1.247-.434.666-4.554.143-5.206.54-2.985.249-6.846.47-10.741.47-4.389 0-8.848-.288-12.145-1.151a1.228 1.228 0 0 0-.708-.234c-.872-.014-1.78.792-2.97.595-.786-.003-1.711-.154-2.057-.332a2.365 2.365 0 0 0-.813-.14c-1.135-.023-2.422.537-3.834.274-1.73.189-7.594-1.393-11.391-1.464l-.263-.002c-1.616 0-2.805.3-3.054 1.178-.009.437.292.647 1.321.924 1.556.386 2.488 1.052 3.878 1.546.346.066.63.095.879.098 1.438.028 1.559-.824 4.616-.241 5.368.657 13.609 1.293 18.817 1.451Zm-105.285-1.567c-.626 0-1.187-2.798-1.453-3.421-.975-3.326-2.959-6.284-3.737-9.45.769-.208.699 1.082 1.362 1.408.595.495 2.189 3.03 1.869 3.871-.106.549.055 1.049.538 1.687.872 1.075.492 1.499 1.169 2.554.509 1.055 1.037 2.077.536 3.138-.094.137-.19.198-.281.198l-.003.015Zm309.924-2.145a3.004 3.004 0 0 1 1.416-.323c.867 0 1.775.263 2.993.178 1.541-.101 4.168-.117 5.406-.486.537.074 1.076.109 1.616.109 1.479 0 2.982-.245 4.609-.468.295-.057.55-.08.768-.08 1.598 0 1.41 1.315 3.823.212 5.15-1.496 10.994-2.008 16.206-3.109 1.673-.431 2.042-.666 3.649-1.257 1.593-.624 2.927-.233 4.446-1.145 3.099-1.352 6.748-2.672 9.796-4.03 2.056-.554 4.273-1.682 6.137-2.631 1.719-.592 4.054-.465 5.504-2.075.535-.475 1.154-.859 1.371-.859.524.009 2.599-1.904 3.077-2.004.809-.386 2.859-2.657 3.925-2.866 4.464-2.51 8.501-5.982 12.91-8.618 1.001-1.021 1.426-.357 2.298-.861 1.152-.795 1.594-1.036 3.058-2.474 1.587-1.542 1.587-1.54.992-2.135-.489-.489-.686-.534-1.09-.254-1.266.781-2.199 1.25-3.832 2.513-5.742 4.739-11.696 9.025-17.962 12.996-1.009.589-1.78 1.021-2.57 1.601-.62.452-2.683.934-3.28 1.514-1.902 1.59-4.892 2.312-7.005 3.513-.923.183-2.591 1.029-3.294 1.675-2.808 1.341-7.024 2.306-9.995 3.381-1.958.735-3.836 1.294-6 1.857-.787.109-1.62.37-1.858.579-1.255.704-2.179.292-4.286.718-2.98.577-4.842.862-7.461 1.414-.683.34-2.819-.182-3.539.241-3.22.632-10.117 1.433-13.251 1.178-.371.069-.88.095-1.469.095-2.267 0-5.727-.429-7.385-.658-2.388-.346-2.39-.346-3.134.397-.366.295-.515.543-.515.752 0 .995 3.374 1.162 3.914 1.396l.012.014Zm-477.459-3.456c-.026-.007-.042-.029-.052-.061.969-2.122 2.46-4.623 3.312-6.716.095.091.134.327.134.647 0 .987-.378 2.732-.547 3.072.057.169-2.415 3.173-2.847 3.058Zm545.989-8.671c.103.003.214-.005.334-.018.406-.097.998-.426 1.324-.726.969-.804 2.27-.376 3.383-1.263.58-.391 1.335-.713 1.687-.713 1.015-.062 2.731-1.524 3.769-1.805 4.978-3.005 8.026-5.263 12.644-9.481 3.811-4.472 4.812-.806 7.551-3.991.332-.764 1.689-1.856 2.516-1.864 1.061.003 1.448 1.037 2.64.156 1.762-.978 3.577-2.865 4.444-4.627 2.879-2.407 2.568.322 5.344-4.402 1.001-1.504 2.249-2.731 2.529-4.21-.085-1.12-.784-1.641-1.868-.463-2.056 1.619-6.192 1.881-8.682 2.793-1.413.346-2.202.617-2.679 1.735-.426.923-2.079 1.814-2.582 2.817-1.275 1.644-2.562 1.695-4.418 3.696-2.231 2.148-2.181 2.142-4.003 3.98-2.859 2.388-5.971 5.009-9.145 7.091-2.359 1.924-4.512 3.667-7.079 4.922-.898.366-1.045 1.174-1.749 1.36-.523.009-1.31 1.208-1.905 1.142-.978.175-2.252 1.591-3.432 1.803-1.719.244-2.223 2.034-.623 2.068Zm-63.572-1.064c.346 0 .582-.062.784-.187.288-.183 1.49-.326 2.674-.326 2.997-.163 2.163 1.046 5.174.068 5.125-1.439 11.443-1.378 16.527-2.759 6.142-1.295 12.181-2.511 17.9-5.111 4.181-1.489 8.445-2.615 12.299-4.808 3.843-2.165 7.75-4.003 11.282-6.673 4.875-2.823 10.051-6.562 14.406-10.013 2.273-1.075 5.996-5.464 8.389-6.371.978-.546 2.665-3.429 3.826-4.109 2.124-1.913 4.532-5.347 6.657-7.209 4.206-5.473 8.945-10.107 12.448-16.392 4.149-6.014 6.089-10.61 8.651-17.156.737-2.399 2.141-5.566 2.624-7.919a7.884 7.884 0 0 1-.004-.293c0-.866.165-2.715.165-4.314 0-1.281-.106-2.402-.492-2.742-.326-.644-.468-1.311-.357-1.662.026-.112.037-.211.037-.311 0-.761-.737-1.256-.94-2.116-.884-1.833-2.029-5.382-3.247-6.977-.475-.467-2.048-2.641-2.003-3.37-.045-.769-1.51-1.829-1.739-2.559-.137-.357-.447-.728-.69-.819-.56-.177-1.183-1.827-1.735-2.01-.651-.2-1.595 1.01-2.181 1.145-.861.317-.592 2.689.56 2.277.315-.12.39.037.318.663.029 1.478-1.913.196-2.05 1.68-.326 1.853-1.229 2.813-2.99 1.569-2.045-1.687-2.693-5.357-4.457-7.47-2.282-2.705-3.909-4.545-6.634-6.893-8.699-7.606-19.329-13.404-29.697-18.411-1.945-.749-1.985-.883-4.619-1.412-4.249-.826-7.439-3.202-11.42-4.203a144.44 144.44 0 0 0-28.432-2.849c-13.877 0-27.775 2.063-40.866 6.478-5.141 1.807-10.424 2.504-15.008 5.215-2.236 1.072-6.397 2.685-8.636 3.76-.658.351-1.484.64-1.832.64-.936.028-1.716 1.024-2.525 1.473-4.681 1.51-7.278 3.486-12.011 6.031-4.558 2.196-7.092 5.293-11.052 7.469-4.561 2.454-8.414 8.252-12.494 11.421-3.134 2.333-5.372 6.176-7.822 9.059-5.136 6.253-9.284 14.161-11.852 21.85-.886 3.126-2.209 6.701-1.623 10.004.357 1.452-.532 1.688.088 3.049.424.935.671 3.464 1.195 4.259.214.249.392.796.395 1.22-.158 1.386 1.506 2.816 1.426 4.166 1.003 3.042 3.731 8.112 5.875 10.616.444.458.825 1.08.845 1.383.08.755 1.675 2.675 2.053 3.301 7.611 10.926 19.03 19.625 30.691 25.879 11.85 5.524 24.568 9.272 37.587 11.225 1.39.666 9.4.365 10.546 1.037.275.232.959.233 2.534-.002a7.092 7.092 0 0 1 1.485-.168c1.576 0 2.509.621 4.141.593l-.002-.041c1.619-.223 2.523-.461 4.384-.064.644.125 1.099.188 1.444.189ZM364.059 206.85c1.482.014.194-2.051-.432-2.386-1.621.269-1.505 2.232.282 2.375l-.002.002c.053.005.104.009.152.009Zm-80.267-16.828c.191.001.386-.002.593-.012l.004-.006c4.861-.241 10.931-.045 15.83-.688 1.887.3 3.07.392 4.313.392 2.054 0 4.265-.244 10.072-.172 1.364-.04 2.597-.055 3.692-.055 1.827 0 3.284.037 4.402.037 2.268 0 3.127-.147 2.75-1.045-1.547-.237-4.201-.308-7.207-.308-6.219 0-13.951.315-16.565.193-4.149-.115-8.907.043-13.459.043-2.882 0-5.68-.059-8.185-.293a8.611 8.611 0 0 0-1.66-.175c-1.835 0-2.708.754-5.267.699-1.93.049-2.427.145-2.427.479 1.318 1.224 4.02.519 7.143.702a33.134 33.134 0 0 1 1.523-.036c2.069 0 3.113.235 4.448.245Zm72.652-2.373c.995.009.811-.6.213-1.16-.535-.52-6.182-1.158-7.417-.981.663 2.23 5.098 1.812 6.986 2.13h.004c.077.006.147.011.214.011Zm-35.02-2.595.01-.005c1.092 0 1.88-.124 2.406-.808.08-.54-2.014-.606-2.574-.692-9.465.263-10.29.352-10.29.713 1.25 1.209 3.748.513 6.859.787.475-.028.922-.036 1.339-.036.858 0 1.607.041 2.25.041Zm-61.796-3.828-.009-.011c17.331-.333 44.465.006 61.862-.911.06-.274.093-.53.093-.753 0-.795-.498-1.227-2.331-1.192-1.333-.043-5.777-.256-6.7-.645.122-.466 7.005-.416 7.142-.691 1.267-.185.521-.695.087-1.782-2.591-7.011-5.989-13.855-8.882-20.706-1.75-4.329-3.929-8.445-5.513-12.826-.56-2.37-2.495-5.406-3.367-7.896-1.067-3.077-2.061-5.797-3.188-8.562-1.266-4.192-3.363-7.888-4.704-12.009-.892-2.244-2.018-6.695-3.308-8.757-.612-.886-.377-2.034-.84-2.672-.155-.094-.284-.382-.284-.631-.189-.978-.917-1.401-1.249-2.713-.546-1.996-1.73-3.203-1.893-5.181 0-.424-.223-.854-.531-1.02-.913-.709-.705-1.986-1.42-3.158-.637-1.061-1.156-4.139-2.043-1.869-.066.567-1.233 1.319-1.142 2.037 0 .36-.124.732-.281.826-.455.515-.215 1.601-.716 2.319-.797 2.121-1.802 3.692-2.497 5.882-.449 1.321-2.082 3.02-2.611 4.266-.518.97-.858 5.145-1.433 6.04-.469.623-1.524 4.2-2.027 4.774-.541.71-1.264 3.604-2.007 4.287-.361.392-.738.971-.838 1.285-.867 2.471-1.805 5.59-2.754 8.112-.209.69-.665 1.438-1.011 1.667-.977.752-.877 2.519-1.73 3.56-.857 1.424-1.9 2.658-1.923 4.237.172 2.196-2.4 4.943-2.838 7.024-.125 1.147-.626 1.272-.728 2.132.105.332-.912 1.608-.863.702-.06-.698 1.289-2.069.642-2.729-.303-.481-.24-.741.432-1.762 1.315-2.368 1.499-4.267 2.499-6.798 3.458-6.454 6.545-13.515 9.239-20.32.406-.944.156-2.305.633-3.029.166-.166.275-.48.241-.695.111-1.77.748-4.223 1.535-5.962.28-.8 1.693-3.699 1.51-4.5-1.224-.131-1.481 1.164-1.878 2.357-3.855 9.528-7.549 19.35-12.004 28.546-3.58 10.245-9.159 20.083-13.611 30.086-1.959 3.545-2.248 4.945-4.253 8.791-.943 2.633-3.801 4.735-.27 4.927 5.911 1.335 13.112.346 19.065 2.025 1.018.32 22.754-.405 24.232.07.243.372 8.21-.632 7.704.234.194.804 3.675.294 4.143.706 1.41.358 1.978.672-.149.992-5.342.215-12.409.256-17.871.413-3.629-.017-5.581-.504-7.981-.504-.935 0-1.939.073-3.14.282-.297.209-9.444-.269-8.434.849 0 .356.079.727.184.845h-.062l.071.011Zm41.188-1.996c-.5-.01-.861-.139-.727-.656-.088-.194 1.468-.32 2.906-.32 1.336 0 2.573.104 2.328.359-.587.626-2.598.309-3.533.561l-.003.002c-.322.022-.672.06-.971.054Zm45.152-18.317c-.594.091-1.612-2.921-1.626-3.168 0-.449.086-.626.211-.626.412 0 1.267 1.829 1.158 2.195-.123.612.894 1.049.37 1.533v.004a.207.207 0 0 1-.113.062Zm142.065-.62c-3.402 0-6.783-.039-10.117-.125-2.699-.163-11.742-.847-14.555-1.213-4.049-.203-8.516-1.943-12.247-1.382a2.3 2.3 0 0 1-.892.184c-.913-.02-1.607-.686-2.305-1.283-.377-.432-.449-1.118-.374-4.941-.038-6.585 1.08-9.443.806-14.873.08-.695.41-13.057 1.405-12.619.918-.509 1.7-.687 2.461-.672 1.704.034 3.301 1.023 6.101 1.357 2.11.421 4.471.918 5.251 1.102 7.698 1.192 15.862 1.622 24.017 1.782 7.377.143 14.749.059 21.769.113 8.575.08 16.368-1.014 25.052-1.283 1.307-.151 3.245-.195 5.456-.195 2.602 0 5.581.062 8.343.062 3.435 0 6.534-.092 8.169-.495 2.711-1.001 5.743-.888 9.554-1.074 1.227-.006 2.151-.034 2.843-.034 2.282 0 2.109.288 2.307 2.504-.06.949.801 1.246.481 2.23-.906 1.964-2.483 1.291-2.025 4.379-.006.466-.124.704-.384.913-2.731 1.192-8.586 1.394-11.629 1.526a2.573 2.573 0 0 1-.472.034c-1.587-.026-2.75-1.532-4.051-1.426-1.387.489-2.739 1.727-4.575 2.059-1.632.561-3.214.13-4.309.865-.131.12-.193.227-.193.318 0 .495 1.68.646 3.819.686 1.985.04 4.36-.016 6.142.018 1.203.023 2.141.089 2.502.25.088.077.325.102.651.111 1.704.028 5.843-.605 3.876.722-.378.137-1.153.386-1.719.552-3.12.571-8.453.704-11.561 1.264-.5.652.626 1.876 1.367 1.807.983-.014 1.369-.605 2.484-.685 1.275-.243 1.275.525 2.436.29 1.487-.36 1.83-.566 3.846-.549 1.996.163 3.976.627 5.603 1.187.252.261.489.26 1.015-.009.561-.274 1.458-.462 1.624.152-1.747 1.159-12.591.606-14.822.818-1.658.008-1.856.08-2.876 1.069-1.01.978-1.054 1.09-.602 1.442.709.386 1.884.62 3.056.64 1.164.023 2.321-.162 3.013-.611.311-.097.906-.131 1.664-.131 2.634 0 7.284.456 8.605.356a18 18 0 0 1 .395-.004c1.656 0 2.473.291 2.436 1.4-.806.381-7.78.986-9.304.877-1.081-.034-3.201-.457-3.39.813.215.683 1.021.901 2.159.901 2.148 0 5.469-.79 8.208-.79 2.29 0 4.163.555 4.62 2.577-1.549 3.374-8.648 3.016-12.153 3.09-7.126 1.204-13.817 1.224-21.338 1.696-15.452 1.31-31.87 2.202-47.688 2.202l.045.046Zm-236.717-.772v-.005c-.155-.18-.22-.422-.22-.708 0-1.25 1.275-3.278 1.85-4.007.457-.221.746-3.27 1.455-2.752-.423 2.262-1.987 5.381-3.085 7.472Z"/></svg>