<svg viewBox="0 0 1000 660" xmlns="http://www.w3.org/2000/svg"><path d="m0 660h1000v-660h-1000z" fill="#eae3d8"/><path d="m308.385 157.119-4.82-10.286h-45.545l-4.821 10.286h-20.699l42.347-91.119h11.978l42.299 91.119zm-69.422-4.165h11.635l4.821-10.286h50.717l4.889 10.286h11.587l-38.437-82.788h-6.766zm21.09-20.7 20.7-44.518 20.533 44.518h-41.262zm34.751-4.165-14.061-30.458-14.138 30.458h28.248zm120.325 10.267v18.744h-75.631v-91.1h18.744v72.356h56.877zm-71.456 14.578h67.291v-10.393h-56.917v-72.356h-10.384v82.789zm-35.288 149.806-4.82-10.286h-45.545l-4.821 10.286h-20.699l42.347-91.11h11.978l42.299 91.12h-20.739zm-69.422-4.166h11.635l4.821-10.286h50.717l4.889 10.286h11.587l-38.437-82.778h-6.766zm21.09-20.699 20.7-44.518 20.533 44.518h-41.262zm34.751-4.165-14.061-30.458-14.187 30.458zm120.325 10.335v18.744h-75.631v-91.159h18.744v72.356h56.877zm-71.456 14.578h67.291v-10.462h-56.917v-72.355h-10.384v82.788zm109.462-68.248v72.355h-18.744v-72.355h-29.675v-18.745h78.222v18.745zm-44.254-4.166h29.675v72.356h10.414v-72.356h29.802v-10.413h-69.891zm105.825 4.166v17.443h56.877v18.744h-56.877v17.483h56.877v18.744h-75.621v-91.159h75.621v18.745zm-14.579 68.199h67.291v-10.413h-56.877v-25.764h56.877v-10.414h-56.877v-25.774h56.877v-10.413h-67.291v82.788zm-191.742 149.796-4.82-10.286h-45.545l-4.821 10.286h-20.699l42.347-91.109h11.978l42.299 91.119h-20.739zm-69.422-4.165h11.635l4.821-10.287h50.717l4.889 10.287h11.587l-38.398-82.779h-6.766zm21.09-20.7 20.7-44.518 20.533 44.518h-41.262zm34.751-4.165-14.061-30.458-14.187 30.458zm120.325 10.286v18.744h-75.631v-91.109h18.744v72.355h56.877zm-71.466 14.579h67.291v-10.414h-56.907v-72.355h-10.384zm109.472-68.249v72.355h-18.744v-72.355h-29.675v-18.695h78.222v18.695zm-44.254-4.166h29.675v72.356h10.414v-72.356h29.802v-10.364h-69.891v10.413zm105.825 4.166v17.443h56.877v18.744h-56.877v17.444h56.877v18.744h-75.621v-91.07h75.621v18.695zm-14.579 68.249h67.291v-10.414h-56.877v-25.774h56.877v-10.413h-56.877v-25.765h56.877v-10.413h-67.291zm135.246-86.944c20.172 0 32.668 12.496 32.668 32.667 0 15.234-7.294 26.166-19.653 30.458l19.653 27.984h-22.909l-18.089-25.901h-21.091v25.901h-18.744v-91.109zm-44 86.953h10.414v-25.911h27.465l18.128 25.902h12.624l-18.226-25.902 5.202-1.818c5.09-1.658 9.456-5.013 12.369-9.504 1.49-2.338 2.629-4.881 3.383-7.549.806-3.103 1.201-6.298 1.173-9.504.06-4.118-.601-8.215-1.955-12.105-2.403-6.743-7.709-12.049-14.452-14.451-3.89-1.354-7.987-2.016-12.105-1.956h-44v82.789zm44-72.355c6.121 0 10.678 1.564 13.533 4.556s4.556 7.549 4.556 13.533-1.564 10.413-4.556 13.405-7.422 4.557-13.533 4.557h-33.586v-36.071h33.586zm-29.421 31.865h29.421c4.821 0 8.458-1.046 10.541-3.255 2.083-2.21 3.383-5.73 3.383-10.541 0-4.81-1.173-8.458-3.383-10.677-2.21-2.22-5.73-3.295-10.541-3.295h-29.421zm134.073-43.598c11.326 3.861 20.222 12.756 24.083 24.082 3.818 12.114 3.818 25.11 0 37.224-3.861 11.326-12.757 20.222-24.083 24.083-12.114 3.818-25.11 3.818-37.224 0-11.345-3.848-20.26-12.746-24.131-24.083-3.818-12.114-3.818-25.11 0-37.224 3.86-11.326 12.756-20.222 24.082-24.082 12.129-3.829 25.144-3.829 37.273 0zm-35.796 3.911c-5.007 1.721-9.55 4.572-13.279 8.33-3.74 3.693-6.601 8.182-8.369 13.132-3.472 11.28-3.472 23.343 0 34.623 3.586 10.03 11.481 17.925 21.511 21.511 11.28 3.47 23.343 3.47 34.623 0 4.95-1.755 9.441-4.603 13.141-8.331 3.771-3.747 6.625-8.315 8.341-13.346 3.47-11.19 3.47-23.169 0-34.359-3.528-10.123-11.486-18.081-21.609-21.609-11.194-3.458-23.173-3.444-34.359.039zm30.311 9.631c7.687 2.295 13.707 8.297 16.026 15.977 2.429 8.596 2.429 17.696 0 26.292-2.309 7.685-8.322 13.698-16.007 16.007-8.596 2.428-17.696 2.428-26.292 0-7.685-2.309-13.698-8.322-16.006-16.007-2.43-8.596-2.43-17.696 0-26.292 2.308-7.685 8.321-13.698 16.006-16.006 8.597-2.425 17.698-2.418 26.292.019zm-39.962 29.157c0 18.089 8.722 26.811 26.811 26.811 18.088 0 26.81-8.722 26.81-26.811s-8.692-26.869-26.791-26.869-26.81 8.8-26.81 26.859zm-386.193 191.175-4.82-10.286h-45.545l-4.821 10.286h-20.699l42.347-91.119h11.978l42.26 91.119zm-13.532-29.03-14.061-30.458-14.187 30.458zm120.276 10.286v18.744h-75.631v-91.119h18.744v72.356h56.877zm38.006-53.611v72.355h-18.744v-72.355h-29.675v-18.764h78.222v18.764zm61.571 0v17.443h56.877v18.735h-56.877v17.443h56.877v18.734h-75.621v-91.119h75.621v18.764zm120.667-18.764c20.172 0 32.668 12.496 32.668 32.668 0 15.233-7.294 26.165-19.653 30.457l19.653 27.994h-22.909l-18.089-25.901h-21.091v25.901h-18.744v-91.119zm-29.421 46.474h29.421c4.821 0 8.458-1.047 10.541-3.256 2.083-2.21 3.383-5.73 3.383-10.541 0-4.81-1.173-8.457-3.383-10.677s-5.73-3.236-10.541-3.236h-29.421v27.73zm134.073-43.609c11.326 3.861 20.222 12.757 24.083 24.083 3.818 12.114 3.818 25.11 0 37.224-3.861 11.326-12.757 20.221-24.083 24.082-12.114 3.819-25.11 3.819-37.224 0-11.345-3.848-20.26-12.745-24.131-24.082-3.818-12.114-3.818-25.11 0-37.224 3.86-11.327 12.755-20.222 24.082-24.083 12.129-3.829 25.144-3.829 37.273 0zm-45.427 42.69c0 18.089 8.721 26.81 26.81 26.81s26.811-8.721 26.811-26.81-8.712-26.791-26.811-26.791-26.81 8.702-26.81 26.8z"/></svg>