<svg viewBox="0 0 1000 660" xmlns="http://www.w3.org/2000/svg"><path d="M0 660h1000V0H0z" fill="#eae3d8"/><path d="M308.385 157.119l-4.82-10.286H258.02l-4.821 10.286H232.5L274.847 66h11.978l42.299 91.119zm-69.422-4.165h11.635l4.821-10.286h50.717l4.889 10.286h11.587l-38.437-82.788h-6.766zm21.09-20.7l20.7-44.518 20.533 44.518h-41.262zm34.751-4.165l-14.061-30.458-14.138 30.458h28.248zm120.325 10.267V157.1h-75.631V66h18.744v72.356h56.877zm-71.456 14.578h67.291v-10.393h-56.917V70.185h-10.384v82.789zM308.385 302.74l-4.82-10.286H258.02l-4.821 10.286H232.5l42.347-91.11h11.978l42.299 91.12h-20.739zm-69.422-4.166h11.635l4.821-10.286h50.717l4.889 10.286h11.587l-38.437-82.778h-6.766zm21.09-20.699l20.7-44.518 20.533 44.518h-41.262zm34.751-4.165l-14.061-30.458-14.187 30.458zm120.325 10.335v18.744h-75.631V211.63h18.744v72.356h56.877zm-71.456 14.578h67.291v-10.462h-56.917v-72.355h-10.384v82.788zm109.462-68.248v72.355h-18.744v-72.355h-29.675V211.63h78.222v18.745zm-44.254-4.166h29.675v72.356h10.414v-72.356h29.802v-10.413h-69.891zm105.825 4.166v17.443h56.877v18.744h-56.877v17.483h56.877v18.744h-75.621V211.63h75.621v18.745zm-14.579 68.199h67.291v-10.413h-56.877v-25.764h56.877v-10.414h-56.877v-25.774h56.877v-10.413h-67.291v82.788zM308.385 448.37l-4.82-10.286H258.02l-4.821 10.286H232.5l42.347-91.109h11.978l42.299 91.119h-20.739zm-69.422-4.165h11.635l4.821-10.287h50.717l4.889 10.287h11.587l-38.398-82.779h-6.766zm21.09-20.7l20.7-44.518 20.533 44.518h-41.262zm34.751-4.165l-14.061-30.458-14.187 30.458zm120.325 10.286v18.744h-75.631v-91.109h18.744v72.355h56.877zm-71.466 14.579h67.291v-10.414h-56.907v-72.355h-10.384zm109.472-68.249v72.355h-18.744v-72.355h-29.675v-18.695h78.222v18.695zm-44.254-4.166h29.675v72.356h10.414V371.79h29.802v-10.364h-69.891v10.413zm105.825 4.166v17.443h56.877v18.744h-56.877v17.444h56.877v18.744h-75.621v-91.07h75.621v18.695zm-14.579 68.249h67.291v-10.414h-56.877v-25.774h56.877v-10.413h-56.877v-25.765h56.877v-10.413h-67.291zm135.246-86.944c20.172 0 32.668 12.496 32.668 32.667 0 15.234-7.294 26.166-19.653 30.458l19.653 27.984h-22.909l-18.089-25.901h-21.091v25.901h-18.744v-91.109zm-44 86.953h10.414v-25.911h27.465l18.128 25.902h12.624l-18.226-25.902 5.202-1.818a23.366 23.366 0 0012.369-9.504 28.431 28.431 0 003.383-7.549 36.533 36.533 0 001.173-9.504 35.26 35.26 0 00-1.955-12.105 23.833 23.833 0 00-14.452-14.451 35.261 35.261 0 00-12.105-1.956h-44v82.789zm44-72.355c6.121 0 10.678 1.564 13.533 4.556 2.855 2.992 4.556 7.549 4.556 13.533 0 5.984-1.564 10.413-4.556 13.405-2.992 2.992-7.422 4.557-13.533 4.557h-33.586v-36.071h33.586zm-29.421 31.865h29.421c4.821 0 8.458-1.046 10.541-3.255 2.083-2.21 3.383-5.73 3.383-10.541 0-4.81-1.173-8.458-3.383-10.677-2.21-2.22-5.73-3.295-10.541-3.295h-29.421zm134.073-43.598a38.601 38.601 0 0124.083 24.082 61.918 61.918 0 010 37.224 38.605 38.605 0 01-24.083 24.083 61.918 61.918 0 01-37.224 0 38.602 38.602 0 01-24.131-24.083 61.918 61.918 0 010-37.224 38.597 38.597 0 0124.082-24.082 61.908 61.908 0 0137.273 0zm-35.796 3.911a34.512 34.512 0 00-13.279 8.33 35.003 35.003 0 00-8.369 13.132 58.854 58.854 0 000 34.623 35.559 35.559 0 0021.511 21.511 58.878 58.878 0 0034.623 0 34.988 34.988 0 0013.141-8.331 34.527 34.527 0 008.341-13.346 58.004 58.004 0 000-34.359 35.123 35.123 0 00-21.609-21.609 57.996 57.996 0 00-34.359.039zm30.311 9.631a23.878 23.878 0 0116.026 15.977 48.343 48.343 0 010 26.292 23.891 23.891 0 01-16.007 16.007 48.362 48.362 0 01-26.292 0 23.89 23.89 0 01-16.006-16.007 48.323 48.323 0 010-26.292 23.886 23.886 0 0116.006-16.006 48.304 48.304 0 0126.292.019zm-39.962 29.157c0 18.089 8.722 26.811 26.811 26.811 18.088 0 26.81-8.722 26.81-26.811s-8.692-26.869-26.791-26.869-26.81 8.8-26.81 26.859zM308.385 594l-4.82-10.286H258.02L253.199 594H232.5l42.347-91.119h11.978L329.085 594zm-13.532-29.03l-14.061-30.458-14.187 30.458zm120.276 10.286V594h-75.631v-91.119h18.744v72.356h56.877zm38.006-53.611V594h-18.744v-72.355h-29.675v-18.764h78.222v18.764zm61.571 0v17.443h56.877v18.735h-56.877v17.443h56.877V594h-75.621v-91.119h75.621v18.764zm120.667-18.764c20.172 0 32.668 12.496 32.668 32.668 0 15.233-7.294 26.165-19.653 30.457L668.041 594h-22.909l-18.089-25.901h-21.091V594h-18.744v-91.119zm-29.421 46.474h29.421c4.821 0 8.458-1.047 10.541-3.256 2.083-2.21 3.383-5.73 3.383-10.541 0-4.81-1.173-8.457-3.383-10.677-2.21-2.22-5.73-3.236-10.541-3.236h-29.421v27.73zm134.073-43.609a38.603 38.603 0 0124.083 24.083 61.918 61.918 0 010 37.224 38.604 38.604 0 01-24.083 24.082 61.903 61.903 0 01-37.224 0 38.6 38.6 0 01-24.131-24.082 61.918 61.918 0 010-37.224 38.599 38.599 0 0124.082-24.083 61.908 61.908 0 0137.273 0zm-45.427 42.69c0 18.089 8.721 26.81 26.81 26.81s26.811-8.721 26.811-26.81-8.712-26.791-26.811-26.791-26.81 8.702-26.81 26.8z"/></svg>