<svg viewBox="0 0 1000 660" xmlns="http://www.w3.org/2000/svg"><path d="m0 660h1000v-660h-1000z" fill="#eae3d8"/><path d="m173.349 346.687-7.747-19.368h-52.71l-7.471 19.368h-30.021l63.916-163.387 63.916 163.387zm-18.677-47.314-15.356-39.429-15.356 39.429zm139.869-115.796h27.946v163.11l-77.474-88.542v88.542h-27.946v-163.387l77.335 88.818v-88.541zm51.326 163.11v-163.11h27.946v163.11zm177.36 0-13.696-75.26-37.63 75.537-37.354-75.537-13.696 75.26h-28.499l29.882-163.249 49.667 100.163 49.666-100.163 30.021 163.111h-28.361zm137.101-145.125c5.258 5.81 9.27 12.589 11.621 20.06 2.629 7.747 4.013 16.048 3.874 24.211v38.737c0 8.3-1.245 16.463-3.874 24.21-2.49 7.471-6.363 14.25-11.621 20.06-10.514 11.621-25.179 17.985-41.78 17.985-16.74 0-31.543-6.364-41.919-17.985-5.257-5.81-9.269-12.589-11.621-20.06-2.629-7.747-4.012-16.048-3.874-24.21v-38.737c0-8.301 1.245-16.464 3.874-24.211 2.49-7.471 6.364-14.25 11.621-20.06 10.514-11.621 25.179-17.985 41.919-17.985 16.601 0 31.266 6.225 41.78 17.985zm-62.947 18.538c-5.534 6.087-8.439 14.942-8.439 25.594v38.737c0 10.515 2.767 19.369 8.439 25.594 5.119 5.534 12.313 8.716 21.305 8.716 8.716 0 15.91-3.044 21.029-8.716 5.534-6.364 8.439-15.218 8.439-25.594v-38.737c0-10.791-2.767-19.645-8.439-25.594-5.119-5.534-12.313-8.716-21.029-8.716-8.992.139-16.186 3.182-21.305 8.716zm182.34-23.657c9.961 8.716 15.633 21.029 15.633 35.001h-27.946c0-5.81-2.075-10.514-6.087-13.972-4.15-3.736-10.929-5.811-18.677-5.811-7.885 0-14.388 2.075-18.953 5.811-3.735 3.735-5.811 8.715-5.811 13.972 0 5.258 2.076 10.238 5.811 13.974 4.427 3.735 10.929 5.81 18.953 5.81 14.665 0 27.531 4.427 37.077 12.866 9.961 8.716 15.633 21.029 15.633 35.002 0 13.696-5.533 26.286-15.633 35.002-9.546 8.439-22.412 12.866-37.077 12.866-14.941 0-27.807-4.427-37.353-12.866-9.823-8.716-15.356-21.306-15.356-35.002h27.945c-.138 5.257 1.937 10.376 5.811 13.973 4.427 3.735 10.929 5.81 18.953 5.81 7.748 0 14.527-2.075 18.677-5.81 3.874-3.459 6.087-8.163 6.087-13.973 0-5.811-2.075-10.514-6.087-13.973-4.15-3.735-10.929-5.811-18.677-5.811-14.941 0-27.807-4.427-37.353-12.866-9.823-8.716-15.356-21.305-15.356-35.002 0-13.972 5.533-26.285 15.356-35.001 9.546-8.439 22.412-12.866 37.353-12.866 14.665 0 27.531 4.427 37.077 12.866zm115.796 150.244-7.747-19.368h-52.71l-7.471 19.368h-30.021l63.916-163.387 63.916 163.387zm-18.677-47.314-15.356-39.429-15.356 39.429z"/><path d="m323.028 417.05c2.802 2.473 5.109 5.605 6.593 9.066 1.483 3.626 2.307 7.582 2.142 11.538v39.723h-10.219v-6.428c-5.439 4.121-12.527 6.428-20.603 6.428-7.088 0-13.187-1.648-17.637-4.945-4.945-3.296-7.747-8.735-7.747-14.669s2.967-11.373 7.747-14.67c4.45-3.296 10.549-5.109 17.637-5.109h20.603v-.495c0-5.274-1.813-9.56-5.274-12.692-3.791-3.461-8.901-5.109-15.329-5.109-5.934 0-11.044 1.483-14.67 4.615l-6.593-8.077c5.604-4.615 12.856-6.923 21.263-6.923 8.9 0 16.647 2.638 22.087 7.747zm-22.087 31.482c-4.616 0-8.901 1.154-11.538 3.132-2.143 1.319-3.462 3.626-3.462 6.099 0 2.472 1.319 4.78 3.462 6.098 2.802 1.978 6.922 2.967 11.538 2.967 6.428 0 11.538-1.648 15.329-5.109 3.461-3.132 5.274-7.582 5.274-12.692v-.659zm100.545-10.878v39.723h-10.385v-39.723c0-5.275-1.483-9.725-4.78-13.022-3.296-3.296-7.747-4.78-13.021-4.78-5.275 0-9.725 1.649-13.021 4.78-3.297 3.132-4.78 7.747-4.78 13.022v39.723h-10.385v-68.074h10.385v5.769c5.109-3.791 11.373-5.933 17.801-5.769 16.483 0 28.186 11.703 28.186 28.351zm25.877-44.833c-.164 3.626-2.967 6.428-6.428 6.428-3.461-.165-6.263-2.967-6.428-6.428.165-3.626 2.967-6.429 6.428-6.429 1.813 0 3.461.66 4.615 1.814 1.154 1.153 1.813 2.966 1.813 4.615zm-11.702 84.556v-68.074h10.384v68.074zm115.873-42.69v42.69h-10.384v-42.69c0-4.615-1.483-8.406-3.956-10.879-2.472-2.472-6.428-3.956-10.878-3.956-4.451 0-8.406 1.484-10.879 3.956-2.637 2.638-3.956 6.429-3.956 10.879v42.69h-10.384v-42.69c0-4.615-1.483-8.406-3.956-10.879-2.637-2.637-6.428-3.956-10.878-3.956-4.451 0-8.406 1.484-10.879 3.956-2.637 2.638-3.956 6.429-3.956 10.879v42.69h-10.384v-68.074h10.384v4.286c4.451-2.967 9.725-4.45 15-4.286 8.571 0 15.823 3.462 20.108 9.231 4.616-5.769 11.538-9.231 20.109-9.231 14.505 0 24.889 10.549 24.889 25.384zm65.602 2.967v11.538c0 16.647-11.538 28.185-28.186 28.185-16.647 0-28.185-11.538-28.185-28.185v-11.538c0-16.648 11.538-28.186 28.185-28.186 16.648 0 28.186 11.538 28.186 28.186zm-41.207-13.022c-3.132 3.297-4.78 7.747-4.78 13.022v11.538c0 5.274 1.648 9.725 4.78 13.021 3.132 3.297 7.747 4.78 13.021 4.78 5.275 0 9.89-1.648 13.022-4.78 3.131-3.132 4.78-7.747 4.78-13.021v-11.538c0-5.275-1.484-9.725-4.78-13.022-3.297-3.296-7.747-4.78-13.022-4.78-5.439 0-9.889 1.649-13.021 4.78zm104.83 0-10.054 2.803c-1.154-4.616-8.406-7.583-17.637-7.583-10.549 0-17.801 3.791-17.801 9.231 0 5.439 7.252 9.065 17.801 9.065 7.747 0 14.505 1.649 19.45 4.78 5.604 3.462 8.736 8.901 8.736 14.835s-3.132 11.373-8.736 14.834c-5.11 3.132-11.703 4.78-19.45 4.78-14.505 0-25.218-5.769-27.691-15.329l10.219-2.802c1.154 4.615 8.242 7.747 17.637 7.747 10.549 0 17.801-3.791 17.801-9.23 0-5.44-7.252-9.231-17.801-9.231-7.747 0-14.505-1.483-19.45-4.615-5.769-3.461-8.9-8.9-8.9-14.834s3.131-11.373 8.9-14.835c4.945-3.131 11.703-4.78 19.45-4.78 14.505-.165 25.054 5.769 27.526 15.164zm56.042-7.582c2.802 2.473 5.109 5.605 6.593 9.066 1.483 3.626 2.307 7.582 2.142 11.538v39.723h-10.384v-6.428c-5.439 4.121-12.527 6.428-20.603 6.428-7.088 0-13.186-1.648-17.637-4.945-4.945-3.296-7.747-8.735-7.747-14.669s2.967-11.373 7.747-14.67c4.451-3.296 10.549-5.109 17.637-5.109h20.603v-.495c0-5.274-1.813-9.56-5.274-12.692-3.791-3.461-8.901-5.109-15.329-5.109-5.934 0-11.044 1.483-14.67 4.615l-6.593-8.077c5.604-4.615 12.857-6.923 21.263-6.923 8.901 0 16.648 2.638 22.252 7.747zm-22.252 31.482c-4.615 0-8.901 1.154-11.538 3.132-2.143 1.319-3.461 3.626-3.461 6.099 0 2.472 1.318 4.78 3.461 6.098 2.802 1.978 6.923 2.967 11.538 2.967 6.428 0 11.538-1.648 15.329-5.109 3.461-3.132 5.274-7.582 5.274-12.692v-.659z"/></svg>