<svg viewBox="0 0 1000 660" xmlns="http://www.w3.org/2000/svg"><path d="m0 660h1000v-660h-1000z" fill="#eae3d8"/><path d="m153.697 337.072-8.073-20.503h-55.884l-7.903 20.474h-31.837l67.499-173.052 67.5 173.052h-31.302zm-19.688-50.12-16.285-41.709-16.284 41.709h32.484zm148.023-122.821h29.53v172.8l-81.844-93.685v93.797h-29.644v-172.912l81.957 93.938zm54.308 172.941v-172.941h29.616v172.8h-29.616zm187.848 0-14.57-79.735-39.712 79.988-39.375-79.988-14.569 79.735h-30.262l31.612-172.941 52.594 106.144 52.594-106.144 31.838 172.8h-30.15zm145.153-153.788c5.567 6.127 9.775 13.364 12.347 21.233 2.81 8.269 4.227 16.947 4.19 25.679v40.979c.033 8.733-1.382 17.411-4.191 25.68-8.087 24.428-30.923 40.924-56.658 40.924-25.734 0-48.57-16.496-56.658-40.926-2.808-8.268-4.224-16.946-4.189-25.678v-41.006c-.037-8.734 1.379-17.411 4.19-25.679 7.046-19.852 23.919-34.602 44.535-38.933 20.615-4.33 41.997 2.387 56.434 17.727zm-66.657 19.688c-5.934 6.412-8.887 15.806-8.887 27.14v40.978c0 11.109 2.953 20.475 8.887 27.141 12.407 12.182 32.284 12.182 44.691 0 5.934-6.666 8.887-16.032 8.887-27.141v-40.921c0-11.25-2.953-20.729-8.887-27.141-12.407-12.182-32.284-12.182-44.691 0zm193.051-25.116c10.666 9.265 16.69 22.772 16.453 36.899h-29.559c.19-5.652-2.164-11.091-6.414-14.821-5.627-4.317-12.603-6.499-19.687-6.159-7.181-.352-14.257 1.828-19.996 6.159-3.945 3.917-6.164 9.248-6.164 14.807 0 5.56 2.219 10.89 6.164 14.808 5.739 4.331 12.815 6.511 19.996 6.16 14.349-.472 28.369 4.365 39.375 13.584 10.522 9.432 16.534 22.896 16.534 37.026 0 14.131-6.012 27.595-16.534 37.027-11.006 9.219-25.025 14.057-39.375 13.585-15.807 0-29.363-4.697-39.375-13.585-10.523-9.415-16.46-22.92-16.285-37.04h29.617c-.168 5.595 2.075 10.993 6.158 14.822 5.74 4.33 12.816 6.51 19.998 6.159 7.084.34 14.06-1.842 19.688-6.159 4.09-3.839 6.41-9.198 6.41-14.808s-2.32-10.969-6.41-14.808c-5.628-4.317-12.604-6.5-19.688-6.16-15.807 0-29.363-4.696-39.376-13.584-10.377-9.514-16.286-22.947-16.286-37.027 0-14.078 5.909-27.511 16.286-37.026 10.126-8.887 23.709-13.584 39.376-13.584 14.272-.363 28.182 4.52 39.094 13.725zm122.68 159.216-8.156-20.475h-55.884l-7.904 20.475h-31.753l67.782-172.941 67.5 173.053h-31.585zm-19.686-50.12-16.229-41.709-16.285 41.709h32.597z"/><path d="m278.262 421.937c3.521 3.13 6.347 6.962 8.297 11.25 1.93 4.522 2.889 9.4 2.812 14.316v49.752h-12.993v-7.958c-7.497 5.442-16.588 8.242-25.847 7.958-7.783.305-15.461-1.861-21.937-6.186-6.09-4.091-9.743-10.946-9.743-18.281 0-7.337 3.653-14.192 9.743-18.282 6.461-4.372 14.139-6.587 21.937-6.328h25.847v-.647c.221-6.036-2.216-11.864-6.666-15.947-5.378-4.433-12.221-6.691-19.181-6.329-6.588-.307-13.08 1.682-18.366 5.626l-8.297-10.069c7.614-5.887 17.044-8.931 26.663-8.607 10.138-.353 20.038 3.121 27.731 9.732zm-27.788 39.375c-5.102-.185-10.142 1.178-14.456 3.91-2.631 1.685-4.223 4.595-4.223 7.721 0 3.124 1.592 6.034 4.223 7.719 4.333 2.673 9.371 3.976 14.456 3.741 6.96.362 13.804-1.895 19.182-6.328 4.45-4.083 6.887-9.912 6.665-15.947v-.816zm125.776-13.697v49.64h-12.994v-49.64c.29-6.012-1.882-11.883-6.018-16.256-4.398-4.097-10.251-6.265-16.256-6.018-6.038-.463-11.976 1.735-16.258 6.017-4.281 4.282-6.48 10.22-6.018 16.257v49.64h-12.994v-84.908h12.994v7.143c6.416-4.808 14.26-7.323 22.276-7.143 20.671 0 35.268 14.596 35.268 35.268zm32.371-55.913c-.158 4.422-3.705 7.97-8.127 8.129-4.36-.299-7.83-3.769-8.129-8.129.16-4.42 3.708-7.967 8.129-8.127 2.162-.024 4.244.826 5.773 2.354 1.529 1.529 2.378 3.611 2.354 5.773zm-14.624 105.553v-84.908h12.993v84.908zm144.703-53.211v53.437h-13.023v-53.437c.405-5.074-1.436-10.069-5.034-13.668-3.599-3.598-8.595-5.439-13.669-5.035-5.043-.198-9.958 1.613-13.668 5.034-3.447 3.694-5.262 8.621-5.035 13.669v53.437h-12.993v-53.437c0-6.682-3.566-12.856-9.352-16.197-5.786-3.34-12.916-3.34-18.702 0-5.786 3.341-9.352 9.515-9.352 16.197l-.001 53.437h-12.993v-85.134h12.993v5.372c5.56-3.614 12.073-5.484 18.703-5.372 9.782-.354 19.16 3.918 25.313 11.531 6.175-7.584 15.538-11.849 25.313-11.531 18.477 0 31.5 12.994 31.5 31.697zm81.928 3.571v14.457c0 20.812-14.457 35.268-35.269 35.268s-35.297-14.428-35.297-35.241v-14.456c0-20.812 14.456-35.268 35.269-35.268s35.297 14.568 35.297 35.24zm-51.525-16.256c-4.07 4.415-6.233 10.256-6.019 16.256v14.457c-.46 6.037 1.739 11.974 6.02 16.255 4.282 4.28 10.218 6.48 16.255 6.02 6.005.245 11.859-1.923 16.256-6.019 4.136-4.373 6.31-10.244 6.019-16.256v-14.457c.291-6.012-1.883-11.883-6.019-16.256-4.397-4.097-10.25-6.265-16.256-6.018-6-.215-11.843 1.948-16.256 6.018zm131.175.169-12.516 3.403c-1.462-5.626-10.406-9.59-22.106-9.59-13.162 0-22.275 4.724-22.275 11.531 0 6.806 9.113 11.25 22.275 11.25 8.528-.28 16.967 1.803 24.385 6.018 6.728 3.742 10.899 10.836 10.899 18.534s-4.171 14.792-10.899 18.534c-7.415 4.226-15.855 6.318-24.385 6.047-18.197 0-31.528-7.312-34.621-19.18l12.683-3.32c1.464 5.626 10.238 9.592 21.938 9.592 13.162 0 22.276-4.725 22.276-11.532s-9.114-11.531-22.276-11.531c-8.458.33-16.842-1.695-24.216-5.85-6.81-3.679-11.054-10.795-11.054-18.535 0-7.739 4.244-14.855 11.054-18.534 7.358-4.214 15.742-6.297 24.216-6.018 18.226 0 31.556 7.312 34.622 19.181zm69.919-9.591c3.521 3.13 6.347 6.962 8.297 11.25 1.93 4.522 2.888 9.4 2.812 14.316v49.752h-12.994v-7.958c-7.496 5.442-16.587 8.241-25.847 7.958-7.782.305-15.461-1.861-21.937-6.186-6.09-4.092-9.743-10.946-9.743-18.281 0-7.337 3.653-14.19 9.743-18.282 6.462-4.372 14.14-6.587 21.937-6.328h25.847v-.647c.222-6.036-2.215-11.864-6.665-15.947-5.378-4.433-12.221-6.691-19.182-6.329-6.588-.304-13.077 1.684-18.365 5.626l-8.297-10.069c7.615-5.885 17.044-8.928 26.662-8.607 10.138-.35 20.036 3.123 27.732 9.732zm-27.816 39.375c-5.138-.216-10.219 1.138-14.569 3.881-2.631 1.686-4.222 4.595-4.222 7.72 0 3.126 1.591 6.035 4.222 7.721 4.333 2.672 9.371 3.976 14.456 3.741 6.96.363 13.804-1.895 19.182-6.328 4.45-4.083 6.887-9.913 6.665-15.948v-.815h-25.847z"/></svg>