<svg viewBox="0 0 1000 660" xmlns="http://www.w3.org/2000/svg"><path d="M0 660h1000V0H0z" fill="#ff0090"/><path d="M172.936 331.456l-7.624-19.364h-52.78l-7.464 19.337H75l63.749-163.438 63.75 163.438h-29.563zm-18.594-47.335l-15.38-39.392-15.38 39.392h30.68zm139.799-115.998h27.89v163.2l-77.297-88.48v88.586h-27.997V168.123l77.403 88.719zm51.291 163.333V168.123h27.971v163.2h-27.971zm177.412 0l-13.76-75.305-37.506 75.544-37.188-75.544-13.759 75.305H392.05l29.856-163.333 49.672 100.247 49.672-100.247 30.069 163.2h-28.475zm137.089-145.244a55.428 55.428 0 0111.661 20.054 74.388 74.388 0 013.957 24.252v38.702a74.492 74.492 0 01-3.958 24.253c-7.637 23.072-29.205 38.651-53.51 38.651-24.304 0-45.872-15.579-53.51-38.652a74.498 74.498 0 01-3.957-24.252v-38.728a74.353 74.353 0 013.958-24.252 57.08 57.08 0 0195.359-20.028zm-62.954 18.594c-5.604 6.056-8.393 14.928-8.393 25.633v38.701c0 10.492 2.789 19.338 8.393 25.633 11.718 11.505 30.491 11.505 42.208 0 5.605-6.295 8.394-15.141 8.394-25.633v-38.648c0-10.625-2.789-19.577-8.394-25.633-11.717-11.505-30.49-11.505-42.208 0zm182.326-23.72a45.155 45.155 0 0115.539 34.849h-27.917a17.827 17.827 0 00-6.057-13.998 28.32 28.32 0 00-18.594-5.817 28.998 28.998 0 00-18.885 5.817 19.71 19.71 0 000 27.97 29.005 29.005 0 0018.885 5.818 55.091 55.091 0 0137.188 12.829 46.964 46.964 0 010 69.939 55.092 55.092 0 01-37.188 12.83c-14.928 0-27.731-4.436-37.187-12.83a46.167 46.167 0 01-15.38-34.982h27.971a18.435 18.435 0 005.816 13.998 29.004 29.004 0 0018.887 5.817 28.32 28.32 0 0018.594-5.817 19.179 19.179 0 000-27.97 28.316 28.316 0 00-18.594-5.818c-14.929 0-27.732-4.435-37.188-12.829a47.444 47.444 0 010-69.939c9.563-8.394 22.392-12.83 37.188-12.83a55.092 55.092 0 0136.922 12.963zm115.865 150.37l-7.703-19.337h-52.78l-7.464 19.337h-29.989l64.016-163.333L925 331.562h-29.83zm-18.593-47.335l-15.327-39.392-15.38 39.392h30.786z"/><path d="M290.581 421.051a31.882 31.882 0 017.836 10.625 33.149 33.149 0 012.656 13.521v46.988h-12.272v-7.516a39.496 39.496 0 01-24.411 7.516 34.847 34.847 0 01-20.718-5.843 20.798 20.798 0 010-34.531 34.905 34.905 0 0120.718-5.977h24.411v-.611a19.471 19.471 0 00-6.295-15.061 26.328 26.328 0 00-18.116-5.977 26.911 26.911 0 00-17.345 5.313l-7.836-9.509a39.02 39.02 0 0125.181-8.129 38.145 38.145 0 0126.191 9.191zm-26.244 37.188a23.899 23.899 0 00-13.653 3.692 8.659 8.659 0 000 14.583 23.911 23.911 0 0013.653 3.533 26.328 26.328 0 0018.116-5.977 19.471 19.471 0 006.295-15.061v-.77zm118.788-12.936v46.882h-12.272v-46.882a20.879 20.879 0 00-5.684-15.353 21.243 21.243 0 00-15.353-5.684 19.599 19.599 0 00-21.038 21.037v46.882h-12.272v-80.191h12.272v6.746a33.812 33.812 0 0121.038-6.746c19.523 0 33.309 13.785 33.309 33.309zm30.573-52.807a7.968 7.968 0 01-7.676 7.677 8.26 8.26 0 01-7.677-7.677 7.97 7.97 0 017.677-7.676 7.595 7.595 0 017.676 7.676zm-13.812 99.689v-80.191h12.271v80.191zM536.55 441.93v50.468h-12.299V441.93a16.413 16.413 0 00-17.664-17.664 18.001 18.001 0 00-12.909 4.754 17.75 17.75 0 00-4.755 12.91v50.468h-12.272V441.93a17.663 17.663 0 10-35.327 0l-.001 50.468h-12.272v-80.404h12.272v5.073a31.438 31.438 0 0117.664-5.073 29.374 29.374 0 0123.906 10.89 29.59 29.59 0 0123.907-10.89c17.451 0 29.75 12.272 29.75 29.936zm77.376 3.373v13.653c0 19.656-13.653 33.309-33.309 33.309s-33.336-13.626-33.336-33.283v-13.653c0-19.656 13.653-33.309 33.309-33.309 19.657 0 33.336 13.759 33.336 33.283zm-48.662-15.353a21.516 21.516 0 00-5.685 15.353v13.653a19.607 19.607 0 0021.038 21.038 21.255 21.255 0 0015.353-5.685 20.875 20.875 0 005.684-15.353v-13.653a20.875 20.875 0 00-5.684-15.353 21.242 21.242 0 00-15.353-5.684 21.512 21.512 0 00-15.353 5.684zm123.887.159l-11.82 3.214c-1.381-5.313-9.828-9.057-20.878-9.057-12.431 0-21.038 4.462-21.038 10.89 0 6.428 8.607 10.625 21.038 10.625a43.716 43.716 0 0123.03 5.684 20.03 20.03 0 010 35.009 43.712 43.712 0 01-23.03 5.711c-17.186 0-29.777-6.906-32.698-18.115l11.979-3.135c1.382 5.313 9.669 9.059 20.719 9.059 12.431 0 21.038-4.463 21.038-10.891 0-6.429-8.607-10.891-21.038-10.891a43.163 43.163 0 01-22.871-5.525 19.895 19.895 0 010-35.009 43.155 43.155 0 0122.871-5.684c17.213 0 29.803 6.906 32.698 18.115zm66.035-9.058a31.882 31.882 0 017.836 10.625 33.132 33.132 0 012.656 13.521v46.988h-12.272v-7.516a39.498 39.498 0 01-24.411 7.516 34.85 34.85 0 01-20.719-5.843 20.8 20.8 0 010-34.531 34.91 34.91 0 0120.719-5.977h24.411v-.611a19.471 19.471 0 00-6.295-15.061 26.328 26.328 0 00-18.116-5.977 26.942 26.942 0 00-17.345 5.313l-7.836-9.509a39.05 39.05 0 0125.181-8.129 38.172 38.172 0 0126.191 9.191zm-26.271 37.188a23.908 23.908 0 00-13.759 3.665 8.66 8.66 0 000 14.583 23.906 23.906 0 0013.653 3.533 26.328 26.328 0 0018.116-5.976 19.473 19.473 0 006.295-15.062v-.77h-24.411z" fill="#fff"/></svg>