<svg viewBox="0 0 1000 660" xmlns="http://www.w3.org/2000/svg"><path d="m0 660h1000v-660h-1000z" fill="#eae3d8"/><path d="m172.936 331.456-7.624-19.364h-52.78l-7.464 19.337h-30.068l63.749-163.438 63.75 163.438h-29.563zm-18.594-47.335-15.38-39.392-15.38 39.392h30.68zm139.799-115.998h27.89v163.2l-77.297-88.48v88.586h-27.997v-163.306l77.403 88.719zm51.291 163.333v-163.333h27.971v163.2h-27.971zm177.412 0-13.76-75.305-37.506 75.544-37.188-75.544-13.759 75.305h-28.581l29.856-163.333 49.672 100.247 49.672-100.247 30.069 163.2h-28.475zm137.089-145.244c5.258 5.787 9.232 12.622 11.661 20.054 2.654 7.809 3.992 16.005 3.957 24.252v38.702c.032 8.248-1.305 16.444-3.958 24.254-7.637 23.071-29.205 38.65-53.51 38.65-24.304 0-45.872-15.579-53.51-38.652-2.652-7.809-3.99-16.005-3.957-24.252v-38.728c-.035-8.248 1.303-16.443 3.958-24.252 6.654-18.749 22.59-32.68 42.06-36.77 19.47-4.089 39.664 2.254 53.299 16.742zm-62.954 18.594c-5.604 6.056-8.393 14.928-8.393 25.633v38.701c0 10.492 2.789 19.338 8.393 25.633 11.718 11.505 30.491 11.505 42.208 0 5.605-6.295 8.394-15.141 8.394-25.633v-38.648c0-10.625-2.789-19.577-8.394-25.633-11.717-11.505-30.49-11.505-42.208 0zm182.326-23.72c10.074 8.75 15.763 21.507 15.539 34.849h-27.917c.18-5.338-2.043-10.475-6.057-13.998-5.315-4.077-11.903-6.138-18.594-5.817-6.782-.332-13.465 1.727-18.885 5.817-3.726 3.7-5.821 8.734-5.821 13.985s2.095 10.285 5.821 13.985c5.42 4.09 12.103 6.149 18.885 5.818 13.552-.446 26.793 4.122 37.188 12.829 9.937 8.908 15.615 21.624 15.615 34.969 0 13.346-5.678 26.062-15.615 34.97-10.395 8.707-23.635 13.276-37.188 12.83-14.928 0-27.731-4.436-37.187-12.83-9.938-8.892-15.546-21.647-15.38-34.982h27.971c-.158 5.284 1.96 10.382 5.816 13.998 5.421 4.09 12.104 6.149 18.887 5.817 6.691.321 13.279-1.74 18.594-5.817 3.863-3.625 6.054-8.687 6.054-13.985s-2.191-10.36-6.054-13.985c-5.315-4.078-11.903-6.139-18.594-5.818-14.929 0-27.732-4.435-37.188-12.829-9.801-8.986-15.381-21.673-15.381-34.97 0-13.296 5.58-25.983 15.381-34.969 9.563-8.394 22.392-12.83 37.188-12.83 13.479-.343 26.616 4.269 36.922 12.963zm115.865 150.37-7.703-19.337h-52.78l-7.464 19.337h-29.989l64.016-163.333 63.75 163.439h-29.83zm-18.593-47.335-15.327-39.392-15.38 39.392h30.786z"/><path d="m290.581 421.051c3.325 2.956 5.994 6.575 7.836 10.625 1.823 4.271 2.728 8.878 2.656 13.521v46.988h-12.272v-7.516c-7.08 5.14-15.666 7.784-24.411 7.516-7.35.288-14.602-1.758-20.718-5.843-5.752-3.863-9.202-10.337-9.202-17.265 0-6.929 3.45-13.403 9.202-17.266 6.102-4.129 13.354-6.221 20.718-5.977h24.411v-.611c.209-5.7-2.092-11.205-6.295-15.061-5.079-4.187-11.542-6.319-18.116-5.977-6.222-.29-12.353 1.588-17.345 5.313l-7.836-9.509c7.191-5.56 16.097-8.435 25.181-8.129 9.575-.334 18.925 2.947 26.191 9.191zm-26.244 37.188c-4.819-.175-9.579 1.112-13.653 3.692-2.485 1.592-3.989 4.34-3.989 7.292 0 2.951 1.504 5.699 3.989 7.291 4.092 2.524 8.85 3.755 13.653 3.533 6.573.342 13.037-1.79 18.116-5.977 4.203-3.856 6.504-9.361 6.295-15.061v-.77zm118.788-12.936v46.882h-12.272v-46.882c.274-5.678-1.778-11.223-5.684-15.353-4.153-3.87-9.681-5.917-15.353-5.684-5.702-.437-11.31 1.639-15.354 5.683s-6.12 9.652-5.684 15.354v46.882h-12.272v-80.191h12.272v6.746c6.059-4.541 13.468-6.916 21.038-6.746 19.523 0 33.309 13.785 33.309 33.309zm30.573-52.807c-.15 4.176-3.5 7.527-7.676 7.677-4.118-.282-7.395-3.559-7.677-7.677.151-4.175 3.502-7.525 7.677-7.676 2.042-.022 4.008.78 5.452 2.224s2.246 3.41 2.224 5.452zm-13.812 99.689v-80.191h12.271v80.191zm136.664-50.255v50.468h-12.299v-50.468c.382-4.792-1.357-9.51-4.755-12.909-3.399-3.398-8.117-5.137-12.909-4.755-4.763-.187-9.405 1.523-12.909 4.754-3.256 3.489-4.97 8.142-4.755 12.91v50.468h-12.272v-50.468c0-6.311-3.367-12.142-8.832-15.297s-12.198-3.155-17.663 0-8.832 8.986-8.832 15.297l-.001 50.468h-12.272v-80.404h12.272v5.073c5.251-3.413 11.402-5.179 17.664-5.073 9.238-.334 18.095 3.7 23.906 10.89 5.832-7.162 14.675-11.19 23.907-10.89 17.451 0 29.75 12.272 29.75 29.936zm77.376 3.373v13.653c0 19.656-13.653 33.309-33.309 33.309s-33.336-13.626-33.336-33.283v-13.653c0-19.656 13.653-33.309 33.309-33.309 19.657 0 33.336 13.759 33.336 33.283zm-48.662-15.353c-3.844 4.169-5.887 9.686-5.685 15.353v13.653c-.434 5.702 1.643 11.309 5.686 15.352 4.044 4.043 9.65 6.12 15.352 5.686 5.671.231 11.2-1.816 15.353-5.685 3.906-4.13 5.959-9.675 5.684-15.353v-13.653c.275-5.678-1.778-11.223-5.684-15.353-4.153-3.87-9.681-5.917-15.353-5.684-5.667-.203-11.185 1.84-15.353 5.684zm123.887.159-11.82 3.214c-1.381-5.313-9.828-9.057-20.878-9.057-12.431 0-21.038 4.462-21.038 10.89s8.607 10.625 21.038 10.625c8.054-.264 16.024 1.703 23.03 5.684 6.354 3.534 10.294 10.234 10.294 17.504 0 7.271-3.94 13.971-10.294 17.505-7.003 3.991-14.974 5.967-23.03 5.711-17.186 0-29.777-6.906-32.698-18.115l11.979-3.135c1.382 5.313 9.669 9.059 20.719 9.059 12.431 0 21.038-4.463 21.038-10.891 0-6.429-8.607-10.891-21.038-10.891-7.988.312-15.906-1.601-22.871-5.525-6.431-3.474-10.44-10.195-10.44-17.505 0-7.309 4.009-14.03 10.44-17.504 6.949-3.98 14.868-5.948 22.871-5.684 17.213 0 29.803 6.906 32.698 18.115zm66.035-9.058c3.325 2.956 5.994 6.575 7.836 10.625 1.823 4.271 2.728 8.878 2.656 13.521v46.988h-12.272v-7.516c-7.08 5.14-15.666 7.783-24.411 7.516-7.35.288-14.602-1.758-20.719-5.843-5.751-3.864-9.201-10.337-9.201-17.265 0-6.929 3.45-13.402 9.201-17.266 6.103-4.129 13.355-6.221 20.719-5.977h24.411v-.611c.209-5.7-2.092-11.205-6.295-15.061-5.079-4.187-11.542-6.319-18.116-5.977-6.222-.287-12.351 1.59-17.345 5.313l-7.836-9.509c7.192-5.558 16.097-8.432 25.181-8.129 9.574-.331 18.923 2.949 26.191 9.191zm-26.271 37.188c-4.852-.204-9.651 1.074-13.759 3.665-2.485 1.592-3.988 4.34-3.988 7.291 0 2.952 1.503 5.7 3.988 7.292 4.092 2.524 8.85 3.755 13.653 3.533 6.573.343 13.037-1.789 18.116-5.976 4.203-3.856 6.504-9.362 6.295-15.062v-.77h-24.411z"/></svg>