<svg viewBox="0 0 1000 660" xmlns="http://www.w3.org/2000/svg"><path d="m0 660h1000v-660h-1000z" fill="#eae3d8"/><path d="m850.672 271.264c-14.165 0-25.544 3.251-34.136 9.753-8.592 6.503-13.933 16.488-15.094 28.564l14.63 1.625c.929-8.128 4.18-14.398 9.521-18.345 5.805-4.413 14.165-6.735 25.079-6.735h.233c11.611 0 20.435 2.555 26.241 7.664 5.573 4.876 8.592 12.307 8.592 21.828v8.36h-40.174c-13.237 0-23.919 2.787-31.582 8.128-8.36 6.038-12.772 14.862-12.772 25.544 0 10.915 4.412 19.739 12.772 25.777 7.663 5.341 18.345 8.127 31.582 8.127h5.341c14.63 0 26.241-3.483 34.833-10.217v10.217h14.862v-75.936c0-13.933-4.644-25.312-13.469-32.975-8.824-7.431-20.9-11.379-36.226-11.379zm35.066 67.576v8.36c0 9.521-3.019 16.952-8.592 21.829-5.806 5.109-14.63 7.663-26.241 7.663h-5.341c-9.986 0-17.881-1.857-22.99-5.341-4.412-3.251-6.502-7.663-6.502-13.701 0-5.805 2.09-10.218 6.502-13.469 5.109-3.483 13.004-5.341 22.99-5.341zm-159.536-67.576c-14.63 0-26.241 3.483-34.833 10.218v-10.218h-14.862v120.29h14.862v-75.936c0-9.521 2.787-16.952 8.36-21.828 5.806-5.109 14.862-7.664 26.473-7.664s20.436 2.555 26.241 7.664c5.573 4.876 8.36 12.307 8.36 21.828v75.936h14.862v-75.936c0-13.933-4.644-25.312-13.469-32.975-8.592-7.431-20.667-11.379-35.994-11.379zm-91.959-42.264c-5.573 0-9.753 4.18-9.753 9.753 0 5.574 4.18 9.754 9.753 9.754s9.753-4.18 9.753-9.754c0-5.573-4.18-9.753-9.753-9.753zm7.431 162.554v-120.29h-14.862v120.29zm-49.695-162.554h-14.862v52.482c-8.592-6.735-20.203-10.218-34.833-10.218-15.327 0-27.402 3.948-35.995 11.379-8.824 7.663-13.468 19.042-13.468 32.975v31.582c0 13.934 4.644 25.312 13.468 32.976 8.593 7.431 20.668 11.378 35.995 11.378 14.63 0 26.241-3.483 34.833-10.217v10.217h14.862zm-49.695 57.126c11.611 0 20.667 2.555 26.473 7.664 5.573 4.876 8.36 12.307 8.36 21.828v31.582c0 9.521-2.787 16.952-8.36 21.829-5.806 5.109-14.862 7.663-26.473 7.663s-20.436-2.554-26.241-7.663c-5.574-4.877-8.36-12.308-8.36-21.829v-31.582c0-9.521 2.786-16.952 8.36-21.828 5.805-5.109 14.63-7.664 26.241-7.664zm-119.826-14.862c-15.327 0-27.634 3.948-36.227 11.379-8.824 7.663-13.468 19.042-13.468 32.975v31.582c0 13.934 4.644 25.312 13.468 32.976 8.593 7.431 20.9 11.378 36.227 11.378 15.326 0 27.402-3.947 35.994-11.378 8.824-7.664 13.469-19.042 13.469-32.976v-31.582c0-13.933-4.645-25.312-13.469-32.975-8.592-7.431-20.668-11.379-35.994-11.379zm0 14.862c11.611 0 20.435 2.555 26.241 7.664 5.573 4.876 8.36 12.307 8.36 21.828v31.582c0 9.521-2.787 16.952-8.36 21.829-5.806 5.109-14.63 7.663-26.241 7.663s-20.668-2.554-26.473-7.663c-5.574-4.877-8.36-12.308-8.36-21.829v-31.582c0-9.521 2.786-16.952 8.36-21.828 5.805-5.109 14.862-7.664 26.473-7.664zm-124.703-14.862c-14.63 0-26.241 3.483-34.833 10.218v-10.218h-14.862v120.29h14.862v-75.936c0-9.521 2.787-16.952 8.36-21.828 5.806-5.109 14.862-7.664 26.473-7.664s20.436 2.555 26.241 7.664c5.574 4.876 8.36 12.307 8.36 21.828v75.936h14.862v-75.936c0-13.933-4.644-25.312-13.469-32.975-8.592-7.431-20.667-11.379-35.994-11.379zm-70.595 120.29-58.055-162.554h-10.45l-58.055 162.554h15.791l11.147-31.582h72.452l11.379 31.582zm-94.281-46.444 30.885-86.618 30.885 86.618z"/></svg>