<svg viewBox="0 0 1000 660" xmlns="http://www.w3.org/2000/svg"><path d="m0 660h1000v-660h-1000z" fill="#eae3d8"/><path d="m850.257 270.388c-13.919 0-25.328 3.194-33.771 9.583-8.899 6.846-14.147 16.658-15.516 28.979l18.254 1.826c.685-7.302 3.423-12.55 8.215-16.201 5.248-3.879 13.006-5.933 22.818-5.933h.228c10.496 0 18.711 2.282 23.959 6.846 4.792 4.335 7.302 10.952 7.302 19.395v5.933h-36.281c-13.235 0-23.959 2.966-31.489 8.442-8.671 5.933-13.006 15.06-13.006 26.013 0 11.181 4.335 20.08 13.006 26.241 7.53 5.476 18.254 8.214 31.489 8.214h5.02c12.55 0 23.046-2.738 31.261-7.986v7.986h18.254v-74.843c0-13.919-4.564-25.328-13.463-33.086-8.67-7.53-20.764-11.409-36.052-11.409zm31.489 68.682v6.161c0 8.443-2.51 15.06-7.302 19.395-5.248 4.564-13.463 6.846-23.959 6.846h-5.02c-9.355 0-16.429-1.597-20.993-4.792-3.651-2.738-5.248-6.161-5.248-11.409 0-5.02 1.597-8.671 5.248-11.181 4.564-3.194 11.638-5.02 20.993-5.02zm-155.391-68.682c-12.55 0-23.046 2.738-31.261 7.986v-7.986h-18.254v119.338h18.254v-74.843c0-8.443 2.51-15.06 7.302-19.395 5.248-4.564 13.463-6.846 23.959-6.846s18.711 2.282 23.959 6.846c5.02 4.335 7.302 10.952 7.302 19.395v74.843h18.254v-74.843c0-13.919-4.564-25.328-13.463-33.086-8.671-7.53-20.764-11.409-36.052-11.409zm-92.87-40.388c-6.16 0-11.409 5.02-11.409 11.409 0 6.161 5.249 11.409 11.409 11.409 6.39 0 11.409-5.248 11.409-11.409 0-6.389-5.019-11.409-11.409-11.409zm9.128 159.726v-119.338h-18.255v119.338zm-52.482-159.726h-18.254v48.374c-8.215-5.248-18.711-7.986-31.261-7.986-15.288 0-27.382 3.879-36.052 11.409-8.899 7.758-13.463 19.167-13.463 33.086v30.348c0 13.919 4.564 25.328 13.463 33.086 8.67 7.53 20.764 11.409 36.052 11.409 12.55 0 23.046-2.738 31.261-7.986v7.986h18.254zm-49.515 58.642c10.496 0 18.711 2.282 23.959 6.846 4.792 4.335 7.302 10.952 7.302 19.395v30.348c0 8.443-2.51 15.06-7.302 19.395-5.248 4.564-13.463 6.846-23.959 6.846s-18.711-2.282-23.959-6.846c-5.02-4.335-7.302-10.952-7.302-19.395v-30.348c0-8.443 2.282-15.06 7.302-19.395 5.248-4.564 13.463-6.846 23.959-6.846zm-119.566-18.254c-15.06 0-27.154 3.879-35.825 11.409-8.899 7.758-13.69 19.167-13.69 33.086v30.348c0 13.919 4.791 25.328 13.69 33.086 8.671 7.53 20.765 11.409 35.825 11.409 15.288 0 27.381-3.879 36.052-11.409 8.899-7.758 13.463-19.167 13.463-33.086v-30.348c0-13.919-4.564-25.328-13.463-33.086-8.671-7.53-20.764-11.409-36.052-11.409zm0 18.254c10.496 0 18.71 2.282 23.959 6.846 5.02 4.335 7.301 10.952 7.301 19.395v30.348c0 8.443-2.281 15.06-7.301 19.395-5.249 4.564-13.463 6.846-23.959 6.846-10.497 0-18.711-2.282-23.959-6.846-4.792-4.335-7.302-10.952-7.302-19.395v-30.348c0-8.443 2.51-15.06 7.302-19.395 5.248-4.564 13.462-6.846 23.959-6.846zm-124.13-18.254c-12.55 0-23.047 2.738-31.261 7.986v-7.986h-18.255v119.338h18.255v-74.843c0-8.443 2.51-15.06 7.302-19.395 5.248-4.564 13.462-6.846 23.959-6.846 10.496 0 18.71 2.282 23.959 6.846 5.019 4.335 7.301 10.952 7.301 19.395v74.843h18.255v-74.843c0-13.919-4.564-25.328-13.463-33.086-8.671-7.53-20.764-11.409-36.052-11.409zm-70.052 119.338-57.045-159.726h-12.778l-57.045 159.726h19.395l10.725-30.348h66.628l10.953 30.348zm-90.131-48.602 26.697-74.843 26.925 74.843z"/></svg>