<svg viewBox="0 0 1000 660" xmlns="http://www.w3.org/2000/svg"><path d="M0 660h1000V0H0z"/><path d="M406.216 120.208l-3.843-10.72h-25.586l-3.843 10.72h-4.146l19.417-54.206h2.73l19.316 54.206zm-5.259-14.664L389.53 73.688l-11.428 31.856h22.754zm44.599-21.44a12.55 12.55 0 013.337 4.652 16.889 16.889 0 011.112 6.068v25.283h-3.843V94.824c0-3.438-1.112-6.068-3.135-7.888-2.023-1.82-5.259-2.832-9.405-2.832-4.146 0-7.281 1.012-9.405 2.832-2.124 1.82-3.135 4.45-3.135 7.888v25.283h-3.843V80.363h3.843v4.247l.506-.506c2.831-2.427 6.775-3.842 11.933-3.842 5.157 0 9.102 1.415 12.035 3.842zm41.159 0a12.527 12.527 0 013.337 4.652 16.868 16.868 0 011.113 6.068v10.72a16.872 16.872 0 01-1.113 6.068 12.725 12.725 0 01-3.337 4.753c-2.831 2.427-6.876 3.742-11.933 3.742-5.057 0-9.102-1.214-11.933-3.742a12.74 12.74 0 01-3.338-4.753 16.893 16.893 0 01-1.112-6.068v-10.72a16.889 16.889 0 011.112-6.068 12.541 12.541 0 013.338-4.652c2.831-2.427 6.775-3.842 11.933-3.842 5.158 0 9 1.415 11.933 3.842zm-21.237 2.832c-2.124 1.82-3.135 4.45-3.135 7.888v10.72c0 3.438 1.011 6.068 3.135 7.888 2.124 1.82 5.259 2.832 9.405 2.832 4.146 0 7.281-.911 9.405-2.832 2.124-1.922 3.135-4.45 3.135-7.888v-10.72c0-3.438-1.112-6.068-3.135-7.888-2.022-1.82-5.259-2.832-9.405-2.832-4.146 0-7.383 1.113-9.506 2.832zm61.386 33.272v-4.248l-.506.506c-2.832 2.427-6.776 3.742-11.933 3.742-5.158 0-9.102-1.214-11.934-3.742a12.748 12.748 0 01-3.337-4.753 16.889 16.889 0 01-1.112-6.068V94.824a16.889 16.889 0 011.112-6.068 12.55 12.55 0 013.337-4.652c2.832-2.427 6.877-3.842 11.934-3.842 5.056 0 9.101 1.314 11.933 3.842l.506.506V66.002h3.843v54.206zM505.02 87.037c-2.023 1.821-3.135 4.45-3.135 7.888v10.72c0 3.438 1.112 6.068 3.135 7.888 2.022 1.82 5.258 2.832 9.405 2.832 4.146 0 7.281-.911 9.405-2.832 2.123-1.921 3.135-4.45 3.135-7.888V94.824c0-3.438-1.012-6.068-3.135-7.888-2.124-1.82-5.36-2.73-9.405-2.73-4.045 0-7.282 1.011-9.405 2.73zm41.968-18.304a2.73 2.73 0 11-2.73-2.731 2.632 2.632 0 012.73 2.731zm-4.753 51.475V80.363h3.843v39.845zm43.79-36.104a12.55 12.55 0 013.337 4.652 16.889 16.889 0 011.112 6.068v25.283h-3.843V94.824c0-3.438-1.112-6.068-3.135-7.888-2.022-1.82-5.259-2.832-9.405-2.832-4.146 0-7.281 1.012-9.405 2.832-2.124 1.82-3.135 4.45-3.135 7.888v25.283h-3.843V80.363h3.843v4.247l.506-.506c2.832-2.427 6.776-3.842 11.933-3.842 5.158 0 9.203 1.415 12.035 3.842zm29.327-3.741c5.158 0 9.102 1.314 11.933 3.843a12.525 12.525 0 013.338 4.652 16.884 16.884 0 011.112 6.067v25.283h-3.843v-4.248l-.506.506c-2.831 2.427-6.775 3.742-11.933 3.742h-1.921c-4.45 0-7.989-.911-10.417-2.731a10.215 10.215 0 01.001-16.383c2.427-1.82 6.067-2.73 10.416-2.73h14.259v-3.439c0-3.438-1.113-6.067-3.135-7.888-2.023-1.82-5.259-2.831-9.405-2.831h-.101c-3.843 0-6.776.809-8.899 2.427a9.304 9.304 0 00-3.439 6.674l-3.843-.404a12.946 12.946 0 015.056-9.304c2.832-2.124 6.574-3.236 11.226-3.236zm-1.82 21.844c-3.54 0-6.473.708-8.192 1.921a5.866 5.866 0 00-2.427 5.158 5.967 5.967 0 002.427 5.157c1.821 1.214 4.652 1.922 8.192 1.922h1.82c4.146 0 7.281-.911 9.405-2.832 2.124-1.921 3.135-4.45 3.135-7.888v-3.438zM403.89 238.63l-3.843-10.517h-24.069l-3.742 10.517h-5.258l19.315-54.205h3.439l19.315 54.205h-5.258zm-5.562-15.472l-10.315-28.924-10.316 28.823h20.631zm46.317-20.833c2.933 2.528 4.45 6.371 4.45 11.023v25.282h-4.956v-25.282c0-3.135-.91-5.663-2.831-7.281-1.922-1.618-4.854-2.528-8.697-2.528-3.843 0-6.877.809-8.798 2.528-1.922 1.719-2.832 4.146-2.832 7.281v25.282h-4.955v-40.148h4.955v3.439c2.832-2.225 6.775-3.439 11.63-3.439 4.854 0 9.203 1.315 12.034 3.843zm41.565 0c2.932 2.528 4.449 6.371 4.449 11.023v10.518c0 4.652-1.517 8.394-4.449 11.023-2.933 2.629-6.877 3.843-12.035 3.843s-9.203-1.315-12.034-3.843c-2.832-2.528-4.45-6.371-4.45-11.023v-10.518c0-4.652 1.517-8.394 4.45-11.023 2.932-2.629 6.978-3.843 12.034-3.843 5.057 0 9.203 1.315 12.035 3.843zm-20.833 3.742c-1.82 1.618-2.832 4.146-2.832 7.281v10.518c0 3.135.91 5.663 2.832 7.281 1.921 1.618 4.955 2.528 8.798 2.528s6.776-.809 8.697-2.528c1.922-1.719 2.832-4.146 2.832-7.281v-10.518c0-3.135-.91-5.663-2.832-7.281-1.921-1.618-4.854-2.528-8.697-2.528-3.843 0-6.877.809-8.798 2.528zm65.33 32.563h-4.956v-3.438c-2.831 2.225-6.776 3.438-11.63 3.438-4.854 0-9.101-1.314-12.034-3.842s-4.45-6.372-4.45-11.023v-10.417c0-4.652 1.517-8.394 4.45-11.023 2.933-2.629 6.877-3.843 12.034-3.843 5.158 0 8.697 1.113 11.63 3.439v-17.496h4.956zm-25.283-32.563c-1.82 1.618-2.832 4.146-2.832 7.281v10.518c0 3.135.911 5.663 2.832 7.281 1.922 1.618 4.854 2.528 8.697 2.528 3.843 0 6.877-.809 8.799-2.528 1.921-1.719 2.831-4.146 2.831-7.281v-10.518c0-3.135-.91-5.663-2.831-7.281-1.922-1.618-4.956-2.528-8.799-2.528-3.843 0-6.775.809-8.697 2.528zm42.677-18.406a3.236 3.236 0 11-3.236-3.236 3.137 3.137 0 013.236 3.236zm-5.764 50.969v-40.148h4.955v40.047h-4.955zm45.103-36.305c2.933 2.528 4.45 6.371 4.45 11.023v25.282h-4.955v-25.282c0-3.135-.91-5.663-2.832-7.281-1.921-1.618-4.854-2.528-8.697-2.528-3.843 0-6.877.809-8.799 2.528-1.921 1.719-2.831 4.146-2.831 7.281v25.282h-4.854v-40.148h4.955v3.439c2.831-2.225 6.776-3.439 11.63-3.439 4.854 0 9.102 1.315 11.933 3.843zm29.53-3.843c5.158 0 9.102 1.315 12.035 3.843 2.932 2.528 4.449 6.371 4.449 11.023v25.282h-4.955v-3.438c-2.832 2.225-6.776 3.438-11.63 3.438h-1.82c-4.45 0-7.99-.91-10.518-2.73a10.72 10.72 0 010-17.091c2.528-1.82 6.068-2.731 10.518-2.731h13.349v-2.831a9.303 9.303 0 00-2.832-7.281c-1.921-1.72-4.854-2.528-8.697-2.528h-.101c-3.641 0-6.472.808-8.394 2.224a8.495 8.495 0 00-3.135 6.068l-4.854-.506a13.248 13.248 0 015.057-9.506c2.831-2.157 6.64-3.236 11.427-3.236zm-1.82 22.552c-3.337 0-5.967.607-7.686 1.82a5.764 5.764 0 000 9.102c1.719 1.112 4.349 1.82 7.686 1.82h1.82c3.843 0 6.776-.809 8.697-2.528a9.303 9.303 0 002.832-7.281v-2.832h-13.248zM401.159 357.053l-3.741-10.315h-22.653l-3.641 10.315h-6.574l19.417-54.205h4.349l19.316 54.205zm-5.865-16.484l-9.102-25.383-9.102 25.383zm48.34-20.125c3.034 2.63 4.551 6.473 4.551 11.226v25.383h-6.169V331.67c0-2.832-.809-5.158-2.427-6.574-1.618-1.415-4.551-2.326-8.091-2.326-3.539 0-6.371.81-8.09 2.326a8.495 8.495 0 00-2.427 6.574v25.383h-6.169v-40.452h6.169v2.731a19.427 19.427 0 0110.618-2.731c4.956 0 9.102 1.315 12.035 3.843zm42.07 0c3.034 2.63 4.551 6.473 4.551 11.226v10.315c0 4.753-1.517 8.596-4.551 11.225-3.034 2.63-7.079 3.843-12.237 3.843-5.157 0-9.203-1.314-12.135-3.843-2.933-2.528-4.652-6.472-4.652-11.225V331.67c0-4.753 1.618-8.596 4.652-11.226 3.033-2.629 7.079-3.843 12.135-3.843 5.057 0 9.304 1.315 12.237 3.843zm-20.327 4.652a8.495 8.495 0 00-2.427 6.574v10.315a8.492 8.492 0 002.427 6.573c1.82 1.517 4.55 2.326 8.09 2.326s6.371-.809 8.09-2.326c1.72-1.516 2.428-3.741 2.428-6.573V331.67c0-2.832-.809-5.158-2.428-6.574-1.617-1.415-4.55-2.326-8.09-2.326s-6.371.709-8.09 2.326zm65.431 31.957h-6.169v-2.73a19.418 19.418 0 01-10.619 2.73c-5.157 0-9.304-1.314-12.236-3.843-2.933-2.528-4.551-6.472-4.551-11.225V331.67c0-4.753 1.517-8.596 4.551-11.226 3.034-2.629 7.079-3.843 12.236-3.843 3.729-.128 7.415.82 10.619 2.731v-16.484h6.169zm-24.878-31.957c-1.72 1.518-2.427 3.742-2.427 6.574v10.315c0 2.832.809 5.158 2.427 6.573 1.618 1.416 4.551 2.326 8.09 2.326 3.54 0 6.371-.809 8.09-2.326a8.492 8.492 0 002.428-6.573V331.67a8.496 8.496 0 00-2.428-6.574c-1.82-1.516-4.55-2.326-8.09-2.326-3.539 0-6.371.709-8.09 2.326zm43.486-18.405a3.844 3.844 0 01-3.843 3.843 3.944 3.944 0 01-3.843-3.843 3.843 3.843 0 117.686 0zm-6.978 50.261V316.5h6.169v40.452zm46.823-36.508c3.034 2.63 4.55 6.473 4.55 11.226v25.383h-6.168V331.67c0-2.832-.809-5.158-2.428-6.574-1.617-1.415-4.55-2.326-8.09-2.326-3.539 0-6.371.81-8.09 2.326a8.5 8.5 0 00-2.428 6.574v25.383h-6.168v-40.452h6.168v2.731a19.43 19.43 0 0110.619-2.731c4.956 0 9.102 1.315 12.035 3.843zm29.833-3.843c5.157 0 9.304 1.315 12.237 3.843 2.932 2.529 4.55 6.473 4.55 11.226v25.383h-6.169v-2.73a19.415 19.415 0 01-10.618 2.73h-1.719c-4.45 0-8.091-.91-10.72-2.831a10.316 10.316 0 01-4.45-8.9 10.215 10.215 0 014.45-8.798c2.528-1.82 6.169-2.831 10.72-2.831h12.337v-2.023a8.492 8.492 0 00-2.427-6.574c-1.82-1.516-4.551-2.326-8.09-2.326h-.101c-3.337 0-5.967.709-7.787 2.023a7.385 7.385 0 00-2.832 5.461l-6.168-.607a13.85 13.85 0 015.258-9.809c2.832-2.124 6.776-3.237 11.428-3.237zm-1.719 23.26c-3.135 0-5.562.607-7.079 1.719a4.249 4.249 0 00-1.821 3.843 4.348 4.348 0 001.821 3.843c1.517 1.113 3.944 1.618 7.079 1.618h1.719c3.539 0 6.371-.809 8.09-2.326a8.492 8.492 0 002.427-6.573v-2.124h-12.135zM398.227 475.476l-3.54-10.012h-21.035l-3.641 10.012h-7.888l19.316-54.205h5.259l19.316 54.205h-7.888zm-6.169-17.394l-7.888-21.945-7.787 21.945zm50.362-19.417c3.136 2.731 4.753 6.675 4.753 11.428v25.383h-7.382v-25.383c0-2.63-.708-4.652-2.124-5.866-1.416-1.213-4.146-2.124-7.382-2.124-3.236 0-5.866.809-7.484 2.124-1.618 1.315-2.124 3.236-2.124 5.866v25.383h-7.382V434.62h7.382v2.124a20.525 20.525 0 019.709-2.124c4.955 0 9.102 1.416 12.034 4.045zm42.677 0c3.135 2.731 4.753 6.675 4.753 11.428v10.012c0 4.753-1.618 8.697-4.753 11.427-3.135 2.731-7.079 3.944-12.338 3.944-5.259 0-9.405-1.315-12.337-3.944-2.933-2.629-4.754-6.674-4.754-11.427v-10.012c0-4.753 1.618-8.697 4.754-11.428 3.135-2.731 7.078-4.045 12.337-4.045 5.259 0 9.304 1.416 12.338 4.045zm-19.821 5.562c-1.416 1.214-2.124 3.236-2.124 5.866v10.012a7.683 7.683 0 002.124 5.865c1.618 1.416 4.146 2.124 7.483 2.124 3.338 0 5.765-.708 7.383-2.124 1.618-1.416 2.124-3.236 2.124-5.865v-10.012c0-2.63-.709-4.652-2.124-5.866-1.416-1.213-4.147-2.124-7.383-2.124-3.236 0-5.865.708-7.483 2.124zm58.25 31.249v-2.124a20.518 20.518 0 01-9.708 2.124c-5.191 0-9.304-1.314-12.338-3.944-3.135-2.73-4.753-6.674-4.753-11.427v-10.012c0-4.753 1.618-8.697 4.753-11.428 3.135-2.731 7.079-4.045 12.338-4.045a20.518 20.518 0 019.708 2.124v-15.473h7.383v54.205zm-17.192-31.249c-1.516 1.214-2.124 3.236-2.124 5.866v10.012c0 2.629.709 4.55 2.124 5.865 1.416 1.315 4.147 2.124 7.383 2.124 3.236 0 5.865-.708 7.483-2.124a7.683 7.683 0 002.124-5.865v-10.012c0-2.63-.809-4.652-2.124-5.866-1.314-1.213-4.146-2.124-7.483-2.124-3.337 0-5.663.708-7.383 2.124zm44.396-18.405a4.549 4.549 0 01-4.449 4.449 4.55 4.55 0 01-4.45-4.449 4.55 4.55 0 014.45-4.45 4.45 4.45 0 014.449 4.45zm-8.191 49.654V434.62h7.382v40.856zm48.441-36.811c3.135 2.731 4.753 6.675 4.753 11.428v25.383h-7.484v-25.383c0-2.63-.708-4.652-2.123-5.866-1.416-1.213-4.147-2.124-7.383-2.124-3.236 0-5.865.809-7.483 2.124-1.619 1.315-2.124 3.236-2.124 5.866v25.383h-7.383V434.62h7.282v2.124a20.518 20.518 0 019.708-2.124c5.158 0 9.203 1.416 12.237 4.045zm30.339-4.045c5.157 0 9.405 1.416 12.338 4.045a14.666 14.666 0 014.753 11.428v25.383h-7.383v-2.124a20.518 20.518 0 01-9.708 2.124h-1.72c-4.449 0-8.09-.91-10.719-2.831a10.21 10.21 0 01-3.438-4.046 11.325 11.325 0 01-1.113-5.157 11.623 11.623 0 011.113-5.158 10.207 10.207 0 013.438-4.045c2.629-1.82 6.27-2.832 10.719-2.832h11.428v-1.213c0-2.63-.809-4.652-2.225-5.866-1.416-1.213-4.146-2.124-7.382-2.124h-.101c-8.9 0-9.405 5.158-9.608 6.776l-7.382-.809a13.544 13.544 0 015.36-10.011c2.933-2.226 6.775-3.439 11.63-3.439h.101zm-1.72 24.17c-2.022 0-4.753.303-6.472 1.517a3.74 3.74 0 00-1.517 3.135 3.642 3.642 0 001.517 3.135c1.012.708 2.832 1.517 6.472 1.517h1.72c3.337 0 5.865-.708 7.382-2.124a7.484 7.484 0 002.225-5.865v-1.315zM395.698 593.899l-3.438-9.708h-19.72l-3.439 9.708H360l19.316-54.206h6.067l19.417 54.206zm-6.472-18.304l-6.775-19.013-6.776 19.013zm52.284-18.81c3.135 2.831 4.753 6.775 4.753 11.731v25.383h-8.495v-25.485c0-2.427-.607-4.146-1.921-5.258-1.315-1.113-3.843-1.922-6.776-1.922-2.932 0-5.461.708-6.877 1.922-1.415 1.213-1.921 2.831-1.921 5.258v25.485h-8.495v-41.16h8.495v1.72a21.835 21.835 0 018.798-1.72c5.158 0 9.405 1.416 12.439 4.046zm43.081 0c3.135 2.831 4.754 6.775 4.754 11.731v9.708c0 4.854-1.619 8.899-4.754 11.731-3.135 2.831-7.281 4.045-12.439 4.045-5.157 0-9.405-1.315-12.54-4.045a15.172 15.172 0 01-4.753-11.731v-9.708a15.17 15.17 0 014.753-11.731c3.135-2.63 7.282-4.046 12.54-4.046 5.259 0 9.405 1.416 12.439 4.046zm-19.315 6.472c-1.315 1.112-1.922 2.832-1.922 5.259v9.708c0 2.427.607 4.146 1.922 5.259 1.314 1.112 3.843 1.921 6.876 1.921 3.034 0 5.461-.708 6.776-1.921 1.315-1.214 1.921-2.832 1.921-5.259v-9.708c0-2.427-.606-4.147-1.921-5.259-1.315-1.113-3.843-1.922-6.776-1.922-2.932 0-5.461.607-6.876 1.821zm57.239 30.642v-1.719a20.626 20.626 0 01-8.798 1.719c-5.158 0-9.405-1.315-12.439-4.045-3.034-2.731-4.753-6.776-4.753-11.731v-9.709c0-4.854 1.618-8.899 4.753-11.731 3.135-2.831 7.281-4.045 12.439-4.045a21.85 21.85 0 018.798 1.821v-14.766h8.495v54.206zm-15.675-30.743c-1.315 1.112-1.921 2.831-1.921 5.258v9.709c0 2.427.606 4.146 1.921 5.259 1.315 1.112 3.843 1.921 6.776 1.921 2.932 0 5.461-.708 6.877-1.921 1.415-1.214 1.921-2.832 1.921-5.259v-9.709c0-2.427-.607-4.146-1.921-5.258-1.315-1.113-3.843-1.922-6.877-1.922s-5.36.708-6.776 1.922zm45.003-18.406a5.06 5.06 0 01-5.057 5.057 5.158 5.158 0 01-5.056-5.057 5.057 5.057 0 1110.113 0zm-9.203 49.149v-41.16h8.495v41.16zm49.857-37.114c3.135 2.831 4.753 6.775 4.753 11.731v25.383h-8.495v-25.485c0-2.427-.607-4.146-1.921-5.258-1.315-1.113-3.843-1.922-6.776-1.922s-5.461.708-6.877 1.922c-1.416 1.213-1.921 2.831-1.921 5.258v25.485h-8.495v-41.16h8.495v1.719a21.85 21.85 0 018.798-1.719c5.157 0 9.405 1.416 12.439 4.046zm30.642-4.046c5.259 0 9.405 1.416 12.439 4.046a14.965 14.965 0 014.854 11.731v25.383h-8.495v-1.719a20.626 20.626 0 01-8.798 1.719h-1.618c-4.551 0-8.192-1.011-10.922-2.933a10.618 10.618 0 01-3.54-4.146 12.341 12.341 0 010-10.72 10.632 10.632 0 013.54-4.146c2.73-1.922 6.371-2.933 10.922-2.933h10.416v-.607a6.874 6.874 0 00-1.921-5.258c-1.517-1.214-3.843-1.922-6.877-1.922h-.101a11.135 11.135 0 00-6.574 1.719 5.869 5.869 0 00-2.123 4.349l-8.394-.91a14.055 14.055 0 015.461-10.214c2.933-2.225 6.877-3.439 11.731-3.439h.101zm-1.618 24.878c-2.731 0-4.753.506-5.967 1.315a2.832 2.832 0 00-1.213 2.629 2.73 2.73 0 001.213 2.528c1.113.81 3.236 1.315 5.967 1.315h1.618c3.135 0 5.461-.708 6.877-1.921a6.673 6.673 0 001.921-5.259v-.607z" fill="#fff"/></svg>