<svg viewBox="0 0 1000 660" xmlns="http://www.w3.org/2000/svg"><path d="m0 660h1000v-660h-1000z" fill="#eae3d8"/><path d="m828.792 273.622c-13.279 0-23.947 3.048-32.002 9.144-8.055 6.097-13.062 15.457-14.151 26.779l13.716 1.523c.871-7.62 3.919-13.498 8.926-17.198 5.442-4.137 13.28-6.314 23.511-6.314h.219c10.885 0 19.158 2.395 24.601 7.185 5.225 4.571 8.055 11.537 8.055 20.463v7.838h-37.663c-12.41 0-22.424 2.613-29.608 7.62-7.838 5.661-11.974 13.933-11.974 23.947 0 10.233 4.136 18.506 11.974 24.166 7.184 5.008 17.198 7.619 29.608 7.619h5.007c13.716 0 24.601-3.265 32.656-9.578v9.578h13.933v-71.19c0-13.062-4.354-23.73-12.627-30.914-8.273-6.966-19.594-10.668-33.962-10.668zm32.875 63.353v7.838c0 8.925-2.83 15.892-8.055 20.464-5.443 4.79-13.716 7.184-24.601 7.184h-5.007c-9.362 0-16.764-1.741-21.553-5.007-4.137-3.048-6.096-7.184-6.096-12.845 0-5.442 1.959-9.579 6.096-12.627 4.789-3.265 12.191-5.007 21.553-5.007zm-149.565-63.353c-13.716 0-24.601 3.266-32.656 9.58v-9.58h-13.933v112.772h13.933v-71.19c0-8.926 2.613-15.892 7.837-20.463 5.444-4.79 13.934-7.185 24.819-7.185s19.159 2.395 24.601 7.185c5.224 4.571 7.837 11.537 7.837 20.463v71.19h13.933v-71.19c0-13.062-4.353-23.73-12.627-30.914-8.055-6.966-19.375-10.668-33.744-10.668zm-86.212-39.622c-5.224 0-9.143 3.919-9.143 9.143 0 5.226 3.919 9.145 9.143 9.145 5.225 0 9.144-3.919 9.144-9.145 0-5.224-3.919-9.143-9.144-9.143zm6.967 152.394v-112.772h-13.933v112.772zm-46.589-152.394h-13.933v49.202c-8.055-6.314-18.941-9.58-32.656-9.58-14.369 0-25.69 3.702-33.746 10.668-8.272 7.184-12.626 17.852-12.626 30.914v29.609c0 13.063 4.354 23.73 12.626 30.915 8.056 6.966 19.377 10.666 33.746 10.666 13.715 0 24.601-3.265 32.656-9.578v9.578h13.933zm-46.589 53.556c10.885 0 19.375 2.395 24.818 7.185 5.225 4.571 7.838 11.537 7.838 20.463v29.609c0 8.925-2.613 15.892-7.838 20.464-5.443 4.79-13.933 7.184-24.818 7.184-10.886 0-19.159-2.394-24.601-7.184-5.226-4.572-7.838-11.539-7.838-20.464v-29.609c0-8.926 2.612-15.892 7.838-20.463 5.442-4.79 13.715-7.185 24.601-7.185zm-112.337-13.934c-14.369 0-25.907 3.702-33.963 10.668-8.272 7.184-12.626 17.852-12.626 30.914v29.609c0 13.063 4.354 23.73 12.626 30.915 8.056 6.966 19.594 10.666 33.963 10.666 14.368 0 25.689-3.7 33.744-10.666 8.273-7.185 12.627-17.852 12.627-30.915v-29.609c0-13.062-4.354-23.73-12.627-30.914-8.055-6.966-19.376-10.668-33.744-10.668zm0 13.934c10.885 0 19.158 2.395 24.601 7.185 5.225 4.571 7.837 11.537 7.837 20.463v29.609c0 8.925-2.612 15.892-7.837 20.464-5.443 4.79-13.716 7.184-24.601 7.184s-19.376-2.394-24.819-7.184c-5.225-4.572-7.837-11.539-7.837-20.464v-29.609c0-8.926 2.612-15.892 7.837-20.463 5.443-4.79 13.934-7.185 24.819-7.185zm-116.909-13.934c-13.716 0-24.601 3.266-32.656 9.58v-9.58h-13.933v112.772h13.933v-71.19c0-8.926 2.613-15.892 7.837-20.463 5.444-4.79 13.934-7.185 24.819-7.185s19.159 2.395 24.601 7.185c5.225 4.571 7.837 11.537 7.837 20.463v71.19h13.933v-71.19c0-13.062-4.353-23.73-12.627-30.914-8.055-6.966-19.375-10.668-33.744-10.668zm-66.183 112.772-54.427-152.394h-9.796l-54.427 152.394h14.804l10.45-29.608h67.924l10.668 29.608zm-88.388-43.541 28.954-81.204 28.955 81.204z"/></svg>