<svg viewBox="0 0 1000 660" xmlns="http://www.w3.org/2000/svg"><path d="m0 660h1000v-660h-1000z" fill="#eae3d8"/><path d="m849.444 270.094c-14.138 0-25.685 3.298-34.168 9.896-8.718 6.363-13.902 16.26-15.316 28.277l11.782 1.179c.942-8.719 4.477-15.553 10.604-20.266 6.362-4.712 15.552-7.304 27.098-7.304h.236c12.489 0 22.15 3.063 28.512 8.483 6.127 5.419 9.426 13.667 9.426 24.035v10.604h-43.358c-13.431 0-24.271 2.592-31.811 8.247-8.248 5.656-12.489 14.374-12.489 24.978s4.241 19.323 12.489 24.978c7.54 5.42 18.38 8.247 31.811 8.247h5.42c15.552 0 27.57-3.77 36.289-11.31.471-.472 1.178-.943 1.649-1.65v12.96h11.782v-77.054c0-6.834-1.178-13.196-3.299-18.616-2.356-5.419-5.655-10.368-10.132-14.138-8.719-7.541-20.737-11.546-36.289-11.546zm38.174 66.686v10.368c0 10.604-3.299 18.616-9.426 24.035-6.362 5.656-16.023 8.483-28.512 8.483h-5.42c-10.839 0-19.558-2.12-24.978-5.891-4.948-3.77-7.54-8.718-7.54-15.552 0-6.833 2.592-12.018 7.54-15.552 5.42-3.77 14.139-5.891 24.978-5.891zm-163.299-66.686c-15.552 0-27.806 4.005-36.289 11.546-.707.471-1.178.942-1.649 1.414v-12.96h-11.782v121.354h11.782v-77.054c0-10.368 3.063-18.616 9.425-24.035 6.363-5.42 16.024-8.483 28.513-8.483s22.15 3.063 28.513 8.483c6.126 5.419 9.425 13.667 9.425 24.035v77.054h11.782v-77.054c0-6.834-1.178-13.196-3.299-18.616-2.356-5.419-5.655-10.368-10.132-14.138-8.719-7.541-20.972-11.546-36.289-11.546zm-90.957-43.594c-4.713 0-8.248 3.535-8.248 8.247 0 4.713 3.535 8.248 8.248 8.248s8.247-3.535 8.247-8.248c0-4.712-3.534-8.247-8.247-8.247zm5.655 164.948v-121.354h-11.782v121.354zm-46.892 0v-164.948h-11.782v56.554c-.472-.472-.943-.943-1.65-1.414-8.483-7.541-20.736-11.546-36.289-11.546-15.316 0-27.57 4.005-36.288 11.546-4.477 3.77-7.776 8.719-10.133 14.138-2.121 5.42-3.299 11.782-3.299 18.616v32.754c0 6.834 1.178 13.196 3.299 18.616 2.357 5.655 5.656 10.368 10.133 14.374 8.718 7.54 20.972 11.31 36.288 11.31 15.553 0 27.806-3.77 36.289-11.31.707-.472 1.178-.943 1.65-1.65v12.96zm-49.721-109.572c12.489 0 22.151 3.063 28.513 8.483 6.362 5.419 9.426 13.667 9.426 24.035v32.754c0 10.604-3.064 18.616-9.426 24.035-6.362 5.656-16.024 8.483-28.513 8.483-12.488 0-22.15-2.827-28.512-8.483-6.127-5.419-9.426-13.431-9.426-24.035v-32.754c0-10.368 3.299-18.616 9.426-24.035 6.362-5.42 16.024-8.483 28.512-8.483zm-120.648-11.782c-15.552 0-27.805 4.005-36.288 11.546-4.477 3.77-7.776 8.719-10.133 14.138-2.121 5.42-3.299 11.782-3.299 18.616v32.754c0 6.834 1.178 13.196 3.299 18.616 2.357 5.655 5.656 10.368 10.133 14.374 8.483 7.54 20.736 11.31 36.288 11.31 15.317 0 27.57-3.77 36.289-11.31 4.477-4.006 7.776-8.719 10.133-14.374 2.12-5.42 3.299-11.782 3.299-18.616v-32.754c0-6.834-1.179-13.196-3.299-18.616-2.357-5.419-5.656-10.368-10.133-14.138-8.719-7.541-20.972-11.546-36.289-11.546zm0 11.782c12.489 0 22.151 3.063 28.513 8.483 6.127 5.419 9.426 13.667 9.426 24.035v32.754c0 10.604-3.299 18.616-9.426 24.035-6.362 5.656-16.024 8.483-28.513 8.483s-22.15-2.827-28.512-8.483c-6.362-5.419-9.426-13.431-9.426-24.035v-32.754c0-10.368 3.064-18.616 9.426-24.035 6.362-5.42 16.023-8.483 28.512-8.483zm-125.36-11.782c-15.553 0-27.806 4.005-36.289 11.546-.707.471-1.178.942-1.65 1.414v-12.96h-11.782v121.354h11.782v-77.054c0-10.368 3.064-18.616 9.426-24.035 6.362-5.42 16.024-8.483 28.513-8.483s22.15 3.063 28.512 8.483c6.127 5.419 9.426 13.667 9.426 24.035v77.054h11.782v-77.054c0-6.834-1.178-13.196-3.299-18.616-2.357-5.419-5.656-10.368-10.133-14.138-8.718-7.541-20.972-11.546-36.288-11.546zm-70.928 121.354-58.91-164.948h-8.248l-58.91 164.948h12.489l11.546-32.754h77.762l11.782 32.754zm-97.791-44.536 34.639-97.084 34.639 97.084z"/></svg>