<svg viewBox="0 0 1000 660" xmlns="http://www.w3.org/2000/svg"><path d="m0 660h1000v-660h-1000z" fill="#eae3d8"/><path d="m406.216 120.208-3.843-10.72h-25.586l-3.843 10.72h-4.146l19.417-54.206h2.73l19.316 54.206zm-5.259-14.664-11.427-31.856-11.428 31.856h22.754zm44.599-21.44c1.456 1.273 2.598 2.865 3.337 4.652.74 1.937 1.117 3.994 1.112 6.068v25.283h-3.843v-25.283c0-3.438-1.112-6.068-3.135-7.888s-5.259-2.832-9.405-2.832-7.281 1.012-9.405 2.832-3.135 4.45-3.135 7.888v25.283h-3.843v-39.744h3.843v4.247l.506-.506c2.831-2.427 6.775-3.842 11.933-3.842 5.157 0 9.102 1.415 12.035 3.842zm41.159 0c1.457 1.272 2.599 2.865 3.337 4.652.741 1.937 1.118 3.994 1.113 6.068v10.72c.005 2.074-.372 4.132-1.113 6.069-.731 1.819-1.873 3.446-3.337 4.752-2.831 2.427-6.876 3.742-11.933 3.742s-9.102-1.214-11.933-3.742c-1.464-1.306-2.606-2.933-3.338-4.753-.74-1.937-1.117-3.994-1.112-6.068v-10.72c-.005-2.074.372-4.131 1.112-6.068.739-1.787 1.881-3.379 3.338-4.652 2.831-2.427 6.775-3.842 11.933-3.842s9 1.415 11.933 3.842zm-21.237 2.832c-2.124 1.82-3.135 4.45-3.135 7.888v10.72c0 3.438 1.011 6.068 3.135 7.888s5.259 2.832 9.405 2.832 7.281-.911 9.405-2.832c2.124-1.922 3.135-4.45 3.135-7.888v-10.72c0-3.438-1.112-6.068-3.135-7.888-2.022-1.82-5.259-2.832-9.405-2.832s-7.383 1.113-9.506 2.832zm61.386 33.272v-4.248l-.506.506c-2.832 2.427-6.776 3.742-11.933 3.742-5.158 0-9.102-1.214-11.934-3.742-1.463-1.307-2.605-2.933-3.337-4.753-.74-1.937-1.117-3.994-1.112-6.068v-10.821c-.005-2.074.372-4.131 1.112-6.068.739-1.787 1.881-3.379 3.337-4.652 2.832-2.427 6.877-3.842 11.934-3.842 5.056 0 9.101 1.314 11.933 3.842l.506.506v-18.608h3.843v54.206zm-21.844-33.171c-2.023 1.821-3.135 4.45-3.135 7.888v10.72c0 3.438 1.112 6.068 3.135 7.888 2.022 1.82 5.258 2.832 9.405 2.832 4.146 0 7.281-.911 9.405-2.832 2.123-1.921 3.135-4.45 3.135-7.888v-10.821c0-3.438-1.012-6.068-3.135-7.888-2.124-1.82-5.36-2.73-9.405-2.73s-7.282 1.011-9.405 2.73zm41.968-18.304c-.001 1.508-1.223 2.729-2.731 2.729-1.507 0-2.729-1.223-2.729-2.73 0-1.508 1.222-2.73 2.73-2.73.732-.028 1.443.251 1.961.769.518.519.797 1.23.769 1.962zm-4.753 51.475v-39.845h3.843v39.845zm43.79-36.104c1.456 1.273 2.598 2.865 3.337 4.652.74 1.937 1.117 3.994 1.112 6.068v25.283h-3.843v-25.283c0-3.438-1.112-6.068-3.135-7.888-2.022-1.82-5.259-2.832-9.405-2.832s-7.281 1.012-9.405 2.832-3.135 4.45-3.135 7.888v25.283h-3.843v-39.744h3.843v4.247l.506-.506c2.832-2.427 6.776-3.842 11.933-3.842 5.158 0 9.203 1.415 12.035 3.842zm29.327-3.741c5.158 0 9.102 1.314 11.933 3.843 1.457 1.272 2.599 2.864 3.338 4.652.74 1.937 1.117 3.994 1.112 6.067v25.283h-3.843v-4.248l-.506.506c-2.831 2.427-6.775 3.742-11.933 3.742h-1.921c-4.45 0-7.989-.911-10.417-2.731-2.587-1.928-4.112-4.965-4.112-8.192.001-3.226 1.525-6.263 4.113-8.191 2.427-1.82 6.067-2.73 10.416-2.73h14.259v-3.439c0-3.438-1.113-6.067-3.135-7.888-2.023-1.82-5.259-2.831-9.405-2.831h-.101c-3.843 0-6.776.809-8.899 2.427-2.033 1.643-3.281 4.065-3.439 6.674l-3.843-.404c.282-3.68 2.121-7.065 5.056-9.304 2.832-2.124 6.574-3.236 11.226-3.236zm-1.82 21.844c-3.54 0-6.473.708-8.192 1.921-1.646 1.184-2.564 3.135-2.427 5.158-.117 2.019.796 3.96 2.427 5.157 1.821 1.214 4.652 1.922 8.192 1.922h1.82c4.146 0 7.281-.911 9.405-2.832s3.135-4.45 3.135-7.888v-3.438zm-209.642 136.423-3.843-10.517h-24.069l-3.742 10.517h-5.258l19.315-54.205h3.439l19.315 54.205h-5.258zm-5.562-15.472-10.315-28.924-10.316 28.823h20.631zm46.317-20.833c2.933 2.528 4.45 6.371 4.45 11.023v25.282h-4.956v-25.282c0-3.135-.91-5.663-2.831-7.281-1.922-1.618-4.854-2.528-8.697-2.528s-6.877.809-8.798 2.528c-1.922 1.719-2.832 4.146-2.832 7.281v25.282h-4.955v-40.148h4.955v3.439c2.832-2.225 6.775-3.439 11.63-3.439 4.854 0 9.203 1.315 12.034 3.843zm41.565 0c2.932 2.528 4.449 6.371 4.449 11.023v10.518c0 4.652-1.517 8.394-4.449 11.023-2.933 2.629-6.877 3.843-12.035 3.843s-9.203-1.315-12.034-3.843c-2.832-2.528-4.45-6.371-4.45-11.023v-10.518c0-4.652 1.517-8.394 4.45-11.023 2.932-2.629 6.978-3.843 12.034-3.843 5.057 0 9.203 1.315 12.035 3.843zm-20.833 3.742c-1.82 1.618-2.832 4.146-2.832 7.281v10.518c0 3.135.91 5.663 2.832 7.281 1.921 1.618 4.955 2.528 8.798 2.528s6.776-.809 8.697-2.528c1.922-1.719 2.832-4.146 2.832-7.281v-10.518c0-3.135-.91-5.663-2.832-7.281-1.921-1.618-4.854-2.528-8.697-2.528s-6.877.809-8.798 2.528zm65.33 32.563h-4.956v-3.438c-2.831 2.225-6.776 3.438-11.63 3.438s-9.101-1.314-12.034-3.842-4.45-6.372-4.45-11.023v-10.417c0-4.652 1.517-8.394 4.45-11.023s6.877-3.843 12.034-3.843c5.158 0 8.697 1.113 11.63 3.439v-17.496h4.956zm-25.283-32.563c-1.82 1.618-2.832 4.146-2.832 7.281v10.518c0 3.135.911 5.663 2.832 7.281 1.922 1.618 4.854 2.528 8.697 2.528s6.877-.809 8.799-2.528c1.921-1.719 2.831-4.146 2.831-7.281v-10.518c0-3.135-.91-5.663-2.831-7.281-1.922-1.618-4.956-2.528-8.799-2.528s-6.775.809-8.697 2.528zm42.677-18.406c0 1.787-1.449 3.236-3.236 3.236s-3.236-1.449-3.236-3.236 1.449-3.236 3.236-3.236c.866-.028 1.706.304 2.319.917s.945 1.453.917 2.319zm-5.764 50.969v-40.148h4.955v40.047h-4.955zm45.103-36.305c2.933 2.528 4.45 6.371 4.45 11.023v25.282h-4.955v-25.282c0-3.135-.91-5.663-2.832-7.281-1.921-1.618-4.854-2.528-8.697-2.528s-6.877.809-8.799 2.528c-1.921 1.719-2.831 4.146-2.831 7.281v25.282h-4.854v-40.148h4.955v3.439c2.831-2.225 6.776-3.439 11.63-3.439s9.102 1.315 11.933 3.843zm29.53-3.843c5.158 0 9.102 1.315 12.035 3.843 2.932 2.528 4.449 6.371 4.449 11.023v25.282h-4.955v-3.438c-2.832 2.225-6.776 3.438-11.63 3.438h-1.82c-4.45 0-7.99-.91-10.518-2.73-2.676-2.027-4.247-5.189-4.247-8.546 0-3.356 1.571-6.519 4.247-8.545 2.528-1.82 6.068-2.731 10.518-2.731h13.349v-2.831c.17-2.725-.865-5.387-2.832-7.281-1.921-1.72-4.854-2.528-8.697-2.528h-.101c-3.641 0-6.472.808-8.394 2.224-1.848 1.495-2.985 3.696-3.135 6.068l-4.854-.506c.264-3.742 2.102-7.196 5.057-9.506 2.831-2.157 6.64-3.236 11.427-3.236zm-1.82 22.552c-3.337 0-5.967.607-7.686 1.82-1.405 1.092-2.227 2.772-2.227 4.551s.822 3.459 2.227 4.551c1.719 1.112 4.349 1.82 7.686 1.82h1.82c3.843 0 6.776-.809 8.697-2.528 1.967-1.894 3.002-4.556 2.832-7.281v-2.832h-13.248zm-213.991 136.019-3.741-10.315h-22.653l-3.641 10.315h-6.574l19.417-54.205h4.349l19.316 54.205zm-5.865-16.484-9.102-25.383-9.102 25.383zm48.34-20.125c3.034 2.63 4.551 6.473 4.551 11.226v25.383h-6.169v-25.383c0-2.832-.809-5.158-2.427-6.574-1.618-1.415-4.551-2.326-8.091-2.326-3.539 0-6.371.81-8.09 2.326-1.717 1.74-2.602 4.136-2.427 6.574v25.383h-6.169v-40.452h6.169v2.731c3.204-1.911 6.89-2.859 10.618-2.731 4.956 0 9.102 1.315 12.035 3.843zm42.07 0c3.034 2.63 4.551 6.473 4.551 11.226v10.315c0 4.753-1.517 8.596-4.551 11.225-3.034 2.63-7.079 3.843-12.237 3.843-5.157 0-9.203-1.314-12.135-3.843-2.933-2.528-4.652-6.472-4.652-11.225v-10.315c0-4.753 1.618-8.596 4.652-11.226 3.033-2.629 7.079-3.843 12.135-3.843 5.057 0 9.304 1.315 12.237 3.843zm-20.327 4.652c-1.717 1.74-2.602 4.136-2.427 6.574v10.315c-.175 2.438.71 4.833 2.427 6.573 1.82 1.517 4.55 2.326 8.09 2.326s6.371-.809 8.09-2.326c1.72-1.516 2.428-3.741 2.428-6.573v-10.315c0-2.832-.809-5.158-2.428-6.574-1.617-1.415-4.55-2.326-8.09-2.326s-6.371.709-8.09 2.326zm65.431 31.957h-6.169v-2.73c-3.204 1.911-6.891 2.859-10.619 2.73-5.157 0-9.304-1.314-12.236-3.843-2.933-2.528-4.551-6.472-4.551-11.225v-10.315c0-4.753 1.517-8.596 4.551-11.226 3.034-2.629 7.079-3.843 12.236-3.843 3.729-.128 7.415.82 10.619 2.731v-16.484h6.169zm-24.878-31.957c-1.72 1.518-2.427 3.742-2.427 6.574v10.315c0 2.832.809 5.158 2.427 6.573 1.618 1.416 4.551 2.326 8.09 2.326 3.54 0 6.371-.809 8.09-2.326 1.718-1.739 2.602-4.135 2.428-6.573v-10.315c.174-2.439-.71-4.834-2.428-6.574-1.82-1.516-4.55-2.326-8.09-2.326-3.539 0-6.371.709-8.09 2.326zm43.486-18.405c0 2.121-1.72 3.842-3.842 3.843-2.101-.053-3.791-1.743-3.844-3.843-.004-1.375.728-2.648 1.919-3.336 1.19-.689 2.658-.689 3.848 0 1.191.688 1.923 1.961 1.919 3.336zm-6.978 50.261v-40.452h6.169v40.452zm46.823-36.508c3.034 2.63 4.55 6.473 4.55 11.226v25.383h-6.168v-25.383c0-2.832-.809-5.158-2.428-6.574-1.617-1.415-4.55-2.326-8.09-2.326-3.539 0-6.371.81-8.09 2.326-1.717 1.74-2.602 4.135-2.428 6.574v25.383h-6.168v-40.452h6.168v2.731c3.204-1.911 6.891-2.859 10.619-2.731 4.956 0 9.102 1.315 12.035 3.843zm29.833-3.843c5.157 0 9.304 1.315 12.237 3.843 2.932 2.529 4.55 6.473 4.55 11.226v25.383h-6.169v-2.73c-3.204 1.911-6.89 2.859-10.618 2.73h-1.719c-4.45 0-8.091-.91-10.72-2.831-2.911-2.008-4.59-5.367-4.45-8.9-.124-3.502 1.556-6.823 4.45-8.798 2.528-1.82 6.169-2.831 10.72-2.831h12.337v-2.023c.175-2.439-.709-4.834-2.427-6.574-1.82-1.516-4.551-2.326-8.09-2.326h-.101c-3.337 0-5.967.709-7.787 2.023-1.693 1.322-2.727 3.315-2.832 5.461l-6.168-.607c.304-3.861 2.211-7.418 5.258-9.809 2.832-2.124 6.776-3.237 11.428-3.237zm-1.719 23.26c-3.135 0-5.562.607-7.079 1.719-1.25.863-1.945 2.329-1.821 3.843-.104 1.511.586 2.966 1.821 3.843 1.517 1.113 3.944 1.618 7.079 1.618h1.719c3.539 0 6.371-.809 8.09-2.326 1.717-1.74 2.602-4.135 2.427-6.573v-2.124h-12.135zm-219.148 135.615-3.54-10.012h-21.035l-3.641 10.012h-7.888l19.316-54.205h5.259l19.316 54.205h-7.888zm-6.169-17.394-7.888-21.945-7.787 21.945zm50.362-19.417c3.136 2.731 4.753 6.675 4.753 11.428v25.383h-7.382v-25.383c0-2.63-.708-4.652-2.124-5.866-1.416-1.213-4.146-2.124-7.382-2.124s-5.866.809-7.484 2.124-2.124 3.236-2.124 5.866v25.383h-7.382v-40.856h7.382v2.124c3.013-1.493 6.348-2.222 9.709-2.124 4.955 0 9.102 1.416 12.034 4.045zm42.677 0c3.135 2.731 4.753 6.675 4.753 11.428v10.012c0 4.753-1.618 8.697-4.753 11.427-3.135 2.731-7.079 3.944-12.338 3.944s-9.405-1.315-12.337-3.944c-2.933-2.629-4.754-6.674-4.754-11.427v-10.012c0-4.753 1.618-8.697 4.754-11.428 3.135-2.731 7.078-4.045 12.337-4.045s9.304 1.416 12.338 4.045zm-19.821 5.562c-1.416 1.214-2.124 3.236-2.124 5.866v10.012c-.153 2.167.619 4.298 2.124 5.865 1.618 1.416 4.146 2.124 7.483 2.124 3.338 0 5.765-.708 7.383-2.124s2.124-3.236 2.124-5.865v-10.012c0-2.63-.709-4.652-2.124-5.866-1.416-1.213-4.147-2.124-7.383-2.124s-5.865.708-7.483 2.124zm58.25 31.249v-2.124c-3.013 1.493-6.347 2.222-9.708 2.124-5.191 0-9.304-1.314-12.338-3.944-3.135-2.73-4.753-6.674-4.753-11.427v-10.012c0-4.753 1.618-8.697 4.753-11.428s7.079-4.045 12.338-4.045c3.361-.098 6.695.631 9.708 2.124v-15.473h7.383v54.205zm-17.192-31.249c-1.516 1.214-2.124 3.236-2.124 5.866v10.012c0 2.629.709 4.55 2.124 5.865 1.416 1.315 4.147 2.124 7.383 2.124s5.865-.708 7.483-2.124c1.506-1.567 2.277-3.698 2.124-5.865v-10.012c0-2.63-.809-4.652-2.124-5.866-1.314-1.213-4.146-2.124-7.483-2.124s-5.663.708-7.383 2.124zm44.396-18.405c-.053 2.435-2.014 4.396-4.449 4.449-2.435-.053-4.396-2.014-4.45-4.449.053-2.435 2.015-4.397 4.45-4.45 2.457.001 4.449 1.993 4.449 4.45zm-8.191 49.654v-40.856h7.382v40.856zm48.441-36.811c3.135 2.731 4.753 6.675 4.753 11.428v25.383h-7.484v-25.383c0-2.63-.708-4.652-2.123-5.866-1.416-1.213-4.147-2.124-7.383-2.124s-5.865.809-7.483 2.124c-1.619 1.315-2.124 3.236-2.124 5.866v25.383h-7.383v-40.856h7.282v2.124c3.013-1.493 6.347-2.222 9.708-2.124 5.158 0 9.203 1.416 12.237 4.045zm30.339-4.045c5.157 0 9.405 1.416 12.338 4.045 3.193 2.921 4.932 7.104 4.753 11.428v25.383h-7.383v-2.124c-3.013 1.493-6.347 2.222-9.708 2.124h-1.72c-4.449 0-8.09-.91-10.719-2.831-1.483-1.022-2.669-2.418-3.438-4.046-.772-1.607-1.153-3.374-1.113-5.157-.029-1.782.351-3.547 1.113-5.158.769-1.628 1.955-3.024 3.438-4.045 2.629-1.82 6.27-2.832 10.719-2.832h11.428v-1.213c0-2.63-.809-4.652-2.225-5.866-1.416-1.213-4.146-2.124-7.382-2.124h-.101c-8.9 0-9.405 5.158-9.608 6.776l-7.382-.809c.234-3.961 2.193-7.62 5.36-10.011 2.933-2.226 6.775-3.439 11.63-3.439h.101zm-1.72 24.17c-2.022 0-4.753.303-6.472 1.517-.991.731-1.558 1.904-1.517 3.135-.059 1.235.512 2.415 1.517 3.135 1.012.708 2.832 1.517 6.472 1.517h1.72c3.337 0 5.865-.708 7.382-2.124 1.565-1.535 2.378-3.678 2.225-5.865v-1.315zm-223.901 135.109-3.438-9.708h-19.72l-3.439 9.708h-9.101l19.316-54.206h6.067l19.417 54.206zm-6.472-18.304-6.775-19.013-6.776 19.013zm52.284-18.81c3.135 2.831 4.753 6.775 4.753 11.731v25.383h-8.495v-25.485c0-2.427-.607-4.146-1.921-5.258-1.315-1.113-3.843-1.922-6.776-1.922-2.932 0-5.461.708-6.877 1.922-1.415 1.213-1.921 2.831-1.921 5.258v25.485h-8.495v-41.16h8.495v1.72c2.782-1.176 5.778-1.761 8.798-1.72 5.158 0 9.405 1.416 12.439 4.046zm43.081 0c3.135 2.831 4.754 6.775 4.754 11.731v9.708c0 4.854-1.619 8.899-4.754 11.731-3.135 2.831-7.281 4.045-12.439 4.045-5.157 0-9.405-1.315-12.54-4.045-3.218-3.031-4.953-7.315-4.753-11.731v-9.708c-.201-4.416 1.535-8.7 4.753-11.731 3.135-2.63 7.282-4.046 12.54-4.046 5.259 0 9.405 1.416 12.439 4.046zm-19.315 6.472c-1.315 1.112-1.922 2.832-1.922 5.259v9.708c0 2.427.607 4.146 1.922 5.259 1.314 1.112 3.843 1.921 6.876 1.921 3.034 0 5.461-.708 6.776-1.921 1.315-1.214 1.921-2.832 1.921-5.259v-9.708c0-2.427-.606-4.147-1.921-5.259-1.315-1.113-3.843-1.922-6.776-1.922-2.932 0-5.461.607-6.876 1.821zm57.239 30.642v-1.719c-2.771 1.211-5.775 1.798-8.798 1.719-5.158 0-9.405-1.315-12.439-4.045-3.034-2.731-4.753-6.776-4.753-11.731v-9.709c0-4.854 1.618-8.899 4.753-11.731 3.135-2.831 7.281-4.045 12.439-4.045 3.027-.009 6.023.611 8.798 1.821v-14.766h8.495v54.206zm-15.675-30.743c-1.315 1.112-1.921 2.831-1.921 5.258v9.709c0 2.427.606 4.146 1.921 5.259 1.315 1.112 3.843 1.921 6.776 1.921 2.932 0 5.461-.708 6.877-1.921 1.415-1.214 1.921-2.832 1.921-5.259v-9.709c0-2.427-.607-4.146-1.921-5.258-1.315-1.113-3.843-1.922-6.877-1.922s-5.36.708-6.776 1.922zm45.003-18.406c-.001 2.792-2.264 5.055-5.056 5.057-2.771-.054-5.003-2.287-5.057-5.057-.026-1.824.932-3.52 2.507-4.439 1.575-.92 3.524-.92 5.099 0 1.575.919 2.533 2.615 2.507 4.439zm-9.203 49.149v-41.16h8.495v41.16zm49.857-37.114c3.135 2.831 4.753 6.775 4.753 11.731v25.383h-8.495v-25.485c0-2.427-.607-4.146-1.921-5.258-1.315-1.113-3.843-1.922-6.776-1.922s-5.461.708-6.877 1.922c-1.416 1.213-1.921 2.831-1.921 5.258v25.485h-8.495v-41.16h8.495v1.719c2.782-1.175 5.778-1.76 8.798-1.719 5.157 0 9.405 1.416 12.439 4.046zm30.642-4.046c5.259 0 9.405 1.416 12.439 4.046 3.279 2.996 5.057 7.294 4.854 11.731v25.383h-8.495v-1.719c-2.771 1.211-5.775 1.798-8.798 1.719h-1.618c-4.551 0-8.192-1.011-10.922-2.933-1.521-1.05-2.741-2.479-3.54-4.146-1.633-3.387-1.633-7.333 0-10.72.8-1.666 2.02-3.095 3.54-4.146 2.73-1.922 6.371-2.933 10.922-2.933h10.416v-.607c.135-1.946-.564-3.857-1.921-5.258-1.517-1.214-3.843-1.922-6.877-1.922h-.101c-2.317-.126-4.615.475-6.574 1.719-1.3 1.077-2.074 2.662-2.123 4.349l-8.394-.91c.268-4.031 2.257-7.752 5.461-10.214 2.933-2.225 6.877-3.439 11.731-3.439h.101zm-1.618 24.878c-2.731 0-4.753.506-5.967 1.315-.856.588-1.321 1.597-1.213 2.629-.092 1.002.374 1.973 1.213 2.528 1.113.81 3.236 1.315 5.967 1.315h1.618c3.135 0 5.461-.708 6.877-1.921 1.38-1.387 2.083-3.309 1.921-5.259v-.607z"/></svg>