<svg viewBox="0 0 1000 660" xmlns="http://www.w3.org/2000/svg"><path d="M0 660h1000V0H0z" fill="#e5e5e5"/><path d="M248.207 394.141l-16.504-46.251h-76.765l-16.505 46.251H125L187.371 219.5h11.707l62.371 174.641zm-21.11-58.726l-33.968-95.188-33.969 95.188zm64.29-69.472h12.475v22.262l3.454-4.222a51.048 51.048 0 0118.808-13.434 61.607 61.607 0 0147.402 0 51.037 51.037 0 0118.807 13.434 61.018 61.018 0 0111.899 20.342 82.324 82.324 0 010 51.433 60.436 60.436 0 01-11.899 20.535 54.105 54.105 0 01-18.615 13.433 61.598 61.598 0 01-47.402 0 54.118 54.118 0 01-18.616-13.433l-3.454-4.414v68.704h-12.474v-174.64zm91.351 101.905a45.293 45.293 0 009.404-16.312 68.321 68.321 0 000-43.18 44.922 44.922 0 00-9.404-16.121c-8.061-9.02-19.575-14.01-33.009-14.01-13.434 0-24.949 4.798-33.201 14.01a48.74 48.74 0 00-9.403 16.121 70.803 70.803 0 000 43.18 49.299 49.299 0 009.403 16.312c8.252 9.02 19.767 14.01 33.201 14.01 13.434 0 24.948-4.99 33.009-14.01zm134.914-97.299a54.113 54.113 0 0118.808 13.434 60.455 60.455 0 0111.899 20.534 77.576 77.576 0 014.03 25.717v6.333H448.18a65.594 65.594 0 003.071 15.353 48.729 48.729 0 009.404 16.12c8.252 9.02 19.766 14.01 33.2 14.01a44.53 44.53 0 0023.414-6.141 42.22 42.22 0 0015.928-16.505l2.879-5.565 10.939 5.949-2.879 5.566a57.774 57.774 0 01-8.828 12.282 56.259 56.259 0 01-11.515 9.404 58.338 58.338 0 01-29.746 7.676 59.494 59.494 0 01-23.797-4.798 51.043 51.043 0 01-18.616-13.433 61.046 61.046 0 01-11.898-20.343 82.324 82.324 0 010-51.433 60.258 60.258 0 0111.898-20.534 54.11 54.11 0 0118.808-13.434 61.601 61.601 0 0147.21-.192zm-56.806 21.686a49.326 49.326 0 00-9.403 16.312 65.602 65.602 0 00-3.071 15.354h91.35a59.9 59.9 0 00-3.262-15.354 45.498 45.498 0 00-9.404-16.312c-8.06-9.02-19.575-14.01-33.009-14.01-13.434 0-25.14 4.99-33.393 14.01zm180.974-13.818c-13.434 0-24.949 4.798-33.201 14.01a49.323 49.323 0 00-9.404 16.313 65.808 65.808 0 00-3.262 21.302v64.099h-12.475V265.943h12.475v22.454l3.454-4.414a54.119 54.119 0 0118.807-13.434 59.502 59.502 0 0123.798-4.798h6.332v12.474h-6.141zm91.734-12.474v12.474H693.06v69.089a45.309 45.309 0 002.303 14.585 30.72 30.72 0 005.949 10.747 25.909 25.909 0 0020.535 9.02h11.899v12.474h-11.899a39.525 39.525 0 01-16.888-3.454 37.419 37.419 0 01-13.05-9.787 43.566 43.566 0 01-8.252-14.97 58.352 58.352 0 01-2.879-18.423V219.5h12.474v46.251h40.494zm106.895 4.606a54.865 54.865 0 0118.615 13.434 56.61 56.61 0 0111.899 20.534 77.735 77.735 0 014.03 25.717v64.098h-12.282V372.07a32.466 32.466 0 01-3.263 4.031 49.519 49.519 0 01-18.615 13.434 60.451 60.451 0 01-23.989 4.797c-17.464 0-32.242-4.222-42.797-12.09A39.732 39.732 0 01762.533 369a33.01 33.01 0 01-1.152-29.171 27.439 27.439 0 018.252-9.979c11.515-9.404 32.242-13.05 61.412-11.323a312.263 312.263 0 0131.282 3.838 60.589 60.589 0 00-3.071-13.818 47.208 47.208 0 00-9.403-16.312c-8.253-9.02-19.768-14.01-33.201-14.01a45.863 45.863 0 00-23.413 6.142 40.678 40.678 0 00-15.737 16.696l-3.071 5.565-10.939-5.949 2.878-5.565a59.91 59.91 0 018.829-12.283 54.69 54.69 0 0111.514-9.211 57.193 57.193 0 0129.747-7.869 59.68 59.68 0 0123.989 4.798zm-40.877 61.028c-9.98 1.343-17.464 4.03-22.262 7.868a16.313 16.313 0 00-6.333 13.818c0 7.101 3.838 13.818 10.555 18.999 6.717 5.182 16.696 9.596 35.312 9.596 13.817 0 25.332-4.798 33.393-13.818 8.06-9.02 11.514-19.383 12.282-32.816a311.618 311.618 0 00-32.625-4.031l-13.242-.576a119.219 119.219 0 00-17.08.96z" fill="#666"/></svg>