<svg viewBox="0 0 1000 660" xmlns="http://www.w3.org/2000/svg"><path d="m0 660h1000v-660h-1000z" fill="#eae3d8"/><path d="m248.207 394.141-16.504-46.251h-76.765l-16.505 46.251h-13.433l62.371-174.641h11.707l62.371 174.641zm-21.11-58.726-33.968-95.188-33.969 95.188zm64.29-69.472h12.475v22.262l3.454-4.222c5.16-5.857 11.594-10.453 18.808-13.434 15.168-6.322 32.234-6.322 47.402 0 7.214 2.981 13.648 7.577 18.807 13.434 5.251 5.943 9.292 12.853 11.899 20.342 5.493 16.704 5.493 34.729 0 51.433-2.57 7.564-6.614 14.544-11.899 20.535-5.173 5.758-11.521 10.338-18.615 13.433-15.168 6.323-32.234 6.323-47.402 0-7.095-3.095-13.443-7.676-18.616-13.433l-3.454-4.414v68.704h-12.474v-174.64zm91.351 101.905c4.243-4.719 7.447-10.276 9.404-16.312 4.668-14.015 4.668-29.165 0-43.18-1.971-5.973-5.175-11.465-9.404-16.121-8.061-9.02-19.575-14.01-33.009-14.01s-24.949 4.798-33.201 14.01c-4.144 4.718-7.336 10.192-9.403 16.121-4.496 14.042-4.496 29.138 0 43.18 2.057 5.991 5.25 11.529 9.403 16.312 8.252 9.02 19.767 14.01 33.201 14.01s24.948-4.99 33.009-14.01zm134.914-97.299c7.164 3.071 13.579 7.654 18.808 13.434 5.284 5.991 9.328 12.97 11.899 20.534 2.782 8.284 4.145 16.979 4.03 25.717v6.333h-104.209c.407 5.222 1.438 10.376 3.071 15.353 2.067 5.929 5.26 11.403 9.404 16.12 8.252 9.02 19.766 14.01 33.2 14.01 8.222.154 16.326-1.971 23.414-6.141 6.731-3.926 12.244-9.639 15.928-16.505l2.879-5.565 10.939 5.949-2.879 5.566c-2.392 4.463-5.36 8.593-8.828 12.282-3.405 3.63-7.278 6.792-11.515 9.404-9.051 5.17-19.323 7.821-29.746 7.676-8.178.053-16.279-1.58-23.797-4.798-7.145-3.006-13.511-7.6-18.616-13.433-5.25-5.944-9.291-12.854-11.898-20.343-5.493-16.704-5.493-34.729 0-51.433 2.566-7.566 6.61-14.546 11.898-20.534 5.229-5.78 11.644-10.363 18.808-13.434 15.087-6.331 32.072-6.4 47.21-.192zm-56.806 21.686c-4.153 4.783-7.345 10.321-9.403 16.312-1.633 4.977-2.664 10.132-3.071 15.354h91.35c-.409-5.239-1.506-10.401-3.262-15.354-1.963-6.034-5.166-11.59-9.404-16.312-8.06-9.02-19.575-14.01-33.009-14.01s-25.14 4.99-33.393 14.01zm180.974-13.818c-13.434 0-24.949 4.798-33.201 14.01-4.153 4.783-7.346 10.322-9.404 16.313-2.251 6.873-3.353 14.07-3.262 21.302v64.099h-12.475v-128.198h12.475v22.454l3.454-4.414c5.228-5.78 11.644-10.362 18.807-13.434 7.519-3.218 15.62-4.851 23.798-4.798h6.332v12.474h-6.141zm91.734-12.474v12.474h-40.494v69.089c-.035 4.955.743 9.882 2.303 14.585 1.239 3.946 3.263 7.602 5.949 10.747 5.121 5.967 12.676 9.285 20.535 9.02h11.899v12.474h-11.899c-5.815.105-11.581-1.074-16.888-3.454-5.017-2.263-9.473-5.605-13.05-9.787-3.712-4.396-6.517-9.484-8.252-14.97-1.941-5.947-2.913-12.167-2.879-18.423v-128.198h12.474v46.251h40.494zm106.895 4.606c7.083 3.115 13.427 7.693 18.615 13.434 5.373 5.927 9.428 12.925 11.899 20.534 2.779 8.285 4.142 16.979 4.03 25.717v64.098h-12.282v-22.262c-.978 1.429-2.069 2.776-3.263 4.031-5.067 5.874-11.443 10.476-18.615 13.434-7.586 3.217-15.749 4.85-23.989 4.797-17.464 0-32.242-4.222-42.797-12.09-4.777-3.501-8.711-8.025-11.514-13.242-4.896-9.016-5.322-19.797-1.152-29.171 1.915-3.937 4.745-7.359 8.252-9.979 11.515-9.404 32.242-13.05 61.412-11.323 10.486.752 20.926 2.033 31.282 3.838-.48-4.71-1.511-9.348-3.071-13.818-2.007-6.014-5.205-11.561-9.403-16.312-8.253-9.02-19.768-14.01-33.201-14.01-8.213-.086-16.299 2.035-23.413 6.142-6.739 3.94-12.202 9.736-15.737 16.696l-3.071 5.565-10.939-5.949 2.878-5.565c2.412-4.451 5.379-8.578 8.829-12.283 3.405-3.576 7.278-6.675 11.514-9.211 9.011-5.291 19.299-8.013 29.747-7.869 8.242-.074 16.41 1.559 23.989 4.798zm-40.877 61.028c-9.98 1.343-17.464 4.03-22.262 7.868-4.259 3.281-6.628 8.45-6.333 13.818 0 7.101 3.838 13.818 10.555 18.999 6.717 5.182 16.696 9.596 35.312 9.596 13.817 0 25.332-4.798 33.393-13.818 8.06-9.02 11.514-19.383 12.282-32.816-10.796-1.917-21.687-3.262-32.625-4.031l-13.242-.576c-5.709-.089-11.417.231-17.08.96z"/></svg>