<svg viewBox="0 0 1000 660" xmlns="http://www.w3.org/2000/svg"><path d="m0 660h1000v-660h-1000z" fill="#eae3d8"/><path d="m258.058 400.542-5.558-22.579h-40.469l-5.558 22.579h-36.473l35.257-141.032h54.016l35.258 141.032zm-14.59-57.837-11.289-45.679-11.464 45.679zm136.689-83.195c7.158-.037 14.249 1.381 20.843 4.168 6.354 2.699 12.132 6.59 17.021 11.463 4.885 4.813 8.78 10.537 11.463 16.848 5.501 13.35 5.501 28.334 0 41.684-5.414 12.888-15.629 23.165-28.484 28.658-6.607 2.743-13.689 4.159-20.842 4.169h-18.237v34.042h-35.258v-141.032zm-18.236 71.732h18.236c6.515 0 12.536-3.476 15.794-9.118 3.258-5.643 3.258-12.594 0-18.237-3.257-5.643-9.278-9.119-15.793-9.119h-18.237zm159.615-36.474v70.516h26.401v35.258h-88.058v-35.258h26.574v-70.516h-26.574v-35.258h88.058v35.258zm152.669-20.321c10.498 9.56 17.062 22.686 18.411 36.821l-35.085 3.3c-.534-5.464-3.07-10.537-7.121-14.242-4.024-3.701-9.296-5.748-14.763-5.732-12.182 0-22.058 9.876-22.058 22.058v26.4c-.046 5.85 2.234 11.48 6.338 15.649s9.697 6.537 15.547 6.583c5.467.016 10.739-2.031 14.763-5.732 4.051-3.705 6.587-8.778 7.121-14.242l35.084 3.3c-1.732 18.136-11.984 34.368-27.615 43.727-15.631 9.358-34.781 10.728-51.585 3.689-13.65-5.866-24.529-16.745-30.395-30.395-3.003-7.087-4.539-14.708-4.516-22.405v-26.4c-.028-7.698 1.508-15.321 4.516-22.406 5.866-13.65 16.745-24.529 30.395-30.394 20.613-8.729 44.42-4.659 60.963 10.421zm87.884 20.321v17.542h52.8v35.258h-52.8v17.542h67.911v35.258h-103.169v-140.858h103.169v35.258z"/></svg>