<svg viewBox="0 0 1000 660" xmlns="http://www.w3.org/2000/svg"><path d="m0 660h1000v-660h-1000z" fill="#eae3d8"/><path d="m780.189 499.623h169.811v-169.812h-169.811z" stroke="#eae3d8" stroke-linecap="round" stroke-linejoin="round"/><path d="m918.64 391.989v-33.939h-107.472v113.129h107.472v-33.939h-73.534v-5.656h73.534v-33.939h-73.534v-5.656z" fill="#eae3d8"/><path d="m644.34 499.623h135.849v-169.812h-135.849z" stroke="#eae3d8" stroke-linecap="round" stroke-linejoin="round"/><path d="m684.519 461.482v-103.432h-9.697v113.129h76.201v-9.697z" fill="#eae3d8"/><path d="m508.491 499.623h135.849v-169.812h-135.849z" stroke="#eae3d8" stroke-linecap="round" stroke-linejoin="round"/><path d="m609.528 469.057v-113.13h-12.929v30.868c-5.01-2.747-11.636-4.202-20.201-4.202h-6.788c-11.798 0-19.879 2.586-25.212 7.919-5.333 5.495-7.919 13.414-7.919 25.374v20.04c0 11.798 2.586 19.878 7.919 25.212 5.333 5.333 13.414 7.919 25.212 7.919zm-33.13-73.534c8.08 0 13.252 1.454 15.999 4.201 2.909 2.748 4.202 8.081 4.202 16.162v40.242h-26.989c-8.081 0-13.253-1.293-16-4.202-2.909-2.748-4.202-7.919-4.202-16v-20.04c0-8.081 1.293-13.414 4.202-16.162 2.747-2.747 7.919-4.201 16-4.201z" fill="#eae3d8"/><path d="m396.415 499.623h112.076v-169.812h-112.076z" stroke="#eae3d8" stroke-linecap="round" stroke-linejoin="round"/><path d="m466 358.05c-2.909 0-5.253 2.343-5.253 5.252v62.706l-17.131-64.08c-.727-2.504-3.151-4.201-5.737-3.797-2.667.323-4.606 2.505-4.606 5.171v102.625c0 2.909 2.343 5.252 5.252 5.252s5.253-2.343 5.253-5.252v-62.706l17.131 64.08c.646 2.343 2.747 3.878 5.091 3.878 1.858 0 5.252-1.373 5.252-5.252v-102.625c0-2.909-2.343-5.252-5.252-5.252z" fill="#eae3d8"/><path d="m260.566 499.623h135.849v-169.812h-135.849z" stroke="#eae3d8" stroke-linecap="round" stroke-linejoin="round"/><path d="m356.07 375.073c-4.525 0-8.08 3.717-8.08 8.08v41.696c0 10.829-8.889 19.556-19.717 19.556s-19.555-8.727-19.555-19.556v-41.696c0-4.363-3.718-8.08-8.081-8.08-4.525 0-8.081 3.717-8.081 8.08v41.696c0 9.536 3.717 18.424 10.505 25.212s15.677 10.505 25.212 10.505 18.585-3.717 25.373-10.505 10.505-15.676 10.505-25.212v-41.696c0-4.363-3.717-8.08-8.081-8.08z" fill="#eae3d8"/><path d="m107.736 499.623h152.83v-169.812h-152.83z" stroke="#eae3d8" stroke-linecap="round" stroke-linejoin="round"/><path d="m145.577 358.05v113.129h56.565c2.747 0 5.333-1.131 7.273-3.07l10.02-9.859c1.939-1.939 2.909-4.525 2.909-7.272v-26.505c0-2.747-.97-5.333-2.909-7.273l-2.586-2.585 2.586-2.586c1.939-1.94 2.909-4.525 2.909-7.273v-26.505c0-2.747-.97-5.333-2.909-7.272l-10.02-9.859c-1.94-1.939-4.526-3.07-7.273-3.07zm2.586 2.586h53.979c1.939 0 3.879.808 5.495 2.262l10.02 9.859c1.293 1.454 2.101 3.394 2.101 5.494v26.505c0 2.101-.808 4.04-2.101 5.495l-2.586 2.586-1.939 1.778 1.939 1.777 2.586 2.586c1.293 1.455 2.101 3.394 2.101 5.495v26.505c0 2.101-.808 4.04-2.101 5.494l-10.02 9.859c-1.616 1.454-3.556 2.263-5.495 2.263h-53.979zm1.94 1.939v104.079h52.039c1.455 0 2.909-.646 4.04-1.778l10.021-9.858c1.292-1.293 1.616-2.909 1.616-4.04v-26.505c0-1.131-.324-2.747-1.616-4.04l-5.819-5.818 5.819-5.819c1.292-1.292 1.616-2.909 1.616-4.04v-26.505c0-1.131-.324-2.747-1.616-4.04l-10.021-9.858c-1.131-1.132-2.585-1.778-4.04-1.778zm2.585 2.586h49.454c.808 0 1.616.323 2.263.969l10.02 9.859c.485.646.808 1.293.808 2.262v26.505c0 .97-.323 1.616-.808 2.263l-7.596 7.596 7.596 7.595c.485.647.808 1.293.808 2.263v26.505c0 .969-.323 1.616-.808 2.262l-10.02 9.859c-.647.646-1.455.969-2.263.969h-49.454zm1.94 1.939v95.029h47.514c.323 0 .647-.323.808-.485l10.02-9.858c.162-.162.323-.485.323-.808v-26.505c0-.485-.161-.646-.323-.808l-8.889-9.05 8.889-9.051c.162-.161.323-.323.323-.808v-26.505c0-.323-.161-.646-.323-.808l-10.02-9.858c-.161-.162-.485-.485-.808-.485zm2.586 2.586h44.605l8.889 9.212v25.212l-8.889 9.212h-44.605zm44.605 2.747-.808-.808h-41.858v39.757h41.858l.808-.808 6.303-6.626.646-.646v-23.596l-.646-.646zm-40.08 1.778h38.141l6.302 6.626v21.333l-6.302 6.626h-38.141zm38.141 2.748-.809-.808h-35.393v30.706h35.393l.809-.808 3.717-3.879.646-.808v-19.717l-.646-.808zm-33.616 1.777h31.676l3.717 3.879v17.778l-3.717 3.878h-31.676zm-9.05 37.171h44.605l8.889 9.212v25.212l-8.889 9.212h-44.605zm44.605 2.748-.808-.808h-41.858v39.757h41.858l.808-.808 6.303-6.626.646-.647v-23.596l-.646-.646zm-40.08 1.778h38.141l6.302 6.626v21.333l-6.302 6.626h-38.141zm38.141 2.747-.809-.808h-35.393v30.707h35.393l.809-.808 3.717-3.879.646-.808v-19.717l-.646-.808zm-33.616 1.778h31.676l3.717 3.879v17.777l-3.717 3.879h-31.676z" fill="#eae3d8"/><path d="m474.528 329.811h169.812v-169.811h-169.812z" stroke="#eae3d8" stroke-linecap="round" stroke-linejoin="round"/><path d="m507.914 194.698v20.202h79.837c2.182 0 5.172.485 7.273 2.586s2.505 5.091 2.505 7.272v9.778h-69.494c-4.202 0-8.161.727-11.798 2.101-3.717 1.455-7.03 3.636-9.777 6.384-2.748 2.747-4.929 6.06-6.384 9.777-1.374 3.637-2.101 7.596-2.101 11.798 0 4.121.727 8.081 2.101 11.717 1.455 3.717 3.636 7.03 6.384 9.778 2.747 2.828 6.06 4.929 9.777 6.384 3.637 1.373 7.596 2.1 11.798 2.1h59.716c4.202 0 8.162-.727 11.798-2.1 3.717-1.455 7.03-3.556 9.778-6.384 2.747-2.748 4.848-6.061 6.303-9.778 1.454-3.636 2.101-7.596 2.101-11.717v-39.838c0-4.201-.647-8.161-2.101-11.797-1.455-3.717-3.556-7.03-6.303-9.778-2.748-2.747-6.061-4.929-9.778-6.303-3.636-1.454-7.596-2.182-11.798-2.182zm89.615 60.04v9.858c0 2.101-.404 5.172-2.505 7.273s-5.091 2.505-7.273 2.505h-59.716c-2.182 0-5.171-.404-7.272-2.505s-2.586-5.172-2.586-7.273c0-2.182.485-5.252 2.586-7.272 2.101-2.101 5.09-2.586 7.272-2.586z" fill="#eae3d8"/><path d="m347.17 329.811h127.358v-169.811h-127.358z" stroke="#eae3d8" stroke-linecap="round" stroke-linejoin="round"/><path d="m410.468 188.238c-9.939 0-15.919 3.879-19.151 7.111-3.232 3.233-7.111 9.212-7.111 19.152v60.605c0 9.939 3.879 15.919 7.111 19.151s9.212 7.111 19.151 7.111c9.94 0 15.919-3.879 19.152-7.111 3.232-3.232 7.111-9.212 7.111-19.151v-19.555h-18.909v19.555c0 3.636-.97 5.171-1.536 5.737-1.373 1.374-4.201 1.616-5.818 1.616-3.636 0-5.171-.969-5.737-1.616-1.374-1.374-1.616-4.202-1.616-5.737v-60.605c0-3.637.97-5.172 1.616-5.738 1.374-1.454 4.202-1.616 5.737-1.616 3.637 0 5.172.97 5.818 1.616 1.374 1.374 1.536 4.202 1.536 5.738v19.555h18.909v-19.555c0-9.94-3.879-15.919-7.111-19.152-3.233-3.232-9.212-7.111-19.152-7.111z" fill="#eae3d8"/><path d="m219.811 329.811h127.359v-169.811h-127.359z" stroke="#eae3d8" stroke-linecap="round" stroke-linejoin="round"/><path d="m284.19 210.849c-4.93 0-9.616.808-13.818 2.424s-7.839 4.041-10.909 7.111c-3.071 3.071-5.495 6.707-7.111 10.909s-2.424 8.808-2.424 13.737c0 4.93.808 9.616 2.424 13.818s4.04 7.839 7.111 10.909c3.07 3.071 6.707 5.495 10.909 7.111s8.888 2.424 13.818 2.424c5.171 0 10.02-.888 14.383-2.666 4.364-1.859 8.081-4.445 11.232-7.838l2.99-3.233-6.545-5.979-3.071 3.232c-2.182 2.424-4.848 4.283-8 5.576-3.313 1.373-7.03 2.02-10.989 2.02-7.596 0-13.899-2.424-18.424-6.95-3.637-3.555-5.899-8.323-6.626-13.979h59.231v-4.445c0-4.929-.808-9.535-2.424-13.737s-4.041-7.838-7.111-10.909c-3.071-3.07-6.707-5.495-10.909-7.111s-8.808-2.424-13.737-2.424zm0 8.889c7.515 0 13.898 2.343 18.424 6.868 3.555 3.637 5.818 8.404 6.545 13.98h-50.019c.727-5.576 2.989-10.343 6.626-13.98 4.525-4.525 10.828-6.868 18.424-6.868z" fill="#eae3d8"/><path d="m50 329.811h169.811v-169.811h-169.811z" stroke="#eae3d8" stroke-linecap="round" stroke-linejoin="round"/><path d="m88.676 188.238v113.13h43.312c8.081 0 15.677-1.374 22.626-4.04 6.95-2.667 13.01-6.627 18.101-11.717 5.172-5.091 9.05-11.232 11.798-18.182 2.666-6.949 4.04-14.545 4.04-22.626 0-8.08-1.374-15.676-4.04-22.626-2.748-6.949-6.626-13.09-11.798-18.181-5.091-5.091-11.151-9.051-18.101-11.717-6.949-2.667-14.545-4.041-22.626-4.041zm20.202 20.202h23.11c10.828 0 20.04 3.394 26.505 9.859 6.384 6.464 9.858 15.595 9.858 26.504s-3.474 20.04-9.858 26.505c-6.465 6.464-15.677 9.858-26.505 9.858h-23.11z" fill="#eae3d8"/></svg>