<svg viewBox="0 0 1000 660" xmlns="http://www.w3.org/2000/svg"><path d="M0 660h1000V0H0z" fill="#fff"/><path d="M780.188 508.604H950V338.793H780.188z"/><path d="M918.644 400.969v-33.937H811.171V480.16h107.473v-33.936h-73.537v-5.655h73.529v-33.945h-73.529v-5.655z" fill="#fff"/><path d="M644.339 508.604h135.849V338.793H644.339z" fill="#e5e5e5"/><path d="M684.516 470.464V367.032h-9.695v113.129h76.202v-9.697z" fill="#666"/><path d="M508.49 508.604h135.849V338.793H508.49z" fill="#999"/><path d="M609.528 478.038V364.91h-12.931v30.872c-5.01-2.752-11.632-4.203-20.208-4.203h-6.784c-11.793 0-19.868 2.581-25.208 7.913-5.332 5.493-7.922 13.415-7.922 25.378v20.038c0 11.802 2.59 19.876 7.922 25.217 5.332 5.332 13.415 7.913 25.217 7.913zm-33.13-73.528c8.083 0 13.245 1.443 15.996 4.194 2.912 2.751 4.203 8.083 4.203 16.166v40.245h-26.992c-8.074 0-13.245-1.298-15.996-4.211-2.912-2.742-4.203-7.913-4.203-15.996V424.87c0-8.083 1.291-13.415 4.203-16.166 2.751-2.742 7.922-4.203 15.996-4.203z" fill="#fff"/><path d="M396.415 508.604H508.49V338.793H396.415z"/><path d="M466.004 367.032a5.237 5.237 0 00-5.265 5.256v62.703l-17.125-64.078a5.222 5.222 0 00-5.731-3.804 5.17 5.17 0 00-4.611 5.179v102.609a5.239 5.239 0 005.256 5.255 5.237 5.237 0 005.247-5.255v-62.703l17.134 64.078a5.264 5.264 0 005.095 3.88c1.85 0 5.247-1.375 5.247-5.255V372.288a5.243 5.243 0 00-5.256-5.264z" fill="#ff2600"/><path d="M260.566 508.604h135.849V338.793H260.566z" fill="#ffe800"/><path d="M356.068 384.048a8.1 8.1 0 00-8.075 8.091v41.689c0 10.833-8.89 19.562-19.724 19.562a19.518 19.518 0 01-19.553-19.562v-41.689a8.212 8.212 0 00-8.075-8.083 8.108 8.108 0 00-8.083 8.083v41.689c0 9.535 3.719 18.424 10.503 25.217 6.792 6.792 15.673 10.503 25.217 10.503a35.707 35.707 0 0025.37-10.503c6.792-6.793 10.503-15.682 10.503-25.217v-41.689a8.212 8.212 0 00-8.084-8.083z"/><path d="M107.736 508.604h152.83V338.793h-152.83z" fill="#fff"/><path d="M145.578 367.032v113.129h56.564a10.275 10.275 0 007.268-3.074l10.019-9.849a10.126 10.126 0 002.912-7.276v-26.508c0-2.751-.968-5.332-2.904-7.276l-2.589-2.581 2.589-2.59a10.128 10.128 0 002.904-7.268v-26.507c0-2.743-.968-5.332-2.904-7.268l-10.019-9.866a10.27 10.27 0 00-7.276-3.066zm2.581 2.582h53.983c1.936 0 3.88.815 5.493 2.267l10.019 9.857a8.28 8.28 0 012.106 5.494v26.507a8.303 8.303 0 01-2.106 5.494l-2.581 2.589-1.944 1.775 1.944 1.783 2.581 2.581a8.28 8.28 0 012.106 5.493v26.508a8.298 8.298 0 01-2.106 5.493l-10.019 9.858a8.285 8.285 0 01-5.493 2.267h-53.983zm1.944 1.944v104.077h52.039c1.452 0 2.912-.645 4.041-1.783l10.02-9.849a5.69 5.69 0 001.613-4.041v-26.508a5.688 5.688 0 00-1.613-4.041l-5.817-5.816 5.817-5.816a5.69 5.69 0 001.613-4.042v-26.507a5.69 5.69 0 00-1.613-4.042l-10.02-9.849a5.78 5.78 0 00-4.041-1.783zm2.581 2.581h49.458c.807 0 1.613.323 2.259.977l10.018 9.848c.493.654.815 1.3.815 2.268v26.507c0 .968-.322 1.613-.806 2.259l-7.599 7.599 7.599 7.599c.484.645.806 1.29.806 2.258v26.508c0 .968-.322 1.613-.806 2.258l-10.019 9.858a3.195 3.195 0 01-2.267.968h-49.458zm1.945 1.944v95.027h47.513c.323 0 .645-.323.807-.484l10.018-9.858c.17-.169.323-.484.323-.806v-26.508c0-.484-.161-.645-.323-.806l-8.889-9.051 8.889-9.051c.17-.162.323-.323.323-.807v-26.507c0-.323-.161-.646-.323-.807l-10.018-9.857c-.162-.17-.484-.485-.807-.485zm2.581 2.582h44.609l8.89 9.212v25.217l-8.89 9.212H157.21zm44.609 2.751l-.806-.807h-41.859v39.753h41.859l.806-.807 6.3-6.623.646-.653v-23.587l-.646-.654zm-40.075 1.783h38.131l6.308 6.622v21.329l-6.308 6.622h-38.14zm38.131 2.742l-.807-.807h-35.38v30.702h35.389l.807-.807 3.718-3.879.646-.807v-19.715l-.646-.807zm-33.614 1.783h31.678l3.719 3.872v17.779l-3.719 3.88h-31.67zm-9.051 37.163h44.609l8.89 9.212v25.218l-8.89 9.203H157.21zm44.609 2.751l-.806-.807h-41.859v39.753h41.859l.806-.806 6.3-6.623.646-.654v-23.595l-.646-.645zm-40.075 1.783h38.131l6.308 6.623v21.328l-6.308 6.623h-38.14zm38.131 2.743l-.807-.807h-35.38v30.702h35.389l.807-.807 3.718-3.88.646-.806V436.85l-.646-.806zm-33.614 1.783h31.678l3.719 3.871v17.78l-3.719 3.88h-31.67z" fill="red"/><path d="M474.528 321.812h169.811V152H474.528z" fill="#1c29d9"/><path d="M507.913 186.701V206.9h79.836c2.183 0 5.18.484 7.277 2.59 2.097 2.097 2.505 5.094 2.505 7.268v9.781h-69.496c-4.202 0-8.159.722-11.801 2.097a28.484 28.484 0 00-16.158 16.166 33.253 33.253 0 00-2.097 11.802c0 4.118.722 8.066 2.097 11.717a28.489 28.489 0 006.385 9.764 27.36 27.36 0 009.773 6.394 33.245 33.245 0 0011.802 2.097h59.713c4.204 0 8.16-.73 11.802-2.097a27.373 27.373 0 009.773-6.385 28.294 28.294 0 006.309-9.781 31.427 31.427 0 002.097-11.717v-39.838c0-4.203-.645-8.16-2.097-11.802a28.3 28.3 0 00-6.309-9.773 27.192 27.192 0 00-9.773-6.3 31.572 31.572 0 00-11.801-2.182zm89.618 60.037v9.858c0 2.105-.408 5.179-2.505 7.276-2.106 2.097-5.094 2.505-7.277 2.505h-59.714c-2.182 0-5.179-.408-7.276-2.505-2.097-2.106-2.581-5.179-2.581-7.276 0-2.183.484-5.256 2.581-7.268 2.106-2.106 5.094-2.59 7.276-2.59z" fill="#f4f0dc"/><path d="M347.169 321.812h127.359V152H347.169z" fill="#f2f2f2"/><path d="M410.467 180.24c-9.934 0-15.92 3.88-19.147 7.107-3.235 3.234-7.115 9.212-7.115 19.154v60.606c0 9.934 3.88 15.92 7.115 19.155 3.227 3.226 9.213 7.107 19.147 7.107s15.919-3.881 19.154-7.116c3.227-3.226 7.107-9.212 7.107-19.146v-19.554h-18.909v19.554c0 3.634-.968 5.171-1.528 5.74-1.375 1.367-4.203 1.613-5.824 1.613-3.635 0-5.171-.968-5.74-1.613-1.367-1.376-1.613-4.203-1.613-5.74v-60.606c0-3.634.967-5.179 1.613-5.739 1.375-1.452 4.203-1.614 5.74-1.614 3.633 0 5.179.969 5.816 1.614 1.375 1.375 1.536 4.202 1.536 5.739v19.554h18.909V206.51c0-9.934-3.88-15.92-7.107-19.155-3.226-3.226-9.212-7.107-19.154-7.107z" fill="#191919"/><path d="M219.811 321.812h127.358V152H219.811z" fill="#1a3528"/><path d="M284.186 202.85c-4.924 0-9.611.807-13.814 2.42a31.152 31.152 0 00-10.91 7.115 31.133 31.133 0 00-7.115 10.911 38.07 38.07 0 00-2.42 13.737c0 4.925.807 9.612 2.428 13.815a31.131 31.131 0 007.107 10.91 31.152 31.152 0 0010.91 7.115 38.516 38.516 0 0013.814 2.42c5.18 0 10.019-.892 14.383-2.666a32.38 32.38 0 0011.233-7.837l2.989-3.226-6.537-5.986-3.074 3.226a21.645 21.645 0 01-7.998 5.578 28.614 28.614 0 01-10.996 2.021c-7.59 0-13.899-2.42-18.424-6.945-3.634-3.566-5.893-8.321-6.623-13.984h59.23v-4.441c0-4.924-.806-9.535-2.419-13.737a31.138 31.138 0 00-7.115-10.911 31.147 31.147 0 00-10.911-7.115 38.076 38.076 0 00-13.738-2.42zm0 8.89c7.515 0 13.9 2.343 18.425 6.869 3.557 3.634 5.824 8.406 6.546 13.975h-50.018c.73-5.569 2.989-10.341 6.623-13.975 4.525-4.526 10.834-6.878 18.424-6.878z" fill="#ff5629"/><path d="M50 321.812h169.811V152H50z" fill="#f9f9f9"/><path d="M88.674 180.24v113.128h43.31c8.084 0 15.682-1.375 22.628-4.041a51.48 51.48 0 0018.102-11.717c5.179-5.095 9.051-11.233 11.802-18.179a62.84 62.84 0 004.032-22.627c0-8.083-1.366-15.674-4.032-22.627-2.751-6.946-6.623-13.093-11.802-18.179-5.095-5.094-11.148-9.05-18.102-11.717a62.871 62.871 0 00-22.628-4.041zm20.208 20.208h23.102c10.834 0 20.038 3.387 26.508 9.848 6.385 6.47 9.857 15.598 9.857 26.508 0 10.91-3.481 20.038-9.848 26.508-6.47 6.461-15.683 9.849-26.517 9.849h-23.102z" fill="#bf9e77"/></svg>