<svg viewBox="0 0 1000 660" xmlns="http://www.w3.org/2000/svg"><path d="M0 660h1000V0H0z"/><path d="M248.49 367.278l-35.452 30.134H125l27.179-154.411h88.039l24.816 30.133zm-90.993 2.561h49.041l16.347-13.984 12.606-71.297-11.424-13.984h-49.041zm162.093-99.265l-6.106 35.846h77.009l-4.923 27.573h-77.009l-6.303 35.846h77.009l-4.924 27.573H269.761l27.179-154.411h104.583l-4.924 27.573zm219.407 13.393h-27.574l.591-3.348-8.272-10.045h-42.936l-11.817 10.045-13.984 79.175 8.272 10.045h42.936l11.817-10.045.591-3.348h27.574l-2.561 14.771-30.725 26.195h-65.782l-21.665-26.195 17.923-102.022 30.921-26.194h65.783l21.468 26.194zm3.151 113.445l27.18-154.411h27.573l-27.18 154.411zm190.06-113.445h-27.573l.591-3.348-8.273-10.045h-42.935L642.2 280.619l-2.954 15.756 8.469 10.045h54.359l21.468 26.194-6.696 38.603-30.725 26.195h-65.782l-21.665-26.195 2.56-14.771h27.573l-.59 3.348 8.272 10.045h42.936l11.817-10.045 2.757-15.756-8.272-10.045h-54.359l-21.665-26.195 6.893-38.603 30.922-26.194h65.783l21.468 26.194zm124.869 87.25l-30.725 26.195H760.57l-21.665-26.195 17.922-102.022 30.922-26.194h65.783L875 269.195zm-74.646-90.598l-13.983 79.175 8.272 10.045h42.936l11.817-10.045 13.984-79.175-8.272-10.045h-42.936z" fill="#fff"/></svg>