<svg viewBox="0 0 1000 660" xmlns="http://www.w3.org/2000/svg"><path d="m0 660h1000v-660h-1000z" fill="#eae3d8"/><path d="m730.273 66.62-16.543-16.614h-41.604l-16.614 16.614v64.5l16.614 16.614h41.604l16.543-16.614zm-50.957.838h27.154l6.352 6.352v50.12l-6.352 6.352h-27.154l-6.353-6.352v-50.12zm-37.765-.838-16.544-16.614h-41.604l-16.614 16.614v24.432l16.614 16.544h34.344l6.353 6.352v9.982l-6.353 6.352h-27.154l-6.352-6.352v-2.094h-17.452v9.284l16.614 16.614h41.604l16.544-16.614v-24.362l-16.544-16.614h-34.414l-6.352-6.352v-9.982l6.352-6.352h27.154l6.353 6.352v2.094h17.451zm-90.119 81.114v-97.728h-17.451v97.728zm-32.11-81.114-16.544-16.614h-41.604l-16.613 16.614v64.5l16.613 16.614h41.604l16.544-16.614v-9.284h-17.451v2.094l-6.353 6.352h-27.154l-6.352-6.352v-50.12l6.352-6.352h27.154l6.353 6.352v2.094h17.451zm-91.515.838v-17.452h-66.175v97.728h66.175v-17.452h-48.724v-22.686h48.724v-17.452h-48.724v-22.686zm-82.928 1.605-19.057-19.057h-55.705v97.728h55.705l19.057-19.057zm-57.31-1.605h31.063l8.795 8.865v45.094l-8.795 8.865h-31.063z"/><path d="m723.712 413.845-15.776-15.776h-41.744l-15.776 15.776v66.176l15.776 15.776h41.744l15.776-15.776zm-52.424-3.56h31.552l8.656 8.656v55.984l-8.656 8.656h-31.552l-8.656-8.656v-55.984zm-34.833 3.56-15.776-15.776h-41.743l-15.776 15.776v23.385l15.776 15.776h36.647l8.656 8.656v13.263l-8.656 8.656h-31.552l-8.655-8.656v-3.56h-12.216v8.656l15.776 15.776h41.743l15.776-15.776v-23.385l-15.776-15.846h-36.648l-8.655-8.586v-13.263l8.655-8.656h31.552l8.656 8.656v3.56h12.216zm-88.652 81.952v-97.728h-12.216v97.728zm-26.876-81.952-15.775-15.776h-41.744l-15.776 15.776v66.176l15.776 15.776h41.744l15.775-15.776v-8.656h-12.215v3.56l-8.656 8.656h-31.552l-8.656-8.656v-55.984l8.656-8.656h31.552l8.656 8.656v3.56h12.215zm-90.048-3.56v-12.216h-64.151v97.728h64.151v-12.216h-51.935v-30.575h51.935v-12.216h-51.935v-30.505zm-80.905 5.305-17.521-17.521h-55.774v97.728h55.774l17.521-17.521zm-61.079-5.305h38.463l10.401 10.401v52.494l-10.401 10.401h-38.463z"/><path d="m725.911 297.8-16.056-16.055h-41.673l-16.056 16.055v65.617l16.056 16.055h41.673l16.056-16.055zm-51.935-2.094h30.086l7.888 7.888v54.029l-7.888 7.888h-30.086l-7.888-7.888v-54.029zm-35.811 2.094-16.055-16.055h-41.674l-16.055 16.055v23.734l16.055 16.055h35.88l7.888 7.888v12.146l-7.888 7.888h-30.086l-7.888-7.888v-3.071h-13.961v8.865l16.055 16.055h41.674l16.055-16.055v-23.734l-16.055-16.055h-35.88l-7.888-7.888v-12.146l7.888-7.888h30.086l7.888 7.888v3.072h13.961zm-89.141 81.672v-97.727h-13.961v97.727zm-28.62-81.672-16.055-16.055h-41.674l-16.055 16.055v65.617l16.055 16.055h41.674l16.055-16.055v-8.865h-13.961v3.071l-7.888 7.888h-30.086l-7.888-7.888v-54.029l7.888-7.888h30.086l7.888 7.888v3.072h13.961zm-90.537-2.094v-13.961h-64.85v97.727h64.85v-13.961h-50.888v-27.922h50.888v-13.961h-50.888v-27.922zm-81.603 4.119-18.01-18.08h-55.774v97.727h55.774l18.01-18.079zm-59.823-4.119h36.02l9.842 9.843v50.12l-9.842 9.842h-36.02z"/><path d="m728.075 183.698-16.335-16.335h-41.604l-16.334 16.335v65.058l16.334 16.335h41.604l16.335-16.335zm-51.447-.629h28.62l7.12 7.121v52.074l-7.12 7.12h-28.62l-7.12-7.12v-52.074zm-36.787.629-16.335-16.335h-41.604l-16.334 16.335v24.082l16.334 16.335h35.112l7.121 7.05v11.099l-7.121 7.12h-28.62l-7.12-7.12v-2.583h-15.706v9.075l16.334 16.335h41.604l16.335-16.335v-24.083l-16.335-16.264h-35.112l-7.12-7.12v-11.099l7.12-7.121h28.62l7.121 7.121v2.582h15.706zm-89.63 81.393v-97.728h-15.706v97.728zm-30.365-81.393-16.335-16.335h-41.604l-16.334 16.335v65.058l16.334 16.335h41.604l16.335-16.335v-9.075h-15.707v2.583l-7.12 7.12h-28.62l-7.12-7.12v-52.074l7.12-7.121h28.62l7.12 7.121v2.582h15.707zm-91.027-.629v-15.706h-65.477v97.728h65.477v-15.707h-49.771v-25.269h49.771v-15.706h-49.771v-25.34zm-82.23 2.862-18.568-18.568h-55.705v97.728h55.705l18.568-18.569zm-58.567-2.862h33.507l9.354 9.354v47.608l-9.354 9.353h-33.507z"/><path d="m721.513 528.846-15.567-15.567h-41.673l-15.567 15.567v66.594l15.567 15.566h41.673l15.567-15.566zm-52.912-5.096h33.017l9.424 9.423v57.939l-9.424 9.424h-33.017l-9.424-9.424v-57.939zm-33.856 5.096-15.567-15.567h-41.673l-15.567 15.567v23.035l15.567 15.497h37.346l9.423 9.424v14.31l-9.423 9.424h-33.018l-9.424-9.424v-4.049h-10.471v8.377l15.567 15.566h41.673l15.567-15.566v-22.966l-15.567-15.567h-37.345l-9.424-9.423v-14.311l9.424-9.423h33.018l9.423 9.423v4.049h10.471zm-88.164 82.16v-97.727h-10.471v97.727zm-25.13-82.16-15.567-15.567h-41.673l-15.567 15.567v66.594l15.567 15.566h41.673l15.567-15.566v-8.377h-10.471v4.049l-9.423 9.424h-33.018l-9.424-9.424v-57.939l9.424-9.423h33.018l9.423 9.423v4.049h10.471zm-89.56-5.096v-10.471h-63.453v97.727h63.453v-10.47h-52.982v-33.158h52.982v-10.471h-52.982v-33.157zm-80.206 6.561-17.033-17.032h-55.774v97.727h55.774l17.033-17.032zm-62.336-6.561h40.975l10.89 10.889v55.007l-10.89 10.89h-40.975z"/></svg>