<svg viewBox="0 0 1000 660" xmlns="http://www.w3.org/2000/svg"><path d="m0 660h1000v-660h-1000z" fill="#eae3d8"/><path d="m726.137 66.326-16.251-16.32h-40.868l-16.321 16.32v63.36l16.321 16.32h40.868l16.251-16.32zm-50.056.823h26.673l6.24 6.24v49.234l-6.24 6.24h-26.673l-6.241-6.24v-49.234zm-37.098-.823-16.251-16.32h-40.869l-16.32 16.32v24l16.32 16.252h33.737l6.241 6.239v9.806l-6.241 6.24h-26.674l-6.239-6.24v-2.057h-17.144v9.12l16.32 16.32h40.869l16.251-16.32v-23.931l-16.251-16.321h-33.806l-6.239-6.239v-9.806l6.239-6.24h26.674l6.241 6.24v2.057h17.142zm-88.525 79.68v-96h-17.143v96zm-31.542-79.68-16.252-16.32h-40.868l-16.32 16.32v63.36l16.32 16.32h40.868l16.252-16.32v-9.12h-17.143v2.057l-6.241 6.24h-26.673l-6.24-6.24v-49.234l6.24-6.24h26.673l6.241 6.24v2.057h17.143zm-89.897.823v-17.143h-65.005v96h65.005v-17.143h-47.863v-22.285h47.863v-17.144h-47.863v-22.285zm-81.462 1.577-18.72-18.72h-54.72v96h54.72l18.72-18.72zm-56.297-1.577h30.514l8.64 8.709v44.296l-8.64 8.709h-30.514z"/><path d="m719.808 413.566-15.497-15.497h-41.006l-15.497 15.497v65.006l15.497 15.497h41.006l15.497-15.497zm-51.497-3.497h30.994l8.503 8.503v54.994l-8.503 8.503h-30.994l-8.503-8.503v-54.994zm-34.217 3.497-15.498-15.497h-41.004l-15.498 15.497v22.972l15.498 15.497h35.999l8.503 8.503v13.028l-8.503 8.503h-30.995l-8.502-8.503v-3.497h-12v8.503l15.498 15.497h41.004l15.498-15.497v-22.972l-15.498-15.565h-36l-8.502-8.435v-13.028l8.502-8.503h30.995l8.503 8.503v3.497h12zm-87.085 80.503v-96h-12v96zm-26.401-80.503-15.496-15.497h-41.006l-15.497 15.497v65.006l15.497 15.497h41.006l15.496-15.497v-8.503h-11.999v3.497l-8.503 8.503h-30.994l-8.503-8.503v-54.994l8.503-8.503h30.994l8.503 8.503v3.497h11.999zm-88.456-3.497v-12h-63.016v96h63.016v-12h-51.016v-30.034h51.016v-12h-51.016v-29.966zm-79.474 5.211-17.211-17.211h-54.788v96h54.788l17.211-17.211zm-59.999-5.211h37.783l10.217 10.217v51.566l-10.217 10.217h-37.783z"/><path d="m721.934 298.516-15.773-15.771h-40.936l-15.773 15.771v64.458l15.773 15.771h40.936l15.773-15.771zm-51.018-2.057h29.555l7.748 7.749v53.074l-7.748 7.749h-29.555l-7.748-7.749v-53.074zm-35.178 2.057-15.771-15.771h-40.938l-15.771 15.771v23.315l15.771 15.771h35.246l7.749 7.749v11.931l-7.749 7.749h-29.554l-7.749-7.749v-3.017h-13.714v8.709l15.771 15.771h40.938l15.771-15.771v-23.315l-15.771-15.771h-35.246l-7.749-7.749v-11.931l7.749-7.749h29.554l7.749 7.749v3.018h13.714zm-87.566 80.229v-96h-13.714v96zm-28.114-80.229-15.771-15.771h-40.938l-15.771 15.771v64.458l15.771 15.771h40.938l15.771-15.771v-8.709h-13.714v3.017l-7.749 7.749h-29.554l-7.749-7.749v-53.074l7.749-7.749h29.554l7.749 7.749v3.018h13.714zm-88.937-2.057v-13.714h-63.704v96h63.704v-13.714h-49.989v-27.429h49.989v-13.714h-49.989v-27.429zm-80.161 4.046-17.692-17.76h-54.788v96h54.788l17.692-17.76zm-58.766-4.046h35.384l9.668 9.669v49.235l-9.668 9.668h-35.384z"/><path d="m724.016 182.409-16.046-16.046h-40.868l-16.045 16.046v63.908l16.045 16.046h40.868l16.046-16.046zm-50.537-.618h28.114l6.994 6.995v51.154l-6.994 6.994h-28.114l-6.994-6.994v-51.154zm-36.137.618-16.046-16.046h-40.868l-16.045 16.046v23.656l16.045 16.047h34.491l6.995 6.925v10.903l-6.995 6.994h-28.114l-6.994-6.994v-2.538h-15.428v8.915l16.045 16.046h40.868l16.046-16.046v-23.657l-16.046-15.977h-34.491l-6.994-6.994v-10.903l6.994-6.995h28.114l6.995 6.995v2.537h15.428zm-88.045 79.954v-96h-15.428v96zm-29.828-79.954-16.046-16.046h-40.868l-16.046 16.046v63.908l16.046 16.046h40.868l16.046-16.046v-8.915h-15.429v2.538l-6.994 6.994h-28.114l-6.994-6.994v-51.154l6.994-6.995h28.114l6.994 6.995v2.537h15.429zm-89.417-.618v-15.428h-64.32v96h64.32v-15.429h-48.891v-24.822h48.891v-15.429h-48.891v-24.892zm-80.776 2.812-18.24-18.24h-54.72v96h54.72l18.24-18.241zm-57.532-2.812h32.915l9.188 9.189v46.766l-9.188 9.188h-32.915z"/><path d="m717.691 529.571-15.292-15.292h-40.937l-15.291 15.292v65.417l15.291 15.291h40.937l15.292-15.291zm-51.977-5.006h32.434l9.257 9.256v56.916l-9.257 9.257h-32.434l-9.257-9.257v-56.916zm-33.258 5.006-15.292-15.292h-40.936l-15.292 15.292v22.628l15.292 15.223h36.686l9.256 9.257v14.058l-9.256 9.257h-32.435l-9.257-9.257v-3.978h-10.286v8.229l15.292 15.291h40.936l15.292-15.291v-22.56l-15.292-15.292h-36.685l-9.257-9.256v-14.059l9.257-9.256h32.435l9.256 9.256v3.978h10.286zm-86.606 80.708v-96h-10.286v96zm-24.686-80.708-15.292-15.292h-40.936l-15.292 15.292v65.417l15.292 15.291h40.936l15.292-15.291v-8.229h-10.286v3.978l-9.256 9.257h-32.435l-9.257-9.257v-56.916l9.257-9.256h32.435l9.256 9.256v3.978h10.286zm-87.977-5.006v-10.286h-62.332v96h62.332v-10.285h-52.046v-32.572h52.046v-10.286h-52.046v-32.571zm-78.789 6.445-16.732-16.731h-54.788v96h54.788l16.732-16.731zm-61.234-6.445h40.251l10.697 10.697v54.034l-10.697 10.698h-40.251z"/></svg>