<svg viewBox="0 0 1000 660" xmlns="http://www.w3.org/2000/svg"><path d="M0 660h1000V0H0z" fill="#f2f2f2"/><path d="M212.066 204.556c22.089 0 35.312 8.555 42.467 15.866 7.156 7.312 15.867 20.534 15.867 42.467v134.556c0 22.089-8.556 35.311-15.867 42.466-7.311 7.156-20.533 15.867-42.467 15.867H150V204.556zM192 413.778h20.066c3.423 0 9.645-.466 12.911-3.577 3.267-3.112 3.423-4.667 3.423-12.756V262.734c0-3.422-.311-9.645-3.423-12.756-3.111-3.111-4.822-3.578-12.911-3.578H192zM341.177 246.4v62.689h56v42h-56v62.689h56v42h-98V204.556h98v42h-56zm180.756 209.223l-50.555-128.8v128.8h-42V204.556h39.044l50.556 128.8v-128.8h42v251.067zm168.778-235.356c7.156 7.155 15.867 20.533 15.867 42.467v24.733h-42v-24.733c0-3.422-.312-9.645-3.423-12.756-3.111-3.111-4.822-3.578-12.911-3.578-3.422 0-9.644.312-12.755 3.578-3.111 3.267-3.578 4.667-3.578 12.756v30.022c0 3.422.467 9.644 3.578 12.755 3.111 3.112 4.666 3.578 12.755 3.578 22.089 0 35.312 8.556 42.467 15.867 7.156 7.311 15.867 20.533 15.867 42.466v30.023c0 22.089-8.556 35.311-15.867 42.466-7.311 7.156-20.533 15.867-42.467 15.867-21.933 0-35.311-8.555-42.466-15.867-7.156-7.311-15.867-20.533-15.867-42.466v-24.889h42v24.733c0 3.423.467 9.645 3.578 12.756 3.111 3.111 4.666 3.578 12.755 3.578 3.578 0 9.8-.467 12.911-3.578 3.111-3.111 3.423-4.667 3.423-12.756v-29.867c0-3.422-.312-9.644-3.423-12.755-3.111-3.111-4.822-3.578-12.911-3.578-22.089 0-35.311-8.555-42.466-15.866-7.156-7.312-15.867-20.534-15.867-42.467v-30.022c0-22.089 8.555-35.312 15.867-42.467 7.311-7.156 20.377-15.866 42.466-15.866 22.089 0 35.312 8.71 42.467 15.866zm143.422 0C841.289 227.422 850 240.8 850 262.734v134.555c0 22.089-8.556 35.311-15.867 42.467-7.311 7.155-20.533 15.867-42.467 15.867-21.933 0-35.311-8.556-42.466-15.867-7.156-7.311-15.867-20.378-15.867-42.311V262.734c0-22.089 8.556-35.312 15.867-42.467 7.311-7.156 20.378-15.866 42.466-15.866 22.089 0 35.312 8.71 42.467 15.866zm-55.222 29.711c-1.4 1.245-3.578 4.667-3.578 12.756v134.555c0 3.423.467 9.645 3.578 12.756 3.111 3.111 4.667 3.578 12.755 3.578 3.578 0 9.801-.467 12.912-3.578 3.111-3.111 3.422-4.667 3.422-12.756V262.734c0-3.422-.311-9.645-3.422-12.756-3.111-3.111-4.823-3.578-12.912-3.578-3.422 0-9.644.467-12.755 3.734z" fill="#191919"/></svg>