<svg viewBox="0 0 1000 660" xmlns="http://www.w3.org/2000/svg"><path d="M0 660h1000V0H0Z" fill="#eae3d8"/><path d="m806.557 440.187 13.675-13.675 13.676 13.675h66.666V255.572c0-18.804-15.384-34.188-34.188-34.188H739.89v75.214h85.471v6.837h-51.283c-18.803 0-34.188 15.385-34.188 34.188v68.376c0 18.804 15.385 34.188 34.188 34.188Zm8.547-102.564h10.257v68.376h-10.257Zm-85.47 102.564v-75.213h-41.026v-68.376h41.026v-75.214h-41.026v-20.513h-75.213v205.128c0 18.804 15.384 34.188 34.188 34.188Zm-160.684 0c18.804 0 34.188-15.384 34.188-34.188v-41.025c0-68.376-85.47-34.188-85.47-88.889v-20.513h10.257v20.513c0 10.598 4.102 15.384 7.863 18.119 5.812 4.445 14.701 7.864 23.931 10.257 21.197 5.812 43.419 5.812 43.419 5.812v-54.701c0-18.804-15.384-34.188-34.188-34.188h-92.307c-18.804 0-34.188 15.384-34.188 34.188v41.026c0 68.376 85.47 34.188 85.47 88.888v20.513h-10.257v-20.513c0-10.598-4.102-15.384-8.205-18.119-5.812-4.445-14.359-7.864-23.932-10.257-21.196-5.812-43.076-5.812-43.076-5.812v54.701c0 18.804 15.384 34.188 34.188 34.188Zm-136.752 0v-75.213h-85.47v-6.838h51.282c18.804 0 34.188-15.385 34.188-34.188v-68.376c0-18.804-15.384-34.188-34.188-34.188h-92.308c-18.803 0-34.188 15.384-34.188 34.188v150.427c0 18.804 15.385 34.188 34.188 34.188Zm-85.47-184.615h10.256v68.376h-10.256ZM227.07 440.187c18.803 0 34.188-15.384 34.188-34.188v-170.94c0-18.803-15.385-34.188-34.188-34.188H100.574v239.316Zm-51.282-205.128h10.256v170.94h-10.256Z"/></svg>