<svg viewBox="0 0 1000 660" xmlns="http://www.w3.org/2000/svg"><path d="m0 660h1000v-660h-1000z" fill="#eae3d8"/><path d="m162.189 264.284 5.138 1.314-2.629 10.277-5.138-1.315c-5.442-1.292-11.017-1.933-16.61-1.912-8.079-.096-16.104 1.322-23.66 4.183-13.585 5.155-24.295 15.908-29.395 29.515-2.868 7.512-4.287 15.5-4.183 23.54-.096 8.079 1.322 16.104 4.183 23.66 5.142 13.553 15.843 24.253 29.395 29.396 7.556 2.86 15.581 4.279 23.66 4.182 4.205-.002 8.403-.362 12.547-1.076v-61.42h10.635v70.024l-3.943 1.076c-6.302 1.507-12.759 2.269-19.239 2.27-9.384.069-18.701-1.591-27.484-4.899-16.431-6.208-29.401-19.178-35.609-35.61-6.476-17.75-6.476-37.217 0-54.967 6.208-16.431 19.178-29.402 35.609-35.609 8.783-3.309 18.1-4.97 27.484-4.9 6.48.001 12.937.763 19.239 2.271zm29.395 133.714v-135.985h10.635v135.985zm127.501-131.085c16.431 6.207 29.401 19.178 35.609 35.609 6.477 17.75 6.477 37.217 0 54.967-6.208 16.432-19.178 29.402-35.609 35.61-17.75 6.476-37.217 6.476-54.968 0-16.431-6.208-29.401-19.178-35.609-35.61-6.476-17.75-6.476-37.217 0-54.967 6.208-16.431 19.178-29.402 35.609-35.609 17.751-6.477 37.218-6.477 54.968 0zm-51.144 10.037c-13.585 5.156-24.295 15.909-29.395 29.515-2.868 7.513-4.287 15.5-4.183 23.541-.096 8.079 1.322 16.103 4.183 23.66 5.142 13.552 15.843 24.253 29.395 29.395 7.556 2.861 15.582 4.279 23.66 4.183 8.04.104 16.028-1.315 23.54-4.183 13.607-5.1 24.36-15.81 29.516-29.395 2.86-7.557 4.279-15.582 4.182-23.66.104-8.041-1.314-16.029-4.182-23.541-5.1-13.648-15.867-24.415-29.515-29.515-7.514-2.865-15.501-4.284-23.541-4.182-8.078-.097-16.104 1.322-23.66 4.182zm145.186-14.937c5.666-.069 11.296.903 16.61 2.868 9.929 3.849 17.779 11.699 21.628 21.629 1.966 5.314 2.938 10.944 2.868 16.61.066 5.626-.906 11.216-2.868 16.49-3.849 9.929-11.699 17.779-21.628 21.628-3.651 1.375-7.469 2.259-11.352 2.629l35.968 54.012h-12.906l-35.848-53.654h-13.981v53.654h-10.635v-135.866zm-21.509 71.577h21.509c9.082 0 16.729-2.867 22.107-8.245 5.377-5.377 8.364-13.144 8.364-22.106s-2.868-16.729-8.364-22.107c-5.497-5.377-13.025-8.364-22.107-8.364h-21.509zm109.218-71.577c9.385-.07 18.701 1.591 27.484 4.9 16.422 6.221 29.388 19.186 35.609 35.609 6.477 17.75 6.477 37.217 0 54.967-6.208 16.432-19.178 29.402-35.609 35.61-8.783 3.308-18.099 4.968-27.484 4.899h-23.301v-135.985h23.181zm-12.547 125.231h12.547c8.079.096 16.104-1.322 23.66-4.183 13.552-5.142 24.253-15.843 29.396-29.395 2.86-7.557 4.279-15.582 4.182-23.66.101-8.041-1.318-16.028-4.182-23.541-5.101-13.606-15.811-24.359-29.396-29.515-7.556-2.86-15.581-4.279-23.66-4.182h-12.547v114.595zm164.783 10.754-4.899-17.924h-53.653l-4.9 17.924h-11.113l37.641-135.985h10.396l37.521 135.985h-11.112zm-8.006-28.559-23.78-86.036-23.779 86.036zm111.847 28.559-60.823-113.52v113.52h-10.635v-135.985h10.754l60.823 113.52v-113.52h10.635v135.985zm127.62-131.085c16.422 6.221 29.388 19.186 35.609 35.609 6.477 17.75 6.477 37.217 0 54.967-6.208 16.432-19.178 29.402-35.609 35.61-17.75 6.476-37.217 6.476-54.968 0-16.431-6.208-29.401-19.178-35.609-35.61-6.476-17.75-6.477-37.217 0-54.967 6.208-16.431 19.178-29.402 35.609-35.609 17.751-6.477 37.218-6.477 54.968 0zm-51.144 10.037c-13.585 5.156-24.295 15.909-29.395 29.515-2.868 7.513-4.287 15.5-4.183 23.541-.096 8.079 1.322 16.104 4.183 23.66 5.142 13.552 15.843 24.253 29.395 29.395 7.556 2.861 15.581 4.279 23.66 4.183 8.04.104 16.028-1.315 23.54-4.183 13.607-5.1 24.36-15.81 29.516-29.395 2.86-7.557 4.279-15.582 4.182-23.66.104-8.041-1.315-16.029-4.182-23.541-5.1-13.648-15.867-24.415-29.516-29.515-7.513-2.865-15.5-4.284-23.54-4.182-8.078-.097-16.104 1.322-23.66 4.182z"/></svg>