<svg viewBox="0 0 1000 660" xmlns="http://www.w3.org/2000/svg"><path d="m0 660h1000v-660h-1000z" fill="#eae3d8"/><path d="m142.318 260.418 5.44 1.391-2.784 10.882-5.44-1.393c-5.762-1.368-11.665-2.046-17.587-2.024-8.554-.102-17.051 1.4-25.052 4.429-14.384 5.458-25.724 16.844-31.124 31.251-3.037 7.954-4.539 16.412-4.429 24.925-.102 8.554 1.4 17.051 4.429 25.052 5.445 14.35 16.775 25.679 31.124 31.125 8.001 3.028 16.498 4.53 25.052 4.428 4.452-.002 8.897-.384 13.285-1.14v-65.033h11.261v74.144l-4.175 1.139c-6.673 1.595-13.51 2.402-20.371 2.403-9.936.073-19.801-1.684-29.101-5.187-17.397-6.573-31.13-20.306-37.703-37.705-6.857-18.794-6.857-39.406 0-58.2 6.573-17.397 20.306-31.131 37.703-37.704 9.3-3.503 19.165-5.262 29.101-5.188 6.861.001 13.698.808 20.371 2.405zm31.124 141.579v-143.984h11.26v143.984zm135.001-138.796c17.398 6.573 31.13 20.307 37.704 37.704 6.858 18.794 6.858 39.406 0 58.2-6.574 17.399-20.306 31.132-37.704 37.705-18.794 6.857-39.406 6.857-58.201 0-17.398-6.573-31.131-20.306-37.704-37.705-6.857-18.794-6.857-39.406 0-58.2 6.573-17.397 20.306-31.131 37.704-37.704 18.795-6.858 39.407-6.858 58.201 0zm-54.153 10.628c-14.384 5.459-25.724 16.845-31.124 31.251-3.036 7.955-4.539 16.412-4.429 24.926-.101 8.554 1.4 17.05 4.429 25.052 5.445 14.349 16.775 25.679 31.124 31.124 8.001 3.029 16.499 4.53 25.052 4.429 8.513.11 16.971-1.393 24.925-4.429 14.407-5.4 25.793-16.74 31.252-31.124 3.028-8.002 4.531-16.499 4.428-25.052.11-8.514-1.391-16.972-4.428-24.926-5.4-14.451-16.8-25.851-31.251-31.251-7.956-3.034-16.413-4.536-24.926-4.428-8.553-.103-17.051 1.4-25.051 4.428zm153.727-15.816c5.999-.073 11.96.956 17.587 3.037 10.513 4.075 18.825 12.387 22.9 22.901 2.082 5.627 3.111 11.588 3.037 17.587.07 5.957-.959 11.876-3.037 17.46-4.075 10.513-12.387 18.825-22.9 22.901-3.866 1.455-7.908 2.391-12.02 2.783l38.084 57.189h-13.665l-37.957-56.81h-14.803v56.81h-11.261v-143.858zm-22.774 75.788h22.774c9.616 0 17.713-3.036 23.407-8.73s8.856-13.918 8.856-23.407-3.036-17.713-8.856-23.407c-5.82-5.693-13.791-8.856-23.407-8.856h-22.774zm115.642-75.788c9.937-.074 19.801 1.685 29.101 5.188 17.388 6.587 31.117 20.315 37.704 37.704 6.858 18.794 6.858 39.406 0 58.2-6.574 17.399-20.306 31.132-37.704 37.705-9.3 3.503-19.164 5.26-29.101 5.187h-24.671v-143.984h24.544zm-13.285 132.598h13.285c8.555.101 17.052-1.4 25.052-4.429 14.349-5.445 25.68-16.775 31.125-31.124 3.028-8.002 4.531-16.499 4.428-25.052.107-8.514-1.395-16.971-4.428-24.926-5.401-14.406-16.741-25.792-31.125-31.251-8-3.028-16.497-4.531-25.052-4.428h-13.285v121.336zm174.476 11.386-5.187-18.978h-56.809l-5.188 18.978h-11.767l39.855-143.984h11.008l39.728 143.984h-11.766zm-8.477-30.239-25.178-91.097-25.178 91.097zm118.427 30.239-64.401-120.197v120.197h-11.261v-143.984h11.387l64.401 120.198v-120.198h11.26v143.984zm135.127-138.796c17.388 6.587 31.117 20.315 37.704 37.704 6.858 18.794 6.858 39.406 0 58.2-6.574 17.399-20.307 31.132-37.704 37.705-18.794 6.857-39.406 6.857-58.202 0-17.397-6.573-31.13-20.306-37.703-37.705-6.857-18.794-6.858-39.406 0-58.2 6.573-17.397 20.306-31.131 37.703-37.704 18.796-6.858 39.408-6.858 58.202 0zm-54.153 10.628c-14.384 5.459-25.724 16.845-31.124 31.251-3.037 7.955-4.539 16.412-4.429 24.926-.101 8.554 1.4 17.051 4.429 25.052 5.445 14.349 16.775 25.679 31.124 31.124 8.001 3.029 16.498 4.53 25.052 4.429 8.513.11 16.971-1.393 24.925-4.429 14.407-5.4 25.793-16.74 31.252-31.124 3.028-8.002 4.531-16.499 4.428-25.052.11-8.514-1.392-16.972-4.428-24.926-5.4-14.451-16.8-25.851-31.252-31.251-7.955-3.034-16.412-4.536-24.925-4.428-8.553-.103-17.051 1.4-25.052 4.428z"/></svg>