<svg viewBox="0 0 1000 660" xmlns="http://www.w3.org/2000/svg"><path d="m0 660h1000v-660h-1000z" fill="#eae3d8"/><path d="m142.318 240.418 5.44 1.391-2.784 10.882-5.44-1.393c-5.762-1.368-11.665-2.046-17.587-2.024-8.554-.102-17.051 1.4-25.052 4.429-14.384 5.458-25.724 16.844-31.124 31.251-3.037 7.954-4.539 16.412-4.429 24.925-.102 8.554 1.4 17.051 4.429 25.052 5.445 14.35 16.775 25.679 31.124 31.125 8.001 3.028 16.498 4.53 25.052 4.428 4.452-.002 8.897-.384 13.285-1.14v-65.033h11.261v74.144l-4.175 1.139c-6.673 1.595-13.51 2.402-20.371 2.403-9.936.073-19.801-1.684-29.101-5.187-17.397-6.573-31.13-20.306-37.703-37.705-6.857-18.794-6.857-39.406 0-58.2 6.573-17.397 20.306-31.131 37.703-37.704 9.3-3.503 19.165-5.262 29.101-5.188 6.861.001 13.698.808 20.371 2.405zm31.124 141.579v-143.984h11.26v143.984zm135.001-138.796c17.398 6.573 31.13 20.307 37.704 37.704 6.858 18.794 6.858 39.406 0 58.2-6.574 17.399-20.306 31.132-37.704 37.705-18.794 6.857-39.406 6.857-58.201 0-17.398-6.573-31.131-20.306-37.704-37.705-6.857-18.794-6.857-39.406 0-58.2 6.573-17.397 20.306-31.131 37.704-37.704 18.795-6.858 39.407-6.858 58.201 0zm-54.153 10.628c-14.384 5.459-25.724 16.845-31.124 31.251-3.036 7.955-4.539 16.412-4.429 24.926-.101 8.554 1.4 17.05 4.429 25.052 5.445 14.349 16.775 25.679 31.124 31.124 8.001 3.029 16.499 4.53 25.052 4.429 8.513.11 16.971-1.393 24.925-4.429 14.407-5.4 25.793-16.74 31.252-31.124 3.028-8.002 4.531-16.499 4.428-25.052.11-8.514-1.391-16.972-4.428-24.926-5.4-14.451-16.8-25.851-31.251-31.251-7.956-3.034-16.413-4.536-24.926-4.428-8.553-.103-17.051 1.4-25.051 4.428zm153.727-15.816c5.999-.073 11.96.956 17.587 3.037 10.513 4.075 18.825 12.387 22.9 22.901 2.082 5.627 3.111 11.588 3.037 17.587.07 5.957-.959 11.876-3.037 17.46-4.075 10.513-12.387 18.825-22.9 22.901-3.866 1.455-7.908 2.391-12.02 2.783l38.084 57.189h-13.665l-37.957-56.81h-14.803v56.81h-11.261v-143.858zm-22.774 75.788h22.774c9.616 0 17.713-3.036 23.407-8.73s8.856-13.918 8.856-23.407-3.036-17.713-8.856-23.407c-5.82-5.693-13.791-8.856-23.407-8.856h-22.774zm115.642-75.788c9.937-.074 19.801 1.685 29.101 5.188 17.388 6.587 31.117 20.315 37.704 37.704 6.858 18.794 6.858 39.406 0 58.2-6.574 17.399-20.306 31.132-37.704 37.705-9.3 3.503-19.164 5.26-29.101 5.187h-24.671v-143.984h24.544zm-13.285 132.598h13.285c8.555.101 17.052-1.4 25.052-4.429 14.349-5.445 25.68-16.775 31.125-31.124 3.028-8.002 4.531-16.499 4.428-25.052.107-8.514-1.395-16.971-4.428-24.926-5.401-14.406-16.741-25.792-31.125-31.251-8-3.028-16.497-4.531-25.052-4.428h-13.285v121.336zm174.476 11.386-5.187-18.978h-56.809l-5.188 18.978h-11.767l39.855-143.984h11.008l39.728 143.984h-11.766zm-8.477-30.239-25.178-91.097-25.178 91.097zm118.427 30.239-64.401-120.197v120.197h-11.261v-143.984h11.387l64.401 120.198v-120.198h11.26v143.984zm135.127-138.796c17.388 6.587 31.117 20.315 37.704 37.704 6.858 18.794 6.858 39.406 0 58.2-6.574 17.399-20.307 31.132-37.704 37.705-18.794 6.857-39.406 6.857-58.202 0-17.397-6.573-31.13-20.306-37.703-37.705-6.857-18.794-6.858-39.406 0-58.2 6.573-17.397 20.306-31.131 37.703-37.704 18.796-6.858 39.408-6.858 58.202 0zm-54.153 10.628c-14.384 5.459-25.724 16.845-31.124 31.251-3.037 7.955-4.539 16.412-4.429 24.926-.101 8.554 1.4 17.051 4.429 25.052 5.445 14.349 16.775 25.679 31.124 31.124 8.001 3.029 16.498 4.53 25.052 4.429 8.513.11 16.971-1.393 24.925-4.429 14.407-5.4 25.793-16.74 31.252-31.124 3.028-8.002 4.531-16.499 4.428-25.052.11-8.514-1.392-16.972-4.428-24.926-5.4-14.451-16.8-25.851-31.252-31.251-7.955-3.034-16.412-4.536-24.925-4.428-8.553-.103-17.051 1.4-25.052 4.428z"/><path d="m927.257 440.466c-3.912 0-7.696.641-11.223 1.924s-6.67 3.207-9.428 5.644c-2.822 2.437-5.13 5.323-6.862 8.658-1.796 3.335-2.95 6.99-3.463 10.903-.577 3.912-.449 7.632.385 10.966.769 3.335 2.308 6.221 4.425 8.659 2.052 2.437 4.682 4.361 7.824 5.643 3.143 1.283 6.798 1.924 10.711 1.924 3.912 0 7.631-.641 11.159-1.924 3.527-1.282 6.67-3.206 9.492-5.643 2.757-2.438 5.066-5.324 6.862-8.659 1.732-3.334 2.886-7.054 3.463-10.966.513-3.913.385-7.568-.385-10.903-.833-3.335-2.373-6.221-4.425-8.658-2.116-2.437-4.746-4.361-7.888-5.644-3.143-1.283-6.734-1.924-10.647-1.924zm-.962 7.055c5.965 0 10.775 1.86 13.853 5.451 3.079 3.592 4.233 8.658 3.399 14.623-.897 6.028-3.463 11.031-7.503 14.622-4.105 3.592-9.428 5.516-15.392 5.516-6.029 0-10.775-1.924-13.853-5.516-3.143-3.591-4.361-8.594-3.463-14.622.833-5.965 3.463-11.031 7.567-14.623 4.105-3.591 9.364-5.451 15.392-5.451zm-67.404-7.055c-3.912 0-7.76.641-11.288 1.924-3.527 1.283-6.67 3.207-9.427 5.644l-.578.513 1.155-8.081h-7.055l-7.696 54.321h7.055l3.848-27.192c.834-5.965 3.463-11.031 7.568-14.623 4.104-3.591 9.363-5.451 15.392-5.451 5.964 0 10.774 1.86 13.853 5.451 3.078 3.592 4.232 8.658 3.399 14.623l-3.848 27.192h7.054l3.848-27.192c.578-3.913.449-7.568-.384-10.903-.834-3.335-2.309-6.221-4.426-8.658-2.116-2.437-4.746-4.361-7.888-5.644-3.143-1.283-6.67-1.924-10.582-1.924zm-52.846 54.321 7.632-54.321h-7.055l-1.155 8.081-.384-.513c-2.117-2.437-4.746-4.361-7.889-5.644-3.142-1.283-6.734-1.924-10.646-1.924s-7.696.641-11.223 1.924c-3.528 1.283-6.67 3.207-9.428 5.644-2.822 2.437-5.131 5.323-6.863 8.658-1.795 3.335-2.95 6.99-3.463 10.903-.577 3.912-.449 7.632.385 10.966.77 3.335 2.309 6.221 4.425 8.659 2.053 2.437 4.682 4.361 7.825 5.643 3.142 1.283 6.798 1.924 10.71 1.924s7.632-.641 11.159-1.924c3.528-1.282 6.67-3.206 9.492-5.643l.577-.514-1.154 8.081zm-20.459-47.266c5.964 0 10.774 1.86 13.853 5.451 3.078 3.592 4.233 8.658 3.399 14.623-.898 6.028-3.463 11.031-7.504 14.622-4.104 3.592-9.427 5.516-15.392 5.516-5.964 0-10.774-1.924-13.853-5.516-3.142-3.591-4.361-8.594-3.463-14.622.834-5.965 3.463-11.031 7.568-14.623 4.104-3.591 9.427-5.451 15.392-5.451zm-47.972 47.266 12.634-89.787h-7.055l-6.156 43.547-.385-.513c-2.117-2.437-4.746-4.361-7.889-5.644-3.142-1.283-6.798-1.924-10.71-1.924s-7.632.641-11.159 1.924c-3.528 1.283-6.67 3.207-9.428 5.644-2.822 2.437-5.131 5.323-6.862 8.658-1.796 3.335-2.95 6.99-3.463 10.903-.578 3.912-.449 7.632.384 10.966.77 3.335 2.309 6.221 4.426 8.659 2.052 2.437 4.681 4.361 7.824 5.643 3.142 1.283 6.734 1.924 10.646 1.924s7.696-.641 11.224-1.924c3.527-1.282 6.669-3.206 9.491-5.643l.578-.514-1.155 8.081zm-20.523-47.266c6.029 0 10.775 1.86 13.853 5.451 3.078 3.592 4.297 8.658 3.463 14.623-.898 6.028-3.527 11.031-7.568 14.622-4.104 3.592-9.363 5.516-15.392 5.516-5.964 0-10.774-1.924-13.853-5.516-3.142-3.591-4.297-8.594-3.399-14.622.834-5.965 3.399-11.031 7.504-14.623 4.104-3.591 9.428-5.451 15.392-5.451zm-44.509-7.055c-3.912 0-7.76.641-11.287 1.924-3.528 1.283-6.67 3.207-9.428 5.644l-.577.513 1.154-8.081h-7.055l-7.696 54.321h7.055l3.848-27.192c.834-5.965 3.463-11.031 7.568-14.623 4.104-3.591 9.363-5.451 15.392-5.451 1.796 0 3.527.192 5.067.513l3.335.705 2.437-6.862-3.335-.77c-2.053-.449-4.233-.641-6.478-.641zm-68.495 0c-3.912 0-7.696.641-11.223 1.924s-6.67 3.207-9.428 5.644c-2.822 2.437-5.13 5.323-6.862 8.658-1.796 3.335-2.95 6.99-3.463 10.903-.578 3.912-.449 7.632.384 10.966.77 3.335 2.309 6.221 4.426 8.659 2.052 2.437 4.681 4.361 7.824 5.643 3.143 1.283 6.798 1.924 10.71 1.924 3.913 0 7.632-.641 11.16-1.924 3.527-1.282 6.67-3.206 9.491-5.643 2.758-2.438 5.067-5.324 6.863-8.659 1.731-3.334 2.886-7.054 3.463-10.966.513-3.913.385-7.568-.385-10.903-.833-3.335-2.373-6.221-4.425-8.658-2.116-2.437-4.746-4.361-7.888-5.644-3.143-1.283-6.735-1.924-10.647-1.924zm-.962 7.055c5.965 0 10.775 1.86 13.853 5.451 3.079 3.592 4.233 8.658 3.399 14.623-.898 6.028-3.463 11.031-7.503 14.622-4.105 3.592-9.428 5.516-15.392 5.516-6.029 0-10.775-1.924-13.853-5.516-3.143-3.591-4.361-8.594-3.464-14.622.834-5.965 3.464-11.031 7.568-14.623 4.105-3.591 9.364-5.451 15.392-5.451zm-42.071-25.333c-2.438 0-4.618 1.924-4.939 4.297-.385 2.437 1.283 4.361 3.72 4.361 2.373 0 4.553-1.924 4.938-4.361.321-2.373-1.347-4.297-3.719-4.297zm-6.67 72.599 7.632-54.321h-7.055l-7.632 54.321zm-18.214-54.321h-7.055l-1.155 8.081-.448-.513c-2.053-2.437-4.682-4.297-7.825-5.58-3.206-1.283-6.734-1.988-10.646-1.988s-7.76.705-11.223 1.988c-3.528 1.283-6.67 3.143-9.492 5.58-2.758 2.437-5.067 5.387-6.862 8.722-1.732 3.335-2.887 6.991-3.464 10.903-.513 3.912-.385 7.568.385 10.902.834 3.335 2.373 6.286 4.425 8.723 2.117 2.437 4.746 4.297 7.889 5.579 3.142 1.283 6.798 1.924 10.71 1.924s7.632-.641 11.159-1.924c3.528-1.282 6.67-3.142 9.428-5.579l.577-.513-.577 4.489c-.898 6.029-3.463 11.031-7.504 14.622-4.104 3.592-9.491 5.516-15.456 5.516-3.207 0-6.028-.513-8.53-1.603-2.373-1.027-4.297-2.502-5.708-4.426l-2.052-2.565-5.836 4.746 1.988 2.565c2.052 2.694 4.81 4.746 8.081 6.221 3.271 1.411 6.991 2.117 11.095 2.117 3.912 0 7.632-.642 11.159-1.924 3.528-1.283 6.67-3.207 9.492-5.644 2.758-2.437 5.067-5.323 6.863-8.658 1.731-3.335 2.886-7.055 3.463-10.967zm-28.155 7.055c5.964 0 10.774 1.924 13.853 5.515 3.142 3.592 4.233 8.658 3.399 14.623-.834 5.964-3.399 11.031-7.504 14.622-4.104 3.592-9.427 5.452-15.392 5.452-5.964 0-10.774-1.86-13.853-5.452-3.078-3.591-4.297-8.658-3.463-14.622.834-5.965 3.527-11.031 7.568-14.623 4.104-3.591 9.427-5.515 15.392-5.515z"/></svg>