<svg viewBox="0 0 1000 660" xmlns="http://www.w3.org/2000/svg"><path d="m0 660h1000v-660h-1000z" fill="#eae3d8"/><path d="m163.101 220.282 5.133 1.312-2.627 10.267-5.132-1.314c-5.437-1.291-11.006-1.93-16.594-1.91-8.07-.096-16.087 1.321-23.636 4.179-13.571 5.15-24.27 15.892-29.365 29.485-2.866 7.505-4.283 15.485-4.179 23.517-.096 8.07 1.321 16.087 4.179 23.636 5.137 13.539 15.827 24.228 29.365 29.366 7.549 2.857 15.566 4.274 23.636 4.178 4.201-.002 8.395-.362 12.535-1.076v-61.358h10.624v69.954l-3.939 1.075c-6.296 1.505-12.746 2.266-19.22 2.267-9.374.069-18.682-1.588-27.456-4.894-16.414-6.201-29.371-19.158-35.573-35.574-6.469-17.732-6.469-37.179 0-54.911 6.202-16.414 19.159-29.372 35.573-35.573 8.774-3.305 18.082-4.965 27.456-4.895 6.474.001 12.924.762 19.22 2.269zm29.365 133.578v-135.847h10.624v135.847zm127.373-130.952c16.414 6.201 29.37 19.159 35.573 35.573 6.47 17.732 6.47 37.179 0 54.911-6.203 16.416-19.159 29.373-35.573 35.574-17.732 6.47-37.18 6.47-54.913 0-16.414-6.201-29.371-19.158-35.573-35.574-6.469-17.732-6.469-37.179 0-54.911 6.202-16.414 19.159-29.372 35.573-35.573 17.733-6.471 37.181-6.471 54.913 0zm-51.093 10.027c-13.571 5.151-24.271 15.893-29.365 29.485-2.865 7.506-4.283 15.485-4.179 23.518-.095 8.07 1.321 16.086 4.179 23.636 5.137 13.538 15.827 24.228 29.365 29.365 7.549 2.858 15.566 4.274 23.636 4.179 8.032.104 16.012-1.315 23.517-4.179 13.592-5.095 24.335-15.794 29.486-29.365 2.856-7.55 4.274-15.567 4.177-23.636.104-8.033-1.312-16.013-4.177-23.518-5.095-13.634-15.851-24.39-29.485-29.485-7.507-2.863-15.486-4.28-23.518-4.178-8.07-.097-16.087 1.321-23.635 4.178zm145.04-14.922c5.66-.069 11.284.902 16.593 2.865 9.919 3.845 17.761 11.687 21.606 21.607 1.964 5.309 2.935 10.933 2.865 16.593.066 5.621-.905 11.205-2.865 16.474-3.845 9.918-11.687 17.761-21.606 21.606-3.648 1.373-7.461 2.256-11.341 2.626l35.932 53.957h-12.893l-35.812-53.599h-13.966v53.599h-10.625v-135.728zm-21.487 71.505h21.487c9.072 0 16.712-2.864 22.084-8.237 5.372-5.372 8.356-13.131 8.356-22.084s-2.865-16.712-8.356-22.084c-5.491-5.371-13.012-8.356-22.084-8.356h-21.487zm109.107-71.505c9.375-.07 18.682 1.59 27.456 4.895 16.406 6.214 29.359 19.167 35.574 35.573 6.47 17.732 6.47 37.179 0 54.911-6.203 16.416-19.159 29.373-35.574 35.574-8.774 3.306-18.081 4.963-27.456 4.894h-23.277v-135.847h23.157zm-12.534 125.105h12.534c8.071.095 16.088-1.321 23.636-4.179 13.538-5.137 24.229-15.827 29.366-29.365 2.857-7.55 4.275-15.567 4.178-23.636.101-8.033-1.316-16.012-4.178-23.518-5.095-13.592-15.795-24.334-29.366-29.485-7.548-2.857-15.565-4.275-23.636-4.178h-12.534v114.48zm164.616 10.742-4.894-17.905h-53.599l-4.894 17.905h-11.102l37.602-135.847h10.386l37.483 135.847h-11.101zm-7.998-28.53-23.755-85.949-23.755 85.949zm111.735 28.53-60.762-113.404v113.404h-10.625v-135.847h10.744l60.762 113.405v-113.405h10.623v135.847zm127.491-130.952c16.405 6.214 29.359 19.167 35.573 35.573 6.471 17.732 6.471 37.179 0 54.911-6.202 16.416-19.159 29.373-35.573 35.574-17.732 6.47-37.179 6.47-54.913 0-16.414-6.201-29.371-19.158-35.573-35.574-6.469-17.732-6.47-37.179 0-54.911 6.202-16.414 19.159-29.372 35.573-35.573 17.734-6.471 37.181-6.471 54.913 0zm-51.093 10.027c-13.571 5.151-24.27 15.893-29.365 29.485-2.866 7.506-4.283 15.485-4.179 23.518-.095 8.07 1.321 16.087 4.179 23.636 5.137 13.538 15.827 24.228 29.365 29.365 7.549 2.858 15.566 4.274 23.636 4.179 8.032.104 16.012-1.315 23.517-4.179 13.593-5.095 24.335-15.794 29.486-29.365 2.857-7.55 4.275-15.567 4.178-23.636.103-8.033-1.314-16.013-4.178-23.518-5.095-13.634-15.851-24.39-29.486-29.485-7.506-2.863-15.485-4.28-23.517-4.178-8.069-.097-16.087 1.321-23.636 4.178z"/><path d="m902.684 413.743c-3.691 0-7.261.605-10.589 1.815s-6.293 3.026-8.895 5.325c-2.662 2.299-4.841 5.022-6.474 8.169-1.695 3.146-2.784 6.595-3.268 10.286-.544 3.691-.423 7.201.363 10.347.726 3.147 2.179 5.87 4.175 8.169 1.937 2.3 4.418 4.115 7.383 5.325s6.414 1.815 10.105 1.815 7.2-.605 10.528-1.815 6.293-3.025 8.956-5.325c2.602-2.299 4.78-5.022 6.474-8.169 1.634-3.146 2.723-6.656 3.268-10.347.484-3.691.363-7.14-.363-10.286-.787-3.147-2.239-5.87-4.175-8.169-1.997-2.299-4.478-4.115-7.443-5.325s-6.354-1.815-10.045-1.815zm-.907 6.656c5.627 0 10.165 1.755 13.07 5.143 2.904 3.389 3.993 8.169 3.207 13.796-.847 5.688-3.268 10.408-7.08 13.797-3.872 3.388-8.895 5.203-14.522 5.203-5.688 0-10.166-1.815-13.07-5.203-2.965-3.389-4.115-8.109-3.268-13.797.787-5.627 3.268-10.407 7.14-13.796 3.873-3.388 8.835-5.143 14.523-5.143zm-63.596-6.656c-3.691 0-7.322.605-10.65 1.815s-6.293 3.026-8.895 5.325l-.544.484 1.089-7.624h-6.656l-7.261 51.251h6.656l3.63-25.656c.787-5.627 3.268-10.407 7.14-13.796 3.873-3.388 8.835-5.143 14.523-5.143 5.627 0 10.165 1.755 13.07 5.143 2.904 3.389 3.994 8.169 3.207 13.796l-3.631 25.656h6.656l3.631-25.656c.545-3.691.424-7.14-.363-10.286-.787-3.147-2.178-5.87-4.175-8.169s-4.478-4.115-7.443-5.325-6.293-1.815-9.984-1.815zm-49.86 51.251 7.201-51.251h-6.656l-1.089 7.624-.364-.484c-1.996-2.299-4.477-4.115-7.442-5.325s-6.354-1.815-10.045-1.815-7.261.605-10.589 1.815-6.293 3.026-8.895 5.325c-2.662 2.299-4.841 5.022-6.475 8.169-1.694 3.146-2.783 6.595-3.267 10.286-.545 3.691-.424 7.201.363 10.347.726 3.147 2.178 5.87 4.175 8.169 1.937 2.3 4.417 4.115 7.382 5.325s6.414 1.815 10.106 1.815c3.691 0 7.2-.605 10.528-1.815s6.293-3.025 8.956-5.325l.544-.484-1.089 7.624zm-19.303-44.595c5.628 0 10.166 1.755 13.071 5.143 2.904 3.389 3.993 8.169 3.207 13.796-.848 5.688-3.268 10.408-7.08 13.797-3.873 3.388-8.895 5.203-14.522 5.203-5.628 0-10.166-1.815-13.07-5.203-2.965-3.389-4.115-8.109-3.268-13.797.787-5.627 3.268-10.407 7.14-13.796 3.873-3.388 8.895-5.143 14.522-5.143zm-45.261 44.595 11.921-84.713h-6.656l-5.809 41.086-.363-.484c-1.997-2.299-4.478-4.115-7.443-5.325s-6.414-1.815-10.105-1.815-7.201.605-10.529 1.815-6.293 3.026-8.895 5.325c-2.662 2.299-4.84 5.022-6.474 8.169-1.695 3.146-2.784 6.595-3.268 10.286-.544 3.691-.423 7.201.363 10.347.726 3.147 2.179 5.87 4.175 8.169 1.937 2.3 4.418 4.115 7.383 5.325s6.353 1.815 10.044 1.815 7.261-.605 10.589-1.815 6.293-3.025 8.956-5.325l.544-.484-1.089 7.624zm-19.363-44.595c5.688 0 10.166 1.755 13.07 5.143 2.905 3.389 4.054 8.169 3.268 13.796-.847 5.688-3.328 10.408-7.14 13.797-3.873 3.388-8.835 5.203-14.523 5.203-5.627 0-10.165-1.815-13.07-5.203-2.965-3.389-4.054-8.109-3.207-13.797.787-5.627 3.207-10.407 7.08-13.796 3.873-3.388 8.895-5.143 14.522-5.143zm-41.993-6.656c-3.692 0-7.322.605-10.65 1.815s-6.293 3.026-8.895 5.325l-.545.484 1.09-7.624h-6.657l-7.261 51.251h6.656l3.631-25.656c.787-5.627 3.267-10.407 7.14-13.796 3.873-3.388 8.834-5.143 14.522-5.143 1.695 0 3.328.181 4.781.484l3.146.666 2.3-6.475-3.147-.726c-1.936-.424-3.994-.605-6.111-.605zm-64.625 0c-3.691 0-7.261.605-10.589 1.815s-6.293 3.026-8.895 5.325c-2.662 2.299-4.841 5.022-6.474 8.169-1.695 3.146-2.784 6.595-3.268 10.286-.545 3.691-.423 7.201.363 10.347.726 3.147 2.178 5.87 4.175 8.169 1.937 2.3 4.417 4.115 7.382 5.325s6.415 1.815 10.106 1.815 7.2-.605 10.528-1.815 6.293-3.025 8.956-5.325c2.602-2.299 4.78-5.022 6.474-8.169 1.634-3.146 2.723-6.656 3.268-10.347.484-3.691.363-7.14-.363-10.286-.787-3.147-2.239-5.87-4.176-8.169-1.996-2.299-4.477-4.115-7.442-5.325s-6.354-1.815-10.045-1.815zm-.907 6.656c5.627 0 10.165 1.755 13.07 5.143 2.904 3.389 3.993 8.169 3.207 13.796-.847 5.688-3.268 10.408-7.08 13.797-3.873 3.388-8.895 5.203-14.522 5.203-5.688 0-10.166-1.815-13.07-5.203-2.965-3.389-4.115-8.109-3.268-13.797.787-5.627 3.268-10.407 7.14-13.796 3.873-3.388 8.835-5.143 14.523-5.143zm-39.695-23.902c-2.299 0-4.356 1.816-4.659 4.055-.363 2.299 1.21 4.114 3.51 4.114 2.238 0 4.296-1.815 4.659-4.114.302-2.239-1.271-4.055-3.51-4.055zm-6.293 68.497 7.201-51.251h-6.656l-7.201 51.251zm-17.184-51.251h-6.657l-1.089 7.624-.423-.484c-1.937-2.299-4.417-4.054-7.382-5.264-3.026-1.211-6.354-1.876-10.045-1.876s-7.322.665-10.589 1.876c-3.328 1.21-6.293 2.965-8.956 5.264-2.602 2.299-4.78 5.083-6.474 8.229-1.634 3.147-2.723 6.596-3.268 10.287-.484 3.691-.363 7.14.363 10.286.787 3.147 2.239 5.93 4.176 8.23 1.996 2.299 4.477 4.054 7.442 5.264s6.414 1.815 10.105 1.815 7.201-.605 10.529-1.815 6.293-2.965 8.895-5.264l.545-.484-.545 4.235c-.847 5.688-3.268 10.408-7.08 13.797-3.872 3.388-8.955 5.203-14.583 5.203-3.025 0-5.687-.484-8.047-1.512-2.239-.968-4.054-2.36-5.386-4.175l-1.936-2.421-5.506 4.478 1.875 2.42c1.937 2.542 4.539 4.478 7.625 5.87 3.086 1.331 6.595 1.996 10.468 1.996 3.691 0 7.2-.605 10.529-1.815 3.328-1.21 6.293-3.025 8.955-5.325 2.602-2.299 4.78-5.022 6.474-8.168 1.634-3.147 2.723-6.657 3.268-10.348zm-26.564 6.656c5.627 0 10.165 1.815 13.07 5.204 2.965 3.388 3.994 8.168 3.207 13.796-.787 5.627-3.207 10.408-7.08 13.796-3.872 3.389-8.895 5.143-14.522 5.143s-10.166-1.754-13.07-5.143c-2.905-3.388-4.054-8.169-3.268-13.796.787-5.628 3.328-10.408 7.14-13.796 3.873-3.389 8.895-5.204 14.523-5.204z"/></svg>