<svg viewBox="0 0 1000 660" xmlns="http://www.w3.org/2000/svg"><path d="m0 660h1000v-660h-1000z" fill="#eae3d8"/><path d="m819.373 444.733v43.535h56.232c10.582 0 18.442 2.418 23.279 6.953 2.419 2.721 4.535 6.349 5.744 10.884-3.93-.302-7.558-.907-11.79-.907h-73.465v47.767c0 34.466 22.069 56.535 56.232 56.535h73.768v-91c0-22.372-6.954-40.814-19.954-53.814s-31.442-19.953-53.814-19.953zm43.535 104h29.93c5.139 0 8.767 1.209 10.279 2.721 1.814 1.814 2.721 5.442 2.721 10.279v4.232h-30.233c-4.837 0-8.465-.907-10.279-2.72-1.511-1.512-2.418-5.14-2.418-10.28z"/><path d="m626.341 345.733v27.947h54.638c16.015 0 27.947 4.082 35.797 11.932 6.28 6.28 10.048 15.387 11.304 26.691-7.536-3.454-16.642-5.338-26.376-5.338h-75.363v54.952c0 16.642 5.024 30.772 14.445 40.193 9.734 9.734 23.551 14.758 40.193 14.758h75.362v-95.773c0-47.101-27.947-75.362-75.362-75.362zm27.947 89.179h47.416c9.106 0 16.014 2.198 20.41 6.594 4.082 4.396 6.28 11.304 6.28 20.411v27.004h-47.415c-9.106 0-16.015-2.198-20.411-6.594-4.082-4.082-6.28-10.99-6.28-20.41z"/><path d="m434.439 246.733v17.654h53.926c18.939 0 33.704 5.136 43.655 15.087 9.629 9.629 14.765 24.395 14.765 43.654v2.247c-8.988-7.383-21.185-11.235-35.951-11.235h-76.395v53.926c0 16.692 4.815 29.852 14.124 39.482 9.63 9.308 22.79 14.123 39.802 14.123h76.074v-98.543c0-11.877-1.605-22.469-4.814-31.778-3.531-9.629-8.667-17.975-15.087-24.395-6.741-6.741-15.086-11.876-24.716-15.086-9.309-3.531-19.901-5.136-31.457-5.136zm17.655 85.062h58.74c23.754 0 35.951 12.197 35.951 36.271v35.951h-58.42c-24.074 0-36.271-12.198-36.271-35.951z"/><path d="m242.519 148.733v11.078h53.108c21.178 0 37.469 5.538 48.872 16.942 11.078 11.078 16.943 27.694 16.943 48.872v11.729c-.978-1.303-1.955-2.28-2.933-3.258-9.448-9.448-22.481-14.01-39.098-14.01h-76.892v53.108c0 16.617 4.562 29.975 13.684 39.098 9.449 9.449 22.482 14.01 39.424 14.01h76.892v-100.677c0-48.872-28.346-76.892-76.892-76.892zm11.078 82.431h65.814c27.369 0 42.031 14.662 42.031 42.03v42.03h-65.815c-27.694 0-42.03-14.661-42.03-42.03z"/><path d="m50.81 50.733v6.894h52.853c22.323 0 40.051 6.237 51.869 18.055 12.146 12.147 18.384 29.546 18.384 52.197v19.369c-8.536-14.773-24.293-22.651-45.96-22.651h-77.146v52.525c0 33.485 19.368 52.525 52.853 52.525h77.147v-101.768c0-24.621-6.894-43.661-20.354-57.121-13.131-13.131-32.5-20.025-56.793-20.025zm6.894 80.757h70.252c14.773 0 26.263 3.94 34.142 11.49 7.878 7.879 11.818 19.369 11.818 34.142v45.631h-70.253c-14.773 0-26.262-3.939-34.141-11.818-7.879-7.551-11.818-19.04-11.818-33.813z"/></svg>