<svg viewBox="0 0 1000 660" xmlns="http://www.w3.org/2000/svg"><path d="m0 660h1000v-660h-1000z" fill="#eae3d8"/><path d="m477.136 148c24.001 0 45.947 3.315 65.307 10.675 19.36 7.359 37.262 17.238 51.251 31.228 13.99 13.989 24.001 30.631 31.295 50.588 7.292 19.956 10.011 41.305 10.011 65.97v204.539h-157.864c-35.272 0-62.588-10.011-82.611-29.305s-29.305-47.273-29.305-81.949v-111.916h158.592c30.632 0 55.959 8.022 74.59 23.338v-4.641c0-39.98-10.675-70.611-30.632-90.568-19.956-19.957-51.317-31.36-90.634-31.36h-111.85v-36.599zm-75.252 251.746c0 49.262 25.327 74.59 75.252 74.59h121.266v-74.59c0-49.991-25.328-75.251-74.59-75.251h-121.928z"/></svg>