<svg viewBox="0 0 1000 660" xmlns="http://www.w3.org/2000/svg"><path d="m0 660h1000v-660h-1000z" fill="#eae3d8"/><path d="m798.935 414.733v50.86h65.695c12.362 0 21.545 2.826 27.196 8.124 2.825 3.179 5.298 7.417 6.71 12.715-4.591-.353-8.829-1.06-13.774-1.06h-85.827v55.805c0 40.265 25.784 66.048 65.695 66.048h86.18v-106.312c0-26.137-8.124-47.682-23.311-62.869-15.188-15.188-36.733-23.311-62.869-23.311zm50.86 121.499h34.967c6.004 0 10.243 1.413 12.009 3.179 2.119 2.119 3.178 6.358 3.178 12.009v4.945h-35.319c-5.651 0-9.89-1.06-12.009-3.179-1.766-1.766-2.826-6.004-2.826-12.009z"/><path d="m612.549 324.733v31.434h61.456c18.013 0 31.435 4.592 40.265 13.422 7.064 7.064 11.302 17.306 12.715 30.022-8.477-3.886-18.72-6.005-29.669-6.005h-84.767v61.81c0 18.719 5.651 34.613 16.247 45.209 10.949 10.949 26.49 16.6 45.209 16.6h84.767v-107.725c0-52.979-31.434-84.767-84.767-84.767zm31.435 100.308h53.332c10.243 0 18.013 2.472 22.958 7.417 4.592 4.945 7.064 12.715 7.064 22.958v30.374h-53.333c-10.242 0-18.013-2.472-22.958-7.417-4.591-4.591-7.063-12.362-7.063-22.957z"/><path d="m426.3 234.733v19.426h59.337c20.839 0 37.086 5.651 48.035 16.6 10.596 10.596 16.247 26.843 16.247 48.035v2.472c-9.89-8.123-23.311-12.362-39.558-12.362h-84.061v59.337c0 18.366 5.298 32.847 15.541 43.443 10.595 10.243 25.077 15.541 43.796 15.541h83.707v-108.431c0-13.069-1.766-24.724-5.297-34.967-3.886-10.596-9.537-19.779-16.601-26.843-7.417-7.417-16.6-13.068-27.196-16.6-10.242-3.885-21.898-5.651-34.613-5.651zm19.426 93.597h64.635c26.136 0 39.558 13.421 39.558 39.911v39.558h-64.282c-26.49 0-39.911-13.421-39.911-39.558z"/><path d="m237.914 144.733v12.009h57.571c22.958 0 40.617 6.004 52.979 18.366 12.009 12.008 18.367 30.022 18.367 52.979v12.715c-1.06-1.412-2.12-2.472-3.179-3.532-10.243-10.242-24.371-15.187-42.384-15.187h-83.354v57.571c0 18.013 4.945 32.494 14.834 42.384 10.243 10.242 24.371 15.187 42.737 15.187h83.354v-109.138c0-52.979-30.728-83.354-83.354-83.354zm12.009 89.359h71.345c29.669 0 45.563 15.893 45.563 45.562v45.562h-71.346c-30.022 0-45.562-15.894-45.562-45.562z"/><path d="m50.81 54.733v7.417h56.864c24.018 0 43.09 6.711 55.805 19.426 13.069 13.068 19.779 31.787 19.779 56.158v20.839c-9.183-15.894-26.136-24.371-49.447-24.371h-83.001v56.512c0 36.026 20.838 56.511 56.864 56.511h83.001v-109.491c0-26.49-7.417-46.975-21.898-61.456-14.128-14.128-34.966-21.545-61.103-21.545zm7.417 86.886h75.584c15.894 0 28.255 4.239 36.732 12.362 8.477 8.477 12.715 20.839 12.715 36.733v49.094h-75.584c-15.894 0-28.255-4.239-36.732-12.715-8.477-8.124-12.715-20.486-12.715-36.379z"/></svg>