<svg viewBox="0 0 1000 660" xmlns="http://www.w3.org/2000/svg"><path d="M0 660h1000V0H0z" fill="#fff"/><path d="M849.999 438.547c-.088-35.4-6.831-60.508-20.583-76.655-13.751-16.147-35.31-24.131-65.652-24.131h-11.179c-18.542 0-31.673 2.04-40.013 6.21-8.339 4.17-11.977 10.025-11.977 18.897 0 8.872 3.815 14.905 11.889 18.986 8.073 4.081 21.47 6.211 40.012 6.211h11.179v3.194h-11.09c-13.84 0-24.93-1.154-33.447-3.549-1.242 21.381-9.316 31.052-25.463 31.052-12.775 0-20.494-6.033-23.777-19.075-2.662 13.042-9.67 19.075-21.736 19.075-9.76 0-16.236-3.993-19.785-12.421.71 50.304 9.759 86.236 27.77 109.658 18.01 23.422 47.554 36.109 88.365 36.109 37.173 0 63.434-8.783 80.291-26.793 16.857-18.011 25.196-46.135 25.196-85.882z"/><path d="M648.073 415.479c9.759 0 19.785-3.637 19.785-30.519v-72.84c0-26.882-10.026-30.519-19.785-30.519s-19.785 3.637-19.785 30.519v72.84c0 26.882 10.026 30.519 19.785 30.519zm45.513 0c14.462 0 21.293-8.694 22.358-28.834-12.687-4.436-18.543-12.243-18.543-23.865 0-11.623 5.945-19.43 18.72-23.866v-51.901c0-24.221-6.742-34.512-22.535-34.512-15.792 0-22.535 10.291-22.535 34.512v93.866c0 24.309 6.743 34.6 22.535 34.6zm70.089-81.001c25.729 0 45.336 5.59 59.531 16.945V175.581c0-27.06-7.541-38.594-25.196-38.594-17.656 0-25.197 11.534-25.197 38.594v139.822h-3.105v-169.81c0-27.059-7.541-38.593-25.196-38.593-17.656 0-25.197 11.534-25.197 38.593v192.434c8.429-2.396 19.43-3.549 33.181-3.549zm-365.26 65.387v-59.443c0-18.542-2.04-31.673-6.21-40.012-4.17-8.34-10.025-11.889-18.986-11.889s-14.905 3.815-18.986 11.889c-4.081 8.073-6.211 21.47-6.211 40.012v59.354h-3.194V175.492c0-27.06-7.541-38.593-25.196-38.593s-25.197 11.533-25.197 38.593v139.823h-3.193V145.593c0-27.059-7.542-38.593-25.197-38.593s-25.196 11.534-25.196 38.593v169.722h-3.194V171.5c0-24.221-6.743-34.513-22.446-34.513-15.704 0-22.446 10.292-22.446 34.513v163.067h-3.194V221.094c0-26.882-10.026-30.52-19.785-30.52S150 194.212 150 221.094v178.771c0 53.675 9.138 91.647 27.858 116.045 18.72 24.398 47.553 36.109 88.365 36.109 46.489 0 79.493-11.8 100.697-36.286 21.204-24.487 31.495-62.193 31.495-115.869z"/></svg>