<svg viewBox="0 0 1000 660" xmlns="http://www.w3.org/2000/svg"><path d="M0 660h1000V0H0z" fill="#fff"/><path d="M285.901 260.418v109.429h14.078v21.918h-50.074v-21.918h14.078V260.418h-.48l-53.914 131.347h-19.198l-53.915-131.347h-.48v109.429h14.079v21.918H100v-21.918h14.078V260.418H100V238.5h51.035l48.955 119.188L248.945 238.5h51.034v21.918zm149.745 109.429v21.918h-35.997v-8.639a52.282 52.282 0 01-9.118 4.799 65.109 65.109 0 01-43.996 0 44.133 44.133 0 01-17.438-11.999 49.753 49.753 0 01-10.559-18.718 84.794 84.794 0 010-46.715 49.747 49.747 0 0110.559-18.718 44.153 44.153 0 0117.278-11.839 65.12 65.12 0 0143.996 0 52.364 52.364 0 019.119 4.8v-8.639h21.917v93.75h14.079zm-90.391-63.353a27.989 27.989 0 00-5.759 10.719 61.747 61.747 0 000 33.436 28.8 28.8 0 005.759 10.719c5.12 5.759 12.959 8.479 23.198 8.479s18.078-2.88 23.037-8.479a30.548 30.548 0 005.92-10.719 64.628 64.628 0 000-33.436 29.598 29.598 0 00-5.92-10.719c-4.959-5.76-12.958-8.479-23.037-8.479-10.079 0-18.078 2.719-23.198 8.479zm181.582-8.479c-10.239 0-18.078 2.879-23.038 8.479a29.58 29.58 0 00-5.919 10.719 58.35 58.35 0 00-2.24 16.638v35.996h14.079v21.918h-50.076v-21.918h14.079v-71.832h-14.079v-21.918h35.997v8.639a52.328 52.328 0 019.119-4.8 60.944 60.944 0 0121.918-3.839h10.879v21.918h-10.879zm206.379-18.079a45.762 45.762 0 0117.438 11.999 51.2 51.2 0 0110.399 18.718 77.428 77.428 0 013.36 23.358v35.996h13.918v21.918h-49.915v-22.078h14.079v-35.996a58.416 58.416 0 00-2.24-16.638 29.596 29.596 0 00-5.919-10.719c-5.12-5.76-12.959-8.479-23.038-8.479s-18.078 2.879-23.198 8.479a28.002 28.002 0 00-5.759 10.719 54.548 54.548 0 00-2.24 16.638v35.996h14.079v21.918h-50.235v-21.918h14.078v-35.996a54.547 54.547 0 00-2.239-16.638 27.99 27.99 0 00-5.76-10.719c-5.119-5.76-12.959-8.479-23.197-8.479-10.239 0-18.079 2.879-23.038 8.479a29.58 29.58 0 00-5.919 10.719 58.35 58.35 0 00-2.24 16.638v35.996h14.078v21.918h-50.075v-21.918h14.079v-71.832h-14.079v-21.918h35.997v8.639a52.292 52.292 0 019.119-4.8 65.118 65.118 0 0143.995 0 44.161 44.161 0 0117.438 11.999l2.88 3.52 2.88-3.52a44.635 44.635 0 0117.278-11.999 65.435 65.435 0 0143.996 0zm135.666 0a44.948 44.948 0 0117.438 11.999 51.03 51.03 0 0110.399 18.718 84.776 84.776 0 010 46.715 51.027 51.027 0 01-10.399 18.719 44.946 44.946 0 01-17.438 11.998 65.12 65.12 0 01-43.996 0 44.166 44.166 0 01-17.438-11.998 49.764 49.764 0 01-10.559-18.719 84.794 84.794 0 010-46.715 49.76 49.76 0 0110.559-18.718 44.168 44.168 0 0117.438-11.999 65.12 65.12 0 0143.996 0zm-45.116 26.558a28.002 28.002 0 00-5.759 10.719 61.747 61.747 0 000 33.436 28.814 28.814 0 005.759 10.719c5.12 5.759 12.959 8.479 23.198 8.479s18.078-2.88 23.038-8.479a30.545 30.545 0 005.919-10.719 64.628 64.628 0 000-33.436 29.58 29.58 0 00-5.919-10.719c-4.96-5.76-12.959-8.479-23.038-8.479s-18.078 2.719-23.357 8.479z" fill="#0067c4"/></svg>