<svg viewBox="0 0 1000 660" xmlns="http://www.w3.org/2000/svg"><path d="m0 660h1000v-660h-1000z" fill="#eae3d8"/><path d="m285.901 260.418v109.429h14.078v21.918h-50.074v-21.918h14.078v-109.429h-.48l-53.914 131.347h-19.198l-53.915-131.347h-.48v109.429h14.079v21.918h-50.075v-21.918h14.078v-109.429h-14.078v-21.918h51.035l48.955 119.188 48.955-119.188h51.034v21.918zm149.745 109.429v21.918h-35.997v-8.639c-2.874 1.896-5.928 3.503-9.118 4.799-14.221 5.105-29.775 5.105-43.996 0-6.7-2.526-12.685-6.644-17.438-11.999-4.841-5.396-8.445-11.784-10.559-18.718-4.374-15.264-4.374-31.45 0-46.715 2.114-6.934 5.718-13.322 10.559-18.718 4.726-5.275 10.653-9.336 17.278-11.839 14.221-5.104 29.775-5.104 43.996 0 3.19 1.296 6.245 2.904 9.119 4.8v-8.639h21.917v93.75h14.079zm-90.391-63.353c-2.683 3.107-4.649 6.767-5.759 10.719-3.075 10.933-3.075 22.503 0 33.436 1.134 3.942 3.098 7.597 5.759 10.719 5.12 5.759 12.959 8.479 23.198 8.479s18.078-2.88 23.037-8.479c2.677-3.137 4.69-6.783 5.92-10.719 2.933-10.952 2.933-22.484 0-33.436-1.205-3.947-3.221-7.598-5.92-10.719-4.959-5.76-12.958-8.479-23.037-8.479s-18.078 2.719-23.198 8.479zm181.582-8.479c-10.239 0-18.078 2.879-23.038 8.479-2.699 3.121-4.715 6.772-5.919 10.719-1.545 5.409-2.299 11.013-2.24 16.638v35.996h14.079v21.918h-50.076v-21.918h14.079v-71.832h-14.079v-21.918h35.997v8.639c2.874-1.896 5.929-3.504 9.119-4.8 7.009-2.614 14.438-3.915 21.918-3.839h10.879v21.918h-10.879zm206.379-18.079c6.671 2.582 12.643 6.691 17.438 11.999 4.747 5.437 8.291 11.815 10.399 18.718 2.307 7.569 3.44 15.446 3.36 23.358v35.996h13.918v21.918h-49.915v-22.078h14.079v-35.996c.058-5.625-.696-11.229-2.24-16.638-1.204-3.947-3.221-7.598-5.919-10.719-5.12-5.76-12.959-8.479-23.038-8.479s-18.078 2.879-23.198 8.479c-2.682 3.108-4.648 6.767-5.759 10.719-1.601 5.397-2.356 11.01-2.24 16.638v35.996h14.079v21.918h-50.235v-21.918h14.078v-35.996c.117-5.628-.639-11.241-2.239-16.638-1.111-3.952-3.077-7.612-5.76-10.719-5.119-5.76-12.959-8.479-23.197-8.479-10.239 0-18.079 2.879-23.038 8.479-2.699 3.121-4.715 6.772-5.919 10.719-1.545 5.409-2.299 11.013-2.24 16.638v35.996h14.078v21.918h-50.075v-21.918h14.079v-71.832h-14.079v-21.918h35.997v8.639c2.874-1.896 5.929-3.504 9.119-4.8 14.221-5.104 29.774-5.104 43.995 0 6.699 2.527 12.684 6.645 17.438 11.999l2.88 3.52 2.88-3.52c4.721-5.319 10.645-9.433 17.278-11.999 14.226-5.078 29.77-5.078 43.996 0zm135.666 0c6.685 2.554 12.663 6.668 17.438 11.999 4.751 5.434 8.295 11.813 10.399 18.718 4.375 15.264 4.375 31.451 0 46.715-2.103 6.905-5.648 13.285-10.399 18.719-4.775 5.331-10.753 9.444-17.438 11.998-14.221 5.104-29.775 5.104-43.996 0-6.699-2.527-12.684-6.644-17.438-11.998-4.841-5.396-8.445-11.785-10.559-18.719-4.374-15.265-4.374-31.451 0-46.715 2.114-6.934 5.718-13.322 10.559-18.718 4.754-5.354 10.739-9.472 17.438-11.999 14.221-5.104 29.775-5.104 43.996 0zm-45.116 26.558c-2.682 3.108-4.648 6.767-5.759 10.719-3.075 10.933-3.075 22.503 0 33.436 1.135 3.942 3.098 7.597 5.759 10.719 5.12 5.759 12.959 8.479 23.198 8.479s18.078-2.88 23.038-8.479c2.676-3.137 4.69-6.783 5.919-10.719 2.933-10.952 2.933-22.484 0-33.436-1.204-3.947-3.22-7.598-5.919-10.719-4.96-5.76-12.959-8.479-23.038-8.479s-18.078 2.719-23.357 8.479z"/></svg>