<svg viewBox="0 0 1000 660" xmlns="http://www.w3.org/2000/svg"><path d="m0 660h1000v-660h-1000z" fill="#eae3d8"/><path d="m274.757 197.427-15.802 15.803h-83.124l-15.803-15.803v-83.124l15.803-15.802h83.124l15.802 15.802zm-80.297-18.629h45.866v-45.866h-45.866zm124.493-45.866v5.782h64.495l15.802 15.802v42.911l-15.802 15.803h-98.927v-34.432h80.298v-5.781h-64.495l-15.803-15.803v-42.911l15.803-15.802h98.926v34.431zm199.138 80.298v-43.554l-22.483 43.554h-29.55l-22.483-43.554v43.554h-34.432v-114.729h36.359l35.331 68.477 35.459-68.477h36.359v114.729zm44.324 0v-114.729h34.432v114.729zm78.627-80.298v45.866h74.645v34.432h-93.273l-15.803-15.803v-83.124l15.803-15.802h93.145v34.431zm199.139 80.298h-34.432v-28.65h-45.866v28.65h-34.431v-98.927l15.802-15.802h83.124l15.803 15.802zm-80.298-63.082h45.866v-17.216h-45.866zm-484.226 396.22-14.133 14.133h-87.364l-14.132-14.133v-87.492l14.132-14.132h87.493l14.132 14.132v87.492zm-105.094-83.124v78.756l7.966 7.965h78.755l7.966-7.965v-78.756l-7.966-7.965h-78.755zm5.268 81.325v-83.894h84.023v84.023h-84.023zm10.535-10.535h62.824v-62.824h-62.824zm125.649-62.824v18.243h75.159l14.132 14.133v42.782l-14.132 14.133h-101.496v-26.467h89.291v-18.243h-75.159l-14.132-14.132v-42.783l14.132-14.132h101.625v26.466zm-15.931-7.966v34.046l7.966 7.966h81.325v39.313h-89.162v5.268h86.592l7.966-7.965v-33.918l-7.966-7.966h-81.325v-39.313h89.291v-5.268h-86.593zm262.863 97.257h-26.467v-66.68l-34.56 66.68h-25.695l-34.56-66.68v66.68h-26.338v-115.757h30.835l43.039 82.995 43.04-82.995h30.834v115.757zm-131.817-105.222h-5.268v94.558h5.268zm57.557 94.686-49.078-94.558h-5.91l49.078 94.558zm49.849-94.558-49.078 94.558h5.91l49.078-94.558zm8.479 0v94.558h5.268v-94.686h-5.268zm25.824 105.094v-115.757h26.466v115.757zm10.535-10.536h5.268v-94.686h-5.268v94.558zm52.29-78.755v62.824h82.867v26.467h-95.201l-14.132-14.133v-87.492l14.132-14.132h95.201v26.466zm-15.931-7.966v78.756l7.965 7.965h80.298v-5.267h-82.867v-84.023h82.867v-5.268h-80.298zm224.448 97.257h-26.338v-31.862h-62.953v31.862h-26.338v-101.625l14.132-14.132h87.493l14.132 14.132v101.625zm-105.094-97.257v86.593h5.268v-31.862h84.023v31.862h5.268v-86.593l-7.966-7.965h-78.628zm5.268 49.463v-52.032h84.023v52.032zm10.535-10.535h62.825v-30.962h-62.825zm-475.619-130.531-15.031 15.031h-85.309l-15.031-15.031v-85.308l15.031-15.032h85.309l15.031 15.032zm-109.975-83.124v80.811l11.948 11.948h80.811l11.948-11.948v-80.683l-11.948-11.948h-80.94zm19.913 72.846v-64.752h64.881v64.88h-64.881zm5.268-5.268h54.345v-54.217h-54.345v54.346zm125.136-54.217v11.949h69.762l15.032 15.031v42.911l-15.032 15.032h-100.211v-30.577h84.794v-11.948h-69.891l-15.032-15.032v-42.911l15.032-15.032h100.211v30.449h-84.794zm-25.182-13.233v38.415l11.949 11.948h72.846v22.483h-84.795v19.914h92.76l11.948-11.948v-38.415l-11.948-11.948h-72.846v-22.483h84.794v-19.914h-92.888zm234.855 98.027v-55.116l-28.522 55.116h-27.622l-28.522-55.116v55.116h-30.449v-115.242h33.532l39.185 75.672 39.186-75.672h33.532v115.242zm-42.269-28.136-42.397-81.839h-25.182v104.708h19.914v-71.561l37.002 71.432h21.198l37.001-71.432v71.432h19.914v-104.579h-25.053zm82.61 28.136v-115.242h30.449v115.242zm5.268-5.267h19.914v-104.708h-19.914zm65.523-79.527v54.346h78.755v30.448h-94.173l-15.031-15.031v-85.308l15.031-15.032h94.173v30.449h-78.755zm-25.182-13.233v80.812l11.948 11.948h86.722v-19.914h-78.756v-64.88h78.756v-19.914h-86.722zm228.945 98.027h-30.449v-30.32h-54.346v30.32h-30.448v-100.211l15.031-15.031h85.308l15.032 15.031v100.211zm-109.976-98.027v92.76h19.914v-30.32h64.88v30.32h19.914v-92.76l-11.948-11.948h-80.811zm19.914 42.526v-34.56h64.88v34.56zm5.267-5.268h54.346v-24.025h-54.346z"/></svg>