<svg viewBox="0 0 1000 660" xmlns="http://www.w3.org/2000/svg"><path d="m0 660h1000v-660h-1000z" fill="#eae3d8"/><path d="m950.5 275.928-20.928-20.928h-109.952l-20.927 20.928v130.879h45.542v-37.952h60.723v37.952h45.542zm-106.265 24.614h60.723v22.771h-60.723zm-58.554 0v-45.542h-123.289l-20.928 20.928v109.952l20.928 20.927h123.289v-45.542h-98.675v-60.723zm-157.229 106.265v-151.807h-45.542v151.807zm-58.554 0v-151.807h-48.036l-46.844 90.542-46.843-90.542h-48.036v151.807h45.542v-57.578l29.819 57.578h39.036l29.819-57.578v57.578zm-202.771-106.265v-45.542h-130.88l-20.928 20.928v56.819l20.928 20.928h85.337v7.59h-106.265v45.542h130.88l20.928-20.927v-56.82l-20.928-20.927h-85.338v-7.591zm-164.82-24.614-20.927-20.928h-109.952l-20.928 20.928v109.952l20.928 20.927h109.952l20.927-20.927zm-106.265 24.614h60.723v60.723h-60.723z"/></svg>