<svg viewBox="0 0 1000 660" xmlns="http://www.w3.org/2000/svg"><path d="m0 660h1000v-660h-1000z" fill="#eae3d8"/><path d="m197.209 233c4.675.03 9.146 1.918 12.427 5.249l17.134 16.826c3.247 3.312 5.027 7.789 4.94 12.426v56.652c.087 4.637-1.693 9.114-4.94 12.426l-17.134 16.826c-3.281 3.331-7.752 5.219-12.427 5.248h-61.36v67.69h-35.349v-193.343zm-92.31 188.943h26.551v-67.612h65.759c3.508-.079 6.862-1.453 9.416-3.859l17.058-16.903c2.321-2.589 3.612-5.939 3.627-9.416v-56.575c-.008-3.478-1.3-6.831-3.627-9.416l-17.135-16.826c-2.55-2.412-5.907-3.787-9.416-3.859h-92.233zm94.78-149.965 1.081 1.389v44.997l-1.081 1.39-6.329 6.637-1.389 1.39h-60.511v-63.83h60.511l1.389 1.389zm-63.83 51.403h54.105l6.329-6.638v-41.678l-6.329-6.638h-54.105zm228.538-90.381c4.675.03 9.145 1.919 12.426 5.249l17.135 16.826c3.246 3.312 5.026 7.789 4.939 12.426v56.652c.087 4.637-1.693 9.114-4.939 12.426l-17.135 16.826c-3.28 3.331-7.751 5.219-12.426 5.248h-61.283v67.69h-35.35v-193.343zm-92.234 188.943h26.551v-67.612h65.76c3.508-.079 6.862-1.453 9.416-3.859l17.057-16.903c2.321-2.589 3.612-5.939 3.628-9.416v-56.575c-.008-3.478-1.3-6.831-3.627-9.416l-17.135-16.826c-2.55-2.412-5.907-3.787-9.416-3.859h-92.234zm92.234-173.429c.55.106 1.044.407 1.389.849l17.135 16.826c.344.38.537.875.54 1.389v56.652c-.003.514-.195 1.009-.54 1.39l-17.135 16.825c-.345.442-.838.744-1.389.849h-76.797v67.689h-4.399v-162.469zm-76.797 90.304h76.256l15.205-15.746v-54.413l-15.205-15.746h-76.256zm79.267-66.84 1.08 1.389v44.997l-1.08 1.39-6.33 6.637-1.389 1.39h-60.511v-63.83h60.511l1.389 1.389zm-63.831 51.403h54.105l6.329-6.637v-41.679l-6.329-6.638h-54.027v54.954zm228.615-90.381c4.675.03 9.146 1.918 12.427 5.249l17.134 16.826c3.246 3.312 5.026 7.789 4.94 12.426v56.652c.087 4.637-1.693 9.114-4.94 12.426l-17.134 16.826c-3.281 3.331-7.752 5.219-12.427 5.248h-61.36v67.69h-35.35v-193.343zm-92.31 188.943h26.551v-67.612h65.759c3.509-.071 6.866-1.447 9.416-3.859l17.058-16.903c2.321-2.589 3.612-5.939 3.627-9.416v-56.575c-.015-3.477-1.306-6.827-3.627-9.416l-17.135-16.826c-2.55-2.412-5.907-3.787-9.416-3.859h-92.233zm92.31-181.147c2.596.061 5.064 1.143 6.869 3.01l17.135 16.826c1.796 1.833 2.795 4.302 2.778 6.869v56.652c.017 2.567-.982 5.036-2.778 6.869l-17.135 16.826c-1.805 1.867-4.273 2.949-6.869 3.01h-69.078v67.689h-19.913v-177.751zm-84.592 173.429h11.037v-67.689h73.478c1.45-.008 2.838-.591 3.859-1.621l17.135-16.826c.9-1.084 1.392-2.45 1.389-3.859v-56.652c.003-1.409-.489-2.775-1.389-3.859l-17.135-16.826c-1.022-1.029-2.409-1.612-3.859-1.621h-84.515v169.03zm84.592-165.711c.551.106 1.044.407 1.39.849l17.134 16.826c.345.38.538.875.54 1.389v56.652c-.002.514-.195 1.009-.54 1.389l-17.134 16.826c-.345.442-.839.744-1.39.849h-76.796v67.689h-4.477v-162.469zm-76.796 90.304h76.256l15.205-15.746v-54.413l-15.205-15.746h-76.256zm86.984-69.85 1.081 1.08v51.635l-1.081 1.081-10.805 11.345-1.39 1.39h-71.471v-79.267h71.549l1.389 1.39zm-79.266 62.131h65.219l10.806-11.345v-47.776l-10.806-11.346h-65.219zm71.548-59.121 1.081 1.389v44.997l-1.081 1.39-6.329 6.637-1.389 1.39h-60.511v-63.83h60.511l1.389 1.389zm-63.83 51.403h54.182l6.329-6.637v-41.679l-6.329-6.638h-54.182zm228.537-90.381c4.675.03 9.146 1.918 12.427 5.249l17.134 16.826c3.247 3.312 5.027 7.789 4.94 12.426v56.652c.087 4.637-1.693 9.114-4.94 12.426l-17.134 16.903c-3.281 3.331-7.752 5.219-12.427 5.249h-61.282v67.689h-35.427v-193.42zm-81.196 177.906h4.4v-67.689h76.796c.551-.105 1.045-.407 1.39-.849l17.134-16.826c.346-.38.538-.875.541-1.389v-56.575c-.003-.514-.195-1.009-.541-1.389l-17.134-16.826c-.345-.442-.839-.743-1.389-.849h-81.197zm95.861-87.834-15.205 15.746h-76.256v-85.905h76.256l15.205 15.746zm-75.947.309h54.105l6.328-6.637v-41.679l-6.328-6.638h-54.105zm228.46-90.381c4.675.03 9.146 1.918 12.426 5.249l17.135 16.826c3.246 3.312 5.026 7.789 4.939 12.426v56.652c.087 4.637-1.693 9.114-4.939 12.426l-17.135 16.826c-3.28 3.331-7.751 5.219-12.426 5.248h-61.36v67.69h-35.35v-193.343zm-61.36 90.304h54.105l6.329-6.638v-41.678l-6.329-6.638h-54.105z"/></svg>