<svg viewBox="0 0 1000 660" xmlns="http://www.w3.org/2000/svg"><path d="M0 660h1000V0H0z" fill="#fff"/><path d="M197.209 233a17.6 17.6 0 0112.427 5.249l17.134 16.826a17.286 17.286 0 014.94 12.426v56.652a17.286 17.286 0 01-4.94 12.426l-17.134 16.826a17.596 17.596 0 01-12.427 5.248h-61.36v67.69H100.5V233zm-92.31 188.943h26.551v-67.612h65.759a14.196 14.196 0 009.416-3.859l17.058-16.903a14.198 14.198 0 003.627-9.416v-56.575a14.123 14.123 0 00-3.627-9.416l-17.135-16.826a14.123 14.123 0 00-9.416-3.859h-92.233zm94.78-149.965l1.081 1.389v44.997l-1.081 1.39-6.329 6.637-1.389 1.39H131.45v-63.83h60.511l1.389 1.389zm-63.83 51.403h54.105l6.329-6.638v-41.678l-6.329-6.638h-54.105zM364.387 233a17.6 17.6 0 0112.426 5.249l17.135 16.826a17.29 17.29 0 014.939 12.426v56.652a17.29 17.29 0 01-4.939 12.426l-17.135 16.826a17.592 17.592 0 01-12.426 5.248h-61.283v67.69h-35.35V233zm-92.234 188.943h26.551v-67.612h65.76a14.196 14.196 0 009.416-3.859l17.057-16.903a14.204 14.204 0 003.628-9.416v-56.575a14.123 14.123 0 00-3.627-9.416l-17.135-16.826a14.123 14.123 0 00-9.416-3.859h-92.234zm92.234-173.429c.55.106 1.044.407 1.389.849l17.135 16.826c.344.38.537.875.54 1.389v56.652a2.089 2.089 0 01-.54 1.39l-17.135 16.825a2.313 2.313 0 01-1.389.849H287.59v67.689h-4.399V248.514zm-76.797 90.304h76.256l15.205-15.746v-54.413l-15.205-15.746H287.59zm79.267-66.84l1.08 1.389v44.997l-1.08 1.39-6.33 6.637-1.389 1.39h-60.511v-63.83h60.511l1.389 1.389zm-63.831 51.403h54.105l6.329-6.637v-41.679l-6.329-6.638h-54.027v54.954zM531.641 233a17.6 17.6 0 0112.427 5.249l17.134 16.826a17.29 17.29 0 014.94 12.426v56.652a17.286 17.286 0 01-4.94 12.426l-17.134 16.826a17.596 17.596 0 01-12.427 5.248h-61.36v67.69h-35.35V233zm-92.31 188.943h26.551v-67.612h65.759a14.117 14.117 0 009.416-3.859l17.058-16.903a14.198 14.198 0 003.627-9.416v-56.575a14.198 14.198 0 00-3.627-9.416l-17.135-16.826a14.123 14.123 0 00-9.416-3.859h-92.233zm92.31-181.147a9.877 9.877 0 016.869 3.01l17.135 16.826a9.723 9.723 0 012.778 6.869v56.652a9.723 9.723 0 01-2.778 6.869l-17.135 16.826a9.877 9.877 0 01-6.869 3.01h-69.078v67.689H442.65V240.796zm-84.592 173.429h11.037v-67.689h73.478a5.48 5.48 0 003.859-1.621l17.135-16.826a6.02 6.02 0 001.389-3.859v-56.652a6.022 6.022 0 00-1.389-3.859l-17.135-16.826a5.485 5.485 0 00-3.859-1.621h-84.515v169.03zm84.592-165.711a2.32 2.32 0 011.39.849l17.134 16.826c.345.38.538.875.54 1.389v56.652a2.08 2.08 0 01-.54 1.389l-17.134 16.826a2.316 2.316 0 01-1.39.849h-76.796v67.689h-4.477V248.514zm-76.796 90.304h76.256l15.205-15.746v-54.413l-15.205-15.746h-76.256zm86.984-69.85l1.081 1.08v51.635l-1.081 1.081-10.805 11.345-1.39 1.39h-71.471v-79.267h71.549l1.389 1.39zm-79.266 62.131h65.219l10.806-11.345v-47.776l-10.806-11.346h-65.219zm71.548-59.121l1.081 1.389v44.997l-1.081 1.39-6.329 6.637-1.389 1.39h-60.511v-63.83h60.511l1.389 1.389zm-63.83 51.403h54.182l6.329-6.637v-41.679l-6.329-6.638h-54.182zM698.818 233a17.599 17.599 0 0112.427 5.249l17.134 16.826a17.286 17.286 0 014.94 12.426v56.652a17.286 17.286 0 01-4.94 12.426l-17.134 16.903a17.599 17.599 0 01-12.427 5.249h-61.282v67.689h-35.427V233zm-81.196 177.906h4.4v-67.689h76.796a2.313 2.313 0 001.39-.849l17.134-16.826a2.08 2.08 0 00.541-1.389v-56.575a2.08 2.08 0 00-.541-1.389l-17.134-16.826a2.318 2.318 0 00-1.389-.849h-81.197zm95.861-87.834l-15.205 15.746h-76.256v-85.905h76.256l15.205 15.746zm-75.947.309h54.105l6.328-6.637v-41.679l-6.328-6.638h-54.105zM865.996 233a17.597 17.597 0 0112.426 5.249l17.135 16.826a17.29 17.29 0 014.939 12.426v56.652a17.29 17.29 0 01-4.939 12.426l-17.135 16.826a17.592 17.592 0 01-12.426 5.248h-61.36v67.69h-35.35V233zm-61.36 90.304h54.105l6.329-6.638v-41.678l-6.329-6.638h-54.105z" fill="red"/></svg>