<svg viewBox="0 0 1000 660" xmlns="http://www.w3.org/2000/svg"><path d="m0 660h1000v-660h-1000z" fill="#eae3d8"/><path d="m158.298 221c5.259.034 10.289 2.158 13.98 5.905l19.276 18.929c3.653 3.726 5.655 8.763 5.557 13.98v63.733c.098 5.217-1.904 10.254-5.557 13.98l-19.276 18.929c-3.691 3.747-8.721 5.871-13.98 5.904h-69.03v76.151h-39.768v-217.511zm-103.849 212.561h29.87v-76.063h73.979c3.946-.089 7.72-1.635 10.593-4.342l19.19-19.016c2.611-2.912 4.064-6.681 4.08-10.593v-63.647c-.009-3.912-1.462-7.685-4.08-10.593l-19.277-18.929c-2.869-2.713-6.645-4.26-10.593-4.341h-103.762zm106.628-168.711 1.216 1.563v50.622l-1.216 1.563-7.121 7.467-1.562 1.564h-68.075v-71.809h68.075l1.562 1.563zm-71.809 57.829h60.868l7.12-7.468v-46.888l-7.12-7.468h-60.868zm257.105-101.679c5.26.034 10.288 2.159 13.979 5.905l19.277 18.929c3.652 3.726 5.655 8.763 5.557 13.98v63.733c.098 5.217-1.905 10.254-5.557 13.98l-19.277 18.929c-3.69 3.747-8.719 5.871-13.979 5.904h-68.943v76.151h-39.769v-217.511zm-103.763 212.561h29.87v-76.063h73.98c3.946-.089 7.72-1.635 10.593-4.342l19.189-19.016c2.611-2.912 4.063-6.681 4.082-10.593v-63.647c-.009-3.912-1.463-7.685-4.081-10.593l-19.277-18.929c-2.869-2.713-6.645-4.26-10.593-4.341h-103.763zm103.763-195.108c.619.12 1.175.458 1.563.955l19.277 18.93c.387.427.604.984.607 1.562v63.734c-.003.578-.219 1.135-.607 1.564l-19.277 18.928c-.388.497-.943.837-1.563.955h-86.396v76.15h-4.949v-182.778zm-86.396 101.592h85.788l17.105-17.714v-61.215l-17.105-17.714h-85.788zm89.175-75.195 1.215 1.563v50.622l-1.215 1.563-7.121 7.467-1.563 1.564h-68.075v-71.809h68.075l1.563 1.563zm-71.81 57.829h60.868l7.12-7.467v-46.889l-7.12-7.468h-60.78v61.824zm257.192-101.679c5.26.034 10.289 2.158 13.981 5.905l19.275 18.929c3.652 3.726 5.655 8.763 5.558 13.98v63.733c.098 5.217-1.905 10.254-5.558 13.98l-19.275 18.929c-3.692 3.747-8.721 5.871-13.981 5.904h-69.03v76.151h-39.769v-217.511zm-103.849 212.561h29.87v-76.063h73.979c3.948-.08 7.724-1.628 10.593-4.342l19.19-19.016c2.612-2.912 4.064-6.681 4.081-10.593v-63.647c-.017-3.911-1.469-7.68-4.081-10.593l-19.276-18.929c-2.869-2.713-6.646-4.26-10.593-4.341h-103.763zm103.849-203.79c2.921.068 5.697 1.285 7.728 3.386l19.277 18.929c2.02 2.062 3.144 4.84 3.125 7.728v63.733c.019 2.888-1.105 5.666-3.125 7.728l-19.277 18.929c-2.031 2.101-4.807 3.318-7.728 3.386h-77.713v76.151h-22.402v-199.97zm-95.166 195.107h12.417v-76.15h82.663c1.631-.009 3.192-.665 4.341-1.824l19.277-18.929c1.012-1.219 1.566-2.756 1.562-4.341v-63.734c.004-1.585-.55-3.122-1.562-4.341l-19.277-18.929c-1.15-1.158-2.71-1.814-4.341-1.824h-95.08v190.159zm95.166-186.425c.62.12 1.175.458 1.564.955l19.276 18.93c.388.427.605.984.607 1.562v63.734c-.002.578-.219 1.135-.607 1.562l-19.276 18.93c-.388.497-.944.837-1.564.955h-86.395v76.15h-5.037v-182.778zm-86.395 101.592h85.788l17.105-17.714v-61.215l-17.105-17.714h-85.788zm97.857-78.581 1.216 1.215v58.089l-1.216 1.217-12.156 12.763-1.564 1.563h-80.405v-89.175h80.493l1.563 1.564zm-89.175 69.898h73.372l12.157-12.764v-53.748l-12.157-12.764h-73.372zm80.492-66.512 1.216 1.563v50.622l-1.216 1.563-7.12 7.467-1.563 1.564h-68.075v-71.809h68.075l1.563 1.563zm-71.809 57.829h60.955l7.12-7.467v-46.889l-7.12-7.468h-60.955zm257.105-101.679c5.259.034 10.289 2.158 13.98 5.905l19.276 18.929c3.653 3.726 5.655 8.763 5.557 13.98v63.733c.098 5.217-1.904 10.254-5.557 13.98l-19.276 19.015c-3.691 3.748-8.721 5.872-13.98 5.906h-68.943v76.15h-39.855v-217.598zm-91.346 200.144h4.95v-76.15h86.396c.619-.118 1.175-.458 1.563-.955l19.276-18.929c.389-.428.605-.985.609-1.563v-63.647c-.004-.578-.22-1.135-.609-1.562l-19.276-18.93c-.388-.497-.944-.835-1.562-.955h-91.347zm107.844-98.813-17.106 17.714h-85.788v-96.643h85.788l17.106 17.714zm-85.441.348h60.868l7.119-7.467v-46.889l-7.119-7.468h-60.868zm257.018-101.679c5.259.034 10.289 2.158 13.979 5.905l19.277 18.929c3.652 3.726 5.654 8.763 5.557 13.98v63.733c.097 5.217-1.905 10.254-5.557 13.98l-19.277 18.929c-3.69 3.747-8.72 5.871-13.979 5.904h-69.03v76.151h-39.769v-217.511zm-69.03 101.592h60.868l7.12-7.468v-46.887l-7.12-7.468h-60.868z"/></svg>