<svg viewBox="0 0 1000 660" xmlns="http://www.w3.org/2000/svg"><path d="m0 660h1000v-660h-1000z" fill="#eae3d8"/><path d="m698.772 481.32v-16.947h-50.84v16.947zm16.947 67.787v-67.787h-16.947v16.947h-50.84v16.946h50.84v16.947h-50.84v16.947zm-67.787-16.947v-16.947h-16.947v16.947zm-59.313-50.84v-16.947h-67.787v118.627h16.947v-33.893h50.84v-16.947h-50.84v-50.84zm16.946 50.84v-50.84h-16.946v50.84z"/><path d="m464.186 395.652v-16.947h-50.84v16.947zm-44.062-10.168h37.283v3.389h-37.283zm61.008 77.954v-67.786h-16.946v16.946h-50.84v16.947h50.84v16.947h-50.84v16.946zm-10.168-61.008h3.39v54.23h-54.23v-3.39h50.84v-30.504h-50.84v-3.389h50.84zm-57.618 44.062v-16.947h-16.947v16.947zm-10.168-10.168h3.389v3.389h-3.389zm-49.146-40.672v-16.947h-67.786v118.627h16.946v-33.894h50.84v-16.946h-50.84v-50.84zm-61.008-10.168h54.23v3.389h-50.84v64.397h50.84v3.39h-50.84v33.893h-3.39zm77.955 61.008v-50.84h-16.947v50.84zm-10.168-44.062h3.389v37.283h-3.389z"/><path d="m698.772 293.163v-16.947h-50.84v16.947zm-47.451-13.558h44.062v10.168h-44.062zm40.672 6.779v-3.389h-37.282v3.389zm23.726 74.565v-67.786h-16.947v16.946h-50.84v16.947h50.84v16.947h-50.84v16.946zm-13.558-64.397h10.168v61.008h-61.008v-10.168h50.84v-23.725h-50.84v-10.168h50.84zm6.779 57.619v-54.23h-3.389v16.947h-50.84v3.389h50.84v30.504h-50.84v3.39zm-61.008-10.168v-16.947h-16.947v16.947zm-13.557-13.558h10.168v10.168h-10.168zm6.778 6.779v-3.389h-3.389v3.389zm-52.534-44.061v-16.947h-67.787v118.627h16.947v-33.894h50.84v-16.946h-50.84v-50.84zm-64.398-13.558h61.008v10.168h-50.84v57.619h50.84v10.168h-50.84v33.893h-10.168zm57.619 6.779v-3.389h-54.229v105.069h3.389v-33.893h50.84v-3.39h-50.84v-64.397zm23.725 57.619v-50.84h-16.946v50.84zm-13.557-47.451h10.168v44.061h-10.168zm6.779 40.672v-37.283h-3.39v37.283z"/><path d="m464.122 207.494v-16.946h-50.84v16.946zm-45.756-11.862h40.672v6.778h-40.672zm62.703 79.649v-67.787h-16.947v16.947h-50.84v16.947h50.84v16.946h-50.84v16.947zm-11.863-62.703h6.779v57.619h-57.619v-6.779h50.84v-27.114h-50.84v-6.779h50.84zm-55.924 45.756v-16.946h-16.947v16.946zm-11.863-11.862h6.779v6.778h-6.779zm-47.45-38.978v-16.946h-67.787v118.626h16.947v-33.893h50.84v-16.947h-50.84v-50.84zm-62.703-11.862h57.619v6.778h-50.841v61.008h50.841v6.779h-50.841v33.893h-6.778zm79.649 62.702v-50.84h-16.946v50.84zm-11.862-45.756h6.778v40.672h-6.778z"/><path d="m698.772 104.947v-16.947h-50.84v16.947zm-47.451-13.558h44.062v10.168h-44.062zm64.398 81.344v-67.786h-16.947v16.946h-50.84v16.947h50.84v16.947h-50.84v16.946zm-13.558-64.397h10.168v61.008h-61.008v-10.168h50.84v-23.725h-50.84v-10.168h50.84zm-54.229 47.451v-16.947h-16.947v16.947zm-13.557-13.558h10.168v10.168h-10.168zm-45.756-37.282v-16.947h-67.787v118.627h16.947v-33.894h50.84v-16.946h-50.84v-50.84zm-64.398-13.558h61.008v10.168h-50.84v57.619h50.84v10.168h-50.84v33.893h-10.168zm81.344 64.398v-50.84h-16.946v50.84zm-13.557-47.451h10.168v44.061h-10.168z"/></svg>