<svg viewBox="0 0 1000 660" xmlns="http://www.w3.org/2000/svg"><path d="m0 660h1000v-660h-1000z" fill="#eae3d8"/><path d="m699.981 525.466v-11.57h-34.71v11.57zm11.569 46.28v-46.28h-11.569v11.57h-34.71v11.57h34.71v11.57h-34.71v11.57zm-46.279-11.57v-11.57h-11.57v11.57zm-52.065-46.28v-23.139h-11.57v69.419h11.57v-34.71h23.14v-11.57zm23.14 57.85v-11.57h-23.14v11.57zm-57.849-69.419v-11.57h-11.57v11.57zm0 69.419v-57.85h-11.57v57.85zm-57.849-57.85v-23.139h-11.57v69.419h11.57v-34.71h23.139v-11.57zm23.139 57.85v-11.57h-23.139v11.57zm-86.774-46.28v-11.57h-11.569v57.85h11.569v-34.71h11.57v-11.57zm34.71 0v-11.57h-23.14v11.57zm-80.989 0v-11.57h-34.71v11.57zm11.569 46.28v-46.28h-11.569v11.57h-34.71v11.57h34.71v11.57h-34.71v11.57zm-46.279-11.57v-11.57h-11.57v11.57zm-40.494-34.71v-11.57h-46.28v80.989h11.57v-23.139h34.71v-11.57h-34.71v-34.71zm11.569 34.71v-34.71h-11.569v34.71z"/><path d="m699.981 243.468v-11.57h-34.71v11.57zm-31.239-8.1h27.768v4.628h-27.768zm42.808 54.379v-46.279h-11.569v11.569h-34.71v11.57h34.71v11.57h-34.71v11.57zm-8.098-42.809h4.628v39.338h-39.338v-4.628h34.71v-18.511h-34.71v-4.629h34.71zm-38.181 31.239v-11.57h-11.57v11.57zm-8.099-8.099h4.628v4.628h-4.628zm-43.966-38.18v-23.14h-11.57v69.419h11.57v-34.709h23.14v-11.57zm-8.098-19.669h4.628v23.139h23.139v4.628h-23.139v34.71h-4.628zm31.238 77.518v-11.57h-23.14v11.57zm-19.668-8.099h16.197v4.628h-16.197zm-38.181-61.321v-11.569h-11.57v11.569zm-8.099-8.098h4.628v4.628h-4.628zm8.099 77.518v-57.849h-11.57v57.849zm-8.099-54.379h4.628v50.908h-4.628zm-49.75-3.47v-23.14h-11.57v69.419h11.57v-34.709h23.139v-11.57zm-8.1-19.669h4.628v23.139h23.14v4.628h-23.14v34.71h-4.628zm31.239 77.518v-11.57h-23.139v11.57zm-19.669-8.099h16.198v4.628h-16.198zm-67.105-38.18v-11.57h-11.569v57.849h11.569v-34.71h11.57v-11.569zm34.71 0v-11.57h-23.14v11.57zm-42.809-8.1h4.628v11.57h11.57v4.628h-11.57v34.71h-4.628zm23.14 0h16.198v4.628h-16.198zm-61.32 8.1v-11.57h-34.71v11.57zm-31.239-8.1h27.768v4.628h-27.768zm42.808 54.379v-46.279h-11.569v11.569h-34.71v11.57h34.71v11.57h-34.71v11.57zm-8.098-42.809h4.628v39.338h-39.338v-4.628h34.71v-18.511h-34.71v-4.629h34.71zm-38.181 31.239v-11.57h-11.57v11.57zm-8.099-8.099h4.628v4.628h-4.628zm-32.395-26.61v-11.57h-46.28v80.989h11.57v-23.14h34.71v-11.57h-34.71v-34.709zm-42.809-8.1h39.337v4.628h-34.709v41.652h34.709v4.628h-34.709v23.14h-4.628zm54.378 42.809v-34.709h-11.569v34.709zm-8.099-31.239h4.629v27.768h-4.629z"/><path d="m699.981 384.443v-11.57h-34.71v11.57zm-30.082-6.942h25.454v2.314h-25.454zm41.651 53.221v-46.279h-11.569v11.57h-34.71v11.57h34.71v11.569h-34.71v11.57zm-6.942-41.651h2.315v37.023h-37.024v-2.314h34.709v-20.825h-34.709v-2.314h34.709zm-39.337 30.081v-11.569h-11.57v11.569zm-6.942-6.942h2.314v2.315h-2.314zm-45.122-39.337v-23.14h-11.571v69.419h11.571v-34.709h23.139v-11.57zm-6.942-18.512h2.313v23.14h23.141v2.314h-23.141v34.71h-2.313zm30.081 76.361v-11.57h-23.139v11.57zm-18.511-6.942h13.884v2.314h-13.884zm-39.338-62.477v-11.57h-11.57v11.57zm-6.942-6.942h2.314v2.314h-2.314zm6.942 76.361v-57.849h-11.57v57.849zm-6.942-53.221h2.314v48.593h-2.314zm-50.907-4.628v-23.14h-11.57v69.419h11.57v-34.709h23.139v-11.57zm-6.942-18.512h2.314v23.14h23.139v2.314h-23.139v34.71h-2.314zm30.081 76.361v-11.57h-23.139v11.57zm-18.512-6.942h13.884v2.314h-13.884zm-68.262-39.337v-11.57h-11.569v57.849h11.569v-34.709h11.57v-11.57zm34.71 0v-11.57h-23.14v11.57zm-41.652-6.942h2.315v11.57h11.569v2.313h-11.569v34.71h-2.315zm23.14 0h13.884v2.314h-13.884zm-62.477 6.942v-11.57h-34.71v11.57zm-30.082-6.942h25.454v2.314h-25.454zm41.651 53.221v-46.279h-11.569v11.57h-34.71v11.57h34.71v11.569h-34.71v11.57zm-6.942-41.651h2.315v37.023h-37.024v-2.314h34.709v-20.825h-34.709v-2.314h34.709zm-39.337 30.081v-11.569h-11.57v11.569zm-6.942-6.942h2.314v2.315h-2.314zm-33.552-27.767v-11.57h-46.28v80.989h11.57v-23.14h34.71v-11.57h-34.71v-34.709zm-41.652-6.942h37.024v2.314h-34.71v43.965h34.71v2.314h-34.71v23.14h-2.314zm53.221 41.651v-34.709h-11.569v34.709zm-6.942-30.081h2.315v25.454h-2.315z"/><path d="m699.981 101.595v-11.57h-34.71v11.57zm-32.396-9.256h30.081v6.942h-30.081zm43.965 55.536v-46.28h-11.569v11.57h-34.71v11.57h34.71v11.57h-34.71v11.57zm-9.256-43.966h6.942v41.651h-41.651v-6.942h34.709v-16.197h-34.709v-6.942h34.709zm-37.023 32.396v-11.57h-11.57v11.57zm-9.256-9.256h6.942v6.942h-6.942zm-42.809-37.024v-23.14h-11.57v69.42h11.57v-34.71h23.14v-11.57zm-9.255-20.826h6.942v23.14h23.139v6.942h-23.139v34.71h-6.942zm32.395 78.676v-11.57h-23.14v11.57zm-20.826-9.257h18.512v6.942h-18.512zm-37.023-60.162v-11.571h-11.57v11.571zm-9.256-9.257h6.942v6.942h-6.942zm9.256 78.676v-57.85h-11.57v57.85zm-9.256-55.536h6.942v53.221h-6.942zm-48.593-2.314v-23.14h-11.57v69.42h11.57v-34.71h23.139v-11.57zm-9.257-20.826h6.942v23.14h23.14v6.942h-23.14v34.71h-6.942zm32.396 78.676v-11.57h-23.139v11.57zm-20.826-9.257h18.512v6.942h-18.512zm-65.948-37.023v-11.57h-11.57v57.85h11.57v-34.71h11.57v-11.57zm34.709 0v-11.57h-23.139v11.57zm-43.965-9.256h6.942v11.57h11.57v6.942h-11.57v34.709h-6.942zm23.14 0h18.512v6.942h-18.512zm-60.163 9.256v-11.57h-34.71v11.57zm-32.396-9.256h30.081v6.942h-30.081zm43.965 55.536v-46.28h-11.569v11.57h-34.71v11.57h34.71v11.57h-34.71v11.57zm-9.255-43.966h6.942v41.651h-41.652v-6.942h34.71v-16.197h-34.71v-6.942h34.71zm-37.024 32.396v-11.57h-11.57v11.57zm-9.256-9.256h6.942v6.942h-6.942zm-31.238-25.454v-11.57h-46.28v80.989h11.57v-23.139h34.71v-11.57h-34.71v-34.71zm-43.966-9.256h41.651v6.942h-34.709v39.337h34.709v6.942h-34.709v23.141h-6.942zm55.535 43.966v-34.71h-11.569v34.71zm-9.256-32.396h6.942v30.082h-6.942z"/></svg>