<svg viewBox="0 0 1000 660" xmlns="http://www.w3.org/2000/svg"><path d="m0 660h1000v-660h-1000z" fill="#eae3d8"/><path d="m719.166 244.077v-12.675h-38.021v12.675zm-34.219-8.874h30.417v5.07h-30.417zm46.892 59.567v-50.693h-12.673v12.672h-38.021v12.673h38.021v12.675h-38.021v12.673zm-8.87-46.893h5.069v43.091h-43.091v-5.07h38.022v-20.277h-38.022v-5.07h38.022zm-41.824 34.22v-12.675h-12.674v12.675zm-8.872-8.872h5.069v5.07h-5.069zm-48.16-41.823v-25.348h-12.674v76.043h12.674v-38.02h25.348v-12.675zm-8.871-21.545h5.069v25.346h25.347v5.07h-25.347v38.022h-5.069zm34.219 84.913v-12.673h-25.348v12.673zm-21.545-8.872h17.742v5.07h-17.742zm-41.824-67.17v-12.674h-12.673v12.674zm-8.872-8.871h5.07v5.069h-5.07zm8.872 84.913v-63.368h-12.673v63.368zm-8.872-59.567h5.07v55.765h-5.07zm-54.496-3.801v-25.348h-12.673v76.043h12.673v-38.02h25.347v-12.675zm-8.872-21.546h5.069v25.347h25.348v5.07h-25.348v38.022h-5.069zm34.219 84.914v-12.673h-25.347v12.673zm-21.546-8.872h17.744v5.07h-17.744zm-73.506-41.821v-12.675h-12.674v63.368h12.674v-38.021h12.673v-12.672zm38.021 0v-12.675h-25.348v12.675zm-46.894-8.874h5.07v12.674h12.674v5.07h-12.674v38.021h-5.07zm25.348 0h17.744v5.07h-17.744zm-67.17 8.874v-12.675h-38.022v12.675zm-34.219-8.874h30.416v5.07h-30.416zm46.892 59.567v-50.693h-12.673v12.672h-38.022v12.673h38.022v12.675h-38.022v12.673zm-8.871-46.893h5.07v43.091h-43.091v-5.07h38.021v-20.277h-38.021v-5.07h38.021zm-41.824 34.22v-12.675h-12.673v12.675zm-8.871-8.872h5.069v5.07h-5.069zm-35.486-29.148v-12.675h-50.695v88.716h12.673v-25.348h38.022v-12.673h-38.022v-38.02zm-46.893-8.874h43.091v5.07h-38.021v45.625h38.021v5.07h-38.021v25.348h-5.07zm59.566 46.894v-38.02h-12.673v38.02zm-8.872-34.22h5.071v30.418h-5.071z"/><path d="m719.166 518.843v-12.673h-38.021v12.673zm-32.951-7.603h27.881v2.535h-27.881zm45.624 58.298v-50.695h-12.673v12.675h-38.021v12.673h38.021v12.673h-38.021v12.674zm-7.604-45.625h2.536v40.555h-40.556v-2.535h38.02v-22.812h-38.02v-2.534h38.02zm-43.09 32.951v-12.673h-12.674v12.673zm-7.605-7.604h2.535v2.536h-2.535zm-49.426-43.09v-25.348h-12.676v76.042h12.676v-38.021h25.347v-12.673zm-7.605-20.278h2.534v25.348h25.349v2.535h-25.349v38.021h-2.534zm32.952 83.646v-12.674h-25.347v12.674zm-20.277-7.605h15.208v2.535h-15.208zm-43.092-68.437v-12.674h-12.673v12.674zm-7.604-7.604h2.535v2.535h-2.535zm7.604 83.646v-63.368h-12.673v63.368zm-7.604-58.298h2.535v53.228h-2.535zm-55.764-5.07v-25.348h-12.673v76.042h12.673v-38.021h25.347v-12.673zm-7.604-20.278h2.534v25.348h25.347v2.535h-25.347v38.021h-2.534zm32.951 83.646v-12.674h-25.347v12.674zm-20.278-7.605h15.208v2.535h-15.208zm-74.774-43.09v-12.673h-12.674v63.368h12.674v-38.02h12.673v-12.675zm38.021 0v-12.673h-25.348v12.673zm-45.626-7.603h2.536v12.673h12.672v2.534h-12.672v38.021h-2.536zm25.348 0h15.208v2.535h-15.208zm-68.438 7.603v-12.673h-38.022v12.673zm-32.952-7.603h27.883v2.535h-27.883zm45.625 58.298v-50.695h-12.673v12.675h-38.022v12.673h38.022v12.673h-38.022v12.674zm-7.604-45.625h2.535v40.555h-40.556v-2.535h38.021v-22.812h-38.021v-2.534h38.021zm-43.091 32.951v-12.673h-12.673v12.673zm-7.603-7.604h2.534v2.536h-2.534zm-36.754-30.417v-12.673h-50.695v88.715h12.673v-25.347h38.022v-12.674h-38.022v-38.021zm-45.625-7.603h40.556v2.535h-38.021v48.158h38.021v2.535h-38.021v25.348h-2.535zm58.298 45.624v-38.021h-12.673v38.021zm-7.604-32.951h2.536v27.883h-2.536z"/><path d="m719.198 381.996v-12.675h-38.024v12.675zm-35.489-10.14h32.954v7.605h-32.954zm30.419 5.07v-2.535h-27.884v2.535zm17.745 55.768v-50.698h-12.675v12.674h-38.024v12.675h38.024v12.674h-38.024v12.675zm-10.14-48.163h7.605v45.628h-45.629v-7.605h38.024v-17.744h-38.024v-7.605h38.024zm5.07 43.093v-40.558h-2.535v12.674h-38.024v2.535h38.024v22.814h-38.024v2.535zm-45.629-7.605v-12.674h-12.674v12.674zm-10.139-10.139h7.604v7.605h-7.604zm5.069 5.07v-2.535h-2.534v2.535zm-51.965-45.629v-25.349h-12.675v76.047h12.675v-38.023h25.349v-12.675zm-10.14-22.814h7.605v25.349h25.349v7.605h-25.349v38.024h-7.605zm5.07 27.884v-25.349h-2.535v65.908h2.535v-38.024h25.349v-2.535zm30.419 58.303v-12.675h-25.349v12.675zm-22.814-10.14h20.279v7.605h-20.279zm17.744 5.07v-2.535h-15.21v2.535zm-58.303-70.977v-12.675h-12.675v12.675zm-10.14-10.14h7.605v7.605h-7.605zm5.07 5.07v-2.535h-2.535v2.535zm5.07 81.117v-63.373h-12.675v63.373zm-10.14-60.838h7.605v58.303h-7.605zm5.07 55.768v-53.233h-2.535v53.233zm-58.303-58.303v-25.349h-12.675v76.047h12.675v-38.023h25.349v-12.675zm-10.14-22.814h7.605v25.349h25.349v7.605h-25.349v38.024h-7.605zm5.07 27.884v-25.349h-2.535v65.908h2.535v-38.024h25.349v-2.535zm30.419 58.303v-12.675h-25.349v12.675zm-22.814-10.14h20.279v7.605h-20.279zm17.744 5.07v-2.535h-15.209v2.535zm-89.989-45.628v-12.675h-12.675v63.373h12.675v-38.024h12.674v-12.674zm38.023 0v-12.675h-25.349v12.675zm-48.163-10.14h7.605v12.675h12.674v7.604h-12.674v38.024h-7.605zm25.349 0h20.28v7.605h-20.28zm-20.279 15.21v-12.675h-2.535v53.233h2.535v-38.024h12.674v-2.534zm38.024-10.14v-2.535h-15.21v2.535zm-83.653 5.07v-12.675h-38.024v12.675zm-35.489-10.14h32.954v7.605h-32.954zm30.419 5.07v-2.535h-27.884v2.535zm17.745 55.768v-50.698h-12.675v12.674h-38.024v12.675h38.024v12.674h-38.024v12.675zm-10.14-48.163h7.605v45.628h-45.629v-7.605h38.024v-17.744h-38.024v-7.605h38.024zm5.07 43.093v-40.558h-2.535v12.674h-38.024v2.535h38.024v22.814h-38.024v2.535zm-45.629-7.605v-12.674h-12.674v12.674zm-10.139-10.139h7.605v7.605h-7.605zm5.07 5.07v-2.535h-2.535v2.535zm-39.292-32.954v-12.675h-50.698v88.722h12.675v-25.349h38.023v-12.675h-38.023v-38.023zm-48.163-10.14h45.628v7.605h-38.023v43.093h38.023v7.605h-38.023v25.349h-7.605zm43.094 5.07v-2.535h-40.559v78.582h2.535v-25.349h38.024v-2.535h-38.024v-48.163zm17.744 43.093v-38.023h-12.675v38.023zm-10.14-35.488h7.605v32.954h-7.605zm5.07 30.419v-27.884h-2.535v27.884z"/><path d="m719.166 104.906v-12.673h-38.021v12.673zm-35.486-10.138h32.95v7.603h-32.95zm48.159 60.834v-50.696h-12.673v12.674h-38.021v12.674h38.021v12.674h-38.021v12.674zm-10.139-48.161h7.604v45.625h-45.624v-7.604h38.02v-17.743h-38.02v-7.604h38.02zm-40.555 35.487v-12.674h-12.674v12.674zm-10.14-10.139h7.605v7.604h-7.605zm-46.892-40.556v-25.348h-12.674v76.043h12.674v-38.022h25.348v-12.673zm-10.138-22.813h7.604v25.348h25.347v7.603h-25.347v38.022h-7.604zm35.486 86.182v-12.674h-25.348v12.674zm-22.813-10.14h20.278v7.604h-20.278zm-40.556-65.903v-12.674h-12.673v12.674zm-10.139-10.139h7.604v7.604h-7.604zm10.139 86.182v-63.369h-12.673v63.369zm-10.139-60.834h7.604v58.298h-7.604zm-53.229-2.535v-25.348h-12.673v76.043h12.673v-38.022h25.347v-12.673zm-10.139-22.813h7.603v25.348h25.348v7.603h-25.348v38.022h-7.603zm35.486 86.182v-12.674h-25.347v12.674zm-22.813-10.14h20.278v7.604h-20.278zm-72.239-40.556v-12.673h-12.675v63.369h12.675v-38.021h12.673v-12.675zm38.02 0v-12.673h-25.347v12.673zm-48.16-10.138h7.605v12.673h12.673v7.605h-12.673v38.02h-7.605zm25.348 0h20.278v7.603h-20.278zm-65.903 10.138v-12.673h-38.022v12.673zm-35.487-10.138h32.951v7.603h-32.951zm48.16 60.834v-50.696h-12.673v12.675h-38.022v12.673h38.022v12.674h-38.022v12.674zm-10.138-48.161h7.604v45.625h-45.626v-7.604h38.022v-17.743h-38.022v-7.604h38.022zm-40.557 35.487v-12.674h-12.673v12.674zm-10.138-10.139h7.604v7.604h-7.604zm-34.219-27.883v-12.673h-50.695v88.715h12.673v-25.346h38.022v-12.674h-38.022v-38.022zm-48.16-10.138h45.625v7.603h-38.02v43.091h38.02v7.604h-38.02v25.348h-7.605zm60.833 48.16v-38.022h-12.673v38.022zm-10.139-35.487h7.604v32.952h-7.604z"/></svg>