<svg viewBox="0 0 1000 660" xmlns="http://www.w3.org/2000/svg"><path d="m0 660h1000v-660h-1000z" fill="#eae3d8"/><path d="m770.632 500.869v-15.673h-47.018v15.673zm15.672 62.691v-62.691h-15.672v15.673h-47.018v15.672h47.018v15.673h-47.018v15.673zm-62.69-15.673v-15.673h-15.673v15.673zm-70.528-62.691v-31.345h-15.673v94.036h15.673v-47.018h31.345v-15.673zm31.345 78.364v-15.673h-31.345v15.673zm-78.363-94.036v-15.673h-15.673v15.673zm0 94.036v-78.364h-15.673v78.364zm-78.363-78.364v-31.345h-15.673v94.036h15.673v-47.018h31.345v-15.673zm31.345 78.364v-15.673h-31.345v15.673zm-117.546-62.691v-15.673h-15.672v78.364h15.672v-47.018h15.673v-15.673zm47.018 0v-15.673h-31.345v15.673zm-109.708 0v-15.673h-47.018v15.673zm15.672 62.691v-62.691h-15.672v15.673h-47.018v15.672h47.018v15.673h-47.018v15.673zm-62.69-15.673v-15.673h-15.673v15.673zm-54.855-47.018v-15.673h-62.691v109.709h15.673v-31.345h47.018v-15.673h-47.018v-47.018zm15.672 47.018v-47.018h-15.672v47.018z"/><path d="m770.632 244.2v-15.673h-47.018v15.673zm-42.317-10.971h37.615v6.269h-37.615zm57.989 73.661v-62.69h-15.672v15.672h-47.018v15.673h47.018v15.673h-47.018v15.672zm-10.971-57.988h6.27v53.287h-53.288v-6.269h47.018v-25.076h-47.018v-6.269h47.018zm-51.719 42.316v-15.673h-15.673v15.673zm-10.972-10.97h6.27v6.268h-6.27zm-59.556-51.721v-31.345h-15.673v94.036h15.673v-47.018h31.345v-15.673zm-10.971-26.644h6.27v31.346h31.345v6.269h-31.345v47.018h-6.27zm42.316 105.007v-15.672h-31.345v15.672zm-26.642-10.97h21.941v6.269h-21.941zm-51.721-83.066v-15.672h-15.673v15.672zm-10.971-10.971h6.27v6.27h-6.27zm10.971 105.007v-78.363h-15.673v78.363zm-10.971-73.661h6.27v68.96h-6.27zm-67.392-4.702v-31.345h-15.673v94.036h15.673v-47.018h31.345v-15.673zm-10.972-26.644h6.27v31.346h31.345v6.269h-31.345v47.018h-6.27zm42.317 105.007v-15.672h-31.345v15.672zm-26.644-10.97h21.942v6.269h-21.942zm-90.902-51.72v-15.673h-15.672v78.363h15.672v-47.018h15.673v-15.672zm47.018 0v-15.673h-31.345v15.673zm-57.989-10.971h6.27v15.673h15.673v6.269h-15.673v47.018h-6.27zm31.347 0h21.941v6.269h-21.941zm-83.066 10.971v-15.673h-47.018v15.673zm-42.317-10.971h37.615v6.269h-37.615zm57.989 73.661v-62.69h-15.672v15.672h-47.018v15.673h47.018v15.673h-47.018v15.672zm-10.971-57.988h6.27v53.287h-53.288v-6.269h47.018v-25.076h-47.018v-6.269h47.018zm-51.719 42.316v-15.673h-15.673v15.673zm-10.972-10.97h6.27v6.268h-6.27zm-43.883-36.048v-15.673h-62.691v109.709h15.673v-31.346h47.018v-15.672h-47.018v-47.018zm-57.989-10.971h53.287v6.269h-47.018v56.422h47.018v6.269h-47.018v31.345h-6.269zm73.661 57.989v-47.018h-15.672v47.018zm-10.97-42.316h6.269v37.614h-6.269z"/><path d="m770.632 372.536v-15.672h-47.018v15.672zm-40.75-9.404h34.481v3.135h-34.481zm56.422 72.095v-62.691h-15.672v15.673h-47.018v15.673h47.018v15.672h-47.018v15.673zm-9.403-56.422h3.135v50.153h-50.154v-3.135h47.019v-28.21h-47.019v-3.135h47.019zm-53.287 40.749v-15.672h-15.673v15.672zm-9.404-9.404h3.134v3.136h-3.134zm-61.124-53.286v-31.346h-15.673v94.036h15.673v-47.018h31.345v-15.672zm-9.403-25.077h3.134v31.345h31.346v3.135h-31.346v47.019h-3.134zm40.748 103.44v-15.673h-31.345v15.673zm-25.075-9.404h18.807v3.135h-18.807zm-53.288-84.632v-15.673h-15.673v15.673zm-9.404-9.404h3.135v3.134h-3.135zm9.404 103.44v-78.363h-15.673v78.363zm-9.404-72.095h3.135v65.826h-3.135zm-68.959-6.268v-31.346h-15.673v94.036h15.673v-47.018h31.345v-15.672zm-9.404-25.077h3.134v31.345h31.346v3.135h-31.346v47.019h-3.134zm40.749 103.44v-15.673h-31.345v15.673zm-25.077-9.404h18.808v3.135h-18.808zm-92.469-53.287v-15.672h-15.672v78.363h15.672v-47.018h15.673v-15.673zm47.018 0v-15.672h-31.345v15.672zm-56.421-9.404h3.135v15.673h15.672v3.135h-15.672v47.018h-3.135zm31.346 0h18.807v3.135h-18.807zm-84.633 9.404v-15.672h-47.018v15.672zm-40.75-9.404h34.481v3.135h-34.481zm56.422 72.095v-62.691h-15.672v15.673h-47.018v15.673h47.018v15.672h-47.018v15.673zm-9.404-56.422h3.136v50.153h-50.154v-3.135h47.018v-28.21h-47.018v-3.135h47.018zm-53.286 40.749v-15.672h-15.673v15.672zm-9.404-9.404h3.134v3.136h-3.134zm-45.451-37.614v-15.672h-62.691v109.708h15.673v-31.345h47.018v-15.673h-47.018v-47.018zm-56.422-9.404h50.153v3.135h-47.018v59.556h47.018v3.135h-47.018v31.346h-3.135zm72.094 56.422v-47.018h-15.672v47.018zm-9.403-40.749h3.135v34.481h-3.135z"/><path d="m770.632 113.923v-15.673h-47.018v15.673zm-43.884-12.538h40.749v9.404h-40.749zm59.556 75.229v-62.691h-15.672v15.673h-47.018v15.672h47.018v15.673h-47.018v15.673zm-12.538-59.557h9.404v56.422h-56.422v-9.403h47.018v-21.942h-47.018v-9.404h47.018zm-50.152 43.884v-15.673h-15.673v15.673zm-12.539-12.538h9.404v9.404h-9.404zm-57.989-50.153v-31.345h-15.673v94.036h15.673v-47.018h31.345v-15.673zm-12.538-28.211h9.404v31.346h31.345v9.404h-31.345v47.018h-9.404zm43.883 106.575v-15.673h-31.345v15.673zm-28.211-12.538h25.077v9.403h-25.077zm-50.152-81.498v-15.673h-15.673v15.673zm-12.538-12.539h9.404v9.404h-9.404zm12.538 106.575v-78.364h-15.673v78.364zm-12.538-75.229h9.404v72.094h-9.404zm-65.825-3.135v-31.345h-15.673v94.036h15.673v-47.018h31.345v-15.673zm-12.539-28.211h9.404v31.346h31.346v9.404h-31.346v47.018h-9.404zm43.884 106.575v-15.673h-31.345v15.673zm-28.211-12.538h25.077v9.403h-25.077zm-89.335-50.153v-15.673h-15.672v78.364h15.672v-47.018h15.673v-15.673zm47.018 0v-15.673h-31.345v15.673zm-59.556-12.538h9.404v15.672h15.673v9.404h-15.673v47.018h-9.404zm31.345 0h25.077v9.404h-25.077zm-81.497 12.538v-15.673h-47.018v15.673zm-43.884-12.538h40.749v9.404h-40.749zm59.556 75.229v-62.691h-15.672v15.673h-47.018v15.672h47.018v15.673h-47.018v15.673zm-12.538-59.557h9.404v56.422h-56.422v-9.403h47.018v-21.942h-47.018v-9.404h47.018zm-50.152 43.884v-15.673h-15.673v15.673zm-12.539-12.538h9.404v9.404h-9.404zm-42.316-34.48v-15.673h-62.691v109.709h15.673v-31.345h47.018v-15.673h-47.018v-47.018zm-59.557-12.538h56.422v9.404h-47.018v53.287h47.018v9.403h-47.018v31.346h-9.404zm75.229 59.556v-47.018h-15.672v47.018zm-12.538-43.884h9.404v40.75h-9.404z"/></svg>