<svg viewBox="0 0 1000 660" xmlns="http://www.w3.org/2000/svg"><path d="m0 660h1000v-660h-1000z" fill="#eae3d8"/><path d="m778.57 105.365v-16.122h-48.365v16.122zm16.121 64.487v-64.487h-16.121v16.122h-48.365v16.121h48.365v16.122h-48.365v16.122zm-64.486-16.122v-16.122h-16.122v16.122zm-72.548-64.487v-32.243h-16.122v96.73h16.122v-48.365h32.243v-16.122zm32.243 80.609v-16.122h-32.243v16.122zm-80.608-96.73v-16.122h-16.122v16.122zm0 96.73v-80.609h-16.122v80.609zm-80.608-80.609v-32.243h-16.122v96.73h16.122v-48.365h32.243v-16.122zm32.243 80.609v-16.122h-32.243v16.122zm-120.913-64.487v-16.122h-16.121v80.609h16.121v-48.365h16.122v-16.122zm48.365 0v-16.122h-32.243v16.122zm-112.851 0v-16.122h-48.365v16.122zm16.121 64.487v-64.487h-16.121v16.122h-48.365v16.121h48.365v16.122h-48.365v16.122zm-64.486-16.122v-16.122h-16.122v16.122zm-56.426-48.365v-16.122h-64.487v112.852h16.122v-32.243h48.365v-16.122h-48.365v-48.365zm16.121 48.365v-48.365h-16.121v48.365z"/><path d="m778.57 240.356v-16.121h-48.365v16.121zm-41.917-9.673h35.468v3.225h-35.468zm58.038 74.16v-64.487h-16.121v16.122h-48.365v16.122h48.365v16.121h-48.365v16.122zm-9.673-58.038h3.225v51.589h-51.59v-3.224h48.365v-29.019h-48.365v-3.224h48.365zm-54.813 41.916v-16.121h-16.122v16.121zm-9.673-9.673h3.224v3.225h-3.224zm-62.875-54.813v-32.244h-16.122v96.73h16.122v-48.365h32.243v-16.121zm-9.673-25.795h3.224v32.243h32.244v3.225h-32.244v48.365h-3.224zm41.916 106.403v-16.122h-32.243v16.122zm-25.794-9.673h19.346v3.224h-19.346zm-54.814-87.057v-16.122h-16.122v16.122zm-9.673-9.673h3.224v3.224h-3.224zm9.673 106.403v-80.608h-16.122v80.608zm-9.673-74.16h3.224v67.711h-3.224zm-70.935-6.448v-32.244h-16.122v96.73h16.122v-48.365h32.243v-16.121zm-9.673-25.795h3.224v32.243h32.243v3.225h-32.243v48.365h-3.224zm41.916 106.403v-16.122h-32.243v16.122zm-25.795-9.673h19.346v3.224h-19.346zm-95.118-54.814v-16.121h-16.121v80.608h16.121v-48.365h16.122v-16.122zm48.365 0v-16.121h-32.243v16.121zm-58.038-9.673h3.225v16.122h16.121v3.224h-16.121v48.365h-3.225zm32.244 0h19.346v3.225h-19.346zm-87.057 9.673v-16.121h-48.365v16.121zm-41.917-9.673h35.468v3.225h-35.468zm58.038 74.16v-64.487h-16.121v16.122h-48.365v16.122h48.365v16.121h-48.365v16.122zm-9.673-58.038h3.225v51.589h-51.59v-3.224h48.365v-29.019h-48.365v-3.224h48.365zm-54.813 41.916v-16.121h-16.122v16.121zm-9.673-9.673h3.224v3.225h-3.224zm-46.753-38.692v-16.121h-64.487v112.851h16.122v-32.243h48.365v-16.122h-48.365v-48.365zm-58.038-9.673h51.589v3.225h-48.365v61.262h48.365v3.224h-48.365v32.244h-3.224zm74.159 58.038v-48.365h-16.121v48.365zm-9.673-41.916h3.225v35.468h-3.225z"/><path d="m778.57 374.279v-16.122h-48.365v16.122zm-43.529-11.286h38.692v6.449h-38.692zm59.65 75.772v-64.486h-16.121v16.121h-48.365v16.122h48.365v16.122h-48.365v16.121zm-11.285-59.65h6.449v54.814h-54.814v-6.449h48.365v-25.794h-48.365v-6.449h48.365zm-53.201 43.529v-16.122h-16.122v16.122zm-11.286-11.285h6.449v6.448h-6.449zm-61.262-53.202v-32.243h-16.122v96.73h16.122v-48.365h32.243v-16.122zm-11.285-27.407h6.449v32.243h32.243v6.449h-32.243v48.365h-6.449zm43.528 108.015v-16.121h-32.243v16.121zm-27.406-11.285h22.57v6.449h-22.57zm-53.202-85.445v-16.121h-16.122v16.121zm-11.285-11.285h6.449v6.449h-6.449zm11.285 108.015v-80.608h-16.122v80.608zm-11.285-75.772h6.449v70.936h-6.449zm-69.323-4.836v-32.243h-16.122v96.73h16.122v-48.365h32.243v-16.122zm-11.286-27.407h6.449v32.243h32.243v6.449h-32.243v48.365h-6.449zm43.529 108.015v-16.121h-32.243v16.121zm-27.407-11.285h22.57v6.449h-22.57zm-93.506-53.201v-16.122h-16.121v80.608h16.121v-48.365h16.122v-16.121zm48.365 0v-16.122h-32.243v16.122zm-59.65-11.286h6.449v16.122h16.122v6.449h-16.122v48.365h-6.449zm32.244 0h22.57v6.449h-22.57zm-85.445 11.286v-16.122h-48.365v16.122zm-43.529-11.286h38.692v6.449h-38.692zm59.65 75.772v-64.486h-16.121v16.121h-48.365v16.122h48.365v16.122h-48.365v16.121zm-11.285-59.65h6.449v54.814h-54.814v-6.449h48.365v-25.794h-48.365v-6.449h48.365zm-53.201 43.529v-16.122h-16.122v16.122zm-11.286-11.285h6.449v6.448h-6.449zm-45.14-37.08v-16.122h-64.487v112.852h16.122v-32.244h48.365v-16.121h-48.365v-48.365zm-59.65-11.286h54.813v6.449h-48.365v58.038h48.365v6.449h-48.365v32.243h-6.448zm75.771 59.651v-48.365h-16.121v48.365zm-11.285-43.529h6.449v38.692h-6.449z"/><path d="m778.57 507.27v-16.122h-48.365v16.122zm-45.141-12.897h41.916v9.673h-41.916zm61.262 77.384v-64.487h-16.121v16.122h-48.365v16.121h48.365v16.122h-48.365v16.122zm-12.897-61.263h9.673v58.038h-58.038v-9.673h48.365v-22.57h-48.365v-9.673h48.365zm-51.589 45.141v-16.122h-16.122v16.122zm-12.898-12.897h9.673v9.673h-9.673zm-59.65-51.59v-32.243h-16.122v96.73h16.122v-48.365h32.243v-16.122zm-12.897-29.019h9.673v32.244h32.243v9.673h-32.243v48.365h-9.673zm45.14 109.628v-16.122h-32.243v16.122zm-29.019-12.898h25.795v9.673h-25.795zm-51.589-83.832v-16.122h-16.122v16.122zm-12.897-12.898h9.673v9.673h-9.673zm12.897 109.628v-80.609h-16.122v80.609zm-12.897-77.384h9.673v74.159h-9.673zm-67.711-3.225v-32.243h-16.122v96.73h16.122v-48.365h32.243v-16.122zm-12.898-29.019h9.673v32.244h32.244v9.673h-32.244v48.365h-9.673zm45.141 109.628v-16.122h-32.243v16.122zm-29.019-12.898h25.795v9.673h-25.795zm-91.894-51.589v-16.122h-16.121v80.609h16.121v-48.365h16.122v-16.122zm48.365 0v-16.122h-32.243v16.122zm-61.262-12.897h9.673v16.121h16.122v9.673h-16.122v48.365h-9.673zm32.243 0h25.795v9.673h-25.795zm-83.832 12.897v-16.122h-48.365v16.122zm-45.141-12.897h41.916v9.673h-41.916zm61.262 77.384v-64.487h-16.121v16.122h-48.365v16.121h48.365v16.122h-48.365v16.122zm-12.897-61.263h9.673v58.038h-58.038v-9.673h48.365v-22.57h-48.365v-9.673h48.365zm-51.589 45.141v-16.122h-16.122v16.122zm-12.898-12.897h9.673v9.673h-9.673zm-43.528-35.468v-16.122h-64.487v112.852h16.122v-32.243h48.365v-16.122h-48.365v-48.365zm-61.263-12.897h58.038v9.673h-48.365v54.813h48.365v9.673h-48.365v32.244h-9.673zm77.384 61.262v-48.365h-16.121v48.365zm-12.897-45.141h9.673v41.917h-9.673z"/></svg>