<svg viewBox="0 0 1000 660" xmlns="http://www.w3.org/2000/svg"><path d="m0 660h1000v-660h-1000z" fill="#eae3d8"/><path d="m701.417 526.303v-11.667h-35v11.667zm11.667 46.667v-46.667h-11.667v11.667h-35v11.666h35v11.667h-35v11.667zm-46.667-11.667v-11.667h-11.667v11.667zm-52.5-46.667v-23.333h-11.667v70h11.667v-35h23.333v-11.667zm23.333 58.334v-11.667h-23.333v11.667zm-58.333-70v-11.667h-11.667v11.667zm0 70v-58.334h-11.667v58.334zm-58.333-58.334v-23.333h-11.667v70h11.667v-35h23.333v-11.667zm23.333 58.334v-11.667h-23.333v11.667zm-87.5-46.667v-11.667h-11.667v58.334h11.667v-35h11.666v-11.667zm35 0v-11.667h-23.334v11.667zm-81.667 0v-11.667h-35v11.667zm11.667 46.667v-46.667h-11.667v11.667h-35v11.666h35v11.667h-35v11.667zm-46.667-11.667v-11.667h-11.667v11.667zm-40.833-35v-11.667h-46.667v81.667h11.667v-23.333h35v-11.667h-35v-35zm11.666 35v-35h-11.666v35z"/><path d="m701.417 241.945v-11.667h-35v11.667zm-31.5-8.167h28v4.667h-28zm43.167 54.833v-46.666h-11.667v11.666h-35v11.667h35v11.667h-35v11.666zm-8.167-43.166h4.667v39.667h-39.667v-4.667h35v-18.666h-35v-4.667h35zm-38.5 31.5v-11.667h-11.667v11.667zm-8.167-8.166h4.667v4.666h-4.667zm-44.333-38.501v-23.333h-11.667v70h11.667v-35h23.333v-11.667zm-8.167-19.833h4.667v23.333h23.333v4.667h-23.333v35h-4.667zm31.5 78.166v-11.666h-23.333v11.666zm-19.833-8.166h16.333v4.667h-16.333zm-38.5-61.834v-11.666h-11.667v11.666zm-8.167-8.166h4.667v4.667h-4.667zm8.167 78.166v-58.333h-11.667v58.333zm-8.167-54.833h4.667v51.334h-4.667zm-50.166-3.5v-23.333h-11.667v70h11.667v-35h23.333v-11.667zm-8.167-19.833h4.666v23.333h23.334v4.667h-23.334v35h-4.666zm31.5 78.166v-11.666h-23.333v11.666zm-19.834-8.166h16.334v4.667h-16.334zm-67.666-38.5v-11.667h-11.667v58.333h11.667v-35h11.666v-11.666zm35 0v-11.667h-23.334v11.667zm-43.167-8.167h4.667v11.667h11.667v4.667h-11.667v35h-4.667zm23.334 0h16.333v4.667h-16.333zm-61.834 8.167v-11.667h-35v11.667zm-31.5-8.167h28v4.667h-28zm43.167 54.833v-46.666h-11.667v11.666h-35v11.667h35v11.667h-35v11.666zm-8.167-43.166h4.667v39.667h-39.667v-4.667h35v-18.666h-35v-4.667h35zm-38.5 31.5v-11.667h-11.667v11.667zm-8.167-8.166h4.667v4.666h-4.667zm-32.666-26.834v-11.667h-46.667v81.667h11.667v-23.334h35v-11.666h-35v-35zm-43.167-8.167h39.667v4.667h-35v42h35v4.667h-35v23.333h-4.667zm54.833 43.167v-35h-11.666v35zm-8.166-31.5h4.666v28h-4.666z"/><path d="m701.417 384.1v-11.667h-35v11.667zm-30.333-7.001h25.667v2.334h-25.667zm42 53.667v-46.666h-11.667v11.666h-35v11.667h35v11.666h-35v11.667zm-7-42h2.333v37.334h-37.333v-2.334h35v-21h-35v-2.333h35zm-39.667 30.333v-11.666h-11.667v11.666zm-7-6.999h2.333v2.333h-2.333zm-45.5-39.667v-23.333h-11.667v69.999h11.667v-34.999h23.333v-11.667zm-7-18.667h2.333v23.333h23.334v2.334h-23.334v35h-2.333zm30.333 77v-11.667h-23.333v11.667zm-18.666-7h14v2.334h-14zm-39.667-63v-11.666h-11.667v11.666zm-7-7h2.333v2.334h-2.333zm7 77v-58.333h-11.667v58.333zm-7-53.667h2.333v49.001h-2.333zm-51.333-4.666v-23.333h-11.667v69.999h11.667v-34.999h23.333v-11.667zm-7-18.667h2.333v23.333h23.333v2.334h-23.333v35h-2.333zm30.333 77v-11.667h-23.333v11.667zm-18.667-7h14v2.334h-14zm-68.833-39.666v-11.667h-11.667v58.333h11.667v-35h11.667v-11.666zm35 0v-11.667h-23.333v11.667zm-42-7.001h2.333v11.667h11.667v2.333h-11.667v35.001h-2.333zm23.333 0h14v2.334h-14zm-63 7.001v-11.667h-35v11.667zm-30.333-7.001h25.667v2.334h-25.667zm42 53.667v-46.666h-11.667v11.666h-35v11.667h35v11.666h-35v11.667zm-7-42h2.333v37.334h-37.333v-2.334h35v-21h-35v-2.333h35zm-39.667 30.333v-11.666h-11.667v11.666zm-7-6.999h2.334v2.333h-2.334zm-33.833-28v-11.667h-46.667v81.667h11.667v-23.334h35v-11.667h-35v-34.999zm-42-7.001h37.333v2.334h-35v44.333h35v2.334h-35v23.333h-2.333zm53.666 42v-34.999h-11.666v34.999zm-7-30.333h2.334v25.667h-2.334z"/><path d="m701.417 98.885v-11.666h-35v11.666zm-32.667-9.333h30.333v7h-30.333zm44.333 56v-46.667h-11.666v11.667h-35v11.667h35v11.666h-35v11.667zm-9.333-44.333h7v42h-42v-7h35v-16.334h-35v-7h35zm-37.333 32.666v-11.666h-11.667v11.666zm-9.334-9.333h7v7h-7zm-43.166-37.333v-23.334h-11.667v70h11.667v-35h23.333v-11.666zm-9.333-21h7v23.333h23.333v7h-23.333v35h-7zm32.666 79.333v-11.667h-23.333v11.667zm-21-9.333h18.667v7h-18.667zm-37.333-60.667v-11.667h-11.667v11.667zm-9.333-9.333h7v7h-7zm9.333 79.333v-58.333h-11.667v58.333zm-9.333-56h7v53.667h-7zm-49-2.333v-23.334h-11.667v70h11.667v-35h23.333v-11.666zm-9.334-21h7v23.333h23.334v7h-23.334v35h-7zm32.667 79.333v-11.667h-23.333v11.667zm-21-9.333h18.667v7h-18.667zm-66.501-37.334v-11.666h-11.666v58.333h11.666v-35h11.667v-11.667zm35 0v-11.666h-23.333v11.666zm-44.333-9.333h7v11.667h11.667v7h-11.667v35h-7zm23.333 0h18.667v7h-18.667zm-60.666 9.333v-11.666h-35v11.666zm-32.667-9.333h30.334v7h-30.334zm44.334 56v-46.667h-11.667v11.667h-35v11.667h35v11.666h-35v11.667zm-9.334-44.333h7v42h-42v-7h35v-16.334h-35v-7h35zm-37.333 32.666v-11.666h-11.667v11.666zm-9.333-9.333h7v7h-7zm-31.5-25.667v-11.666h-46.667v81.666h11.667v-23.333h35v-11.667h-35v-35zm-44.334-9.333h42v7h-35v39.667h35v7h-35v23.333h-7zm56 44.333v-35h-11.666v35zm-9.333-32.666h7v30.333h-7z"/></svg>