<svg viewBox="0 0 1000 660" xmlns="http://www.w3.org/2000/svg"><path d="m0 660h1000v-660h-1000z" fill="#eae3d8"/><path d="m718.592 519.109v-12.629h-37.888v12.629zm12.629 50.518v-50.518h-12.629v12.63h-37.888v12.629h37.888v12.63h-37.888v12.629zm-50.517-12.629v-12.63h-12.629v12.63zm-56.833-50.518v-25.258h-12.629v75.776h12.629v-37.889h25.259v-12.629zm25.259 63.147v-12.629h-25.259v12.629zm-63.146-75.776v-12.629h-12.63v12.629zm0 75.776v-63.147h-12.63v63.147zm-63.146-63.147v-25.258h-12.63v75.776h12.63v-37.889h25.258v-12.629zm25.258 63.147v-12.629h-25.258v12.629zm-94.721-50.518v-12.629h-12.628v63.147h12.628v-37.888h12.63v-12.63zm37.889 0v-12.629h-25.259v12.629zm-88.405 0v-12.629h-37.889v12.629zm12.628 50.518v-50.518h-12.628v12.63h-37.889v12.629h37.889v12.63h-37.889v12.629zm-50.517-12.629v-12.63h-12.629v12.63zm-44.202-37.889v-12.629h-50.518v88.405h12.629v-25.258h37.889v-12.629h-37.889v-37.889zm12.628 37.889v-37.889h-12.628v37.889z"/><path d="m718.588 243.455v-12.63h-37.888v12.63zm-34.099-8.842h30.31v5.052h-30.31zm46.727 59.358v-50.516h-12.628v12.628h-37.888v12.629h37.888v12.63h-37.888v12.629zm-8.839-46.729h5.052v42.94h-42.94v-5.052h37.888v-20.206h-37.888v-5.052h37.888zm-41.677 34.1v-12.63h-12.629v12.63zm-8.841-8.841h5.052v5.052h-5.052zm-47.991-41.676v-25.259h-12.629v75.776h12.629v-37.887h25.259v-12.63zm-8.84-21.47h5.052v25.258h25.258v5.052h-25.258v37.888h-5.052zm34.099 84.616v-12.629h-25.259v12.629zm-21.469-8.841h17.68v5.052h-17.68zm-41.677-66.935v-12.629h-12.629v12.629zm-8.841-8.84h5.052v5.052h-5.052zm8.841 84.616v-63.146h-12.629v63.146zm-8.841-59.358h5.052v55.569h-5.052zm-54.305-3.788v-25.259h-12.629v75.776h12.629v-37.887h25.258v-12.63zm-8.841-21.47h5.051v25.258h25.259v5.052h-25.259v37.888h-5.051zm34.099 84.616v-12.629h-25.258v12.629zm-21.47-8.841h17.681v5.052h-17.681zm-73.249-41.675v-12.63h-12.629v63.146h12.629v-37.888h12.629v-12.628zm37.888 0v-12.63h-25.259v12.63zm-46.729-8.842h5.052v12.629h12.629v5.052h-12.629v37.888h-5.052zm25.259 0h17.681v5.052h-17.681zm-66.935 8.842v-12.63h-37.888v12.63zm-34.099-8.842h30.31v5.052h-30.31zm46.728 59.358v-50.516h-12.629v12.628h-37.888v12.629h37.888v12.63h-37.888v12.629zm-8.84-46.729h5.052v42.94h-42.94v-5.052h37.888v-20.206h-37.888v-5.052h37.888zm-41.677 34.1v-12.63h-12.629v12.63zm-8.84-8.841h5.051v5.052h-5.051zm-35.362-29.046v-12.63h-50.517v88.405h12.629v-25.259h37.888v-12.629h-37.888v-37.887zm-46.728-8.842h42.939v5.052h-37.887v45.465h37.887v5.052h-37.887v25.259h-5.052zm59.357 46.729v-37.887h-12.629v37.887zm-8.841-34.1h5.053v30.311h-5.053z"/><path d="m718.588 381.258v-12.629h-37.888v12.629zm-32.836-7.577h27.784v2.526h-27.784zm45.464 58.094v-50.517h-12.628v12.63h-37.888v12.629h37.888v12.628h-37.888v12.63zm-7.577-45.465h2.527v40.413h-40.414v-2.526h37.887v-22.732h-37.887v-2.526h37.887zm-42.939 32.835v-12.628h-12.629v12.628zm-7.578-7.577h2.526v2.527h-2.526zm-49.253-42.939v-25.259h-12.631v75.775h12.631v-37.887h25.258v-12.629zm-7.578-20.207h2.525v25.259h25.26v2.526h-25.26v37.888h-2.525zm32.836 83.353v-12.63h-25.258v12.63zm-20.206-7.578h15.155v2.526h-15.155zm-42.94-68.197v-12.63h-12.629v12.63zm-7.578-7.578h2.526v2.526h-2.526zm7.578 83.353v-63.146h-12.629v63.146zm-7.578-58.094h2.526v53.042h-2.526zm-55.568-5.052v-25.259h-12.629v75.775h12.629v-37.887h25.258v-12.629zm-7.577-20.207h2.525v25.259h25.258v2.526h-25.258v37.888h-2.525zm32.835 83.353v-12.63h-25.258v12.63zm-20.207-7.578h15.155v2.526h-15.155zm-74.512-42.939v-12.629h-12.629v63.146h12.629v-37.887h12.629v-12.63zm37.888 0v-12.629h-25.259v12.629zm-45.466-7.577h2.527v12.629h12.628v2.525h-12.628v37.888h-2.527zm25.259 0h15.155v2.526h-15.155zm-68.198 7.577v-12.629h-37.888v12.629zm-32.836-7.577h27.785v2.526h-27.785zm45.465 58.094v-50.517h-12.629v12.63h-37.888v12.629h37.888v12.628h-37.888v12.63zm-7.578-45.465h2.527v40.413h-40.414v-2.526h37.887v-22.732h-37.887v-2.526h37.887zm-42.939 32.835v-12.628h-12.629v12.628zm-7.577-7.577h2.525v2.527h-2.525zm-36.625-30.31v-12.629h-50.517v88.404h12.629v-25.258h37.888v-12.63h-37.888v-37.887zm-45.465-7.577h40.414v2.526h-37.888v47.99h37.888v2.526h-37.888v25.259h-2.526zm58.094 45.464v-37.887h-12.629v37.887zm-7.578-32.835h2.527v27.785h-2.527z"/><path d="m718.588 104.773v-12.629h-37.888v12.629zm-35.362-10.103h32.835v7.577h-32.835zm47.99 60.621v-50.518h-12.628v12.629h-37.888v12.63h37.888v12.629h-37.888v12.63zm-10.103-47.992h7.577v45.465h-45.464v-7.578h37.887v-17.68h-37.887v-7.578h37.887zm-40.413 35.362v-12.629h-12.629v12.629zm-10.104-10.103h7.578v7.577h-7.578zm-46.728-40.414v-25.259h-12.629v75.776h12.629v-37.888h25.259v-12.629zm-10.102-22.733h7.577v25.259h25.258v7.577h-25.258v37.888h-7.577zm35.361 85.88v-12.63h-25.259v12.63zm-22.733-10.105h20.207v7.578h-20.207zm-40.413-65.671v-12.63h-12.629v12.63zm-10.104-10.104h7.578v7.577h-7.578zm10.104 85.88v-63.147h-12.629v63.147zm-10.104-60.621h7.578v58.094h-7.578zm-53.042-2.526v-25.259h-12.629v75.776h12.629v-37.888h25.258v-12.629zm-10.104-22.733h7.577v25.259h25.259v7.577h-25.259v37.888h-7.577zm35.362 85.88v-12.63h-25.258v12.63zm-22.733-10.105h20.207v7.578h-20.207zm-71.986-40.413v-12.629h-12.63v63.147h12.63v-37.888h12.629v-12.63zm37.887 0v-12.629h-25.258v12.629zm-47.991-10.103h7.578v12.629h12.629v7.578h-12.629v37.887h-7.578zm25.259 0h20.207v7.577h-20.207zm-65.672 10.103v-12.629h-37.888v12.629zm-35.362-10.103h32.835v7.577h-32.835zm47.991 60.621v-50.518h-12.629v12.63h-37.888v12.629h37.888v12.629h-37.888v12.63zm-10.103-47.992h7.578v45.465h-45.466v-7.578h37.888v-17.68h-37.888v-7.578h37.888zm-40.414 35.362v-12.629h-12.629v12.629zm-10.103-10.103h7.577v7.577h-7.577zm-34.099-27.785v-12.629h-50.517v88.404h12.629v-25.257h37.888v-12.63h-37.888v-37.888zm-47.991-10.103h45.465v7.577h-37.887v42.939h37.887v7.578h-37.887v25.259h-7.578zm60.62 47.991v-37.888h-12.629v37.888zm-10.104-35.362h7.578v32.836h-7.578z"/></svg>