<svg viewBox="0 0 1000 660" xmlns="http://www.w3.org/2000/svg"><path d="M0 660h1000V0H0z"/><path d="M88.289 286.29v26.579h39.868v13.158H88.289v39.868H75v-92.894h53.157v13.289zm39.868 26.579V286.29h13.29v26.579zm26.448 39.737v-13.29h13.289v13.29zm13.289-39.737v-13.29h39.869v13.29zm0 53.158v-13.421h39.869v-13.29h-39.869v-13.289h39.869v-13.158h13.289v53.158zm106.316-53.158v13.158h-13.289v39.868h-13.29v-66.316h13.29v13.29zm0 0v-13.29h26.579v13.29zm86.316-13.29v13.29h-26.579v39.868h-13.289v-79.736h13.289v26.578zm-26.579 66.448v-13.421h26.579v13.289h-26.579zm53.158-79.737v-13.289h13.289v13.289zm0 79.737v-66.448h13.289v66.448zm79.737-66.448v13.29h-26.579v39.868h-13.289v-79.736h13.289v26.578zm-26.579 66.448v-13.421h26.579v13.289h-26.579zm46.447-13.421v-13.29H500v13.29zM500 312.869v-13.29h39.868v13.29zm0 53.158v-13.421h39.868v-13.29H500v-13.289h39.868v-13.158h13.29v53.158zm79.737-13.421v-13.29h13.289v13.29zm5.263-5.264h2.631v-2.631H585zm8.026-34.473v-13.29h39.869v13.29zm0 53.158v-13.421h39.869v-13.29h-39.869v-13.289h39.869v-13.158h13.157v53.158zm5.263-58.421H627.5v-2.632h-29.211zm39.869 23.816h-39.869v2.631h39.869V358h-39.869v2.632h42.5v-42.5h-2.631zm34.473 21.184v-13.29h13.29v13.29zm2.632-2.632h8.026v-8.026h-8.026zm2.631-2.632v-2.631h2.632v2.631zm8.027-34.473v-13.29h39.868v13.29zm0 53.158v-13.421h39.868v-13.29h-39.868v-13.289h39.868v-13.158h13.29v53.158zm2.631-55.79h34.474v-8.026h-34.474zm39.869 18.553h-39.869v8.026h39.869v18.553h-39.869v8.026h47.764V315.5h-8.027v13.29zm-37.237-21.316v-2.632h29.21v2.632h-29.078zm0 53.158V358h39.869v-23.947h-39.737v-2.631h39.868v-13.29h2.632v42.5h-42.5zm74.474-8.026v-13.29h13.289v13.29zm3.947-3.948h5.263v-5.263h-5.263zm9.342-35.789v-13.29h39.869v13.29zm0 53.158v-13.421h39.869v-13.29h-39.869v-13.289h39.869v-13.158h13.289v53.158zm3.947-57.106h31.843v-5.263h-31.843zm39.869 21.316h-39.869v5.263h39.869v21.316h-39.869v5.263h45.132v-45.263h-5.263v13.29zm35.789 22.369v-13.29h13.29v13.29zm2.632-2.632h8.026v-8.026h-8.026zm10.658-37.237v-13.158h39.868v13.29h-39.868zm0 53.158v-13.289h39.868v-13.29h-39.868v-13.289h39.868v-13.158H925v53.158h-53.158zm2.632-55.789h34.473v-8.027h-34.473zm39.868 18.552h-39.868v8.026h39.868v18.553h-39.868v8.027h47.894V315.5h-8.026v13.29z" fill="#6cd852"/></svg>