<svg viewBox="0 0 1000 660" xmlns="http://www.w3.org/2000/svg"><path d="m0 660h1000v-660h-1000z" fill="#eae3d8"/><path d="m348.332 67c4.245 0 7.686 3.441 7.686 7.685 0 4.245-3.441 7.686-7.686 7.686h-109.394c-6.485 0-8.406.961-9.006 1.681-.601.72-1.681 2.402-1.681 9.006v27.379c0 6.364 1.08 8.405 1.681 9.006.6.6 2.402 1.441 9.006 1.441h91.022c6.964 0 14.53.84 19.814 6.124 5.283 5.284 6.123 13.089 6.123 19.814v27.378c0 6.965-.6 14.53-6.123 19.814-5.525 5.283-12.85 6.124-19.814 6.124h-109.155c-2.776.046-5.361-1.408-6.762-3.805-1.402-2.397-1.402-5.364 0-7.761 1.401-2.397 3.986-3.851 6.762-3.805h109.155c6.485 0 8.406-.96 9.006-1.681.601-.72 1.681-2.401 1.681-9.006v-27.498c0-6.365-1.08-8.407-1.681-9.007-.6-.601-2.402-1.681-9.006-1.681h-91.022c-6.965 0-14.531-.6-19.814-5.884-5.284-5.283-6.123-13.089-6.123-19.813v-27.259c0-6.965.839-14.53 6.123-19.813 5.283-5.284 12.849-6.125 19.814-6.125zm176.161 131.85c1.857 3.781.298 8.35-3.483 10.207-3.78 1.857-8.349.298-10.206-3.482l-6.966-13.93h-100.027l-6.966 13.93c-1.857 3.78-6.426 5.338-10.207 3.481-3.78-1.857-5.338-6.426-3.481-10.207l63.642-127.526c3.003-5.764 11.048-5.764 13.69 0zm-28.34-22.455-42.269-84.658-42.268 84.658zm-25.337 82.737c4.245 0 7.686 3.441 7.686 7.684 0 4.244-3.441 7.685-7.686 7.685h-109.995c-5.884 0-7.805.961-8.405 1.681-.601.721-1.682 2.403-1.682 9.007v91.022c0 6.484 1.081 8.406 1.682 9.007.6.599 2.401 1.681 9.006 1.681h91.021c6.484 0 8.407-.961 9.007-1.681.599-.721 1.681-2.402 1.681-9.007v-38.066h-56.198c-2.017.034-3.961-.752-5.387-2.178s-2.212-3.37-2.179-5.387c-.065-2.048.704-4.034 2.13-5.505 1.425-1.472 3.387-2.302 5.436-2.301h63.883c4.245.069 7.63 3.562 7.565 7.806v45.511c0 6.965-.6 14.531-6.124 19.814s-12.849 6.123-19.814 6.123h-91.021c-6.966 0-14.531-.84-19.814-6.123-5.284-5.283-6.125-12.849-6.125-19.814v-91.022c0-6.964.841-14.53 6.125-19.814 5.283-5.284 12.848-6.124 19.814-6.124zm-109.394 5.763c-6.966 0-12.249.841-15.732 4.323-3.482 3.483-4.442 5.524-4.442 15.971v91.022c0 5.524.6 11.888 4.442 15.731 3.844 3.842 5.765 4.443 15.732 4.443h91.021c6.725 0 11.888-.601 15.971-4.443 4.083-3.843 4.323-9.847 4.323-15.731v-45.631c.008-1.04-.769-1.919-1.801-2.041h-64.003c-.51.03-.987.264-1.325.647-.337.383-.509.884-.477 1.394-.036.488.142.968.489 1.313.345.347.825.525 1.313.489h61.842v43.709c0 6.725-1.081 10.568-3.243 13.09-2.161 2.521-6.364 3.241-13.089 3.241h-91.021c-6.726 0-10.568-.96-13.09-3.241-2.521-2.282-3.242-6.365-3.242-13.09v-91.022c0-6.724 1.081-10.568 3.242-13.089 2.162-2.522 6.124-3.242 12.489-3.242h109.995c1.033-.122 1.808-1.001 1.801-2.041-.001-.995-.806-1.8-1.801-1.802zm266.581-5.763c6.966 0 14.53.6 19.814 6.123 5.284 5.525 6.124 12.85 6.124 19.814v91.022c0 6.965-.6 14.531-6.124 19.814s-12.848 6.123-19.814 6.123h-91.021c-6.966 0-14.53-.84-19.814-6.123s-6.124-12.849-6.124-19.814v-91.022c0-6.964.84-14.53 6.124-19.814s12.848-6.123 19.814-6.123zm-91.021 5.763c-6.726 0-12.009.841-15.732 4.444-3.722 3.602-4.442 5.763-4.442 15.73v91.022c0 5.525.599 11.888 4.442 15.731 3.844 3.843 5.884 4.443 15.732 4.443h91.021c5.764 0 11.888-.6 15.971-4.443 4.084-3.843 4.324-10.206 4.324-15.731v-91.022c0-6.964-.601-12.249-4.324-15.73-3.722-3.483-9.606-4.444-15.971-4.444zm91.021 3.843c6.966 0 10.808.96 13.089 3.242 2.282 2.281 3.243 6.365 3.243 13.089v91.022c0 6.725-.841 10.568-3.243 13.09-2.401 2.521-6.123 3.241-13.089 3.241h-91.021c-6.726 0-10.568-.96-12.849-3.241-2.282-2.282-3.483-6.365-3.483-13.09v-91.022c0-6.724.961-10.568 3.483-13.089 2.521-2.522 6.123-3.242 12.849-3.242zm-91.021 5.763c-6.486 0-8.407.961-9.007 1.681-.6.721-1.681 2.403-1.681 9.007v91.022c0 6.484.961 8.406 1.681 9.007.721.599 2.402 1.681 9.007 1.681h91.021c6.484 0 8.407-.961 9.007-1.681.6-.721 1.681-2.402 1.681-9.007v-91.142c0-6.484-1.081-8.406-1.681-9.006-.6-.601-2.402-1.681-9.007-1.681h-91.021zm82.015 184.326v127.527c.067 2.048-.701 4.036-2.128 5.506-1.426 1.473-3.387 2.302-5.436 2.3-2.071 0-4.056-.822-5.52-2.286s-2.286-3.449-2.286-5.52v-108.913l-59.681 59.8c-1.385 1.438-3.288 2.26-5.283 2.282-2.069-.011-4.052-.829-5.525-2.282l-59.8-59.8v108.913c.372 2.953-.994 5.855-3.508 7.45-2.513 1.595-5.721 1.595-8.234 0-2.514-1.595-3.88-4.497-3.508-7.45v-127.527c.071-3.067 1.96-5.799 4.806-6.947 2.845-1.149 6.102-.495 8.282 1.664l67.607 67.606 67.365-67.606c2.198-1.999 5.35-2.554 8.096-1.424 2.748 1.13 4.598 3.741 4.753 6.707zm-10.447-2.641-70.008 70.007-70.247-70.007c-1.058-1.271-2.865-1.623-4.323-.84-1.405.6-2.34 1.955-2.402 3.481v127.527c-.003 1.417.753 2.728 1.979 3.437 1.227.708 2.739.708 3.966 0 1.227-.709 1.982-2.02 1.98-3.437v-117.679l66.165 65.924c.738.803 1.792 1.242 2.882 1.201 1.01-.012 1.969-.448 2.642-1.201l66.165-65.924v117.679c0 2.255 1.829 4.084 4.084 4.084 2.188-.068 3.908-1.895 3.842-4.084v-127.527c-.114-1.507-1.077-2.818-2.479-3.379-1.404-.561-3.004-.274-4.126.738zm179.042 126.927c1.202 2.446 1.009 5.347-.509 7.61-1.516 2.265-4.127 3.547-6.845 3.365-2.719-.184-5.134-1.804-6.334-4.251l-6.966-13.93h-99.908l-6.965 13.93c-1.171 2.495-3.599 4.164-6.349 4.365-2.749.2-5.393-1.098-6.914-3.396-1.522-2.3-1.684-5.241-.425-7.693l63.643-127.527c3.002-5.765 11.048-5.765 13.689 0zm-74.21-125.967-63.764 127.648c-1.08 2.282-.36 4.443 1.802 5.283 1.96.886 4.272.098 5.283-1.801l7.925-15.971h104.471l7.927 15.971c1.011 1.899 3.322 2.687 5.283 1.801 2.282-.84 2.642-3.001 1.802-5.283l-63.644-127.648c-.588-1.398-1.966-2.302-3.483-2.281-1.519.074-2.886.94-3.602 2.282zm-44.55 107.234 48.152-96.546 48.153 96.546zm90.421-3.723-42.269-84.657-42.268 84.657z"/></svg>