<svg viewBox="0 0 1000 660" xmlns="http://www.w3.org/2000/svg"><path d="M0 660h1000V0H0z"/><path d="M356.874 82a7.205 7.205 0 010 14.41H254.316c-6.079 0-7.88.901-8.443 1.576-.563.675-1.576 2.252-1.576 8.443v25.668c0 5.967 1.013 7.88 1.576 8.443.563.563 2.252 1.351 8.443 1.351h85.334c6.529 0 13.622.788 18.575 5.742 4.953 4.953 5.741 12.271 5.741 18.575v25.667c0 6.53-.563 13.622-5.741 18.576-5.179 4.953-12.046 5.741-18.575 5.741H237.317a7.206 7.206 0 110-14.41H339.65c6.079 0 7.88-.9 8.443-1.576.563-.675 1.576-2.251 1.576-8.443v-25.78c0-5.967-1.013-7.881-1.576-8.444-.563-.563-2.252-1.576-8.443-1.576h-85.334c-6.529 0-13.622-.562-18.575-5.516-4.954-4.953-5.741-12.271-5.741-18.575v-25.555c0-6.53.787-13.622 5.741-18.575C240.694 82.788 247.787 82 254.316 82zm165.151 123.61a7.149 7.149 0 01-12.834 6.304l-6.53-13.059h-93.776l-6.53 13.059a7.149 7.149 0 01-12.833-6.305l59.665-119.556c2.815-5.404 10.357-5.404 12.834 0zm-26.569-21.052l-39.627-79.367-39.627 79.367zm-23.753 77.566a7.204 7.204 0 110 14.409H368.582c-5.516 0-7.317.901-7.88 1.576-.563.676-1.577 2.252-1.577 8.444v85.333c0 6.079 1.014 7.881 1.577 8.444.563.562 2.251 1.576 8.443 1.576h85.333c6.079 0 7.881-.901 8.444-1.576.562-.676 1.576-2.252 1.576-8.444v-35.687h-52.686a6.977 6.977 0 01-7.093-7.092 7.094 7.094 0 017.093-7.318h59.891a7.208 7.208 0 017.092 7.318v42.667c0 6.529-.563 13.622-5.741 18.575-5.179 4.953-12.046 5.741-18.576 5.741h-85.333c-6.53 0-13.622-.788-18.575-5.741-4.954-4.953-5.742-12.046-5.742-18.575V286.44c0-6.529.788-13.622 5.742-18.575 4.953-4.954 12.045-5.742 18.575-5.742zm-102.558 5.403c-6.53 0-11.483.788-14.748 4.053-3.265 3.265-4.165 5.179-4.165 14.973v85.333c0 5.179.563 11.145 4.165 14.748 3.603 3.602 5.404 4.165 14.748 4.165h85.333c6.305 0 11.145-.563 14.973-4.165 3.828-3.603 4.053-9.232 4.053-14.748v-42.779a1.914 1.914 0 00-1.689-1.914h-60.003a1.803 1.803 0 00-1.689 1.914 1.577 1.577 0 001.689 1.689h57.977v40.978c0 6.304-1.013 9.907-3.04 12.271-2.026 2.364-5.966 3.039-12.271 3.039h-85.333c-6.305 0-9.907-.9-12.271-3.039-2.364-2.139-3.04-5.967-3.04-12.271V286.44c0-6.304 1.014-9.907 3.04-12.271 2.026-2.364 5.741-3.039 11.708-3.039h103.121a1.914 1.914 0 001.688-1.914 1.691 1.691 0 00-1.688-1.689zm249.921-5.403c6.53 0 13.622.563 18.575 5.741 4.954 5.179 5.742 12.046 5.742 18.575v85.334c0 6.529-.563 13.622-5.742 18.575-5.178 4.953-12.045 5.741-18.575 5.741h-85.333c-6.53 0-13.622-.788-18.575-5.741-4.954-4.953-5.742-12.046-5.742-18.575V286.44c0-6.529.788-13.622 5.742-18.575 4.953-4.954 12.045-5.741 18.575-5.741zm-85.333 5.403c-6.305 0-11.258.788-14.748 4.166-3.49 3.377-4.165 5.403-4.165 14.747v85.334c0 5.179.562 11.145 4.165 14.747 3.603 3.603 5.516 4.166 14.748 4.166h85.333c5.404 0 11.145-.563 14.973-4.166 3.828-3.602 4.053-9.568 4.053-14.747V286.44c0-6.529-.563-11.483-4.053-14.747-3.49-3.265-9.006-4.166-14.973-4.166zm85.333 3.603c6.53 0 10.132.9 12.271 3.039 2.139 2.139 3.04 5.967 3.04 12.271v85.334c0 6.304-.788 9.907-3.04 12.271-2.251 2.364-5.741 3.039-12.271 3.039h-85.333c-6.305 0-9.907-.9-12.046-3.039-2.139-2.139-3.265-5.967-3.265-12.271V286.44c0-6.304.901-9.907 3.265-12.271 2.364-2.364 5.741-3.039 12.046-3.039zm-85.333 5.403c-6.08 0-7.881.901-8.444 1.576-.562.676-1.576 2.252-1.576 8.444v85.333c0 6.079.901 7.881 1.576 8.444.676.562 2.252 1.576 8.444 1.576h85.333c6.079 0 7.881-.901 8.444-1.576.562-.676 1.576-2.252 1.576-8.444V286.44c0-6.079-1.014-7.88-1.576-8.443-.563-.563-2.252-1.576-8.444-1.576h-85.333zm76.89 172.806v119.557a7.09 7.09 0 01-7.092 7.318 7.321 7.321 0 01-5.175-2.143 7.321 7.321 0 01-2.143-5.175V466.789l-55.951 56.063a6.98 6.98 0 01-4.953 2.139 7.43 7.43 0 01-5.179-2.139l-56.063-56.063v102.107a7.205 7.205 0 11-14.297 0V449.339a7.204 7.204 0 0112.27-4.953l63.382 63.381 63.155-63.381a7.206 7.206 0 0112.046 4.953zm-9.794-2.476l-65.633 65.632-65.857-65.632a3.264 3.264 0 00-4.053-.788 3.716 3.716 0 00-2.252 3.264v119.557a3.715 3.715 0 107.43 0V458.571l62.03 61.804a3.491 3.491 0 002.702 1.126 3.376 3.376 0 002.477-1.126l62.03-61.804v110.325a3.828 3.828 0 003.828 3.828 3.717 3.717 0 003.602-3.828V449.339a3.714 3.714 0 00-6.192-2.476zm167.852 118.994a7.15 7.15 0 01-6.895 10.289 7.148 7.148 0 01-5.938-3.985l-6.53-13.059h-93.664l-6.53 13.059a7.15 7.15 0 11-12.833-6.304L695.957 446.3c2.814-5.404 10.357-5.404 12.833 0zm-69.572-118.094l-59.779 119.67c-1.013 2.139-.338 4.165 1.689 4.953a3.826 3.826 0 004.953-1.689l7.43-14.972h97.942l7.431 14.972a3.826 3.826 0 004.953 1.689c2.139-.788 2.477-2.814 1.689-4.953l-59.666-119.67a3.492 3.492 0 00-3.265-2.139 4.052 4.052 0 00-3.377 2.14zm-41.766 100.532l45.143-90.512 45.143 90.512zm84.77-3.49l-39.627-79.367-39.627 79.367z" fill="#dcc792"/></svg>