<svg viewBox="0 0 1000 660" xmlns="http://www.w3.org/2000/svg"><path d="m0 660h1000v-660h-1000z" fill="#eae3d8"/><path d="m357.873 83c3.98 0 7.206 3.226 7.206 7.205s-3.226 7.205-7.206 7.205h-102.557c-6.079 0-7.88.901-8.443 1.576s-1.576 2.252-1.576 8.443v25.668c0 5.966 1.013 7.88 1.576 8.443s2.252 1.351 8.443 1.351h85.333c6.529 0 13.622.788 18.576 5.741 4.953 4.954 5.74 12.271 5.74 18.576v25.667c0 6.53-.562 13.622-5.74 18.576-5.18 4.952-12.047 5.741-18.576 5.741h-102.332c-2.603.043-5.026-1.32-6.34-3.567-1.314-2.248-1.314-5.029 0-7.276s3.737-3.611 6.34-3.568h102.332c6.08 0 7.881-.899 8.444-1.575.563-.675 1.575-2.251 1.575-8.444v-25.779c0-5.967-1.012-7.881-1.575-8.444s-2.252-1.576-8.444-1.576h-85.333c-6.529 0-13.622-.562-18.575-5.516-4.954-4.953-5.741-12.271-5.741-18.575v-25.555c0-6.53.787-13.622 5.741-18.575 4.953-4.954 12.046-5.742 18.575-5.742zm165.151 123.609c1.741 3.545.279 7.828-3.265 9.569s-7.827.28-9.568-3.264l-6.531-13.059h-93.775l-6.531 13.059c-1.741 3.544-6.024 5.004-9.569 3.263-3.544-1.741-5.004-6.024-3.263-9.569l59.664-119.555c2.815-5.404 10.357-5.404 12.834 0zm-26.569-21.051-39.627-79.367-39.626 79.367zm-23.753 77.566c3.98 0 7.205 3.226 7.205 7.203 0 3.979-3.225 7.205-7.205 7.205h-103.12c-5.517 0-7.318.901-7.88 1.576-.564.676-1.577 2.253-1.577 8.444v85.333c0 6.079 1.013 7.881 1.577 8.444.562.562 2.251 1.576 8.443 1.576h85.332c6.079 0 7.882-.901 8.444-1.576.562-.676 1.576-2.252 1.576-8.444v-35.687h-52.685c-1.891.032-3.714-.705-5.051-2.042-1.337-1.336-2.073-3.159-2.043-5.05-.06-1.92.66-3.782 1.997-5.161 1.336-1.38 3.176-2.158 5.097-2.157h59.89c3.98.065 7.153 3.339 7.092 7.318v42.667c0 6.529-.562 13.623-5.741 18.575-5.179 4.953-12.046 5.741-18.576 5.741h-85.332c-6.531 0-13.623-.788-18.576-5.741-4.953-4.952-5.742-12.046-5.742-18.575v-85.333c0-6.529.789-13.622 5.742-18.576s12.045-5.741 18.576-5.741zm-102.557 5.402c-6.531 0-11.483.789-14.749 4.053-3.264 3.266-4.164 5.179-4.164 14.973v85.333c0 5.179.562 11.145 4.164 14.748 3.604 3.602 5.405 4.165 14.749 4.165h85.332c6.305 0 11.145-.563 14.973-4.165 3.828-3.603 4.053-9.232 4.053-14.748v-42.779c.007-.975-.721-1.799-1.689-1.913h-60.002c-.479.028-.926.247-1.243.606-.316.359-.477.829-.447 1.307-.034.458.133.908.459 1.231.323.325.773.492 1.231.459h57.976v40.977c0 6.304-1.013 9.907-3.04 12.272-2.026 2.363-5.966 3.038-12.271 3.038h-85.332c-6.306 0-9.907-.9-12.272-3.038-2.363-2.14-3.039-5.968-3.039-12.272v-85.333c0-6.304 1.013-9.908 3.039-12.271 2.027-2.365 5.741-3.04 11.709-3.04h103.12c.968-.114 1.695-.938 1.688-1.913-.001-.933-.755-1.688-1.688-1.69zm249.92-5.402c6.53 0 13.621.562 18.575 5.74 4.954 5.18 5.741 12.047 5.741 18.576v85.333c0 6.529-.562 13.623-5.741 18.575-5.179 4.953-12.045 5.741-18.575 5.741h-85.333c-6.53 0-13.621-.788-18.575-5.741-4.954-4.952-5.741-12.046-5.741-18.575v-85.333c0-6.529.787-13.622 5.741-18.576s12.045-5.74 18.575-5.74zm-85.333 5.402c-6.305 0-11.258.789-14.748 4.167-3.49 3.377-4.165 5.403-4.165 14.747v85.333c0 5.179.562 11.145 4.165 14.748 3.603 3.602 5.516 4.165 14.748 4.165h85.333c5.403 0 11.145-.563 14.972-4.165 3.829-3.603 4.054-9.569 4.054-14.748v-85.333c0-6.529-.563-11.484-4.054-14.747-3.489-3.266-9.005-4.167-14.972-4.167zm85.333 3.603c6.53 0 10.132.9 12.271 3.04 2.139 2.138 3.04 5.967 3.04 12.271v85.333c0 6.304-.789 9.907-3.04 12.272-2.251 2.363-5.741 3.038-12.271 3.038h-85.333c-6.305 0-9.907-.9-12.045-3.038-2.14-2.14-3.266-5.968-3.266-12.272v-85.333c0-6.304.901-9.908 3.266-12.271 2.363-2.365 5.74-3.04 12.045-3.04zm-85.333 5.403c-6.08 0-7.881.901-8.444 1.576-.562.676-1.576 2.253-1.576 8.444v85.333c0 6.079.901 7.881 1.576 8.444.676.562 2.252 1.576 8.444 1.576h85.333c6.078 0 7.881-.901 8.444-1.576.562-.676 1.576-2.252 1.576-8.444v-85.445c0-6.079-1.014-7.881-1.576-8.444-.563-.563-2.252-1.575-8.444-1.575h-85.333zm76.889 172.806v119.556c.063 1.92-.657 3.784-1.994 5.162-1.337 1.381-3.176 2.158-5.097 2.156-1.941 0-3.802-.77-5.175-2.143-1.372-1.372-2.143-3.233-2.143-5.175v-102.106l-55.951 56.063c-1.298 1.348-3.082 2.118-4.953 2.139-1.939-.01-3.798-.777-5.179-2.139l-56.063-56.063v102.106c.349 2.769-.932 5.489-3.289 6.985-2.355 1.495-5.363 1.495-7.719 0-2.357-1.496-3.637-4.216-3.289-6.985v-119.556c.067-2.876 1.838-5.437 4.506-6.513 2.667-1.077 5.721-.464 7.764 1.56l63.382 63.38 63.155-63.38c2.06-1.874 5.015-2.395 7.59-1.335 2.576 1.059 4.31 3.507 4.455 6.288zm-9.794-2.476-65.632 65.631-65.857-65.631c-.991-1.192-2.686-1.522-4.052-.788-1.318.563-2.194 1.833-2.252 3.264v119.556c-.003 1.329.706 2.558 1.855 3.222 1.15.664 2.568.664 3.718 0s1.858-1.893 1.856-3.222v-110.324l62.03 61.804c.692.753 1.68 1.164 2.702 1.126.947-.011 1.846-.42 2.477-1.126l62.029-61.804v110.324c0 2.114 1.715 3.829 3.829 3.829 2.051-.064 3.664-1.777 3.602-3.829v-119.556c-.107-1.413-1.01-2.642-2.324-3.168-1.316-.526-2.816-.257-3.868.692zm167.852 118.994c1.127 2.293.946 5.013-.477 7.134-1.421 2.124-3.869 3.325-6.417 3.155-2.549-.173-4.813-1.692-5.938-3.986l-6.531-13.059h-93.664l-6.529 13.059c-1.098 2.34-3.374 3.904-5.952 4.093-2.578.187-5.056-1.03-6.482-3.184-1.427-2.156-1.579-4.914-.399-7.212l59.666-119.557c2.814-5.404 10.357-5.404 12.833 0zm-69.572-118.094-59.778 119.67c-1.013 2.139-.338 4.165 1.689 4.952 1.838.831 4.005.092 4.953-1.688l7.43-14.973h97.941l7.432 14.973c.947 1.78 3.114 2.519 4.952 1.688 2.14-.787 2.477-2.813 1.69-4.952l-59.666-119.67c-.552-1.311-1.844-2.158-3.266-2.139-1.424.07-2.705.882-3.377 2.14zm-41.765 100.532 45.142-90.512 45.144 90.512zm84.769-3.491-39.627-79.366-39.626 79.366z"/></svg>