<svg viewBox="0 0 1000 660" xmlns="http://www.w3.org/2000/svg"><path d="m0 660h1000v-660h-1000z" fill="#eae3d8"/><path d="m356.874 82c3.979 0 7.205 3.226 7.205 7.205s-3.226 7.205-7.205 7.205h-102.558c-6.079 0-7.88.901-8.443 1.576s-1.576 2.252-1.576 8.443v25.668c0 5.967 1.013 7.88 1.576 8.443s2.252 1.351 8.443 1.351h85.334c6.529 0 13.622.788 18.575 5.742 4.953 4.953 5.741 12.271 5.741 18.575v25.667c0 6.53-.563 13.622-5.741 18.576-5.179 4.953-12.046 5.741-18.575 5.741h-102.333c-2.603.043-5.026-1.32-6.34-3.567s-1.314-5.029 0-7.276 3.737-3.61 6.34-3.567h102.333c6.079 0 7.88-.9 8.443-1.576.563-.675 1.576-2.251 1.576-8.443v-25.78c0-5.967-1.013-7.881-1.576-8.444s-2.252-1.576-8.443-1.576h-85.334c-6.529 0-13.622-.562-18.575-5.516-4.954-4.953-5.741-12.271-5.741-18.575v-25.555c0-6.53.787-13.622 5.741-18.575 4.953-4.954 12.046-5.742 18.575-5.742zm165.151 123.61c1.741 3.544.279 7.828-3.265 9.569s-7.828.279-9.569-3.265l-6.53-13.059h-93.776l-6.53 13.059c-1.741 3.544-6.025 5.005-9.569 3.264s-5.005-6.025-3.264-9.569l59.665-119.556c2.815-5.404 10.357-5.404 12.834 0zm-26.569-21.052-39.627-79.367-39.627 79.367zm-23.753 77.566c3.979 0 7.205 3.226 7.205 7.204 0 3.979-3.226 7.205-7.205 7.205h-103.121c-5.516 0-7.317.901-7.88 1.576-.563.676-1.577 2.252-1.577 8.444v85.333c0 6.079 1.014 7.881 1.577 8.444.563.562 2.251 1.576 8.443 1.576h85.333c6.079 0 7.881-.901 8.444-1.576.562-.676 1.576-2.252 1.576-8.444v-35.687h-52.686c-1.891.032-3.713-.705-5.05-2.042s-2.074-3.159-2.043-5.05c-.061-1.92.66-3.782 1.997-5.161 1.336-1.38 3.175-2.158 5.096-2.157h59.891c3.979.064 7.153 3.339 7.092 7.318v42.667c0 6.529-.563 13.622-5.741 18.575-5.179 4.953-12.046 5.741-18.576 5.741h-85.333c-6.53 0-13.622-.788-18.575-5.741-4.954-4.953-5.742-12.046-5.742-18.575v-85.334c0-6.529.788-13.622 5.742-18.575 4.953-4.954 12.045-5.742 18.575-5.742zm-102.558 5.403c-6.53 0-11.483.788-14.748 4.053s-4.165 5.179-4.165 14.973v85.333c0 5.179.563 11.145 4.165 14.748 3.603 3.602 5.404 4.165 14.748 4.165h85.333c6.305 0 11.145-.563 14.973-4.165 3.828-3.603 4.053-9.232 4.053-14.748v-42.779c.007-.975-.721-1.799-1.689-1.914h-60.003c-.478.029-.925.248-1.242.607-.316.359-.477.829-.447 1.307-.034.457.133.907.458 1.231.324.325.774.492 1.231.458h57.977v40.978c0 6.304-1.013 9.907-3.04 12.271-2.026 2.364-5.966 3.039-12.271 3.039h-85.333c-6.305 0-9.907-.9-12.271-3.039s-3.04-5.967-3.04-12.271v-85.334c0-6.304 1.014-9.907 3.04-12.271s5.741-3.039 11.708-3.039h103.121c.968-.115 1.695-.939 1.688-1.914-.001-.932-.756-1.687-1.688-1.689zm249.921-5.403c6.53 0 13.622.563 18.575 5.741 4.954 5.179 5.742 12.046 5.742 18.575v85.334c0 6.529-.563 13.622-5.742 18.575-5.178 4.953-12.045 5.741-18.575 5.741h-85.333c-6.53 0-13.622-.788-18.575-5.741-4.954-4.953-5.742-12.046-5.742-18.575v-85.334c0-6.529.788-13.622 5.742-18.575 4.953-4.954 12.045-5.741 18.575-5.741zm-85.333 5.403c-6.305 0-11.258.788-14.748 4.166-3.49 3.377-4.165 5.403-4.165 14.747v85.334c0 5.179.562 11.145 4.165 14.747 3.603 3.603 5.516 4.166 14.748 4.166h85.333c5.404 0 11.145-.563 14.973-4.166 3.828-3.602 4.053-9.568 4.053-14.747v-85.334c0-6.529-.563-11.483-4.053-14.747-3.49-3.265-9.006-4.166-14.973-4.166zm85.333 3.603c6.53 0 10.132.9 12.271 3.039s3.04 5.967 3.04 12.271v85.334c0 6.304-.788 9.907-3.04 12.271-2.251 2.364-5.741 3.039-12.271 3.039h-85.333c-6.305 0-9.907-.9-12.046-3.039s-3.265-5.967-3.265-12.271v-85.334c0-6.304.901-9.907 3.265-12.271s5.741-3.039 12.046-3.039zm-85.333 5.403c-6.08 0-7.881.901-8.444 1.576-.562.676-1.576 2.252-1.576 8.444v85.333c0 6.079.901 7.881 1.576 8.444.676.562 2.252 1.576 8.444 1.576h85.333c6.079 0 7.881-.901 8.444-1.576.562-.676 1.576-2.252 1.576-8.444v-85.446c0-6.079-1.014-7.88-1.576-8.443-.563-.563-2.252-1.576-8.444-1.576h-85.333zm76.89 172.806v119.557c.062 1.92-.658 3.783-1.995 5.162-1.337 1.38-3.176 2.158-5.097 2.156-1.941 0-3.802-.771-5.175-2.143-1.372-1.373-2.143-3.234-2.143-5.175v-102.107l-55.951 56.063c-1.298 1.348-3.082 2.119-4.953 2.139-1.939-.01-3.798-.777-5.179-2.139l-56.063-56.063v102.107c.349 2.768-.932 5.489-3.289 6.984-2.356 1.495-5.363 1.495-7.719 0-2.357-1.495-3.638-4.216-3.289-6.984v-119.557c.067-2.876 1.838-5.437 4.506-6.513 2.667-1.077 5.72-.464 7.764 1.56l63.382 63.381 63.155-63.381c2.06-1.874 5.015-2.394 7.59-1.335 2.576 1.059 4.31 3.507 4.456 6.288zm-9.794-2.476-65.633 65.632-65.857-65.632c-.992-1.192-2.686-1.522-4.053-.788-1.317.563-2.193 1.833-2.252 3.264v119.557c-.002 1.328.706 2.557 1.856 3.222 1.15.664 2.568.664 3.718 0 1.15-.665 1.858-1.894 1.856-3.222v-110.325l62.03 61.804c.692.753 1.68 1.165 2.702 1.126.947-.011 1.846-.42 2.477-1.126l62.03-61.804v110.325c0 2.114 1.714 3.828 3.828 3.828 2.052-.063 3.664-1.776 3.602-3.828v-119.557c-.107-1.413-1.009-2.642-2.324-3.168-1.316-.526-2.816-.257-3.868.692zm167.852 118.994c1.127 2.293.946 5.013-.477 7.135-1.422 2.123-3.869 3.325-6.418 3.154-2.549-.172-4.813-1.691-5.938-3.985l-6.53-13.059h-93.664l-6.53 13.059c-1.098 2.339-3.374 3.904-5.952 4.092-2.577.188-5.056-1.029-6.482-3.184-1.427-2.156-1.579-4.913-.399-7.212l59.666-119.557c2.814-5.404 10.357-5.404 12.833 0zm-69.572-118.094-59.779 119.67c-1.013 2.139-.338 4.165 1.689 4.953 1.838.831 4.005.092 4.953-1.689l7.43-14.972h97.942l7.431 14.972c.948 1.781 3.115 2.52 4.953 1.689 2.139-.788 2.477-2.814 1.689-4.953l-59.666-119.67c-.551-1.311-1.843-2.158-3.265-2.139-1.424.07-2.706.882-3.377 2.14zm-41.766 100.532 45.143-90.512 45.143 90.512zm84.77-3.49-39.627-79.367-39.627 79.367z"/></svg>