<svg viewBox="0 0 1000 660" xmlns="http://www.w3.org/2000/svg"><path d="m0 660h1000v-660h-1000z" fill="#eae3d8"/><path d="m788.509 265.45c-5.415 0-10.522.92-15.121 2.656-4.903 1.941-9.093 4.7-12.67 8.275-3.575 3.474-6.333 7.767-8.172 12.568-1.839 4.7-2.759 9.808-2.759 15.121v49.247c0 5.415.92 10.524 2.759 15.121 1.839 4.904 4.597 9.093 8.172 12.67 3.577 3.575 7.767 6.335 12.67 8.174 4.599 1.839 9.706 2.758 15.121 2.758h73.871c5.312 0 10.42-.919 15.12-2.758 4.802-1.839 9.095-4.599 12.67-8.174 3.474-3.577 6.233-7.766 8.174-12.67 1.737-4.597 2.656-9.706 2.656-15.121v-49.247c0-5.313-.919-10.421-2.656-15.121-1.941-4.801-4.7-9.094-8.174-12.568-3.575-3.575-7.868-6.334-12.67-8.275-4.7-1.736-9.808-2.656-15.12-2.656zm73.871 28.097c2.349 0 5.618.409 7.866 2.656 2.248 2.249 2.657 5.517 2.657 7.867v49.247c0 2.452-.409 5.721-2.657 7.969-2.248 2.146-5.517 2.656-7.866 2.656h-73.871c-2.451 0-5.72-.51-7.969-2.656-2.145-2.248-2.656-5.517-2.656-7.969v-49.247c0-2.35.511-5.618 2.656-7.867 2.249-2.247 5.518-2.656 7.969-2.656zm-130.983 0v-28.097h-63.245c-5.415 0-10.524.92-15.121 2.656-4.905 1.941-9.093 4.7-12.669 8.275-3.576 3.474-6.335 7.767-8.174 12.568-1.84 4.7-2.759 9.808-2.759 15.121v87.97h28.097v-87.97c0-2.35.511-5.618 2.657-7.867 2.247-2.247 5.517-2.656 7.969-2.656zm-163.066 98.493c5.313 0 10.422-.919 15.121-2.657 4.802-1.94 9.094-4.7 12.669-8.275 3.474-3.474 6.233-7.766 8.174-12.568 1.736-4.699 2.656-9.808 2.656-15.121v-87.969h-28.097v87.969c0 2.35-.409 5.619-2.656 7.867-2.248 2.247-5.517 2.656-7.867 2.656h-73.871c-2.451 0-5.72-.409-7.968-2.656-2.146-2.248-2.657-5.517-2.657-7.867v-87.969h-28.097v87.969c0 5.313.92 10.422 2.758 15.121 1.839 4.802 4.598 9.094 8.174 12.568 3.576 3.575 7.766 6.335 12.67 8.275 4.598 1.738 9.706 2.657 15.12 2.657zm-271.98-126.59v28.097h100.23c2.351 0 5.721.409 7.867 2.656 2.248 2.249 2.759 5.517 2.759 7.867v10.626h-84.496c-5.414 0-10.523.919-15.121 2.758-4.802 1.839-9.093 4.598-12.669 8.174s-6.335 7.766-8.174 12.568c-1.839 4.699-2.758 9.808-2.758 15.121 0 5.415.919 10.524 2.758 15.121 1.839 4.904 4.598 9.093 8.174 12.67 3.576 3.575 7.867 6.335 12.669 8.174 4.598 1.839 9.707 2.758 15.121 2.758h73.87c5.313 0 10.422-.919 15.121-2.758 4.803-1.839 9.094-4.599 12.67-8.174 3.576-3.577 6.335-7.766 8.174-12.67 1.838-4.597 2.758-9.706 2.758-15.121v-49.247c0-5.313-.92-10.421-2.758-15.121-1.839-4.801-4.598-9.094-8.174-12.568-3.576-3.575-7.867-6.334-12.67-8.275-4.699-1.736-9.808-2.656-15.121-2.656zm110.856 77.343v10.524c0 2.452-.511 5.721-2.759 7.969-2.146 2.146-5.516 2.656-7.867 2.656h-73.87c-2.451 0-5.722-.51-7.969-2.656-2.146-2.248-2.657-5.517-2.657-7.969 0-2.35.511-5.619 2.657-7.867 2.247-2.248 5.518-2.657 7.969-2.657zm-263.397-93.793c-6.029 0-11.647 1.022-16.859 3.066-5.313 2.042-10.012 5.005-13.894 8.991-3.986 3.882-6.949 8.581-8.991 13.894-2.044 5.212-3.066 10.83-3.066 16.859 0 5.926 1.022 11.545 3.066 16.756 2.042 5.313 5.005 10.013 8.991 13.998 3.882 3.881 8.581 6.947 13.894 8.991 5.212 2.042 10.83 3.065 16.859 3.065h82.042c3.271 0 7.767.613 10.934 3.779 3.167 3.168 3.78 7.663 3.78 10.83 0 3.271-.613 7.767-3.78 10.934s-7.663 3.779-10.934 3.779h-82.042c-3.27 0-7.766-.612-10.933-3.779-3.168-3.167-3.78-7.663-3.78-10.934h-28.097c0 6.029 1.022 11.648 3.066 16.859 2.042 5.313 5.005 10.013 8.991 13.895 3.882 3.986 8.581 6.949 13.894 8.991 5.212 2.044 10.83 3.066 16.859 3.066h82.042c6.029 0 11.648-1.022 16.859-3.066 5.313-2.042 10.013-5.005 13.895-8.991 3.985-3.882 6.949-8.582 8.991-13.895 2.044-5.211 3.066-10.83 3.066-16.859 0-5.925-1.022-11.545-3.066-16.755-2.042-5.313-5.006-10.014-8.991-13.998-3.882-3.882-8.582-6.947-13.895-8.991-5.211-2.043-10.83-2.963-16.859-2.963h-82.042c-3.27 0-7.766-.715-10.933-3.883-3.168-3.166-3.78-7.661-3.78-10.829 0-3.27.612-7.766 3.78-10.933 3.167-3.065 7.663-3.78 10.933-3.78h82.042c3.271 0 7.767.715 10.934 3.78 3.167 3.167 3.78 7.663 3.78 10.933h28.097c0-6.029-1.022-11.647-3.066-16.859-2.042-5.313-5.006-10.012-8.991-13.894-3.882-3.986-8.582-6.949-13.895-8.991-5.211-2.044-10.83-3.066-16.859-3.066z"/></svg>