<svg viewBox="0 0 1000 660" xmlns="http://www.w3.org/2000/svg"><path d="M0 660h1000V0H0z" fill="#1c29d9"/><path d="M357.316 514.355a19.77 19.77 0 017.237 1.296 16.765 16.765 0 015.94 3.78 16.949 16.949 0 013.78 5.941 19.75 19.75 0 011.296 7.128h-10.044c0-5.076-3.025-8.1-8.101-8.1h-37.695c-5.076 0-8.1 3.024-8.1 8.1 0 5.077 3.024 8.101 8.1 8.101h37.587a19.761 19.761 0 017.236 1.296 16.852 16.852 0 015.941 3.888 17.17 17.17 0 013.78 5.833 20.18 20.18 0 011.296 7.236 19.756 19.756 0 01-1.296 7.129 16.954 16.954 0 01-3.78 5.94 16.75 16.75 0 01-5.94 3.78 19.879 19.879 0 01-7.237 1.296h-37.587a19.754 19.754 0 01-7.128-1.296 16.637 16.637 0 01-9.721-9.72 19.777 19.777 0 01-1.296-7.129h10.045c0 5.076 3.024 8.1 8.1 8.1h37.587c5.076 0 8.1-3.024 8.1-8.1s-3.024-8.1-8.1-8.1h-37.587a19.776 19.776 0 01-7.128-1.297 16.936 16.936 0 01-5.94-3.78 17.17 17.17 0 01-3.781-5.94 20.21 20.21 0 01-1.296-7.237 19.772 19.772 0 011.296-7.128 16.636 16.636 0 019.721-9.721 19.775 19.775 0 017.128-1.296zm86.19 62.644l-4.861-9.397h-44.283l-4.86 9.397h-11.341l32.403-62.644h11.773l32.402 62.644zm-10.045-19.441l-16.957-32.618-16.849 32.618zm97.963 1.296a19.793 19.793 0 01-1.296 7.128 17.084 17.084 0 01-3.889 5.941 16.618 16.618 0 01-5.832 3.78 20.21 20.21 0 01-7.236 1.296h-37.479a20.21 20.21 0 01-7.237-1.296 16.955 16.955 0 01-9.72-9.721 19.75 19.75 0 01-1.296-7.128v-44.499h10.044v44.499c0 5.076 3.025 8.1 8.101 8.1h37.587c5.076 0 8.1-3.024 8.1-8.1v-44.499h10.045v44.499zm66.424-44.499a19.77 19.77 0 017.237 1.296 16.765 16.765 0 015.94 3.78 16.949 16.949 0 013.78 5.941 19.75 19.75 0 011.296 7.128 20.19 20.19 0 01-1.296 7.237 17.804 17.804 0 01-3.78 5.94 17.38 17.38 0 01-5.94 3.78 19.86 19.86 0 01-5.941 1.297l16.957 26.245h-11.989l-16.849-26.245h-35.102v26.245h-10.045v-62.644zm-45.687 26.354h45.687c5.076 0 8.101-3.025 8.101-8.101 0-5.076-3.025-8.101-8.101-8.101h-45.687zm126.801-26.354a19.769 19.769 0 017.236 1.296 16.747 16.747 0 015.94 3.78 16.965 16.965 0 013.781 5.941 19.793 19.793 0 011.296 7.128v26.354a19.798 19.798 0 01-1.296 7.129 16.97 16.97 0 01-3.781 5.94 16.733 16.733 0 01-5.94 3.78 19.877 19.877 0 01-7.236 1.296h-37.587a19.76 19.76 0 01-7.129-1.296 16.631 16.631 0 01-9.72-9.721 19.746 19.746 0 01-1.296-7.128V532.5a19.746 19.746 0 011.296-7.128 16.631 16.631 0 019.72-9.721 19.78 19.78 0 017.129-1.296zM641.375 524.4c-5.076 0-8.1 3.024-8.1 8.1v26.354c0 5.076 3.024 8.1 8.1 8.1h37.587c5.076 0 8.1-3.024 8.1-8.1V532.5c0-5.076-3.024-8.1-8.1-8.1zM430.653 406.348a20.202 20.202 0 017.236 1.296 16.532 16.532 0 016.049 3.888 17.4 17.4 0 013.888 6.049 19.56 19.56 0 011.296 7.344h-11.233a7.34 7.34 0 00-1.836-5.4 7.452 7.452 0 00-5.4-1.944H393.93a7.289 7.289 0 100 14.58h36.723a20.203 20.203 0 017.236 1.297 16.532 16.532 0 016.049 3.888 17.396 17.396 0 013.888 6.048 21.062 21.062 0 010 14.581 17.4 17.4 0 01-3.888 6.049 16.532 16.532 0 01-6.049 3.888 20.31 20.31 0 01-7.236 1.08H393.93c-2.47.01-4.922-.43-7.236-1.296a17.174 17.174 0 01-9.937-9.937 20.43 20.43 0 01-1.296-7.236h11.233a6.696 6.696 0 007.236 7.236h36.723a7.452 7.452 0 005.4-1.944 8.534 8.534 0 000-10.693 7.45 7.45 0 00-5.4-1.943H393.93c-2.47.009-4.922-.43-7.236-1.297a17.175 17.175 0 01-9.937-9.936 21.062 21.062 0 010-14.581 17.176 17.176 0 019.937-9.937 20.403 20.403 0 017.236-1.08zm85.758 62.644l-4.753-9.181h-42.555l-4.752 9.181h-12.529l32.402-62.644h12.313l32.403 62.644zm-10.585-20.413l-15.445-29.81-15.445 29.81zm99.583 1.944a19.428 19.428 0 01-1.297 7.236 16.953 16.953 0 01-9.828 9.937 20.53 20.53 0 01-7.345 1.296h-36.722a20.53 20.53 0 01-7.345-1.296 17.172 17.172 0 01-9.936-9.937 20.385 20.385 0 01-1.296-7.236v-44.175h11.232v44.175a6.7 6.7 0 007.345 7.236h36.722a6.694 6.694 0 007.345-7.236v-44.175h11.233v44.175zm65.884-44.175a20.21 20.21 0 017.237 1.296 16.52 16.52 0 016.048 3.888 17.386 17.386 0 013.888 6.049 21.06 21.06 0 010 14.58 17.376 17.376 0 01-3.888 6.049 16.52 16.52 0 01-6.048 3.888 19.103 19.103 0 01-5.401 1.188l16.633 25.706h-13.285l-16.525-25.706h-32.618v25.706h-11.233v-62.644zm-44.067 25.706h44.067a7.448 7.448 0 005.4-1.945 8.532 8.532 0 000-10.692 7.452 7.452 0 00-5.4-1.944h-43.959v14.581zm124.964-25.706a20.21 20.21 0 017.237 1.296 16.52 16.52 0 016.048 3.888 17.388 17.388 0 013.889 6.049 19.56 19.56 0 011.296 7.344v25.706a19.444 19.444 0 01-1.296 7.236 17.388 17.388 0 01-3.889 6.049 16.52 16.52 0 01-6.048 3.888 20.298 20.298 0 01-7.237 1.296h-36.83a20.39 20.39 0 01-7.237-1.296 17.172 17.172 0 01-9.936-9.937 20.385 20.385 0 01-1.296-7.236v-25.814a20.498 20.498 0 011.296-7.344 17.172 17.172 0 019.936-9.937 20.413 20.413 0 017.237-1.296h36.83zm-36.83 11.233a6.696 6.696 0 00-7.237 7.344v25.706a6.697 6.697 0 007.237 7.236h36.83a7.454 7.454 0 005.401-1.944 7.345 7.345 0 001.836-5.292v-25.814a7.34 7.34 0 00-1.836-5.4 7.453 7.453 0 00-5.4-1.944H715.36zm-358.692-119.24a19.975 19.975 0 017.344 1.296 17.28 17.28 0 0110.045 10.045 20.079 20.079 0 011.296 7.344h-12.205a6.695 6.695 0 00-1.62-4.752 6.914 6.914 0 00-4.752-1.621h-36.075a6.914 6.914 0 00-4.752 1.621 6.48 6.48 0 004.752 11.232h35.967a19.995 19.995 0 017.344 1.296 17.176 17.176 0 0110.045 10.045 20.848 20.848 0 010 14.689 17.282 17.282 0 01-10.045 10.045 20.107 20.107 0 01-7.344 1.296h-35.967c-2.507.03-4.998-.41-7.344-1.296a17.285 17.285 0 01-10.045-10.045 20.107 20.107 0 01-1.296-7.344h12.313a5.834 5.834 0 006.48 6.48h35.967a6.479 6.479 0 006.302-9.905 6.479 6.479 0 00-6.302-2.948h-36.075a20.086 20.086 0 01-7.344-1.296 17.174 17.174 0 01-10.045-10.045 20.848 20.848 0 010-14.689 17.283 17.283 0 0110.045-10.044 19.975 19.975 0 017.344-1.296h35.967zm85.326 62.644l-4.645-8.965h-40.718l-4.645 8.965h-13.933l32.402-62.644h12.853l32.403 62.644zm-11.017-21.278l-13.933-27.001-14.041 27.001zm100.987 2.485a20 20 0 01-1.296 7.344 17.285 17.285 0 01-10.045 10.045 20.108 20.108 0 01-7.345 1.296h-35.966c-2.508.03-4.999-.41-7.345-1.296a16.857 16.857 0 01-6.048-3.888 17.5 17.5 0 01-3.996-6.049 20.937 20.937 0 01-1.296-7.344v-43.959h12.313v43.851a5.83 5.83 0 006.48 6.48h35.966a6.695 6.695 0 004.753-1.62 6.913 6.913 0 001.62-4.752v-43.959h12.313v43.851zm65.452-43.851a19.975 19.975 0 017.344 1.296 17.277 17.277 0 0110.045 10.045 20.835 20.835 0 010 14.688 17.175 17.175 0 01-10.044 10.045 19.718 19.718 0 01-4.969 1.188l16.309 25.382H601.52l-16.201-25.166h-30.242v25.166h-12.313v-62.644zm-42.339 25.165h42.339a6.692 6.692 0 004.752-1.728 7.665 7.665 0 000-9.504 6.914 6.914 0 00-4.752-1.621h-42.339zm122.912-25.165c2.508-.033 5 .407 7.345 1.296a17.282 17.282 0 0110.045 10.045 20.1 20.1 0 011.296 7.344v25.166a20 20 0 01-1.296 7.344 17.285 17.285 0 01-10.045 10.045c-2.339.923-4.83 1.4-7.345 1.404h-35.966c-2.507.03-4.999-.41-7.344-1.296a17.285 17.285 0 01-10.045-10.045 20.086 20.086 0 01-1.296-7.344v-25.166a20.087 20.087 0 011.296-7.345 17.28 17.28 0 0110.045-10.044 19.975 19.975 0 017.344-1.296h35.966zm-35.966 12.312a6.914 6.914 0 00-4.752 1.621 6.695 6.695 0 00-1.62 4.752v25.166a5.83 5.83 0 006.48 6.48h35.858a5.833 5.833 0 006.481-6.48v-25.058a6.699 6.699 0 00-1.62-4.753 6.918 6.918 0 00-4.752-1.62h-36.075zm-358.908-120.32a20.302 20.302 0 017.453 1.297 17.6 17.6 0 016.264 3.996 18.135 18.135 0 013.996 6.264 20.297 20.297 0 011.296 7.453h-13.393a5.942 5.942 0 00-1.404-4.213 5.944 5.944 0 00-4.212-1.404h-35.102a5.616 5.616 0 10-.001 11.233h35.211a20.322 20.322 0 017.453 1.296 17.613 17.613 0 016.264 3.996 18.13 18.13 0 013.996 6.265 21.278 21.278 0 010 14.905 18.135 18.135 0 01-3.996 6.264 17.616 17.616 0 01-6.264 3.997 20.3 20.3 0 01-7.453 1.295h-35.21c-2.544.039-5.072-.4-7.453-1.295a17.722 17.722 0 01-10.261-10.261 20.296 20.296 0 01-1.295-7.453h13.392a4.971 4.971 0 005.617 5.617h35.21a5.938 5.938 0 004.212-1.404 6.803 6.803 0 000-8.317 5.938 5.938 0 00-4.212-1.404h-35.21a20.306 20.306 0 01-7.453-1.404 17.717 17.717 0 01-10.261-10.261 21.29 21.29 0 010-14.905 17.715 17.715 0 0110.261-10.26 20.298 20.298 0 017.453-1.297h35.21zm84.894 62.644l-4.536-8.748h-38.991l-4.537 8.748h-15.12l32.402-62.644h13.501l32.402 62.644zm-11.449-22.141l-12.529-24.301-12.529 24.301zm102.499 3.132a20.318 20.318 0 01-1.296 7.453 16.96 16.96 0 01-3.997 6.264 17.387 17.387 0 01-6.156 3.997 20.756 20.756 0 01-7.452 1.296l-35.319-.001a20.73 20.73 0 01-7.452-1.295 17.938 17.938 0 01-6.265-3.997 17.497 17.497 0 01-3.996-6.264 20.297 20.297 0 01-1.296-7.453v-43.635h13.501v43.635a5.723 5.723 0 001.404 4.213 5.94 5.94 0 004.212 1.404h35.102a5.942 5.942 0 004.213-1.404 5.728 5.728 0 001.404-4.213v-43.635h13.393zm64.912-43.635a20.298 20.298 0 017.453 1.297 17.596 17.596 0 016.156 4.104 18.135 18.135 0 013.996 6.264 21.278 21.278 0 010 14.905 18.13 18.13 0 01-3.996 6.265 17.613 17.613 0 01-6.264 3.996 18.028 18.028 0 01-4.428 1.08l16.092 24.733h-15.985l-15.877-24.625h-27.974v24.625h-13.393v-62.644zm-40.719 24.626h40.719a5.938 5.938 0 004.212-1.404 6.803 6.803 0 000-8.317 5.942 5.942 0 00-4.212-1.404h-40.827v11.233zm121.077-24.626a20.297 20.297 0 017.452 1.297 17.595 17.595 0 016.265 3.996 18.164 18.164 0 013.996 6.264 20.318 20.318 0 011.296 7.453v24.625a20.318 20.318 0 01-1.296 7.453 18.164 18.164 0 01-3.996 6.264 17.611 17.611 0 01-6.265 3.997 20.295 20.295 0 01-7.452 1.295h-35.211c-2.543.039-5.071-.4-7.452-1.295a17.717 17.717 0 01-10.261-10.261 20.297 20.297 0 01-1.296-7.453v-24.625a20.297 20.297 0 011.296-7.453 17.712 17.712 0 0110.261-10.26 20.317 20.317 0 017.452-1.297zm-35.211 13.393a4.97 4.97 0 00-5.616 5.617v24.625a4.968 4.968 0 005.616 5.617h35.211a5.94 5.94 0 004.212-1.404 5.942 5.942 0 001.404-4.213v-24.625a5.942 5.942 0 00-1.404-4.213 5.945 5.945 0 00-4.212-1.404zM356.02 82.326a20.739 20.739 0 017.56 1.296 18.368 18.368 0 016.373 4.104 18.68 18.68 0 014.104 6.265 20.941 20.941 0 011.296 7.56h-14.581a4.965 4.965 0 00-1.188-3.564 5.079 5.079 0 00-3.564-1.188h-34.347a4.21 4.21 0 00-3.558 1.194 4.21 4.21 0 00-1.194 3.558 5.081 5.081 0 001.188 3.565 4.97 4.97 0 003.564 1.188h34.347a20.739 20.739 0 017.56 1.296 18.255 18.255 0 016.373 4.104 19.111 19.111 0 014.104 6.265 21.162 21.162 0 011.296 7.56 20.943 20.943 0 01-1.296 7.561 18.685 18.685 0 01-4.104 6.264 18.354 18.354 0 01-6.373 4.104 20.718 20.718 0 01-7.56 1.296h-34.347a20.941 20.941 0 01-7.56-1.296 18.361 18.361 0 01-10.477-10.476 20.986 20.986 0 01-1.296-7.561h14.581a4.212 4.212 0 004.752 4.752h34.347a5.07 5.07 0 003.564-1.188 4.964 4.964 0 001.188-3.564 4.103 4.103 0 00-4.752-4.752h-34.347a20.973 20.973 0 01-7.56-1.404 18.045 18.045 0 01-6.264-4.104 18.577 18.577 0 01-4.105-6.265 21.823 21.823 0 010-15.121 18.258 18.258 0 0110.477-10.477 20.964 20.964 0 017.561-1.296h34.346zm84.569 62.644l-4.428-8.64h-37.262l-4.429 8.64h-16.416l32.402-62.644h14.04l32.403 62.644zm-11.988-23.113l-11.017-21.386-11.125 21.386zm103.903 3.78a20.986 20.986 0 01-1.296 7.561 18.703 18.703 0 01-4.105 6.264 18.355 18.355 0 01-6.372 4.104 20.725 20.725 0 01-7.56 1.296h-34.239a20.95 20.95 0 01-7.561-1.296 18.361 18.361 0 01-10.476-10.477 20.934 20.934 0 01-1.296-7.56V82.326h14.581v43.311a4.214 4.214 0 004.752 4.752h34.346a5.072 5.072 0 003.565-1.188 4.968 4.968 0 001.188-3.564V82.326h14.581v43.311zm64.48-43.311a20.748 20.748 0 017.561 1.296 18.373 18.373 0 016.372 4.104 18.68 18.68 0 014.104 6.265 21.812 21.812 0 010 15.121 19.132 19.132 0 01-4.104 6.265 19.45 19.45 0 01-10.153 5.184l15.445 24.409h-17.281l-15.445-23.977h-25.706v23.977h-14.472V82.326zm-39.099 24.086h39.099a4.212 4.212 0 004.752-4.752 4.97 4.97 0 00-1.188-3.565 5.079 5.079 0 00-3.564-1.188h-39.207v9.505zm119.132-24.086a20.748 20.748 0 017.561 1.296 18.364 18.364 0 016.372 4.104 18.697 18.697 0 014.105 6.265 20.962 20.962 0 011.296 7.56v24.086a20.964 20.964 0 01-1.296 7.561 18.703 18.703 0 01-4.105 6.264 18.364 18.364 0 01-6.372 4.104 20.726 20.726 0 01-7.561 1.296h-34.346a20.937 20.937 0 01-7.56-1.296 18.36 18.36 0 01-10.477-10.477 20.934 20.934 0 01-1.296-7.56V101.66a20.943 20.943 0 011.296-7.561 18.252 18.252 0 0110.477-10.477 20.959 20.959 0 017.56-1.296h34.346zm-34.346 14.581a4.212 4.212 0 00-4.752 4.753v24.085a4.214 4.214 0 004.752 4.752h34.346a5.072 5.072 0 003.565-1.188 4.966 4.966 0 001.188-3.564V101.66a4.97 4.97 0 00-1.188-3.565 5.081 5.081 0 00-3.565-1.188z" fill="#f4f0dc"/></svg>