<svg viewBox="0 0 1000 660" xmlns="http://www.w3.org/2000/svg"><path d="m0 660h1000v-660h-1000z" fill="#eae3d8"/><path d="m770.54 268.422c-5.077 0-9.865.862-14.176 2.49-4.597 1.82-8.525 4.406-11.878 7.758-3.352 3.257-5.938 7.281-7.662 11.782-1.724 4.406-2.586 9.195-2.586 14.176v46.169c0 5.077.862 9.866 2.586 14.176 1.724 4.598 4.31 8.525 7.662 11.878 3.353 3.352 7.281 5.939 11.878 7.663 4.311 1.724 9.099 2.586 14.176 2.586h69.254c4.98 0 9.769-.862 14.175-2.586 4.502-1.724 8.526-4.311 11.878-7.663 3.257-3.353 5.843-7.28 7.663-11.878 1.628-4.31 2.49-9.099 2.49-14.176v-46.169c0-4.981-.862-9.77-2.49-14.176-1.82-4.501-4.406-8.525-7.663-11.782-3.352-3.352-7.376-5.938-11.878-7.758-4.406-1.628-9.195-2.49-14.175-2.49zm69.254 26.341c2.202 0 5.267.383 7.374 2.49 2.108 2.108 2.491 5.172 2.491 7.375v46.169c0 2.299-.383 5.364-2.491 7.471-2.107 2.012-5.172 2.49-7.374 2.49h-69.254c-2.298 0-5.363-.478-7.471-2.49-2.011-2.107-2.49-5.172-2.49-7.471v-46.169c0-2.203.479-5.267 2.49-7.375 2.108-2.107 5.173-2.49 7.471-2.49zm-122.797 0v-26.341h-59.292c-5.077 0-9.866.862-14.176 2.49-4.598 1.82-8.525 4.406-11.877 7.758-3.353 3.257-5.939 7.281-7.663 11.782-1.725 4.406-2.587 9.195-2.587 14.176v82.472h26.341v-82.472c0-2.203.479-5.267 2.491-7.375 2.107-2.107 5.172-2.49 7.471-2.49zm-152.874 92.337c4.981 0 9.77-.862 14.176-2.491 4.502-1.819 8.525-4.406 11.877-7.758 3.257-3.257 5.843-7.28 7.663-11.782 1.628-4.406 2.49-9.195 2.49-14.176v-82.471h-26.341v82.471c0 2.203-.383 5.268-2.49 7.375s-5.172 2.49-7.375 2.49h-69.254c-2.298 0-5.363-.383-7.47-2.49-2.012-2.107-2.491-5.172-2.491-7.375v-82.471h-26.341v82.471c0 4.981.862 9.77 2.585 14.176 1.725 4.502 4.311 8.525 7.664 11.782 3.352 3.352 7.28 5.939 11.878 7.758 4.31 1.629 9.099 2.491 14.175 2.491zm-254.981-118.678v26.341h93.965c2.204 0 5.364.383 7.375 2.49 2.108 2.108 2.587 5.172 2.587 7.375v9.962h-79.215c-5.076 0-9.865.862-14.176 2.586-4.502 1.724-8.525 4.31-11.877 7.663-3.353 3.352-5.939 7.28-7.663 11.782-1.724 4.406-2.586 9.195-2.586 14.176 0 5.077.862 9.866 2.586 14.176 1.724 4.598 4.31 8.525 7.663 11.878 3.352 3.352 7.375 5.939 11.877 7.663 4.311 1.724 9.1 2.586 14.176 2.586h69.253c4.981 0 9.771-.862 14.176-2.586 4.503-1.724 8.526-4.311 11.878-7.663 3.353-3.353 5.939-7.28 7.663-11.878 1.723-4.31 2.586-9.099 2.586-14.176v-46.169c0-4.981-.863-9.77-2.586-14.176-1.724-4.501-4.31-8.525-7.663-11.782-3.352-3.352-7.375-5.938-11.878-7.758-4.405-1.628-9.195-2.49-14.176-2.49zm103.927 72.509v9.866c0 2.299-.479 5.364-2.587 7.471-2.011 2.012-5.171 2.49-7.375 2.49h-69.253c-2.298 0-5.364-.478-7.471-2.49-2.012-2.107-2.491-5.172-2.491-7.471 0-2.203.479-5.268 2.491-7.375 2.107-2.108 5.173-2.491 7.471-2.491zm-246.935-87.931c-5.652 0-10.919.958-15.805 2.874-4.981 1.915-9.386 4.693-13.026 8.429-3.736 3.64-6.514 8.045-8.429 13.026-1.916 4.886-2.874 10.153-2.874 15.805 0 5.556.958 10.824 2.874 15.709 1.915 4.981 4.693 9.387 8.429 13.123 3.64 3.639 8.045 6.513 13.026 8.429 4.886 1.915 10.153 2.874 15.805 2.874h76.915c3.066 0 7.281.574 10.25 3.543 2.969 2.97 3.544 7.184 3.544 10.153 0 3.066-.575 7.281-3.544 10.25s-7.184 3.543-10.25 3.543h-76.915c-3.065 0-7.28-.574-10.249-3.543-2.97-2.969-3.544-7.184-3.544-10.25h-26.341c0 5.652.958 10.92 2.874 15.805 1.915 4.981 4.693 9.387 8.429 13.027 3.64 3.736 8.045 6.514 13.026 8.429 4.886 1.916 10.153 2.874 15.805 2.874h76.915c5.652 0 10.92-.958 15.805-2.874 4.981-1.915 9.387-4.693 13.027-8.429 3.736-3.64 6.514-8.046 8.429-13.027 1.916-4.885 2.874-10.153 2.874-15.805 0-5.555-.958-10.824-2.874-15.708-1.915-4.981-4.693-9.388-8.429-13.123-3.64-3.64-8.046-6.513-13.027-8.429-4.885-1.916-10.153-2.778-15.805-2.778h-76.915c-3.065 0-7.28-.67-10.249-3.64-2.97-2.969-3.544-7.183-3.544-10.153 0-3.065.574-7.28 3.544-10.249 2.969-2.874 7.184-3.544 10.249-3.544h76.915c3.066 0 7.281.67 10.25 3.544 2.969 2.969 3.544 7.184 3.544 10.249h26.341c0-5.652-.958-10.919-2.874-15.805-1.915-4.981-4.693-9.386-8.429-13.026-3.64-3.736-8.046-6.514-13.027-8.429-4.885-1.916-10.153-2.874-15.805-2.874z"/></svg>