<svg viewBox="0 0 1000 660" xmlns="http://www.w3.org/2000/svg"><path d="m0 660h1000v-660h-1000z" fill="#eae3d8"/><path d="m805.479 261.478c-5.754 0-11.181.977-16.067 2.822-5.21 2.063-9.661 4.994-13.461 8.793-3.799 3.691-6.73 8.251-8.684 13.353-1.954 4.993-2.931 10.421-2.931 16.066v52.325c0 5.753.977 11.181 2.931 16.066 1.954 5.211 4.885 9.661 8.684 13.461 3.8 3.799 8.251 6.731 13.461 8.685 4.886 1.954 10.313 2.931 16.067 2.931h78.487c5.644 0 11.072-.977 16.066-2.931 5.102-1.954 9.662-4.886 13.461-8.685 3.691-3.8 6.622-8.25 8.685-13.461 1.845-4.885 2.822-10.313 2.822-16.066v-52.325c0-5.645-.977-11.073-2.822-16.066-2.063-5.102-4.994-9.662-8.685-13.353-3.799-3.799-8.359-6.73-13.461-8.793-4.994-1.845-10.422-2.822-16.066-2.822zm78.487 29.853c2.496 0 5.97.434 8.358 2.822 2.389 2.389 2.823 5.862 2.823 8.359v52.325c0 2.605-.434 6.079-2.823 8.467-2.388 2.28-5.862 2.822-8.358 2.822h-78.487c-2.605 0-6.079-.542-8.467-2.822-2.28-2.388-2.823-5.862-2.823-8.467v-52.325c0-2.497.543-5.97 2.823-8.359 2.388-2.388 5.862-2.822 8.467-2.822zm-139.17 0v-29.853h-67.197c-5.754 0-11.181.977-16.066 2.822-5.211 2.063-9.662 4.994-13.461 8.793-3.8 3.691-6.731 8.251-8.685 13.353-1.954 4.993-2.931 10.421-2.931 16.066v93.468h29.853v-93.468c0-2.497.543-5.97 2.823-8.359 2.388-2.388 5.862-2.822 8.467-2.822zm-173.257 104.649c5.645 0 11.073-.977 16.066-2.823 5.103-2.062 9.662-4.994 13.461-8.793 3.691-3.691 6.622-8.25 8.685-13.352 1.845-4.994 2.822-10.422 2.822-16.067v-93.467h-29.853v93.467c0 2.497-.434 5.971-2.822 8.359s-5.862 2.822-8.359 2.822h-78.487c-2.605 0-6.079-.434-8.467-2.822-2.28-2.388-2.823-5.862-2.823-8.359v-93.467h-29.853v93.467c0 5.645.977 11.073 2.931 16.067 1.954 5.102 4.885 9.661 8.685 13.352 3.799 3.799 8.25 6.731 13.461 8.793 4.885 1.846 10.313 2.823 16.066 2.823zm-288.978-134.502v29.853h106.494c2.497 0 6.079.434 8.359 2.822 2.388 2.389 2.931 5.862 2.931 8.359v11.29h-89.777c-5.753 0-11.181.977-16.066 2.931-5.102 1.954-9.662 4.885-13.461 8.685-3.8 3.799-6.731 8.25-8.685 13.352-1.954 4.994-2.931 10.422-2.931 16.067 0 5.753.977 11.181 2.931 16.066 1.954 5.211 4.885 9.661 8.685 13.461 3.799 3.799 8.359 6.731 13.461 8.685 4.885 1.954 10.313 2.931 16.066 2.931h78.487c5.645 0 11.073-.977 16.066-2.931 5.103-1.954 9.662-4.886 13.461-8.685 3.8-3.8 6.731-8.25 8.685-13.461 1.954-4.885 2.931-10.313 2.931-16.066v-52.325c0-5.645-.977-11.073-2.931-16.066-1.954-5.102-4.885-9.662-8.685-13.353-3.799-3.799-8.358-6.73-13.461-8.793-4.993-1.845-10.421-2.822-16.066-2.822zm117.784 82.177v11.182c0 2.605-.543 6.079-2.931 8.467-2.28 2.28-5.862 2.822-8.359 2.822h-78.487c-2.605 0-6.079-.542-8.467-2.822-2.28-2.388-2.823-5.862-2.823-8.467 0-2.497.543-5.971 2.823-8.359 2.388-2.389 5.862-2.823 8.467-2.823zm-279.86-99.655c-6.405 0-12.375 1.086-17.912 3.257-5.645 2.171-10.638 5.319-14.763 9.553-4.234 4.125-7.382 9.118-9.553 14.763-2.171 5.537-3.257 11.507-3.257 17.912 0 6.297 1.086 12.267 3.257 17.804 2.171 5.645 5.319 10.638 9.553 14.872 4.125 4.125 9.118 7.382 14.763 9.553 5.537 2.171 11.507 3.257 17.912 3.257h87.171c3.474 0 8.251.651 11.616 4.016 3.365 3.366 4.017 8.142 4.017 11.507 0 3.474-.652 8.251-4.017 11.616s-8.142 4.016-11.616 4.016h-87.171c-3.474 0-8.25-.651-11.615-4.016-3.366-3.365-4.017-8.142-4.017-11.616h-29.853c0 6.405 1.086 12.376 3.257 17.912 2.171 5.645 5.319 10.639 9.553 14.764 4.125 4.234 9.118 7.382 14.763 9.553 5.537 2.171 11.507 3.257 17.912 3.257h87.171c6.405 0 12.376-1.086 17.912-3.257 5.645-2.171 10.639-5.319 14.764-9.553 4.234-4.125 7.382-9.119 9.553-14.764 2.171-5.536 3.257-11.507 3.257-17.912 0-6.296-1.086-12.267-3.257-17.803-2.171-5.645-5.319-10.639-9.553-14.872-4.125-4.126-9.119-7.382-14.764-9.553-5.536-2.172-11.507-3.149-17.912-3.149h-87.171c-3.474 0-8.25-.759-11.615-4.125-3.366-3.365-4.017-8.141-4.017-11.507 0-3.474.651-8.25 4.017-11.615 3.365-3.257 8.141-4.017 11.615-4.017h87.171c3.474 0 8.251.76 11.616 4.017 3.365 3.365 4.017 8.141 4.017 11.615h29.853c0-6.405-1.086-12.375-3.257-17.912-2.171-5.645-5.319-10.638-9.553-14.763-4.125-4.234-9.119-7.382-14.764-9.553-5.536-2.171-11.507-3.257-17.912-3.257z"/></svg>