<svg viewBox="0 0 1000 660" xmlns="http://www.w3.org/2000/svg"><path d="m0 660h1000v-660h-1000z" fill="#eae3d8"/><path d="m357.316 514.355c2.472-.024 4.927.415 7.237 1.296 2.225.825 4.25 2.114 5.94 3.78 1.662 1.694 2.95 3.718 3.78 5.941.868 2.276 1.307 4.692 1.296 7.128h-10.044c0-5.076-3.025-8.1-8.101-8.1h-37.695c-5.076 0-8.1 3.024-8.1 8.1 0 5.077 3.024 8.101 8.1 8.101h37.587c2.472-.024 4.926.415 7.236 1.296 2.234.859 4.259 2.185 5.941 3.888 1.644 1.666 2.931 3.651 3.78 5.833.871 2.312 1.311 4.765 1.296 7.236.011 2.436-.428 4.853-1.296 7.129-.83 2.223-2.118 4.246-3.78 5.94-1.69 1.667-3.715 2.955-5.94 3.78-2.311.878-4.765 1.318-7.237 1.296h-37.587c-2.436.011-4.852-.428-7.128-1.296-4.49-1.687-8.033-5.23-9.721-9.72-.867-2.276-1.307-4.693-1.296-7.129h10.045c0 5.076 3.024 8.1 8.1 8.1h37.587c5.076 0 8.1-3.024 8.1-8.1s-3.024-8.1-8.1-8.1h-37.587c-2.436.01-4.852-.429-7.128-1.297-2.223-.83-4.247-2.118-5.94-3.78-1.657-1.697-2.945-3.72-3.781-5.94-.871-2.313-1.31-4.766-1.296-7.237-.011-2.436.429-4.852 1.296-7.128 1.687-4.49 5.231-8.034 9.721-9.721 2.276-.867 4.692-1.307 7.128-1.296zm86.19 62.644-4.861-9.397h-44.283l-4.86 9.397h-11.341l32.403-62.644h11.773l32.402 62.644zm-10.045-19.441-16.957-32.618-16.849 32.618zm97.963 1.296c.01 2.436-.429 4.852-1.296 7.128-.866 2.231-2.191 4.255-3.889 5.941-1.656 1.657-3.643 2.945-5.832 3.78-2.312.871-4.765 1.31-7.236 1.296h-37.479c-2.471.014-4.924-.425-7.237-1.296-4.467-1.723-7.998-5.254-9.72-9.721-.868-2.276-1.307-4.692-1.296-7.128v-44.499h10.044v44.499c0 5.076 3.025 8.1 8.101 8.1h37.587c5.076 0 8.1-3.024 8.1-8.1v-44.499h10.045v44.499zm66.424-44.499c2.472-.024 4.927.415 7.237 1.296 2.225.825 4.25 2.114 5.94 3.78 1.662 1.694 2.95 3.718 3.78 5.941.868 2.276 1.307 4.692 1.296 7.128.015 2.471-.425 4.924-1.296 7.237-.852 2.212-2.137 4.231-3.78 5.94-1.701 1.652-3.723 2.938-5.94 3.78-1.902.735-3.906 1.172-5.941 1.297l16.957 26.245h-11.989l-16.849-26.245h-35.102v26.245h-10.045v-62.644zm-45.687 26.354h45.687c5.076 0 8.101-3.025 8.101-8.101s-3.025-8.101-8.101-8.101h-45.687zm126.801-26.354c2.472-.024 4.926.415 7.236 1.296 2.225.825 4.25 2.113 5.94 3.78 1.662 1.694 2.95 3.718 3.781 5.941.867 2.276 1.306 4.693 1.296 7.128v26.354c.01 2.436-.429 4.853-1.296 7.129-.831 2.223-2.119 4.246-3.781 5.94-1.69 1.667-3.714 2.956-5.94 3.78-2.31.878-4.764 1.318-7.236 1.296h-37.587c-2.436.011-4.853-.428-7.129-1.296-4.49-1.687-8.033-5.231-9.72-9.721-.868-2.276-1.307-4.692-1.296-7.128v-26.354c-.011-2.436.428-4.852 1.296-7.128 1.687-4.49 5.23-8.034 9.72-9.721 2.276-.867 4.693-1.307 7.129-1.296zm-37.587 10.045c-5.076 0-8.1 3.024-8.1 8.1v26.354c0 5.076 3.024 8.1 8.1 8.1h37.587c5.076 0 8.1-3.024 8.1-8.1v-26.354c0-5.076-3.024-8.1-8.1-8.1zm-210.722-118.052c2.471-.014 4.924.425 7.236 1.296 2.277.836 4.342 2.164 6.049 3.888 1.703 1.724 3.027 3.784 3.888 6.049.899 2.342 1.339 4.836 1.296 7.344h-11.233c.141-1.974-.521-3.921-1.836-5.4-1.468-1.343-3.413-2.043-5.4-1.944h-36.723c-2.604 0-5.011 1.389-6.313 3.645-1.303 2.256-1.303 5.034 0 7.29 1.302 2.255 3.709 3.645 6.313 3.645h36.723c2.471-.014 4.924.426 7.236 1.297 2.277.836 4.342 2.164 6.049 3.888 1.703 1.723 3.027 3.783 3.888 6.048 1.736 4.705 1.736 9.876 0 14.581-.861 2.265-2.185 4.325-3.888 6.049-1.707 1.724-3.772 3.051-6.049 3.888-2.327.795-4.778 1.161-7.236 1.08h-36.723c-2.47.01-4.922-.43-7.236-1.296-4.578-1.744-8.193-5.359-9.937-9.937-.866-2.314-1.305-4.766-1.296-7.236h11.233c-.166 1.965.543 3.904 1.938 5.299 1.394 1.394 3.333 2.103 5.298 1.937h36.723c1.987.099 3.932-.601 5.4-1.944 2.51-3.123 2.51-7.571 0-10.693-1.468-1.343-3.413-2.042-5.4-1.943h-36.723c-2.47.009-4.922-.43-7.236-1.297-4.578-1.743-8.193-5.358-9.937-9.936-1.736-4.705-1.736-9.876 0-14.581 1.744-4.578 5.359-8.193 9.937-9.937 2.327-.793 4.779-1.159 7.236-1.08zm85.758 62.644-4.753-9.181h-42.555l-4.752 9.181h-12.529l32.402-62.644h12.313l32.403 62.644zm-10.585-20.413-15.445-29.81-15.445 29.81zm99.583 1.944c.032 2.473-.408 4.929-1.297 7.236-1.695 4.571-5.276 8.192-9.828 9.937-2.349.877-4.838 1.316-7.345 1.296h-36.722c-2.507.02-4.996-.419-7.345-1.296-4.578-1.744-8.193-5.359-9.936-9.937-.867-2.314-1.306-4.765-1.296-7.236v-44.175h11.232v44.175c-.169 1.986.554 3.944 1.974 5.342 1.42 1.399 3.388 2.093 5.371 1.894h36.722c1.983.201 3.954-.492 5.374-1.891s2.143-3.359 1.971-5.345v-44.175h11.233v44.175zm65.884-44.175c2.471-.014 4.924.425 7.237 1.296 2.277.836 4.342 2.164 6.048 3.888 1.703 1.723 3.028 3.784 3.888 6.049 1.736 4.705 1.736 9.875 0 14.58-.86 2.265-2.184 4.326-3.888 6.049-1.706 1.724-3.771 3.052-6.048 3.888-1.733.656-3.553 1.056-5.401 1.188l16.633 25.706h-13.285l-16.525-25.706h-32.618v25.706h-11.233v-62.644zm-44.067 25.706h44.067c1.988.099 3.932-.601 5.4-1.945 2.51-3.122 2.51-7.57 0-10.692-1.468-1.343-3.413-2.043-5.4-1.944h-43.959v14.581zm124.964-25.706c2.471-.014 4.924.425 7.237 1.296 2.277.836 4.342 2.164 6.048 3.888 1.704 1.723 3.028 3.784 3.889 6.049.899 2.342 1.339 4.836 1.296 7.344v25.706c.032 2.472-.408 4.928-1.296 7.236-.861 2.265-2.185 4.326-3.889 6.049-1.706 1.724-3.771 3.052-6.048 3.888-2.313.869-4.766 1.308-7.237 1.296h-36.83c-2.471.01-4.923-.429-7.237-1.296-4.578-1.744-8.193-5.359-9.936-9.937-.867-2.314-1.306-4.765-1.296-7.236v-25.814c-.021-2.507.419-4.996 1.296-7.344 1.743-4.578 5.358-8.193 9.936-9.937 2.314-.866 4.766-1.306 7.237-1.296h36.83zm-36.83 11.233c-1.986-.171-3.945.551-5.344 1.971s-2.093 3.39-1.893 5.373v25.706c-.166 1.965.543 3.904 1.938 5.299 1.395 1.394 3.334 2.103 5.299 1.937h36.83c1.988.099 3.932-.601 5.401-1.944 1.287-1.452 1.947-3.355 1.836-5.292v-25.814c.141-1.974-.521-3.921-1.836-5.4-1.468-1.343-3.413-2.043-5.4-1.944h-36.831zm-358.692-119.24c2.508-.033 4.999.407 7.344 1.296 4.634 1.754 8.291 5.411 10.045 10.045.887 2.346 1.326 4.837 1.296 7.344h-12.205c.097-1.734-.484-3.438-1.62-4.752-1.325-1.117-3.021-1.695-4.752-1.621h-36.075c-1.731-.074-3.427.504-4.752 1.621-2.009 1.854-2.638 4.769-1.573 7.287 1.065 2.517 3.596 4.096 6.325 3.945h35.967c2.508-.032 4.999.407 7.344 1.296 4.641 1.742 8.303 5.404 10.045 10.045 1.782 4.734 1.782 9.955 0 14.689-1.754 4.633-5.412 8.291-10.045 10.045-2.346.886-4.837 1.326-7.344 1.296h-35.967c-2.507.03-4.998-.41-7.344-1.296-4.633-1.754-8.291-5.412-10.045-10.045-.886-2.346-1.326-4.837-1.296-7.344h12.313c-.21 1.775.404 3.548 1.668 4.812s3.037 1.878 4.812 1.668h35.967c2.495.325 4.953-.824 6.304-2.947 1.35-2.123 1.35-4.836-.002-6.958-1.35-2.123-3.807-3.272-6.302-2.948h-36.075c-2.507.03-4.998-.409-7.344-1.296-4.641-1.742-8.303-5.404-10.045-10.045-1.782-4.734-1.782-9.955 0-14.689 1.754-4.633 5.412-8.29 10.045-10.044 2.345-.889 4.836-1.329 7.344-1.296h35.967zm85.326 62.644-4.645-8.965h-40.718l-4.645 8.965h-13.933l32.402-62.644h12.853l32.403 62.644zm-11.017-21.278-13.933-27.001-14.041 27.001zm100.987 2.485c.032 2.508-.407 4.999-1.296 7.344-1.754 4.633-5.412 8.291-10.045 10.045-2.346.886-4.837 1.326-7.345 1.296h-35.966c-2.508.03-4.999-.41-7.345-1.296-2.272-.846-4.335-2.172-6.048-3.888-1.74-1.715-3.101-3.776-3.996-6.049-.868-2.351-1.307-4.838-1.296-7.344v-43.959h12.313v43.851c-.212 1.775.402 3.549 1.667 4.814 1.264 1.264 3.038 1.878 4.813 1.666h35.966c1.735.097 3.439-.484 4.753-1.62 1.117-1.325 1.695-3.021 1.62-4.752v-43.959h12.313v43.851zm65.452-43.851c2.508-.033 4.999.407 7.344 1.296 4.634 1.753 8.292 5.411 10.045 10.045 1.783 4.734 1.783 9.954 0 14.688-1.742 4.641-5.403 8.303-10.044 10.045-1.598.61-3.268 1.009-4.969 1.188l16.309 25.382h-14.581l-16.201-25.166h-30.242v25.166h-12.313v-62.644zm-42.339 25.165h42.339c1.749.068 3.455-.553 4.752-1.728 2.201-2.786 2.201-6.718 0-9.504-1.325-1.117-3.021-1.695-4.752-1.621h-42.339zm122.912-25.165c2.508-.033 5 .407 7.345 1.296 4.633 1.754 8.291 5.412 10.045 10.045.886 2.346 1.326 4.837 1.296 7.344v25.166c.032 2.508-.407 4.999-1.296 7.344-1.754 4.633-5.412 8.291-10.045 10.045-2.339.923-4.83 1.4-7.345 1.404h-35.966c-2.507.03-4.999-.41-7.344-1.296-4.633-1.754-8.291-5.412-10.045-10.045-.887-2.346-1.326-4.837-1.296-7.344v-25.166c-.03-2.508.409-4.999 1.296-7.345 1.754-4.633 5.412-8.291 10.045-10.044 2.345-.889 4.836-1.329 7.344-1.296h35.966zm-35.966 12.312c-1.731-.074-3.427.504-4.752 1.621-1.136 1.314-1.717 3.018-1.62 4.752v25.166c-.212 1.775.402 3.549 1.667 4.814 1.264 1.264 3.038 1.878 4.813 1.666h35.858c1.775.211 3.549-.403 4.813-1.667s1.879-3.038 1.668-4.813v-25.058c.097-1.734-.484-3.439-1.62-4.753-1.325-1.116-3.021-1.694-4.752-1.62h-36.075zm-358.908-120.32c2.544-.038 5.072.402 7.453 1.297 2.349.871 4.484 2.233 6.264 3.996 1.75 1.79 3.111 3.923 3.996 6.264.895 2.381 1.335 4.909 1.296 7.453h-13.393c.094-1.533-.409-3.043-1.404-4.213-1.17-.995-2.679-1.498-4.212-1.404h-35.102c-2.007 0-3.861 1.07-4.864 2.808-1.004 1.737-1.004 3.878-.001 5.616s2.857 2.809 4.864 2.809h35.211c2.544-.038 5.072.401 7.453 1.296 2.348.871 4.484 2.234 6.264 3.996 1.75 1.79 3.111 3.923 3.996 6.265 1.797 4.806 1.797 10.099 0 14.905-.885 2.341-2.246 4.474-3.996 6.264-1.78 1.763-3.916 3.125-6.264 3.997-2.381.895-4.909 1.334-7.453 1.295h-35.21c-2.544.039-5.072-.4-7.453-1.295-4.728-1.799-8.462-5.533-10.261-10.261-.895-2.381-1.334-4.909-1.295-7.453h13.392c-.218 1.546.303 3.105 1.407 4.21 1.105 1.104 2.664 1.625 4.21 1.407h35.21c1.533.094 3.042-.409 4.212-1.404 1.892-2.45 1.892-5.867 0-8.317-1.17-.995-2.679-1.498-4.212-1.404h-35.21c-2.55.004-5.079-.472-7.453-1.404-4.728-1.799-8.462-5.533-10.261-10.261-1.796-4.806-1.796-10.099 0-14.905 1.799-4.728 5.533-8.462 10.261-10.26 2.381-.896 4.909-1.336 7.453-1.297h35.21zm84.894 62.644-4.536-8.748h-38.991l-4.537 8.748h-15.12l32.402-62.644h13.501l32.402 62.644zm-11.449-22.141-12.529-24.301-12.529 24.301zm102.499 3.132c.038 2.544-.401 5.072-1.296 7.453-.853 2.358-2.218 4.497-3.997 6.264-1.744 1.755-3.843 3.118-6.156 3.997-2.384.885-4.91 1.324-7.452 1.296l-35.319-.001c-2.542.029-5.068-.41-7.452-1.295-2.344-.88-4.479-2.242-6.265-3.997-1.765-1.778-3.128-3.914-3.996-6.264-.895-2.381-1.335-4.909-1.296-7.453v-43.635h13.501v43.635c-.118 1.536.388 3.055 1.404 4.213 1.17.995 2.679 1.498 4.212 1.404h35.102c1.533.094 3.043-.409 4.213-1.404 1.015-1.158 1.522-2.677 1.404-4.213v-43.635h13.393zm64.912-43.635c2.544-.039 5.072.401 7.453 1.297 2.32.916 4.418 2.315 6.156 4.104 1.75 1.79 3.111 3.923 3.996 6.264 1.797 4.806 1.797 10.099 0 14.905-.885 2.342-2.246 4.475-3.996 6.265-1.78 1.762-3.916 3.125-6.264 3.996-1.424.546-2.912.909-4.428 1.08l16.092 24.733h-15.985l-15.877-24.625h-27.974v24.625h-13.393v-62.644zm-40.719 24.626h40.719c1.533.094 3.042-.409 4.212-1.404 1.892-2.45 1.892-5.867 0-8.317-1.17-.995-2.679-1.498-4.212-1.404h-40.827v11.233zm121.077-24.626c2.543-.038 5.071.401 7.452 1.297 2.349.871 4.485 2.233 6.265 3.996 1.749 1.79 3.11 3.923 3.996 6.264.895 2.381 1.334 4.909 1.296 7.453v24.625c.038 2.544-.401 5.072-1.296 7.453-.886 2.341-2.246 4.474-3.996 6.264-1.78 1.763-3.916 3.125-6.265 3.997-2.381.895-4.909 1.334-7.452 1.295h-35.211c-2.543.039-5.071-.4-7.452-1.295-4.728-1.799-8.462-5.533-10.261-10.261-.895-2.381-1.335-4.909-1.296-7.453v-24.625c-.039-2.544.401-5.072 1.296-7.453 1.798-4.728 5.532-8.462 10.261-10.26 2.381-.895 4.909-1.335 7.452-1.297zm-35.211 13.393c-1.546-.218-3.105.303-4.21 1.407-1.104 1.105-1.625 2.664-1.406 4.21v24.625c-.22 1.546.301 3.106 1.406 4.211 1.104 1.104 2.664 1.625 4.21 1.406h35.211c1.533.094 3.042-.409 4.212-1.404.995-1.17 1.498-2.68 1.404-4.213v-24.625c.094-1.533-.409-3.043-1.404-4.213-1.17-.994-2.679-1.498-4.212-1.404zm-213.098-121.4c2.579-.042 5.143.398 7.56 1.296 2.387.91 4.557 2.308 6.373 4.104 1.777 1.79 3.173 3.921 4.104 6.265.894 2.419 1.333 4.982 1.296 7.56h-14.581c.086-1.298-.34-2.577-1.188-3.564-.993-.837-2.268-1.262-3.564-1.188h-34.347c-1.308-.182-2.625.26-3.558 1.194-.934.933-1.376 2.25-1.194 3.558-.074 1.296.351 2.572 1.188 3.565.987.847 2.266 1.274 3.564 1.188h34.347c2.579-.042 5.143.398 7.56 1.296 2.388.907 4.559 2.305 6.373 4.104 1.768 1.797 3.163 3.926 4.104 6.265.889 2.42 1.328 4.982 1.296 7.56.037 2.579-.402 5.142-1.296 7.561-.931 2.344-2.327 4.474-4.104 6.264-1.816 1.797-3.986 3.194-6.373 4.104-2.417.899-4.981 1.338-7.56 1.296h-34.347c-2.578.037-5.141-.402-7.56-1.296-4.809-1.865-8.611-5.667-10.477-10.476-.893-2.419-1.332-4.982-1.296-7.561h14.581c-.182 1.308.26 2.625 1.194 3.558.933.934 2.25 1.376 3.558 1.194h34.347c1.296.075 2.572-.35 3.564-1.188.848-.987 1.274-2.266 1.188-3.564.232-1.318-.193-2.666-1.14-3.612-.946-.947-2.294-1.372-3.612-1.14h-34.347c-2.585.002-5.148-.474-7.56-1.404-2.352-.915-4.486-2.313-6.264-4.104-1.779-1.788-3.176-3.92-4.105-6.265-1.802-4.879-1.802-10.242 0-15.121 1.855-4.816 5.661-8.622 10.477-10.477 2.419-.893 4.982-1.333 7.561-1.296h34.346zm84.569 62.644-4.428-8.64h-37.262l-4.429 8.64h-16.416l32.402-62.644h14.04l32.403 62.644zm-11.988-23.113-11.017-21.386-11.125 21.386zm103.903 3.78c.036 2.579-.403 5.142-1.296 7.561-.932 2.343-2.328 4.474-4.105 6.264-1.815 1.796-3.986 3.194-6.372 4.104-2.417.899-4.981 1.338-7.56 1.296h-34.239c-2.579.037-5.142-.402-7.561-1.296-4.809-1.866-8.611-5.668-10.476-10.477-.894-2.419-1.333-4.982-1.296-7.56v-43.203h14.581v43.311c-.181 1.307.261 2.624 1.194 3.558.934.933 2.251 1.375 3.558 1.194h34.346c1.297.075 2.573-.35 3.565-1.188.847-.987 1.274-2.266 1.188-3.564v-43.311h14.581v43.311zm64.48-43.311c2.579-.042 5.143.398 7.561 1.296 2.386.91 4.556 2.308 6.372 4.104 1.777 1.79 3.173 3.921 4.104 6.265 1.803 4.879 1.803 10.242 0 15.121-.942 2.338-2.337 4.467-4.104 6.265-2.79 2.703-6.327 4.509-10.153 5.184l15.445 24.409h-17.281l-15.445-23.977h-25.706v23.977h-14.472v-62.644zm-39.099 24.086h39.099c1.308.182 2.625-.26 3.558-1.194.934-.933 1.376-2.25 1.194-3.558.086-1.298-.341-2.578-1.188-3.565-.993-.837-2.268-1.262-3.564-1.188h-39.207v9.505zm119.132-24.086c2.579-.042 5.143.398 7.561 1.296 2.386.91 4.557 2.308 6.372 4.104 1.777 1.79 3.173 3.921 4.105 6.265.893 2.419 1.333 4.982 1.296 7.56v24.086c.037 2.579-.403 5.142-1.296 7.561-.932 2.343-2.328 4.474-4.105 6.264-1.815 1.796-3.986 3.194-6.372 4.104-2.418.899-4.982 1.338-7.561 1.296h-34.346c-2.578.037-5.141-.402-7.56-1.296-4.809-1.866-8.611-5.668-10.477-10.477-.894-2.419-1.333-4.982-1.296-7.56v-23.869c-.037-2.579.402-5.142 1.296-7.561 1.854-4.817 5.66-8.623 10.477-10.477 2.419-.893 4.982-1.333 7.56-1.296zm-34.346 14.581c-1.308-.182-2.625.26-3.559 1.194-.933.934-1.375 2.251-1.193 3.559v24.085c-.181 1.307.261 2.624 1.195 3.558.933.933 2.25 1.375 3.557 1.194h34.346c1.297.075 2.573-.35 3.565-1.188.848-.987 1.274-2.266 1.188-3.564v-24.085c.086-1.298-.341-2.578-1.188-3.565-.993-.837-2.268-1.262-3.565-1.188z"/></svg>