<svg xmlns="http://www.w3.org/2000/svg" viewBox="0 0 1000 660"><path fill="#eae3d8" d="M0 660h1000V0H0Z"/><path fill-rule="evenodd" d="M295.05 509.54c-3.75 0-7.22-.41-10.56-1.1-10.28-2.37-16.8-9.32-16.8-19.73 0-.98 0-1.81.13-2.78l14.59-15.28c-.14.97-.14 1.94-.14 2.92 0 8.89 4.72 15.55 13.2 18.47a44.79 44.79 0 0 0 13.89 2.22c5.41 0 11.1-.97 15.97-2.91.42-1.67.97-3.48 1.11-5.14.14-.98.14-1.81.14-2.78 0-6.53-2.5-12.5-7.78-16.12-8.2-5.7-18.47-3.47-28.06-5.55-7.91-1.8-12.92-7.5-12.92-15.14 0-7.92 5-12.5 9.73-17.5 13.75-15.14 15.41-16.95 33.61-16.95 8.61 0 17.23.14 25.84.14l-14.59 15.28H312.7c-2.5 0-5-.14-7.5-.14-4.3 0-8.61.28-12.78 1.39-.14.97-.28 1.94-.28 2.92 0 10 8.75 14.72 18.61 15.41 10.14.56 22.1.7 27.65 10.14 1.66 2.78 2.64 6.53 2.64 10.7 0 5.55-1.8 12.36-6.4 17.22l-7.36 7.92-7.36 7.5c-6.53 6.67-15.97 8.9-24.86 8.9Zm51.53 0 8.62-81.95 14.44-15.28-1.67 15.28-4.3 40.98-2.64 25.55h58.48l-14.45 15.42h-58.48Zm17.09-40.97 14.58-15.42h28.06l-14.58 15.42h-28.06Zm4.3-40.98 14.59-15.28h45.56l-14.44 15.28h-45.7Zm58.2 81.95 8.62-81.81 14.58-15.42H473c7.36 0 15 0 21.53 2.91 7.22 3.34 10.97 10.42 10.97 18.06 0 5.84-2.08 12.09-6.39 16.95l-5.55 6.11-6.67 6.95 12.36 30.97-14.58 15.28-13.76-35.14h-28.06l14.45-15.28c3.61 0 7.5.14 11.8.14 7.1 0 14.73-.42 20.7-2.78.56-1.8.84-3.61 1.12-5.42.14-.83.14-1.8.14-2.64 0-7.08-3.2-13.47-9.59-17.08-5.97-3.2-13.06-3.9-20.28-3.9-4.58 0-9.17.29-13.47.29l-6.95 66.53-14.58 15.28Zm81.13 0 8.61-81.95 14.59-15.28-8.62 81.95-14.58 15.28Zm63.34 0c-21.25 0-36.67-17.22-36.67-37.09 0-1.52.14-2.91.28-4.3a42.3 42.3 0 0 1 5.97-17.64c4.44-7.23 10.83-13.34 16.8-19.45 5.29-5.7 10.7-10.83 17.79-14.3 7.36-3.62 15-4.31 22.92-4.45h24.58l-14.58 15.42c-6.25 0-12.78-.42-19.45-.42-11.67 0-23.34 1.25-33.9 8.2a43.76 43.76 0 0 0-5.83 21.66c0 11.26 4.59 22.09 13.34 29.17 6.67 5.28 15 7.92 23.61 7.92a43.72 43.72 0 0 0 28.88-11.13 40.29 40.29 0 0 1-1.37-10.54c0-1.25 0-2.64.14-4.02.27-1.81.55-3.76 1.1-5.56a41.9 41.9 0 0 1 8.76-17.78c4.44-5.42 10.14-9.86 14.44-15.28a44.7 44.7 0 0 0-9.58 23.34c-.14 1.52-.28 2.91-.28 4.44 0 8.89 2.92 17.5 8.75 24.17 7.09 8.06 17.37 12.22 28.06 12.22 8.34 0 17.09-2.5 24.73-7.64a44.12 44.12 0 0 0 5.83-17.64c.14-1.39.28-2.91.28-4.3 0-10.28-3.89-20.15-11.4-27.1-9.3-8.6-21.66-10.13-34.58-10.13-6.8 0-13.61.42-20.14.42l14.58-15.42h23.2c7.23 0 14.17.28 20.56 2.91 11.8 4.73 20 15.42 21.8 28.2.42 2.36.57 4.59.57 6.67 0 5.97-1.4 11.11-4.03 16.95-3.34 7.08-8.48 12.64-13.9 18.33-10 10.84-19.86 20.84-34.72 23.48a44 44 0 0 1-7.36.7c-10.56 0-20.42-4.04-27.23-11.4a35.93 35.93 0 0 1-8.02-14.34 198.82 198.82 0 0 1-13.51 13.65c-6.67 5.83-14.59 10-23.06 11.39-2.5.42-5 .7-7.36.7ZM659.85 356.17c-33.17 0-60.34-28.88-60.34-61.2 0-8.57 2-17.72 6.3-26.3 6-11.72 16-21.73 24.3-31.74 8-9.15 15.44-18.58 26.02-24.59 10.87-6.29 22.3-8.3 34.6-8h43.46l-26.6 31.45c-10.86 0-22.58-.86-34.3-.86-15.44 0-30.89 1.43-43.75 8.86a61.78 61.78 0 0 0-3.43 20.3c0 19.45 9.15 38.32 25.73 49.76a59.07 59.07 0 0 0 34.03 10.58 60.84 60.84 0 0 0 42.6-17.16l1-1.16a59.3 59.3 0 0 1-1-10.85 57.5 57.5 0 0 1 4.86-23.44l26.6-31.46c-3.44 8-5.15 16.02-5.15 23.74 0 32.88 28.59 60.33 60.9 60.33 9.72 0 19.73-2.57 29.45-8 2.57-6.87 3.72-14.6 3.72-22.6 0-19.15-7.72-38.88-24.3-49.18-12.01-7.43-25.45-8.86-39.18-8.86h-44.89l26.3-31.45h36.9c11.71 0 23.15-.3 34.3 3.14 20.59 6 33.17 23.16 36.32 44.03.57 3.72.85 7.44.85 11.16 0 15.44-5.43 29.73-22.01 50.04-14.3 17.44-27.74 36.3-50.9 41.74a58.7 58.7 0 0 1-14.01 1.72c-29.29 0-53.45-22.3-58.7-49.77l-6.78 8.3c-5.14 6.01-10.3 12.3-15.72 18.3-8.3 9.73-18.59 17.45-31.17 20.88a63.66 63.66 0 0 1-16.01 2.29Zm-78.06-188.15 12-36.02-26.58 31.45-12.01 36.03Zm-2.86 156.7V204.33l-26.6 31.45v120.38Zm-80.63 2c-15.16 0-24.6-8.01-29.17-16.3-6-10.58-7.15-23.16-7.15-35.46 0-5.43.29-10.86.29-16.3v-54.32l-26.6 31.45c0 15.44-.28 30.88-.28 46.6 0 10.3 0 20.6.57 30.89.86 22.3 10.3 44.89 36.03 44.89Zm21.73-90.93 26.59-31.45h-58.05l-26.3 31.45ZM344.18 356.17c5.43 0 10.86-.58 16.58-2.3 13.16-4 23.45-12.29 32.31-22.87a404.5 404.5 0 0 0 14.3-16.87c2.57-2.86 5.15-6 10.86-13.43l-5.71 6.57c-10.58 11.44-26.31 17.16-42.04 17.16-12.3 0-24.3-3.43-34.6-10.58-16.3-11.44-25.73-30.6-25.73-49.75 0-6.87 1.15-13.44 3.43-20.02 12.87-7.43 26.88-8.3 41.18-8.3h37.17v23.46c0 2.85 0 5.71-.29 8.57-8.29 2.3-18.3 2.58-27.73 2.58h-13.73l-26.59 31.74h12.87c32.02 0 38.31-1.72 62.9-31.46 5.44-6.57 12.01-13.15 15.73-20.87 3.72-7.72 3.14-16.58 3.14-24.88v-20.58H378.2c-13.43 0-26.3 1.14-38.31 8-10.58 6.3-18.3 16.01-26.02 25.16-8.58 10.01-18.3 20.3-24.3 32.03a56.47 56.47 0 0 0-6 25.73c0 32.31 27.44 60.9 60.6 60.9Zm-157.84 0c18.3 0 37.18-4.58 49.18-18.3l13.44-15.44 13.44-16.3c7.15-8.58 9.72-19.73 9.72-30.02 0-10.58-3.14-20.6-8-27.45-13.44-19.45-38.03-19.73-59.19-20.88-22.02-1.43-42.6-13.15-41.46-37.74 8.3-2.29 16.87-2.86 25.73-2.86 5.15 0 10.58.29 15.73.29h40.6l26.6-31.46c-17.73 0-35.46-.28-53.19-.28-37.46 0-40.6 3.71-65.48 34.88-8 9.44-16.3 18.3-16.3 32.31 0 17.73 12.01 30.88 29.74 34.89 20.3 4.28 40.89-.29 59.19 11.43 13.15 8.58 19.73 23.45 19.73 38.89 0 3.43-.57 7.15-1.15 10.58-9.72 4-21.15 6-32.3 6-10.01 0-20.3-1.71-29.17-4.57-20.02-6.58-31.45-22.88-31.45-44.03l-26.6 31.45c0 24.59 15.73 41.17 39.18 46.32 6.86 1.43 14.3 2.29 22.01 2.29Z"/></svg>