<svg viewBox="0 0 1000 660" xmlns="http://www.w3.org/2000/svg"><path d="m0 660h1000v-660h-1000z" fill="#eae3d8"/><path d="m272.493 211.101-26.687 31.567h-40.747c-13.768 0-28.119-1.119-41.608 2.586-1.119 24.627 19.512 36.448 41.608 37.881 21.269 1.119 45.896 1.433 59.396 20.944 9.47 13.197 12.314 39.313-1.724 57.672l-13.433 16.354-13.432 15.493c-17.508 18.94-47.631 20.944-71.452 16.063-23.631-5.16-39.414-21.806-39.414-46.489l26.686-31.567c0 21.269 11.474 37.59 31.568 44.194 18.94 6.314 43.041 6.314 61.69-1.433 3.728-18.649-2.295-39.022-18.649-49.645-18.37-11.765-39.023-7.176-59.396-11.474-19.511-4.299-32.138-19.802-29.552-40.176 1.724-11.194 9.179-18.94 16.074-27.257 24.963-31.276 28.12-35.004 65.709-35.004 17.81 0 35.564.291 53.363.291zm146.63 69.157c0 8.317.571 17.216-3.156 24.963-3.728 7.746-10.333 14.35-15.784 20.944-27.549 33.582-32.138 31.567-76.041 31.567l26.687-31.847c12.626 0 29.272.862 41.608-2.586.571-5.742.291-11.474.291-17.216v-14.922h-22.668c-19.22 0-38.452-1.724-55.97 8.317-9.179 25.254.29 54.515 22.388 70.019 23.507 16.645 57.963 13.433 76.903-6.605l5.742-6.604c-5.742 7.455-8.317 10.612-10.903 13.433-4.625 5.773-9.411 11.418-14.35 16.925-8.899 10.612-19.221 18.941-32.463 22.959-49.355 14.351-94.12-38.16-71.452-84.649 6.023-11.765 15.784-22.097 24.392-32.138 7.746-9.179 15.493-18.94 26.116-25.254 12.056-6.884 24.962-8.038 38.451-8.038h40.176v20.665zm44.195 33.862c0 17.217-2.004 36.437 6.884 51.94 4.589 8.318 14.06 16.355 29.272 16.355l-26.395 31.567c-25.825 0-35.295-22.668-36.157-45.056-1.119-25.825-.291-51.94-.291-77.765l26.687-31.567v54.515zm0-22.959 26.395-31.567h58.209l-26.653 31.567zm90.414 120.806v-120.806l26.687-31.567v120.806zm2.866-157.243 12.055-36.156 26.687-31.568-12.056 36.157zm150.347 36.437c-25.254 0-55.668-4.881-78.358 8.037-9.165 25.802-.01 54.549 22.387 70.299 23.508 16.645 56.24 13.433 76.904-6.605l5.742-6.604-11.474 14.06c-5.16 6.022-10.332 12.313-15.783 18.369-8.317 9.761-18.649 17.508-31.276 20.944-49.646 13.769-93.549-39.593-70.299-85.511 6.033-11.754 16.108-21.795 24.392-31.847 8.037-9.179 15.492-18.65 26.116-24.627 10.903-6.314 22.388-8.317 34.701-8.037h43.657z"/><path d="m803.359 259.594c11.765 0 23.239-.291 34.433 3.156 20.664 6.023 33.28 23.239 36.437 44.194 2.585 20.374-.571 36.437-21.269 61.411-14.351 17.507-27.829 36.437-51.079 41.899-47.63 11.474-88.432-38.16-69.157-82.925l26.687-31.567c-22.668 52.511 35.821 104.731 85.511 76.332 8.609-24.392 2.586-57.672-20.664-72.023-12.056-7.455-25.533-8.899-39.313-8.899h-45l26.395-31.567h37.019z"/></svg>