<svg viewBox="0 0 1000 660" xmlns="http://www.w3.org/2000/svg"><path d="m0 660h1000v-660h-1000z" fill="#eae3d8"/><path d="m334.163 459.766c-7.947 0-14.209-.722-19.506-1.926-6.743-1.926-12.038-5.056-15.891-9.39-3.853-4.575-6.021-10.355-6.984-17.338-.482-5.538-.241-11.8.722-19.746l21.432-152.904c1.204-7.947 2.888-14.206 4.814-19.745 2.89-6.983 6.743-12.762 11.799-17.337 5.298-4.335 11.319-7.465 18.783-9.391 5.539-1.204 12.039-1.926 19.985-1.926s13.967.722 19.506 1.926c6.501 1.926 12.04 5.056 15.892 9.391 3.612 4.575 6.02 10.354 6.983 17.337.481 5.539.241 11.798-.963 19.745l-21.432 152.904c-.963 7.946-2.648 14.208-4.574 19.746-2.89 6.983-6.983 12.763-11.799 17.338-5.297 4.334-11.559 7.464-18.783 9.39-5.779 1.204-12.038 1.926-19.984 1.926zm88.371 0c-8.669 0-14.689-6.984-13.485-15.652l26.006-185.652c1.204-7.947 2.647-14.206 4.815-19.745 2.889-6.983 6.742-12.762 11.798-17.337 5.057-4.335 11.32-7.465 18.543-9.391 5.779-1.204 12.039-1.926 19.985-1.926s14.208.722 19.506 1.926c6.742 1.926 12.039 5.056 16.132 9.391 3.612 4.575 6.02 10.354 6.983 17.337.241 5.539.241 11.798-.963 19.745l-26.006 185.652c-1.204 8.668-9.15 15.652-17.818 15.652-8.669 0-14.689-6.984-13.485-15.652l26.006-185.652c1.686-12.281.241-14.687 0-14.928s-2.409-2.168-14.689-2.168c-12.281 0-14.929 1.927-15.17 2.168s-2.649 2.647-4.334 14.928l-26.006 185.652c-1.204 8.668-9.15 15.652-17.818 15.652zm121.119 0c-8.669 0-14.689-6.984-13.485-15.652l30.58-218.4c1.204-8.669 9.15-15.651 17.819-15.651 8.668 0 14.69 6.982 13.486 15.651l-30.582 218.4c-1.204 8.668-9.15 15.652-17.818 15.652zm88.131 0c-7.947 0-14.207-.722-19.504-1.926-6.743-1.926-12.04-5.056-15.893-9.39-3.853-4.575-6.021-10.355-6.984-17.338-.482-5.538-.241-11.8.722-19.746l21.432-152.904c1.204-7.947 2.888-14.206 4.815-19.745 2.889-6.983 6.744-12.762 11.8-17.337 5.298-4.335 11.317-7.465 18.782-9.391 5.538-1.204 12.04-1.926 19.986-1.926s13.966.722 19.504 1.926c6.501 1.926 12.04 5.056 15.892 9.391 3.612 4.575 6.02 10.354 6.983 17.337.481 5.539.241 11.798-.963 19.745l-4.574 32.748c-1.204 8.668-9.152 15.652-17.821 15.652-8.668 0-14.688-6.984-13.484-15.652l4.576-32.748c1.927-12.281.241-14.687 0-14.928s-2.409-2.168-14.689-2.168c-12.281 0-14.929 1.927-15.17 2.168s-2.408 2.647-4.334 14.928l-21.43 152.904c-1.685 12.28 0 14.689 0 14.93.241.24 2.407 2.168 14.688 2.168 12.28 0 14.929-1.928 15.17-2.168.481-.241 2.648-2.65 4.334-14.93l4.576-32.748c1.204-8.669 9.15-15.651 17.818-15.651 8.669 0 14.688 6.982 13.484 15.651l-4.576 32.748c-.963 7.946-2.648 14.208-4.574 19.746-2.889 6.983-6.983 12.763-11.799 17.338-5.297 4.334-11.557 7.464-18.781 9.39-5.779 1.204-12.04 1.926-19.986 1.926zm120.879 0c-7.947 0-14.209-.722-19.506-1.926-6.742-1.926-12.038-5.056-15.891-9.39-3.853-4.575-6.021-10.355-6.984-17.338-.482-5.538-.241-11.8.722-19.746l21.432-152.904c1.204-7.947 2.888-14.206 4.814-19.745 2.89-6.983 6.743-12.762 11.799-17.337 5.298-4.335 11.319-7.465 18.783-9.391 5.539-1.204 12.041-1.926 19.987-1.926s13.965.722 19.504 1.926c6.501 1.926 12.04 5.056 15.892 9.391 3.612 4.575 6.02 10.354 6.983 17.337.481 5.539.241 11.798-.963 19.745l-21.432 152.904c-.963 7.946-2.648 14.208-4.574 19.746-2.89 6.983-6.983 12.763-11.799 17.338-5.297 4.334-11.559 7.464-18.783 9.39-5.779 1.204-12.038 1.926-19.984 1.926zm-414.166-31.302c12.28 0 14.929-1.928 15.169-2.168.482-.241 2.649-2.65 4.334-14.93l21.432-152.904c1.926-12.281.241-14.687 0-14.928s-2.409-2.168-14.689-2.168c-12.281 0-14.929 1.927-15.17 2.168s-2.408 2.647-4.334 14.928l-21.432 152.904c-1.685 12.28 0 14.689 0 14.93.241.24 2.409 2.168 14.69 2.168zm418.5 0c12.28 0 14.929-1.928 15.169-2.168.482-.241 2.649-2.65 4.334-14.93l21.432-152.904c1.926-12.281.241-14.687 0-14.928s-2.409-2.168-14.689-2.168c-12.281 0-14.93 1.927-15.17 2.168-.241.241-2.408 2.647-4.334 14.928l-21.432 152.904c-1.685 12.28 0 14.689 0 14.93.241.24 2.409 2.168 14.69 2.168zm-175.78-236.461c-8.668 0-14.688-6.982-13.484-15.651 1.204-8.668 9.15-15.652 17.818-15.652 8.669 0 14.689 6.984 13.485 15.652-1.204 8.669-9.15 15.651-17.819 15.651zm-333.019 18.06c-7.946 0-14.206.722-19.986 1.926-7.223 1.926-13.484 5.057-18.541 9.391-5.056 4.575-8.909 10.354-12.039 17.337-1.927 5.538-3.372 11.799-4.575 19.745l-6.261 43.584c-.963 8.187-1.204 14.448-.723 19.745.964 7.224 3.372 12.762 6.984 17.337 3.852 4.575 9.15 7.706 15.892 9.391 5.538 1.445 11.558 1.927 19.504 1.927 12.281 0 14.448 2.167 14.689 2.408.24.24 1.685 2.648 0 14.929l-6.02 43.584c-1.686 12.28-4.094 14.688-4.334 14.929-.241.241-2.89 2.167-15.17 2.167-12.281 0-14.448-1.926-14.689-2.167s-1.685-2.649 0-14.929l4.575-32.748c1.204-8.669-4.816-15.652-13.484-15.652-8.669 0-16.615 6.983-17.819 15.652l-4.575 32.748c-1.204 7.946-1.445 14.206-.963 19.745.963 6.983 3.371 12.762 6.983 17.337 4.093 4.334 9.391 7.465 16.133 9.391 5.297 1.204 11.317 1.926 19.263 1.926 7.947 0 14.448-.722 20.227-1.926 7.224-1.926 13.485-5.057 18.541-9.391 5.057-4.575 8.91-10.354 11.799-17.337 1.927-5.539 3.612-11.799 4.816-19.745l6.02-43.584c1.204-8.187 1.445-14.448.963-19.745-.963-7.224-3.371-12.762-6.983-17.337-4.093-4.575-9.391-7.706-16.133-9.391-5.298-1.445-11.317-2.168-19.264-2.168-12.28 0-14.447-1.926-14.688-2.167-.241-.24-1.926-2.648-.241-14.929l6.261-43.584c1.685-12.28 4.093-14.688 4.334-14.929s2.89-2.167 15.17-2.167c12.281 0 14.448 1.926 14.689 2.167.24.241 1.685 2.649 0 14.929l-4.576 32.748c-1.204 8.669 4.816 15.652 13.485 15.652s16.615-6.983 17.819-15.652l4.575-32.748c1.204-7.946 1.204-14.207.722-19.745-.722-6.983-3.13-12.762-6.742-17.337-4.094-4.334-9.391-7.465-16.133-9.391-5.298-1.204-11.558-1.926-19.505-1.926z"/></svg>