<svg viewBox="0 0 1000 660" xmlns="http://www.w3.org/2000/svg"><path d="M0 660h1000V0H0z" fill="#999"/><path d="M203.774 208.75c23.276 0 39.226 5 49.751 15.625 10.524 10.625 15.625 26.475 15.625 49.75h-25.525c0-23.6-6.051-29.65-8.301-31.575-2.25-1.925-7.975-8.3-31.575-8.3h-13.375c-23.6 0-29.65 6.05-31.575 8.3-1.925 2.25-8.299 7.975-8.299 31.575 0 17.5 4.15 23.275 7.649 26.15 5.426 5 15.95 7.325 32.2 7.325h13.401c22.95 0 38.575 4.475 49.099 13.7 14.675 12.75 16.275 31.9 16.275 45.274 0 23.276-5 39.226-15.625 49.751-10.625 10.525-26.475 15.625-49.749 15.625h-13.376c-23.274 0-39.225-5-49.749-15.625C130.099 405.7 125 389.9 125 366.625h25.5c0 23.6 6.049 29.65 8.299 31.575 2.25 1.925 7.975 8.3 31.575 8.3h13.4c23.601 0 29.65-6.05 31.575-8.3 1.926-2.25 8.3-7.975 8.3-31.575 0-17.5-4.149-23.275-7.65-26.15-5.425-5-15.95-7.325-32.2-7.325h-13.425c-22.949 0-38.574-4.475-49.1-13.7C126.599 306.65 125 287.525 125 274.125c0-23.275 5-39.225 15.625-49.75 10.625-10.525 26.475-15.625 49.749-15.625zM360 261.375v25.5h-39.851v79.75c0 15.95 2.5 26.15 8.3 31.575 5.801 5.425 15.625 8.3 31.575 8.3V432c-23.274 0-39.224-5-49.749-15.625-10.526-10.625-15.625-26.475-15.625-49.75V208.75h25.499v52.5H360zm97.9 0c23.275 0 39.224 5 49.749 15.625 10.525 10.625 15.625 26.475 15.625 50v39.625c0 23.275-5 39.225-15.625 49.75C497.024 426.9 481.175 432 457.9 432h-13.4c-23.275 0-39.225-5-49.751-15.625-10.525-10.625-15.625-26.475-15.625-49.75v-39.55c0-23.6 5-39.225 15.625-50 10.625-10.775 26.476-15.625 49.751-15.625h13.4zm-13.4 25.5c-23.6 0-29.651 6.375-31.576 8.3-1.925 1.925-8.3 8.3-8.3 31.9v39.55c0 23.6 6.05 29.65 8.3 31.575 2.251 1.925 7.976 8.3 31.576 8.3h13.4c23.599 0 29.649-6.05 31.574-8.3 1.925-2.25 8.301-7.975 8.301-31.575v-39.55c0-23.6-6.051-30-8.301-31.9-2.25-1.9-7.975-8.3-31.574-8.3zm104.274-52.6v-25.5h25.5v25.5zm0 197.725V261.375h25.5v170.6h-25.5zm116.4-145.1c-23.6 0-29.65 6.375-31.575 8.3-1.925 1.925-8.3 8.3-8.3 31.9v39.525c0 23.6 6.05 29.65 8.3 31.575 2.25 1.925 7.975 8.3 31.575 8.3H718.1V432h-52.926c-23.275 0-39.225-5-49.75-15.625-10.525-10.625-15.625-26.475-15.625-49.75v-39.55c0-23.6 5-39.225 15.625-50 10.625-10.775 26.475-15.625 49.75-15.625H718.1v25.5h-52.926zM809.3 261.375c23.274 0 39.225 5 49.749 15.625C869.574 287.625 875 303.475 875 327v105h-91.851c-18.174 0-31.25-4.475-40.175-13.725-8.3-8.925-12.125-21.375-12.125-38.575 0-38.575 25.2-47.825 50-51.975l67.925-11.475c-1.6-15-6.05-19.45-7.649-21.05-1.601-1.6-8.301-8.3-31.901-8.3h-65.599v-25.525h65.699zm-24.3 91.2c-11.801 2.225-19.126 4.775-22.951 8.6-2.875 2.225-5.75 6.7-5.75 18.5 0 10.2 1.601 16.9 5 20.725 3.4 3.825 11.15 6.05 21.675 6.05h66.525v-64.4z" fill="#fff"/></svg>