<svg xmlns="http://www.w3.org/2000/svg" viewBox="0 0 1000 660"><path fill="#eae3d8" d="M0 660h1000V0H0Z"/><path d="M757.68 499.74H926V331.42H757.68Z"/><path fill="#eae3d8" d="M849.25 467.08c2.52.1 6.15.15 8.69-.06a40.9 40.9 0 0 1 4.03-.66c1.76-.61 3.33-.87 5.08-1.4.71-.2 1.21-1 1.88-.99.22.02.63-.09.91-.23 3.73-2.4 7.17-3.84 10.63-6.99 2.47-2.2 4.64-4.18 6.47-6.58 1.05-1.22 2.59-2.82 3.15-4.38 1.6-2.35 2.48-5.4 3.55-8 .5-.78.67-2.13.98-3 .34-1.16 1.28-3.3 1.43-4.55a44.3 44.3 0 0 0 2.58-11.18c.37-5.03-.58-10-4.34-13.67-3.23-2.92-7.78-3.8-12.03-4.12-5.82-.44-11.8.87-17.5 1.65-2.26.58-4.36.95-6.69 1.6-2.41.5-4.92 1.57-7.25 2.04-1.51.16-3.06.79-4.58 1.13-1.15.24-2.19.26-3.46.6-2.5.73-4.9.97-7.37 1.53-3.94.57-8.35.9-12.61.59a30.5 30.5 0 0 1-8.21-1.67c-5.23-1.82-10.4-6.37-12.21-11.66-.3-.68-.4-1.33-.36-1.94.2-2.64 3.2-4.64 5.24-6.3 3.35-2.7 6.9-4.72 10.9-6.2 1.43-.49 2.8-.74 4.12-1.43 1.49-.5 3.32-.66 4.78-1.22a59.99 59.99 0 0 1 10.91-1.3c1.19.02 2.38.08 3.57.17 7.17.54 14.47 2.24 21.2 4.34 5 1.65 9.77 3.63 14.5 5.91 1.03.52 2.1 1.1 2.9 1.73.67.28.85.85 1.41-.13.11-.17.17-.4.14-.51-.02-.52.32-.77.53-1.46.32-.64.23-1.45.51-1.91.09-.08.24-.7.34-1.4.3-1.47-.16-2.7-.39-4.02-.3-.7-.54-.89-.53-1.01 0-.12.27-.17.96-.57.54-.4.79-.97 1.54-1.15.47-.13.64-.26.7-.52.11-.5.3-.52.46-1.03.11-.49.4-1.99-.16-2.32-1.06-.87-2.7-1.38-4.04-2-4.46-1.93-8.88-3.78-13.43-5.38-7.1-1.93-14.35-3.49-21.76-4.04a40.72 40.72 0 0 0-12.86.96 55.8 55.8 0 0 0-13.74 3.95c-8.95 3.78-17.23 10.92-19.34 20.72-.89 3.44-1.96 6.61-2.62 10.16-.51 2.04-1.1 4.21-1.26 6.37-.1 1.31-.04 2.61.3 3.87 1.27 5.72 5.4 10.47 10.22 13.49a30.38 30.38 0 0 0 12.06 3.29c4.74.35 9.58-.14 14.13-1.04.63-.27.98-.08 1.45-.35.68-.3 1.8-.16 2.69-.48 3.06-.77 6.06-1.64 9.11-2.21 2.65-.77 5.78-1.63 8.46-2.36 2.1-.58 4.06-1.35 6.3-1.7 5.07-.7 10.2-1.63 15.31-1.61 1.92.36 4.8.37 6.63 1.05.4.08 1.33.35 1.63.65.63.42 1.31.42 2.15 1.04 4.13 2.44 5.87 6.99 6.03 11.62.15 2.56-1.7 4.36-3.26 6.42-1.8 2.61-4.9 4.99-7.11 7.09a43.3 43.3 0 0 1-21.21 9.17c-2.8.26-5.78.22-8.77 0-3.57-.27-7.14-.8-10.4-1.43-1.29-.42-3.2-.85-4.54-.95-2.4-.57-5.24-1.47-7.68-1.98-.96-.2-2.21-.3-2.95-.58-1.24-.3-2.8-1.17-4.08-1.45-1.15-.17-2.73-.42-3.77-1.06-.86-.45-2.6-.73-3.61-.99-1.1-.2-1.06-.51-1.97-.74-.78-.15-1.14-.73-1.87-.98-1.29-.63-2.6-1.3-3.85-1.95-.94-.54-2.14-.89-3.02-1.59-.46-.45-.94-.31-1.29-.67a.64.64 0 0 0-.42-.25c-1.4-.7-3.13-1.44-4.35-2.52-.38-.42-1-.57-1.27-1.08-.11-.2-.42-.53-.7-.73-1.28-.75-2.01-1.6-3.17-2.52-.4-.32-1-.53-1.51-.57-.5-.04-.9.1-.93.46-.01.25.14.6.55 1.09 1.86 2.64 4.1 5.39 6.9 7.04a38.68 38.68 0 0 0 7.88 4.74c.96.33 1.1.76 2.03.97.8.18.89.32 1.56.7 3.3 1.63 7.62 2.95 11.08 3.96.09.12.28.23.43.24.52.1.74.35 1.39.54.42.18.98.16 1.44.2.18.01.36.03.5.08.67.73 3.6.69 4.48.95.8.25.85.8 1.87.9 1.31.27 2.19.69 3.5 1 .95.37 2.3.14 2.9.98.02.24-.69.93-.95.62a2.9 2.9 0 0 0-.74-.28c-.52-.13-1.74-.3-2.2-.55-1.18-.5-6.22-.44-7.26-1.3-.62-.25-.95-.44-1.38-.48-.22-.01-.46.01-.78.1-.25-.02-.31.02-.22.13.27.22 1.53.37 1.8.63.51.42 1.91.41 2.25 1.08-.03.18-.64.5-.8.25-.1-.17-.74-.12-1.07-.14-.99-.2-2.79-.62-3.6-1 0-.08-1.67-.64-2.26-.68-.14-.01-.22 0-.22.05.6.4 1.7.62 2.45.98.34.13.71.33.83.44.39.3 1.1.16 1.44.68-.17.5 3.72.72 4.02.76a.4.4 0 0 1 .32.28c0 .25.44.63.4.83-.22.09-.45.15-.72.38-.4.5-2.6-.33-3.16-.57-2.33-1.28-5.63-1.1-8.12-1.79-3.19-1.12-6.8-2.14-9.83-3.63-1.03-.42-1.18-.79-2.31-1.3-1.16-.84-2.68-1.8-3.79-2.65a7.46 7.46 0 0 0-2.03-1.33c-.74-.4-2.33-1.7-3.06-2.3-1.43-1.02-1.75-.98-3.12-2.21-.8-.9-1.23-.67-1.62-1.5-1.64-2.58-3.68-2.8-3.46-6.72.04-.11.22-.97.28-1.73.05-.64.01-1.22-.27-1.24-.05 0-.1 0-.15.03-.72-.16-.69.69-.95 1.07-.39 1.21-.64 2.5-.74 3.8-.24 3.23.45 6.56 2.22 9.14-.13.65 5.85 6.9 4.5 3.94-.75-1.36 1.08-.55 2.06-.48.19.01.34 0 .45-.06.22-.1.42-.02.97.38.68.52 1.24.69 1.8 1.08 3.2 2.07 6.74 4.14 10.33 5.47a51.4 51.4 0 0 0 4.35 1.78c.5.2 1.44.2 1.97.54 3 1.45 6.93 2.18 10.05 3.25 1.59.2 4.33.4 6.02.78 1.17.06 1.72.78 2.63.97.8.1 1.31.55 2.25.74 1.58.69 4.5.96 6.08 1.52.65.32.9.9 1.71.96h.24c.9.02 1.23.39 1.99.6.9.02 1.11-.04 1.33-.03.23.02.46.12 1.45.5Zm-49.02-12.83c2.08.4-2.48-2.72-2.92-2.63-1.2.1-1.93-1.24-2.8-1.63-1.9.13 5.17 4.44 5.72 4.26Zm10.36 5.16c.23-.1.08-.3.06-.58-.2-.62-1.01-.92-1.63-1.06a6.96 6.96 0 0 1-2.96-1.06c-.6-.3-1.39-.26-1.9-.7-.46-.4-.76-.46-1.23-.73-.36-.24-1.29-.14-1.59-.46-.12-.13-.33-.2-.46-.17-.49.2.3.63.64.87.5.38 1.78.43 2.15.86.21.34.68.33.92.59.52.46 1.62.5 2.16.96.77.36 1.9.78 2.73 1.01.43-.02.8.42 1.1.47Zm3.8 1.45c1.41-.06.83-.62-.51-.68-.49.02-1.25-.26-1.6-.28-.13-.01-.2.01-.18.1.12.31 2.03.82 2.3.85Zm29.13 7.3.2.01c.57.11 1.28-.08 1.29-.22 0-.04-.08-.08-.28-.1-.76-.17-1.04-.76-1.92-.83h-.36c-1.58-.22-3.25-.66-4.73-.87-.4-.2-1.49-.35-1.77-.08.16.22 1.34.14 1.45.52.18.33 1.17.45 1.41.23.06-.08.26-.1.47-.02.63.22.74.8 1.4.84.12.01.26 0 .44-.03 1.17-.14 1.29.47 2.4.55Zm3.54.29c.16.04.58-.3.52-.46-.36-.51-1.26.23-.52.46Z"/><path d="M587.26 499.74h168.32V331.42H587.26Z"/><path fill="#eae3d8" d="M644.5 363.92a10.46 10.46 0 0 0-10.53 10.52c0 5.86 4.66 10.52 10.52 10.52h16.53v73.64c0 5.86 4.66 10.52 10.52 10.52 5.86 0 10.52-4.66 10.52-10.52v-73.64h16.53c5.87 0 10.52-4.66 10.52-10.52 0-5.86-4.65-10.52-10.52-10.52Z"/><path d="M416.84 499.74h168.32V331.42H416.84Z"/><path fill="#eae3d8" d="m515.75 420.28-41.87-57.18-14.71 105.2h18l7.96-57.03L527 468.3l14.7-105.05h-18Z"/><path d="M246.42 499.74h168.32V331.42H246.42Z"/><path fill="#eae3d8" d="m305.35 363.92-13.99 16.69c20.3 0 43.6-3.76 60.29 10.52 15.18 12.93 20 35.03 11.27 53.07-17.59 12.63-42.4 10.52-57.57-4.96-14.74-14.88-16.7-38.94-4.82-56.22-4.05 5.86-9.62 10.67-13.83 16.53a42.08 42.08 0 0 0-7.51 19.24 44.7 44.7 0 0 0 13.08 38.04 44.62 44.62 0 0 0 38.63 11.57c15.79-2.85 25.26-13.68 34.88-25.4 5.26-6.17 10.22-12.18 12.93-19.85 3-8.41 3.6-15.63 1.2-25.55A44.25 44.25 0 0 0 353 367.08c-7.22-2.86-14.73-3.16-22.55-3.16Z"/><path d="M76 499.74h168.32V331.42H76Z"/><path fill="#eae3d8" d="M209.63 392.9v-29.68h-99.86v105.2h29.68v-37.73h70.18v-29.68h-70.18v-8.11Z"/><path d="M757.68 329.32H926V161H757.68Z"/><path fill="#eae3d8" d="m885.57 218.2 5.56-26.3h-65.75l-5.56 26.3h19.77l-11.2 52.6h-19.76l-5.56 26.3h65.75l5.56-26.3h-19.7l11.2-52.6Zm-54.25-18.79h50.72l-2.4 11.28h-19.7L845.6 278.3h19.68l-2.4 11.27h-50.72l2.4-11.27h19.77l14.35-67.62h-19.76Z"/><path d="M587.26 329.32h168.32V161H587.26Z"/><path fill="#eae3d8" d="M687.4 296.73v-1.48h-10.36V193.02h1.48c4.89 0 9.04 1.1 12.37 3.33a18.67 18.67 0 0 1 6.37 7.33A27.62 27.62 0 0 1 700 214.5v.74h1.48v-23.7h-60.74v23.7h1.48v-.74c0-.07 0-5.48 2.66-10.82a18.67 18.67 0 0 1 6.38-7.33c3.33-2.22 7.48-3.33 12.44-3.33h1.48v102.23h-10.37v1.48Z"/><path d="M416.84 329.32h168.32V161H416.84Z"/><path fill="#eae3d8" d="M534.35 211.02v-19.24h-68.38v19.24h24.5v85.96h19.24v-85.96Zm-65.97-16.83h63.57v14.42H507.3v85.96h-14.43v-85.96h-24.5Zm61.76 12.62v-10.82h-59.96v10.82h24.5v85.96h10.82v-85.96Zm-57.55-8.42h55.15v6.01h-24.65v85.97h-6V204.4h-24.5Zm53.35 4.21v-2.4h-51.55v2.4h24.5v85.96h2.4V202.6Z"/><path d="M246.42 329.32h168.32V161H246.42Z"/><path fill="#eae3d8" d="M346.82 296.98c8.41 0 15.93-6.77 17.13-15.03l12.62-90.17h-33.06l-12.62 90.17h-4.51L339 191.78h-33.06l-12.62 90.17c-.15.75-.15 1.5-.15 2.1 0 7.36 5.56 12.93 13.07 12.93Zm-40.43-1.5c-6.91 0-11.72-4.97-11.72-11.58 0-.6 0-1.35.15-1.95l12.47-88.67h30.06l-12.78 90.17h7.52l12.77-90.17h30.06l-12.47 88.67c-1.06 7.51-7.97 13.52-15.48 13.52Zm40.73-1.51c6.76 0 12.77-5.26 13.82-12.02l12.18-87.17h-27.05l-12.63 90.17h-10.52l12.63-90.17h-27.06l-12.17 87.17c-.15.6-.15 1.2-.15 1.8 0 5.86 4.36 10.22 10.37 10.22Z"/><path d="M76 329.32h168.32V161H76Z"/><path fill="#eae3d8" d="M202.42 230.45v-37.27h-83.56v37.27h18.79v-18.49h13.6v67.63H142v18.78h37.27V279.6h-9.24v-67.63h13.6v18.49Z"/></svg>