<svg viewBox="0 0 1000 660" xmlns="http://www.w3.org/2000/svg"><path d="m0 660h1000v-660h-1000z" fill="#eae3d8"/><path d="m266.428 171.539-57.893 161.563c-1.932 5.323-6.989 8.868-12.652 8.868-5.664 0-10.721-3.545-12.653-8.868l-57.632-161.563c-2.11-6.861 1.535-14.172 8.286-16.614 6.75-2.442 14.23.844 16.998 7.467l44.964 126.059 44.964-126.059c2.529-7.07 10.309-10.752 17.381-8.228 7.071 2.526 10.758 10.304 8.237 17.376zm119.547 49.007c23.754 23.994 27.273 61.417 8.41 89.419-18.864 28.003-54.868 38.801-86.028 25.803-31.161-12.998-48.819-46.181-42.192-79.287s35.697-56.936 69.46-56.938c18.918-.019 37.054 7.546 50.35 21.003zm-94.512 50.35c.05 17.917 10.889 34.04 27.462 40.849 16.574 6.81 35.618 2.965 48.25-9.742 12.633-12.707 16.367-31.773 9.46-48.306-6.906-16.533-23.092-27.278-41.01-27.223-24.446.109-44.197 19.976-44.162 44.422zm166.667-103.93v138.404c-.008 2.572 1.011 5.041 2.829 6.859 1.819 1.819 4.288 2.837 6.86 2.829 7.431.005 13.453 6.03 13.452 13.461 0 7.431-6.022 13.456-13.453 13.459-20.214-.023-36.595-16.404-36.618-36.619v-138.393c0-7.437 6.028-13.465 13.465-13.465s13.465 6.028 13.465 13.465zm158.594 46.048v69.498c.033 15.783-6.273 30.917-17.503 42.006-11.194 11.237-26.413 17.538-42.275 17.502-32.809-.137-59.371-26.7-59.508-59.508v-69.498c.045-7.415 6.045-13.415 13.46-13.46 7.385.117 13.343 6.075 13.46 13.46v69.498c.011 18.059 14.654 32.693 32.712 32.693 18.06 0 32.702-14.635 32.713-32.693v-69.498c.045-7.415 6.045-13.415 13.46-13.46 7.393.106 13.364 6.067 13.481 13.46zm59.227-46.048v32.577h32.577c7.415.046 13.415 6.045 13.46 13.46.033 3.58-1.374 7.023-3.906 9.554-2.531 2.532-5.974 3.939-9.554 3.906h-32.577v67.311c-.033 5.652 2.197 11.083 6.194 15.079 3.997 3.997 9.427 6.228 15.079 6.195h11.304c7.434 0 13.46 6.026 13.461 13.46 0 7.433-6.026 13.46-13.46 13.46h-11.305c-12.813.104-25.132-4.94-34.193-14.001s-14.105-21.38-14.001-34.193v-126.808c0-7.434 6.027-13.46 13.461-13.46 7.433 0 13.46 6.026 13.46 13.46zm198.984 46.048v115.504c.034 3.58-1.373 7.024-3.905 9.555-2.532 2.532-5.975 3.939-9.555 3.905-7.415-.045-13.415-6.045-13.46-13.46v-1.885c-29.183 23.325-71.417 20.191-96.838-7.185-25.421-27.377-25.421-69.727 0-97.104 25.421-27.376 67.655-30.51 96.838-7.184v-2.157c.117-7.384 6.075-13.343 13.46-13.46 7.419.046 13.42 6.052 13.46 13.471zm-115.244 57.882c.144 24.356 19.979 43.997 44.335 43.901 24.355-.095 44.035-19.892 43.988-44.248-.048-24.356-19.805-44.075-44.161-44.075-11.756.006-23.025 4.696-31.313 13.033s-12.912 19.633-12.849 31.389z"/><path d="m369.89 420.78c16.579 16.757 19.023 42.888 5.84 62.428-13.183 19.541-38.328 27.058-60.073 17.96-21.746-9.099-34.044-32.283-29.383-55.39 4.662-23.107 24.987-39.71 48.559-39.666 13.187-.044 25.831 5.246 35.057 14.668zm-69.718 35.057c-.051 19.097 15.388 34.619 34.484 34.671 19.097.052 34.62-15.388 34.671-34.484.052-19.096-15.387-34.619-34.484-34.671-9.172-.03-17.98 3.587-24.483 10.056-6.503 6.468-10.168 15.256-10.188 24.428zm231.906-35.442c16.812 16.977 19.307 43.459 5.961 63.277-13.345 19.818-38.822 27.463-60.875 18.269-22.052-9.195-34.551-32.675-29.865-56.104 4.687-23.428 25.256-40.294 49.149-40.298 13.386-.016 26.22 5.335 35.63 14.856zm-66.863 35.63c.051 17.305 14.122 31.293 31.427 31.243 17.306-.05 31.295-14.118 31.247-31.424s-14.114-31.297-31.42-31.25c-17.299.074-31.277 14.131-31.254 31.431zm230.196-35.995c9.688 9.467 15.12 22.46 15.055 36.005-.104 28.12-22.929 50.861-51.049 50.861-13.499.033-26.455-5.315-36-14.86-9.546-9.546-14.893-22.502-14.86-36.001 0-28.121 22.74-50.945 50.86-51.048 13.54-.066 26.528 5.362 35.994 15.043zm-64.008 36.005c.708 15.003 13.078 26.803 28.098 26.803 15.019 0 27.389-11.8 28.097-26.803.484-10.35-4.761-20.129-13.653-25.45-8.891-5.321-19.987-5.323-28.88-.005s-14.143 15.094-13.662 25.445zm228.478-36.494c17.394 17.363 20.097 44.596 6.457 65.039-13.641 20.444-39.825 28.403-62.535 19.008s-35.619-33.525-30.83-57.631 25.941-41.47 50.518-41.471c13.653-.038 26.755 5.382 36.39 15.055zm-61.154 36.39c0 10.022 6.035 19.053 15.291 22.886 9.255 3.832 19.908 1.711 26.99-5.374 7.082-7.086 9.197-17.74 5.36-26.993-3.832-9.249-12.861-15.283-22.877-15.283-6.571-.012-12.877 2.594-17.524 7.24-4.646 4.647-7.252 10.953-7.24 17.524zm-589.879-34.765c16.444 16.577 18.895 42.459 5.855 61.829-13.04 19.369-37.943 26.835-59.489 17.837-21.546-9-33.739-31.96-29.129-54.85 4.61-22.891 24.742-39.341 48.092-39.297 13.032-.02 25.525 5.198 34.671 14.481zm-72.551 34.671c-.052 20.887 16.838 37.86 37.724 37.911s37.859-16.838 37.91-37.724c.052-20.886-16.838-37.859-37.723-37.911-20.869-.011-37.82 16.855-37.911 37.724z"/></svg>