<svg viewBox="0 0 1000 660" xmlns="http://www.w3.org/2000/svg"><path d="M0 660h1000V0H0z" fill="#ffe800"/><path d="M266.428 171.539l-57.893 161.563a13.46 13.46 0 01-25.305 0l-57.632-161.563c-2.11-6.861 1.535-14.172 8.286-16.614 6.75-2.442 14.23.844 16.998 7.467l44.964 126.059 44.964-126.059c2.529-7.07 10.309-10.752 17.381-8.228 7.071 2.526 10.758 10.304 8.237 17.376zm119.547 49.007c23.754 23.994 27.273 61.417 8.41 89.419-18.864 28.003-54.868 38.801-86.028 25.803-31.161-12.998-48.819-46.181-42.192-79.287 6.627-33.106 35.697-56.936 69.46-56.938a70.68 70.68 0 0150.35 21.003zm-94.512 50.35a44.296 44.296 0 0027.463 40.849 44.297 44.297 0 0057.709-58.048 44.297 44.297 0 00-41.01-27.223c-24.446.109-44.197 19.976-44.162 44.422zm166.667-103.93V305.37a9.659 9.659 0 009.689 9.688c7.431.005 13.453 6.03 13.452 13.461 0 7.431-6.022 13.456-13.453 13.459-20.214-.023-36.595-16.404-36.618-36.619V166.966c0-7.437 6.028-13.465 13.465-13.465s13.465 6.028 13.465 13.465zm158.594 46.048v69.498a58.862 58.862 0 01-17.502 42.005 59.484 59.484 0 01-42.276 17.503c-32.809-.137-59.371-26.7-59.508-59.508v-69.498c.045-7.415 6.045-13.415 13.46-13.46 7.385.117 13.343 6.075 13.46 13.46v69.498c.011 18.059 14.654 32.693 32.712 32.693 18.06 0 32.702-14.635 32.713-32.693v-69.498c.045-7.415 6.045-13.415 13.46-13.46 7.393.106 13.364 6.067 13.481 13.46zm59.227-46.048v32.577h32.577c7.415.046 13.415 6.045 13.46 13.46a13.337 13.337 0 01-13.46 13.46h-32.577v67.311a21.15 21.15 0 0021.273 21.274h11.304a13.46 13.46 0 11.001 26.92h-11.305a47.808 47.808 0 01-48.194-48.194V166.966c0-7.434 6.027-13.46 13.461-13.46 7.433 0 13.46 6.026 13.46 13.46zm198.984 46.048v115.504a13.334 13.334 0 01-13.46 13.46c-7.415-.045-13.415-6.045-13.46-13.46v-1.885c-29.183 23.325-71.417 20.191-96.838-7.185-25.421-27.377-25.421-69.727 0-97.104 25.421-27.376 67.655-30.51 96.838-7.184v-2.157c.117-7.384 6.075-13.343 13.46-13.46 7.419.046 13.42 6.052 13.46 13.471zm-115.244 57.882c.144 24.356 19.979 43.997 44.335 43.901 24.355-.095 44.035-19.892 43.988-44.248-.048-24.356-19.805-44.075-44.161-44.075a44.184 44.184 0 00-44.162 44.422z"/><path d="M369.89 420.78c16.579 16.757 19.023 42.888 5.84 62.428-13.183 19.541-38.328 27.058-60.073 17.96-21.746-9.099-34.044-32.283-29.383-55.39 4.662-23.107 24.987-39.71 48.559-39.666a48.84 48.84 0 0135.057 14.668zm-69.718 35.057c-.051 19.097 15.388 34.619 34.484 34.671 19.097.052 34.62-15.388 34.671-34.484.052-19.096-15.387-34.619-34.484-34.671a34.558 34.558 0 00-34.671 34.484zm231.906-35.442c16.812 16.977 19.307 43.459 5.961 63.277-13.345 19.818-38.822 27.463-60.875 18.269-22.052-9.195-34.551-32.675-29.865-56.104 4.687-23.428 25.256-40.294 49.149-40.298a50.007 50.007 0 0135.63 14.856zm-66.863 35.63c.051 17.305 14.122 31.293 31.427 31.243 17.306-.05 31.295-14.118 31.247-31.424-.048-17.306-14.114-31.297-31.42-31.25-17.299.074-31.277 14.131-31.254 31.431zm230.196-35.995a50.008 50.008 0 0115.055 36.005c-.104 28.12-22.929 50.861-51.049 50.861a50.736 50.736 0 01-50.86-50.861c0-28.121 22.74-50.945 50.86-51.048a50.004 50.004 0 0135.994 15.043zm-64.008 36.005c.708 15.003 13.078 26.803 28.098 26.803 15.019 0 27.389-11.8 28.097-26.803a28.128 28.128 0 10-56.195-.01zm228.478-36.494c17.394 17.363 20.097 44.596 6.457 65.039-13.641 20.444-39.825 28.403-62.535 19.008-22.71-9.395-35.619-33.525-30.83-57.631 4.789-24.106 25.941-41.47 50.518-41.471a51.164 51.164 0 0136.39 15.055zm-61.154 36.39a24.765 24.765 0 1047.643-9.477 24.766 24.766 0 00-22.879-15.287 24.72 24.72 0 00-24.764 24.764zm-589.879-34.765c16.444 16.577 18.895 42.459 5.855 61.829-13.04 19.369-37.943 26.835-59.489 17.837-21.546-9-33.739-31.96-29.129-54.85 4.61-22.891 24.742-39.341 48.092-39.297a48.569 48.569 0 0134.671 14.481zm-72.551 34.671c-.052 20.887 16.838 37.86 37.724 37.911 20.886.051 37.859-16.838 37.91-37.724.052-20.886-16.838-37.859-37.723-37.911-20.869-.011-37.82 16.855-37.911 37.724z" fill="#fff"/></svg>