<svg xmlns="http://www.w3.org/2000/svg" viewBox="0 0 1000 660"><path d="M850.36 416.85V261.27h-30.5v14.23c-12.73-9.08-28.86-14.23-47.29-14.23a85.9 85.9 0 0 0-31.04 5.55 70.6 70.6 0 0 0-25.07 16.13 70.63 70.63 0 0 0-16.13 25.07 85.9 85.9 0 0 0-5.55 31.04c0 45.8 31.98 77.8 77.79 77.8 11.11 0 21.55-1.9 31.03-5.57a74.68 74.68 0 0 0 16.27-8.67v14.23Zm-77.79-125.1c14.23 0 26.16 4.35 34.56 12.75 8.27 8.4 12.74 20.33 12.74 34.56 0 14.23-4.47 26.15-12.74 34.56-8.4 8.27-20.33 12.74-34.56 12.74-14.23 0-26.16-4.47-34.56-12.74-8.27-8.4-12.74-20.33-12.74-34.56 0-14.23 4.47-26.16 12.74-34.56 8.4-8.4 20.33-12.74 34.56-12.74Zm-136.88-30.48V227.1h-30.5v129.03c0 11.79 2.3 22.76 6.78 32.66a66.13 66.13 0 0 0 19.79 24.93l12.2 9.22 18.43-24.26-12.07-9.22c-4.6-3.52-8.13-8-10.57-13.41-2.7-5.83-4.06-12.6-4.06-19.92v-64.38h45.53v-30.5Zm-83.76-63.03c-8.4 0-15.18 6.92-15.18 15.32s6.78 15.18 15.18 15.18c8.4 0 15.31-6.78 15.31-15.18 0-8.4-6.9-15.32-15.3-15.32Zm15.31 218.61V261.27h-30.49v155.58Zm-71.15-212.5H465.6v71.15a72.02 72.02 0 0 0-16.26-8.68 85.9 85.9 0 0 0-31.04-5.55c-45.8 0-77.8 31.98-77.8 77.79a85.9 85.9 0 0 0 5.56 31.03 70.64 70.64 0 0 0 16.13 25.08 70.62 70.62 0 0 0 25.08 16.12 85.88 85.88 0 0 0 31.03 5.56c18.43 0 34.56-5.15 47.3-14.23v14.23h30.5Zm-77.79 87.4c14.23 0 26.16 4.35 34.56 12.75 8.27 8.4 12.74 20.33 12.74 34.56 0 14.23-4.47 26.15-12.74 34.56-8.4 8.27-20.33 12.74-34.56 12.74-14.23 0-26.16-4.47-34.56-12.74-8.4-8.4-12.74-20.33-12.74-34.56 0-14.23 4.34-26.16 12.74-34.56 8.4-8.4 20.33-12.74 34.56-12.74Zm-85.92 125.1-77.93-189.74h-26.16l-77.93 189.74h33.07l13.96-34.15h88.1l13.95 34.15ZM209.86 352.2l31.58-76.57 31.44 76.57Z"/></svg>