<svg xmlns="http://www.w3.org/2000/svg" viewBox="0 0 1000 660"><path d="m308.39 157.12-4.82-10.29h-45.55l-4.82 10.29h-20.7L274.85 66h11.98l42.3 91.12Zm-69.43-4.17h11.64l4.82-10.28h50.72l4.88 10.28h11.6l-38.45-82.78h-6.76Zm21.1-20.7 20.7-44.51 20.53 44.51h-41.27Zm34.74-4.16-14.06-30.46-14.13 30.46h28.24Zm120.33 10.27v18.74H339.5V66h18.74v72.36h56.88Zm-71.46 14.57h67.3v-10.39h-56.92V70.18h-10.39v82.8ZM308.4 302.74l-4.82-10.29h-45.55l-4.82 10.29h-20.7l42.35-91.11h11.98l42.3 91.12h-20.74Zm-69.43-4.17h11.64l4.82-10.28h50.72l4.88 10.28h11.6l-38.45-82.77h-6.76Zm21.1-20.7 20.7-44.51 20.53 44.51h-41.27Zm34.74-4.16-14.06-30.46-14.18 30.46Zm120.33 10.34v18.74H339.5v-91.16h18.74v72.36h56.88Zm-71.46 14.57h67.3v-10.46h-56.92v-72.35h-10.39v82.78Zm109.47-68.25v72.36h-18.75v-72.36h-29.67v-18.74h78.22v18.75Zm-44.26-4.16h29.68v72.36h10.41V226.2h29.8V215.8h-69.89Zm105.83 4.16v17.45h56.87v18.74h-56.87v17.49h56.87v18.74h-75.62v-91.16h75.62v18.75Zm-14.58 68.2h67.29v-10.4h-56.88V262.4h56.88v-10.42h-56.88v-25.77h56.88V215.8h-67.3v82.78Zm-191.74 149.8-4.82-10.29h-45.55l-4.82 10.29h-20.7l42.35-91.1h11.98l42.3 91.11h-20.74Zm-69.43-4.17h11.64l4.82-10.28h50.72l4.88 10.28h11.6l-38.4-82.77h-6.77Zm21.1-20.7 20.7-44.51 20.53 44.52h-41.27Zm34.74-4.16-14.06-30.46-14.18 30.46Zm120.33 10.29v18.74H339.5v-91.1h18.74v72.35h56.88Zm-71.47 14.57h67.3v-10.4h-56.91v-72.36h-10.39Zm109.48-68.24v72.35h-18.75v-72.35h-29.67v-18.7h78.22v18.7Zm-44.26-4.17h29.68v72.36h10.41v-72.36h29.8v-10.36h-69.89v10.4Zm105.83 4.17v17.44h56.87v18.74h-56.87v17.45h56.87v18.74h-75.62v-91.07h75.62v18.7Zm-14.58 68.24h67.29v-10.4h-56.88v-25.78h56.88V397.6h-56.88v-25.76h56.88v-10.41h-67.3Zm135.24-86.94c20.17 0 32.67 12.5 32.67 32.67 0 15.23-7.3 26.16-19.65 30.46l19.65 27.98h-22.9l-18.1-25.9h-21.09v25.9h-18.74v-91.1Zm-44 86.95h10.42v-25.9h27.46l18.13 25.9H660l-18.22-25.9 5.2-1.83a23.37 23.37 0 0 0 12.37-9.5 28.43 28.43 0 0 0 3.38-7.55c.8-3.1 1.2-6.3 1.18-9.5.06-4.12-.6-8.22-1.96-12.1a23.83 23.83 0 0 0-14.45-14.46 35.26 35.26 0 0 0-12.1-1.95h-44v82.78Zm44-72.35c6.12 0 10.68 1.56 13.54 4.56 2.85 2.99 4.55 7.54 4.55 13.53 0 5.98-1.56 10.41-4.55 13.4-3 3-7.43 4.56-13.54 4.56H601.8v-36.07h33.58Zm-29.42 31.86h29.42c4.82 0 8.46-1.04 10.54-3.25 2.09-2.21 3.39-5.73 3.39-10.54 0-4.81-1.18-8.46-3.39-10.68-2.2-2.22-5.73-3.3-10.54-3.3h-29.42Zm134.08-43.6a38.6 38.6 0 0 1 24.08 24.09 61.92 61.92 0 0 1 0 37.22 38.6 38.6 0 0 1-24.08 24.09 61.92 61.92 0 0 1-37.23 0 38.6 38.6 0 0 1-24.13-24.09 61.92 61.92 0 0 1 0-37.22 38.6 38.6 0 0 1 24.08-24.08 61.9 61.9 0 0 1 37.28 0Zm-35.8 3.92c-5 1.72-9.55 4.57-13.28 8.33a35 35 0 0 0-8.37 13.13 58.85 58.85 0 0 0 0 34.62 35.56 35.56 0 0 0 21.51 21.51 58.88 58.88 0 0 0 34.63 0 34.99 34.99 0 0 0 13.14-8.33 34.53 34.53 0 0 0 8.34-13.34 58 58 0 0 0 0-34.36 35.13 35.13 0 0 0-21.61-21.61 58 58 0 0 0-34.36.04Zm30.31 9.63c7.69 2.3 13.7 8.3 16.03 15.97a48.34 48.34 0 0 1 0 26.3 23.9 23.9 0 0 1-16.01 16 48.36 48.36 0 0 1-26.3 0 23.89 23.89 0 0 1-16-16 48.32 48.32 0 0 1 0-26.3 23.89 23.89 0 0 1 16-16 48.3 48.3 0 0 1 26.3.02Zm-39.96 29.16c0 18.08 8.72 26.8 26.8 26.8 18.1 0 26.82-8.72 26.82-26.8 0-18.1-8.7-26.87-26.8-26.87s-26.8 8.8-26.8 26.86ZM308.38 594l-4.81-10.29h-45.55L253.2 594h-20.7l42.35-91.12h11.98L329.08 594Zm-13.53-29.03-14.06-30.46-14.18 30.46Zm120.28 10.29V594H339.5v-91.12h18.74v72.36h56.88Zm38-53.61V594H434.4v-72.35h-29.67v-18.77h78.22v18.77Zm61.58 0v17.44h56.87v18.73h-56.87v17.45h56.87V594h-75.62v-91.12h75.62v18.77Zm120.66-18.77c20.17 0 32.67 12.5 32.67 32.67 0 15.23-7.3 26.16-19.65 30.46L668.04 594h-22.9l-18.1-25.9h-21.09V594h-18.74v-91.12Zm-29.42 46.47h29.42c4.82 0 8.46-1.04 10.54-3.25 2.09-2.21 3.39-5.73 3.39-10.54 0-4.81-1.18-8.46-3.39-10.68-2.2-2.22-5.73-3.23-10.54-3.23h-29.42v27.73Zm134.08-43.6a38.6 38.6 0 0 1 24.08 24.08 61.92 61.92 0 0 1 0 37.22 38.6 38.6 0 0 1-24.08 24.09 61.9 61.9 0 0 1-37.23 0 38.6 38.6 0 0 1-24.13-24.09 61.92 61.92 0 0 1 0-37.22 38.6 38.6 0 0 1 24.08-24.08 61.9 61.9 0 0 1 37.28 0Zm-45.43 42.69c0 18.09 8.72 26.8 26.8 26.8 18.1 0 26.82-8.71 26.82-26.8 0-18.1-8.71-26.8-26.81-26.8-18.1 0-26.81 8.7-26.81 26.8Z"/></svg>