<svg xmlns="http://www.w3.org/2000/svg" viewBox="0 0 1000 660"><path fill-rule="evenodd" d="m173.35 346.69-7.75-19.37h-52.7l-7.48 19.37H75.4l63.92-163.39 63.91 163.39Zm-18.68-47.32-15.35-39.43-15.36 39.43Zm139.87-115.8h27.95V346.7L245 258.14v88.55h-27.94V183.3l77.33 88.82v-88.54Zm51.33 163.12V183.58h27.94v163.1Zm177.36 0-13.7-75.26-37.63 75.53-37.35-75.53-13.7 75.26h-28.5l29.88-163.25L471.9 283.6l49.67-100.16 30.02 163.1h-28.36Zm137.1-145.13a54.14 54.14 0 0 1 11.62 20.06 72.12 72.12 0 0 1 3.87 24.21v38.74c0 8.3-1.24 16.46-3.87 24.21a56.1 56.1 0 0 1-11.62 20.06c-10.52 11.62-25.18 17.99-41.78 17.99-16.74 0-31.54-6.37-41.92-17.99A54.16 54.16 0 0 1 565 308.78a72.14 72.14 0 0 1-3.88-24.21v-38.74c0-8.3 1.25-16.46 3.88-24.2a56.12 56.12 0 0 1 11.62-20.07c10.51-11.62 25.18-17.98 41.92-17.98 16.6 0 31.26 6.22 41.78 17.98Zm-62.95 18.54c-5.53 6.09-8.44 14.94-8.44 25.6v38.73c0 10.52 2.77 19.37 8.44 25.6 5.12 5.53 12.31 8.71 21.3 8.71 8.72 0 15.92-3.04 21.04-8.72 5.53-6.36 8.43-15.21 8.43-25.59V245.7c0-10.79-2.76-19.64-8.43-25.59-5.12-5.53-12.32-8.72-21.03-8.72-9 .14-16.19 3.19-21.3 8.72Zm182.34-23.66c9.96 8.72 15.63 21.03 15.63 35h-27.94c0-5.8-2.08-10.51-6.09-13.97-4.15-3.73-10.93-5.8-18.68-5.8-7.88 0-14.38 2.07-18.95 5.8a19.68 19.68 0 0 0 0 27.95c4.43 3.73 10.93 5.8 18.95 5.8 14.67 0 27.53 4.43 37.08 12.87 9.96 8.72 15.63 21.03 15.63 35 0 13.7-5.53 26.3-15.63 35-9.55 8.45-22.41 12.87-37.08 12.87-14.94 0-27.8-4.42-37.35-12.86-9.82-8.72-15.36-21.3-15.36-35h27.95a18.4 18.4 0 0 0 5.81 13.97c4.43 3.73 10.93 5.8 18.95 5.8 7.75 0 14.53-2.07 18.68-5.8 3.88-3.46 6.09-8.16 6.09-13.97 0-5.81-2.08-10.52-6.09-13.98-4.15-3.73-10.93-5.8-18.68-5.8-14.94 0-27.8-4.43-37.35-12.87-9.82-8.72-15.36-21.3-15.36-35 0-13.98 5.54-26.3 15.36-35 9.55-8.45 22.41-12.87 37.35-12.87 14.67 0 27.53 4.42 37.08 12.86Zm115.8 150.25-7.75-19.37h-52.71l-7.47 19.37h-30.02l63.91-163.39 63.92 163.39Zm-18.68-47.32-15.36-39.43-15.35 39.43ZM323.03 417.05c2.8 2.47 5.1 5.6 6.6 9.07a27.63 27.63 0 0 1 2.13 11.53v39.73h-10.22v-6.43c-5.43 4.12-12.52 6.43-20.6 6.43-7.09 0-13.19-1.65-17.64-4.95a17.42 17.42 0 0 1-7.74-14.67c0-5.93 2.96-11.37 7.74-14.67 4.45-3.3 10.55-5.1 17.64-5.1h20.6v-.5c0-5.28-1.8-9.56-5.27-12.7-3.8-3.45-8.9-5.1-15.33-5.1-5.93 0-11.04 1.48-14.67 4.61l-6.6-8.07c5.61-4.62 12.86-6.93 21.27-6.93 8.9 0 16.65 2.64 22.09 7.75Zm-22.09 31.48c-4.61 0-8.9 1.16-11.54 3.13a7.2 7.2 0 0 0-3.46 6.1 7.2 7.2 0 0 0 3.46 6.1c2.8 1.98 6.93 2.97 11.54 2.97 6.43 0 11.54-1.65 15.33-5.11 3.46-3.13 5.27-7.58 5.27-12.7v-.65Zm100.55-10.88v39.73H391.1v-39.73c0-5.27-1.48-9.72-4.78-13.02-3.3-3.3-7.75-4.78-13.02-4.78-5.28 0-9.72 1.65-13.02 4.78-3.3 3.13-4.78 7.75-4.78 13.02v39.73H345.1V409.3h10.39v5.77a28.78 28.78 0 0 1 17.8-5.77c16.48 0 28.19 11.7 28.19 28.35Zm25.87-44.83c-.16 3.63-2.96 6.43-6.43 6.43a6.78 6.78 0 0 1-6.42-6.43c.16-3.62 2.96-6.43 6.42-6.43 1.82 0 3.47.66 4.62 1.82a6.76 6.76 0 0 1 1.81 4.61Zm-11.7 84.56V409.3h10.39v68.08Zm115.87-42.7v42.7h-10.38v-42.7c0-4.6-1.48-8.4-3.96-10.87-2.47-2.47-6.42-3.96-10.87-3.96-4.46 0-8.41 1.49-10.88 3.96-2.64 2.64-3.96 6.43-3.96 10.88v42.69H481.1v-42.7c0-4.6-1.49-8.4-3.96-10.87-2.64-2.64-6.43-3.96-10.88-3.96-4.45 0-8.4 1.49-10.88 3.96-2.63 2.64-3.95 6.43-3.95 10.88v42.69h-10.39V409.3h10.39v4.29a25.67 25.67 0 0 1 15-4.29c8.57 0 15.82 3.47 20.1 9.23 4.62-5.76 11.54-9.23 20.11-9.23 14.51 0 24.9 10.55 24.9 25.39Zm65.6 2.97v11.54c0 16.65-11.53 28.19-28.18 28.19s-28.18-11.54-28.18-28.19v-11.54c0-16.64 11.53-28.18 28.18-28.18s28.19 11.54 28.19 28.18Zm-41.2-13.02c-3.13 3.3-4.78 7.75-4.78 13.02v11.54c0 5.28 1.65 9.73 4.78 13.02 3.13 3.3 7.75 4.78 13.02 4.78s9.89-1.64 13.02-4.78c3.13-3.13 4.78-7.74 4.78-13.02v-11.54c0-5.27-1.48-9.72-4.78-13.02-3.3-3.3-7.75-4.78-13.02-4.78-5.44 0-9.89 1.65-13.02 4.78Zm104.83 0-10.05 2.8c-1.16-4.61-8.41-7.58-17.64-7.58-10.55 0-17.8 3.8-17.8 9.23 0 5.44 7.25 9.07 17.8 9.07 7.75 0 14.5 1.65 19.45 4.78 5.6 3.46 8.73 8.9 8.73 14.83 0 5.94-3.13 11.38-8.73 14.84-5.11 3.13-11.7 4.78-19.45 4.78-14.5 0-25.22-5.77-27.7-15.33l10.23-2.8c1.15 4.61 8.24 7.74 17.63 7.74 10.55 0 17.8-3.79 17.8-9.23s-7.25-9.23-17.8-9.23c-7.74 0-14.5-1.48-19.45-4.61-5.77-3.46-8.9-8.9-8.9-14.84 0-5.93 3.13-11.37 8.9-14.83 4.95-3.13 11.7-4.78 19.45-4.78 14.5-.17 25.06 5.77 27.53 15.16Zm56.04-7.58c2.8 2.47 5.11 5.6 6.6 9.07a27.63 27.63 0 0 1 2.14 11.53v39.73h-10.39v-6.43c-5.44 4.12-12.52 6.43-20.6 6.43-7.09 0-13.19-1.65-17.64-4.95a17.42 17.42 0 0 1-7.75-14.67c0-5.93 2.97-11.37 7.75-14.67 4.45-3.3 10.55-5.1 17.64-5.1h20.6v-.5c0-5.28-1.81-9.56-5.27-12.7-3.8-3.45-8.9-5.1-15.33-5.1-5.94 0-11.04 1.48-14.67 4.61l-6.6-8.07c5.61-4.62 12.86-6.93 21.27-6.93 8.9 0 16.65 2.64 22.25 7.75Zm-22.25 31.48c-4.62 0-8.9 1.16-11.54 3.13a7.2 7.2 0 0 0-3.46 6.1 7.2 7.2 0 0 0 3.46 6.1c2.8 1.98 6.92 2.97 11.54 2.97 6.43 0 11.54-1.65 15.33-5.11 3.46-3.13 5.27-7.58 5.27-12.7v-.65Z"/></svg>