<svg xmlns="http://www.w3.org/2000/svg" viewBox="0 0 1000 660"><path d="M828.8 273.62c-13.29 0-23.96 3.05-32.01 9.15-8.06 6.1-13.06 15.45-14.15 26.78l13.71 1.52c.88-7.62 3.92-13.5 8.93-17.2 5.44-4.14 13.28-6.31 23.51-6.31h.22c10.89 0 19.16 2.4 24.6 7.18 5.23 4.57 8.06 11.54 8.06 20.46v7.84H824c-12.4 0-22.42 2.61-29.6 7.62-7.84 5.66-11.98 13.94-11.98 23.95 0 10.23 4.14 18.5 11.98 24.16 7.18 5.01 17.2 7.62 29.6 7.62h5.01c13.72 0 24.6-3.26 32.66-9.57v9.57h13.93V315.2c0-13.06-4.35-23.73-12.63-30.91-8.27-6.97-19.6-10.67-33.96-10.67Zm32.87 63.36v7.83c0 8.93-2.83 15.9-8.06 20.47-5.44 4.79-13.71 7.18-24.6 7.18h-5c-9.37 0-16.77-1.74-21.56-5-4.14-3.05-6.1-7.19-6.1-12.85 0-5.44 1.96-9.58 6.1-12.63 4.79-3.26 12.2-5 21.55-5ZM712.1 273.62c-13.71 0-24.6 3.27-32.65 9.58v-9.58H665.5V386.4h13.94V315.2c0-8.92 2.6-15.89 7.83-20.46 5.45-4.79 13.94-7.18 24.82-7.18 10.89 0 19.16 2.4 24.6 7.18 5.23 4.57 7.84 11.54 7.84 20.46v71.2h13.93v-71.2c0-13.06-4.35-23.73-12.62-30.91-8.06-6.97-19.38-10.67-33.75-10.67ZM625.9 234a8.93 8.93 0 0 0-9.14 9.14 8.93 8.93 0 0 0 9.14 9.15 8.93 8.93 0 0 0 9.14-9.15 8.93 8.93 0 0 0-9.14-9.14Zm6.97 152.4V273.61h-13.94V386.4ZM586.26 234h-13.92v49.2c-8.06-6.31-18.95-9.58-32.66-9.58-14.37 0-25.7 3.7-33.75 10.67-8.27 7.18-12.62 17.85-12.62 30.91v29.61c0 13.07 4.35 23.73 12.62 30.92 8.06 6.96 19.38 10.66 33.75 10.66 13.71 0 24.6-3.26 32.66-9.57v9.57h13.93Zm-46.58 53.56c10.88 0 19.37 2.4 24.82 7.18 5.22 4.57 7.84 11.54 7.84 20.46v29.61c0 8.93-2.62 15.9-7.84 20.47-5.45 4.79-13.94 7.18-24.82 7.18-10.89 0-19.16-2.4-24.6-7.18-5.23-4.58-7.84-11.54-7.84-20.47v-29.6c0-8.93 2.61-15.9 7.84-20.47 5.44-4.79 13.71-7.18 24.6-7.18Zm-112.34-13.94c-14.37 0-25.9 3.7-33.96 10.67-8.27 7.18-12.63 17.85-12.63 30.91v29.61c0 13.07 4.36 23.73 12.63 30.92 8.05 6.96 19.6 10.66 33.96 10.66 14.37 0 25.7-3.7 33.75-10.66 8.27-7.19 12.62-17.85 12.62-30.92v-29.6c0-13.07-4.35-23.74-12.62-30.92-8.06-6.97-19.38-10.67-33.75-10.67Zm0 13.94c10.89 0 19.16 2.4 24.6 7.18 5.23 4.57 7.84 11.54 7.84 20.46v29.61c0 8.93-2.61 15.9-7.84 20.47-5.44 4.79-13.71 7.18-24.6 7.18-10.88 0-19.37-2.4-24.82-7.18-5.22-4.58-7.83-11.54-7.83-20.47v-29.6c0-8.93 2.6-15.9 7.83-20.47 5.45-4.79 13.94-7.18 24.82-7.18Zm-116.9-13.94c-13.72 0-24.6 3.27-32.66 9.58v-9.58h-13.94V386.4h13.94V315.2c0-8.92 2.61-15.89 7.83-20.46 5.45-4.79 13.94-7.18 24.82-7.18 10.89 0 19.16 2.4 24.6 7.18 5.23 4.57 7.84 11.54 7.84 20.46v71.2h13.93v-71.2c0-13.06-4.35-23.73-12.62-30.91-8.06-6.97-19.38-10.67-33.75-10.67ZM244.24 386.4 189.82 234h-9.8L125.6 386.4h14.8l10.45-29.61h67.93l10.67 29.6Zm-88.39-43.54 28.96-81.2 28.95 81.2Z"/></svg>