<svg xmlns="http://www.w3.org/2000/svg" viewBox="0 0 1000 660"><path d="m248.2 394.14-16.5-46.25h-76.76l-16.5 46.25H125l62.37-174.64h11.7l62.38 174.64Zm-21.1-58.72-33.97-95.2-33.97 95.2Zm64.29-69.48h12.47v22.26l3.46-4.22a51.05 51.05 0 0 1 18.8-13.43 61.6 61.6 0 0 1 47.4 0 51.04 51.04 0 0 1 18.81 13.43 61.02 61.02 0 0 1 11.9 20.35 82.32 82.32 0 0 1 0 51.43 60.43 60.43 0 0 1-11.9 20.53 54.11 54.11 0 0 1-18.61 13.44 61.6 61.6 0 0 1-47.4 0 54.12 54.12 0 0 1-18.62-13.44l-3.45-4.41v68.7h-12.48V265.94Zm91.35 101.9a45.29 45.29 0 0 0 9.4-16.3 68.32 68.32 0 0 0 0-43.18 44.9 44.9 0 0 0-9.4-16.13c-8.06-9.02-19.58-14-33.01-14s-24.95 4.8-33.2 14a48.74 48.74 0 0 0-9.4 16.13 70.8 70.8 0 0 0 0 43.18 49.3 49.3 0 0 0 9.4 16.3c8.25 9.03 19.77 14.02 33.2 14.02 13.43 0 24.95-5 33-14.01Zm134.91-97.3a54.11 54.11 0 0 1 18.81 13.44c5.28 6 9.33 12.97 11.9 20.54a77.58 77.58 0 0 1 4.03 25.71v6.34H448.18a65.6 65.6 0 0 0 3.07 15.35 48.73 48.73 0 0 0 9.4 16.12c8.26 9.02 19.77 14.01 33.2 14.01a44.53 44.53 0 0 0 23.42-6.14 42.21 42.21 0 0 0 15.93-16.5l2.88-5.57 10.94 5.95-2.88 5.56a57.78 57.78 0 0 1-8.83 12.29 56.28 56.28 0 0 1-11.52 9.4 58.34 58.34 0 0 1-29.74 7.68 59.5 59.5 0 0 1-23.8-4.8c-7.14-3-13.51-7.6-18.62-13.44a61.05 61.05 0 0 1-11.9-20.34 82.32 82.32 0 0 1 0-51.43 60.26 60.26 0 0 1 11.9-20.54 54.11 54.11 0 0 1 18.81-13.43 61.6 61.6 0 0 1 47.21-.2Zm-56.8 21.7a49.32 49.32 0 0 0-9.4 16.3 65.6 65.6 0 0 0-3.08 15.36h91.35a59.9 59.9 0 0 0-3.26-15.35 45.49 45.49 0 0 0-9.4-16.32c-8.06-9.02-19.58-14-33.01-14-13.44 0-25.14 4.98-33.4 14Zm180.97-13.82c-13.43 0-24.95 4.8-33.2 14a49.32 49.32 0 0 0-9.4 16.32 65.78 65.78 0 0 0-3.27 21.3v64.1h-12.47v-128.2h12.47v22.46l3.46-4.42a54.12 54.12 0 0 1 18.8-13.43 59.5 59.5 0 0 1 23.8-4.8h6.33v12.48h-6.14Zm91.73-12.48v12.48h-40.49v69.09c-.03 4.95.74 9.88 2.3 14.58a30.72 30.72 0 0 0 5.95 10.75 25.91 25.91 0 0 0 20.54 9.02h11.9v12.47h-11.9a39.52 39.52 0 0 1-16.9-3.45 37.42 37.42 0 0 1-13.04-9.79 43.57 43.57 0 0 1-8.25-14.97 58.35 58.35 0 0 1-2.88-18.42V219.5h12.47v46.25h40.5Zm106.9 4.6a54.85 54.85 0 0 1 18.61 13.44 56.6 56.6 0 0 1 11.9 20.54 77.74 77.74 0 0 1 4.03 25.71v64.1h-12.28v-22.26a32.38 32.38 0 0 1-3.26 4.03 49.52 49.52 0 0 1-18.62 13.44 60.45 60.45 0 0 1-23.99 4.8c-17.46 0-32.24-4.23-42.8-12.1a39.73 39.73 0 0 1-11.5-13.24 33.01 33.01 0 0 1-1.16-29.17 27.44 27.44 0 0 1 8.25-9.98c11.52-9.4 32.25-13.05 61.41-11.32 10.5.75 20.93 2.03 31.29 3.83a60.58 60.58 0 0 0-3.07-13.81 47.2 47.2 0 0 0-9.4-16.32c-8.26-9.02-19.77-14-33.2-14a45.87 45.87 0 0 0-23.42 6.14 40.68 40.68 0 0 0-15.74 16.7l-3.07 5.56-10.94-5.95 2.88-5.57a59.91 59.91 0 0 1 8.83-12.28 54.69 54.69 0 0 1 11.51-9.21 57.2 57.2 0 0 1 29.75-7.87 59.68 59.68 0 0 1 23.99 4.8Zm-40.88 61.04c-9.98 1.34-17.46 4.03-22.26 7.87a16.31 16.31 0 0 0-6.33 13.81c0 7.1 3.84 13.82 10.55 19 6.72 5.18 16.7 9.6 35.31 9.6 13.82 0 25.34-4.8 33.4-13.82 8.06-9.02 11.51-19.38 12.28-32.82a311.62 311.62 0 0 0-32.63-4.03l-13.24-.57c-5.7-.1-11.42.23-17.08.96Z"/></svg>