<svg xmlns="http://www.w3.org/2000/svg" viewBox="0 0 1000 660"><path d="m258.06 400.54-5.56-22.58h-40.47l-5.56 22.58H170l35.26-141.03h54.01l35.26 141.03Zm-14.6-57.84-11.28-45.67-11.47 45.67Zm136.7-83.19a52.84 52.84 0 0 1 20.84 4.17 54.04 54.04 0 0 1 17.02 11.46A52.47 52.47 0 0 1 429.48 292a54.7 54.7 0 0 1 0 41.68A53.84 53.84 0 0 1 401 362.33a54.56 54.56 0 0 1-20.84 4.17h-18.24v34.04h-35.26V259.51Zm-18.24 71.73h18.24a18.24 18.24 0 0 0 0-36.47h-18.24Zm159.62-36.47v70.51h26.4v35.26h-88.06v-35.26h26.57v-70.51h-26.57V259.5h88.06v35.26Zm152.67-20.32a57.14 57.14 0 0 1 18.4 36.82l-35.08 3.3a22.23 22.23 0 0 0-7.12-14.24 21.71 21.71 0 0 0-14.76-5.74 22.06 22.06 0 0 0-22.06 22.06v26.4a22.06 22.06 0 0 0 21.88 22.23 21.71 21.71 0 0 0 14.77-5.73 22.23 22.23 0 0 0 7.12-14.24l35.08 3.3a57.32 57.32 0 0 1-79.2 47.42 58.01 58.01 0 0 1-30.4-30.4c-3-7.09-4.53-14.7-4.5-22.4v-26.4a56.8 56.8 0 0 1 4.5-22.41 58 58 0 0 1 30.4-30.4 57.32 57.32 0 0 1 60.97 10.43Zm87.88 20.32v17.54h52.8v35.26h-52.8v17.54H830v35.26H726.83V259.5H830v35.26Z"/></svg>