<svg xmlns="http://www.w3.org/2000/svg" viewBox="0 0 1000 660"><path fill-rule="evenodd" d="M280.68 494.07v-96h54.79l17.2 17.21v61.58l-17.2 17.2h-54.79Zm88.46 0v-96h63.01v12h-51.01v29.96h51.01v12h-51.01v30.04h51.01v12h-63.01Zm94.97 0-15.5-15.5v-65l15.5-15.5h41l15.5 15.5v8.5h-12v-3.5l-8.5-8.5h-31l-8.5 8.5v55l8.5 8.5h31l8.5-8.5v-3.5h12v8.5l-15.5 15.5h-41Zm70.9 0v-96h12v96h-12Zm42.58 0-15.5-15.5v-8.5h12v3.5l8.5 8.5h31l8.5-8.5v-13.03l-8.5-8.5h-36l-15.5-15.5v-22.97l15.5-15.5h41l15.5 15.5v8.5h-12v-3.5l-8.5-8.5h-31l-8.5 8.5v13.03l8.5 8.43h36l15.5 15.57v22.97l-15.5 15.5h-41Zm85.71 0-15.5-15.5v-65l15.5-15.5h41.01l15.5 15.5v65l-15.5 15.5h-41Zm-370.62-12h37.78l10.22-10.22V420.3l-10.22-10.22h-37.78v72Zm375.63 0h31l8.5-8.5v-55l-8.5-8.5h-31l-8.5 8.5v55l8.5 8.5ZM278.48 378.75v-96h54.79l17.7 17.76v60.47l-17.7 17.77h-54.79Zm88.94 0v-96h63.7v13.7h-49.99v27.44h50v13.71h-50v27.43h50v13.72h-63.71Zm95.93 0-15.77-15.78v-64.45l15.77-15.77h40.94l15.77 15.77v8.7h-13.72v-3.01l-7.74-7.75h-29.56l-7.75 7.75v53.07l7.75 7.75h29.56l7.74-7.75v-3.01h13.72v8.7l-15.77 15.78h-40.94Zm71.1 0v-96h13.72v96h-13.71Zm44.58 0-15.77-15.78v-8.7h13.71v3.01l7.75 7.75h29.56l7.74-7.75v-11.93l-7.74-7.75h-35.25l-15.77-15.77v-23.31l15.77-15.77h40.94l15.77 15.77v8.7h-13.72v-3.01l-7.74-7.75h-29.56l-7.75 7.75v11.93l7.75 7.75h35.25l15.77 15.77v23.31l-15.77 15.78h-40.94Zm86.2 0-15.78-15.78v-64.45l15.77-15.77h40.94l15.77 15.77v64.45l-15.77 15.78h-40.94Zm-373.04-13.72h35.39l9.67-9.67v-49.23l-9.67-9.67h-35.39v68.57Zm378.73 0h29.55l7.75-7.75v-53.07l-7.75-7.75h-29.55l-7.75 7.75v53.07l7.75 7.75Zm-394.6-102.67v-96h54.72l18.24 18.24v59.52l-18.24 18.24h-54.72Zm89.41 0v-96h64.32v15.43h-48.89v24.9h48.9v15.42h-48.9v24.82h48.9v15.43h-64.33Zm96.82 0-16.04-16.04V182.4l16.04-16.05h40.87l16.05 16.05v8.91h-15.43v-2.53l-7-7h-28.1l-7 7v51.15l7 7h28.1l7-7v-2.54h15.43v8.92l-16.05 16.04h-40.87Zm71.32 0v-96h15.43v96h-15.43Zm46.56 0-16.05-16.04v-8.92h15.43v2.54l7 7h28.11l7-7v-10.9l-7-6.93h-34.5l-16.04-16.05v-23.65l16.05-16.05h40.87l16.04 16.05v8.91h-15.43v-2.53l-6.99-7H586.8l-6.99 7v10.9l7 7h34.49l16.04 15.97v23.66l-16.04 16.04h-40.87Zm86.67 0-16.04-16.04V182.4l16.04-16.05h40.87l16.05 16.05v63.9l-16.05 16.05H667.1Zm-375.36-15.43h32.92l9.19-9.18v-46.77l-9.19-9.19h-32.92v65.14Zm381.74 0h28.11l7-7V188.8l-7-7h-28.11l-7 7v51.15l7 7ZM274.12 146.01V50h54.72l18.72 18.72v58.56L328.84 146h-54.72Zm89.9 0V50h65v17.14h-47.86v22.28h47.86v17.15h-47.86v22.28h47.86v17.15h-65Zm97.78 0-16.32-16.32V66.33L461.8 50h40.86l16.26 16.32v9.12h-17.15v-2.06l-6.24-6.24h-26.67l-6.24 6.24v49.23l6.24 6.24h26.67l6.24-6.24v-2.05h17.15v9.12L502.66 146H461.8Zm71.51 0V50h17.15v96H533.3Zm48.55 0-16.32-16.32v-9.12h17.15v2.05l6.24 6.24h26.67l6.24-6.24v-9.8l-6.24-6.24h-33.74l-16.32-16.25v-24L581.86 50h40.87l16.25 16.32v9.12h-17.14v-2.06l-6.24-6.24h-26.67l-6.24 6.24v9.8l6.24 6.24h33.8l16.25 16.33v23.93L622.73 146h-40.87Zm87.16 0-16.32-16.32V66.33L669.02 50h40.87l16.25 16.32v63.36L709.89 146h-40.87Zm-377.76-17.15h30.51l8.64-8.7v-44.3l-8.64-8.71h-30.51v61.71Zm384.82 0h26.67l6.24-6.24V73.4l-6.24-6.24h-26.67l-6.24 6.24v49.23l6.24 6.24Zm41.61 400.71-15.3-15.3h-40.93l-15.29 15.3V595l15.3 15.29h40.93l15.3-15.3Zm-51.98-5h32.44l9.26 9.25v56.92l-9.26 9.25H665.7l-9.25-9.25v-56.92Zm-33.25 5-15.3-15.3h-40.93l-15.3 15.3v22.63l15.3 15.22h36.68l9.26 9.26v14.06l-9.26 9.25h-32.43l-9.26-9.25v-3.98h-10.28v8.23l15.29 15.29h40.93l15.3-15.3v-22.55l-15.3-15.3h-36.68l-9.26-9.25v-14.06l9.26-9.25h32.43l9.26 9.25v3.98h10.29Zm-86.61 80.7v-96h-10.29v96Zm-24.69-80.7-15.29-15.3h-40.93l-15.3 15.3V595l15.3 15.29h40.93l15.3-15.3v-8.22h-10.3v3.98l-9.25 9.25H469.2l-9.26-9.25v-56.92l9.26-9.25h32.43l9.26 9.25v3.98h10.28Zm-87.97-5v-10.3h-62.33v96h62.33V600h-52.05v-32.57h52.05v-10.28h-52.05v-32.57Zm-78.8 6.44-16.72-16.73h-54.8v96h54.8l16.73-16.73Zm-61.23-6.44h40.26l10.7 10.7v54.03l-10.7 10.7h-40.26Z"/></svg>