<svg xmlns="http://www.w3.org/2000/svg" viewBox="0 0 1000 660"><path d="M212.07 204.56c22.08 0 35.3 8.55 42.46 15.86 7.16 7.31 15.87 20.54 15.87 42.47v134.56c0 22.08-8.56 35.3-15.87 42.46-7.3 7.16-20.53 15.87-42.46 15.87H150V204.56ZM192 413.78h20.07c3.42 0 9.64-.47 12.9-3.58 3.27-3.11 3.43-4.67 3.43-12.75V262.73c0-3.42-.31-9.64-3.42-12.75-3.11-3.11-4.83-3.58-12.91-3.58H192ZM341.18 246.4v62.69h56v42h-56v62.69h56v42h-98V204.56h98v42h-56Zm180.75 209.22-50.55-128.8v128.8h-42V204.56h39.04l50.56 128.8v-128.8h42v251.06Zm168.78-235.35c7.16 7.15 15.87 20.53 15.87 42.46v24.74h-42v-24.74c0-3.42-.31-9.64-3.42-12.75-3.12-3.11-4.83-3.58-12.92-3.58-3.42 0-9.64.31-12.75 3.58-3.11 3.26-3.58 4.67-3.58 12.75v30.03c0 3.42.47 9.64 3.58 12.75 3.11 3.11 4.67 3.58 12.75 3.58 22.1 0 35.32 8.55 42.47 15.87 7.16 7.3 15.87 20.53 15.87 42.46v30.03c0 22.08-8.56 35.3-15.87 42.46-7.31 7.16-20.53 15.87-42.47 15.87-21.93 0-35.3-8.56-42.46-15.87-7.16-7.31-15.87-20.53-15.87-42.46v-24.9h42v24.74c0 3.42.47 9.64 3.58 12.76 3.11 3.1 4.67 3.57 12.75 3.57 3.58 0 9.8-.46 12.92-3.57 3.1-3.12 3.42-4.67 3.42-12.76v-29.87c0-3.42-.31-9.64-3.42-12.75-3.12-3.11-4.83-3.58-12.92-3.58-22.08 0-35.3-8.56-42.46-15.87-7.16-7.3-15.87-20.53-15.87-42.46v-30.03c0-22.08 8.56-35.3 15.87-42.46 7.3-7.16 20.38-15.87 42.46-15.87 22.1 0 35.32 8.71 42.47 15.87Zm143.42 0c7.16 7.15 15.87 20.53 15.87 42.46V397.3c0 22.09-8.56 35.31-15.87 42.47-7.3 7.15-20.53 15.86-42.46 15.86-21.94 0-35.32-8.55-42.47-15.86-7.16-7.31-15.87-20.38-15.87-42.31V262.73c0-22.08 8.56-35.3 15.87-42.46 7.31-7.16 20.38-15.87 42.47-15.87s35.3 8.71 42.46 15.87Zm-55.22 29.7c-1.4 1.25-3.58 4.68-3.58 12.76V397.3c0 3.42.47 9.64 3.58 12.76 3.11 3.1 4.67 3.57 12.76 3.57 3.57 0 9.8-.46 12.9-3.57 3.12-3.12 3.43-4.67 3.43-12.76V262.73c0-3.42-.31-9.64-3.42-12.75-3.11-3.11-4.82-3.58-12.91-3.58-3.43 0-9.65.47-12.76 3.73Z"/></svg>