<svg xmlns="http://www.w3.org/2000/svg" viewBox="0 0 1000 660"><path fill-rule="evenodd" d="m806.56 440.19 13.67-13.68 13.68 13.68h66.66V255.57a34.29 34.29 0 0 0-34.18-34.19h-126.5v75.22h85.47v6.84h-51.28a34.29 34.29 0 0 0-34.19 34.18V406a34.29 34.29 0 0 0 34.19 34.19Zm8.54-102.57h10.26V406H815.1ZM729.63 440.2v-75.22h-41.02V296.6h41.02v-75.22h-41.02v-20.5h-75.22V406a34.29 34.29 0 0 0 34.2 34.19Zm-160.68 0a34.29 34.29 0 0 0 34.19-34.2v-41.02c0-68.37-85.47-34.18-85.47-88.89v-20.5h10.25v20.5c0 10.6 4.1 15.39 7.87 18.12 5.81 4.45 14.7 7.87 23.93 10.26 21.2 5.81 43.42 5.81 43.42 5.81v-54.7a34.29 34.29 0 0 0-34.19-34.19h-92.3a34.29 34.29 0 0 0-34.2 34.2v41.02c0 68.37 85.47 34.19 85.47 88.89v20.5h-10.25v-20.5c0-10.6-4.1-15.39-8.2-18.12-5.82-4.45-14.37-7.87-23.94-10.26-21.2-5.81-43.08-5.81-43.08-5.81V406a34.29 34.29 0 0 0 34.2 34.19Zm-136.75 0v-75.22h-85.47v-6.83H398a34.29 34.29 0 0 0 34.19-34.2v-68.37A34.29 34.29 0 0 0 398 221.38h-92.3a34.29 34.29 0 0 0-34.2 34.2V406a34.29 34.29 0 0 0 34.2 34.19Zm-85.47-184.62h10.25v68.38h-10.25ZM227.07 440.2a34.29 34.29 0 0 0 34.19-34.2V235.07a34.29 34.29 0 0 0-34.19-34.19h-126.5V440.2Zm-51.28-205.13h10.25V406H175.8Z"/></svg>