<svg xmlns="http://www.w3.org/2000/svg" viewBox="0 0 1000 660"><path fill-rule="evenodd" d="m163.1 220.28 5.13 1.31-2.62 10.27-5.13-1.31c-5.44-1.3-11.01-1.93-16.6-1.91a64.59 64.59 0 0 0-23.63 4.18 50.5 50.5 0 0 0-29.37 29.48 63.61 63.61 0 0 0-4.18 23.52 64.59 64.59 0 0 0 4.18 23.63 50.62 50.62 0 0 0 29.37 29.37 64.6 64.6 0 0 0 23.63 4.18c4.2 0 8.4-.36 12.54-1.08v-61.36h10.62v69.96l-3.94 1.07a82.72 82.72 0 0 1-19.22 2.27 76.27 76.27 0 0 1-27.45-4.9 61.12 61.12 0 0 1-35.58-35.57 80.11 80.11 0 0 1 0-54.9 61.12 61.12 0 0 1 35.58-35.58 76.28 76.28 0 0 1 27.45-4.9c6.47 0 12.92.76 19.22 2.27Zm29.37 133.58V218.01h10.62v135.85Zm127.37-130.95a61.12 61.12 0 0 1 35.57 35.57 80.1 80.1 0 0 1 0 54.91 61.12 61.12 0 0 1-35.57 35.58 80.1 80.1 0 0 1-54.91 0 61.12 61.12 0 0 1-35.58-35.58 80.11 80.11 0 0 1 0-54.9 61.12 61.12 0 0 1 35.58-35.58 80.1 80.1 0 0 1 54.9 0Zm-51.1 10.02a50.5 50.5 0 0 0-29.36 29.49 63.64 63.64 0 0 0-4.18 23.52 64.61 64.61 0 0 0 4.18 23.63 50.61 50.61 0 0 0 29.37 29.37 64.6 64.6 0 0 0 23.63 4.18c8.03.1 16.01-1.32 23.52-4.18a50.5 50.5 0 0 0 29.49-29.37 64.61 64.61 0 0 0 4.17-23.63 63.63 63.63 0 0 0-4.17-23.52 50.26 50.26 0 0 0-29.49-29.49 63.73 63.73 0 0 0-23.52-4.17 64.57 64.57 0 0 0-23.63 4.17Zm145.05-14.92c5.66-.07 11.28.9 16.59 2.87a37.84 37.84 0 0 1 21.6 21.6 46.18 46.18 0 0 1 2.87 16.6 45.7 45.7 0 0 1-2.87 16.47 37.84 37.84 0 0 1-21.6 21.6 44.07 44.07 0 0 1-11.34 2.63l35.93 53.96h-12.9l-35.8-53.6H392.3v53.6h-10.63V218.01Zm-21.5 71.5h21.5c9.07 0 16.7-2.86 22.08-8.23 5.37-5.37 8.36-13.13 8.36-22.08 0-8.96-2.87-16.72-8.36-22.09-5.5-5.37-13.01-8.35-22.08-8.35h-21.5Zm109.12-71.5a76.27 76.27 0 0 1 27.45 4.9 61.24 61.24 0 0 1 35.58 35.57 80.1 80.1 0 0 1 0 54.91 61.12 61.12 0 0 1-35.58 35.58 76.27 76.27 0 0 1-27.45 4.89h-23.28V218.01h23.16Zm-12.54 125.1h12.54a64.6 64.6 0 0 0 23.63-4.17 50.62 50.62 0 0 0 29.37-29.37 64.6 64.6 0 0 0 4.18-23.63 63.76 63.76 0 0 0-4.18-23.52 50.5 50.5 0 0 0-29.37-29.49 64.58 64.58 0 0 0-23.63-4.17h-12.54v114.48Zm164.62 10.75-4.9-17.9H595l-4.89 17.9H579l37.6-135.85H627l37.48 135.85h-11.1Zm-8-28.53-23.76-85.95-23.75 85.95Zm111.73 28.53-60.76-113.4v113.4h-10.62V218.01h10.74l60.76 113.4v-113.4h10.63v135.85Zm127.5-130.95a61.23 61.23 0 0 1 35.57 35.57 80.09 80.09 0 0 1 0 54.91 61.12 61.12 0 0 1-35.57 35.58 80.1 80.1 0 0 1-54.92 0 61.12 61.12 0 0 1-35.57-35.58 80.1 80.1 0 0 1 0-54.9 61.12 61.12 0 0 1 35.57-35.58 80.1 80.1 0 0 1 54.92 0Zm-51.1 10.02a50.5 50.5 0 0 0-29.36 29.49 63.62 63.62 0 0 0-4.18 23.52 64.6 64.6 0 0 0 4.18 23.63 50.61 50.61 0 0 0 29.36 29.37 64.6 64.6 0 0 0 23.64 4.18c8.03.1 16.01-1.32 23.52-4.18a50.5 50.5 0 0 0 29.48-29.37 64.6 64.6 0 0 0 4.18-23.63 63.67 63.67 0 0 0-4.18-23.52 50.26 50.26 0 0 0-29.48-29.49 63.72 63.72 0 0 0-23.52-4.17 64.59 64.59 0 0 0-23.64 4.17Zm69.06 180.81c-3.69 0-7.26.6-10.59 1.82a27.65 27.65 0 0 0-8.89 5.32 27.42 27.42 0 0 0-6.47 8.17 29.68 29.68 0 0 0-3.27 10.29c-.55 3.69-.43 7.2.36 10.34a18.78 18.78 0 0 0 4.18 8.17 18.87 18.87 0 0 0 7.38 5.33 26.84 26.84 0 0 0 10.1 1.81c3.7 0 7.2-.6 10.53-1.81a28.58 28.58 0 0 0 15.43-13.5 32.86 32.86 0 0 0 3.27-10.34c.48-3.7.36-7.14-.36-10.29a20.17 20.17 0 0 0-4.18-8.17c-2-2.3-4.48-4.11-7.44-5.32a26.53 26.53 0 0 0-10.05-1.82Zm-.9 6.66c5.62 0 10.16 1.75 13.07 5.14 2.9 3.4 3.99 8.17 3.2 13.8-.84 5.69-3.26 10.4-7.08 13.8-3.87 3.38-8.9 5.2-14.52 5.2-5.69 0-10.16-1.82-13.07-5.2-2.96-3.4-4.11-8.11-3.27-13.8.8-5.63 3.27-10.4 7.14-13.8 3.88-3.39 8.84-5.14 14.53-5.14Zm-63.6-6.66c-3.69 0-7.32.6-10.65 1.82a27.65 27.65 0 0 0-8.9 5.32l-.54.49 1.1-7.63h-6.66L805.26 465h6.66l3.63-25.65c.79-5.63 3.27-10.4 7.14-13.8 3.87-3.39 8.84-5.14 14.52-5.14 5.63 0 10.17 1.75 13.07 5.14 2.9 3.4 4 8.17 3.21 13.8l-3.63 25.65h6.66l3.63-25.65c.54-3.7.42-7.14-.37-10.29a19.44 19.44 0 0 0-11.62-13.5 26.2 26.2 0 0 0-9.98-1.8ZM788.32 465l7.2-51.25h-6.65l-1.1 7.63-.36-.49c-2-2.3-4.47-4.11-7.44-5.32a26.53 26.53 0 0 0-10.04-1.82c-3.7 0-7.27.6-10.6 1.82a27.65 27.65 0 0 0-8.89 5.32 27.43 27.43 0 0 0-6.47 8.17 29.7 29.7 0 0 0-3.27 10.29c-.54 3.69-.42 7.2.36 10.34a18.77 18.77 0 0 0 4.18 8.17 18.87 18.87 0 0 0 7.38 5.33 26.85 26.85 0 0 0 10.1 1.81c3.7 0 7.2-.6 10.53-1.81a28.58 28.58 0 0 0 8.96-5.33l.54-.48-1.09 7.62Zm-19.3-44.6c5.63 0 10.16 1.76 13.07 5.15 2.9 3.4 4 8.17 3.2 13.8-.84 5.69-3.26 10.4-7.07 13.8-3.88 3.38-8.9 5.2-14.53 5.2-5.62 0-10.16-1.82-13.07-5.2-2.96-3.4-4.11-8.11-3.26-13.8.78-5.63 3.26-10.4 7.14-13.8 3.87-3.39 8.9-5.14 14.52-5.14ZM723.76 465l11.92-84.7h-6.66l-5.8 41.08-.37-.49c-2-2.3-4.48-4.11-7.44-5.32a26.84 26.84 0 0 0-10.1-1.82c-3.7 0-7.2.6-10.54 1.82a27.65 27.65 0 0 0-8.9 5.32 27.43 27.43 0 0 0-6.47 8.17 29.68 29.68 0 0 0-3.26 10.29c-.55 3.69-.43 7.2.36 10.34a18.78 18.78 0 0 0 4.17 8.17 18.87 18.87 0 0 0 7.39 5.33 26.52 26.52 0 0 0 10.04 1.81c3.7 0 7.26-.6 10.59-1.81a28.58 28.58 0 0 0 8.96-5.33l.54-.48-1.09 7.62Zm-19.37-44.6c5.7 0 10.17 1.76 13.07 5.15 2.9 3.4 4.06 8.17 3.27 13.8-.84 5.69-3.33 10.4-7.14 13.8-3.87 3.38-8.83 5.2-14.52 5.2-5.63 0-10.17-1.82-13.07-5.2-2.97-3.4-4.05-8.11-3.2-13.8.78-5.63 3.2-10.4 7.07-13.8 3.87-3.39 8.9-5.14 14.52-5.14Zm-41.99-6.65c-3.7 0-7.32.6-10.65 1.82a27.65 27.65 0 0 0-8.9 5.32l-.54.49 1.1-7.63h-6.67L629.48 465h6.66l3.63-25.65c.79-5.63 3.27-10.4 7.14-13.8 3.87-3.39 8.83-5.14 14.52-5.14 1.7 0 3.33.18 4.78.48l3.15.67 2.3-6.48-3.15-.72c-1.93-.43-4-.6-6.1-.6Zm-64.62 0c-3.7 0-7.26.6-10.6 1.82a27.65 27.65 0 0 0-8.89 5.32 27.42 27.42 0 0 0-6.47 8.17 29.68 29.68 0 0 0-3.27 10.29c-.54 3.69-.42 7.2.36 10.34a18.77 18.77 0 0 0 4.18 8.17 18.87 18.87 0 0 0 7.38 5.33 26.85 26.85 0 0 0 10.1 1.81c3.7 0 7.2-.6 10.53-1.81a28.58 28.58 0 0 0 15.43-13.5 32.85 32.85 0 0 0 3.27-10.34c.49-3.7.36-7.14-.36-10.29a20.16 20.16 0 0 0-4.18-8.17c-2-2.3-4.47-4.11-7.44-5.32a26.53 26.53 0 0 0-10.04-1.82Zm-.91 6.66c5.63 0 10.16 1.75 13.07 5.14 2.9 3.4 4 8.17 3.2 13.8-.84 5.69-3.26 10.4-7.07 13.8-3.88 3.38-8.9 5.2-14.53 5.2-5.68 0-10.16-1.82-13.07-5.2-2.96-3.4-4.11-8.11-3.26-13.8.78-5.63 3.26-10.4 7.14-13.8 3.87-3.39 8.83-5.14 14.52-5.14Zm-39.7-23.9a4.8 4.8 0 0 0-4.65 4.05 3.43 3.43 0 0 0 3.5 4.12 4.9 4.9 0 0 0 4.66-4.12 3.47 3.47 0 0 0-3.5-4.05Zm-6.29 68.5 7.2-51.26h-6.65l-7.2 51.25Zm-17.18-51.26h-6.66l-1.09 7.63-.42-.49a18.74 18.74 0 0 0-7.38-5.26 26.74 26.74 0 0 0-10.05-1.88c-3.69 0-7.32.67-10.59 1.88a28.44 28.44 0 0 0-8.95 5.26 29.76 29.76 0 0 0-6.48 8.23 32.51 32.51 0 0 0-3.27 10.29c-.48 3.69-.36 7.14.37 10.28a20.4 20.4 0 0 0 4.17 8.24c2 2.3 4.48 4.05 7.45 5.26a26.84 26.84 0 0 0 10.1 1.81c3.7 0 7.2-.6 10.53-1.81a27.5 27.5 0 0 0 8.9-5.26l.54-.49-.55 4.24c-.84 5.68-3.26 10.4-7.08 13.8-3.87 3.38-8.95 5.2-14.58 5.2a19.9 19.9 0 0 1-8.05-1.52 12.86 12.86 0 0 1-5.38-4.17l-1.94-2.42-5.5 4.48 1.87 2.42a19.44 19.44 0 0 0 7.63 5.87c3.08 1.33 6.6 2 10.46 2 3.7 0 7.2-.61 10.53-1.82a28.57 28.57 0 0 0 8.96-5.33c2.6-2.3 4.78-5.02 6.47-8.17a32.87 32.87 0 0 0 3.27-10.34Zm-26.57 6.66c5.63 0 10.17 1.81 13.07 5.2 2.97 3.4 4 8.17 3.21 13.8-.79 5.63-3.2 10.4-7.08 13.8-3.87 3.38-8.9 5.14-14.52 5.14-5.63 0-10.17-1.76-13.07-5.14-2.9-3.4-4.06-8.17-3.27-13.8a22.33 22.33 0 0 1 7.14-13.8c3.87-3.39 8.9-5.2 14.52-5.2Z"/></svg>