<svg xmlns="http://www.w3.org/2000/svg" viewBox="0 0 1000 660"><path fill-rule="evenodd" d="M802.84 373v41.19h53.19c10 0 17.44 2.29 22.02 6.58 2.29 2.57 4.29 6 5.43 10.3-3.71-.3-7.15-.87-11.15-.87h-69.5v45.19c0 32.6 20.88 53.48 53.2 53.48h69.78v-86.08c0-21.17-6.58-38.61-18.88-50.91-12.3-12.3-29.74-18.87-50.9-18.87Zm41.18 98.39h28.31c4.86 0 8.3 1.14 9.72 2.57 1.72 1.71 2.58 5.15 2.58 9.72v4h-28.6c-4.58 0-8-.85-9.73-2.57-1.42-1.43-2.28-4.86-2.28-9.72ZM620.24 312.46v26.44h51.68c15.15 0 26.44 3.86 33.86 11.29 5.94 5.94 9.5 14.55 10.7 25.25-7.13-3.27-15.75-5.05-24.95-5.05h-71.3v51.98c0 15.74 4.76 29.1 13.67 38.02 9.2 9.2 22.28 13.96 38.02 13.96h71.29v-90.6c0-44.55-26.44-71.29-71.29-71.29Zm26.43 84.36h44.86c8.61 0 15.14 2.08 19.3 6.24 3.87 4.16 5.94 10.7 5.94 19.3v25.55h-44.85c-8.61 0-15.15-2.08-19.3-6.23-3.87-3.86-5.95-10.4-5.95-19.31Zm-207.96-144.9v16.7h51c17.92 0 31.89 4.86 41.3 14.27 9.11 9.11 13.97 23.08 13.97 41.3v2.13c-8.5-6.99-20.04-10.63-34-10.63H438.7v51c0 15.8 4.55 28.25 13.36 37.36 9.1 8.8 21.56 13.36 37.65 13.36h71.96v-93.22c0-11.24-1.52-21.26-4.55-30.06-3.34-9.11-8.2-17-14.28-23.08a59.28 59.28 0 0 0-23.38-14.27c-8.8-3.34-18.82-4.86-29.75-4.86Zm16.7 80.47h55.56c22.47 0 34.01 11.54 34.01 34.3v34.02h-55.26c-22.78 0-34.31-11.54-34.31-34.01ZM257.16 192.33v10.48h50.24c20.03 0 35.44 5.24 46.23 16.02 10.48 10.48 16.02 26.2 16.02 46.24v11.09a27.7 27.7 0 0 0-2.77-3.08c-8.94-8.94-21.27-13.25-36.99-13.25h-72.73v50.23c0 15.72 4.31 28.36 12.94 36.99 8.94 8.94 21.27 13.25 37.3 13.25h72.73v-95.23c0-46.24-26.81-72.74-72.73-72.74Zm10.48 77.97h62.25c25.9 0 39.76 13.87 39.76 39.76v39.76H307.4c-26.2 0-39.76-13.87-39.76-39.76ZM75.8 132.73v6.52h50c21.11 0 37.88 5.9 49.06 17.08 11.5 11.5 17.4 27.95 17.4 49.38v18.32c-8.08-13.97-22.99-21.43-43.48-21.43H75.8v49.7c0 31.67 18.32 49.68 50 49.68h72.97V205.7c0-23.3-6.52-41.3-19.25-54.03-12.42-12.43-30.74-18.95-53.72-18.95Zm6.52 76.4h66.46c13.97 0 24.84 3.72 32.3 10.86 7.45 7.46 11.17 18.33 11.17 32.3v43.17h-66.45c-13.98 0-24.85-3.73-32.3-11.18-7.45-7.15-11.18-18.01-11.18-31.99Z"/></svg>