<svg xmlns="http://www.w3.org/2000/svg" viewBox="0 0 1000 660"><path fill-rule="evenodd" d="M744.51 552.1c-40.8 0-70.35-12.68-88.36-36.1-18.01-23.42-27.06-59.36-27.77-109.66 3.55 8.43 10.02 12.42 19.78 12.42 12.07 0 19.08-6.03 21.74-19.07 3.28 13.04 11 19.07 23.78 19.07 16.14 0 24.22-9.67 25.46-31.05 8.52 2.4 19.6 3.55 33.45 3.55h11.09v-3.2H752.5c-18.55 0-31.94-2.12-40.02-6.2-8.07-4.09-11.88-10.12-11.88-19 0-8.86 3.63-14.72 11.97-18.89s21.47-6.21 40.02-6.21h11.17c30.35 0 51.9 7.98 65.66 24.13 13.75 16.15 20.5 41.26 20.58 76.66v.88c0 39.75-8.34 67.87-25.2 85.89-16.85 18-43.12 26.79-80.29 26.79Zm-478.29-.08c-40.8 0-69.64-11.71-88.36-36.1-18.72-24.4-27.86-62.38-27.86-116.05V221.09c0-26.88 10.02-30.52 19.78-30.52 9.76 0 19.79 3.64 19.79 30.52v113.48h3.2V171.5c0-24.22 6.74-34.51 22.44-34.51 15.7 0 22.44 10.29 22.44 34.51v143.82h3.2V145.59c0-27.06 7.54-38.59 25.2-38.59 17.65 0 25.2 11.53 25.2 38.6v169.72h3.19V175.49c0-27.06 7.54-38.6 25.2-38.6 17.65 0 25.19 11.54 25.19 38.6v224.29h3.2v-59.36c0-18.54 2.12-31.94 6.2-40 4.08-8.08 10.03-11.9 18.99-11.9 8.96 0 14.82 3.55 18.99 11.9 4.17 8.33 6.2 21.46 6.2 40v59.44c0 53.68-10.29 91.39-31.49 115.87-21.2 24.49-54.2 36.29-100.7 36.29Zm381.85-136.54c-9.76 0-19.78-3.64-19.78-30.52v-72.84c0-26.88 10.02-30.52 19.78-30.52 9.76 0 19.79 3.64 19.79 30.52v72.84c0 26.88-10.03 30.52-19.79 30.52Zm45.52 0c-15.8 0-22.54-10.3-22.54-34.6V287c0-24.22 6.74-34.5 22.54-34.5 15.79 0 22.53 10.28 22.53 34.5v51.9c-12.77 4.44-18.72 12.25-18.72 23.87 0 11.62 5.86 19.43 18.54 23.87-1.06 20.14-7.9 28.83-22.35 28.83Zm129.62-64.06c-14.2-11.35-33.8-16.94-59.53-16.94H752.5c-13.75 0-24.76 1.15-33.19 3.55V145.59c0-27.06 7.55-38.59 25.2-38.59 17.66 0 25.2 11.53 25.2 38.6v169.8h3.1V175.58c0-27.06 7.54-38.6 25.2-38.6 17.65 0 25.2 11.54 25.2 38.6v175.84Z"/></svg>