<svg xmlns="http://www.w3.org/2000/svg" viewBox="0 0 1000 660"><path d="M285.9 260.42v109.43h14.08v21.92H249.9v-21.92h14.08V260.42h-.48L209.6 391.77h-19.2l-53.91-131.35H136v109.43h14.07v21.92H100v-21.92h14.08V260.42H100V238.5h51.04l48.95 119.19 48.96-119.19h51.03v21.92Zm149.75 109.43v21.92h-36v-8.64a52.31 52.31 0 0 1-9.12 4.8 65.1 65.1 0 0 1-44 0 44.13 44.13 0 0 1-17.43-12 49.76 49.76 0 0 1-10.56-18.72 84.8 84.8 0 0 1 0-46.72 49.76 49.76 0 0 1 10.56-18.72 44.15 44.15 0 0 1 17.27-11.83 65.12 65.12 0 0 1 44 0c3.2 1.3 6.25 2.9 9.12 4.8v-8.64h21.92v93.75h14.08Zm-90.4-63.36a27.97 27.97 0 0 0-5.75 10.72 61.75 61.75 0 0 0 0 33.44 28.8 28.8 0 0 0 5.76 10.72c5.12 5.76 12.95 8.48 23.2 8.48 10.23 0 18.07-2.88 23.03-8.48a30.55 30.55 0 0 0 5.92-10.72 64.63 64.63 0 0 0 0-33.44 29.6 29.6 0 0 0-5.92-10.72c-4.96-5.76-12.96-8.47-23.04-8.47-10.08 0-18.07 2.71-23.2 8.47Zm181.59-8.47c-10.24 0-18.08 2.87-23.04 8.47a29.58 29.58 0 0 0-5.92 10.72 58.35 58.35 0 0 0-2.24 16.64v36h14.08v21.92h-50.08v-21.92h14.08v-71.83h-14.08V276.1h36v8.64c2.87-1.9 5.93-3.5 9.12-4.8 7-2.62 14.44-3.92 21.92-3.84h10.88v21.92h-10.88Zm206.38-18.08a45.75 45.75 0 0 1 17.43 12 51.2 51.2 0 0 1 10.4 18.71 77.43 77.43 0 0 1 3.36 23.36v36h13.92v21.91h-49.91v-22.07h14.07v-36c.06-5.62-.7-11.23-2.23-16.64a29.6 29.6 0 0 0-5.92-10.72c-5.12-5.76-12.96-8.47-23.04-8.47-10.08 0-18.08 2.87-23.2 8.47a28.01 28.01 0 0 0-5.76 10.72 54.55 54.55 0 0 0-2.24 16.64v36h14.08v21.92h-50.23v-21.92h14.07v-36a54.55 54.55 0 0 0-2.24-16.64 28 28 0 0 0-5.76-10.72c-5.11-5.76-12.95-8.47-23.2-8.47-10.23 0-18.07 2.87-23.03 8.47a29.58 29.58 0 0 0-5.92 10.72 58.35 58.35 0 0 0-2.24 16.64v36h14.08v21.92h-50.08v-21.92h14.08v-71.83h-14.08V276.1h36v8.64c2.87-1.9 5.93-3.5 9.12-4.8a65.12 65.12 0 0 1 44 0 44.17 44.17 0 0 1 17.43 12l2.88 3.51 2.88-3.52a44.63 44.63 0 0 1 17.28-12 65.43 65.43 0 0 1 44 0Zm135.66 0a44.94 44.94 0 0 1 17.44 12 51.04 51.04 0 0 1 10.4 18.71 84.78 84.78 0 0 1 0 46.72 51.03 51.03 0 0 1-10.4 18.72 44.94 44.94 0 0 1-17.44 12 65.12 65.12 0 0 1-44 0 44.17 44.17 0 0 1-17.43-12 49.76 49.76 0 0 1-10.56-18.72 84.8 84.8 0 0 1 0-46.72 49.76 49.76 0 0 1 10.56-18.72 44.17 44.17 0 0 1 17.44-12 65.12 65.12 0 0 1 44 0Zm-45.11 26.55a28 28 0 0 0-5.76 10.72 61.75 61.75 0 0 0 0 33.44c1.13 3.94 3.1 7.6 5.76 10.72 5.12 5.76 12.95 8.48 23.2 8.48 10.23 0 18.07-2.88 23.03-8.48a30.55 30.55 0 0 0 5.92-10.72 64.63 64.63 0 0 0 0-33.44A29.58 29.58 0 0 0 870 306.5c-4.96-5.76-12.96-8.47-23.04-8.47-10.07 0-18.07 2.71-23.35 8.47Z"/></svg>