<svg xmlns="http://www.w3.org/2000/svg" viewBox="0 0 1000 660"><path d="M950.5 275.93 929.57 255H819.62l-20.93 20.93V406.8h45.54v-37.95h60.73v37.95h45.54Zm-106.27 24.61h60.73v22.77h-60.73Zm-58.55 0V255H662.4l-20.93 20.93v109.95l20.93 20.93h123.3v-45.54H687v-60.73ZM628.45 406.81V255h-45.54v151.8Zm-58.55 0V255h-48.04l-46.84 90.54L428.17 255h-48.03v151.8h45.54v-57.57l29.82 57.58h39.04l29.81-57.58v57.58ZM367.13 300.54V255H236.25l-20.93 20.93v56.82l20.93 20.92h85.33v7.6H215.32v45.54H346.2l20.93-20.93v-56.82l-20.93-20.93h-85.34v-7.59ZM202.3 275.93 181.38 255H71.43L50.5 275.93v109.95l20.93 20.93h109.95l20.93-20.93ZM96.04 300.54h60.72v60.73H96.04Z"/></svg>