<svg xmlns="http://www.w3.org/2000/svg" viewBox="0 0 1000 660"><path d="M158.3 221a19.8 19.8 0 0 1 13.98 5.9l19.27 18.93a19.45 19.45 0 0 1 5.56 13.98v63.74c.1 5.21-1.9 10.25-5.56 13.98l-19.27 18.93a19.8 19.8 0 0 1-13.98 5.9H89.27v76.15H49.5V221ZM54.45 433.56h29.87V357.5h73.98a15.97 15.97 0 0 0 10.6-4.34l19.18-19.02a15.97 15.97 0 0 0 4.08-10.6V259.9c0-3.91-1.46-7.69-4.08-10.6l-19.28-18.92a15.9 15.9 0 0 0-10.59-4.34H54.45Zm106.63-168.71 1.21 1.56v50.63l-1.21 1.56-7.12 7.47-1.57 1.56H84.32v-71.81h68.07l1.57 1.56Zm-71.81 57.83h60.87l7.12-7.47v-46.89l-7.12-7.46H89.27ZM346.37 221a19.8 19.8 0 0 1 13.98 5.9l19.28 18.93a19.45 19.45 0 0 1 5.56 13.98v63.74c.1 5.21-1.9 10.25-5.56 13.98l-19.28 18.93a19.8 19.8 0 0 1-13.98 5.9h-68.94v76.15h-39.77V221ZM242.61 433.56h29.87V357.5h73.98a15.97 15.97 0 0 0 10.6-4.34l19.18-19.02a15.98 15.98 0 0 0 4.08-10.6V259.9c0-3.91-1.46-7.69-4.08-10.6l-19.27-18.92a15.9 15.9 0 0 0-10.6-4.34H242.61Zm103.76-195.1c.62.11 1.18.45 1.57.95l19.27 18.93c.39.43.6.98.61 1.56v63.73c0 .58-.22 1.14-.6 1.57l-19.28 18.93c-.4.5-.95.83-1.57.95h-86.4v76.15h-4.94V238.45Zm-86.4 101.59h85.8l17.1-17.72v-61.21l-17.1-17.72h-85.8Zm89.18-75.2 1.22 1.56v50.63l-1.22 1.56-7.12 7.47-1.56 1.56h-68.08v-71.81h68.08l1.56 1.56Zm-71.8 57.83h60.86l7.12-7.47v-46.89l-7.12-7.46h-60.78v61.82ZM534.52 221a19.8 19.8 0 0 1 13.99 5.9l19.27 18.93a19.46 19.46 0 0 1 5.56 13.98v63.74c.1 5.21-1.9 10.25-5.56 13.98l-19.27 18.93a19.8 19.8 0 0 1-13.99 5.9H465.5v76.15h-39.77V221ZM430.68 433.56h29.87V357.5h73.98a15.88 15.88 0 0 0 10.6-4.34l19.19-19.02a15.97 15.97 0 0 0 4.08-10.6V259.9a15.97 15.97 0 0 0-4.08-10.6l-19.28-18.92a15.9 15.9 0 0 0-10.6-4.34H430.69Zm103.85-203.79a11.1 11.1 0 0 1 7.73 3.39l19.28 18.93a10.94 10.94 0 0 1 3.12 7.72v63.74c.02 2.88-1.1 5.66-3.12 7.72l-19.28 18.93a11.1 11.1 0 0 1-7.73 3.39h-77.7v76.15h-22.41V229.77Zm-95.16 195.1h12.42v-76.14h82.66c1.63-.01 3.19-.67 4.34-1.83l19.28-18.92a6.77 6.77 0 0 0 1.56-4.35V259.9c0-1.58-.55-3.12-1.56-4.34l-19.28-18.93a6.17 6.17 0 0 0-4.34-1.82h-95.08v190.15Zm95.16-186.42c.62.12 1.18.46 1.57.96l19.27 18.93c.4.43.6.98.61 1.56v63.73c0 .58-.22 1.14-.6 1.57l-19.28 18.93c-.39.5-.95.83-1.57.95h-86.4v76.15h-5.03V238.45Zm-86.4 101.6h85.8l17.1-17.72v-61.21l-17.1-17.72h-85.8ZM546 261.46l1.21 1.22v58.09l-1.21 1.21-12.16 12.77-1.56 1.56h-80.4v-89.17h80.48l1.57 1.56Zm-89.18 69.9h73.37l12.16-12.76v-53.75l-12.16-12.76h-73.37Zm80.5-66.51 1.2 1.56v50.63l-1.2 1.56-7.13 7.47-1.56 1.56h-68.08v-71.81h68.08l1.56 1.56Zm-71.82 57.83h60.96l7.12-7.47v-46.89l-7.12-7.46H465.5ZM722.6 221a19.8 19.8 0 0 1 13.99 5.9l19.27 18.93a19.45 19.45 0 0 1 5.56 13.98v63.74c.1 5.21-1.9 10.25-5.56 13.98l-19.27 19.01a19.8 19.8 0 0 1-13.98 5.9h-68.94v76.16H613.8V221Zm-91.34 200.14h4.95V345h86.4a2.6 2.6 0 0 0 1.56-.95l19.28-18.93c.39-.43.6-.99.6-1.56V259.9c0-.58-.21-1.13-.6-1.56l-19.28-18.93c-.39-.5-.94-.84-1.56-.96h-91.35Zm107.85-98.8-17.1 17.7h-85.8V243.4h85.8l17.1 17.72Zm-85.44.34h60.86l7.12-7.47v-46.89l-7.12-7.46h-60.86ZM910.68 221a19.8 19.8 0 0 1 13.98 5.9l19.28 18.93a19.45 19.45 0 0 1 5.56 13.98v63.74c.1 5.21-1.9 10.25-5.56 13.98l-19.28 18.93a19.8 19.8 0 0 1-13.98 5.9h-69.03v76.15H801.9V221Zm-69.03 101.6h60.87l7.12-7.48v-46.88l-7.12-7.47h-60.87Z"/></svg>