<svg xmlns="http://www.w3.org/2000/svg" viewBox="0 0 1000 660"><path fill-rule="evenodd" d="M520.83 583V464.37h67.79v16.95h-50.84v50.84h50.84v16.95h-50.84V583h-16.95Zm67.79-50.84v-50.84h16.94v50.84h-16.94Zm59.31 16.95v-16.95h50.84v-16.95h-50.84v-16.94h50.84v-16.95h16.95v67.79h-67.79Zm50.84-67.79h-50.84v-16.95h50.84v16.95Zm-50.84 33.9v16.94h-16.95v-16.95h16.95Zm-361.68-17.89V378.71h67.78v16.94H303.2v50.84h50.84v16.95H303.2v33.9h-16.94Zm67.78-50.84v-50.84h16.95v50.84h-16.95Zm-61 44.06h3.38v-33.89h50.84v-3.39h-50.84v-64.4h50.84v-3.39h-54.23v105.07Zm120.32-27.11v-16.95h50.84v-16.95h-50.84V412.6h50.84v-16.95h16.94v67.79h-67.78Zm50.84-67.79h-50.84v-16.94h50.84v16.94Zm-50.84 33.9v16.94H396.4v-16.95h16.95Zm6.77 27.11h54.23v-54.23h-3.39v16.95h-50.84v3.39h50.84v30.5h-50.84v3.39Zm-59.3-16.95h3.38v-37.28h-3.39v37.28Zm42.36 0h3.39v-3.39h-3.4v3.4Zm117.65-44.87V276.22h67.79v16.94h-50.84V344h50.84v16.95h-50.84v33.9h-16.95ZM588.62 344v-50.84h16.94V344h-16.94Zm-64.4 47.45h10.17v-33.89h50.84V347.4h-50.84v-57.62h50.84v-10.16h-61v111.84Zm-104.1-2.58h37.29v-3.39h-37.29v3.4Zm107.5-.8V282.98h54.22v3.4H531v64.4h50.84v3.38H531v33.9h-3.39Zm120.31-27.12V344h50.84v-16.94h-50.84V310.1h50.84v-16.95h16.95v67.79h-67.79Zm50.84-67.79h-50.84v-16.94h50.84v16.94Zm-50.84 33.9V344h-16.95v-16.94h16.95Zm3.4 30.5h61v-61h-10.17v16.94h-50.84v10.17h50.84v23.72h-50.84v10.17Zm3.38-3.39v-3.39h50.84v-30.5h-50.84v-3.4h50.84v-16.94h3.39v54.23h-54.23Zm-62.7-13.56h10.17v-44.06H592v44.06Zm42.37 0h10.16v-10.16h-10.16v10.16Zm-38.98-3.39v-37.28h3.39v37.28h-3.4Zm42.36 0v-3.38h3.4v3.38h-3.4Zm-351.58-28.05V190.55h67.79v16.94h-50.84v50.84h50.84v16.95h-50.84v33.9h-16.95Zm67.79-50.84V207.5h16.94v50.84h-16.94Zm-62.7 45.76h6.77v-33.9h50.85v-6.77h-50.85V202.4h50.85v-6.78h-57.62V304.1Zm360.05-14.32h44.06v-10.16h-44.06v10.16Zm3.4-3.39V283h37.27v3.4h-37.28Zm-241.44-11.1v-16.95h50.84V241.4h-50.84v-16.95h50.84V207.5h16.95v67.8h-67.79Zm50.84-67.79h-50.84v-16.94h50.84v16.94Zm-50.84 33.9v16.94h-16.95V241.4h16.95Zm5.09 28.8h57.61v-57.61h-6.77v16.95h-50.84v6.77h50.84v27.12h-50.84v6.78Zm-59.32-16.94h6.78v-40.67h-6.78v40.67Zm42.37 0h6.78v-6.78h-6.78v6.78Zm119.41-46.62V88h67.79v16.95h-50.84v50.84h50.84v16.94h-50.84v33.9h-16.95Zm67.79-50.84v-50.84h16.94v50.84h-16.94Zm-64.4 47.45h10.17v-33.9h50.84v-10.16h-50.84v-57.62h50.84V91.39h-61v111.85Zm-105.85-.83h40.67v-6.78h-40.67v6.78Zm229.56-29.68V155.8h50.84v-16.95h-50.84v-16.95h50.84v-16.94h16.95v67.78h-67.79Zm50.84-67.78h-50.84V88h50.84v16.95Zm-50.84 33.89v16.95h-16.95v-16.95h16.95Zm3.4 30.5h61v-61h-10.17v16.94h-50.84v10.17h50.84v23.73h-50.84v10.16ZM592 152.4h10.17v-44.06H592v44.06Zm42.37 0h10.16v-10.17h-10.16v10.17Zm16.94-50.84h44.06V91.39h-44.06v10.17Z"/></svg>