<svg xmlns="http://www.w3.org/2000/svg" viewBox="0 0 1000 660"><path d="M357.87 83a7.2 7.2 0 1 1 0 14.41H255.32c-6.08 0-7.88.9-8.45 1.58-.56.67-1.57 2.25-1.57 8.44v25.67c0 5.96 1.01 7.88 1.57 8.44.57.56 2.25 1.35 8.45 1.35h85.33c6.53 0 13.62.79 18.58 5.74 4.95 4.96 5.73 12.27 5.73 18.58v25.66c0 6.53-.56 13.63-5.73 18.58-5.18 4.95-12.05 5.74-18.58 5.74H238.32a7.2 7.2 0 1 1 0-14.4h102.33c6.08 0 7.88-.9 8.44-1.58.57-.68 1.58-2.25 1.58-8.45v-25.78c0-5.96-1.01-7.88-1.58-8.44-.56-.56-2.25-1.58-8.44-1.58h-85.33c-6.53 0-13.63-.56-18.58-5.51-4.95-4.96-5.74-12.27-5.74-18.58v-25.55c0-6.53.79-13.62 5.74-18.58C241.7 83.8 248.8 83 255.32 83Zm165.15 123.6a7.15 7.15 0 0 1-12.83 6.31l-6.53-13.06h-93.77l-6.54 13.06a7.15 7.15 0 1 1-12.83-6.3L450.2 87.05c2.81-5.4 10.35-5.4 12.83 0Zm-26.57-21.04-39.62-79.37-39.63 79.37Zm-23.75 77.56a7.2 7.2 0 1 1 0 14.41H369.58c-5.51 0-7.32.9-7.88 1.58-.56.67-1.57 2.25-1.57 8.44v85.34c0 6.07 1 7.88 1.57 8.44.56.56 2.25 1.57 8.44 1.57h85.34c6.08 0 7.88-.9 8.44-1.57.56-.68 1.58-2.25 1.58-8.44v-35.7H412.8a6.98 6.98 0 0 1-7.1-7.08 7.1 7.1 0 0 1 7.1-7.32h59.9a7.2 7.2 0 0 1 7.08 7.32v42.66c0 6.53-.56 13.63-5.74 18.58-5.18 4.95-12.04 5.74-18.57 5.74h-85.34c-6.53 0-13.62-.79-18.57-5.74-4.95-4.95-5.74-12.05-5.74-18.58v-85.33c0-6.53.79-13.62 5.74-18.58 4.95-4.95 12.04-5.74 18.57-5.74Zm-102.56 5.4c-6.53 0-11.48.8-14.74 4.06-3.27 3.27-4.17 5.18-4.17 14.97v85.34c0 5.17.56 11.14 4.17 14.74 3.6 3.6 5.4 4.17 14.74 4.17h85.34c6.3 0 11.14-.57 14.97-4.17s4.05-9.23 4.05-14.74V330.1c.01-.98-.72-1.8-1.69-1.92h-60a1.8 1.8 0 0 0-1.69 1.92 1.58 1.58 0 0 0 1.69 1.69h57.98v40.97c0 6.3-1.02 9.91-3.04 12.28-2.03 2.36-5.97 3.03-12.27 3.03h-85.34c-6.3 0-9.9-.9-12.27-3.03-2.36-2.15-3.04-5.97-3.04-12.28v-85.33c0-6.3 1.02-9.9 3.04-12.27 2.03-2.37 5.74-3.04 11.71-3.04H472.7c.97-.11 1.7-.94 1.69-1.91a1.7 1.7 0 0 0-1.69-1.7Zm249.93-5.4c6.52 0 13.62.57 18.57 5.74 4.95 5.18 5.74 12.05 5.74 18.58v85.33c0 6.53-.56 13.63-5.74 18.58-5.18 4.95-12.05 5.74-18.57 5.74h-85.34c-6.53 0-13.62-.79-18.57-5.74-4.96-4.95-5.74-12.05-5.74-18.58v-85.33c0-6.53.78-13.62 5.74-18.58 4.95-4.95 12.04-5.74 18.57-5.74Zm-85.34 5.4c-6.3 0-11.26.8-14.75 4.17-3.49 3.38-4.16 5.4-4.16 14.75v85.33c0 5.18.56 11.15 4.16 14.75 3.6 3.6 5.52 4.17 14.75 4.17h85.34c5.4 0 11.14-.57 14.97-4.17s4.05-9.57 4.05-14.75v-85.33c0-6.53-.56-11.48-4.05-14.75-3.5-3.26-9-4.16-14.97-4.16Zm85.34 3.6c6.52 0 10.13.9 12.27 3.05 2.13 2.14 3.04 5.97 3.04 12.27v85.33c0 6.3-.8 9.91-3.04 12.28-2.25 2.36-5.75 3.03-12.27 3.03h-85.34c-6.3 0-9.9-.9-12.04-3.03-2.14-2.15-3.27-5.97-3.27-12.28v-85.33c0-6.3.9-9.9 3.27-12.27 2.36-2.37 5.74-3.04 12.04-3.04Zm-85.34 5.41c-6.08 0-7.88.9-8.44 1.58-.56.67-1.58 2.25-1.58 8.44v85.34c0 6.07.9 7.88 1.58 8.44.67.56 2.25 1.57 8.44 1.57h85.34c6.07 0 7.88-.9 8.44-1.57.56-.68 1.58-2.25 1.58-8.44v-85.45c0-6.08-1.02-7.88-1.58-8.44-.56-.57-2.25-1.58-8.44-1.58h-85.34Zm76.9 172.8V569.9a7.08 7.08 0 0 1-7.1 7.32 7.32 7.32 0 0 1-7.32-7.32V467.8l-55.95 56.06a6.98 6.98 0 0 1-4.95 2.14 7.43 7.43 0 0 1-5.18-2.14l-56.06-56.06v102.1a7.2 7.2 0 1 1-14.3 0V450.34a7.2 7.2 0 0 1 12.27-4.95l63.38 63.38 63.16-63.38a7.2 7.2 0 0 1 12.04 4.95Zm-9.8-2.47L536.2 513.5l-65.86-65.63a3.26 3.26 0 0 0-4.05-.79 3.71 3.71 0 0 0-2.26 3.27v119.55a3.71 3.71 0 1 0 7.43 0V459.57l62.03 61.8a3.5 3.5 0 0 0 2.7 1.13 3.38 3.38 0 0 0 2.48-1.13l62.03-61.8v110.32a3.83 3.83 0 0 0 3.83 3.83 3.72 3.72 0 0 0 3.6-3.83V450.34a3.72 3.72 0 0 0-6.19-2.48Zm167.85 119a7.15 7.15 0 1 1-12.83 6.3l-6.53-13.06h-93.67l-6.53 13.06a7.15 7.15 0 1 1-12.83-6.3l59.67-119.56c2.81-5.4 10.35-5.4 12.83 0Zm-69.57-118.1-59.78 119.67c-1.01 2.14-.34 4.17 1.69 4.95 1.84.84 4 .1 4.95-1.68l7.43-14.98h97.94l7.43 14.98a3.82 3.82 0 0 0 4.96 1.68c2.14-.78 2.47-2.8 1.69-4.95l-59.67-119.67a3.5 3.5 0 0 0-3.27-2.14c-1.42.07-2.7.89-3.37 2.14ZM658.34 549.3l45.14-90.5 45.15 90.5Zm84.77-3.49-39.63-79.36-39.62 79.36Z"/></svg>