<svg xmlns="http://www.w3.org/2000/svg" viewBox="0 0 1000 660"><path d="M770.54 268.42c-5.08 0-9.87.86-14.18 2.5a34.54 34.54 0 0 0-11.87 7.75 32.6 32.6 0 0 0-7.67 11.78 38.8 38.8 0 0 0-2.58 14.18v46.17c0 5.07.86 9.86 2.58 14.17a32.98 32.98 0 0 0 7.67 11.88 32.99 32.99 0 0 0 11.87 7.66 38.07 38.07 0 0 0 14.18 2.59h69.25c4.98 0 9.77-.86 14.18-2.59a33.82 33.82 0 0 0 11.88-7.66 35.73 35.73 0 0 0 7.66-11.88A40.08 40.08 0 0 0 876 350.8v-46.17c0-4.98-.86-9.77-2.49-14.18a35.32 35.32 0 0 0-7.66-11.78 35.45 35.45 0 0 0-11.88-7.76 40.86 40.86 0 0 0-14.18-2.49Zm69.25 26.34c2.2 0 5.27.39 7.38 2.5 2.1 2.1 2.49 5.16 2.49 7.37v46.17c0 2.3-.38 5.36-2.5 7.47-2.1 2.01-5.16 2.49-7.37 2.49h-69.25c-2.3 0-5.36-.48-7.47-2.5-2.01-2.1-2.5-5.16-2.5-7.46v-46.17c0-2.2.49-5.27 2.5-7.38 2.1-2.1 5.17-2.49 7.47-2.49Zm-122.8 0v-26.34h-59.28c-5.08 0-9.87.86-14.18 2.5a34.52 34.52 0 0 0-11.88 7.75 32.6 32.6 0 0 0-7.66 11.78 38.78 38.78 0 0 0-2.59 14.18v82.47h26.34v-82.47c0-2.2.48-5.27 2.5-7.38 2.1-2.1 5.17-2.49 7.47-2.49ZM564.13 387.1c4.98 0 9.77-.86 14.18-2.5 4.5-1.81 8.52-4.4 11.88-7.75a35.3 35.3 0 0 0 7.66-11.78c1.63-4.4 2.49-9.2 2.49-14.18v-82.47h-26.34v82.47c0 2.2-.39 5.27-2.5 7.38-2.1 2.1-5.16 2.49-7.37 2.49h-69.25c-2.3 0-5.36-.38-7.47-2.5-2.01-2.1-2.5-5.16-2.5-7.37v-82.47h-26.33v82.47c0 4.98.86 9.77 2.58 14.18a32.6 32.6 0 0 0 7.67 11.78 34.51 34.51 0 0 0 11.87 7.76c4.31 1.63 9.1 2.49 14.18 2.49ZM309.14 268.42v26.34h93.97c2.2 0 5.36.39 7.37 2.5 2.11 2.1 2.59 5.16 2.59 7.37v9.96h-79.22c-5.07 0-9.86.86-14.17 2.59a33.8 33.8 0 0 0-19.54 19.44 38.8 38.8 0 0 0-2.59 14.18c0 5.07.86 9.86 2.59 14.17a32.97 32.97 0 0 0 7.66 11.88 33.81 33.81 0 0 0 11.88 7.66 38.08 38.08 0 0 0 14.17 2.59h69.26c4.98 0 9.77-.86 14.17-2.59a33.8 33.8 0 0 0 11.88-7.66 32.97 32.97 0 0 0 7.66-11.88 38.1 38.1 0 0 0 2.59-14.17v-46.17c0-4.98-.86-9.77-2.59-14.18a32.6 32.6 0 0 0-7.66-11.78 35.45 35.45 0 0 0-11.88-7.76 40.86 40.86 0 0 0-14.17-2.49Zm103.93 72.51v9.87c0 2.3-.48 5.36-2.59 7.47-2 2.01-5.17 2.49-7.37 2.49h-69.26c-2.3 0-5.36-.48-7.47-2.5-2-2.1-2.49-5.16-2.49-7.46 0-2.2.48-5.27 2.5-7.38 2.1-2.1 5.17-2.49 7.46-2.49ZM166.13 253a42.9 42.9 0 0 0-15.8 2.87 35.97 35.97 0 0 0-13.03 8.43 35.97 35.97 0 0 0-8.43 13.03 42.9 42.9 0 0 0-2.87 15.8c0 5.56.96 10.83 2.87 15.71a37.19 37.19 0 0 0 8.43 13.13 37.3 37.3 0 0 0 13.03 8.42 42.92 42.92 0 0 0 15.8 2.88h76.92c3.07 0 7.28.57 10.25 3.54 2.97 2.97 3.54 7.19 3.54 10.15 0 3.07-.57 7.29-3.54 10.25-2.97 2.97-7.18 3.55-10.25 3.55h-76.92c-3.06 0-7.28-.58-10.25-3.55-2.97-2.96-3.54-7.18-3.54-10.25H126c0 5.66.96 10.93 2.87 15.81a35.97 35.97 0 0 0 8.43 13.03 35.97 35.97 0 0 0 13.03 8.43 42.9 42.9 0 0 0 15.8 2.87h76.92a42.9 42.9 0 0 0 15.8-2.87 35.97 35.97 0 0 0 13.03-8.43 35.97 35.97 0 0 0 8.43-13.03 42.9 42.9 0 0 0 2.87-15.8c0-5.56-.95-10.83-2.87-15.71a37.18 37.18 0 0 0-8.43-13.13 37.29 37.29 0 0 0-13.03-8.43 42.86 42.86 0 0 0-15.8-2.77h-76.92c-3.06 0-7.28-.67-10.25-3.64-2.97-2.97-3.54-7.19-3.54-10.16 0-3.06.57-7.28 3.54-10.24 2.97-2.88 7.19-3.55 10.25-3.55h76.92c3.07 0 7.28.67 10.25 3.55 2.97 2.96 3.54 7.18 3.54 10.24h26.34a42.9 42.9 0 0 0-2.87-15.8 35.97 35.97 0 0 0-8.43-13.03 35.97 35.97 0 0 0-13.03-8.43 42.9 42.9 0 0 0-15.8-2.87Z"/></svg>