<svg xmlns="http://www.w3.org/2000/svg" viewBox="0 0 1000 660"><path d="M334.16 459.77c-7.94 0-14.2-.73-19.5-1.93-6.75-1.93-12.04-5.06-15.9-9.39-3.85-4.57-6.02-10.35-6.98-17.34-.48-5.54-.24-11.8.72-19.74l21.44-152.9a107.8 107.8 0 0 1 4.81-19.75c2.89-6.99 6.74-12.76 11.8-17.34a47.6 47.6 0 0 1 18.78-9.4 93.6 93.6 0 0 1 19.99-1.92c7.94 0 13.96.73 19.5 1.93 6.5 1.92 12.04 5.05 15.9 9.39 3.6 4.58 6.01 10.35 6.98 17.34.48 5.54.24 11.8-.97 19.74l-21.43 152.9a92.14 92.14 0 0 1-4.57 19.75 50.25 50.25 0 0 1-11.8 17.34 49.28 49.28 0 0 1-18.78 9.39 95.25 95.25 0 0 1-19.99 1.93Zm88.37 0c-8.67 0-14.68-6.99-13.48-15.66l26-185.65c1.2-7.94 2.65-14.2 4.82-19.74 2.89-6.99 6.74-12.76 11.8-17.34 5.06-4.34 11.32-7.47 18.54-9.4a95.26 95.26 0 0 1 19.99-1.92c7.94 0 14.2.73 19.5 1.93 6.74 1.92 12.04 5.05 16.13 9.39 3.62 4.58 6.02 10.35 6.99 17.34.24 5.54.24 11.8-.97 19.74l-26 185.65c-1.2 8.67-9.15 15.66-17.82 15.66s-14.69-6.99-13.48-15.66l26-185.65c1.69-12.28.24-14.69 0-14.93-.24-.24-2.4-2.16-14.69-2.16-12.28 0-14.93 1.92-15.17 2.16-.24.24-2.65 2.65-4.33 14.93l-26 185.65c-1.21 8.67-9.16 15.66-17.83 15.66Zm121.12 0c-8.67 0-14.69-6.99-13.48-15.66l30.58-218.4c1.2-8.67 9.15-15.65 17.82-15.65 8.66 0 14.69 6.98 13.48 15.65l-30.58 218.4c-1.2 8.67-9.15 15.66-17.82 15.66Zm88.13 0c-7.94 0-14.2-.73-19.5-1.93-6.74-1.93-12.04-5.06-15.9-9.39-3.85-4.57-6.01-10.35-6.98-17.34-.48-5.54-.24-11.8.73-19.74l21.43-152.9c1.2-7.95 2.89-14.21 4.81-19.75 2.9-6.99 6.75-12.76 11.8-17.34a47.6 47.6 0 0 1 18.78-9.4 93.6 93.6 0 0 1 19.99-1.92c7.95 0 13.97.73 19.5 1.93 6.5 1.92 12.04 5.05 15.9 9.39 3.6 4.58 6.02 10.35 6.98 17.34.48 5.54.24 11.8-.96 19.74l-4.58 32.75c-1.2 8.67-9.15 15.65-17.82 15.65s-14.69-6.98-13.48-15.65l4.57-32.75c1.93-12.28.24-14.69 0-14.93-.24-.24-2.4-2.16-14.69-2.16-12.28 0-14.93 1.92-15.17 2.16-.24.24-2.4 2.65-4.33 14.93l-21.43 152.9c-1.69 12.29 0 14.7 0 14.94.24.24 2.4 2.16 14.69 2.16 12.28 0 14.93-1.92 15.17-2.16.48-.25 2.65-2.65 4.33-14.93l4.58-32.75c1.2-8.67 9.15-15.65 17.82-15.65 8.66 0 14.68 6.98 13.48 15.65l-4.58 32.75a92.14 92.14 0 0 1-4.57 19.74 50.24 50.24 0 0 1-11.8 17.34 49.28 49.28 0 0 1-18.78 9.39 95.27 95.27 0 0 1-19.99 1.93Zm120.88 0c-7.94 0-14.2-.73-19.5-1.93-6.75-1.93-12.04-5.06-15.9-9.39-3.85-4.57-6.02-10.35-6.98-17.34-.48-5.54-.24-11.8.72-19.74l21.44-152.9a107.8 107.8 0 0 1 4.81-19.75c2.89-6.99 6.74-12.76 11.8-17.34a47.6 47.6 0 0 1 18.78-9.4 93.62 93.62 0 0 1 19.99-1.92c7.95 0 13.96.73 19.5 1.93 6.5 1.92 12.04 5.05 15.9 9.39 3.6 4.58 6.01 10.35 6.98 17.34.48 5.54.24 11.8-.97 19.74l-21.43 152.9a92.13 92.13 0 0 1-4.57 19.75 50.25 50.25 0 0 1-11.8 17.34 49.29 49.29 0 0 1-18.78 9.39 95.25 95.25 0 0 1-19.99 1.93Zm-414.16-31.3c12.28 0 14.93-1.93 15.17-2.17.48-.25 2.65-2.65 4.33-14.93l21.43-152.9c1.93-12.29.24-14.7 0-14.94-.24-.24-2.4-2.16-14.69-2.16-12.28 0-14.93 1.92-15.17 2.16-.24.24-2.4 2.65-4.33 14.93l-21.43 152.9c-1.69 12.29 0 14.7 0 14.94.24.24 2.4 2.16 14.69 2.16Zm418.5 0c12.28 0 14.93-1.93 15.17-2.17.48-.25 2.65-2.65 4.33-14.93l21.43-152.9c1.93-12.29.24-14.7 0-14.94-.24-.24-2.4-2.16-14.69-2.16-12.28 0-14.93 1.92-15.17 2.16-.24.24-2.4 2.65-4.33 14.93l-21.43 152.9c-1.69 12.29 0 14.7 0 14.94.24.24 2.4 2.16 14.69 2.16ZM581.22 192c-8.67 0-14.7-6.98-13.49-15.65 1.2-8.67 9.15-15.65 17.82-15.65s14.69 6.98 13.49 15.65c-1.2 8.67-9.15 15.65-17.82 15.65ZM248.2 210.06c-7.95 0-14.2.73-19.99 1.93-7.22 1.92-13.48 5.06-18.54 9.39-5.05 4.58-8.9 10.35-12.04 17.34-1.92 5.54-3.37 11.8-4.57 19.74l-6.26 43.59c-.97 8.18-1.2 14.44-.73 19.74.97 7.23 3.38 12.76 6.99 17.34 3.85 4.57 9.15 7.7 15.89 9.39 5.54 1.44 11.56 1.93 19.5 1.93 12.28 0 14.45 2.16 14.7 2.4.23.24 1.68 2.65 0 14.93l-6.03 43.59c-1.68 12.28-4.1 14.68-4.33 14.93-.24.24-2.9 2.16-15.17 2.16-12.28 0-14.45-1.92-14.7-2.16-.23-.25-1.68-2.65 0-14.93l4.58-32.75c1.2-8.67-4.81-15.65-13.48-15.65-8.67 0-16.62 6.98-17.82 15.65l-4.57 32.75c-1.2 7.94-1.45 14.2-.97 19.74.97 6.99 3.37 12.76 6.99 17.34 4.09 4.33 9.39 7.46 16.13 9.39 5.3 1.2 11.32 1.93 19.26 1.93 7.95 0 14.45-.73 20.23-1.93 7.22-1.93 13.48-5.06 18.54-9.4 5.06-4.57 8.91-10.34 11.8-17.33 1.93-5.54 3.61-11.8 4.81-19.74l6.03-43.59c1.2-8.18 1.44-14.45.96-19.74-.96-7.23-3.37-12.76-6.99-17.34-4.09-4.57-9.39-7.7-16.13-9.39-5.3-1.45-11.31-2.17-19.26-2.17-12.28 0-14.45-1.92-14.69-2.16-.24-.25-1.93-2.65-.24-14.93l6.26-43.59c1.68-12.28 4.1-14.69 4.33-14.93.24-.24 2.9-2.16 15.17-2.16 12.28 0 14.45 1.92 14.7 2.16.23.24 1.68 2.65 0 14.93l-4.58 32.75c-1.2 8.67 4.81 15.65 13.48 15.65 8.67 0 16.62-6.98 17.82-15.65l4.58-32.75c1.2-7.94 1.2-14.2.72-19.74-.72-6.99-3.13-12.76-6.74-17.34-4.1-4.33-9.4-7.47-16.14-9.4-5.3-1.2-11.56-1.92-19.5-1.92Z"/></svg>