<svg xmlns="http://www.w3.org/2000/svg" viewBox="0 0 1000 660"><path d="M203.77 208.75c23.28 0 39.23 5 49.75 15.63 10.53 10.62 15.63 26.47 15.63 49.75h-25.52c0-23.6-6.06-29.65-8.3-31.58-2.26-1.93-7.98-8.3-31.58-8.3h-13.38c-23.6 0-29.65 6.05-31.57 8.3-1.93 2.25-8.3 7.97-8.3 31.57 0 17.5 4.15 23.28 7.65 26.15 5.42 5 15.95 7.33 32.2 7.33h13.4c22.95 0 38.57 4.48 49.1 13.7 14.67 12.75 16.27 31.9 16.27 45.27 0 23.28-5 39.23-15.62 49.76-10.63 10.52-26.48 15.62-49.75 15.62h-13.38c-23.27 0-39.22-5-49.75-15.62C130.1 405.7 125 389.9 125 366.63h25.5c0 23.6 6.05 29.64 8.3 31.57 2.25 1.93 7.97 8.3 31.57 8.3h13.4c23.6 0 29.65-6.05 31.58-8.3 1.92-2.25 8.3-7.97 8.3-31.57 0-17.5-4.15-23.28-7.65-26.15-5.43-5-15.95-7.33-32.2-7.33h-13.43c-22.94 0-38.57-4.48-49.1-13.7-14.67-12.8-16.27-31.93-16.27-45.32 0-23.28 5-39.23 15.63-49.75 10.62-10.53 26.47-15.63 49.74-15.63ZM360 261.38v25.5h-39.85v79.75c0 15.95 2.5 26.14 8.3 31.57 5.8 5.43 15.62 8.3 31.57 8.3V432c-23.27 0-39.22-5-49.75-15.63-10.52-10.62-15.62-26.47-15.62-49.75V208.75h25.5v52.5H360Zm97.9 0c23.27 0 39.22 5 49.75 15.62 10.52 10.63 15.62 26.48 15.62 50v39.63c0 23.27-5 39.22-15.62 49.75C497.02 426.9 481.17 432 457.9 432h-13.4c-23.27 0-39.23-5-49.75-15.63-10.53-10.62-15.63-26.47-15.63-49.75v-39.54c0-23.6 5-39.23 15.63-50 10.62-10.78 26.48-15.63 49.75-15.63h13.4Zm-13.4 25.5c-23.6 0-29.65 6.37-31.58 8.3-1.92 1.92-8.3 8.3-8.3 31.9v39.55c0 23.6 6.05 29.64 8.3 31.57 2.25 1.93 7.98 8.3 31.58 8.3h13.4c23.6 0 29.65-6.05 31.57-8.3 1.93-2.25 8.3-7.97 8.3-31.57v-39.55c0-23.6-6.05-30-8.3-31.9-2.25-1.9-7.97-8.3-31.57-8.3Zm104.27-52.6v-25.5h25.5v25.5Zm0 197.72V261.37h25.5v170.6h-25.5Zm116.4-145.1c-23.6 0-29.65 6.37-31.57 8.3-1.93 1.93-8.3 8.3-8.3 31.9v39.52c0 23.6 6.05 29.65 8.3 31.58 2.25 1.93 7.97 8.3 31.57 8.3h52.93V432h-52.93c-23.27 0-39.22-5-49.75-15.63-10.52-10.62-15.62-26.47-15.62-49.75v-39.54c0-23.6 5-39.23 15.62-50 10.63-10.78 26.48-15.63 49.75-15.63h52.93v25.5h-52.93Zm144.13-25.52c23.27 0 39.23 5 49.75 15.62 10.52 10.63 15.95 26.48 15.95 50v105h-91.85c-18.18 0-31.25-4.48-40.18-13.73-8.3-8.92-12.12-21.37-12.12-38.57 0-38.57 25.2-47.82 50-51.97l67.92-11.48c-1.6-15-6.05-19.45-7.64-21.05-1.6-1.6-8.3-8.3-31.9-8.3h-65.6v-25.52h65.7Zm-24.3 91.2c-11.8 2.22-19.13 4.77-22.95 8.6-2.88 2.22-5.75 6.7-5.75 18.5 0 10.2 1.6 16.9 5 20.72 3.4 3.83 11.15 6.05 21.67 6.05h66.53v-64.4Z"/></svg>