<svg xmlns="http://www.w3.org/2000/svg" width="1000" height="660"><path fill-rule="evenodd" d="M0 660h1000V0H0Z"/><path fill="#fff" fill-rule="evenodd" d="M0 660v-6.17h59.59v-18.5H0v-6.17h65.76V660H0Zm65.76-30.84V567.5h30.83v61.67H65.76Zm0-61.67H0v-6.17h59.59v-18.5H0v-6.17h65.76v30.84ZM133.59 660v-30.84h92.5V660h-92.5Zm92.5-30.84V567.5h30.84v61.67H226.1Zm0-61.67h-92.5v-30.84h92.5v30.84Zm-92.5-30.84h-30.84v-61.67h30.84v61.67Zm0-61.67v-30.83h92.5v30.83h-92.5Zm92.5 0h30.84v30.84H226.1v-30.84Zm-92.5 154.18h-30.84v-30.83h30.84v30.83ZM293.93 660v-30.84h92.5V660h-92.5Zm92.5-30.84V567.5h30.85v61.67h-30.84Zm0-61.67h-92.5v-30.84h92.5v30.84Zm-92.5-30.84h-30.84v-61.67h30.84v61.67Zm0-61.67v-30.83h92.5v30.83h-92.5Zm92.5 0h30.85v30.84h-30.84v-30.84Zm-92.5 154.18h-30.84v-30.83h30.84v30.83ZM454.27 660v-30.84h92.51V660h-92.5Zm92.51-30.84V567.5h30.84v61.67h-30.84Zm0-61.67h-92.5v-30.84h92.5v30.84Zm-92.5-30.84h-30.85v-61.67h30.84v61.67Zm0-61.67v-30.83h92.5v30.83h-92.5Zm92.5 0h30.84v30.84h-30.84v-30.84Zm-92.5 154.18h-30.85v-30.83h30.84v30.83ZM614.6 660v-30.84h92.51V660h-92.5Zm92.51-30.84V567.5h30.84v61.67h-30.84Zm0-61.67h-92.5v-30.84h92.5v30.84Zm-92.5-30.84h-30.84v-61.67h30.83v61.67Zm0-61.67v-30.83h92.5v30.83h-92.5Zm92.5 0h30.84v30.84h-30.84v-30.84Zm-92.5 154.18h-30.84v-30.83h30.83v30.83ZM774.94 660v-30.84h92.51V660h-92.5Zm92.51-30.84V567.5h30.84v61.67h-30.84Zm0-61.67h-92.5v-30.84h92.5v30.84Zm-92.5-30.84h-30.84v-61.67h30.83v61.67Zm0-61.67v-30.83h92.5v30.83h-92.5Zm92.5 0h30.84v30.84h-30.84v-30.84Zm-92.5 154.18h-30.84v-30.83h30.83v30.83ZM935.28 660v-30.84H1000v6.17h-58.54v18.5H1000V660h-64.7Zm0-30.84h-30.83v-30.83h30.83v30.83Zm-795.53 24.67h80.17v-18.5h-80.17v18.5Zm160.34 0h80.17v-18.5H300.1v18.5Zm160.34 0h80.17v-18.5h-80.17v18.5Zm160.34 0h80.17v-18.5h-80.17v18.5Zm160.34 0h80.18v-18.5h-80.18v18.5ZM0 647.67v-6.17h53.42v6.17H0Zm145.92 0v-6.17h67.84v6.17h-67.84Zm160.34 0v-6.17h67.84v6.17h-67.84Zm160.35 0v-6.17h67.84v6.17H466.6Zm160.34 0v-6.17h67.84v6.17h-67.84Zm160.34 0v-6.17h67.84v6.17h-67.84Zm160.34 0v-6.17H1000v6.17h-52.37ZM71.93 623h18.5v-49.34h-18.5V623Zm36.99 0h18.5v-18.5h-18.5V623Zm123.35 0h18.5v-49.34h-18.5V623Zm37 0h18.5v-18.5h-18.5V623Zm123.34 0h18.5v-49.34h-18.5V623Zm37 0h18.5v-18.5h-18.5V623Zm123.34 0h18.5v-49.34h-18.5V623Zm37 0h18.5v-18.5h-18.5V623Zm123.34 0h18.5v-49.34h-18.5V623Zm37 0h18.5v-18.5h-18.5V623Zm123.34 0h18.5v-49.34h-18.5V623Zm37 0h18.5v-18.5h-18.5V623Zm-832.54-6.17v-37h6.17v37h-6.17Zm37 0v-6.17h6.16v6.17h-6.16Zm123.34 0v-37h6.17v37h-6.17Zm37 0v-6.17h6.16v6.17h-6.16Zm123.34 0v-37h6.17v37h-6.17Zm37 0v-6.17h6.17v6.17h-6.17Zm123.34 0v-37h6.17v37h-6.17Zm37 0v-6.17h6.17v6.17h-6.17Zm123.35 0v-37h6.16v37h-6.16Zm37 0v-6.17h6.16v6.17h-6.17Zm123.34 0v-37h6.16v37h-6.16Zm37 0v-6.17h6.16v6.17h-6.17Zm18.5-49.34v-30.84h64.7v6.17h-58.54v18.5H1000v6.17h-64.7Zm0-30.84h-30.84v-61.67h30.83v61.67Zm0-61.67v-30.83h64.7v6.16h-58.54v18.5H1000v6.17h-64.7Zm-795.54 86.34h80.17v-18.5h-80.17v18.5Zm160.34 0h80.17v-18.5H300.1v18.5Zm160.34 0h80.17v-18.5h-80.17v18.5Zm160.34 0h80.17v-18.5h-80.17v18.5Zm160.34 0h80.18v-18.5h-80.18v18.5ZM0 555.16v-6.17h53.42v6.17H0Zm145.92 0v-6.17h67.84v6.17h-67.84Zm160.34 0v-6.17h67.84v6.17h-67.84Zm160.35 0v-6.17h67.84v6.17H466.6Zm160.34 0v-6.17h67.84v6.17h-67.84Zm160.34 0v-6.17h67.84v6.17h-67.84Zm160.34 0v-6.17H1000v6.17h-52.37Zm-838.71-24.67h18.5v-49.34h-18.5v49.34Zm160.34 0h18.5v-49.34h-18.5v49.34Zm160.34 0h18.5v-49.34h-18.5v49.34Zm160.34 0h18.5v-49.34h-18.5v49.34Zm160.34 0h18.5v-49.34h-18.5v49.34Zm160.35 0h18.5v-49.34h-18.5v49.34Zm-795.54-6.17v-37h6.16v37h-6.16Zm160.34 0v-37h6.16v37h-6.16Zm160.34 0v-37h6.17v37h-6.17Zm160.34 0v-37h6.17v37h-6.17Zm160.34 0v-37h6.17v37h-6.17Zm160.34 0v-37h6.17v37h-6.17Zm-851.03-18.5v-30.84h30.83v30.84H65.76Zm0-30.84H0v-6.17h59.59v-18.5H0v-6.16h65.76v30.83Zm6.16 24.67h18.5v-18.5h-18.5v18.5Zm160.35 0h18.5v-18.5h-18.5v18.5Zm160.34 0h18.5v-18.5h-18.5v18.5Zm160.34 0h18.5v-18.5h-18.5v18.5Zm160.34 0h18.5v-18.5h-18.5v18.5Zm160.34 0h18.5v-18.5h-18.5v18.5Zm-795.54-6.17v-6.16h6.17v6.16h-6.17Zm160.34 0v-6.16h6.17v6.16h-6.17Zm160.34 0v-6.16h6.17v6.16h-6.17Zm160.34 0v-6.16h6.17v6.16h-6.17Zm160.35 0v-6.16h6.16v6.16h-6.16Zm160.34 0v-6.16h6.16v6.16h-6.16Zm-740.04-24.67h80.17v-18.5h-80.17v18.5Zm160.34 0h80.17v-18.5H300.1v18.5Zm160.34 0h80.17v-18.5h-80.17v18.5Zm160.34 0h80.17v-18.5h-80.17v18.5Zm160.34 0h80.18v-18.5h-80.18v18.5ZM0 462.65v-6.17h53.42v6.17H0Zm145.92 0v-6.17h67.84v6.17h-67.84Zm160.34 0v-6.17h67.84v6.17h-67.84Zm160.35 0v-6.17h67.84v6.17H466.6Zm160.34 0v-6.17h67.84v6.17h-67.84Zm160.34 0v-6.17h67.84v6.17h-67.84Zm160.34 0v-6.17H1000v6.17h-52.37ZM0 437.93v-6.17h59.59v-18.5H0v-6.17h65.76v30.84H0Zm65.76-30.84v-61.67h30.83v61.67H65.76Zm0-61.67H0v-6.17h59.59v-18.5H0v-6.17h65.76v30.84Zm67.83 92.5V407.1h92.5v30.84h-92.5Zm92.5-30.83v-61.67h30.84v61.67H226.1Zm0-61.67h-92.5v-30.84h92.5v30.84Zm-92.5-30.84h-30.84v-61.67h30.84v61.67Zm0-61.67v-30.84h92.5v30.84h-92.5Zm92.5 0h30.84v30.84H226.1V252.9Zm-92.5 154.18h-30.84v-30.84h30.84v30.84Zm160.34 30.84v-30.84h92.5v30.84h-92.5Zm92.5-30.84v-61.67h30.85v61.67h-30.84Zm0-61.67h-92.5v-30.84h92.5v30.84Zm-92.5-30.84h-30.84v-61.67h30.84v61.67Zm0-61.67v-30.84h92.5v30.84h-92.5Zm92.5 0h30.85v30.84h-30.84V252.9Zm-92.5 154.18h-30.84v-30.84h30.84v30.84Zm160.34 30.84v-30.84h92.51v30.84h-92.5Zm92.51-30.84v-61.67h30.84v61.67h-30.84Zm0-61.67h-92.5v-30.84h92.5v30.84Zm-92.5-30.84h-30.85v-61.67h30.84v61.67Zm0-61.67v-30.84h92.5v30.84h-92.5Zm92.5 0h30.84v30.84h-30.84V252.9Zm-92.5 154.18h-30.85v-30.84h30.84v30.84Zm160.33 30.84v-30.84h92.51v30.84h-92.5Zm92.51-30.84v-61.67h30.84v61.67h-30.84Zm0-61.67h-92.5v-30.84h92.5v30.84Zm-92.5-30.84h-30.84v-61.67h30.83v61.67Zm0-61.67v-30.84h92.5v30.84h-92.5Zm92.5 0h30.84v30.84h-30.84V252.9Zm-92.5 154.18h-30.84v-30.84h30.83v30.84Zm160.33 30.84v-30.84h92.51v30.84h-92.5Zm92.51-30.84v-61.67h30.84v61.67h-30.84Zm0-61.67h-92.5v-30.84h92.5v30.84Zm-92.5-30.84h-30.84v-61.67h30.83v61.67Zm0-61.67v-30.84h92.5v30.84h-92.5Zm92.5 0h30.84v30.84h-30.84V252.9Zm-92.5 154.18h-30.84v-30.84h30.83v30.84Zm160.33 30.84v-30.84H1000v6.17h-58.54v18.5H1000v6.17h-64.7Zm0-30.84h-30.83v-30.84h30.83v30.84Zm-795.53 24.67h80.17v-18.5h-80.17v18.5Zm160.34 0h80.17v-18.5H300.1v18.5Zm160.34 0h80.17v-18.5h-80.17v18.5Zm160.34 0h80.17v-18.5h-80.17v18.5Zm160.34 0h80.18v-18.5h-80.18v18.5ZM0 425.59v-6.16h53.42v6.16H0Zm145.92 0v-6.16h67.84v6.16h-67.84Zm160.34 0v-6.16h67.84v6.16h-67.84Zm160.35 0v-6.16h67.84v6.16H466.6Zm160.34 0v-6.16h67.84v6.16h-67.84Zm160.34 0v-6.16h67.84v6.16h-67.84Zm160.34 0v-6.16H1000v6.16h-52.37Zm-875.7-24.67h18.5V351.6h-18.5v49.33Zm36.99 0h18.5v-18.5h-18.5v18.5Zm123.35 0h18.5V351.6h-18.5v49.33Zm37 0h18.5v-18.5h-18.5v18.5Zm123.34 0h18.5V351.6h-18.5v49.33Zm37 0h18.5v-18.5h-18.5v18.5Zm123.34 0h18.5V351.6h-18.5v49.33Zm37 0h18.5v-18.5h-18.5v18.5Zm123.34 0h18.5V351.6h-18.5v49.33Zm37 0h18.5v-18.5h-18.5v18.5Zm123.34 0h18.5V351.6h-18.5v49.33Zm37 0h18.5v-18.5h-18.5v18.5Zm-832.54-6.16v-37h6.17v37h-6.17Zm37 0v-6.17h6.16v6.17h-6.16Zm123.34 0v-37h6.17v37h-6.17Zm37 0v-6.17h6.16v6.17h-6.16Zm123.34 0v-37h6.17v37h-6.17Zm37 0v-6.17h6.17v6.17h-6.17Zm123.34 0v-37h6.17v37h-6.17Zm37 0v-6.17h6.17v6.17h-6.17Zm123.35 0v-37h6.16v37h-6.16Zm37 0v-6.17h6.16v6.17h-6.17Zm123.34 0v-37h6.16v37h-6.16Zm37 0v-6.17h6.16v6.17h-6.17Zm18.5-49.34v-30.84h64.7v6.17h-58.54v18.5H1000v6.17h-64.7Zm0-30.84h-30.84v-61.67h30.83v61.67Zm0-61.67v-30.84h64.7v6.17h-58.54v18.5H1000v6.17h-64.7Zm-795.54 86.34h80.17v-18.5h-80.17v18.5Zm160.34 0h80.17v-18.5H300.1v18.5Zm160.34 0h80.17v-18.5h-80.17v18.5Zm160.34 0h80.17v-18.5h-80.17v18.5Zm160.34 0h80.18v-18.5h-80.18v18.5ZM0 333.08v-6.16h53.42v6.16H0Zm145.92 0v-6.16h67.84v6.16h-67.84Zm160.34 0v-6.16h67.84v6.16h-67.84Zm160.35 0v-6.16h67.84v6.16H466.6Zm160.34 0v-6.16h67.84v6.16h-67.84Zm160.34 0v-6.16h67.84v6.16h-67.84Zm160.34 0v-6.16H1000v6.16h-52.37Zm-838.71-24.67h18.5v-49.33h-18.5v49.33Zm160.34 0h18.5v-49.33h-18.5v49.33Zm160.34 0h18.5v-49.33h-18.5v49.33Zm160.34 0h18.5v-49.33h-18.5v49.33Zm160.34 0h18.5v-49.33h-18.5v49.33Zm160.35 0h18.5v-49.33h-18.5v49.33Zm-795.54-6.16v-37h6.16v37h-6.16Zm160.34 0v-37h6.16v37h-6.16Zm160.34 0v-37h6.17v37h-6.17Zm160.34 0v-37h6.17v37h-6.17Zm160.34 0v-37h6.17v37h-6.17Zm160.34 0v-37h6.17v37h-6.17Zm-851.03-18.5V252.9h30.83v30.84H65.76Zm0-30.84H0v-6.17h59.59v-18.5H0v-6.17h65.76v30.84Zm6.16 24.67h18.5v-18.5h-18.5v18.5Zm160.35 0h18.5v-18.5h-18.5v18.5Zm160.34 0h18.5v-18.5h-18.5v18.5Zm160.34 0h18.5v-18.5h-18.5v18.5Zm160.34 0h18.5v-18.5h-18.5v18.5Zm160.34 0h18.5v-18.5h-18.5v18.5ZM78.09 271.4v-6.17h6.17v6.17h-6.17Zm160.34 0v-6.17h6.17v6.17h-6.17Zm160.34 0v-6.17h6.17v6.17h-6.17Zm160.34 0v-6.17h6.17v6.17h-6.17Zm160.35 0v-6.17h6.16v6.17h-6.16Zm160.34 0v-6.17h6.16v6.17h-6.16Zm-740.04-24.67h80.17v-18.5h-80.17v18.5Zm160.34 0h80.17v-18.5H300.1v18.5Zm160.34 0h80.17v-18.5h-80.17v18.5Zm160.34 0h80.17v-18.5h-80.17v18.5Zm160.34 0h80.18v-18.5h-80.18v18.5ZM0 240.57v-6.16h53.42v6.16H0Zm145.92 0v-6.16h67.84v6.16h-67.84Zm160.34 0v-6.16h67.84v6.16h-67.84Zm160.35 0v-6.16h67.84v6.16H466.6Zm160.34 0v-6.16h67.84v6.16h-67.84Zm160.34 0v-6.16h67.84v6.16h-67.84Zm160.34 0v-6.16H1000v6.16h-52.37ZM0 215.85v-6.16h59.59v-18.5H0v-6.17h65.76v30.83H0Zm65.76-30.83v-61.67h30.83v61.67H65.76Zm0-61.67H0v-6.17h59.59v-18.5H0V92.5h65.76v30.84Zm67.83 92.5v-30.83h92.5v30.83h-92.5Zm92.5-30.83v-61.67h30.84v61.67H226.1Zm0-61.67h-92.5V92.5h92.5v30.84ZM133.6 92.5h-30.84V30.84h30.84V92.5Zm0-61.67V0h92.5v30.84h-92.5Zm92.5 0h30.84v30.83H226.1V30.84Zm-92.5 154.18h-30.84v-30.84h30.84v30.84Zm160.34 30.83v-30.83h92.5v30.83h-92.5Zm92.5-30.83v-61.67h30.85v61.67h-30.84Zm0-61.67h-92.5V92.5h92.5v30.84Zm-92.5-30.84h-30.84V30.84h30.84V92.5Zm0-61.67V0h92.5v30.84h-92.5Zm92.5 0h30.85v30.83h-30.84V30.84Zm-92.5 154.18h-30.84v-30.84h30.84v30.84Zm160.34 30.83v-30.83h92.51v30.83h-92.5Zm92.51-30.83v-61.67h30.84v61.67h-30.84Zm0-61.67h-92.5V92.5h92.5v30.84Zm-92.5-30.84h-30.85V30.84h30.84V92.5Zm0-61.67V0h92.5v30.84h-92.5Zm92.5 0h30.84v30.83h-30.84V30.84Zm-92.5 154.18h-30.85v-30.84h30.84v30.84Zm160.33 30.83v-30.83h92.51v30.83h-92.5Zm92.51-30.83v-61.67h30.84v61.67h-30.84Zm0-61.67h-92.5V92.5h92.5v30.84Zm-92.5-30.84h-30.84V30.84h30.83V92.5Zm0-61.67V0h92.5v30.84h-92.5Zm92.5 0h30.84v30.83h-30.84V30.84Zm-92.5 154.18h-30.84v-30.84h30.83v30.84Zm160.33 30.83v-30.83h92.51v30.83h-92.5Zm92.51-30.83v-61.67h30.84v61.67h-30.84Zm0-61.67h-92.5V92.5h92.5v30.84Zm-92.5-30.84h-30.84V30.84h30.83V92.5Zm0-61.67V0h92.5v30.84h-92.5Zm92.5 0h30.84v30.83h-30.84V30.84Zm-92.5 154.18h-30.84v-30.84h30.83v30.84Zm160.33 30.83v-30.83H1000v6.17h-58.54v18.5H1000v6.16h-64.7Zm0-30.83h-30.83v-30.84h30.83v30.84Zm-795.53 24.67h80.17v-18.5h-80.17v18.5Zm160.34 0h80.17v-18.5H300.1v18.5Zm160.34 0h80.17v-18.5h-80.17v18.5Zm160.34 0h80.17v-18.5h-80.17v18.5Zm160.34 0h80.18v-18.5h-80.18v18.5ZM0 203.52v-6.17h53.42v6.17H0Zm145.92 0v-6.17h67.84v6.17h-67.84Zm160.34 0v-6.17h67.84v6.17h-67.84Zm160.35 0v-6.17h67.84v6.17H466.6Zm160.34 0v-6.17h67.84v6.17h-67.84Zm160.34 0v-6.17h67.84v6.17h-67.84Zm160.34 0v-6.17H1000v6.17h-52.37Zm-875.7-24.67h18.5v-49.34h-18.5v49.34Zm36.99 0h18.5v-18.5h-18.5v18.5Zm123.35 0h18.5v-49.34h-18.5v49.34Zm37 0h18.5v-18.5h-18.5v18.5Zm123.34 0h18.5v-49.34h-18.5v49.34Zm37 0h18.5v-18.5h-18.5v18.5Zm123.34 0h18.5v-49.34h-18.5v49.34Zm37 0h18.5v-18.5h-18.5v18.5Zm123.34 0h18.5v-49.34h-18.5v49.34Zm37 0h18.5v-18.5h-18.5v18.5Zm123.34 0h18.5v-49.34h-18.5v49.34Zm37 0h18.5v-18.5h-18.5v18.5Zm-832.54-6.17v-37h6.17v37h-6.17Zm37 0v-6.16h6.16v6.16h-6.16Zm123.34 0v-37h6.17v37h-6.17Zm37 0v-6.16h6.17v6.16h-6.17Zm123.34 0v-37h6.17v37h-6.17Zm37 0v-6.16h6.17v6.16h-6.17Zm123.34 0v-37h6.17v37h-6.17Zm37 0v-6.16h6.17v6.16h-6.17Zm123.35 0v-37h6.16v37h-6.16Zm37 0v-6.16h6.16v6.16h-6.17Zm123.34 0v-37h6.16v37h-6.16Zm37 0v-6.16h6.16v6.16h-6.17Zm18.5-49.33V92.5h64.7v6.17h-58.54v18.5H1000v6.17h-64.7Zm0-30.84h-30.84V30.84h30.83V92.5Zm0-61.67V0h64.7v6.17h-58.54v18.5H1000v6.17h-64.7Zm-795.54 86.34h80.17v-18.5h-80.17v18.5Zm160.34 0h80.17v-18.5H300.1v18.5Zm160.34 0h80.17v-18.5h-80.17v18.5Zm160.34 0h80.17v-18.5h-80.17v18.5Zm160.34 0h80.18v-18.5h-80.18v18.5ZM0 111v-6.17h53.42v6.17H0Zm145.92 0v-6.17h67.84v6.17h-67.84Zm160.34 0v-6.17h67.84v6.17h-67.84Zm160.35 0v-6.17h67.84v6.17H466.6Zm160.34 0v-6.17h67.84v6.17h-67.84Zm160.34 0v-6.17h67.84v6.17h-67.84Zm160.34 0v-6.17H1000v6.17h-52.37ZM108.92 86.34h18.5V37h-18.5v49.34Zm160.34 0h18.5V37h-18.5v49.34Zm160.34 0h18.5V37h-18.5v49.34Zm160.34 0h18.5V37h-18.5v49.34Zm160.34 0h18.5V37h-18.5v49.34Zm160.35 0h18.5V37h-18.5v49.34Zm-795.54-6.17v-37h6.16v37h-6.16Zm160.34 0v-37h6.17v37h-6.17Zm160.34 0v-37h6.17v37h-6.17Zm160.34 0v-37h6.17v37h-6.17Zm160.34 0v-37h6.17v37h-6.17Zm160.34 0v-37h6.17v37h-6.17ZM65.76 61.67V30.84h30.83v30.83H65.76Zm0-30.83H0v-6.17h59.59V6.17H0V0h65.76v30.84Zm6.16 24.66h18.5V37h-18.5v18.5Zm160.35 0h18.5V37h-18.5v18.5Zm160.34 0h18.5V37h-18.5v18.5Zm160.34 0h18.5V37h-18.5v18.5Zm160.34 0h18.5V37h-18.5v18.5Zm160.34 0h18.5V37h-18.5v18.5ZM78.09 49.34v-6.17h6.17v6.17h-6.17Zm160.34 0v-6.17h6.17v6.17h-6.17Zm160.34 0v-6.17h6.17v6.17h-6.17Zm160.34 0v-6.17h6.17v6.17h-6.17Zm160.35 0v-6.17h6.16v6.17h-6.16Zm160.34 0v-6.17h6.16v6.17h-6.16ZM139.76 24.67h80.17V6.17h-80.17v18.5Zm160.34 0h80.17V6.17H300.1v18.5Zm160.34 0h80.17V6.17h-80.17v18.5Zm160.34 0h80.17V6.17h-80.17v18.5Zm160.34 0h80.18V6.17h-80.18v18.5ZM0 18.5v-6.17h53.42v6.17H0Zm145.92 0v-6.17h67.84v6.17h-67.84Zm160.34 0v-6.17h67.84v6.17h-67.84Zm160.35 0v-6.17h67.84v6.17H466.6Zm160.34 0v-6.17h67.84v6.17h-67.84Zm160.34 0v-6.17h67.84v6.17h-67.84Zm160.34 0v-6.17H1000v6.17h-52.37Z" opacity=".08"/><path fill="#e5bfbb" fill-rule="evenodd" d="M194.07 363.76c-12 0-24.85-3.63-37.7-12.28-10.89-7.26-24.29-13.96-36.85-13.96-7.82 0-13.4 3.63-13.4 3.63 11.16-21.5 14.51-38.26 30.7-38.26 8.38 0 19.83 5.3 37.7 14.8 12.29 6.42 28.48 12.85 43.56 12.85 16.76 0 25.97-8.66 25.97-8.66s-1.67-32.67-31.83-40.49c-7.82-2.23-23.18-3.07-28.76-3.07-23.18 0-33.23 15.08-33.23 15.08s-25.69-12.85-25.69-34.62c0-13.13 18.43-55.3 31.55-66.74a28.16 28.16 0 0 1 19-6.98c17.58 0 46.9 11.45 64.5 11.45 10.6 0 14.8-3.07 14.8-3.07-12.01 19.26-17.04 36.58-38.26 36.58-27.09 0-36.86-10.34-57.52-10.34-9.78 0-14.8 4.2-14.8 4.2s-2.51 20.1 24.01 33.5c0 0 15.36-12.57 45.52-12.57 27.08 0 52.77 20.1 52.77 49.99 0 32.67-32.95 68.96-72.04 68.96Zm159.44 0s-53.06-1.67-63.95-60.59c-9.49-49.98.84-85.72-21.22-85.72-7.82 0-16.2 3.63-16.2 3.63s5.03-9.22 15.92-24.85c5.59-7.82 12.3-11.17 18.71-11.17 22.9 0 24.3 26.8 25.41 58.36.56 19.82 2.8 56.4 27.09 74.55-4.2-6.14-7.26-15.08-7.54-27.92-.84-42.72 14.24-72.32 24.29-89.91 6.7-11.45 19.83-15.08 32.39-15.08 12 0 23.46 2.8 30.72 2.8 9.77 0 16.75-2.8 16.75-2.8-32.4 33.79-.56 68.41-47.75 130.96-15.08 20.1-22.06 32.39-34.62 47.74Zm144.64 0c-36.02 0-65.06-34.06-65.06-67.29 0-12 3.63-28.76 12.84-43.56 11.73-19.27 19.55-27.92 24.3-31.55-21.5-1.68-31.84-6.42-31.84-20.94 0-10.06 3.63-10.33 14.24-35.74 0 0-.28.83-.28 2.23 0 18.7 28.2 18.15 58.64 18.15 49.14 0 71.48 33.79 71.48 69.25 0 47.74-38.25 109.45-84.32 109.45Zm118.67 0c-16.48 0-17.6-25.96-17.6-62.54v-19.83c0-27.08 2.52-51.93 2.52-70.08 0-18.99-2.51-30.72-13.12-30.72-3.91 0-7.82 1.96-11.73 4.75 0 0 12.84-12.85 25.13-26.8 4.19-4.47 8.65-6.99 13.4-6.99 9.22 0 17.6 10.33 17.87 32.11.56 28.76-2.79 72.6-2.79 114.2 0 18.44.56 38.54 13.68 38.54 5.3 0 10.33-3.63 10.33-3.63-6.14 8.38-24 31-37.7 31Zm80.14 0c-23.18 0-24.02-28.2-24.02-67.57 0-34.9 1.4-69.8 1.96-78.18-8.66-1.96-17.31-3.63-25.41-3.63-8.94.28-14.52 2.51-14.52 2.51 40.2-34.34 50.82-75.95 50.82-75.95l35.74-14.52c-7.82 39.1-34.9 59.76-34.9 59.76 28.48 8.1 37.41 8.93 51.1 8.93 9.2 0 14.51-5.3 16.47-8.1l-13.96 22.62c-6.98 11.45-17.32 14.8-28.48 14.8h-3.63c-.56 12.29-1.68 32.11-1.68 51.66v12.56c0 24.85 1.12 50.26 17.59 50.26 6.98-.28 11.73-5.86 11.73-5.86-5.03 9.77-24.02 30.44-38.81 30.71Zm57.24-176.75 1.11-1.95s-.27.84-1.11 1.95Zm41.32 176.75c-29.32 0-56.96-35.74-56.96-67.57 0-20.94 8.66-47.47 20.94-74.27 14.24-30.16 39.1-36.58 57.24-36.86 22.34 0 28.76 5.03 46.63 5.03 15.08 0 23.74-5.03 23.74-5.03-12.57 16.2-16.2 38.81-16.2 62.27 0 29.32.84 81.53 20.39 81.25 7.54 0 14.52-6.7 14.52-6.7-6.15 26.53-18.71 41.6-30.16 41.88-17.03 0-23.45-30.99-25.4-59.2-14.53 39.94-34.08 59.2-54.74 59.2Zm-421.63-34.9s14.24-15.08 16.47-35.74c2.24-20.94.84-61.7 16.48-74 0 0-5.86 1.12-12.84 1.12-6.43 0-18.15-1.11-24.86-1.11-10.89 0-22.33 4.46-27.36 21.22-3.07 10.6-6.98 27.92-6.98 46.35 0 13.4 2.23 26.25 10.61 35.18 7.54 4.19 17.03 6.7 28.48 6.98Zm435.31-1.4c1.68 0 3.64 0 5.31-.27 16.75-3.63 28.2-17.87 35.18-29.6a252 252 0 0 1-.56-19.83c0-44.4 9.22-57.52 9.22-57.52s-3.91 2.52-12.57 2.52c-12.56 0-30.43-2.52-47.19-2.52-27.36.28-43 18.71-43 43.56 0 29.32 26.53 63.67 53.61 63.67Zm-294.02-1.95c32.67 0 42.72-21.78 42.72-21.78s3.63-10.05 3.63-23.17c0-28.49-20.94-58.36-56.68-58.36-13.13 0-24.02 0-33.23-.84-11.45 8.93-18.15 25.4-18.15 42.16 0 34.9 24.85 62 61.71 62ZM173.65 504.66c-16.6 0-36.95-9.9-49.8-20.52-4.1-3.36-7.5-4.77-10.36-4.77-5.35 0-7.67 3.89-7.67 3.89s6.07-13.09 9.64-19.99c1.96-3.89 5.17-5.65 9.1-5.65 15.17 0 34.27 26.35 65.69 26.35 15.17 0 23.03-13.09 23.03-13.09s.35-36.43-44.45-36.43c-10.53 0-22.85 4.6-27.85 16.8-15.17-6.55-19.27-16.63-19.27-28.65 0-21.23 21.6-48.81 41.94-48.81 16.43 0 24.46 7.42 40.88 7.42 10.53 0 15.71-3.89 15.71-3.89s-3.21 7.25-10.53 18.04c-4.82 7.08-12.14 7.6-19.28 7.6-14.46 0-19.46-7.24-36.6-7.24-4.81 0-10.17.88-14.63 3.35-.36 3.01-.54 5.66-.54 7.96 0 11.32 4.47 17.51 13.4 21.4 4.28-9.72 15.88-14.32 26.77-14.32 25.52 0 50.51 18.92 49.44 41.38-1.43 29.36-28.56 49.17-54.62 49.17Zm148.52 0c-25.89-.53-46.24-30.77-49.63-52-.89-4.77-.9-8.3-.9-22.1 0-20.52-3.03-34.31-23.91-34.31-10.89 0-14.1 7.25-14.1 7.25.71 6.36 7.67 7.25 11.24 8.3 8.4 2.49 12.32 7.61 12.32 14.87 0 2.3-.36 4.95-1.25 7.78-7.14 21.04-10.35 22.1-10.35 22.1s2.5-2.12 2.5-7.25c0-1.77-.54-3.89-1.43-6.36-3.75-10.08-15.89-7.08-20.35-11.85-1.79-2.13-3.4-5.49-3.4-10.97 0-6.72 2.86-16.62 11.43-30.77 7.32-12.2 16.25-15.56 23.74-15.56 7.68 0 30.17 3.53 30.17 33.6 0 5.13-.54 10.79-.54 16.62 0 9.38 1.25 16.27 6.43 27.95 4.82 10.43 10.18 17.15 15.53 21.75-3.39-7.25-5-16.98-5-26.35 0-32.54 12.86-73.57 39.27-73.57 13.21 0 17.85 4.95 27.32 4.95 6.06 0 9.81-1.42 9.81-1.42-10.35 14.33-9.46 24.23-9.64 34.13 0 4.25.36 8.5.36 13.27 0 6.86-.78 13.41-4.47 21.4 1.04 5.18 4.23 13.78 15.54 14.86a65.08 65.08 0 0 1-1.79-15.57 70.8 70.8 0 0 1 8.04-32.54c14.99-27.77 51.4-47.04 51.4-47.04-7.31 5.3-9.81 10.25-9.81 15.38 0 10.08 9.46 20.7 9.46 34.84 0 14.15-15.35 33.43-33.38 42.98 7.32 12.2 21.06 20.87 35.16 24.76v-99.57c0-7.08 3.93-9.37 16.43-27.41 0 0-2.86 4.24-2.86 7.78 0 10.43 17.31 16.45 33.02 24.93 18.57 10.09 26.06 25.12 26.06 41.21 0 39.97-28.91 73.93-73.18 73.93-24.81 0-49.63-15.56-57.48-39.8-8.91-.64-14.88-6.82-16.71-18.54-4.23 9.05-12.21 19.93-27.02 35.17-12.68 13.8-18.03 23.17-18.03 23.17Zm196 0s2.14-18.57 2.85-21.75c1.43-6.55 8.93-10.8 19.64-10.8 5.35 0 11.06.54 16.78 1.42C566 462.74 571 445.41 571 429.5c0-18.03-6.42-34.66-20.88-34.66-10.35 0-15.53 3.9-15.53 3.9s-1.25 2.47 5.53 7.77c5.54 4.25 18.74 8.5 18.74 18.75 0 2.12-.53 4.42-1.96 7.43-6.78 14.15-13.39 21.4-14.82 22.99.54-.7 1.79-2.83 2.68-7.96 1.97-12.56-23.56-20.51-24.1-28.83-.53-9.2 7.5-19.98 11.96-27.4 7.14-11.86 16.07-17.7 26.96-17.7 15.17 0 28.2 14.86 28.2 36.26 0 10.08-2.85 21.4-9.64 33.6-7.5 13.62-13.92 23.17-19.1 30.07 9.64 1.41 20 3.36 30.53 4.95V377.32h2.14v101.7a177 177 0 0 0 23.92 1.76c15.97 0 29.37-3.6 36.13-15.2-2.13-2.49-3.29-5.8-3.29-9.91 0-1.24.18-2.12.18-2.12a11.85 11.85 0 0 0 4.25 9.87 31.88 31.88 0 0 0 1.46-3.68c-.18 1.49-.38 2.94-.6 4.36 3.4 2.48 8.18 3.77 13.28 3.95a53.3 53.3 0 0 1-1.6-12.91c0-27.06 20.16-51.47 27.3-59.42-9.64-2.3-19.45-4.43-28.56-4.43-11.24 0-21.6 3.19-29.45 12.74 7.85-27.77 22.67-35.55 39.8-35.55 21.78 0 47.67 12.38 68.55 12.38 10.18 0 19.28-3 26.24-12.03 0 0-5.35 12.2-15.17 26.36-4.82 6.9-13.57 7.95-22.14 7.95-6.42 0-13.38-1.23-20.52-2.83v82.07c1.07.17 2.32.17 3.39.17 9.82 0 12.67-5.48 12.67-5.48s-6.42 13.62-9.82 18.92c-3.57 5.49-8.92 8.67-14.63 8.67-11.96 0-28.03-9.73-35.17-33.6h-1.25c-5.69 0-10.28-1.36-13.43-4.01-4.54 24.35-16.15 37.6-43.51 37.6-27.85 0-48.2-8.83-73.9-8.83-12.85 0-17.67 8.84-17.67 8.84Zm23.91-49c-.17.36-.35.36-.35.36l.35-.35Zm214.75 49s.89-5.84 3.03-15.21c1.97-9.37 5.18-15.74 20.53-15.74 2.86 0 6.25.53 9.82 1.06a69.17 69.17 0 0 0 15.17-22.1h-13.03v-2.13h13.92a56.4 56.4 0 0 0 4.29-21.4c0-19.45-10.53-33.42-25-33.42-8.03 0-11.95 3-11.95 3-1.79 13.27 21.06 11.5 21.06 24.4 0 5.5-4.1 13.63-16.07 26.71 0 0 1.25-2.65 1.25-6.19 0-14.14-22.3-11.14-22.3-26.17 0-11.14 24.62-43.68 39.8-43.68 14.1 0 29.8 16.27 29.8 38.02 0 5.84-1.24 12.2-3.74 18.57 16.78-24.23 41.06-56.6 41.06-56.6s-.54 6.2-.54 15.92c0 15.39 1.25 39.44 7.68 60.84h18.03v2.12h-17.32a57.2 57.2 0 0 0 2.68 7.79c6.78 17.15 13.2 22.81 18.38 22.81 7.32 0 12.14-10.26 12.14-10.26s-3.03 10.79-11.78 24.05c-3.75 5.66-7.32 7.6-10.89 7.6-15.53 0-25.88-24.75-31.06-51.99h-41.77c-8.03 11.5-14.1 18.4-18.38 22.46 9.81 1.95 21.6 5.13 32.84 5.13 12.5 0 23.2-3.71 26.78-16.62 0 0-5.54 33.07-20.17 38.38-3.4 1.24-10 2.65-15 2.65-17.85 0-29.27-7.25-41.23-7.25-6.07 0-11.96 1.59-18.03 7.25Zm-299.19-18.82c1.03 0 2.04-.04 3.05-.1 24.99-1.6 39.45-14.15 39.27-34.14-.36-41.56-45.34-45.1-55.87-60.48v93.2c4.5 1 9.1 1.55 13.55 1.52Zm-126.37-3.64c3.4 0 4.82-.36 4.82-.36 29.27-35.37 9.82-62.6 24.81-80.11-8.2.35-19.99-4.6-29.45-4.78-17.32 0-24.46 25.47-24.46 49.52 0 10.44 1.97 21.76 5.54 29.54 7.5 5.13 14.28 6.19 18.74 6.19Zm378.08-.18v-82.24c-3.75-.7-7.5-1.77-11.43-2.83.36 10.08 9.64 17.87 9.64 28.83 0 2.48-.54 5.3-1.79 8.31-5.89 15.39-9.81 26.18-18.38 32.01 4.82 8.5 12.14 14.33 21.96 15.92Zm-23.57-18.92c5.54-3.36 9.28-8.67 9.28-15.56 0-12.92-11.6-18.22-11.6-29.9a73.4 73.4 0 0 0-2.85 20.17c0 9.37 1.78 18.04 5.17 25.29ZM405 455.85c12.68-6.37 16.43-15.04 16.43-23.53 0-15.74-10.54-24.4-10.54-35.19 0-3.54.9-5.3.9-5.3a61.14 61.14 0 0 0-13.03 37.66c0 9.2 2.14 18.22 6.24 26.36Zm406.46-5.31h39.99c-2.32-12.73-3.4-26-3.4-37.32 0-9.37.72-14.68.72-14.68l-37.31 52Z"/></svg>