<svg xmlns="http://www.w3.org/2000/svg" viewBox="0 0 1000 660"><path fill-rule="evenodd" d="M76 499.74V331.42h168.32v168.32H76Zm170.42 0V331.42h168.32v168.32H246.42Zm170.42 0V331.42h168.32v168.32H416.84Zm170.42 0V331.42h168.32v168.32H587.26Zm170.42 0V331.42H926v168.32H757.68Zm-434.6-30.62c2.6 0 5.23-.24 7.82-.72 15.79-2.85 25.26-13.68 34.88-25.4 5.26-6.17 10.22-12.18 12.93-19.85 3-8.41 3.6-15.63 1.2-25.55A44.25 44.25 0 0 0 353 367.08c-7.22-2.85-14.73-3.16-22.55-3.16h-25.1l-13.99 16.7c20.3 0 43.6-3.77 60.29 10.51 15.18 12.93 20 35.03 11.27 53.07-17.59 12.63-42.4 10.52-57.58-4.96-14.73-14.88-16.68-38.94-4.8-56.23-4.07 5.87-9.63 10.68-13.84 16.54a42.08 42.08 0 0 0-7.51 19.24 44.7 44.7 0 0 0 13.08 38.04 44.74 44.74 0 0 0 30.8 12.3Zm348.46 0c5.86 0 10.52-4.66 10.52-10.52v-73.64h16.53c5.86 0 10.52-4.66 10.52-10.52 0-5.86-4.66-10.52-10.52-10.52h-54.1a10.45 10.45 0 0 0-10.52 10.52c0 5.86 4.66 10.52 10.52 10.52h16.53v73.64c0 5.86 4.66 10.52 10.52 10.52Zm175.55-.67c.18 0 .54-.32.5-.46-.37-.51-1.27.24-.53.46h.03Zm-737.32-.04h29.68V430.7h70.18v-29.68h-70.18v-8.11h70.18v-29.68h-99.86v105.2Zm349.4-.11h18l7.96-57.03L527 468.3l14.7-105.05h-18l-7.95 57.02-41.87-57.17-14.71 105.2Zm384.99-.1c.44-.01.84-.14.85-.25 0-.04-.08-.08-.28-.1-.76-.16-1.04-.76-1.92-.83h-.36c-1.57-.22-3.25-.66-4.73-.87-.4-.2-1.49-.35-1.77-.08.16.22 1.34.14 1.45.52.18.33 1.17.45 1.41.23.06-.08.27-.1.48-.02.62.22.74.8 1.38.84.13.01.27 0 .45-.03 1.17-.14 1.29.47 2.4.55h.2a2 2 0 0 0 .44.04Zm9.43-1.04c1.54 0 3.08-.04 4.35-.14 1.32-.28 2.65-.51 4.03-.66 1.76-.61 3.33-.87 5.08-1.4.71-.2 1.21-1 1.88-.99.21.02.63-.09.91-.23 3.73-2.4 7.17-3.84 10.63-6.99 2.47-2.2 4.64-4.18 6.47-6.58 1.05-1.22 2.59-2.82 3.15-4.38 1.6-2.35 2.48-5.4 3.55-8 .5-.78.67-2.13.98-3 .34-1.16 1.29-3.3 1.43-4.55a44.3 44.3 0 0 0 2.58-11.18c.37-5.03-.58-10-4.34-13.67-3.23-2.92-7.78-3.8-12.03-4.12-5.82-.44-11.8.87-17.5 1.65-2.26.58-4.36.95-6.69 1.6-2.41.49-4.92 1.57-7.25 2.04-1.51.16-3.06.79-4.58 1.12-1.15.25-2.19.27-3.46.61-2.5.73-4.89.97-7.36 1.53-3.95.57-8.36.9-12.62.59a30.5 30.5 0 0 1-8.21-1.67c-5.23-1.82-10.4-6.37-12.21-11.66-.3-.68-.4-1.33-.36-1.94.2-2.64 3.2-4.64 5.24-6.3 3.35-2.7 6.9-4.72 10.9-6.2 1.43-.48 2.8-.74 4.12-1.43 1.49-.5 3.32-.66 4.78-1.22a60 60 0 0 1 10.91-1.3c1.19.02 2.38.08 3.57.17 7.17.54 14.47 2.24 21.2 4.34 5 1.65 9.77 3.63 14.5 5.91 1.03.52 2.1 1.1 2.9 1.73.67.27.85.85 1.41-.13.11-.17.17-.4.14-.51-.02-.52.32-.77.53-1.45.32-.65.23-1.46.51-1.92.09-.07.24-.7.34-1.4.3-1.47-.16-2.7-.39-4.02-.3-.7-.54-.89-.53-1.01 0-.12.27-.17.96-.57.54-.4.79-.97 1.54-1.15.47-.14.64-.26.7-.52.11-.5.3-.52.46-1.03.11-.49.4-1.99-.16-2.32-1.06-.87-2.7-1.38-4.04-2-4.46-1.93-8.88-3.78-13.43-5.38-7.1-1.93-14.36-3.49-21.76-4.04a40.71 40.71 0 0 0-12.86.96c-4.8.68-9.23 2.07-13.74 3.95-8.95 3.78-17.23 10.92-19.34 20.72-.89 3.44-1.96 6.61-2.62 10.16-.51 2.04-1.1 4.21-1.25 6.37-.1 1.31-.05 2.61.28 3.87 1.28 5.72 5.4 10.47 10.23 13.49a30.38 30.38 0 0 0 12.06 3.29c4.74.35 9.58-.14 14.13-1.04.63-.27.98-.08 1.45-.35.68-.3 1.8-.16 2.69-.48 3.06-.77 6.06-1.63 9.11-2.21 2.65-.77 5.78-1.63 8.46-2.36 2.1-.58 4.06-1.35 6.3-1.7 5.07-.7 10.2-1.63 15.31-1.61 1.92.36 4.8.37 6.63 1.05.41.08 1.33.34 1.63.65.63.42 1.31.42 2.15 1.04 4.13 2.45 5.88 6.98 6.03 11.62.15 2.55-1.7 4.37-3.26 6.42-1.8 2.61-4.9 5-7.11 7.09a43.3 43.3 0 0 1-21.21 9.17c-2.8.26-5.78.22-8.77 0-3.57-.27-7.14-.8-10.4-1.43-1.29-.42-3.2-.85-4.54-.95-2.4-.57-5.24-1.47-7.68-1.98-.96-.2-2.21-.3-2.95-.58-1.24-.3-2.8-1.17-4.08-1.45-1.15-.17-2.73-.42-3.77-1.06-.86-.45-2.59-.73-3.61-.99-1.1-.2-1.06-.51-1.97-.74-.78-.15-1.14-.73-1.87-.98-1.28-.63-2.6-1.3-3.85-1.95-.94-.54-2.14-.89-3.01-1.59-.47-.46-.95-.31-1.3-.67a.65.65 0 0 0-.42-.25c-1.4-.7-3.13-1.44-4.35-2.52-.38-.42-1-.57-1.27-1.08-.11-.2-.42-.53-.7-.73-1.28-.75-2.01-1.6-3.17-2.52-.4-.32-1-.53-1.51-.57-.5-.04-.9.1-.92.46-.02.25.13.6.54 1.09 1.86 2.64 4.11 5.39 6.9 7.04a38.67 38.67 0 0 0 7.88 4.74c.96.33 1.1.76 2.03.98.8.17.89.31 1.56.7 3.3 1.62 7.62 2.94 11.08 3.95.09.12.28.23.43.24.52.1.74.35 1.39.54.42.18.98.16 1.44.2.18.01.36.03.5.08.67.73 3.6.69 4.48.95.8.25.85.8 1.87.9 1.31.27 2.2.69 3.5 1 .95.37 2.3.14 2.9.98.02.24-.69.93-.95.62-.14-.09-.47-.21-.74-.28-.52-.13-1.74-.3-2.2-.55-1.18-.5-6.23-.44-7.26-1.3-.62-.24-.95-.44-1.38-.47-.22-.02-.46 0-.78.1-.25-.03-.31.01-.22.12.27.22 1.52.37 1.8.63.51.42 1.91.41 2.25 1.08-.03.18-.64.5-.79.25-.12-.17-.75-.12-1.08-.14-.99-.2-2.79-.62-3.6-1 0-.08-1.67-.64-2.26-.68-.14-.01-.22 0-.22.05.6.4 1.7.62 2.45.98.34.13.71.33.83.44.39.3 1.1.16 1.44.68-.17.5 3.72.72 4.02.76a.4.4 0 0 1 .32.28c0 .25.44.63.4.83-.22.09-.45.15-.72.38-.4.5-2.59-.33-3.16-.57-2.33-1.28-5.63-1.11-8.12-1.79-3.19-1.12-6.8-2.14-9.83-3.62-1.03-.42-1.18-.8-2.31-1.3-1.16-.85-2.68-1.8-3.79-2.65a7.46 7.46 0 0 0-2.03-1.34c-.74-.4-2.33-1.7-3.06-2.3-1.43-1.02-1.75-.98-3.12-2.21-.8-.9-1.23-.67-1.62-1.5-1.64-2.58-3.67-2.8-3.45-6.72.03-.11.21-.97.27-1.73.05-.64.01-1.22-.27-1.24-.04 0-.1 0-.15.03-.72-.16-.69.69-.95 1.07-.39 1.21-.64 2.5-.74 3.8-.24 3.23.45 6.56 2.22 9.14-.13.65 5.85 6.9 4.5 3.94-.75-1.35 1.08-.55 2.06-.48.19.02.34 0 .44-.06.22-.1.43-.02.98.38.68.52 1.24.69 1.8 1.08 3.2 2.07 6.74 4.14 10.33 5.47 1.25.56 3.04 1.35 4.35 1.78.5.2 1.45.2 1.97.54 3 1.45 6.93 2.18 10.05 3.25 1.6.2 4.33.4 6.02.78 1.17.06 1.72.78 2.63.97.8.1 1.31.55 2.25.74 1.58.68 4.5.96 6.08 1.52.65.32.9.9 1.71.96h.24c.9.02 1.23.39 2 .6.88.02 1.1-.04 1.32-.03.23.02.46.12 1.45.5l.02-.01c1.26.05 2.8.08 4.34.08Zm-39.2-6.3c1.41-.06.83-.62-.51-.68-.49.02-1.25-.26-1.6-.28-.13-.01-.2.01-.18.1.12.3 2.03.82 2.3.85Zm-3.8-1.45c.23-.1.08-.3.06-.58-.2-.62-1.01-.92-1.62-1.06a6.97 6.97 0 0 1-2.97-1.06c-.6-.3-1.39-.26-1.9-.7-.46-.4-.76-.46-1.23-.73-.36-.24-1.29-.14-1.59-.46-.12-.13-.33-.2-.46-.17-.49.2.3.63.64.86.5.39 1.78.44 2.15.87.21.34.68.33.92.59.52.46 1.63.5 2.16.96.77.36 1.9.79 2.73 1.01.43-.02.8.42 1.1.47Zm-10.05-5.13c1.22-.01-2.81-2.75-3.23-2.66-1.2.1-1.93-1.24-2.8-1.63-1.9.13 5.17 4.44 5.72 4.26l.31.03ZM76 329.32V161h168.32v168.32H76Zm170.42 0V161h168.32v168.32H246.42Zm170.42 0V161h168.32v168.32H416.84Zm170.42 0V161h168.32v168.32H587.26Zm170.42 0V161H926v168.32H757.68ZM142 298.37h37.28V279.6h-9.25v-67.63h13.6v18.49h18.79v-37.27h-83.56v37.27h18.79v-18.49h13.6v67.63H142v18.78Zm661.07-1.27h65.75l5.56-26.3h-19.7l11.2-52.6h19.7l5.55-26.3h-65.75l-5.56 26.3h19.77l-11.2 52.6h-19.76l-5.56 26.3Zm-312.6-.12h19.24v-85.96h24.64v-19.24h-68.38v19.24h24.5v85.96Zm-184.23 0h40.58c8.41 0 15.93-6.77 17.13-15.03l12.62-90.17h-33.06l-12.63 90.17h-4.5L339 191.78h-33.06l-12.63 90.17c-.15.75-.15 1.5-.15 2.1 0 7.37 5.56 12.93 13.08 12.93Zm348.57-.25h32.6v-1.48h-10.37V193.02h1.48c4.89 0 9.03 1.1 12.37 3.33a18.67 18.67 0 0 1 6.37 7.33A27.63 27.63 0 0 1 700 214.5v.74h1.48v-23.7h-60.75v23.7h1.49v-.74c0-.07 0-5.48 2.66-10.82a18.67 18.67 0 0 1 6.38-7.33c3.33-2.22 7.48-3.33 12.44-3.33h1.48v102.23h-10.37v1.48Zm-348.42-1.26c-6.91 0-11.72-4.96-11.72-11.57 0-.6 0-1.35.15-1.95l12.47-88.67h30.06l-12.78 90.17h7.52l12.77-90.17h30.06l-12.47 88.67c-1.06 7.51-7.97 13.52-15.48 13.52h-40.58Zm186.48-.9v-85.96h-24.5V194.2h63.58v14.42H507.3v85.97h-14.43Zm-186.33-.6h40.58c6.76 0 12.77-5.26 13.82-12.02l12.18-87.17h-27.06l-12.62 90.17h-10.52l12.62-90.17H308.5l-12.17 87.17c-.15.6-.15 1.2-.15 1.8 0 5.86 4.36 10.22 10.37 10.22Zm188.14-1.2h10.82v-85.96h24.64v-10.82h-59.96v10.82h24.5v85.96Zm2.4-2.4V204.4h-24.5v-6.02h55.16v6.02h-24.65v85.96h-6Zm315.08-.78 2.4-11.28h19.77l14.35-67.62h-19.76l2.4-11.27h50.72l-2.4 11.27h-19.7L845.6 278.3h19.68l-2.4 11.28h-50.72Zm-313.28-1.03h2.4V202.6h24.66v-2.4h-51.55v2.4h24.5v85.96Z"/></svg>