<svg xmlns="http://www.w3.org/2000/svg" viewBox="0 0 1000 660"><path fill-rule="evenodd" d="m268.95 515.54-.2-137.67h-13.97l.4-1.96h43.26l-.39 1.96h-13.47l.1 115.94 49.56-115.94h-20.46l.4-1.96h43.27l-.4 1.96H336.3l-51.52 120.66v17h-15.83Zm80.43 0c-10.03 0-17.8-3.25-22.32-9.54-3.54-4.82-5.4-11.31-5.4-19.47 0-4.82.68-10.23 1.96-16.23 3.44-16.02 9.73-28.02 18.58-35.69 7.28-6.3 16.43-9.54 26.46-9.54 9.34 0 16.71 2.85 21.33 8.46l1.87-8.46h15.73l-14.84 69.82c-.99 4.52-1.48 8.16-1.48 11.01 0 2.46.4 4.33 1.08 5.6 1.28 2.07 3.54 2.07 6.2 2.07h9.83l28.91-135.7h-10.81l.39-1.96h26.55l-29.3 137.66h10.81l-.4 1.97h-37.36c-5.8-.01-11.73-.14-15.73-2.56-2.75-1.67-4.33-4.13-5.02-7.57-9.14 8.26-19.47 10.13-27.04 10.13Zm126.46 0c-10.03 0-17.7-3.25-22.32-9.54-3.54-4.82-5.41-11.31-5.41-19.47 0-4.82.69-10.23 1.97-16.23 3.44-16.02 9.73-28.02 18.58-35.69 7.37-6.3 16.42-9.54 26.45-9.54 10.03 0 17.7 3.25 22.32 9.54 3.54 4.82 5.41 11.3 5.41 19.47 0 4.82-.69 10.23-1.96 16.22l-.2.99H465.6c-1.77 8.36-2.55 15.53-2.55 21.43 0 4.82.49 8.85 1.67 12.1 2.16 5.8 6 8.75 11.5 8.75 9.83 0 23.7-3.34 33.53-19.07l.6-.89 1.57.79-.6.88c-4.42 7.08-10.02 12.4-16.61 15.83a41.05 41.05 0 0 1-18.88 4.43Zm41.4 0 .39-1.97h10.82l18.39-86.53h-10.82l.5-1.97h26.54l-4.33 20.06a42.36 42.36 0 0 1 8.56-11.7c5.6-5.4 12.49-8.36 19.37-8.36 10.82 0 20.65 7.47 20.65 19.86 0 1.87-.2 3.74-.59 5.7l-.2 1H590.8l.2-1a47.97 47.97 0 0 0 1.18-10.61c0-8.06-2.56-12.98-6-12.98-6.3 0-12.49 2.75-17.7 7.67-6.1 5.8-10.62 14.75-12.98 25.76l-11.3 53.1h10.8l-.39 1.97h-37.36Zm81.81 0 .4-1.97h10.81l18.39-86.53h-10.82l.5-1.97h26.54L626 513.57h10.81l-.4 1.97h-37.36Zm83.68 0c-11.4 0-20.25-3.25-25.66-9.44-4.53-5.11-6.79-12.1-6.79-20.95 0-4.52.6-9.44 1.77-14.85 3.45-16.02 10.23-28.12 20.16-35.79 8.16-6.2 18.39-9.44 29.8-9.44 11.4 0 20.25 3.25 25.66 9.44 4.52 5.11 6.79 12.1 6.79 20.95 0 4.52-.6 9.44-1.77 14.84-3.45 16.03-10.23 28.13-20.16 35.8-8.17 6.2-18.39 9.44-29.8 9.44Zm-332.95-1.97c7.37 0 17.5-1.87 26.45-10.32-.2-2.36.1-5.22.78-8.36l12.4-58.6c-4.24-6.1-11.61-9.25-21.25-9.25-5.6 0-10.62 2.95-15.14 8.75-5.8 7.27-10.33 18.88-13.67 34.51-1.87 8.76-2.85 16.33-2.85 22.42 0 4.92.6 8.95 1.77 12.1 2.16 5.8 5.9 8.75 11.5 8.75Zm333.35 0c6.98 0 13.27-2.95 18.78-8.85 6.59-7.27 11.7-18.88 15.04-34.42 1.58-7.37 2.36-13.86 2.36-19.46 0-6.1-.98-11.12-2.85-14.95-2.95-5.9-7.96-8.85-14.95-8.85-6.98 0-13.17 2.95-18.68 8.85-6.59 7.27-11.7 18.88-15.04 34.41-1.58 7.38-2.37 13.87-2.37 19.47 0 6.1.99 11.12 2.86 14.95 2.95 5.9 7.86 8.85 14.85 8.85ZM466 469.32h39.34c1.77-8.26 2.56-15.44 2.56-21.34 0-4.91-.6-8.95-1.68-12.2-2.16-5.8-6.1-8.74-11.6-8.74s-10.62 2.95-15.14 8.75c-5.7 7.18-10.13 18.39-13.48 33.53ZM112.12 446.7l.5-2.54h93.78l-.5 2.54h-93.78Zm682.37 0 .5-2.54h93.78l-.5 2.54h-93.78Zm-153.55-40.31c-3.74 0-6.39-2.66-6.39-6.3 0-5.01 4.92-9.43 9.73-9.43 3.74 0 6.4 2.65 6.4 6.29 0 5.01-4.92 9.44-9.74 9.44Zm47.78-30.37A60.5 60.5 0 0 1 665 371.2a62.44 62.44 0 0 1-20.8-14.58c-12.93-13.82-20.15-33.35-20.15-56.67v-20.29c0-14.2-2.8-25.74-7.99-33.34-4.44-6.34-10.65-9.76-17.37-9.76h-16.48v86.2h17.75v2.54h-55.79v-2.53h17.75V147.8h-17.75v-2.54h55.79c11.8 0 22.44 4.06 30.05 10.65 9.38 7.99 14.32 20.16 14.32 35 0 14.83-4.94 27-14.32 34.99-5.2 4.56-11.92 7.73-19.27 9.38 7.35 1.64 14.07 4.81 19.27 9.38 9.13 7.73 14.07 19.4 14.32 33.72v20.29c0 23.2 4.95 42.72 14.08 56.29 8.1 11.92 18.76 18.51 30.3 18.51h1.27v2.54h-1.27ZM156.48 325.3l-38.03-177.5h-18v-2.53h55.78v2.54h-17.37l31.95 149.47 32.07-149.47h-26.37v-2.54h55.79v2.54h-26.75L172.2 303.37l4.7 21.93h-20.42Zm40.32 0v-2.53h26.88l33.34-155.57-4.69-21.93h20.29l38.03 177.5h33.22V147.8h-17.75v-2.54h55.78v2.54h-17.75v174.96h16.49c8.36 0 15.59-1.9 21.3-5.7a32.7 32.7 0 0 0 10.77-12.56 47.28 47.28 0 0 0 4.7-18.51v-1.27h2.53v40.57H272.87v-2.53h17.5l-10.4-48.18h-43.36l-10.4 48.18h26.38v2.53H196.8Zm238.35 0v-2.53h17.75V147.8h-17.75v-2.54h93.82v40.57h-2.54v-1.27c0-.12-.12-9.38-4.69-18.5a32.7 32.7 0 0 0-10.77-12.56c-5.7-3.8-12.94-5.7-21.3-5.7h-16.48V234c14.45-.24 25.1-3.8 30.93-10.51 4.44-5.07 4.56-10.4 4.56-10.4v-1.27h2.54v46.91h-2.54v-1.27s-.12-5.32-4.56-10.4c-5.83-6.71-16.48-10.26-30.93-10.51v86.2h16.48c8.36 0 15.6-1.9 21.3-5.7a32.7 32.7 0 0 0 10.77-12.55 47.28 47.28 0 0 0 4.7-18.51v-1.27h2.53v40.57h-93.82Zm224.4 0v-2.53h17.76V147.8h-17.75v-2.54h55.78v2.54H697.6v174.96h17.75v2.53h-55.78Zm150.88 0c-24.09 0-46.02-7.48-61.87-20.92a76.65 76.65 0 0 1-20.41-28.02c-5.08-11.91-7.74-25.73-7.74-41.07s2.66-29.16 7.74-41.08a76.65 76.65 0 0 1 20.4-28.02c15.86-13.44 37.79-20.92 61.88-20.92 24.21 0 46.15 7.48 61.87 20.92a75.23 75.23 0 0 1 20.41 28.02c5.2 11.92 7.73 25.74 7.73 41.08s-2.53 29.16-7.73 41.07a75.23 75.23 0 0 1-20.41 28.02c-15.72 13.44-37.66 20.92-61.87 20.92Zm0-2.53c18.76 0 35.75-7.23 47.92-20.16 6.85-7.35 12.17-16.48 15.85-27.13 3.93-11.67 5.96-25.1 5.96-40.2 0-15.08-2.03-28.52-5.96-40.18-3.68-10.65-9-19.78-15.85-27.13-12.17-12.94-29.16-20.16-47.92-20.16-18.64 0-35.75 7.22-47.8 20.16-6.84 7.35-12.17 16.48-15.85 27.13-4.05 11.66-6.08 25.1-6.08 40.19 0 15.08 2.03 28.52 6.08 40.19 3.68 10.65 9 19.78 15.85 27.13 12.05 12.93 29.16 20.16 47.8 20.16Zm-573.31-50.72h42.34L258.3 173.3l-21.17 98.76Zm345.1-38.03h16.48c6.72 0 12.93-3.42 17.37-9.76 5.2-7.61 7.99-19.15 7.99-33.35 0-14.2-2.8-25.73-7.99-33.34-4.44-6.34-10.65-9.76-17.37-9.76h-16.48V234Z"/></svg>