<svg xmlns="http://www.w3.org/2000/svg" viewBox="0 0 1000 660"><path fill-rule="evenodd" d="m266.43 171.54-57.9 161.56a13.46 13.46 0 0 1-25.3 0L125.6 171.54a13.46 13.46 0 0 1 25.28-9.15l44.97 126.06L240.8 162.4a13.6 13.6 0 0 1 25.62 9.15Zm119.55 49a70.84 70.84 0 1 1-100.7 99.69 70.84 70.84 0 0 1 100.7-99.68Zm-94.52 50.36a44.3 44.3 0 1 0 88.6-.25 44.3 44.3 0 0 0-88.6.25Zm166.67-103.93v138.4a9.66 9.66 0 0 0 9.69 9.69 13.46 13.46 0 0 1 0 26.92 36.66 36.66 0 0 1-36.62-36.62v-138.4a13.46 13.46 0 1 1 26.93 0ZM616.73 213v69.5a58.86 58.86 0 0 1-17.5 42 59.48 59.48 0 0 1-42.28 17.51 59.76 59.76 0 0 1-59.51-59.5v-69.5a13.54 13.54 0 0 1 13.46-13.47 13.68 13.68 0 0 1 13.46 13.46v69.5a32.71 32.71 0 0 0 65.42 0v-69.5a13.54 13.54 0 0 1 13.46-13.46c7.4.11 13.37 6.07 13.48 13.46Zm59.22-46.04v32.57h32.58A13.54 13.54 0 0 1 721.99 213a13.33 13.33 0 0 1-13.46 13.46h-32.58v67.31a21.15 21.15 0 0 0 21.27 21.28h11.3a13.46 13.46 0 0 1 0 26.92h-11.3a47.8 47.8 0 0 1-48.19-48.2v-126.8a13.46 13.46 0 0 1 26.92 0ZM874.93 213v115.5a13.33 13.33 0 0 1-13.46 13.47 13.54 13.54 0 0 1-13.45-13.46v-1.89a71.35 71.35 0 1 1 0-111.47V213a13.68 13.68 0 0 1 13.45-13.46 13.54 13.54 0 0 1 13.46 13.47ZM759.7 270.9a44.16 44.16 0 1 0 88.32-.52 44.16 44.16 0 0 0-88.32.52ZM369.9 420.78a49.44 49.44 0 1 1-35.06-14.67 48.84 48.84 0 0 1 35.06 14.67Zm-69.72 35.06a34.58 34.58 0 1 0 69.16.18 34.58 34.58 0 0 0-69.16-.18Zm231.9-35.45a50.13 50.13 0 1 1-71.23 70.55 50.13 50.13 0 0 1 71.24-70.55Zm-66.86 35.63a31.34 31.34 0 1 0 62.68-.18 31.34 31.34 0 0 0-62.68.18Zm230.2-35.99a50 50 0 0 1 15.06 36 51.05 51.05 0 0 1-87.05 36 50.74 50.74 0 0 1-14.86-36A51.05 51.05 0 0 1 659.42 405a50 50 0 0 1 36 15.04Zm-64 36a28.13 28.13 0 1 0 56.19-2.63 28.13 28.13 0 0 0-56.2 2.62Zm228.47-36.49a51.5 51.5 0 1 1-36.39-15.05 51.16 51.16 0 0 1 36.4 15.05Zm-61.15 36.4a24.77 24.77 0 1 0 49.53 0 24.77 24.77 0 0 0-49.53 0Zm-589.88-34.77a48.97 48.97 0 1 1-34.67-14.49 48.57 48.57 0 0 1 34.67 14.49Zm-72.55 34.67a37.82 37.82 0 1 0 37.9-37.73 37.9 37.9 0 0 0-37.9 37.73Z"/></svg>