<svg viewBox="0 0 14400 720" xmlns="http://www.w3.org/2000/svg"><path d="M0 0h1440v720H0Z" fill="#eae3d8"/><path d="m516.76 250.15-23.84 28.2h-36.4c-12.3 0-25.12-1.03-37.17 2.31-1.03 22.05 17.43 32.56 37.17 33.84 18.97 1.03 41.01 1.28 53.06 18.71 8.46 11.79 11.02 35.12-1.54 51.52l-12.05 14.61-12.05 13.84c-15.64 16.92-42.55 18.71-63.83 14.35-21.01-4.61-35.11-19.48-35.11-41.52l23.84-28.2c0 18.97 10.25 33.58 28.2 39.48 16.92 5.64 38.45 5.64 55.11-1.28 3.33-16.66-2.05-34.86-16.66-44.35-16.41-10.51-34.86-6.41-53.06-10.25-17.43-3.84-28.71-17.69-26.4-35.89 1.54-10 8.2-16.92 14.36-24.35 22.3-27.94 25.12-31.27 58.7-31.27 15.88-.01 31.77.25 47.67.25ZM647.75 311.93c0 7.43.51 15.38-2.82 22.3s-9.23 12.82-14.1 18.71c-24.61 29.99-28.71 28.2-67.93 28.2l23.84-28.45c11.28 0 26.15.77 37.17-2.31.51-5.13.26-10.25.26-15.38v-13.33h-20.25c-17.17 0-34.35-1.54-49.99 7.43-8.2 22.56.26 48.7 19.99 62.55 21.02 14.87 51.78 12.05 68.7-5.9l5.13-5.9c-5.13 6.66-7.43 9.48-9.74 12.05-4.1 5.13-8.46 10.25-12.82 15.12-7.95 9.48-17.17 16.92-28.97 20.51-44.09 12.82-84.08-34.09-63.83-75.62 5.38-10.51 14.1-19.74 21.79-28.71 6.92-8.2 13.84-16.92 23.33-22.56 10.77-6.15 22.3-7.18 34.35-7.18h35.89v18.47ZM687.23 342.18c0 15.38-1.79 32.55 6.15 46.4 4.1 7.43 12.56 14.61 26.15 14.61l-23.58 28.2c-23.07 0-31.53-20.25-32.3-40.25-1.03-23.07-.26-46.4-.26-69.47l23.84-28.2v48.71Zm0-20.51 23.58-28.2h52.04l-23.84 28.2h-51.78ZM767.98 429.59V321.67l23.84-28.2v107.92l-23.84 28.2Zm2.56-140.48 10.77-32.3 23.84-28.2-10.77 32.3-23.84 28.2ZM904.87 321.67c-22.56 0-49.73-4.36-69.98 7.18-8.2 22.81 0 48.96 19.99 62.8 21.02 14.87 50.24 12.05 68.7-5.9l5.13-5.9-10.25 12.56c-4.61 5.38-9.23 11.02-14.1 16.41-7.43 8.72-16.66 15.64-27.94 18.71-44.35 12.3-83.57-35.37-62.8-76.39 5.38-10.51 14.35-19.48 21.79-28.45 7.18-8.2 13.84-16.66 23.33-22.05 9.74-5.64 19.99-7.43 31.02-7.18h38.96l-23.85 28.21Z"/><path d="M991 293.47c10.51 0 20.76-.26 30.76 2.82 18.46 5.38 29.73 20.76 32.55 39.48 2.31 18.2-.51 32.55-18.97 54.86-12.82 15.64-24.86 32.55-45.63 37.43-42.55 10.25-78.95-34.09-61.78-74.08l23.84-28.2c-20.25 46.91 32.04 93.56 76.39 68.19 7.69-21.79 2.31-51.52-18.46-64.34-10.77-6.66-22.81-7.95-35.12-7.95h-40.24l23.58-28.2H991ZM1440 0h1440v720H1440Z"/><path d="M1822.28 160.44c12.69 0 24.89.49 36.6 5.12 21.72 8.3 38.06 27.08 43.68 49.53 3.9 16.1 2.93 27.82-1.95 41.48-4.39 12.44-12.44 22.2-20.98 32.21-15.62 19.03-30.99 36.6-56.61 41.24-22.45 4.15-46.12-2.93-62.71-18.79-16.35-15.86-24.4-39.04-21.23-61.73 1.46-11.22 5.61-22.2 12.2-31.23 6.83-9.52 15.86-17.32 22.45-26.84-19.28 28.06-16.1 67.1 7.81 91.26 24.64 25.13 64.9 28.55 93.45 8.05 14.15-29.28 6.34-65.15-18.3-86.13-27.08-23.18-64.91-17.08-97.85-17.08l22.69-27.08h40.75ZM1942.57 248.04c0 14.64-1.71 30.99 5.86 44.16 3.9 7.08 11.96 13.91 24.89 13.91l-22.45 26.84c-21.96 0-30.01-19.28-30.74-38.31-.98-21.96-.24-44.16-.24-66.12l22.69-26.84v46.36Zm0-19.52 22.45-26.84h49.53l-22.69 26.84h-49.29ZM2124.84 278.3c0 21.23 3.9 45.87-8.3 64.42-6.1 9.52-13.91 17.57-20.98 26.11-7.08 8.3-14.4 15.86-24.4 20.01-19.52 8.3-42.46 3.66-57.1-11.47l-8.54-9.03 23.42-27.82c14.15 24.16 45.87 32.7 70.27 18.79 3.42-9.76 3.17-19.76 3.17-30.01v-30.26c-7.81 9.03-14.88 19.03-25.13 25.13-9.27 5.37-20.01 8.05-30.5 7.08-19.52-1.71-36.6-14.4-43.68-32.7-8.05-20.74-.73-40.26 12.69-56.61 12.93-15.86 25.38-34.16 46.6-38.8 10.49-2.2 21.72-1.46 32.7-1.46h29.77v76.62Zm-65.88-49.54c-11.96 0-23.18.73-33.67 6.83-9.27 25.86 3.9 55.39 29.28 65.39 15.37 6.1 30.74 4.39 44.65-3.42 4.64-12.69 3.17-26.6 3.17-39.77v-29.04h-43.43ZM2241.96 331.25V298.8c-14.64 17.57-29.52 34.16-54.41 32.45-41.72-2.44-61.49-51.73-36.6-83.94 12.44-16.1 26.35-36.84 46.6-43.19 10.98-3.66 22.94-2.44 34.4-2.44h32.7v102.73l-22.69 26.84Zm-42.45-102.73c-12.2 0-23.67.49-34.41 6.83-9.52 25.86 3.9 55.39 29.28 65.39 15.13 6.1 30.74 4.64 44.65-3.42 4.15-11.96 2.93-25.38 2.93-37.82v-30.99h-42.45ZM2322.72 217.78c23.42-26.11 67.59-18.54 79.06 15.37 3.66 11.71 2.2 17.32 2.2 34.16v37.09l-22.45 26.84v-39.53c0-13.18.98-26.6-5.37-38.55-11.71-22.2-40.02-30.99-62.22-19.28-3.66 10.98-2.2 22.94-2.2 34.4v36.11l-22.69 26.84V228.52l22.69-26.84v29.04l10.98-12.94ZM2428.62 331.25V228.52l22.69-26.84v102.73l-22.69 26.84Zm2.44-133.72 10.25-30.74 22.69-26.84-10.25 30.74-22.69 26.84ZM2558.91 228.52c-21.47 0-47.34-4.15-66.61 6.83-7.81 21.72 0 46.6 19.03 59.78 20.01 14.15 47.83 11.47 65.39-5.61l4.88-5.61-9.76 11.96c-4.39 5.12-8.78 10.49-13.42 15.62-7.08 8.3-15.86 14.88-26.6 17.81-42.21 11.71-79.54-33.67-59.78-72.71 5.12-10 13.66-18.54 20.74-27.08 6.83-7.81 13.18-15.86 22.2-20.98 9.27-5.37 19.03-7.08 29.52-6.83h37.09l-22.68 26.82ZM1703.23 394.67l22.69-27.08h112.98l-22.69 27.08h-112.98Zm56.61 143.72V421.76l22.45-27.08v116.88l-22.45 26.83ZM1877.45 424.93c23.42-26.11 67.59-18.54 79.06 15.37 3.66 11.71 2.2 17.32 2.2 34.16v37.09l-22.45 26.84v-39.53c0-13.18.98-26.6-5.37-38.55-11.71-22.2-40.02-30.99-62.22-19.28-3.66 10.98-2.2 23.18-2.2 34.4v36.11l-22.69 26.84V373.93l22.69-26.84v90.77l10.98-12.93ZM2037.76 408.83c10 0 19.76-.24 29.28 2.68 17.57 5.12 28.3 19.76 30.99 37.58 2.2 17.32-.49 30.99-18.06 52.22-12.2 14.88-23.67 30.99-43.43 35.63-40.5 9.76-75.15-32.45-58.8-70.52l22.69-26.84c-19.28 44.65 30.5 89.06 72.71 64.91 7.32-20.74 2.2-49.04-17.57-61.25-10.25-6.34-21.72-7.56-33.43-7.56h-38.31l22.45-26.84h31.48ZM2205.87 538.39v-29.04l-11.22 12.93c-18.06 20.01-50.02 21.47-68.81 1.46-10.49-11.22-12.44-24.64-12.44-39.53v-48.56l22.45-26.84v39.53c0 13.18-.98 26.35 5.37 38.55 11.71 22.2 40.26 30.74 62.46 19.28 3.42-10.98 2.2-22.94 2.2-34.41v-36.11l22.45-26.84v102.72l-22.46 26.86ZM2367.89 485.44c0 21.23 3.9 45.87-8.3 64.42-6.1 9.52-13.91 17.57-20.98 26.11-7.08 8.3-14.4 15.86-24.4 20.01-19.52 8.3-42.46 3.66-57.1-11.47l-8.54-9.03 23.43-27.82c14.15 24.16 45.87 32.7 70.27 18.79 3.42-9.76 3.17-19.76 3.17-30.01v-30.26c-7.81 9.03-14.88 19.03-25.13 25.13-9.27 5.37-20.01 8.05-30.5 7.08-19.52-1.71-36.6-14.4-43.68-32.7-8.05-20.74-.73-40.26 12.69-56.61 12.93-15.86 25.38-34.16 46.6-38.8 10.49-2.2 21.72-1.46 32.7-1.46h29.77v76.62Zm-65.88-49.53c-11.96 0-23.18.73-33.67 6.83-9.27 25.86 3.9 55.39 29.28 65.39 15.37 6.1 30.75 4.39 44.65-3.42 4.64-12.69 3.17-26.6 3.17-39.77V435.9h-43.43ZM2426.45 424.93c23.42-26.11 67.59-18.54 79.06 15.37 3.66 11.71 2.2 17.32 2.2 34.16v37.09l-22.45 26.84v-39.53c0-13.18.98-26.6-5.37-38.55-11.71-22.2-40.02-30.99-62.22-19.28-3.66 10.98-2.2 23.18-2.2 34.4v36.11l-22.69 26.84V373.93l22.69-26.84v90.77l10.98-12.93ZM2555.04 468.85c0 12.2.98 25.38 9.03 34.89 6.59 7.81 13.66 9.52 21.96 9.52l-22.69 26.84c-35.62-.24-30.74-44.41-30.74-68.56v-97.36l22.45-27.08v121.75Zm0-33.18 22.69-26.84h39.04l-22.69 26.84h-39.04Z" fill="#e6e6e6"/><path d="M2880 0h1440v720H2880Z" fill="#eae3d8"/><path d="M3121.61 211.24c-29.43 0-62.84-5.14-88.3 13.08-14.25 29.67-4.91 66.11 21.49 85.5 26.63 19.39 64.24 17.99 88.06-5.84l5.84-6.77 3.27-3.74c-8.64 12.38-18.92 24.53-29.43 35.04-10.04 9.81-22.66 16.82-36.67 19.15-54.43 9.81-98.58-48.35-73.82-98.11 6.07-12.15 15.88-22.43 24.76-32.7 7.94-9.58 16.12-18.22 27.33-24.06 11.91-6.07 24.53-7.24 37.84-7.48h41.35l-21.72 25.93Z"/><path d="M3250.56 348.82v-59.1h-76.62l21.49-25.7h55.13v-52.79c-29.67 0-54.43-3.04-74.52 7.01-4.67 16.35-2.1 35.27-2.1 52.09v52.79l-21.72 25.7v-67.74c0-10.51-.93-21.49.93-31.77 1.87-10.04 7.01-17.75 13.32-25.46 12.61-15.42 23.83-31.07 44.15-35.97 10.51-2.57 21.26-2.57 31.77-2.57h29.9v137.82l-21.73 25.69ZM3356.61 323.13c17.52 0 38.31 2.1 51.16-10.75 2.34-2.57 4.67-5.37 7.94-9.11-6.07 9.81-14.48 18.45-21.96 27.1-7.71 8.64-15.88 14.72-27.56 17.05-10.98 2.34-22.43 1.4-33.64 1.4h-36.91V211.24l21.72-25.93v137.82h39.25ZM3420.39 348.82V211l21.72-25.7v137.82l-21.72 25.7ZM3465.47 348.82V211.24l21.72-25.93v137.82l-21.72 25.69Zm21.73-137.58 21.72-25.93h76.62l-21.72 25.93h-76.62Zm0 68.67 21.72-25.7h46.95l-21.49 25.7h-47.18ZM3651.89 185.31c12.15 0 23.83.47 35.04 4.91 20.79 7.94 36.44 25.93 41.81 47.42 3.74 15.42 2.8 26.63-1.87 39.71-4.21 11.91-11.91 21.26-20.09 30.83-14.95 18.22-29.67 35.04-54.19 39.48-21.49 3.97-44.15-2.8-60.03-17.99-15.65-15.18-23.36-37.38-20.32-59.1 1.4-10.74 5.37-21.26 11.68-29.9 6.54-9.11 15.18-16.59 21.49-25.69-18.45 26.86-15.42 64.24 7.48 87.36 23.59 24.06 62.14 27.33 89.47 7.71 13.55-28.03 6.07-62.37-17.52-82.46-25.93-22.19-62.14-16.35-93.67-16.35l21.72-25.93h39ZM3808.86 185.31c12.38 0 25.23 0 36.67 4.91 22.66 9.81 28.5 39.71 14.02 58.87l-8.41 10.28-9.81 11.68 26.16 52.09-21.72 25.7-29.43-59.1h-47.19l21.49-25.7c16.12 0 39.01 1.87 54.19-4.44 3.5-17.05-2.8-34.1-18.45-42.28-17.05-8.88-38.78-6.07-57.23-6.07v111.89l-21.72 25.7v-137.6l21.72-25.93h39.71ZM3907.91 216.38c7.24-8.88 14.48-18.69 24.53-24.53 10.51-5.84 22.89-7.94 34.57-5.37 10.98 2.34 21.26 8.41 28.26 17.29 3.74 4.67 6.54 9.81 8.41 15.42 3.04 9.34 2.57 16.35 2.57 26.4v77.55l-21.72 25.7V297.9c0-15.88 2.34-33.87-1.4-49.29-7.71-31.3-44.38-46.95-72.41-30.83-5.84 16.12-2.8 35.74-2.8 52.56v52.79l-21.72 25.7V211.24l21.72-25.93v31.07ZM4029.62 348.82V211l21.72-25.7v137.82l-21.72 25.7ZM4173.28 348.82v-59.1h-76.62l21.49-25.7h55.13v-52.79c-29.67 0-54.43-3.04-74.52 7.01-4.67 16.35-2.1 35.27-2.1 52.09v52.79l-21.72 25.7v-67.74c0-10.51-.93-21.49.93-31.77 1.87-10.04 7.01-17.75 13.31-25.46 12.61-15.42 23.83-31.07 44.15-35.97 10.51-2.57 21.26-2.57 31.77-2.57h29.9v137.82l-21.72 25.69ZM3026.91 401.03c7.3-8.95 14.61-18.85 24.74-24.74 10.6-5.89 23.09-8.01 34.87-5.42 11.08 2.36 21.44 8.48 28.51 17.44 3.77 4.71 6.6 9.9 8.48 15.55 3.06 9.43 2.59 16.49 2.59 26.63v78.23l-21.91 25.92v-51.37c0-16.02 2.36-34.17-1.41-49.72-7.78-31.58-44.77-47.36-73.05-31.1-5.89 16.26-2.83 36.05-2.83 53.02v53.26l-21.9 25.91V395.85l21.91-26.16v31.34ZM3270.57 508.48l-21.68 26.16h-99.2V395.61l21.68-25.92v138.79h99.2Zm-99.21-112.87 21.91-25.92h77.29l-21.68 25.92h-77.52Zm0 69.52 21.91-26.16h47.6l-21.91 26.16h-47.6ZM3346.92 369.69c12.25 0 24.04.47 35.35 4.95 20.97 8.01 36.76 26.16 42.18 47.83 3.77 15.55 2.83 26.86-1.89 40.06-4.24 12.02-12.02 21.44-20.26 31.1-15.08 18.38-29.93 35.35-54.67 39.82-21.68 4.01-44.54-2.83-60.56-18.14-15.79-15.32-23.56-37.7-20.5-59.62 1.41-10.84 5.42-21.44 11.78-30.16 6.6-9.19 15.32-16.73 21.68-25.92-18.62 27.1-15.55 64.8 7.54 88.13 23.8 24.27 62.68 27.57 90.25 7.78 13.67-28.28 6.13-62.92-17.67-83.18-26.16-22.39-62.68-16.49-94.49-16.49l21.91-26.16h39.35ZM3553.81 395.85c-29.69 0-63.39-5.18-88.84 13.2-13.2 27.1-7.07 60.32 15.08 80.82 22.15 20.97 56.32 24.74 82.47 9.19v-33.7h-64.32l21.68-26.16h63.39v41c-12.02 14.84-16.73 21.21-22.15 27.33-9.9 11.31-21.68 20.27-36.29 24.51-52.31 14.85-101.32-35.35-85.54-87.19 4.24-13.9 13.2-24.51 22.39-35.58 8.72-10.37 17.2-21.68 28.98-28.98 24.74-15.32 57.26-10.6 85.07-10.6l-21.92 26.16ZM3678.47 369.69c12.25 0 24.04.47 35.35 4.95 20.97 8.01 36.76 26.16 42.18 47.83 3.77 15.55 2.83 26.86-1.88 40.06-4.24 12.02-12.02 21.44-20.27 31.1-15.08 18.38-29.93 35.35-54.67 39.82-21.68 4.01-44.54-2.83-60.56-18.14-15.79-15.32-23.56-37.7-20.5-59.62 1.41-10.84 5.42-21.44 11.78-30.16 6.6-9.19 15.32-16.73 21.68-25.92-18.62 27.1-15.55 64.8 7.54 88.13 23.8 24.27 62.68 27.57 90.25 7.78 13.67-28.28 6.13-62.92-17.67-83.18-26.16-22.39-62.68-16.49-94.49-16.49l21.91-26.16h39.35ZM3751.28 395.85l21.91-26.16h109.1l-21.92 26.16h-109.09Zm54.67 138.79V422l21.68-26.16v112.87l-21.68 25.93ZM3887.02 534.64V395.61l21.91-25.92v139.03l-21.91 25.92ZM4043.01 395.85c-29.69 0-63.39-5.18-89.07 13.2-14.37 29.93-4.95 66.69 21.68 86.24 26.86 19.56 64.8 18.14 88.84-5.89l5.89-6.83 3.3-3.77c-8.72 12.49-19.09 24.74-29.69 35.35-10.13 9.9-22.86 16.97-37 19.32-54.9 9.9-99.44-48.78-74.46-98.97 6.13-12.25 16.02-22.62 24.98-32.99 8.01-9.66 16.26-18.38 27.57-24.27 12.02-6.13 24.74-7.3 38.17-7.54h41.71l-21.92 26.15Z"/><path d="M4173.09 534.64v-59.62h-77.29l21.68-25.92h55.61v-53.25c-29.93 0-54.9-3.06-75.17 7.07-4.71 16.5-2.12 35.58-2.12 52.55v53.26l-21.91 25.92V466.3c0-10.6-.94-21.68.94-32.05 1.89-10.13 7.07-17.91 13.43-25.68 12.72-15.55 24.04-31.34 44.54-36.29 10.6-2.59 21.44-2.59 32.05-2.59H4195v139.03l-21.91 25.92ZM4320 0h1440v720H4320Z"/><path d="M4793.21 192.66c0 25.41 2.7 53.06-3.37 77.79-5.4 22.48-19.79 38.9-34.63 56.21-6.97 7.87-14.16 15.06-23.38 20.46-4.95 2.92-6.07 4.05-11.02 1.35-4.27-2.25-8.09-4.72-11.92-7.64-37.1-29.68-31.03-80.27-31.03-122.54l20.69-25.63c0 29.45-3.6 62.06 7.19 90.16 4.95 12.82 13.04 24.28 23.83 33.05 3.82 2.92 11.02 9.44 15.96 9.89 4.27.45 12.37-6.52 15.51-8.99 15.74-29.9 11.47-66.1 11.47-98.48l20.7-25.63ZM4809.62 350.05v-94.66l20.91-24.73v94.66l-20.91 24.73Zm2.25-123.21 9.44-28.33 20.91-24.73-9.44 28.33-20.91 24.73ZM4876.62 260.34c13.27-15.96 26.98-31.03 49.91-29.68 19.34 1.12 36.42 14.16 42.27 32.6 3.6 11.02 3.37 23.16-2.25 34.85-5.17 11.02-14.39 20.01-22.03 29-6.3 7.42-12.59 14.39-21.36 18.44-9.44 4.27-19.11 4.5-29.23 4.5h-38.22V198.51l20.91-24.73v86.56Zm0 31.7v33.28h46.99c8.77-.22 16.19-2.02 23.83-6.52 14.84-40.7-30.58-78.47-68.13-57.11-3.37 9.89-2.69 20.24-2.69 30.35ZM5005.9 273.38c0 13.49-1.57 28.55 5.4 40.7 3.6 6.52 11.02 12.82 22.93 12.82l-20.68 24.73c-20.24 0-27.66-17.76-28.33-35.3-.9-20.24-.23-40.7-.23-60.93l20.91-24.73v42.71Zm0-17.99 20.69-24.73h45.64l-20.91 24.73h-45.42ZM5152.72 350.05v-29.9c-13.49 16.19-27.21 31.48-50.14 29.9-38.45-2.25-56.66-47.67-33.73-77.34 11.47-14.84 24.28-33.95 42.94-39.8 10.12-3.37 21.14-2.25 31.7-2.25h30.13v94.66l-20.9 24.73Zm-39.12-94.66c-11.24 0-21.81.45-31.7 6.3-8.77 23.83 3.6 51.04 26.98 60.26 13.94 5.62 28.33 4.27 41.14-3.15 3.82-11.02 2.7-23.38 2.7-34.85V255.4h-39.12ZM5227.13 245.5c21.58-24.06 62.28-17.09 72.85 14.16 3.37 10.79 2.02 15.96 2.02 31.48v34.18l-20.69 24.73v-36.42c0-12.14.9-24.51-4.95-35.52-10.79-20.46-36.87-28.55-57.33-17.76-3.37 10.12-2.02 21.13-2.02 31.7v33.28l-20.91 24.73V255.4l20.91-24.73v26.76l10.12-11.93ZM5345.62 285.97c0 11.24.9 23.38 8.32 32.15 6.07 7.19 12.59 8.77 20.24 8.77l-20.91 24.73c-32.83-.22-28.33-40.92-28.33-63.18v-89.71l20.68-24.96v112.2Zm0-30.58 20.91-24.73h35.97l-20.91 24.73h-35.97ZM4587.41 376.62c-28.37 0-60.57-4.95-85.12 12.61-13.74 28.6-4.73 63.73 20.72 82.42 25.67 18.69 61.92 17.34 84.89-5.63l5.63-6.53 3.15-3.6c-8.33 11.93-18.24 23.64-28.37 33.78-9.68 9.46-21.84 16.21-35.35 18.46-52.47 9.46-95.03-46.61-71.16-94.58 5.85-11.71 15.31-21.62 23.87-31.53 7.66-9.23 15.54-17.56 26.35-23.19 11.48-5.86 23.64-6.98 36.48-7.21h39.86l-20.95 25Z" fill="#e6e6e6"/><path d="M4671.4 389.68c9.23 0 18.24-.22 27.02 2.48 16.21 4.73 26.12 18.24 28.6 34.68 2.03 15.99-.45 28.6-16.66 48.19-11.26 13.74-21.84 28.6-40.08 32.88-37.38 9.01-69.36-29.95-54.27-65.08l20.94-24.77c-17.79 41.21 28.15 82.19 67.1 59.9 6.76-19.14 2.03-45.26-16.21-56.52-9.46-5.86-20.04-6.98-30.85-6.98h-35.35l20.72-24.77h29.04ZM4836 415.8c11.93-14.19 23.64-28.37 44.14-25.9 18.24 2.25 32.88 17.56 33.55 36.03v58.55l-20.72 24.77V474.8c0-11.48 1.58-24.54-2.48-35.35-7.43-20.49-31.52-30.62-51.34-21.39-2.7 10.13-1.35 22.07-1.35 32.65v33.78l-20.72 24.77V474.8c0-11.48 1.58-24.54-2.25-35.35-7.66-20.49-31.75-30.62-51.57-21.39-2.7 10.36-1.13 22.29-1.13 33.1v33.33l-20.94 24.77v-94.8l20.94-24.77v23.87c10.36-12.38 20.72-24.32 38.28-23.87 16 .22 30.64 10.8 35.59 26.11ZM4957.15 419.63c11.03-13.51 21.84-26.8 40.31-29.27 15.76-2.25 28.82.45 41.88 14.64 8.56 9.46 13.06 22.29 12.38 34.9-.9 13.96-8.11 24.32-16.66 34.68-9.46 11.26-18.46 24.55-32.2 30.63-13.96 6.3-30.62 4.05-45.71 4.05l20.94-24.77c16.66 0 34.9 2.25 49.99-6.3 14.86-40.76-30.62-78.81-68.23-57.2-3.38 9.68-2.7 20.04-2.7 30.17v90.3l-20.94 24.77V414.45l20.94-24.77v29.95ZM5119.95 389.68c9.23 0 18.24-.22 27.02 2.48 16.21 4.73 26.12 18.24 28.6 34.68 2.03 15.99-.45 28.6-16.66 48.19-11.26 13.74-21.84 28.6-40.08 32.88-37.38 9.01-69.36-29.95-54.27-65.08l20.94-24.77c-17.79 41.21 28.15 82.19 67.1 59.9 6.76-19.14 2.03-45.26-16.21-56.52-9.46-5.86-20.04-6.98-30.85-6.98h-35.35l20.72-24.77h29.04ZM5261.58 414.67c-17.79 0-36.25-1.35-53.82.23 5.18 14.19 23.64 12.61 35.58 12.84 12.39.22 26.57 1.58 34.23 12.38 13.74 19.14-1.8 36.48-22.07 58.55l-3.38 2.93c-12.16 9.68-31.97 9.01-46.39 7.43-15.76-1.8-29.5-10.81-29.5-28.15l20.94-24.77c0 14.41 9.91 24.09 23.42 27.02 12.61 2.7 28.6 2.7 40.98-.68 1.13-23.42-21.17-29.72-40.31-29.95-9.46 0-20.27.68-28.37-4.95-7.88-5.63-9.46-16.89-3.83-24.55 6.31-6.3 16.21-18.24 21.39-25.22 8.33-8.78 21.62-8.11 32.65-8.11h39.18l-20.7 25ZM5381.6 509.25v-26.8l-10.36 11.93c-16.66 18.46-46.16 19.82-63.5 1.35-9.68-10.36-11.48-22.74-11.48-36.48v-44.81l20.72-24.77v36.48c0 12.16-.9 24.32 4.95 35.58 10.81 20.49 37.15 28.37 57.65 17.79 3.15-10.13 2.03-21.17 2.03-31.75v-33.33l20.72-24.77v94.8l-20.73 24.78ZM5446 432.46c0 13.51-1.58 28.6 5.4 40.76 3.6 6.53 11.03 12.84 22.97 12.84l-20.72 24.77c-20.27 0-27.7-17.79-28.37-35.35-.9-20.27-.22-40.76-.22-61.02l20.94-24.77v42.77Zm0-18.01 20.72-24.77h45.71l-20.94 24.77H5446ZM5604.98 405.89c0 6.53.45 13.51-2.48 19.59s-8.11 11.26-12.38 16.44c-21.62 26.35-25.22 24.77-59.67 24.77l20.94-24.99c9.91 0 22.97.68 32.65-2.03.45-4.5.22-9.01.22-13.51v-11.71h-17.79c-15.09 0-30.17-1.35-43.91 6.53-7.21 19.82.22 42.78 17.56 54.94 18.46 13.06 45.49 10.58 60.35-5.18l4.5-5.18c-4.5 5.86-6.53 8.33-8.56 10.58-3.6 4.5-7.43 9.01-11.26 13.29-6.98 8.33-15.09 14.86-25.45 18.01-38.73 11.26-73.86-29.95-56.07-66.43 4.73-9.23 12.38-17.34 19.14-25.22 6.08-7.21 12.16-14.86 20.49-19.82 9.46-5.4 19.59-6.31 30.17-6.31h31.53v16.23Z" fill="#e6e6e6"/><path d="M5760 720V0h1440v720" fill="#eae3d8"/><path d="M5955 541.11V393.33l23.33-27.85v148.03l-23.33 27.6Zm105.63 0V467.1h-82.29l23.08-27.6h59.21v-46.16l23.33-27.85v148.03l-23.33 27.59ZM6187.83 365.48c13.05 0 25.59.5 37.63 5.27 22.33 8.53 39.14 27.85 44.91 50.93 4.01 16.56 3.01 28.6-2.01 42.65-4.52 12.8-12.8 22.83-21.58 33.12-16.06 19.57-31.86 37.63-58.21 42.4-23.08 4.27-47.42-3.01-64.48-19.32-16.81-16.31-25.09-40.14-21.83-63.48 1.51-11.54 5.77-22.83 12.54-32.11 7.03-9.78 16.31-17.81 23.08-27.6-19.82 28.85-16.56 69 8.03 93.84 25.34 25.84 66.74 29.35 96.09 8.28 14.55-30.11 6.52-66.99-18.82-88.57-27.85-23.84-66.74-17.56-100.61-17.56l23.33-27.85h41.93ZM6501.45 365.48c0 24.34 1.51 49.43-1 73.76-2.51 24.34-11.04 43.66-26.59 62.47-7.78 9.28-15.3 19.57-24.59 27.6-4.01 3.51-8.53 6.77-13.05 9.28-4.77 2.51-5.52 2.76-10.29.25-19.32-10.54-31.61-28.6-37.38-49.43-6.52 9.03-14.05 17.31-21.08 25.84-6.77 7.78-13.55 15.05-22.08 20.82-11.29 6.77-9.53 7.03-20.82-1.25-7.03-5.27-13.55-11.04-18.57-18.06-12.04-16.81-16.31-38.14-17.31-58.46-1.25-21.58-.5-43.4-.5-64.98l23.33-27.85c0 31.61-3.51 65.48 5.02 96.09 4.01 14.3 11.04 27.6 21.58 37.89 5.02 4.77 10.79 8.78 16.81 12.29 3.26 1.51 3.26 1.51 6.27.75 3.51-1 7.53-4.27 10.54-6.27 16.81-34.12 11.54-76.02 11.54-112.9l23.08-27.85c2.76 32.11-3.51 63.98 5.02 94.84 3.76 14.3 10.54 27.85 21.08 38.39 5.02 5.27 11.04 9.53 17.56 13.05 3.26 1.51 3.26 1.51 6.27.75 3.51-1 7.53-4.27 10.54-6.27 16.81-34.12 11.54-76.02 11.54-112.9l23.08-27.85ZM6587.51 513.51c18.82 0 41.15 2.26 54.95-11.54 2.51-2.76 5.02-5.77 8.53-9.78-6.52 10.54-15.56 19.82-23.58 29.1-8.28 9.28-17.06 15.81-29.61 18.32-11.79 2.51-24.09 1.51-36.13 1.51h-39.64V393.33l23.33-27.85v148.03h42.15ZM6656 541.11V393.08l23.33-27.6v148.03l-23.33 27.6ZM6727.76 398.85c7.78-9.53 15.56-20.07 26.34-26.34 11.29-6.27 24.59-8.53 37.13-5.77 11.79 2.51 22.83 9.03 30.36 18.57 4.01 5.02 7.03 10.54 9.03 16.56 3.26 10.04 2.76 17.56 2.76 28.35v83.3l-23.33 27.6v-54.7c0-17.06 2.51-36.38-1.51-52.94-8.28-33.62-47.67-50.43-77.78-33.12-6.27 17.31-3.01 38.39-3.01 56.45v56.7l-23.33 27.6V393.33l23.33-27.85v33.37ZM6973.64 393.33c-31.61 0-67.49-5.52-94.59 14.05-14.05 28.85-7.53 64.23 16.06 86.06 23.58 22.33 59.96 26.34 87.81 9.78v-35.88h-68.49l23.08-27.85H7005v43.66c-12.8 15.81-17.81 22.58-23.58 29.1-10.54 12.04-23.08 21.58-38.64 26.09-55.7 15.81-107.89-37.63-91.08-92.83 4.52-14.8 14.05-26.09 23.84-37.89 9.28-11.04 18.32-23.08 30.86-30.86 26.34-16.31 60.97-11.29 90.57-11.29l-23.33 27.86ZM6110.57 316.92c18.84 0 41.2 2.26 55.02-11.56 2.51-2.76 5.02-5.78 8.54-9.8-6.53 10.55-15.58 19.85-23.62 29.14-8.29 9.3-17.08 15.83-29.64 18.34-11.81 2.51-24.12 1.51-36.18 1.51H6045V196.58l23.36-27.89v148.22h42.21Z"/><path d="M6268.09 168.69c-.25 20.6-3.77 41.7-14.07 59.54-5.53 9.3-12.56 17.59-19.34 25.88-6.28 7.29-12.56 15.32-19.6 21.86v40.95l-23.36 27.63v-53.01c-6.78.5-30.65-20.35-39.44-36.93-9.8-17.59-13.32-38.19-13.32-58.03l23.36-27.89c0 23.36 4.77 47.23 18.34 66.83 6.03 8.54 13.57 15.83 22.36 21.61 4.02 2.76 9.3 7.03 14.07 6.03 5.02-1.26 10.8-6.28 15.07-9.55 9.3-17.33 12.56-37.43 12.56-57.03l23.37-27.89ZM6349.24 168.69c13.32 0 27.13 0 39.44 5.28 24.37 10.55 30.65 42.71 15.07 63.31l-9.04 11.05-10.55 12.56 28.14 56.02-23.36 27.63-31.65-63.56h-50.75l23.11-27.63c17.33 0 41.95 2.01 58.28-4.77 3.77-18.34-3.01-36.68-19.85-45.47-18.34-9.55-41.7-6.53-61.55-6.53v120.34l-23.36 27.63V196.58l23.36-27.89h42.71ZM6432.4 344.55V196.33l23.36-27.63v148.22l-23.36 27.63ZM6598.71 196.58c-31.65 0-67.58-5.53-94.96 14.07-15.32 31.91-5.28 71.1 23.11 91.95 28.64 20.85 69.09 19.34 94.71-6.28l6.28-7.29 3.52-4.02c-9.3 13.32-20.35 26.38-31.65 37.68-10.8 10.55-24.37 18.09-39.44 20.6-58.54 10.55-106.02-52-79.39-105.52 6.53-13.06 17.08-24.12 26.63-35.17 8.54-10.3 17.33-19.6 29.39-25.88 12.81-6.53 26.38-7.79 40.7-8.04h44.47l-23.37 27.9Z"/><path d="M6737.38 344.55v-63.56h-82.4l23.11-27.63h59.29v-56.78c-31.91 0-58.54-3.27-80.14 7.54-5.02 17.59-2.26 37.94-2.26 56.02v56.78l-23.36 27.63V271.7c0-11.31-1-23.11 1-34.17 2.01-10.8 7.54-19.09 14.32-27.38 13.57-16.58 25.63-33.41 47.48-38.69 11.31-2.76 22.86-2.76 34.17-2.76h32.16v148.22l-23.37 27.63ZM6851.44 316.92c18.84 0 41.2 2.26 55.02-11.56 2.51-2.76 5.02-5.78 8.54-9.8-6.53 10.55-15.58 19.85-23.62 29.14-8.29 9.3-17.08 15.83-29.64 18.34-11.81 2.51-24.12 1.51-36.18 1.51h-39.69V196.58l23.36-27.89v148.22h42.21ZM7200 0h1440v720H7200Z"/><path d="M7468.22 366.86c13.75 0 28.02 0 40.73 5.45 25.16 10.9 31.65 44.1 15.56 65.37l-9.34 11.41-10.9 12.97 29.05 57.85-24.12 28.53-32.68-65.63h-52.4l23.87-28.53c17.9 0 43.32 2.08 60.18-4.93 3.89-18.94-3.11-37.87-20.49-46.95-18.94-9.86-43.06-6.74-63.55-6.74v124.25L7400 548.45V395.66l24.12-28.79h44.1ZM7611.94 410.7c10.64 0 21.01-.26 31.13 2.85 18.68 5.45 30.09 21.01 32.94 39.95 2.33 18.42-.52 32.94-19.2 55.51-12.97 15.82-25.16 32.94-46.17 37.87-43.06 10.38-79.9-34.5-62.52-74.97l24.12-28.53c-20.49 47.47 32.43 94.68 77.3 69 7.78-22.05 2.33-52.14-18.68-65.11-10.9-6.74-23.09-8.04-35.54-8.04h-40.73l23.87-28.53h33.48ZM7801.56 440.8c13.75-16.34 27.24-32.69 50.84-29.83 21.01 2.59 37.87 20.23 38.65 41.5v67.45l-23.87 28.53v-39.69c0-13.23 1.82-28.27-2.85-40.73-8.56-23.61-36.32-35.28-59.14-24.64-3.11 11.67-1.56 25.42-1.56 37.61v38.91l-23.87 28.53v-39.69c0-13.23 1.82-28.27-2.59-40.73-8.82-23.61-36.58-35.28-59.4-24.64-3.11 11.93-1.3 25.68-1.3 38.13v38.39l-24.12 28.53V439.24l24.12-28.53v27.5c11.93-14.27 23.87-28.02 44.1-27.5 18.43.25 35.29 12.45 40.99 30.09ZM8015.06 548.45v-34.5c-15.56 18.68-31.39 36.32-57.85 34.5-44.36-2.59-65.37-54.99-38.91-89.24 13.23-17.12 28.02-39.17 49.55-45.91 11.67-3.89 24.38-2.59 36.58-2.59h34.76v109.21l-24.13 28.53Zm-45.14-109.21c-12.97 0-25.16.52-36.58 7.26-10.12 27.5 4.15 58.88 31.13 69.52 16.08 6.49 32.69 4.93 47.47-3.63 4.41-12.71 3.11-26.98 3.11-40.21v-32.94h-45.13ZM8100.92 427.82c24.9-27.76 71.86-19.71 84.05 16.34 3.89 12.45 2.33 18.42 2.33 36.32v39.43l-23.86 28.53v-42.02c0-14.01 1.04-28.28-5.71-40.99-12.45-23.61-42.54-32.94-66.15-20.49-3.89 11.67-2.33 24.38-2.33 36.58v38.39l-24.12 28.53v-109.2l24.12-28.53v30.87l11.67-13.76ZM8301.45 439.24c-22.83 0-50.32-4.41-70.82 7.26-8.3 23.09 0 49.55 20.23 63.55 21.27 15.05 50.84 12.19 69.52-5.97l5.19-5.97-10.38 12.71c-4.67 5.45-9.34 11.15-14.27 16.6-7.52 8.82-16.86 15.82-28.27 18.94-44.88 12.45-84.57-35.8-63.55-77.3 5.45-10.64 14.53-19.71 22.05-28.79 7.26-8.3 14.01-16.86 23.61-22.31 9.86-5.71 20.23-7.52 31.39-7.26h39.43l-24.13 28.54Z" fill="#e6e6e6"/><path d="M8439.97 429.38c0 7.52.52 15.56-2.85 22.57-3.37 7-9.34 12.97-14.27 18.94-24.9 30.35-29.05 28.53-68.74 28.53l24.12-28.79c11.41 0 26.46.78 37.61-2.33.52-5.19.26-10.38.26-15.56v-13.49h-20.49c-17.38 0-34.76-1.56-50.58 7.52-8.3 22.83.26 49.29 20.23 63.29 21.27 15.05 52.4 12.19 69.52-5.97l5.19-5.97c-5.19 6.74-7.52 9.6-9.86 12.19-4.15 5.19-8.56 10.38-12.97 15.3-8.04 9.6-17.38 17.12-29.31 20.75-44.62 12.97-85.08-34.5-64.59-76.52 5.45-10.64 14.27-19.97 22.05-29.05 7-8.3 14.01-17.12 23.61-22.83 10.9-6.23 22.57-7.26 34.76-7.26h36.32v18.68ZM7582.04 202.07c-32.73 0-69.87-5.71-97.92 14.54-14.54 29.87-7.79 66.49 16.62 89.09 24.41 23.12 62.07 27.27 90.9 10.13v-37.14h-70.9l23.89-28.83h69.87v45.19c-13.25 16.36-18.44 23.37-24.41 30.13-10.91 12.47-23.89 22.34-40 27.01-57.66 16.36-111.68-38.96-94.28-96.1 4.67-15.32 14.54-27.01 24.67-39.22 9.61-11.43 18.96-23.89 31.95-31.95 27.27-16.88 63.11-11.69 93.76-11.69l-24.15 28.84ZM7668.27 162.33c-8.57 10.91-8.57 25.97-8.57 37.92v126.22l-24.15 28.57v-107c0-16.88-2.08-35.06 4.93-50.91 7.01-16.36 32.73-42.85 36.88-45.71l-9.09 10.91ZM7748.27 217.13c10.65 0 21.04-.26 31.17 2.86 18.7 5.45 30.13 21.04 32.98 40 2.34 18.44-.52 32.99-19.22 55.58-12.99 15.84-25.19 32.98-46.23 37.92-43.11 10.39-79.99-34.54-62.59-75.06l24.15-28.57c-20.52 47.53 32.47 94.8 77.4 69.09 7.79-22.08 2.34-52.2-18.7-65.19-10.91-6.75-23.12-8.05-35.58-8.05h-40.78l23.89-28.57h33.51ZM7853.2 266.48c0 15.58-1.82 32.99 6.23 47.01 4.16 7.53 12.73 14.8 26.49 14.8l-23.89 28.57c-23.37 0-31.95-20.52-32.73-40.78-1.04-23.37-.26-47.01-.26-70.38l24.15-28.57v49.35Zm0-20.78 23.89-28.57h52.72l-24.15 28.57h-52.46ZM7935.02 355.05V245.7l24.15-28.57v109.34l-24.15 28.58Zm2.59-142.33 10.91-32.73 24.15-28.57-10.91 32.73-24.15 28.57ZM8046.18 217.13c10.65 0 21.04-.26 31.17 2.86 18.7 5.45 30.13 21.04 32.99 40 2.34 18.44-.52 32.99-19.22 55.58-12.99 15.84-25.19 32.98-46.23 37.92-43.11 10.39-79.99-34.54-62.59-75.06l24.15-28.57c-20.52 47.53 32.47 94.8 77.4 69.09 7.79-22.08 2.34-52.2-18.7-65.19-10.91-6.75-23.11-8.05-35.58-8.05h-40.78l23.89-28.57h33.5ZM8225.13 355.05v-30.91l-11.95 13.77c-19.22 21.3-53.24 22.86-73.24 1.56-11.17-11.95-13.25-26.23-13.25-42.08V245.7l23.89-28.57v42.08c0 14.02-1.04 28.05 5.71 41.04 12.47 23.63 42.85 32.73 66.49 20.52 3.64-11.69 2.34-24.41 2.34-36.62V245.7l23.89-28.57v109.34l-23.88 28.58ZM8363.05 245.96c-20.52 0-41.82-1.56-62.07.26 5.97 16.36 27.27 14.54 41.041 14.8 14.279.26 30.649 1.82 39.479 14.28 15.84 22.08-2.08 42.08-25.45 67.53l-3.9 3.38c-14.03 11.17-36.879 10.39-53.5 8.57-18.18-2.08-34.02-12.47-34.02-32.47l24.15-28.57c0 16.62 11.43 27.79 27.01 31.17 14.54 3.12 32.981 3.12 47.271-.78 1.299-27.01-24.411-34.28-46.491-34.54-10.91 0-23.38.78-32.73-5.71-9.09-6.49-10.91-19.48-4.42-28.31 7.27-7.27 18.7-21.04 24.67-29.09 9.61-10.13 24.931-9.35 37.66-9.35h45.19l-23.89 28.83Z" fill="#e6e6e6"/><path d="M8640 0h1440v720H8640Z" fill="#eae3d8"/><path d="M8920.17 194.04c23.71 23.71 72.55 58.32 43.62 95.78l-2.84 3.79c-11.85 15.17-24.18 29.4-36.99 44.1 17.54 22.29 34.61 44.1 51.68 66.38 18.02-17.07 36.04-33.67 54.05-50.26-13.75 19.92-30.82 40.78-48.84 56.9l48.84 63.06-43.62 52.16-54.53-69.7c-54.06 50.26-62.12 57.85-70.18 64.96-5.69 5.22-5.22 4.74-10.91-.95-23.23-23.71-64.96-54.53-37.46-91.04 15.65-20.39 32.24-43.62 51.68-59.27-18.02-23.23-43.62-50.74-20.86-81.08l76.36-94.83Zm-72.07 206.74c-.95 22.29 12.8 33.67 46.94 67.81 5.69 5.69 4.74 5.22 10.91-.47l20.39-18.49-53.11-68.75-25.13 19.9Zm68.75-72.55c3.79-2.85 7.59-6.16 11.85-9.01 0-4.74-.47-9.96-1.9-14.7-7.11-22.76-24.66-31.77-46.47-53.58-8.52 30.82 19.45 55.48 36.52 77.29ZM9152.54 358.46V302.8h-72.16l20.24-24.2h51.92v-49.72c-27.94 0-51.26-2.86-70.18 6.6-4.4 15.4-1.98 33.22-1.98 49.06v49.72l-20.46 24.2v-63.8c0-9.9-.88-20.24.88-29.92 1.76-9.46 6.6-16.72 12.54-23.98 11.88-14.52 22.44-29.26 41.58-33.88 9.9-2.42 20.02-2.42 29.92-2.42H9173v129.8l-20.46 24.2ZM9215.68 283.44c0 13.2-1.54 27.94 5.28 39.82 3.519 6.38 10.78 12.54 22.44 12.54l-20.24 24.2c-19.8 0-27.06-17.38-27.72-34.54-.88-19.8-.22-39.82-.22-59.62l20.46-24.2v41.8Zm0-17.6 20.24-24.2h44.66l-20.46 24.2h-44.44ZM9350.76 265.84c-19.36 0-42.68-3.74-60.06 6.16-7.04 19.58 0 42.02 17.16 53.9 18.04 12.76 43.119 10.34 58.96-5.06l4.4-5.06-8.8 10.78c-3.96 4.62-7.92 9.46-12.1 14.08-6.38 7.48-14.3 13.42-23.98 16.06-38.06 10.56-71.72-30.36-53.9-65.56 4.62-9.02 12.32-16.72 18.7-24.42 6.16-7.04 11.88-14.3 20.02-18.92 8.36-4.84 17.16-6.38 26.62-6.16h33.44l-20.46 24.2ZM9410.38 256.16c21.12-23.54 60.94-16.72 71.28 13.86 3.3 10.56 1.98 15.62 1.98 30.8v33.44l-20.24 24.2v-35.64c0-11.88.88-23.98-4.84-34.76-10.56-20.02-36.08-27.94-56.1-17.38-3.3 9.9-1.98 20.9-1.98 31.02v32.56l-20.46 24.2V210.18l20.46-24.2v81.84l9.9-11.66ZM9589.021 358.46V329.2c-13.201 15.84-26.621 30.8-49.061 29.26-37.62-2.2-55.439-46.64-33-75.68 11.22-14.52 23.76-33.22 42.02-38.94 9.9-3.3 20.68-2.2 31.02-2.2h29.48v92.62l-20.459 24.2Zm-38.281-92.62c-11 0-21.34.44-31.02 6.16-8.58 23.32 3.52 49.94 26.4 58.96 13.64 5.5 27.72 4.18 40.26-3.08 3.74-10.78 2.64-22.88 2.64-34.1v-27.94h-38.28ZM9631.48 358.46v-92.62l20.46-24.2v92.62l-20.46 24.2Zm2.2-120.56 9.24-27.72 20.46-24.2-9.24 27.72-20.46 24.2ZM9748.96 265.84c-19.36 0-42.68-3.74-60.06 6.16-7.04 19.58 0 42.02 17.16 53.9 18.04 12.76 43.12 10.34 58.96-5.06l4.4-5.06-8.8 10.78c-3.96 4.62-7.92 9.46-12.1 14.08-6.38 7.48-14.3 13.42-23.98 16.06-38.06 10.56-71.72-30.36-53.9-65.56 4.62-9.02 12.32-16.72 18.7-24.42 6.16-7.04 11.88-14.3 20.02-18.92 8.36-4.84 17.16-6.38 26.62-6.16h33.44l-20.46 24.2ZM9082.09 407.74c6.82-8.36 13.64-17.6 23.1-23.1 9.9-5.5 21.56-7.48 32.56-5.06 10.34 2.2 20.02 7.92 26.62 16.28 3.52 4.4 6.16 9.24 7.92 14.52 2.86 8.8 2.42 15.4 2.42 24.86v73.04l-20.46 24.2v-47.96c0-14.96 2.2-31.9-1.32-46.42-7.26-29.48-41.8-44.22-68.2-29.04-5.5 15.18-2.64 33.66-2.64 49.5v49.72l-20.46 24.2V402.9l20.46-24.42v29.26ZM9293.73 431.5c0 6.38.44 13.2-2.42 19.14-2.86 5.94-7.92 11-12.1 16.06-21.12 25.74-24.64 24.2-58.3 24.2l20.46-24.42c9.68 0 22.44.66 31.9-1.98.44-4.4.22-8.8.22-13.2v-11.44h-17.38c-14.74 0-29.48-1.32-42.9 6.38-7.04 19.36.22 41.8 17.16 53.68 18.04 12.76 44.44 10.34 58.96-5.06l4.4-5.06c-4.4 5.72-6.38 8.14-8.36 10.34-3.52 4.4-7.26 8.8-11 12.98-6.82 8.14-14.74 14.52-24.86 17.6-37.84 11-72.16-29.26-54.78-64.9 4.62-9.02 12.1-16.94 18.7-24.64 5.94-7.04 11.88-14.52 20.02-19.36 9.24-5.28 19.14-6.16 29.48-6.16h30.8v15.84ZM9471.05 415.66c0 19.14.66 37.62-4.84 54.78-5.28 15.84-16.28 27.94-26.84 40.48-5.28 5.94-10.34 12.1-16.72 16.72-2.2 1.54-5.06 3.96-7.48 4.62-3.3 1.1-6.82-1.98-9.68-3.96-12.32-8.8-20.46-21.78-24.64-36.3-8.8 11.44-18.26 24.2-29.26 33.22-3.52 3.08-9.46 8.36-13.86 6.82-5.72-1.98-11.66-7.7-15.62-11.88-20.24-21.56-19.58-52.14-19.58-79.64l20.46-24.86c0 20.24-.88 41.14 6.82 60.06 3.74 9.24 9.24 17.6 16.72 24.2 3.3 2.86 7.04 5.94 11.22 7.7 3.96 1.54 6.6-1.1 10.12-3.52 6.38-13.42 8.58-28.6 8.8-43.34-.22-6.82 0-13.64 0-20.24l20.24-24.86c0 19.8-.66 40.7 6.6 59.4 3.52 8.8 8.8 16.94 15.62 23.32 5.06 5.06 12.76 10.12 15.62 10.12 2.2-.22 5.5-3.3 7.26-4.4 9.46-20.02 8.8-42.02 8.8-63.58l20.24-24.86ZM9506.91 444.7c12.98-15.62 26.4-30.36 48.84-29.04 18.92 1.1 35.64 13.86 41.36 31.9 3.52 10.78 3.3 22.66-2.2 34.1-5.06 10.78-14.08 19.58-21.56 28.38-6.16 7.26-12.32 14.08-20.9 18.04-9.24 4.18-18.7 4.4-28.6 4.4h-37.4V384.2l20.46-24.2v84.7Zm0 31.02v32.56h45.98c8.58-.22 15.84-1.98 23.32-6.38 14.52-39.82-29.92-76.78-66.66-55.88-3.3 9.68-2.64 19.8-2.64 29.7ZM9666.19 415.66c9.02 0 17.82-.22 26.4 2.42 15.84 4.62 25.52 17.82 27.94 33.88 1.98 15.62-.44 27.94-16.28 47.08-11 13.42-21.34 27.94-39.16 32.12-36.52 8.8-67.76-29.26-53.02-63.58l20.46-24.2c-17.38 40.26 27.5 80.3 65.56 58.52 6.6-18.7 1.98-44.22-15.84-55.22-9.24-5.72-19.58-6.82-30.14-6.82h-34.54l20.24-24.2h28.38ZM9755.07 457.46c0 13.2-1.54 27.94 5.28 39.82 3.52 6.38 10.78 12.54 22.44 12.54l-20.24 24.2c-19.8 0-27.06-17.38-27.72-34.54-.88-19.8-.22-39.82-.22-59.62l20.46-24.2v41.8Zm0-17.6 20.24-24.2h44.66l-20.46 24.2h-44.44ZM9852.53 430.18c21.12-23.54 60.94-16.72 71.281 13.86 3.299 10.56 1.979 15.62 1.979 30.8v33.44l-20.24 24.2v-35.64c0-11.88.88-23.98-4.84-34.76-10.56-20.02-36.08-27.94-56.1-17.38-3.299 9.9-1.98 20.68-1.98 31.02v32.56l-20.46 24.2v-92.62l20.46-24.2v26.18l9.9-11.66ZM10080 0h1440v720h-1440Z"/><path d="M10519.81 197.9c-39.08 0-83.43-6.82-117.23 17.37-18.92 39.39-6.51 87.77 28.53 113.51 35.36 25.74 85.29 23.88 116.92-7.75l7.75-8.99 4.34-4.96c-11.48 16.44-25.12 32.57-39.08 46.52-13.34 13.03-30.08 22.33-48.69 25.43-72.26 13.03-130.88-64.2-98-130.26 8.06-16.13 21.09-29.77 32.87-43.42 10.55-12.72 21.4-24.19 36.29-31.94 15.82-8.06 32.57-9.61 50.24-9.92h54.9l-28.84 34.41Z" fill="#e6e6e6"/><path d="M10691.01 380.58v-78.47h-101.73l28.53-34.11h73.19v-70.1c-39.39 0-72.26-4.03-98.93 9.3-6.2 21.71-2.79 46.83-2.79 69.16v70.09l-28.84 34.12v-89.94c0-13.96-1.24-28.53 1.24-42.18 2.48-13.34 9.3-23.57 17.68-33.81 16.75-20.47 31.63-41.25 58.62-47.76 13.96-3.41 28.22-3.41 42.18-3.41h39.7v182.98l-28.85 34.13ZM10750.86 380.58V197.9l28.84-34.43v182.98l-28.84 34.13Zm28.84-182.68 28.84-34.43h101.731l-28.841 34.43h-101.73Zm0 91.19 28.84-34.12h62.34l-28.53 34.12h-62.65ZM10913.37 380.58V197.9l28.84-34.43v182.98l-28.84 34.13Zm28.84-182.68 28.84-34.43h101.73l-28.84 34.43h-101.73Zm0 91.19 28.84-34.12h62.34l-28.53 34.12h-62.65ZM11234.979 346.15l-28.529 34.43h-130.57V197.59l28.53-34.12v182.67h130.569Zm-130.569-148.56 28.84-34.12h101.729l-28.529 34.12h-102.04Zm0 91.5 28.84-34.43h62.65l-28.84 34.43h-62.65Zm14.58-191.05 59.86 40.32 13.339 15.82-59.859-40.32-13.34-15.82ZM10385.32 448.17c6.77-8.3 13.54-17.47 22.92-22.92 9.82-5.46 21.4-7.42 32.31-5.02 10.26 2.18 19.87 7.86 26.42 16.16 3.49 4.37 6.11 9.17 7.86 14.41 2.84 8.73 2.4 15.28 2.4 24.67v72.48l-20.3 24.02v-47.59c0-14.85 2.18-31.66-1.31-46.07-7.21-29.26-41.48-43.88-67.68-28.82-5.46 15.06-2.62 33.4-2.62 49.12v49.34l-20.3 24.02v-128.6l20.3-24.23v29.03ZM10591.2 571.96v-55.24h-71.61l20.09-24.02h51.52v-49.34c-27.73 0-50.87-2.84-69.65 6.55-4.37 15.28-1.96 32.97-1.96 48.69v49.34l-20.3 24.02v-63.31c0-9.82-.87-20.09.87-29.69 1.75-9.39 6.55-16.59 12.44-23.8 11.79-14.41 22.27-29.04 41.26-33.62 9.82-2.4 19.87-2.4 29.69-2.4h27.95v128.81l-20.3 24.01Zm-61.79-159.37 9.82-12.01h16.59l-9.82 12.01h-16.59Zm25.33 0 9.82-12.01h16.59l-9.82 12.01h-16.59ZM10735.72 443.37c-27.51 0-58.73-4.8-82.531 12.23-13.319 27.73-4.579 61.78 20.091 79.91 24.89 18.12 60.04 16.81 82.31-5.46l5.46-6.33 3.06-3.49c-8.08 11.57-17.68 22.92-27.51 32.75-9.39 9.17-21.18 15.72-34.28 17.9-50.87 9.17-92.13-45.19-68.99-91.7 5.68-11.35 14.85-20.96 23.14-30.57 7.42-8.95 15.06-17.03 25.54-22.49 11.13-5.68 22.92-6.77 35.37-6.99h38.64l-20.3 24.24Z" fill="#e6e6e6"/><path d="M10764.1 571.96V443.37l20.3-24.23v128.81l-20.3 24.01Zm91.91 0v-64.41h-71.61l20.09-24.02h51.52v-40.17l20.3-24.23v128.81l-20.3 24.02ZM11001.63 419.13l-20.3 24.02h-31c-10.48 0-21.4-.87-31.66 1.96-.87 18.78 14.85 27.73 31.66 28.82 16.16.87 34.93 1.09 45.19 15.94 7.2 10.04 9.39 29.91-1.31 43.88l-10.26 12.44-10.26 11.79c-13.32 14.41-36.24 15.94-54.36 12.23-17.9-3.93-29.91-16.59-29.91-35.37l20.3-24.02c0 16.16 8.73 28.6 24.02 33.62 14.41 4.8 32.75 4.8 46.94-1.09 2.84-14.19-1.75-29.69-14.19-37.77-13.97-8.95-29.69-5.46-45.19-8.73-14.85-3.27-24.45-15.06-22.49-30.57 1.31-8.51 6.99-14.41 12.23-20.74 18.99-23.8 21.4-26.63 50-26.63 13.52.01 27.06.22 40.59.22Z" fill="#e6e6e6"/><path d="m10997.26 443.37 20.3-24.23h101.08l-20.3 24.23h-101.08Zm50.66 128.59V467.6l20.08-24.23v104.58l-20.08 24.01ZM11235.021 547.73l-20.091 24.23h-91.92V443.15l20.09-24.02v128.59h91.921Zm-91.921-104.58 20.3-24.02h71.61l-20.09 24.02h-71.82Zm0 64.41 20.3-24.23h44.1l-20.3 24.23h-44.1Z" fill="#e6e6e6"/><path d="M11520 0h1440v720h-1440Z" fill="#eae3d8"/><path d="M11941.65 240.31c14.31-17.01 28.35-34.02 52.92-31.05 21.87 2.7 39.42 21.06 40.23 43.2v70.2l-24.84 29.7v-41.31c0-13.77 1.89-29.43-2.97-42.39-8.91-24.57-37.8-36.72-61.56-25.65-3.24 12.15-1.62 26.46-1.62 39.15v40.5l-24.84 29.7v-41.31c0-13.77 1.89-29.43-2.7-42.39-9.18-24.57-38.07-36.72-61.83-25.65-3.24 12.42-1.35 26.73-1.35 39.69v39.96l-25.11 29.7V238.69l25.11-29.7v28.62c12.42-14.85 24.84-29.16 45.9-28.62 19.17.27 36.72 12.96 42.66 31.32ZM12163.86 352.36v-35.91c-16.2 19.44-32.67 37.8-60.21 35.91-46.17-2.7-68.04-57.24-40.5-92.88 13.77-17.82 29.16-40.77 51.57-47.79 12.15-4.05 25.38-2.7 38.07-2.7h36.18v113.67l-25.11 29.7Zm-46.98-113.67c-13.5 0-26.19.54-38.07 7.56-10.53 28.62 4.32 61.29 32.4 72.36 16.74 6.75 34.02 5.13 49.41-3.78 4.59-13.23 3.24-28.08 3.24-41.85v-34.29h-46.98ZM12253.23 226.81c25.92-28.89 74.79-20.52 87.48 17.01 4.05 12.96 2.43 19.17 2.43 37.8v41.04l-24.84 29.7v-43.74c0-14.58 1.08-29.43-5.94-42.66-12.96-24.57-44.28-34.29-68.85-21.33-4.05 12.15-2.43 25.38-2.43 38.07v39.96l-25.11 29.7V238.69l25.11-29.7v32.13l12.15-14.31ZM12407.67 226.81c25.92-28.89 74.79-20.52 87.48 17.01 4.05 12.96 2.43 19.17 2.43 37.8v41.04l-24.84 29.7v-43.74c0-14.58 1.08-29.43-5.94-42.66-12.96-24.57-44.28-34.29-68.85-21.33-4.05 12.15-2.43 25.65-2.43 38.07v39.96l-25.11 29.7V170.38l25.11-29.7v100.44l12.15-14.31ZM12626.91 352.36v-35.91c-16.2 19.44-32.67 37.8-60.21 35.91-46.17-2.7-68.04-57.24-40.5-92.88 13.77-17.82 29.16-40.77 51.571-47.79 12.149-4.05 25.379-2.7 38.069-2.7h36.181v113.67l-25.111 29.7Zm-46.98-113.67c-13.5 0-26.19.54-38.07 7.56-10.53 28.62 4.32 61.29 32.4 72.36 16.74 6.75 34.02 5.13 49.41-3.78 4.59-13.23 3.24-28.08 3.24-41.85v-34.29h-46.98Zm-18.36-70.2c7.02-7.56 19.17-6.75 25.11 1.62 2.97 4.05 4.32 8.91 8.1 12.15 3.78 2.97 8.91 4.59 13.5 3.51.27-1.62 1.35-2.16 2.43-3.51l10.26-12.15c0 3.24-1.35 7.56-3.78 10.8l-12.42 14.85c-7.02 7.56-19.17 6.75-25.38-1.89-2.7-3.78-4.05-8.64-8.1-11.88-3.51-2.97-8.64-4.59-13.5-3.51 0 1.35-1.08 2.16-2.16 3.51l-10.26 12.15c0-4.05 1.35-7.56 3.78-10.8l12.42-14.85ZM11966.42 462.5c0 23.49 4.32 50.76-9.18 71.28-6.75 10.53-15.39 19.44-23.22 28.89-7.83 9.18-15.93 17.55-27 22.14-21.6 9.18-46.98 4.05-63.18-12.69l-9.45-9.99 25.92-30.78c15.66 26.73 50.76 36.18 77.76 20.79 3.78-10.8 3.51-21.87 3.51-33.21v-33.48c-8.64 9.99-16.47 21.06-27.81 27.81-10.26 5.94-22.14 8.91-33.75 7.83-21.6-1.89-40.5-15.93-48.33-36.18-8.91-22.95-.81-44.55 14.04-62.64 14.31-17.55 28.08-37.8 51.57-42.93 11.61-2.43 24.03-1.62 36.18-1.62h32.94v84.78Zm-72.9-54.81c-13.23 0-25.65.81-37.26 7.56-10.26 28.62 4.32 61.29 32.4 72.36 17.01 6.75 34.02 4.86 49.41-3.78 5.13-14.04 3.51-29.43 3.51-44.01v-32.13h-48.06ZM12096.021 521.09v-35.91c-16.201 19.44-32.671 37.8-60.211 35.91-46.17-2.7-68.039-57.24-40.5-92.88 13.77-17.82 29.16-40.77 51.57-47.79 12.15-4.05 25.38-2.7 38.07-2.7h36.18v113.67l-25.109 29.7Zm-46.981-113.67c-13.5 0-26.19.54-38.07 7.56-10.53 28.62 4.32 61.29 32.4 72.36 16.74 6.75 34.02 5.13 49.41-3.78 4.59-13.23 3.24-28.08 3.24-41.85v-34.29h-46.98ZM12173.51 429.02c0 16.2-1.89 34.29 6.48 48.87 4.32 7.83 13.23 15.39 27.54 15.39l-24.84 29.7c-24.3 0-33.21-21.33-34.02-42.39-1.08-24.3-.27-48.87-.27-73.17l25.11-29.7v51.3Zm0-21.6 24.84-29.7h54.81l-25.11 29.7h-54.54ZM12359.01 474.92l5.4-6.21-10.8 13.23c-4.86 5.67-9.72 11.61-14.85 17.28-7.83 9.18-17.55 16.47-29.43 19.71l-3.78.81v1.35h1.62c2.43 0 5.13.81 7.29 1.89 8.37 4.32 12.42 12.42 10.8 21.33-1.35 8.1-8.37 14.04-13.23 19.98-11.07 13.5-23.22 15.12-33.75 4.59l-2.7-2.97 12.96-15.12c4.86 8.37 15.12 12.15 24.03 8.64 1.35-6.21-.54-12.69-4.86-17.28-3.24-3.51-8.1-5.94-12.96-6.21h-1.62v-14.85c-39.15-.81-69.12-44.55-49.95-82.62 5.67-11.07 15.12-20.52 22.95-29.97 7.56-8.64 14.58-17.55 24.57-23.22 10.26-5.94 21.06-7.83 32.67-7.56h41.04l-25.11 29.7c-23.76 0-52.38-4.59-73.71 7.56-8.64 24.03 0 51.57 21.06 66.15 22.14 15.66 52.92 12.69 72.36-6.21Z"/><path d="M12430.01 377.72c11.07 0 21.87-.27 32.4 2.97 19.44 5.67 31.319 21.87 34.29 41.58 2.43 19.17-.54 34.29-19.98 57.78-13.5 16.47-26.19 34.29-48.06 39.42-44.82 10.8-83.16-35.91-65.07-78.03l25.11-29.7c-21.33 49.41 33.75 98.55 80.46 71.82 8.1-22.95 2.43-54.27-19.44-67.77-11.34-7.02-24.03-8.37-36.991-8.37h-42.389l24.84-29.7h34.83ZM12550.97 395.54c25.92-28.89 74.79-20.52 87.48 17.01 4.05 12.96 2.43 19.17 2.43 37.8v41.04l-24.84 29.7v-43.74c0-14.58 1.08-29.43-5.94-42.66-12.96-24.57-44.28-34.29-68.85-21.33-4.05 12.15-2.43 25.38-2.43 38.07v39.96l-25.11 29.7V407.42l25.11-29.7v32.13l12.15-14.31ZM12960 0h1440v720h-1440Z"/><path d="m12967.38 17.1-7.38 8.83v4.37h35.7v35.4l11.16-13.2V0h-11.16v17.1ZM13065.3 16.98h-24.24l-11.16 13.32h24.24Z" fill="#e6e6e6"/><path d="m13069.38 65.7 11.04-13.32h-50.52V0h-11.03v65.7ZM13158.78 16.38c.6 8.52.12 17.16.12 25.8V65.7l11.04-13.2c0-16.08.24-32.04 0-48 0-1.54.21-3.03.51-4.5h-20.36c4.84 3.82 8.24 9.56 8.69 16.38ZM13204.26 16.38c.6 8.52.12 17.16.12 25.8V65.7l11.04-13.2V26.1c0-12.96.96-15.72-.12-24.72-.06-.47-.15-.92-.24-1.38h-19.5c4.85 3.82 8.24 9.56 8.7 16.38ZM13124.58 52.5V10.62c0-3.5-.22-7.08.46-10.62h-11.62v65.7l11.16-13.2ZM13228.38 14.58c-.96 5.28-.48 10.92-.48 16.32v34.8l11.16-13.2V25.38c0-8.17-1.18-17.3.73-25.38h-3.35c-.4.5-.81 1-1.22 1.5-3.24 3.96-5.88 7.92-6.84 13.08Z" fill="#e6e6e6"/><path d="m13250.1 22.14-11.04 13.2h39.36V65.7l11.16-13.2V0h-11.16v22.14ZM13351.38 14.22c1.92 7.92.72 17.16.72 25.32V65.7l11.16-13.2V12.66c0-4.83.19-8.3-1.06-12.66h-20.48c4.62 3.33 8.18 8.21 9.66 14.22ZM13312.74 52.5V25.38c0-8.08-1.36-17.43.92-25.38h-12.08v65.7l11.16-13.2ZM13377.42 54.66c5.28 7.68 14.4 11.88 23.64 10.92 10.32-1.2 16.32-8.4 22.56-15.84V65.7l11.04-13.2V0h-11.04v22.14c0 8.52 1.44 18.72-1.56 26.88-14.039 8.04-32.4.72-36.84-14.88-2.4-8.16-1.08-17.76-1.08-26.28V0h-11.04v25.74c0 9.72-1.44 20.4 4.32 28.92ZM13459.38 24.42c8.52 1.8 17.16-.12 24.84 4.8 6.84 4.44 9.36 12.96 7.801 20.76-7.801 3.24-17.881 3.24-25.801.6-8.4-2.76-13.199-9.6-13.199-18.48l-11.161 13.2c0 10.32 6.6 17.28 16.44 19.44 9.96 2.04 22.56 1.2 29.88-6.72l5.64-6.48 5.64-6.84c5.88-7.68 4.68-18.6.72-24.12-5.64-8.16-15.96-8.28-24.84-8.76-7.94-.52-15.42-4.24-17.07-11.82h-7.64c-1.72 2.25-3.15 4.64-3.61 7.62-1.08 8.52 4.2 15 12.36 16.8ZM13549.86 65.1c7.2-1.2 13.68-4.8 18.84-9.84 5.4-5.4 10.68-11.64 15.12-18l-1.68 1.92-3 3.48c-12.24 12.24-31.56 12.96-45.24 3-13.56-9.96-18.36-28.68-11.04-43.92.89-.63 1.79-1.21 2.72-1.74h-2.75c-4.03 4.59-8.18 9.28-10.89 14.7-12.72 25.56 9.96 55.44 37.92 50.4ZM13633.86 19.86c-7.8 3.24-19.56 2.28-27.84 2.28l-11.04 13.2h24.24l15.12 30.36 11.16-13.2-13.44-26.76 5.04-6 4.32-5.28c3.19-4.22 4.46-9.46 3.95-14.46h-18.1c5.9 4.62 8.15 12.24 6.59 19.86Z" fill="#e6e6e6"/><path d="M13594.979 52.5V0h-11.159v65.7ZM13666.26 52.5V0h-11.16v65.7ZM13728.3 19.86c-7.8 3.12-19.56 2.28-27.72 2.28l-11.16 13.2c8.52 0 20.88 1.08 28.8-2.76 3.84-1.8 6.36-4.68 9-7.8 1.44-1.56 2.76-3.24 4.2-4.92l4.44-5.4c3.28-4.35 4.37-9.71 4-14.46h-18.15c5.9 4.62 8.15 12.24 6.59 19.86ZM13689.42 52.5V0h-11.16v65.7ZM13768.98 65.7l11.04-13.2V0h-4.13l-6.91 8.34ZM13852.021 52.5V0h-11.161v65.7ZM13876.74 24.42c8.52 1.8 17.16-.12 24.84 4.8 6.84 4.44 9.36 12.96 7.8 20.76-7.8 3.24-17.88 3.24-25.8.6-8.4-2.76-13.2-9.6-13.2-18.48l-11.16 13.2c0 10.32 6.6 17.28 16.44 19.44 9.96 2.04 22.56 1.2 29.88-6.72l5.64-6.48 5.64-6.84c5.88-7.68 4.68-18.6.72-24.12-5.64-8.16-15.96-8.28-24.84-8.76-7.94-.52-15.429-4.24-17.07-11.82h-7.64c-1.719 2.25-3.15 4.64-3.61 7.62-1.08 8.52 4.2 15 12.36 16.8ZM13981.74 65.7l11.031-13.2V0h-4.121l-6.91 8.34ZM14034.18 52.5V0h-11.159v65.7Z" fill="#e6e6e6"/><path d="M14073.05 19.86c-7.8 3.24-19.56 2.28-27.84 2.28l-11.04 13.2h24.24l15.12 30.36 11.16-13.2-13.44-26.76 5.04-6 4.32-5.28c3.19-4.22 4.46-9.46 3.95-14.46h-18.1c5.91 4.62 8.16 12.24 6.59 19.86ZM14093.7 14.58c-.96 5.28-.48 10.92-.48 16.32v34.8l11.16-13.2V25.38c0-8.17-1.18-17.3.73-25.38h-3.35c-.4.5-.81 1-1.22 1.5-3.24 3.96-5.88 7.92-6.84 13.08Z" fill="#e6e6e6"/><path d="m14115.42 22.14-11.04 13.2h39.35V65.7l11.16-13.2V0h-11.16v22.14ZM14216.689 14.22c1.921 7.92.721 17.16.721 25.32V65.7l11.16-13.2V12.66c0-4.83.19-8.3-1.06-12.66h-20.48c4.63 3.33 8.18 8.21 9.659 14.22ZM14178.05 52.5V25.38c0-8.08-1.36-17.43.92-25.38h-12.08v65.7l11.16-13.2ZM14253.29 24.42c8.521 1.8 17.16-.12 24.84 4.8 6.84 4.44 9.36 12.96 7.8 20.76-7.8 3.24-17.88 3.24-25.8.6-8.4-2.76-13.2-9.6-13.2-18.48l-11.16 13.2c0 10.32 6.6 17.28 16.44 19.44 9.96 2.04 22.56 1.2 29.88-6.72l5.64-6.48 5.64-6.84c5.88-7.68 4.68-18.6.72-24.12-5.64-8.16-15.96-8.28-24.84-8.76-7.939-.52-15.42-4.23-17.07-11.82h-7.64c-1.72 2.25-3.15 4.64-3.61 7.62-1.07 8.52 4.2 15 12.36 16.8ZM14343.771 65.1c7.199-1.2 13.679-4.8 18.839-9.84 5.4-5.4 10.68-11.64 15.12-18l-1.68 1.92-3 3.48c-12.239 12.24-31.56 12.96-45.239 3-13.561-9.96-18.361-28.68-11.04-43.92.889-.63 1.79-1.21 2.719-1.74h-2.75c-4.03 4.59-8.179 9.28-10.89 14.7-12.71 25.56 9.97 55.44 37.921 50.4ZM14388.89 35.34h11.11v-13.2h-.07l-11.04 13.2ZM14388.89 52.5V0h-11.15v65.7ZM12996.66 177.7l11.16-13.2V93.7l-11.16 13.32v22.08h-28.32l-8.34 9.97v3.23h36.66ZM13081.38 164.38h-50.52V93.7l-11.03 13.2v70.8h50.51Z" fill="#e6e6e6"/><path d="M13081.38 93.7h-39.36l-11.16 13.2h39.48ZM13066.26 128.98h-24.24l-11.16 13.32h24.24ZM13150.14 93.7h-39.36l-11.16 13.2h39.48ZM13135.02 128.98h-24.24l-11.16 13.32h24.24Z" fill="#e6e6e6"/><path d="M13150.14 164.38h-50.52V93.7l-11.04 13.2v70.8h50.52ZM13205.7 107.02l11.16-13.32h-55.56l-11.16 13.32h38.88ZM13177.98 177.7l11.04-13.2v-57.48l-11.04 13.32ZM13224.78 136.42c8.52 1.8 17.16-.12 24.84 4.8 6.84 4.44 9.36 12.96 7.8 20.76-7.8 3.24-17.88 3.24-25.8.6-8.4-2.76-13.2-9.6-13.2-18.48l-11.16 13.2c0 10.32 6.6 17.28 16.44 19.44 9.96 2.04 22.56 1.2 29.88-6.72l5.64-6.48 5.64-6.84c5.88-7.68 4.68-18.6.72-24.12-5.64-8.16-15.96-8.28-24.84-8.76-9.24-.6-17.88-5.52-17.4-15.84 5.64-1.56 11.64-1.08 17.4-1.08h17.04l11.16-13.2c-7.44 0-14.88-.12-22.32-.12-15.72 0-17.04 1.56-27.48 14.64-2.88 3.48-6 6.72-6.72 11.4-1.08 8.52 4.2 15 12.36 16.8ZM13343.58 177.1c12.6-2.28 20.16-10.92 27.84-20.28 4.2-4.92 8.16-9.72 10.32-15.84 2.4-6.72 2.88-12.48.96-20.4-2.76-11.04-10.8-20.28-21.48-24.36-5.76-2.28-11.76-2.52-18-2.52h-20.04l-11.16 13.32c16.2 0 34.8-3 48.12 8.4 12.12 10.32 15.96 27.96 9 42.36-14.04 10.08-33.84 8.4-45.96-3.96-11.76-11.88-13.32-31.08-3.84-44.88-3.24 4.68-7.68 8.52-11.04 13.2-3.24 4.44-5.28 9.84-6 15.36-1.56 11.16 2.4 22.56 10.44 30.36 8.16 7.8 19.8 11.28 30.84 9.24ZM13438.74 129.1h-24.12l-11.16 13.2h24.24ZM13453.98 93.7h-39.36l-11.16 13.32h39.36ZM13403.46 142.3V93.7l-11.16 13.32v70.68l11.16-13.2ZM13498.14 147.34v-40.32c9.48 0 20.64-1.44 29.4 3.12 8.04 4.2 11.28 12.96 9.481 21.72-7.801 3.12-19.561 2.28-27.721 2.28l-11.16 13.2c8.52 0 20.881 1.08 28.8-2.76 3.84-1.8 6.36-4.68 9-7.8 1.44-1.56 2.76-3.24 4.2-4.92l4.44-5.4c5.16-6.84 4.92-16.2 2.04-21.72-3.84-7.92-12.84-10.44-21-10.92-9.12-.48-18.36-.12-27.48-.12l-11.16 13.32v70.68l11.16-13.2v-17.16ZM13553.58 177.7l11.16-13.2v-27.12c0-8.64-1.32-18.36 1.08-26.76 10.32-5.16 23.04-3.6 38.28-3.6v27.12h-28.32l-11.04 13.2h39.36v30.36l11.16-13.2V93.7h-15.36c-5.4 0-10.92 0-16.32 1.32-10.44 2.52-16.2 10.56-22.68 18.48-3.24 3.96-5.879 7.92-6.84 13.08-.96 5.28-.48 10.92-.48 16.32v34.8ZM13638.42 147.34v-40.32c9.48 0 20.64-1.44 29.4 3.12 8.04 4.2 11.28 12.96 9.48 21.72-7.8 3.12-19.56 2.28-27.72 2.28l-11.16 13.2c8.52 0 20.88 1.08 28.8-2.76 3.84-1.8 6.36-4.68 9-7.8 1.44-1.56 2.76-3.24 4.2-4.92l4.44-5.4c5.16-6.84 4.92-16.2 2.04-21.72-3.84-7.92-12.84-10.44-21-10.92-9.12-.48-18.36-.12-27.48-.12l-11.16 13.32v70.68l11.16-13.2v-17.16ZM13758.9 93.7h-39.36l-11.16 13.2h39.48Z" fill="#e6e6e6"/><path d="M13758.9 164.38h-50.52V93.7l-11.04 13.2v70.8h50.52Z" fill="#e6e6e6"/><path d="M13743.78 128.98h-24.24l-11.16 13.32h24.24ZM13777.26 147.34v-40.32c9.48 0 20.64-1.44 29.4 3.12 8.04 4.2 11.28 12.96 9.48 21.72-7.8 3.24-19.56 2.28-27.84 2.28l-11.04 13.2h24.24l15.12 30.36 11.16-13.2-13.44-26.76 5.04-6 4.32-5.28c7.44-9.84 4.44-25.2-7.2-30.24-5.88-2.52-12.48-2.52-18.84-2.52h-20.4l-11.16 13.32v70.68l11.16-13.2v-17.16ZM13912.13 170.26l6.36-7.56c1.56-1.8 3.48-4.44 4.8-5.88 4.2-5.28 4.8-12 3.72-17.28-3.12-15.36-19.92-15.48-32.4-15.48l-11.16 13.2c8.52 0 17.76-.6 25.08 4.32 6.72 4.56 8.88 12.84 7.32 20.52-8.76 3.6-19.079 2.4-28.32 2.4h-15.6V93.7l-11.159 13.32v70.68h24.239c9.48 0 20.16.24 27.12-7.44Z" fill="#e6e6e6"/><path d="M13904.81 112.06c2.76 2.64 3.961 6.36 3.961 10.08l11.039-13.2c0-18.36-23.52-15.24-35.76-15.24l-11.04 13.32c13.2 0 24.48-2.28 31.8 5.04ZM13957.49 152.38v25.32l11.16-13.2v-19.56c3.36-3.12 6.36-6.96 9.36-10.44 3.24-3.96 6.6-7.92 9.24-12.36 4.92-8.52 6.6-18.6 6.72-28.44l-11.16 13.32c0 9.36-1.56 18.96-6 27.24-2.039 1.56-4.8 3.96-7.2 4.56-2.28.48-4.8-1.56-6.72-2.88-4.2-2.76-7.8-6.24-10.68-10.32-6.48-9.36-8.76-20.76-8.76-31.92l-11.16 13.32c0 9.48 1.68 19.32 6.36 27.72 4.2 7.92 15.6 17.88 18.84 17.64ZM14027.09 177.7l11.16-13.2v-27.12c0-8.64-1.32-18.36 1.08-26.76 10.32-5.16 23.04-3.6 38.28-3.6v27.12h-28.32l-11.04 13.2h39.36v30.36l11.161-13.2V93.7h-15.361c-5.4 0-10.92 0-16.32 1.32-10.44 2.52-16.2 10.56-22.68 18.48-3.24 3.96-5.88 7.92-6.84 13.08-.96 5.28-.48 10.92-.48 16.32v34.8ZM14132.93 147.34v-40.32c9.48 0 20.64-1.44 29.4 3.12 8.04 4.2 11.28 12.96 9.481 21.72-7.801 3.12-19.561 2.28-27.721 2.28l-11.16 13.2c8.52 0 20.881 1.08 28.8-2.76 3.84-1.8 6.36-4.68 9-7.8 1.44-1.56 2.76-3.24 4.2-4.92l4.44-5.4c5.16-6.84 4.92-16.2 2.04-21.72-3.84-7.92-12.84-10.44-21-10.92-9.12-.48-18.36-.12-27.48-.12l-11.16 13.32v70.68l11.16-13.2v-17.16ZM14203.01 147.34v-40.32c9.48 0 20.64-1.44 29.4 3.12 8.04 4.2 11.28 12.96 9.48 21.72-7.8 3.24-19.56 2.28-27.84 2.28l-11.04 13.2h24.24l15.12 30.36 11.16-13.2-13.44-26.76 5.04-6 4.32-5.28c7.44-9.84 4.44-25.2-7.2-30.24-5.88-2.52-12.48-2.52-18.84-2.52h-20.4l-11.16 13.32v70.68l11.16-13.2v-17.16ZM14299.97 177.1c12.6-2.28 20.16-10.92 27.84-20.28 4.2-4.92 8.16-9.72 10.32-15.84 2.4-6.72 2.88-12.48.96-20.4-2.76-11.04-10.8-20.28-21.48-24.36-5.76-2.28-11.76-2.52-18-2.52h-20.04l-11.16 13.32c16.2 0 34.8-3 48.12 8.4 12.12 10.32 15.96 27.96 9 42.36-14.04 10.08-33.84 8.4-45.96-3.96-11.76-11.88-13.32-31.08-3.84-44.88-3.24 4.68-7.68 8.52-11.04 13.2-3.24 4.44-5.28 9.84-6 15.36-1.56 11.16 2.4 22.56 10.44 30.36 8.16 7.8 19.8 11.28 30.84 9.24ZM14395.12 129.1h-24.11l-11.16 13.2h24.24ZM14359.85 107.02h39.36l.79-.95V93.7h-28.99ZM14348.69 107.02v70.68l11.16-13.2V93.7ZM12993.18 289.7l11.16-13.2v-70.8h-15.36c-5.4 0-10.92 0-16.32 1.32-5.14 1.24-9.15 3.83-12.66 7.07v6.56c9.33-2.72 20.36-1.64 33.18-1.64v27.12h-28.32l-4.86 5.82v7.38h33.18v30.37ZM13027.5 259.34v-40.32c9.48 0 20.64-1.44 29.4 3.12 8.04 4.2 11.28 12.96 9.48 21.72-7.8 3.12-19.56 2.28-27.72 2.28l-11.16 13.2c8.52 0 20.88 1.08 28.8-2.76 3.84-1.8 6.36-4.68 9-7.8 1.44-1.56 2.76-3.24 4.2-4.92l4.44-5.4c5.16-6.84 4.92-16.2 2.04-21.72-3.84-7.92-12.84-10.44-21-10.92-9.12-.48-18.36-.12-27.48-.12l-11.16 13.32v70.68l11.16-13.2v-17.16ZM13132.86 240.98h-24.24l-11.16 13.32h24.24ZM13147.98 205.7h-39.36l-11.16 13.2h39.48Z" fill="#e6e6e6"/><path d="M13147.98 276.38h-50.52V205.7l-11.04 13.2v70.8h50.52ZM13212.78 238.46c7.44-9.84 4.44-25.2-7.2-30.24-5.88-2.52-12.48-2.52-18.84-2.52h-20.4l-11.16 13.32v70.68l11.16-13.2V219.02c9.48 0 20.64-1.44 29.4 3.12 8.04 4.2 11.28 12.96 9.48 21.72-7.8 3.24-19.56 2.28-27.84 2.28l-11.04 13.2h24.24l15.12 30.36 11.16-13.2-13.44-26.76 5.04-6 4.32-5.28ZM13261.02 205.7l-11.16 13.2v70.8l11.16-13.2ZM13285.74 248.42c8.52 1.8 17.16-.12 24.84 4.8 6.84 4.44 9.36 12.96 7.8 20.76-7.8 3.24-17.88 3.24-25.8.6-8.4-2.76-13.2-9.6-13.2-18.48l-11.16 13.2c0 10.32 6.6 17.28 16.44 19.44 9.96 2.04 22.56 1.2 29.88-6.72l5.64-6.48 5.64-6.84c5.88-7.68 4.68-18.6.72-24.12-5.64-8.16-15.96-8.28-24.84-8.76-9.24-.6-17.88-5.52-17.4-15.84 5.64-1.56 11.64-1.08 17.4-1.08h17.04l11.16-13.2c-7.44 0-14.88-.12-22.32-.12-15.72 0-17.04 1.56-27.48 14.64-2.88 3.48-6 6.72-6.72 11.4-1.08 8.52 4.2 15 12.36 16.8ZM13362.9 219.02v70.68l11.16-13.2V219.02c9.48 0 20.64-1.44 29.4 3.12 8.04 4.2 11.28 12.96 9.48 21.72-7.8 3.12-19.56 2.28-27.72 2.28l-11.16 13.2c8.52 0 20.88 1.08 28.8-2.76 3.84-1.8 6.36-4.68 9-7.8 1.44-1.56 2.76-3.24 4.2-4.92l4.44-5.4c5.16-6.84 4.92-16.2 2.04-21.72-3.84-7.92-12.84-10.44-21-10.92-9.12-.48-18.36-.12-27.48-.12l-11.16 13.32ZM13444.14 205.7l-11.16 13.32v70.68h18.96c5.76 0 11.64.48 17.28-.72 6-1.2 10.2-4.32 14.16-8.76 3.84-4.44 8.16-8.88 11.28-13.92-1.68 1.92-2.88 3.36-4.08 4.68-6.6 6.6-17.28 5.52-26.28 5.52h-20.16v-70.8ZM13527.18 207.02c-10.44 2.52-16.2 10.56-22.68 18.48-3.24 3.96-5.88 7.92-6.84 13.08-.96 5.28-.48 10.92-.48 16.32v34.8l11.16-13.2v-27.12c0-8.64-1.319-18.36 1.08-26.76 10.32-5.16 23.04-3.6 38.28-3.6v27.12h-28.32l-11.04 13.2h39.36v30.36l11.16-13.2v-70.8h-15.36c-5.4 0-10.92 0-16.32 1.32ZM13583.58 221.9c-4.559 5.28-9.6 10.56-12.72 16.8-12.72 25.56 9.96 55.44 37.92 50.4 7.2-1.2 13.68-4.8 18.84-9.84 5.401-5.4 10.68-11.64 15.12-18l-1.68 1.92-3 3.48c-12.24 12.24-31.56 12.96-45.24 3-13.56-9.96-18.36-28.68-11.04-43.92 13.08-9.36 30.241-6.72 45.36-6.72l11.16-13.32h-21.24c-6.84.12-13.32.72-19.44 3.84-5.76 3-9.96 7.44-14.04 12.36ZM13689.18 240.98h-24.24l-11.16 13.32h24.241ZM13653.78 218.9h39.48l11.04-13.2h-39.36Z" fill="#e6e6e6"/><path d="M13642.74 218.9v70.8h50.52l11.04-13.32h-50.52V205.7ZM13722.54 219.02c6.84 0 14.16-.36 20.76 1.92 6 2.04 11.52 5.88 15.6 10.8 8.76 10.56 10.56 25.68 4.68 38.04-8.16 5.88-17.16 6.72-26.88 6.72h-14.16v-70.8l-11.04 13.32v70.68h12.84c5.64 0 11.28.24 16.8-1.32 10.92-3 17.64-11.16 24.6-19.44 10.56-12.84 13.56-22.2 12.12-32.4-1.2-9.12-6.12-17.64-13.32-23.4-9.12-7.08-19.8-7.44-30.84-7.44l-11.16 13.32ZM13811.22 219.02v70.68l11.16-13.2V205.7ZM13857.65 241.1h-24.11l-11.16 13.2h24.24ZM13861.73 219.02l11.16-13.32h-39.35l-11.16 13.32ZM13895.82 207.02c-10.44 2.52-16.2 10.56-22.68 18.48-3.24 3.96-5.88 7.92-6.84 13.08-.96 5.28-.48 10.92-.48 16.32v34.8l11.16-13.2v-27.12c0-8.64-1.32-18.36 1.08-26.76 10.32-5.16 23.04-3.6 38.28-3.6v27.12h-28.319l-11.041 13.2h39.36v30.36l11.16-13.2v-70.8h-15.36c-5.4 0-10.92 0-16.32 1.32ZM13995.771 219.02l11.159-13.32h-21.24c-6.84.12-13.32.72-19.44 3.84-5.76 3-9.96 7.44-14.04 12.36-4.56 5.28-9.6 10.56-12.72 16.8-12.719 25.56 9.96 55.44 37.92 50.4 7.2-1.2 13.68-4.8 18.84-9.84 5.4-5.4 10.68-11.64 15.12-18l-1.68 1.92-3 3.48c-12.24 12.24-31.56 12.96-45.24 3-13.56-9.96-18.36-28.68-11.04-43.92 13.09-9.36 30.24-6.72 45.361-6.72ZM14057.811 240.98h-24.231l-11.16 13.32h24.24ZM14072.93 205.7h-39.35l-11.16 13.2h39.47Z" fill="#e6e6e6"/><path d="M14072.93 276.38h-50.51V205.7l-11.04 13.2v70.8h50.51ZM14135.57 288.38c10.92-3 17.64-11.16 24.6-19.44 10.56-12.84 13.56-22.2 12.12-32.4-1.2-9.12-6.12-17.64-13.32-23.4-9.12-7.08-19.8-7.44-30.84-7.44l-11.16 13.32c6.84 0 14.16-.36 20.76 1.92 6 2.04 11.52 5.88 15.6 10.8 8.76 10.56 10.56 25.68 4.68 38.04-8.16 5.88-17.16 6.72-26.88 6.72h-14.16v-70.8l-11.04 13.32v70.68h12.84c5.64 0 11.28.24 16.8-1.32ZM14183.811 234.14c-3.241 4.44-5.281 9.84-6 15.36-1.561 11.16 2.399 22.56 10.439 30.36 8.16 7.8 19.8 11.28 30.84 9.24 12.6-2.28 20.16-10.92 27.84-20.28 4.2-4.92 8.16-9.72 10.32-15.84 2.4-6.72 2.88-12.48.96-20.4-2.76-11.04-10.8-20.28-21.48-24.36-5.76-2.28-11.76-2.52-18-2.52h-20.04l-11.16 13.32c16.2 0 34.8-3 48.12 8.4 12.121 10.32 15.96 27.96 9 42.36-14.04 10.08-33.839 8.4-45.96-3.96-11.76-11.88-13.32-31.08-3.839-44.88-3.241 4.68-7.681 8.52-11.04 13.2ZM14325.65 251.06c-4.08-14.76-1.08-30-2.4-45.36l-11.04 13.32c0 17.64 2.519 37.68-5.52 54-1.44.96-3.36 2.52-5.04 3-1.44.36-1.44.36-3-.36-2.88-1.68-5.64-3.6-8.04-5.88-5.04-4.92-8.4-11.28-10.32-18.12-4.08-14.64-2.4-30.84-2.4-45.96l-11.161 13.32c0 10.32-.359 20.76.241 31.08.48 9.72 2.52 19.92 8.28 27.96 2.4 3.36 5.52 6.12 8.88 8.64 5.4 3.96 4.56 3.84 9.96.6 4.08-2.76 7.32-6.24 10.56-9.96 3.36-4.08 6.96-8.04 10.079-12.36 2.761 9.96 8.641 18.6 17.881 23.64 2.28 1.2 2.64 1.08 4.92-.12 2.16-1.2 4.32-2.76 6.24-4.44 4.44-3.84 8.04-8.76 11.76-13.2 7.44-9 11.52-18.24 12.72-29.88 1.2-11.64.479-23.64.479-35.28l-11.039 13.32c0 17.64 2.52 37.68-5.52 54-1.441.96-3.36 2.52-5.04 3-1.44.36-1.44.36-3-.36-3.12-1.68-6-3.72-8.401-6.24-5.04-5.04-8.279-11.52-10.079-18.36ZM14389.73 221.66V205.7l-11.16 13.32v70.68l11.16-13.2v-27.12c0-8.64-1.56-18.72 1.44-27 2.82-1.62 5.81-2.61 8.83-3.04v-8.7c-3.99 3.01-7.14 7.18-10.27 11.02ZM12990.78 401.7l11.16-13.2v-70.8h-15.36c-5.4 0-10.92 0-16.32 1.32-4.01.97-7.33 2.76-10.27 5.04v7.99c8.8-1.93 19.04-1.02 30.78-1.02v27.12h-28.3l-2.47 2.93v10.25h30.78v30.37ZM13035.54 376.38v25.32l11.16-13.2v-19.56c3.36-3.12 6.36-6.96 9.36-10.44 3.24-3.96 6.6-7.92 9.24-12.36 4.92-8.52 6.6-18.6 6.72-28.44l-11.16 13.32c0 9.36-1.56 18.96-6 27.24-2.04 1.56-4.8 3.96-7.2 4.56-2.28.48-4.8-1.56-6.72-2.88-4.2-2.76-7.8-6.24-10.68-10.32-6.48-9.36-8.76-20.76-8.76-31.92l-11.16 13.32c0 9.48 1.68 19.32 6.36 27.72 4.21 7.92 15.6 17.88 18.84 17.64ZM13079.23 330.9v70.8h50.51l11.04-13.32h-50.51V317.7Z" fill="#e6e6e6"/><path d="M13125.66 352.98h-24.24l-11.15 13.32h24.23ZM13140.78 317.7h-39.36l-11.15 13.2h39.47ZM13147.99 401.7l11.16-13.2V331.02c9.48 0 20.64-1.44 29.4 3.12 8.04 4.2 11.28 12.96 9.48 21.72-7.8 3.24-19.56 2.28-27.84 2.28l-11.04 13.2h24.24l15.12 30.36 11.16-13.2-13.44-26.76 5.04-6 4.32-5.28c7.44-9.84 4.44-25.2-7.2-30.24-5.88-2.52-12.48-2.52-18.84-2.52h-20.4l-11.16 13.32v70.68ZM13323.42 344.58c-2.76-11.04-10.8-20.28-21.48-24.36-5.76-2.28-11.76-2.52-18-2.52h-20.04l-11.16 13.32c16.2 0 34.8-3 48.12 8.4 12.12 10.32 15.96 27.96 9 42.36-14.04 10.08-33.84 8.4-45.96-3.96-11.76-11.88-13.32-31.08-3.84-44.88-3.24 4.68-7.68 8.52-11.04 13.2-3.24 4.44-5.28 9.84-6 15.36-1.56 11.16 2.4 22.56 10.44 30.36 8.16 7.8 19.8 11.28 30.84 9.24 12.6-2.28 20.16-10.92 27.84-20.28 4.2-4.92 8.16-9.72 10.32-15.84 2.4-6.72 2.88-12.48.96-20.4ZM13333.02 331.02v70.68l11.16-13.2V317.7Z" fill="#e6e6e6"/><path d="M13379.46 353.1h-24.12l-11.16 13.2h24.24ZM13394.7 317.7h-39.36l-11.16 13.32h39.36ZM13485.3 350.46c7.44-9.84 4.44-25.2-7.2-30.24-5.88-2.52-12.48-2.52-18.84-2.52h-20.4l-11.16 13.32v70.68l11.16-13.2V331.02c9.48 0 20.64-1.44 29.4 3.12 8.04 4.2 11.28 12.96 9.48 21.72-7.8 3.24-19.56 2.28-27.84 2.28l-11.04 13.2h24.24l15.12 30.36 11.16-13.2-13.44-26.76 5.04-6 4.32-5.28ZM13498.98 330.9v70.8l11.16-13.2v-70.8ZM13578.42 331.02l11.16-13.32h-21.24c-6.84.12-13.32.72-19.44 3.84-5.76 3-9.96 7.44-14.04 12.36-4.56 5.28-9.6 10.56-12.72 16.8-12.72 25.56 9.96 55.44 37.92 50.4 7.2-1.2 13.68-4.8 18.84-9.84 5.4-5.4 10.68-11.64 15.12-18l-1.68 1.92-3 3.48c-12.24 12.24-31.56 12.96-45.24 3-13.56-9.96-18.36-28.68-11.04-43.92 13.08-9.36 30.24-6.72 45.36-6.72ZM13655.58 317.7h-39.36l-11.16 13.2h39.48ZM13640.46 352.98h-24.24l-11.16 13.32h24.24Z" fill="#e6e6e6"/><path d="M13594.02 330.9v70.8h50.52l11.04-13.32h-50.52V317.7ZM13699.74 371.34v-40.32c9.48 0 20.64-1.44 29.4 3.12 8.04 4.2 11.28 12.96 9.48 21.72-7.8 3.12-19.56 2.28-27.72 2.28l-11.16 13.2c8.52 0 20.88 1.08 28.8-2.76 3.84-1.8 6.36-4.68 9-7.8 1.44-1.56 2.76-3.24 4.2-4.92l4.44-5.4c5.16-6.84 4.92-16.2 2.04-21.72-3.84-7.92-12.84-10.44-21-10.92-9.12-.48-18.36-.12-27.48-.12l-11.16 13.32v70.68l11.16-13.2v-17.16ZM13816.86 388.5v-70.8h-15.36c-5.4 0-10.92 0-16.32 1.32-10.44 2.52-16.2 10.56-22.68 18.48-3.24 3.96-5.88 7.92-6.84 13.08-.96 5.28-.48 10.92-.48 16.32v34.8l11.16-13.2v-27.12c0-8.64-1.319-18.36 1.08-26.76 10.32-5.16 23.04-3.6 38.28-3.6v27.12h-28.32l-11.04 13.2h39.36v30.36l11.16-13.2ZM13848.42 386.58c-8.4-2.76-13.2-9.6-13.2-18.48l-11.16 13.2c0 10.32 6.6 17.28 16.44 19.44 9.96 2.04 22.56 1.2 29.88-6.72l5.64-6.48 5.64-6.84c5.88-7.68 4.68-18.6.72-24.12-5.64-8.16-15.96-8.28-24.84-8.76-9.24-.6-17.88-5.52-17.4-15.84 5.64-1.56 11.64-1.08 17.4-1.08h17.04l11.16-13.2c-7.44 0-14.88-.12-22.32-.12-15.72 0-17.04 1.56-27.48 14.64-2.88 3.48-6 6.72-6.72 11.4-1.08 8.52 4.2 15 12.36 16.8 8.52 1.8 17.16-.12 24.84 4.8 6.84 4.44 9.36 12.96 7.8 20.76-7.8 3.24-17.88 3.24-25.8.6Z" fill="#e6e6e6"/><path d="M13883.34 331.02h55.56l11.16-13.32h-55.56ZM13911.18 401.7l11.04-13.2v-57.48l-11.04 13.32ZM13963.5 388.38V317.7l-11.04 13.2v70.8h50.52l11.041-13.32Z" fill="#e6e6e6"/><path d="M14014.021 317.7h-39.361l-11.16 13.2h39.48ZM13998.9 352.98h-24.24l-11.16 13.32h24.24ZM14058.17 366.3h39.36v35.4l11.159-13.2v-70.8l-11.159 13.32v22.08h-28.32ZM14047.02 331.02v70.68l11.15-13.2v-70.8ZM14182.49 388.5v-70.8h-15.36c-5.401 0-10.92 0-16.32 1.32-10.44 2.52-16.2 10.56-22.68 18.48-3.24 3.96-5.88 7.92-6.84 13.08-.96 5.28-.48 10.92-.48 16.32v34.8l11.16-13.2v-27.12c0-8.64-1.32-18.36 1.08-26.76 10.32-5.16 23.04-3.6 38.28-3.6v27.12h-28.32l-11.04 13.2h39.36v30.36l11.16-13.2ZM14214.05 386.58c-8.4-2.76-13.199-9.6-13.199-18.48l-11.161 13.2c0 10.32 6.6 17.28 16.44 19.44 9.96 2.04 22.56 1.2 29.88-6.72l5.64-6.48 5.64-6.84c5.88-7.68 4.68-18.6.72-24.12-5.64-8.16-15.96-8.28-24.84-8.76-9.24-.6-17.88-5.52-17.399-15.84 5.639-1.56 11.639-1.08 17.399-1.08h17.04l11.16-13.2c-7.44 0-14.88-.12-22.32-.12-15.72 0-17.04 1.56-27.48 14.64-2.88 3.48-6 6.72-6.719 11.4-1.08 8.52 4.199 15 12.359 16.8 8.52 1.8 17.16-.12 24.84 4.8 6.84 4.44 9.36 12.96 7.801 20.76-7.801 3.24-17.881 3.24-25.801.6ZM14284.37 331.02v70.68h24.24c9.48 0 20.16.24 27.119-7.44l6.361-7.56c1.56-1.8 3.48-4.44 4.8-5.88 4.2-5.28 4.799-12 3.72-17.28-3.12-15.36-19.921-15.48-32.4-15.48l-11.16 13.2c8.52 0 17.76-.6 25.08 4.32 6.72 4.56 8.88 12.84 7.32 20.52-8.761 3.6-19.08 2.4-28.32 2.4h-15.6v-70.8l-11.16 13.32Z" fill="#e6e6e6"/><path d="M14328.41 336.06c2.76 2.64 3.96 6.36 3.96 10.08l11.04-13.2c0-18.36-23.52-15.24-35.76-15.24l-11.04 13.32c13.201 0 24.48-2.28 31.8 5.04ZM14371.73 330.9h28.27v-13.2h-17.11Z" fill="#e6e6e6"/><path d="M14371.73 366.3V317.7l-11.04 13.2v70.8h39.31v-13.32h-28.27Z" fill="#e6e6e6"/><path d="M14371.73 366.3h24.24l4.03-4.81v-8.51h-17.11ZM12973.14 513.58c10.32-1.2 16.32-8.4 22.56-15.84v15.96l11.04-13.2v-70.8l-11.04 13.32v27.12c0 8.52 1.44 18.72-1.56 26.88-12.04 6.89-27.25 2.48-34.14-8.76v23.16c4.05 1.84 8.58 2.63 13.14 2.16ZM13062.78 448.06c2.76 2.64 3.96 6.36 3.96 10.08l11.04-13.2c0-18.36-23.52-15.24-35.76-15.24l-11.04 13.32c13.2 0 24.48-2.28 31.8 5.04Z" fill="#e6e6e6"/><path d="M13018.74 443.02v70.68h24.24c9.48 0 20.16.24 27.12-7.44l6.36-7.56c1.56-1.8 3.48-4.44 4.8-5.88 4.2-5.28 4.8-12 3.72-17.28-3.12-15.36-19.92-15.48-32.4-15.48l-11.16 13.2c8.52 0 17.76-.6 25.08 4.32 6.72 4.56 8.88 12.84 7.32 20.52-8.76 3.6-19.08 2.4-28.32 2.4h-15.6v-70.8l-11.16 13.32ZM13118.34 429.7l-11.04 13.32c13.2 0 24.48-2.28 31.8 5.04 2.76 2.64 3.96 6.36 3.96 10.08l11.04-13.2c0-18.36-23.52-15.24-35.76-15.24Z" fill="#e6e6e6"/><path d="M13095.06 443.02v70.68h24.24c9.48 0 20.16.24 27.12-7.44l6.36-7.56c1.56-1.8 3.48-4.44 4.8-5.88 4.2-5.28 4.8-12 3.72-17.28-3.12-15.36-19.92-15.48-32.4-15.48l-11.16 13.2c8.52 0 17.76-.6 25.08 4.32 6.72 4.56 8.88 12.84 7.32 20.52-8.76 3.6-19.08 2.4-28.32 2.4h-15.6v-70.8l-11.16 13.32ZM13232.94 500.38h-50.52V429.7l-11.04 13.2v70.8h50.52Z" fill="#e6e6e6"/><path d="M13232.94 429.7h-39.36l-11.16 13.2h39.48ZM13217.82 464.98h-24.24l-11.16 13.32h24.24ZM13240.14 443.02v70.68h12.84c5.64 0 11.28.24 16.8-1.32 10.92-3 17.64-11.16 24.6-19.44 10.56-12.84 13.56-22.2 12.12-32.4-1.2-9.12-6.12-17.64-13.32-23.4-9.12-7.08-19.8-7.44-30.84-7.44l-11.16 13.32c6.841 0 14.16-.36 20.76 1.92 6 2.04 11.52 5.88 15.6 10.8 8.76 10.56 10.56 25.68 4.68 38.04-8.16 5.88-17.16 6.72-26.88 6.72h-14.16v-70.8l-11.04 13.32ZM13428.78 494.86c7.44-9 11.52-18.24 12.72-29.88 1.2-11.64.48-23.64.48-35.28l-11.04 13.32c0 17.64 2.52 37.68-5.52 54-1.44.96-3.36 2.52-5.04 3-1.44.36-1.44.36-3-.36-3.12-1.68-6-3.72-8.4-6.24-5.04-5.04-8.28-11.52-10.08-18.36-4.08-14.76-1.08-30-2.4-45.36l-11.04 13.32c0 17.64 2.52 37.68-5.52 54-1.44.96-3.36 2.52-5.04 3-1.44.36-1.44.36-3-.36-2.88-1.68-5.64-3.6-8.04-5.88-5.04-4.92-8.4-11.28-10.32-18.12-4.08-14.64-2.4-30.84-2.4-45.96l-11.16 13.32c0 10.32-.36 20.76.24 31.08.48 9.72 2.52 19.92 8.28 27.96 2.4 3.36 5.52 6.12 8.88 8.64 5.4 3.96 4.56 3.84 9.96.6 4.08-2.76 7.32-6.24 10.56-9.96 3.36-4.08 6.96-8.04 10.08-12.36 2.76 9.96 8.64 18.6 17.88 23.64 2.28 1.2 2.64 1.08 4.92-.12 2.16-1.2 4.32-2.76 6.24-4.44 4.44-3.84 8.04-8.76 11.76-13.2ZM13462.98 500.5v-70.8l-11.16 13.2v70.8ZM13495.62 513.7l11.04-13.2v-57.48l-11.04 13.32ZM13534.5 429.7h-55.56l-11.16 13.32h55.56ZM13536.9 443.02v70.68l11.16-13.2v-70.8ZM13587.42 465.1h-28.32l-11.04 13.2h39.36v35.4l11.16-13.2v-70.8l-11.16 13.32ZM13682.22 513.7l11.16-13.2v-70.8h-15.36c-5.4 0-10.92 0-16.32 1.32-10.44 2.52-16.2 10.56-22.68 18.48-3.24 3.96-5.88 7.92-6.84 13.08-.96 5.28-.48 10.92-.48 16.32v34.8l11.16-13.2v-27.12c0-8.64-1.32-18.36 1.08-26.76 10.32-5.16 23.04-3.6 38.28-3.6v27.12h-28.32l-11.04 13.2h39.36v30.36ZM13788.05 429.7h-39.35l-11.16 13.32h39.35Z" fill="#e6e6e6"/><path d="m13737.54 429.7-11.16 13.32v70.68l11.16-13.2V443.02Z" fill="#e6e6e6"/><path d="M13772.81 465.1h-24.11l-11.16 13.2h24.231ZM13846.85 494.98c-6.6 6.6-17.28 5.52-26.28 5.52h-20.16v-70.8l-11.16 13.32v70.68h18.96c5.76 0 11.64.48 17.28-.72 6-1.2 10.2-4.32 14.16-8.76 3.84-4.44 8.16-8.88 11.28-13.92-1.68 1.92-2.88 3.36-4.08 4.68ZM13864.62 483.34v-9.96c0-8.64-1.32-18.36 1.08-26.76 10.32-5.16 23.04-3.6 38.279-3.6v27.12h-28.319l-11.04 13.2h39.359v30.36l11.161-13.2v-70.8h-15.36c-5.4 0-10.92 0-16.32 1.32-10.44 2.52-16.2 10.56-22.68 18.48-3.24 3.96-5.88 7.92-6.84 13.08-.961 5.28-.48 10.92-.48 16.32v34.8l11.16-13.2v-17.16ZM13947.78 513.7l11.03-13.2v-57.48l-11.03 13.32ZM13986.65 429.7h-55.55l-11.16 13.32h55.55ZM14079.29 440.74c-3.84-7.92-12.84-10.44-21-10.92-9.12-.48-18.36-.12-27.479-.12l-11.161 13.32v70.68l11.161-13.2V443.02c9.479 0 20.639-1.44 29.399 3.12 8.04 4.2 11.28 12.96 9.48 21.72-7.8 3.12-19.56 2.28-27.72 2.28l-11.159 13.2c8.519 0 20.879 1.08 28.799-2.76 3.84-1.8 6.36-4.68 9-7.8 1.44-1.56 2.76-3.24 4.201-4.92l4.439-5.4c5.16-6.84 4.92-16.2 2.04-21.72ZM14116.25 431.02c-10.439 2.52-16.2 10.56-22.68 18.48-3.24 3.96-5.88 7.92-6.84 13.08-.959 5.28-.48 10.92-.48 16.32v34.8l11.16-13.2v-27.12c0-8.64-1.32-18.36 1.08-26.76 10.321-5.16 23.04-3.6 38.281-3.6v27.12h-28.321l-11.04 13.2h39.361v30.36l11.159-13.2v-70.8h-15.36c-5.4 0-10.92 0-16.32 1.32ZM14196.17 512.98c6-1.2 10.2-4.32 14.16-8.76 3.84-4.44 8.16-8.88 11.28-13.92-1.68 1.92-2.88 3.36-4.08 4.68-6.6 6.6-17.28 5.52-26.28 5.52h-20.16v-70.8l-11.16 13.32v70.68h18.96c5.76 0 11.64.48 17.28-.72ZM14314.97 513.7l11.04-13.2v-26.4c0-12.96.96-15.72-.12-24.72-2.64-19.32-27.119-25.8-39.84-11.76l-6.6 7.8c-5.64-17.04-27.12-20.64-38.52-8.16l-5.76 6.72V429.7l-11.16 13.32v70.68l11.16-13.2v-41.88c0-4.32-.36-8.76 1.08-13.08 14.4-7.56 32.04 2.64 33.12 18.84.6 8.52.12 17.16.12 25.8v23.52l11.04-13.2c0-16.08.241-32.04 0-48 0-2.4.48-4.68 1.08-6.96 14.52-7.56 32.161 2.64 33.24 18.84.6 8.52.12 17.16.12 25.8v23.52ZM14338.37 488.38h30.36l11.041-13.2h-30.241ZM14391.771 513.7l8.229-9.74V433.2l-8.229 9.82ZM12996.66 625.7l11.16-13.2-13.44-26.76 5.04-6 4.32-5.28c7.44-9.84 4.44-25.2-7.2-30.24-5.88-2.52-12.48-2.52-18.84-2.52h-17.7v13.29c8.85-.18 18.76-.98 26.7 3.15 8.04 4.2 11.28 12.96 9.48 21.72-7.8 3.24-19.56 2.28-27.84 2.28l-8.34 9.97v3.22h21.54l15.12 30.37ZM13078.98 541.7h-39.36l-11.15 13.2h39.47Z" fill="#e6e6e6"/><path d="m13028.47 541.7-11.04 13.2v70.8h50.51l11.04-13.32h-50.51V554.9Z" fill="#e6e6e6"/><path d="M13063.86 576.98h-24.24l-11.15 13.32h24.23ZM13112.46 554.9h17.04l11.16-13.2c-7.44 0-14.88-.12-22.32-.12-15.72 0-17.04 1.56-27.48 14.64-2.88 3.48-6 6.72-6.72 11.4-1.08 8.52 4.2 15 12.36 16.8 8.52 1.8 17.16-.12 24.84 4.8 6.84 4.44 9.36 12.96 7.8 20.76-7.8 3.24-17.88 3.24-25.8.6-8.4-2.76-13.2-9.6-13.2-18.48l-11.16 13.2c0 10.32 6.6 17.28 16.44 19.44 9.96 2.04 22.56 1.2 29.88-6.72l5.64-6.48 5.64-6.84c5.88-7.68 4.68-18.6.72-24.12-5.64-8.16-15.96-8.28-24.84-8.76-9.24-.6-17.88-5.52-17.4-15.84 5.65-1.56 11.65-1.08 17.4-1.08ZM13176.55 554.9h17.04l11.16-13.2c-7.44 0-14.88-.12-22.32-.12-15.72 0-17.04 1.56-27.48 14.64-2.88 3.48-6 6.72-6.72 11.4-1.08 8.52 4.2 15 12.36 16.8 8.52 1.8 17.16-.12 24.84 4.8 6.84 4.44 9.36 12.96 7.8 20.76-7.8 3.24-17.88 3.24-25.8.6-8.4-2.76-13.2-9.6-13.2-18.48l-11.16 13.2c0 10.32 6.6 17.28 16.44 19.44 9.96 2.04 22.56 1.2 29.88-6.72l5.64-6.48 5.64-6.84c5.88-7.68 4.68-18.6.72-24.12-5.64-8.16-15.96-8.28-24.84-8.76-9.24-.6-17.88-5.52-17.4-15.84 5.64-1.56 11.64-1.08 17.4-1.08ZM13213.15 625.7l11.16-13.2v-70.8l-11.16 13.2ZM13291.98 544.22c-5.76-2.28-11.76-2.52-18-2.52h-20.04l-11.16 13.32c16.2 0 34.8-3 48.12 8.4 12.121 10.32 15.96 27.96 9 42.36-14.04 10.08-33.84 8.4-45.96-3.96-11.76-11.88-13.32-31.08-3.84-44.88-3.24 4.68-7.68 8.52-11.04 13.2-3.24 4.44-5.28 9.84-6 15.36-1.56 11.16 2.4 22.56 10.44 30.36 8.16 7.8 19.8 11.28 30.84 9.24 12.6-2.28 20.16-10.92 27.84-20.28 4.2-4.92 8.16-9.72 10.32-15.84 2.4-6.72 2.88-12.48.96-20.4-2.76-11.04-10.8-20.28-21.48-24.36ZM13379.1 551.18c-3.6-4.56-8.88-7.68-14.52-8.88-6-1.32-12.36-.24-17.76 2.76-5.16 3-8.88 8.04-12.6 12.6V541.7l-11.16 13.32v70.68l11.16-13.2v-27.12c0-8.64-1.56-18.72 1.44-27 14.4-8.28 33.24-.24 37.2 15.84 1.92 7.92.72 17.16.72 25.32v26.16l11.16-13.2v-39.84c0-5.16.24-8.76-1.32-13.56-.96-2.88-2.4-5.52-4.32-7.92ZM13477.02 544.22c-5.76-2.28-11.76-2.52-18-2.52h-20.04l-11.16 13.32c16.2 0 34.8-3 48.12 8.4 12.12 10.32 15.96 27.96 9 42.36-14.04 10.08-33.84 8.4-45.96-3.96-11.76-11.88-13.32-31.08-3.84-44.88-3.24 4.68-7.68 8.52-11.04 13.2-3.24 4.44-5.28 9.84-6 15.36-1.56 11.16 2.4 22.56 10.44 30.36 8.16 7.8 19.8 11.28 30.84 9.24 12.6-2.28 20.16-10.92 27.84-20.28 4.2-4.92 8.16-9.72 10.32-15.84 2.4-6.72 2.88-12.48.96-20.4-2.76-11.04-10.8-20.28-21.48-24.36ZM13508.1 555.02v70.68l11.16-13.2V541.7ZM13519.26 555.02h39.36l11.16-13.32h-39.36ZM13554.54 577.1h-24.12l-11.16 13.2h24.24ZM13630.62 625.7l11.04-13.2v-57.48l-11.04 13.32ZM13602.78 555.02h55.56l11.16-13.32h-55.56ZM13671.9 555.02v70.68l11.16-13.2v-70.8ZM13722.42 577.1h-28.32l-11.04 13.2h39.36v35.4l11.16-13.2v-70.8l-11.16 13.32ZM13756.62 541.7l-11.04 13.2v70.8h50.52l11.04-13.32h-50.52V554.9Z" fill="#e6e6e6"/><path d="M13807.14 541.7h-39.36l-11.16 13.2h39.48ZM13792.021 576.98h-24.241l-11.16 13.32h24.24ZM13840.14 625.7l11.16-13.2v-70.8l-11.16 13.2ZM13919.33 551.18c-3.6-4.56-8.88-7.68-14.52-8.88-6-1.32-12.36-.24-17.76 2.76-5.16 3-8.88 8.04-12.6 12.6V541.7l-11.16 13.32v70.68l11.16-13.2v-27.12c0-8.64-1.56-18.72 1.44-27 14.4-8.28 33.24-.24 37.2 15.84 1.92 7.92.72 17.16.72 25.32v26.16l11.16-13.2v-39.84c0-5.16.24-8.76-1.32-13.56-.96-2.88-2.4-5.52-4.32-7.92ZM13948.13 594.26V541.7l-11.15 13.32v70.68l11.15-13.2v-14.16l11.76-13.08 27.6 40.44 11.04-13.2-27.12-39.84 27.12-30.96ZM14068.49 541.7h-39.36l-11.16 13.2h39.48ZM14053.37 576.98h-24.24l-11.16 13.32h24.24Z" fill="#e6e6e6"/><path d="m14017.97 541.7-11.04 13.2v70.8h50.52l11.04-13.32h-50.52V554.9ZM14128.73 549.14c-9.12-7.08-19.8-7.44-30.84-7.44l-11.16 13.32c6.84 0 14.16-.36 20.76 1.92 6 2.04 11.52 5.88 15.6 10.8 8.76 10.56 10.56 25.68 4.68 38.04-8.16 5.88-17.16 6.72-26.88 6.72h-14.16v-70.8l-11.041 13.32v70.68h12.841c5.64 0 11.28.24 16.8-1.32 10.92-3 17.64-11.16 24.6-19.44 10.56-12.84 13.56-22.2 12.12-32.4-1.2-9.12-6.12-17.64-13.32-23.4ZM14205.53 543.02c-10.44 2.52-16.2 10.56-22.68 18.48-3.24 3.96-5.88 7.92-6.84 13.08-.96 5.28-.48 10.92-.48 16.32v34.8l11.16-13.2v-27.12c0-8.64-1.32-18.36 1.081-26.76 10.319-5.16 23.04-3.6 38.279-3.6v27.12h-28.32l-11.04 13.2h39.36v30.36l11.16-13.2v-70.8h-15.36c-5.4 0-10.92 0-16.32 1.32ZM14302.49 579.74l4.32-5.28c7.44-9.84 4.44-25.2-7.2-30.24-5.881-2.52-12.48-2.52-18.84-2.52h-20.4l-11.16 13.32v70.68l11.16-13.2V555.02c9.48 0 20.64-1.44 29.4 3.12 8.04 4.2 11.28 12.96 9.48 21.72-7.8 3.24-19.561 2.28-27.84 2.28l-11.04 13.2h24.24l15.119 30.36 11.161-13.2-13.44-26.76 5.04-6ZM14331.53 541.7l-11.04 13.2v70.8h50.52l11.04-13.32h-50.52V554.9Z" fill="#e6e6e6"/><path d="M14382.05 541.7h-39.361l-11.159 13.2h39.48ZM14366.93 576.98h-24.241l-11.159 13.32h24.24ZM14389.85 574.58c-.96 5.28-.48 10.92-.48 16.32v34.8l10.63-12.57v-55.69c-1.1 1.34-2.19 2.71-3.311 4.07-3.239 3.95-5.878 7.91-6.839 13.07ZM13013.82 691.74l4.32-5.28c7.44-9.84 4.44-25.2-7.2-30.24-5.88-2.52-12.48-2.52-18.84-2.52h-20.4l-11.15 13.32V720h11.16V667.02c9.48 0 20.64-1.44 29.4 3.12 8.04 4.2 11.28 12.96 9.48 21.72-7.8 3.24-19.56 2.28-27.84 2.28l-11.04 13.2h24.24l6.3 12.66h17.71l-11.18-22.26 5.04-6ZM13077.06 653.7c-5.4 0-10.92 0-16.32 1.32-10.44 2.52-16.2 10.56-22.68 18.48-3.24 3.96-5.88 7.92-6.84 13.08-.96 5.28-.48 10.92-.48 16.32V720h11.16v-22.62c0-8.64-1.32-18.36 1.08-26.76 10.32-5.16 23.04-3.6 38.28-3.6v27.12h-28.31l-11.04 13.2h39.36V720h11.16v-66.3h-15.37ZM13117.03 701.82c-5.76-15-3.84-32.4-3.84-48.12l-11.04 13.68c0 17.27-1.89 37.15 6.11 52.62h22.18c-.25-.2-.48-.38-.69-.54-5.76-4.68-10.08-10.8-12.72-17.64ZM13163.7 653.7l-11.04 13.68c0 17.28 2.28 36.6-6.12 52.56-.02.02-.06.04-.08.06h1.4c6.22-7.45 11.71-15.05 14.04-24.78 3.24-13.2 1.8-27.96 1.8-41.52ZM13173.67 666.9V720h11.16v-66.3ZM13257.18 671.1c-.96-2.88-2.4-5.52-4.32-7.92-3.6-4.56-8.88-7.68-14.52-8.88-6-1.32-12.36-.24-17.76 2.76-5.16 3-8.88 8.04-12.6 12.6V653.7l-11.16 13.32V720h11.16v-22.62c0-8.64-1.56-18.72 1.44-27 14.4-8.28 33.24-.24 37.2 15.84 1.92 7.92.72 17.16.72 25.32V720h11.16v-35.34c0-5.16.24-8.76-1.32-13.56ZM13280.35 673.74c12.96-9.36 30.12-6.72 45.24-6.72l11.16-13.32c-14.16 0-30.72-2.4-43.32 5.4-6 3.72-10.32 9.48-14.76 14.76-4.68 5.64-9.24 11.04-11.399 18.12-3.061 10.06-1.331 19.99 3.459 28.02h24.27c-2.5-1.38-4.84-3.09-6.97-5.1-11.28-10.44-14.4-27.36-7.68-41.16Z" fill="#e6e6e6"/><path d="M13340.58 689.1h-32.28l-11.04 13.32h32.76v17.16c-.25.15-.5.28-.75.42h3.29c1.9-2.36 4.25-5.37 8.02-10.02V689.1ZM13385.94 706.14c-2.4-8.16-1.08-17.76-1.08-26.28V653.7l-11.04 13.32v30.72c0 7.32-.81 15.19 1.24 22.26h21.06c-4.74-3.15-8.48-7.9-10.18-13.86ZM13424.34 667.02v27.12c0 8.17 1.31 17.88-1.23 25.86h12.26v-66.3l-11.03 13.32ZM13453.74 704.1l-11.16 13.2c0 .93.07 1.83.18 2.7h18.92c-5.1-3.49-7.94-9.09-7.94-15.9ZM13500.9 692.58c-5.64-8.16-15.96-8.28-24.84-8.76-9.24-.6-17.88-5.52-17.4-15.84 5.64-1.56 11.64-1.08 17.4-1.08h17.04l11.16-13.2c-7.44 0-14.88-.12-22.32-.12-15.72 0-17.04 1.56-27.48 14.64-2.88 3.48-6 6.72-6.72 11.4-1.08 8.52 4.2 15 12.36 16.8 8.52 1.8 17.16-.12 24.84 4.8 6.27 4.07 8.9 11.56 8.1 18.78h4.42l2.72-3.3c5.88-7.68 4.68-18.6.72-24.12ZM13559.1 688.98h-24.24l-11.16 13.32h24.24ZM13574.22 653.7h-39.36l-11.16 13.2h39.48Z" fill="#e6e6e6"/><path d="M13523.7 666.9v-13.2l-11.04 13.2V720h11.04v-17.7ZM13585.38 704.1l-11.16 13.2c0 .93.07 1.83.18 2.7h18.92c-5.1-3.49-7.94-9.09-7.94-15.9ZM13632.54 692.58c-5.64-8.16-15.96-8.28-24.84-8.76-9.24-.6-17.88-5.52-17.4-15.84 5.64-1.56 11.64-1.08 17.4-1.08h17.04l11.16-13.2c-7.44 0-14.88-.12-22.32-.12-15.72 0-17.04 1.56-27.48 14.64-2.88 3.48-6 6.72-6.72 11.4-1.08 8.52 4.2 15 12.36 16.8 8.52 1.8 17.16-.12 24.84 4.8 6.27 4.07 8.899 11.56 8.1 18.78h4.42l2.72-3.3c5.88-7.68 4.68-18.6.72-24.12ZM13715.34 653.7c-5.4 0-10.92 0-16.319 1.32-10.441 2.52-16.201 10.56-22.681 18.48-3.24 3.96-5.88 7.92-6.84 13.08-.96 5.28-.479 10.92-.479 16.32V720h11.159v-22.62c0-8.64-1.32-18.36 1.08-26.76 10.32-5.16 23.04-3.6 38.28-3.6v27.12h-28.32l-11.04 13.2h39.36V720h11.16v-66.3h-15.36ZM13822.021 692.58c-5.641-8.16-15.961-8.28-24.841-8.76-9.24-.6-17.88-5.52-17.4-15.84 5.64-1.56 11.64-1.08 17.4-1.08h17.04l11.16-13.2c-7.44 0-14.88-.12-22.32-.12-15.72 0-17.039 1.56-27.48 14.64-2.88 3.48-6 6.72-6.72 11.4-1.08 8.52 4.2 15 12.36 16.8 8.52 1.8 17.16-.12 24.84 4.8 6.27 4.07 8.9 11.56 8.09 18.78h4.42l2.72-3.3c5.89-7.68 4.69-18.6.731-24.12ZM13774.86 704.1l-11.16 13.2c0 .93.07 1.83.18 2.7h18.92c-5.11-3.49-7.94-9.09-7.94-15.9ZM13880.22 688.98h-24.24l-11.16 13.32h24.24ZM13895.34 653.7h-39.361l-11.159 13.2h39.48ZM13844.82 666.9v-13.2l-11.04 13.2V720h11.04v-17.7ZM13962.06 653.7h-55.56l-11.16 13.32h55.56Z" fill="#e6e6e6"/><path d="M13923.18 680.34V720h11.04v-52.98ZM14074.85 700.98c2.4-6.72 2.88-12.48.96-20.4-2.76-11.04-10.8-20.28-21.48-24.36-5.76-2.28-11.76-2.52-18-2.52h-20.04l-11.16 13.32c16.2 0 34.8-3 48.12 8.4 12.12 10.32 15.96 27.96 9 42.36-1.15.82-2.33 1.56-3.55 2.22h3.18c.891-1.05 1.77-2.11 2.65-3.18 4.2-4.92 8.16-9.72 10.32-15.84Z" fill="#e6e6e6"/><path d="M14012.46 668.94c-3.24 4.68-7.68 8.52-11.04 13.2-3.24 4.44-5.28 9.84-6 15.36-1.09 7.83.54 15.77 4.38 22.5h24.72c-2.98-1.62-5.75-3.68-8.21-6.18-11.77-11.88-13.33-31.08-3.85-44.88ZM14096.58 667.02V653.7l-11.16 13.32V720h11.16v-17.7ZM14131.85 689.1h-24.12l-11.15 13.2h24.231ZM14147.09 653.7h-39.36l-11.15 13.32h39.35ZM14238.41 692.58c-5.639-8.16-15.96-8.28-24.84-8.76-9.24-.6-17.88-5.52-17.4-15.84 5.641-1.56 11.641-1.08 17.4-1.08h17.04l11.161-13.2c-7.441 0-14.881-.12-22.321-.12-15.72 0-17.04 1.56-27.48 14.64-2.88 3.48-6 6.72-6.72 11.4-1.08 8.52 4.2 15 12.36 16.8 8.52 1.8 17.161-.12 24.84 4.8 6.27 4.07 8.9 11.56 8.1 18.78h4.42l2.72-3.3c5.88-7.68 4.68-18.6.72-24.12ZM14191.25 704.1l-11.16 13.2c0 .93.07 1.83.18 2.7h18.919c-5.099-3.49-7.939-9.09-7.939-15.9ZM14261.33 653.7l-11.16 13.32V720h11.16v-17.7ZM14300.69 667.02v22.08h-28.32l-11.04 13.2h39.36V720h11.16v-66.3ZM14370.29 653.7c-5.4 0-10.92 0-16.32 1.32-10.44 2.52-16.199 10.56-22.68 18.48-3.24 3.96-5.88 7.92-6.84 13.08-.96 5.28-.48 10.92-.48 16.32V720h11.16v-22.62c0-8.64-1.319-18.36 1.08-26.76 10.32-5.16 23.04-3.6 38.28-3.6v27.12h-28.32l-11.04 13.2h39.36V720h11.16v-66.3h-15.36ZM14397.65 720h2.35v-55.78l-2.35 2.8Z" fill="#e6e6e6"/></svg>