<svg viewBox="0 0 14400 720" xmlns="http://www.w3.org/2000/svg"><path d="m0 720h14400v-720h-14400z" fill="#eae3d8"/><path d="m516.76 250.15-23.84 28.2h-36.4c-12.3 0-25.12-1-37.17 2.31-1 22 17.43 32.56 37.17 33.84 19 1 41 1.28 53.06 18.71 8.46 11.79 11 35.12-1.54 51.52l-12 14.61-12 13.84c-15.64 16.92-42.55 18.71-63.83 14.35-21.11-4.61-35.21-19.48-35.21-41.53l23.84-28.2c0 19 10.25 33.58 28.2 39.48 16.92 5.64 38.45 5.64 55.11-1.28 3.33-16.66-2.05-34.86-16.66-44.35-16.41-10.51-34.86-6.41-53.06-10.25-17.43-3.84-28.71-17.69-26.4-35.89 1.54-10 8.2-16.92 14.36-24.35 22.3-27.94 25.12-31.27 58.7-31.27 15.91 0 31.77.26 47.67.26zm130.99 61.78c0 7.43.51 15.38-2.82 22.3s-9.23 12.82-14.1 18.71c-24.61 30-28.71 28.2-67.93 28.2l23.84-28.45c11.28 0 26.15.77 37.17-2.31.51-5.13.26-10.25.26-15.38v-13.33h-20.25c-17.17 0-34.35-1.54-50 7.43-8.2 22.56.26 48.7 20 62.55 21 14.87 51.78 12 68.7-5.9l5.13-5.9c-5.13 6.66-7.43 9.48-9.74 12-4.1 5.13-8.46 10.25-12.82 15.12-7.95 9.48-17.17 16.92-29 20.51-44.09 12.82-84.08-34.09-63.83-75.62 5.38-10.51 14.1-19.74 21.79-28.71 6.92-8.2 13.84-16.92 23.33-22.56 10.77-6.15 22.3-7.18 34.35-7.18h35.89v18.46zm39.48 30.25c0 15.38-1.79 32.55 6.15 46.4 4.1 7.43 12.56 14.61 26.15 14.61l-23.58 28.2c-23.07 0-31.53-20.25-32.3-40.25-1-23.07-.26-46.4-.26-69.47l23.84-28.2v48.7zm0-20.51 23.58-28.2h52l-23.81 28.2zm80.77 107.92v-107.92l23.84-28.2v107.92zm2.56-140.47 10.77-32.3 23.84-28.2-10.77 32.3zm134.31 32.55c-22.56 0-49.73-4.36-70 7.18-8.187 23.049-.009 48.73 20 62.8 21 14.87 50.24 12 68.7-5.9l5.13-5.9-10.25 12.56c-4.61 5.38-9.23 11-14.1 16.41-7.43 8.72-16.66 15.64-27.94 18.71-44.35 12.3-83.57-35.37-62.8-76.39 5.39-10.5 14.39-19.47 21.79-28.45 7.18-8.2 13.84-16.66 23.33-22 9.74-5.64 20-7.43 31-7.18h39z"/><path d="m991 293.47c10.51 0 20.76-.26 30.76 2.82 18.46 5.38 29.73 20.76 32.55 39.48 2.31 18.2-.51 32.55-19 54.86-12.82 15.64-24.86 32.55-45.63 37.43-42.55 10.25-79-34.09-61.78-74.08l23.84-28.2c-20.25 46.91 32 93.56 76.39 68.19 7.69-21.79 2.31-51.52-18.46-64.34-10.77-6.66-22.81-7.95-35.12-7.95h-40.2l23.58-28.2h33.07z"/><path d="m1822.28 160.44c12.69 0 24.89.49 36.6 5.12 21.736 8.442 38.022 26.909 43.68 49.53 3.9 16.1 2.93 27.82-2 41.48-4.39 12.44-12.44 22.2-21 32.21-15.62 19-31 36.6-56.61 41.24-22.674 4.215-45.99-2.753-62.634-18.719-16.643-15.965-24.575-38.971-21.306-61.801 1.409-11.262 5.602-21.995 12.2-31.23 6.83-9.52 15.86-17.32 22.45-26.84-19.28 28.06-16.1 67.1 7.81 91.26 24.64 25.13 64.9 28.55 93.45 8.05 14.15-29.28 6.34-65.15-18.3-86.13-27.08-23.18-64.91-17.08-97.85-17.08l22.69-27.08h40.75zm120.29 87.56c0 14.64-1.71 31 5.86 44.16 3.9 7.08 12 13.91 24.89 13.91l-22.45 26.93c-22 0-30-19.28-30.74-38.31-1-22-.24-44.16-.24-66.12l22.69-26.84v46.27zm0-19.52 22.43-26.8h49.53l-22.69 26.84h-49.27zm182.27 49.82c0 21.23 3.9 45.87-8.3 64.42-6.1 9.52-13.91 17.57-21 26.11-7.08 8.3-14.4 15.86-24.4 20-19.582 8.272-42.231 3.722-57.1-11.47l-8.54-9 23.42-27.82c14.15 24.16 45.87 32.7 70.27 18.79 3.42-9.76 3.17-19.76 3.17-30v-30.33c-7.81 9-14.88 19-25.13 25.13-12.993 7.755-28.746 9.38-43.048 4.441-14.302-4.94-25.695-15.94-31.132-30.061-8.05-20.74-.73-40.26 12.69-56.61 12.93-15.86 25.38-34.16 46.6-38.8 10.49-2.2 21.72-1.46 32.7-1.46h29.77v76.66zm-65.84-49.54c-12 0-23.18.73-33.67 6.83-9.33 25.87 3.86 55.41 29.24 65.41 15.37 6.1 30.74 4.39 44.65-3.42 4.64-12.69 3.17-26.6 3.17-39.77v-29h-43.39zm183 102.49v-32.46c-14.64 17.57-29.52 34.16-54.41 32.45-41.72-2.44-61.49-51.73-36.6-83.94 12.44-16.1 26.35-36.84 46.6-43.19 11-3.66 22.94-2.44 34.4-2.44h32.7v102.74zm-42.49-102.73c-12.2 0-23.67.49-34.41 6.83-9.52 25.86 3.9 55.39 29.28 65.39 15.13 6.1 30.74 4.64 44.65-3.42 4.15-12 2.93-25.38 2.93-37.82v-31h-42.45zm123.21-10.74c23.42-26.11 67.59-18.54 79.06 15.37 3.66 11.71 2.2 17.32 2.2 34.16v37.09l-22.45 26.84v-39.52c0-13.18 1-26.6-5.37-38.55-11.71-22.2-40-31-62.22-19.28-3.66 11-2.2 22.94-2.2 34.4v36.11l-22.69 26.84v-102.72l22.69-26.84v29zm105.9 113.47v-102.73l22.69-26.84v102.73zm2.44-133.71 10.25-30.74 22.69-26.85-10.25 30.74zm127.85 30.98c-21.47 0-47.34-4.15-66.61 6.83-7.801 21.932-.032 46.376 19 59.78 20 14.15 47.83 11.47 65.39-5.61l4.88-5.61-9.76 12c-4.39 5.12-8.78 10.49-13.42 15.62-7.08 8.3-15.86 14.88-26.6 17.81-42.21 11.71-79.54-33.67-59.78-72.71 5.12-10 13.66-18.54 20.74-27.08 6.83-7.81 13.18-15.86 22.2-21 9.27-5.37 19-7.08 29.52-6.83h37.09zm-855.68 166.15 22.69-27.08h113l-22.69 27.08zm56.61 143.72v-116.63l22.45-27.08v116.87zm117.61-113.46c23.42-26.11 67.59-18.54 79.06 15.37 3.66 11.71 2.2 17.32 2.2 34.16v37.09l-22.45 26.84v-39.53c0-13.18 1-26.6-5.37-38.55-11.71-22.2-40-31-62.22-19.28-3.66 11-2.2 23.18-2.2 34.4v36.11l-22.69 26.84v-164.45l22.69-26.84v90.77zm160.31-16.1c10 0 19.76-.24 29.28 2.68 17.57 5.12 28.3 19.76 31 37.58 2.2 17.32-.49 31-18.06 52.22-12.2 14.88-23.67 31-43.43 35.63-40.5 9.76-75.15-32.45-58.8-70.52l22.69-26.84c-19.28 44.65 30.5 89.06 72.71 64.91 7.32-20.74 2.2-49-17.57-61.25-10.25-6.34-21.72-7.56-33.43-7.56h-38.32l22.45-26.84h31.48zm168.11 129.56v-29l-11.22 12.93c-18.06 20-50 21.47-68.81 1.46-10.49-11.22-12.44-24.64-12.44-39.53v-48.58l22.45-26.84v39.53c0 13.18-1 26.35 5.37 38.55 11.71 22.2 40.26 30.74 62.46 19.28 3.42-11 2.2-22.94 2.2-34.41v-36.11l22.45-26.84v102.72zm162.02-52.95c0 21.23 3.9 45.87-8.3 64.42-6.1 9.52-13.91 17.57-21 26.11-7.08 8.3-14.4 15.86-24.4 20-19.582 8.272-42.231 3.722-57.1-11.47l-8.54-9 23.45-27.84c14.15 24.16 45.87 32.7 70.27 18.79 3.42-9.76 3.17-19.76 3.17-30v-30.27c-7.81 9-14.88 19-25.13 25.13-12.993 7.755-28.746 9.38-43.048 4.441-14.302-4.94-25.695-15.94-31.132-30.061-8.05-20.74-.73-40.26 12.69-56.61 12.93-15.86 25.38-34.16 46.6-38.8 10.49-2.2 21.72-1.46 32.7-1.46h29.77zm-65.89-49.53c-12 0-23.18.73-33.67 6.83-9.27 25.86 3.9 55.39 29.28 65.39 15.37 6.1 30.75 4.39 44.65-3.42 4.64-12.69 3.17-26.6 3.17-39.77v-29h-43.43zm124.45-10.98c23.42-26.11 67.59-18.54 79.06 15.37 3.66 11.71 2.2 17.32 2.2 34.16v37.09l-22.45 26.84v-39.53c0-13.18 1-26.6-5.37-38.55-11.71-22.2-40-31-62.22-19.28-3.66 11-2.2 23.18-2.2 34.4v36.11l-22.69 26.84v-164.45l22.69-26.84v90.77zm128.55 43.92c0 12.2 1 25.38 9 34.89 6.59 7.81 13.66 9.52 22 9.52l-22.69 26.84c-35.62-.24-30.74-44.41-30.74-68.56v-97.36l22.43-27.09zm0-33.18 22.69-26.84h39l-22.69 26.84z"/><path d="m3121.61 211.24c-29.43 0-62.84-5.14-88.3 13.08-14.25 29.67-4.91 66.11 21.49 85.5 26.63 19.39 64.24 18 88.06-5.84l5.84-6.77 3.27-3.74c-8.785 12.491-18.632 24.201-29.43 35-10 9.81-22.66 16.82-36.67 19.15-54.43 9.81-98.58-48.35-73.82-98.11 6.07-12.15 15.88-22.43 24.76-32.7 7.94-9.58 16.12-18.22 27.33-24.06 11.91-6.07 24.53-7.24 37.84-7.48h41.35z"/><path d="m3250.56 348.82v-59.1h-76.62l21.49-25.72h55.13v-52.76c-29.67 0-54.43-3-74.52 7-4.67 16.35-2.1 35.27-2.1 52.09v52.79l-21.72 25.7v-67.74c0-10.51-.93-21.49.93-31.77 1.87-10 7-17.75 13.32-25.46 12.61-15.42 23.83-31.07 44.15-36 10.51-2.57 21.26-2.57 31.77-2.57h29.9v137.85zm106.05-25.69c17.52 0 38.31 2.1 51.16-10.75 2.34-2.57 4.67-5.37 7.94-9.11-6.07 9.81-14.48 18.45-22 27.1-7.71 8.64-15.88 14.72-27.56 17.05-11 2.34-22.43 1.4-33.64 1.4h-36.86v-137.58l21.72-25.93v137.82zm63.78 25.69v-137.82l21.72-25.7v137.83zm45.08 0v-137.58l21.72-25.93v137.82zm21.73-137.58 21.72-25.93h76.62l-21.72 25.93zm0 68.68 21.72-25.7h47l-21.49 25.7zm164.69-94.61c12.15 0 23.83.47 35 4.91 20.808 8.083 36.397 25.764 41.81 47.42 3.74 15.42 2.8 26.63-1.87 39.71-4.21 11.91-11.91 21.26-20.09 30.83-15 18.22-29.67 35-54.19 39.48-21.708 4.039-44.033-2.631-59.968-17.917-15.935-15.287-23.526-37.315-20.392-59.173 1.349-10.782 5.363-21.058 11.68-29.9 6.54-9.11 15.18-16.59 21.49-25.69-18.45 26.86-15.42 64.24 7.48 87.36 23.63 24.06 62.16 27.33 89.5 7.66 13.55-28 6.07-62.37-17.52-82.46-25.93-22.19-62.14-16.35-93.67-16.35l21.72-25.93h39zm156.97 0c12.38 0 25.23 0 36.67 4.91 22.66 9.81 28.5 39.71 14 58.87l-8.41 10.28-9.79 11.63 26.16 52.09-21.72 25.7-29.43-59.1h-47.19l21.49-25.69c16.12 0 39 1.87 54.19-4.44 3.5-17.05-2.8-34.1-18.45-42.28-17.05-8.88-38.78-6.07-57.23-6.07v111.92l-21.72 25.7v-137.59l21.72-25.93zm99.05 31.07c7.24-8.88 14.48-18.69 24.53-24.53 12.844-7.316 28.291-8.489 42.092-3.195s24.502 16.496 29.158 30.525c3 9.34 2.57 16.35 2.57 26.4v77.55l-21.72 25.7v-50.93c0-15.88 2.34-33.87-1.4-49.29-7.71-31.3-44.38-47-72.41-30.83-5.84 16.12-2.8 35.74-2.8 52.56v52.79l-21.72 25.7v-137.59l21.72-25.93v31.07zm121.71 132.44v-137.82l21.72-25.7v137.83zm143.66 0v-59.1h-76.62l21.49-25.7h55.13v-52.78c-29.67 0-54.43-3-74.52 7-4.67 16.35-2.1 35.27-2.1 52.09v52.79l-21.72 25.7v-67.74c0-10.51-.93-21.49.93-31.77 1.87-10 7-17.75 13.31-25.46 12.61-15.42 23.83-31.07 44.15-36 10.51-2.57 21.26-2.57 31.77-2.57h29.9v137.85zm-1146.37 52.18c7.3-9 14.61-18.85 24.74-24.74 12.956-7.38 28.538-8.562 42.459-3.222s24.714 16.641 29.411 30.792c3.06 9.43 2.59 16.49 2.59 26.63v78.23l-21.91 25.95v-51.37c0-16 2.36-34.17-1.41-49.72-7.78-31.58-44.77-47.36-73-31.1-5.89 16.26-2.83 36.05-2.83 53v53.26l-21.96 25.93v-138.79l21.91-26.16zm243.66 107.48-21.68 26.16h-99.2v-139l21.68-25.92v138.76zm-99.2-112.87 21.91-25.92h77.29l-21.68 25.92h-77.53zm0 69.51 21.91-26.12h47.6l-21.88 26.13h-47.6zm175.55-95.43c12.25 0 24 .47 35.35 4.95 20.99 8.151 36.718 25.985 42.18 47.83 3.77 15.55 2.83 26.86-1.89 40.06-4.24 12-12 21.44-20.26 31.1-15.09 18.37-29.93 35.37-54.68 39.83-21.897 4.073-44.415-2.656-60.488-18.075-16.073-15.418-23.732-37.637-20.572-59.685 1.362-10.875 5.41-21.241 11.78-30.16 6.6-9.19 15.32-16.73 21.68-25.92-18.62 27.1-15.55 64.8 7.54 88.13 23.8 24.27 62.68 27.57 90.25 7.78 13.67-28.28 6.13-62.92-17.67-83.18-26.14-22.35-62.68-16.5-94.49-16.5l21.91-26.16h39.35zm206.89 26.16c-29.69 0-63.39-5.18-88.84 13.2-13.269 27.496-7.003 60.434 15.436 81.136s55.774 24.301 82.114 8.864v-33.7h-64.32l21.68-26.16h63.39v41c-12 14.84-16.73 21.21-22.15 27.33-9.9 11.31-21.68 20.27-36.29 24.51-52.31 14.85-101.32-35.35-85.54-87.19 4.24-13.9 13.2-24.51 22.39-35.58 8.72-10.37 17.2-21.68 29-29 24.74-15.32 57.26-10.6 85.07-10.6zm124.66-26.16c12.25 0 24 .47 35.35 4.95 20.993 8.153 36.721 25.991 42.18 47.84 3.77 15.55 2.83 26.86-1.88 40.06-4.24 12-12 21.44-20.27 31.1-15.09 18.36-29.93 35.36-54.67 39.82-21.897 4.073-44.415-2.656-60.488-18.075-16.074-15.418-23.732-37.637-20.572-59.685 1.361-10.876 5.41-21.241 11.78-30.16 6.6-9.19 15.32-16.73 21.68-25.92-18.62 27.1-15.55 64.8 7.54 88.13 23.8 24.27 62.68 27.57 90.25 7.78 13.67-28.28 6.13-62.92-17.67-83.18-26.16-22.35-62.7-16.5-94.5-16.5l21.91-26.16h39.35zm72.81 26.16 21.91-26.16h109.1l-21.92 26.16zm54.72 138.79v-112.64l21.68-26.16v112.88zm81 0v-139l21.91-25.92v139zm156-138.79c-29.69 0-63.39-5.18-89.07 13.2-14.37 29.93-4.95 66.69 21.68 86.24 26.86 19.56 64.8 18.14 88.84-5.89l5.89-6.83 3.3-3.77c-8.845 12.61-18.762 24.434-29.64 35.34-10.13 9.9-22.86 17-37 19.32-54.9 9.9-99.44-48.78-74.46-99 6.13-12.25 16-22.62 25-33 8-9.66 16.26-18.38 27.57-24.27 12-6.13 24.74-7.3 38.17-7.54h41.71z"/><path d="m4173.09 534.64v-59.64h-77.29l21.68-25.92h55.61v-53.23c-29.93 0-54.9-3.06-75.17 7.07-4.71 16.5-2.12 35.58-2.12 52.55v53.26l-21.91 25.92v-68.35c0-10.6-.94-21.68.94-32 1.89-10.13 7.07-17.91 13.43-25.68 12.72-15.55 24-31.34 44.54-36.29 10.6-2.59 21.44-2.59 32-2.59h30.2v139z"/><path d="m4793.21 192.66c0 25.41 2.7 53.06-3.37 77.79-5.4 22.48-19.79 38.9-34.63 56.21-7 7.87-14.16 15.06-23.38 20.46-4.95 2.92-6.07 4-11 1.35-4.185-2.2-8.173-4.756-11.92-7.64-37.1-29.68-31-80.27-31-122.54l20.69-25.63c0 29.45-3.6 62.06 7.19 90.16 4.924 12.907 13.14 24.301 23.83 33.05 3.82 2.92 11 9.44 16 9.89 4.27.45 12.37-6.52 15.51-9 15.74-29.9 11.47-66.1 11.47-98.48zm16.41 157.39v-94.66l20.91-24.73v94.66zm2.25-123.21 9.44-28.33 20.91-24.73-9.44 28.33zm64.75 33.5c13.27-16 27-31 49.91-29.68 19.452 1.143 36.222 14.076 42.27 32.6 3.85 11.462 3.042 23.978-2.25 34.85-5.17 11-14.39 20-22 29-6.3 7.42-12.59 14.39-21.36 18.44-9.44 4.27-19.11 4.5-29.23 4.5h-38.25v-151.54l20.91-24.73zm0 31.7v33.28h47c8.77-.22 16.19-2 23.83-6.52 14.84-40.7-30.58-78.47-68.13-57.11-3.38 9.89-2.7 20.24-2.7 30.31zm129.28-18.66c0 13.49-1.57 28.55 5.4 40.7 3.6 6.52 11 12.82 22.93 12.82l-20.68 24.73c-20.24 0-27.65-17.76-28.33-35.3-.9-20.24-.23-40.7-.23-60.93l20.91-24.73v42.72zm0-18 20.69-24.73h45.64l-20.91 24.73zm146.82 94.67v-29.9c-13.49 16.19-27.21 31.48-50.14 29.9-38.45-2.25-56.66-47.67-33.73-77.34 11.47-14.84 24.28-34 42.94-39.8 10.12-3.37 21.14-2.25 31.7-2.25h30.13v94.66zm-39.12-94.66c-11.24 0-21.81.45-31.7 6.3-8.77 23.83 3.6 51 27 60.26 13.94 5.62 28.33 4.27 41.14-3.15 3.82-11 2.7-23.38 2.7-34.85v-28.56zm113.53-9.89c21.58-24.06 62.28-17.09 72.85 14.16 3.37 10.79 2 16 2 31.48v34.18l-20.69 24.73v-36.42c0-12.14.9-24.51-4.95-35.52-10.79-20.46-36.87-28.55-57.33-17.76-3.37 10.12-2 21.13-2 31.7v33.28l-20.91 24.72v-94.66l20.9-24.73v26.76zm118.49 40.5c0 11.24.9 23.38 8.32 32.15 6.07 7.19 12.59 8.77 20.24 8.77l-20.91 24.73c-32.83-.22-28.33-40.92-28.33-63.18v-89.73l20.68-25zm0-30.58 20.91-24.73h36l-20.91 24.73z"/><path d="m4587.41 376.62c-28.37 0-60.57-5-85.12 12.61-13.74 28.6-4.73 63.73 20.72 82.42 25.67 18.69 61.92 17.34 84.89-5.63l5.63-6.53 3.15-3.6c-8.467 12.055-17.959 23.357-28.37 33.78-9.608 9.613-21.931 16.052-35.31 18.45-52.47 9.46-95-46.61-71.16-94.58 5.85-11.71 15.31-21.62 23.87-31.53 7.66-9.23 15.54-17.56 26.35-23.19 11.48-5.86 23.64-7 36.48-7.21h39.86z"/><path d="m4671.4 389.68c9.23 0 18.24-.22 27 2.48 16.21 4.73 26.12 18.24 28.6 34.68 2 16-.45 28.6-16.66 48.19-11.26 13.74-21.84 28.6-40.08 32.88-37.38 9-69.36-29.95-54.27-65.08l20.94-24.77c-17.79 41.21 28.15 82.19 67.1 59.9 6.76-19.14 2-45.26-16.21-56.52-9.46-5.86-20-7-30.85-7h-35.33l20.72-24.77h29zm164.6 26.12c11.93-14.19 23.64-28.37 44.14-25.9 18.24 2.25 32.88 17.56 33.55 36v58.55l-20.69 24.8v-34.45c0-11.48 1.58-24.54-2.48-35.35-7.45-20.45-31.52-30.63-51.36-21.4-2.7 10.13-1.35 22.07-1.35 32.65v33.78l-20.72 24.77v-34.45c0-11.48 1.58-24.54-2.25-35.35-7.66-20.49-31.75-30.62-51.57-21.39-2.7 10.36-1.13 22.29-1.13 33.1v33.33l-20.94 24.76v-94.8l20.94-24.77v23.87c10.36-12.38 20.72-24.32 38.28-23.87 16.194.295 30.446 10.758 35.58 26.12zm121.15 3.83c11-13.51 21.84-26.8 40.31-29.27 15.76-2.25 28.82.45 41.88 14.64 8.562 9.549 13.011 22.09 12.38 34.9-.9 14-8.11 24.32-16.66 34.68-9.46 11.26-18.46 24.55-32.2 30.63-14 6.3-30.62 4.05-45.71 4.05l20.94-24.77c16.66 0 34.9 2.25 50-6.3 14.86-40.76-30.62-78.81-68.23-57.2-3.381 9.68-2.7 20-2.7 30.17v90.3l-20.96 24.76v-151.77l20.94-24.77v29.95zm162.8-29.95c9.23 0 18.24-.22 27 2.48 16.21 4.73 26.12 18.24 28.6 34.68 2 16-.45 28.6-16.66 48.19-11.26 13.74-21.84 28.6-40.08 32.88-37.38 9-69.36-29.95-54.27-65.08l20.94-24.77c-17.79 41.21 28.15 82.19 67.1 59.9 6.76-19.14 2-45.26-16.21-56.52-9.46-5.86-20-7-30.85-7h-35.34l20.72-24.77h29zm141.63 24.99c-17.79 0-36.25-1.35-53.82.23 5.18 14.19 23.64 12.61 35.58 12.84 12.39.22 26.57 1.58 34.23 12.38 13.74 19.14-1.8 36.48-22.07 58.55l-3.38 2.93c-12.16 9.68-32 9-46.39 7.43-15.76-1.8-29.5-10.81-29.5-28.15l20.94-24.77c0 14.41 9.91 24.09 23.42 27 12.61 2.7 28.6 2.7 41-.68 1.13-23.42-21.17-29.72-40.31-29.95-9.46 0-20.27.68-28.37-5-7.771-5.73-9.483-16.646-3.84-24.48 7.618-7.98 14.76-16.401 21.39-25.22 8.33-8.78 21.62-8.11 32.65-8.11h39.19zm120.02 94.58v-26.8l-10.36 11.93c-16.66 18.46-46.16 19.82-63.5 1.35-9.68-10.36-11.48-22.74-11.48-36.48v-44.8l20.74-24.77v36.48c0 12.16-.9 24.32 5 35.58 10.81 20.49 37.15 28.37 57.65 17.79 3.15-10.13 2-21.17 2-31.75v-33.33l20.72-24.77v94.8zm64.4-76.79c0 13.51-1.58 28.6 5.4 40.76 3.6 6.53 11 12.84 23 12.84l-20.72 24.77c-20.27 0-27.7-17.79-28.37-35.35-.9-20.27-.22-40.76-.22-61l20.91-24.8zm0-18 20.72-24.77h45.71l-20.94 24.77zm159-8.57c0 6.53.45 13.51-2.48 19.59s-8.11 11.26-12.38 16.44c-21.62 26.35-25.22 24.77-59.67 24.77l20.94-25c9.91 0 23 .68 32.65-2 .45-4.5.22-9 .22-13.51v-11.73h-17.79c-15.09 0-30.17-1.35-43.91 6.53-7.21 19.82.22 42.78 17.56 54.94 18.46 13.06 45.49 10.58 60.35-5.18l4.5-5.18c-4.5 5.86-6.53 8.33-8.56 10.58-3.6 4.5-7.43 9-11.26 13.29-7 8.33-15.09 14.86-25.45 18-38.73 11.26-73.86-29.95-56.07-66.43 4.73-9.23 12.38-17.34 19.14-25.22 6.08-7.21 12.16-14.86 20.49-19.82 9.46-5.4 19.59-6.31 30.17-6.31h31.55v16.21z"/><path d="m5955 541.11v-147.78l23.33-27.85v148zm105.63 0v-74h-82.3l23.08-27.6h59.21v-46.18l23.38-27.85v148zm127.2-175.63c13 0 25.59.5 37.63 5.27 22.349 8.681 39.094 27.67 44.91 50.93 4 16.56 3 28.6-2 42.65-4.52 12.8-12.8 22.83-21.58 33.12-16.06 19.57-31.86 37.63-58.21 42.4-23.316 4.335-47.292-2.83-64.406-19.248s-25.269-40.076-21.904-63.552c1.448-11.579 5.757-22.615 12.541-32.11 6.999-9.78 16.309-17.81 23.079-27.6-19.82 28.85-16.56 69 8 93.84 25.34 25.84 66.74 29.35 96.09 8.28 14.55-30.11 6.52-67-18.82-88.57-27.85-23.84-66.74-17.56-100.61-17.56l23.33-27.85h41.9zm313.62 0c0 24.34 1.51 49.43-1 73.76s-11 43.66-26.59 62.47c-7.78 9.28-15.3 19.57-24.59 27.6-4.001 3.534-8.358 6.644-13 9.28-4.77 2.51-5.52 2.76-10.29.25-19.32-10.54-31.61-28.6-37.38-49.43-6.52 9-14.05 17.31-21.08 25.84-6.77 7.78-13.55 15.05-22.08 20.82-11.29 6.77-9.53 7-20.82-1.25-7-5.27-13.55-11-18.57-18.06-12-16.81-16.31-38.14-17.31-58.46-1.25-21.58-.5-43.4-.5-65l23.33-27.85c0 31.61-3.51 65.48 5 96.09 4 14.3 11 27.6 21.58 37.89 5.11 4.731 10.751 8.855 16.809 12.29 3.261 1.51 3.261 1.51 6.271.75 3.51-1 7.53-4.27 10.54-6.27 16.81-34.12 11.54-76 11.54-112.9l23.08-27.85c2.76 32.11-3.51 64 5 94.84 3.76 14.3 10.54 27.85 21.08 38.39 5.132 5.231 11.058 9.618 17.56 13 3.26 1.51 3.26 1.51 6.27.75 3.51-1 7.53-4.27 10.54-6.27 16.81-34.12 11.54-76 11.54-112.9zm86.06 148.03c18.82 0 41.15 2.26 54.95-11.54 2.51-2.76 5-5.77 8.53-9.78-6.52 10.54-15.56 19.82-23.58 29.1-8.28 9.28-17.06 15.81-29.61 18.32-11.79 2.51-24.09 1.51-36.13 1.51h-39.67v-147.79l23.33-27.85v148h42.15zm68.49 27.6v-148l23.33-27.6v148zm71.76-142.26c7.78-9.53 15.56-20.07 26.34-26.34 13.795-7.854 30.383-9.111 45.203-3.426 14.821 5.684 26.313 17.712 31.317 32.776 3.26 10 2.76 17.56 2.76 28.35v83.3l-23.33 27.6v-54.7c0-17.06 2.51-36.38-1.51-52.94-8.28-33.62-47.67-50.43-77.78-33.12-6.27 17.31-3 38.39-3 56.45v56.7l-23.33 27.6v-147.77l23.33-27.85zm245.88-5.52c-31.61 0-67.49-5.52-94.59 14.05-14.127 29.277-7.454 64.349 16.437 86.393s59.385 25.879 87.433 9.447v-35.88h-68.49l23.08-27.85h67.49v43.66c-12.8 15.81-17.81 22.58-23.58 29.1-10.54 12-23.08 21.58-38.64 26.09-55.7 15.81-107.89-37.63-91.08-92.83 4.52-14.8 14.05-26.09 23.84-37.89 9.28-11 18.32-23.08 30.86-30.86 26.34-16.31 61-11.29 90.57-11.29zm-863.07-76.41c18.84 0 41.2 2.26 55-11.56 2.51-2.76 5-5.78 8.54-9.8-6.53 10.55-15.58 19.85-23.62 29.14-8.29 9.3-17.08 15.83-29.64 18.34-11.81 2.51-24.12 1.51-36.18 1.51h-39.67v-148l23.36-27.89v148.26z"/><path d="m6268.09 168.69c-.25 20.6-3.77 41.7-14.07 59.54-5.53 9.3-12.56 17.59-19.34 25.88-6.28 7.29-12.56 15.32-19.6 21.86v40.95l-23.36 27.63v-53c-6.78.5-30.65-20.35-39.44-36.93-9.8-17.59-13.32-38.19-13.32-58l23.36-27.89c0 23.36 4.77 47.23 18.34 66.83 6.027 8.528 13.606 15.846 22.34 21.57 4 2.76 9.3 7 14.07 6 5-1.26 10.8-6.28 15.07-9.55 9.3-17.33 12.56-37.43 12.56-57zm81.15 0c13.32 0 27.13 0 39.44 5.28 24.37 10.55 30.65 42.71 15.07 63.31l-9 11.05-10.55 12.56 28.14 56-23.36 27.63-31.7-63.52h-50.75l23.11-27.63c17.33 0 42 2 58.28-4.77 3.77-18.34-3-36.68-19.85-45.47-18.34-9.55-41.7-6.53-61.55-6.53v120.32l-23.36 27.63v-148l23.36-27.89h42.71zm83.16 175.86v-148.22l23.36-27.63v148.22zm166.31-147.97c-31.65 0-67.58-5.53-95 14.07-15.32 31.91-5.28 71.1 23.11 91.95 28.64 20.85 69.09 19.34 94.71-6.28l6.28-7.29 3.52-4c-9.446 13.447-20.036 26.054-31.65 37.68-10.8 10.55-24.37 18.09-39.44 20.6-58.54 10.55-106-52-79.39-105.52 6.53-13.06 17.08-24.12 26.629-35.17 8.541-10.3 17.331-19.6 29.391-25.88 12.81-6.53 26.38-7.79 40.7-8h44.47z"/><path d="m6737.38 344.55v-63.55h-82.38l23.11-27.63h59.29v-56.79c-31.91 0-58.54-3.27-80.14 7.54-5 17.59-2.26 37.94-2.26 56v56.78l-23.36 27.63v-72.83c0-11.31-1-23.11 1-34.17 2-10.8 7.54-19.09 14.32-27.38 13.57-16.58 25.63-33.41 47.48-38.69 11.31-2.76 22.86-2.76 34.17-2.76h32.16v148.22zm114.06-27.63c18.84 0 41.2 2.26 55-11.56 2.51-2.76 5-5.78 8.54-9.8-6.53 10.55-15.58 19.85-23.62 29.14-8.29 9.3-17.08 15.83-29.64 18.34-11.81 2.51-24.12 1.51-36.18 1.51h-39.69v-148l23.36-27.89v148.26h42.21z"/><path d="m7468.22 366.86c13.75 0 28 0 40.73 5.45 25.16 10.9 31.65 44.1 15.56 65.37l-9.34 11.41-10.9 13 29.05 57.85-24.12 28.53-32.68-65.63h-52.4l23.88-28.56c17.9 0 43.32 2.08 60.18-4.93 3.89-18.94-3.11-37.87-20.49-47-18.94-9.86-43.06-6.74-63.55-6.74v124.3l-24.14 28.54v-152.79l24.12-28.79h44.1zm143.72 43.84c10.64 0 21-.26 31.13 2.85 18.68 5.45 30.09 21 32.94 39.95 2.33 18.42-.52 32.94-19.2 55.51-13 15.82-25.16 32.94-46.17 37.87-43.06 10.38-79.9-34.5-62.52-75l24.12-28.53c-20.49 47.47 32.43 94.68 77.3 69 7.78-22 2.33-52.14-18.68-65.11-10.9-6.74-23.09-8-35.54-8h-40.71l23.87-28.53h33.46zm189.62 30.1c13.75-16.34 27.24-32.69 50.84-29.83 21 2.59 37.87 20.23 38.65 41.5v67.45l-23.87 28.53v-39.69c0-13.23 1.82-28.27-2.85-40.73-8.56-23.61-36.32-35.28-59.14-24.64-3.11 11.67-1.56 25.42-1.56 37.61v38.91l-23.87 28.53v-39.68c0-13.23 1.82-28.27-2.59-40.73-8.82-23.61-36.58-35.28-59.4-24.64-3.11 11.93-1.3 25.68-1.3 38.13v38.39l-24.12 28.53v-109.2l24.12-28.53v27.5c11.93-14.27 23.87-28 44.1-27.5 18.656.338 35.077 12.392 40.99 30.09zm213.5 107.65v-34.5c-15.56 18.68-31.39 36.32-57.85 34.5-44.36-2.59-65.37-55-38.91-89.24 13.23-17.12 28-39.17 49.55-45.91 11.67-3.89 24.38-2.59 36.58-2.59h34.76v109.2zm-45.14-109.21c-13 0-25.16.52-36.58 7.26-10.11 27.5 4.16 58.89 31.14 69.5 16.08 6.49 32.69 4.93 47.47-3.63 4.41-12.71 3.11-27 3.11-40.21v-32.92zm131-11.42c24.9-27.76 71.86-19.71 84 16.34 3.89 12.45 2.33 18.42 2.33 36.32v39.43l-23.86 28.53v-42c0-14 1-28.28-5.71-41-12.45-23.61-42.54-32.94-66.15-20.49-3.89 11.67-2.33 24.38-2.33 36.58v38.39l-24.12 28.53v-109.21l24.12-28.53v30.87zm200.53 11.42c-22.83 0-50.33-4.41-70.82 7.26-8.287 23.323-.015 49.31 20.23 63.55 21.27 15 50.84 12.19 69.52-6l5.19-6-10.38 12.71c-4.669 5.45-9.339 11.15-14.27 16.6-7.52 8.82-16.859 15.82-28.27 18.94-44.879 12.45-84.57-35.8-63.549-77.3 5.449-10.63 14.529-19.71 22-28.79 7.259-8.3 14-16.86 23.609-22.31 9.86-5.71 20.23-7.52 31.391-7.26h39.429z"/><path d="m8440 429.38c0 7.52.52 15.56-2.85 22.57s-9.34 13-14.27 18.94c-24.9 30.35-29.05 28.53-68.74 28.53l24.12-28.79c11.41 0 26.46.78 37.61-2.33.346-5.179.433-10.372.26-15.56v-13.5h-20.49c-17.38 0-34.76-1.56-50.58 7.52-8.3 22.83.26 49.29 20.23 63.29 21.27 15 52.4 12.19 69.52-6l5.19-6c-5.19 6.74-7.52 9.6-9.86 12.19-4.15 5.19-8.56 10.38-13 15.3-8 9.6-17.38 17.12-29.31 20.75-44.62 13-85.08-34.5-64.59-76.52 5.45-10.64 14.27-20 22-29.05 7-8.3 14-17.12 23.61-22.83 10.9-6.23 22.57-7.26 34.76-7.26h36.39v18.68zm-858-227.31c-32.73 0-69.87-5.71-97.92 14.54-14.624 30.308-7.716 66.614 17.018 89.434 24.733 22.819 61.477 26.788 90.512 9.776v-37.13h-70.9l23.89-28.83h69.9v45.19c-13.25 16.36-18.44 23.37-24.41 30.13-10.91 12.47-23.89 22.34-40 27-57.66 16.36-111.68-39-94.28-96.1 4.67-15.32 14.54-27 24.67-39.22 9.61-11.43 19-23.89 31.95-31.95 27.27-16.88 63.11-11.69 93.76-11.69zm86.27-39.74c-8.57 10.91-8.57 26-8.57 37.92v126.23l-24.15 28.52v-107c0-16.88-2.08-35.06 4.93-50.91 7-16.36 32.73-42.85 36.88-45.71zm80 54.8c10.65 0 21-.26 31.17 2.86 18.7 5.45 30.13 21 33 40 2.34 18.44-.52 33-19.22 55.58-13 15.84-25.19 33-46.23 37.92-43.11 10.39-80-34.54-62.59-75.06l24.15-28.57c-20.52 47.53 32.47 94.8 77.4 69.09 7.79-22.08 2.34-52.2-18.7-65.19-10.91-6.75-23.12-8.05-35.58-8.05h-40.8l23.89-28.57h33.5zm104.93 49.35c0 15.58-1.82 33 6.23 47 4.16 7.53 12.73 14.8 26.49 14.8l-23.92 28.58c-23.37 0-31.95-20.52-32.73-40.78-1-23.37-.26-47-.26-70.38l24.15-28.57v49.35zm0-20.78 23.89-28.57h52.72l-24.15 28.57zm81.8 109.3v-109.3l24.15-28.57v109.35zm2.6-142.33 10.92-32.67 24.15-28.57-10.91 32.73zm108.58 4.46c10.65 0 21-.26 31.17 2.86 18.7 5.45 30.13 21 33 40 2.34 18.44-.52 33-19.22 55.58-13 15.84-25.19 33-46.23 37.92-43.11 10.39-80-34.54-62.59-75.06l24.15-28.57c-20.52 47.53 32.47 94.8 77.4 69.09 7.79-22.08 2.34-52.2-18.7-65.19-10.93-6.76-23.16-8.06-35.6-8.06h-40.78l23.89-28.57h33.5zm178.95 137.87v-30.86l-11.95 13.77c-19.22 21.3-53.24 22.86-73.24 1.56-11.17-11.95-13.25-26.23-13.25-42.08v-51.69l23.89-28.57v42.08c0 14-1 28.05 5.71 41 12.47 23.63 42.85 32.73 66.49 20.52 3.64-11.69 2.34-24.41 2.34-36.62v-38.41l23.88-28.57v109.35zm137.92-109c-20.52 0-41.82-1.56-62.07.26 6 16.36 27.27 14.54 41 14.8 14.28.26 30.65 1.82 39.48 14.28 15.84 22.08-2.08 42.08-25.45 67.53l-3.9 3.38c-14 11.17-36.88 10.39-53.5 8.57-18.18-2.08-34-12.47-34-32.47l24.15-28.57c0 16.62 11.43 27.79 27 31.17 14.54 3.12 33 3.12 47.27-.78 1.3-27-24.41-34.28-46.49-34.54-10.91 0-23.38.78-32.73-5.71-9.008-6.615-10.983-19.264-4.42-28.31 7.27-7.27 18.7-21 24.67-29.09 9.61-10.13 24.93-9.35 37.66-9.35h45.19z"/><path d="m8920.17 194c23.71 23.71 72.55 58.32 43.62 95.78l-2.84 3.79c-11.85 15.17-24.18 29.4-37 44.1 17.54 22.29 34.61 44.1 51.68 66.38 18-17.07 36-33.67 54.05-50.26-13.75 19.92-30.82 40.78-48.84 56.9l48.86 63.11-43.62 52.2-54.53-69.7c-54.06 50.26-62.12 57.85-70.18 65-5.69 5.22-5.22 4.74-10.91-.95-23.231-23.71-65-54.53-37.46-91 15.65-20.39 32.24-43.62 51.68-59.27-18-23.23-43.62-50.74-20.86-81.08zm-72.07 206.78c-.95 22.29 12.8 33.67 46.94 67.81 5.689 5.69 4.74 5.22 10.91-.47l20.39-18.49-53.111-68.75zm68.75-72.55c3.79-2.85 7.589-6.16 11.85-9 .07-4.966-.57-9.916-1.9-14.7-7.111-22.76-24.66-31.77-46.47-53.58-8.52 30.81 19.45 55.47 36.52 77.28z"/><path d="m9152.54 358.46v-55.66h-72.16l20.24-24.2h51.92v-49.72c-27.94 0-51.26-2.86-70.18 6.6-4.4 15.4-2 33.22-2 49.06v49.72l-20.46 24.2v-63.8c0-9.9-.879-20.24.88-29.92 1.76-9.46 6.6-16.72 12.54-24 11.88-14.52 22.44-29.26 41.58-33.88 9.9-2.42 20-2.42 29.92-2.42h28.18v129.8zm63.14-75.02c0 13.2-1.54 27.94 5.28 39.82 3.52 6.38 10.78 12.54 22.44 12.54l-20.24 24.2c-19.8 0-27.06-17.38-27.72-34.54-.88-19.8-.22-39.82-.22-59.62l20.46-24.2zm0-17.6 20.24-24.2h44.66l-20.46 24.2zm135.08 0c-19.36 0-42.68-3.74-60.06 6.16-7.028 19.782-.011 41.822 17.16 53.9 18 12.76 43.12 10.34 59-5.06l4.4-5.06-8.8 10.78c-4 4.62-7.92 9.46-12.1 14.08-6.38 7.48-14.3 13.42-24 16.06-38.06 10.56-71.72-30.36-53.9-65.56 4.62-9 12.32-16.72 18.7-24.42 6.16-7 11.88-14.3 20-18.92 8.361-4.84 17.16-6.38 26.62-6.16h33.44zm59.62-9.68c21.12-23.54 60.94-16.72 71.28 13.86 3.3 10.56 2 15.62 2 30.8v33.44l-20.24 24.2v-35.64c0-11.88.88-24-4.84-34.76-10.559-20-36.08-27.94-56.1-17.38-3.3 9.9-2 20.9-2 31v32.56l-20.48 24.22v-148.28l20.48-24.18v81.84zm178.62 102.3v-29.26c-13.18 15.8-26.6 30.8-49 29.26-37.62-2.2-55.44-46.64-33-75.68 11.22-14.52 23.76-33.22 42-38.94 9.9-3.3 20.68-2.2 31-2.2h29.48v92.62zm-38.28-92.62c-11 0-21.34.44-31 6.16-8.58 23.32 3.52 49.94 26.4 59 13.64 5.5 27.72 4.18 40.26-3.08 3.74-10.82 2.62-22.92 2.62-34.14v-27.94h-38.26zm80.76 92.62v-92.62l20.46-24.2v92.62zm2.2-120.56 9.24-27.72 20.46-24.2-9.24 27.72zm115.32 27.94c-19.36 0-42.68-3.74-60.06 6.16-7.028 19.782-.011 41.822 17.16 53.9 18 12.76 43.12 10.34 59-5.06l4.4-5.06-8.8 10.78c-4 4.62-7.92 9.46-12.1 14.08-6.38 7.48-14.3 13.42-24 16.06-38.06 10.56-71.72-30.36-53.9-65.56 4.62-9 12.321-16.72 18.7-24.42 6.16-7 11.88-14.3 20-18.92 8.36-4.84 17.16-6.38 26.621-6.16h33.439zm-666.91 141.9c6.82-8.36 13.64-17.6 23.1-23.1 12.096-6.889 26.643-7.992 39.64-3.006s23.074 15.535 27.46 28.746c2.86 8.8 2.42 15.4 2.42 24.86v73l-20.46 24.2v-48c0-15 2.2-31.9-1.32-46.42-7.26-29.48-41.8-44.22-68.2-29-5.5 15.18-2.64 33.66-2.64 49.5v49.72l-20.46 24.2v-129.54l20.46-24.42zm211.64 23.76c0 6.38.44 13.2-2.419 19.14-2.861 5.94-7.921 11-12.101 16.06-21.12 25.74-24.64 24.2-58.3 24.2l20.46-24.42c9.68 0 22.441.66 31.901-2 .439-4.4.219-8.8.219-13.2v-11.42h-17.38c-14.74 0-29.48-1.32-42.9 6.38-7 19.36.22 41.8 17.16 53.68 18 12.76 44.441 10.34 59-5.06l4.401-5.06c-4.401 5.72-6.381 8.14-8.361 10.34-3.52 4.4-7.26 8.8-11 13-6.82 8.14-14.74 14.52-24.86 17.6-37.84 11-72.16-29.26-54.779-64.9 4.619-9 12.099-16.94 18.699-24.64 5.94-7 11.88-14.52 20-19.36 9.24-5.28 19.14-6.16 29.48-6.16h30.8v15.82zm177.27-15.84c0 19.14.66 37.62-4.84 54.78-5.28 15.84-16.28 27.94-26.84 40.48-5.28 5.94-10.34 12.1-16.72 16.72-2.2 1.54-5.06 4-7.48 4.62-3.3 1.1-6.82-2-9.68-4-12.32-8.8-20.46-21.78-24.64-36.3-8.8 11.44-18.26 24.2-29.26 33.22-3.519 3.08-9.46 8.36-13.86 6.82-5.72-2-11.659-7.7-15.619-11.88-20.241-21.56-19.581-52.14-19.581-79.64l20.52-24.82c0 20.24-.88 41.14 6.82 60.06 3.614 9.258 9.339 17.545 16.72 24.2 3.3 2.86 7 5.94 11.22 7.7 4 1.54 6.6-1.1 10.12-3.52 6.38-13.42 8.58-28.6 8.8-43.34-.22-6.82 0-13.64 0-20.24l20.24-24.86c0 19.8-.66 40.7 6.601 59.4 3.446 8.818 8.776 16.777 15.619 23.32 5.059 5.06 12.759 10.12 15.62 10.12 2.2-.22 5.5-3.3 7.26-4.4 9.459-20 8.799-42 8.799-63.58zm35.91 29.04c13-15.62 26.401-30.36 48.84-29 19.034 1.119 35.443 13.774 41.36 31.9 3.768 11.215 2.978 23.462-2.2 34.1-5.059 10.78-14.08 19.58-21.559 28.38-6.161 7.26-12.321 14.08-20.901 18-9.24 4.18-18.7 4.4-28.599 4.4h-37.401v-148.28l20.46-24.2zm0 31v32.56h46c8.204-.004 16.257-2.207 23.32-6.38 14.52-39.82-29.919-76.78-66.66-55.88-3.32 9.7-2.66 19.82-2.66 29.72zm159.28-60.04c9 0 17.82-.22 26.4 2.42 15.84 4.62 25.52 17.82 27.94 33.88 2 15.62-.44 27.94-16.28 47.08-11 13.42-21.34 27.94-39.16 32.12-36.52 8.8-67.76-29.26-53-63.58l20.46-24.2c-17.38 40.26 27.5 80.3 65.56 58.52 6.6-18.7 2-44.22-15.839-55.22-9.241-5.72-19.581-6.82-30.141-6.82h-34.56l20.241-24.2zm88.88 41.8c0 13.2-1.54 27.94 5.28 39.82 3.52 6.38 10.78 12.54 22.44 12.54l-20.24 24.18c-19.8 0-27.06-17.38-27.72-34.54-.88-19.8-.22-39.82-.22-59.62l20.46-24.2v41.8zm0-17.6 20.241-24.2h44.689l-20.46 24.2h-44.44zm97.46-9.68c21.12-23.54 60.94-16.72 71.281 13.86 3.299 10.56 2 15.62 2 30.8v33.44l-20.241 24.2v-35.64c0-11.88.88-24-4.84-34.76-10.56-20-36.08-27.94-56.1-17.38-3.3 9.9-2 20.68-2 31v32.56l-20.46 24.2v-92.6l20.46-24.2v26.18z"/><path d="m10519.81 197.9c-39.081 0-83.43-6.82-117.231 17.37-18.92 39.39-6.51 87.77 28.53 113.51 35.361 25.75 85.29 23.89 116.891-7.78l7.75-9 4.34-5c-11.664 16.602-24.739 32.167-39.08 46.52-13.34 13-30.08 22.33-48.691 25.43-72.259 13-130.88-64.2-98-130.26 8.061-16.13 21.091-29.77 32.87-43.42 10.551-12.72 21.401-24.19 36.29-31.94 15.821-8.06 32.571-9.61 50.241-9.92h54.9z"/><path d="m10691 380.58v-78.47h-101.72l28.53-34.11h73.19v-70.1c-39.39 0-72.26-4-98.93 9.3-6.2 21.71-2.79 46.83-2.79 69.16v70.09l-28.84 34.12v-89.93c0-14-1.24-28.53 1.24-42.18 2.48-13.34 9.3-23.57 17.68-33.81 16.74-20.47 31.64-41.25 58.64-47.76 14-3.41 28.22-3.41 42.18-3.41h39.7v183zm59.86 0v-182.68l28.84-34.43v183zm28.84-182.68 28.84-34.43h101.73l-28.84 34.43zm0 91.18 28.84-34.08h62.34l-28.53 34.12h-62.65zm133.67 91.5v-182.68l28.84-34.43v183zm28.84-182.68 28.84-34.43h101.73l-28.84 34.43zm0 91.18 28.84-34.08h62.34l-28.53 34.12h-62.65zm292.79 57.07-28.53 34.43h-130.59v-183l28.53-34.12v182.69zm-130.59-148.56 28.84-34.12h101.75l-28.53 34.12h-102zm0 91.49 28.84-34.43h62.65l-28.84 34.43zm14.59-191.08 59.86 40.32 13.34 15.82-59.86-40.32zm-733.68 350.17c6.77-8.3 13.54-17.47 22.92-22.92 12.003-6.839 26.442-7.936 39.34-2.989 12.899 4.947 22.899 15.417 27.25 28.529 2.84 8.73 2.4 15.28 2.4 24.67v72.48l-20.3 24v-47.57c0-14.85 2.18-31.66-1.31-46.07-7.21-29.26-41.48-43.88-67.68-28.82-5.46 15.06-2.62 33.4-2.62 49.12v49.34l-20.32 24.06v-128.63l20.3-24.23v29zm205.88 123.83v-55.27h-71.61l20.09-24h51.52v-49.36c-27.73 0-50.87-2.84-69.65 6.55-4.37 15.28-2 33-2 48.69v49.34l-20.3 24v-63.3c0-9.82-.87-20.09.87-29.69 1.75-9.39 6.55-16.59 12.44-23.8 11.79-14.41 22.27-29 41.26-33.62 9.82-2.4 19.87-2.4 29.69-2.4h27.99v128.81zm-61.79-159.41 9.82-12h16.59l-9.82 12zm25.33 0 9.82-12h16.59l-9.82 12zm180.98 30.78c-27.51 0-58.73-4.8-82.53 12.23-13.32 27.73-4.58 61.78 20.09 79.91 24.89 18.12 60 16.81 82.31-5.46l5.46-6.33 3.06-3.49c-8.213 11.695-17.421 22.659-27.52 32.77-9.327 9.333-21.292 15.581-34.281 17.9-50.87 9.17-92.129-45.19-68.999-91.7 5.679-11.35 14.849-21 23.139-30.57 7.42-9 15.061-17 25.54-22.49 11.13-5.68 22.92-6.77 35.37-7h38.641z"/><path d="m10764.1 572v-128.63l20.299-24.23v128.81zm91.9 0v-64.44h-71.601l20.09-24h51.511v-40.19l20.3-24.23v128.81zm145.63-152.87-20.3 24h-31c-10.48 0-21.4-.87-31.66 2-.87 18.78 14.85 27.73 31.66 28.82 16.159.87 34.93 1.09 45.19 15.94 7.2 10 9.389 29.91-1.31 43.88l-10.261 12.43-10.26 11.8c-13.32 14.41-36.24 15.94-54.359 12.23-17.9-3.93-29.91-16.59-29.91-35.37l20.3-24c0 16.16 8.729 28.6 24 33.62 14.41 4.8 32.75 4.8 46.939-1.09 2.841-14.19-1.75-29.69-14.189-37.77-14-9-29.691-5.46-45.191-8.73-14.849-3.27-24.449-15.06-22.489-30.57 1.31-8.51 7-14.41 12.23-20.74 19-23.8 21.4-26.63 50-26.63 13.54-.03 27.08.18 40.61.18z"/><path d="m10997.26 443.37 20.3-24.23h101.08l-20.3 24.23zm50.66 128.63v-104.4l20.08-24.23v104.58zm187.08-24.27-20.07 24.27h-91.93v-128.85l20.09-24v128.58zm-91.9-104.58 20.299-24h71.601l-20.09 24zm0 64.41 20.299-24.23h44.101l-20.3 24.23z"/><path d="m11941.65 240.31c14.31-17 28.35-34 52.92-31.05 21.87 2.7 39.42 21.06 40.231 43.2v70.2l-24.801 29.7v-41.31c0-13.77 1.891-29.43-3-42.39-8.909-24.57-37.8-36.72-61.56-25.65-3.24 12.15-1.62 26.46-1.62 39.15v40.5l-24.82 29.7v-41.31c0-13.77 1.891-29.43-2.699-42.39-9.181-24.57-38.071-36.72-61.83-25.65-3.241 12.42-1.351 26.73-1.351 39.69v40l-25.12 29.66v-113.67l25.091-29.69v28.62c12.42-14.85 24.84-29.16 45.899-28.62 19.415.353 36.503 12.894 42.66 31.31zm222.21 112.05v-35.91c-16.2 19.44-32.67 37.8-60.21 35.91-46.17-2.7-68-57.24-40.5-92.88 13.77-17.82 29.161-40.77 51.571-47.79 12.149-4 25.38-2.7 38.069-2.7h36.21v113.67zm-47-113.67c-13.5 0-26.19.54-38.07 7.56-10.529 28.62 4.32 61.29 32.4 72.36 16.741 6.75 34 5.13 49.411-3.78 4.589-13.23 3.24-28.08 3.24-41.85v-34.29h-47zm136.37-11.88c25.92-28.89 74.791-20.52 87.48 17 4 13 2.431 19.17 2.431 37.8v41l-24.84 29.7v-43.69c0-14.58 1.08-29.43-5.941-42.66-13-24.57-44.28-34.29-68.849-21.33-4 12.15-2.431 25.38-2.431 38.07v40l-25.08 29.66v-113.67l25.08-29.69v32.13zm154.44 0c25.921-28.89 74.79-20.52 87.48 17 4 13 2.43 19.17 2.43 37.8v41l-24.84 29.7v-43.69c0-14.58 1.08-29.43-5.939-42.66-13-24.57-44.28-34.29-68.851-21.33-4.05 12.15-2.429 25.65-2.429 38.07v40l-25.111 29.7v-182l25.111-29.7v100.42zm219.24 125.55v-35.91c-16.2 19.44-32.67 37.8-60.21 35.91-46.17-2.7-68-57.24-40.5-92.88 13.771-17.82 29.16-40.77 51.571-47.79 12.149-4 25.379-2.7 38.07-2.7h36.159v113.67zm-47-113.67c-13.5 0-26.189.54-38.069 7.56-10.53 28.62 4.319 61.29 32.399 72.36 16.74 6.75 34 5.13 49.41-3.78 4.59-13.23 3.241-28.08 3.241-41.85v-34.29h-47zm-18.359-70.2c3.315-3.582 8.069-5.48 12.94-5.166 4.871.315 9.341 2.807 12.169 6.786 3 4.05 4.32 8.91 8.1 12.15 3.78 3 8.91 4.59 13.5 3.51.27-1.62 1.35-2.16 2.43-3.51l10.31-12.15c-.146 3.898-1.463 7.662-3.78 10.8l-12.42 14.85c-3.381 3.606-8.212 5.489-13.142 5.121-4.929-.367-9.429-2.944-12.238-7.011-2.7-3.78-4-8.64-8.1-11.88-3.726-3.173-8.7-4.466-13.5-3.51 0 1.35-1.08 2.16-2.16 3.51l-10.26 12.15c.018-3.921 1.348-7.724 3.781-10.8zm-595.131 294.01c0 23.49 4.32 50.76-9.18 71.28-6.75 10.53-15.389 19.44-23.219 28.89-7.831 9.18-15.93 17.55-27 22.14-21.667 9.15-46.727 4.116-63.18-12.69l-9.45-10 25.92-30.78c15.66 26.73 50.759 36.18 77.759 20.79 3.781-10.8 3.51-21.87 3.51-33.21v-33.47c-8.64 10-16.47 21.06-27.809 27.81-14.377 8.578-31.807 10.374-47.631 4.909-15.825-5.466-28.431-17.636-34.45-33.259-8.91-23-.809-44.55 14-62.64 14.31-17.55 28.081-37.8 51.571-42.93 11.609-2.43 24-1.62 36.179-1.62h32.941v84.78zm-72.899-54.81c-13.231 0-25.651.81-37.26 7.56-10.261 28.62 4.319 61.29 32.399 72.36 17 6.75 34 4.86 49.41-3.78 5.13-14 3.51-29.43 3.51-44v-32.14zm202.479 113.4v-35.91c-16.199 19.44-32.67 37.8-60.21 35.91-46.17-2.7-68-57.24-40.5-92.88 13.771-17.82 29.16-40.77 51.57-47.79 12.151-4.05 25.38-2.7 38.071-2.7h36.179v113.67zm-47-113.67c-13.5 0-26.189.54-38.069 7.56-10.531 28.62 4.319 61.29 32.399 72.36 16.74 6.75 34 5.13 49.41-3.78 4.59-13.23 3.24-28.08 3.24-41.85v-34.29zm124.511 21.58c0 16.2-1.891 34.29 6.479 48.87 4.321 7.83 13.231 15.39 27.54 15.39l-24.84 29.74c-24.299 0-33.21-21.33-34-42.39-1.08-24.3-.27-48.87-.27-73.17l25.11-29.7v51.26zm0-21.6 24.84-29.7h54.809l-25.109 29.7zm185.489 67.52 5.4-6.21-10.799 13.23c-4.861 5.67-9.72 11.61-14.851 17.28-7.83 9.18-17.55 16.47-29.43 19.71l-3.78.81v1.35h1.62c2.54.083 5.03.729 7.29 1.89 8.37 4.32 12.42 12.42 10.8 21.33-1.35 8.1-8.369 14-13.229 20-11.071 13.5-23.22 15.12-33.75 4.59l-2.701-3 13-15.12c4.795 8.38 14.964 12.04 24 8.64 1.317-6.209-.5-12.668-4.86-17.28-3.393-3.639-8.037-5.858-13-6.21h-1.62v-14.84c-39.15-.81-69.12-44.55-50-82.62 5.67-11.07 15.12-20.52 23-30 7.56-8.64 14.58-17.55 24.57-23.22 10.26-5.94 21.06-7.83 32.67-7.56h41l-25.11 29.7c-23.76 0-52.38-4.59-73.71 7.56-8.624 24.277-.012 51.327 21.06 66.15 22.22 15.69 53 12.72 72.43-6.18z"/><path d="m12430 377.72c11.07 0 21.87-.27 32.4 3 19.44 5.67 31.32 21.87 34.29 41.58 2.43 19.17-.54 34.29-20 57.78-13.5 16.47-26.19 34.29-48.06 39.42-44.82 10.8-83.16-35.91-65.07-78l25.11-29.7c-21.33 49.41 33.75 98.55 80.46 71.82 8.1-23 2.43-54.27-19.44-67.77-11.34-7-24-8.37-37-8.37h-42.35l24.84-29.7h34.82zm121 17.82c25.92-28.89 74.79-20.52 87.48 17 4 13 2.43 19.17 2.43 37.8v41l-24.91 29.75v-43.74c0-14.58 1.08-29.43-5.94-42.66-13-24.57-44.28-34.29-68.85-21.33-4.05 12.15-2.43 25.38-2.43 38.07v40l-25.11 29.7v-113.71l25.11-29.7v32.13z"/><path d="m12967.39 17.1-7.38 8.83v4.37h35.7v35.39l11.16-13.19v-52.5h-11.16v17.1zm97.92-.12h-24.241l-11.16 13.32h24.24z"/><path d="m13069.39 65.69 11.04-13.31h-50.521v-52.38h-11.029v65.69zm89.4-49.31c.6 8.52.119 17.16.119 25.8v23.52l11-13.2c0-16.08.24-32 0-48 .018-1.513.189-3.021.511-4.5h-20.32c5.1 3.972 8.261 9.931 8.691 16.38zm45.48 0c.6 8.52.12 17.16.12 25.8v23.52l11-13.2v-26.4c0-13 1-15.72-.12-24.72-.06-.47-.15-.92-.241-1.38h-19.5c5.12 3.96 8.301 9.922 8.741 16.38zm-79.68 36.12v-41.88c0-3.5-.22-7.08.46-10.62h-11.62v65.7zm103.8-37.92c-1 5.28-.481 10.92-.481 16.32v34.8l11.16-13.2v-27.12c0-8.17-1.179-17.3.731-25.38h-3.351l-1.22 1.5c-3.219 3.96-5.879 7.92-6.839 13.08z"/><path d="m13250.11 22.14-11.04 13.2h39.361v30.35l11.16-13.19v-52.5h-11.16v22.14zm101.281-7.92c1.92 7.92.719 17.16.719 25.32v26.16l11.161-13.2v-39.84c0-4.83.189-8.3-1.061-12.66h-20.48c4.816 3.434 8.243 8.478 9.661 14.22zm-38.641 38.28v-27.12c0-8.08-1.359-17.43.92-25.38h-12.079v65.7zm64.681 2.16c5.295 7.682 14.356 11.868 23.638 10.92 10.322-1.2 16.322-8.4 22.561-15.84v16l11-13.2v-52.54h-11v22.14c0 8.52 1.44 18.72-1.56 26.88-14 8-32.4.72-36.84-14.88-2.4-8.16-1.08-17.76-1.08-26.28v-7.86h-11v25.74c-.04 9.72-1.48 20.4 4.281 28.92zm81.96-30.24c8.519 1.8 17.16-.12 24.839 4.8 6.84 4.44 9.361 13 7.8 20.76-7.8 3.24-17.88 3.24-25.8.6-8.4-2.76-13.219-9.58-13.219-18.48l-11.141 13.2c0 10.32 6.601 17.28 16.441 19.44 9.839 2.16 22.559 1.2 29.879-6.72l5.64-6.48 5.641-6.84c5.88-7.68 4.679-18.6.719-24.12-5.639-8.16-16-8.28-24.839-8.76-7.941-.52-15.42-4.24-17.071-11.82h-7.639c-1.848 2.183-3.099 4.809-3.629 7.62-1.061 8.52 4.218 15 12.379 16.8zm90.479 40.68c7.139-1.276 13.714-4.71 18.84-9.84 5.548-5.554 10.607-11.576 15.12-18l-1.68 1.92-3 3.48c-12.24 12.24-31.56 13-45.24 3-13.64-10.164-18.24-28.527-11-43.92.863-.624 1.758-1.205 2.68-1.74h-2.75c-4 4.59-8.18 9.28-10.89 14.7-12.721 25.56 9.96 55.44 37.92 50.4zm84-45.24c-7.8 3.24-19.559 2.28-27.84 2.28l-11 13.2h24.241l15.08 30.36 11.16-13.2-13.441-26.76 5-6 4.321-5.28c3.103-4.145 4.528-9.309 3.988-14.46h-18.099c5.9 4.62 8.15 12.24 6.59 19.86zm-38.88 32.64v-52.5h-11.16v65.69zm71.281 0v-52.5h-11.161v65.69zm62.04-32.64c-7.8 3.12-19.561 2.28-27.72 2.28l-11.16 13.2c8.519 0 20.88 1.08 28.799-2.76 3.84-1.8 6.361-4.68 9-7.8 1.44-1.56 2.76-3.24 4.201-4.92l4.439-5.4c3.039-4.177 4.461-9.315 4-14.46h-18.15c5.9 4.62 8.15 12.24 6.591 19.86zm-38.88 32.64v-52.5h-11.16v65.69zm79.559 13.19 11.04-13.19v-52.5h-4.13l-6.91 8.34zm83.04-13.19v-52.5h-11.16v65.69zm24.72-28.08c8.521 1.8 17.16-.12 24.841 4.8 6.84 4.44 9.359 13 7.8 20.76-7.8 3.24-17.88 3.24-25.8.6-8.401-2.76-13.2-9.6-13.2-18.48l-11.161 13.2c0 10.32 6.6 17.28 16.44 19.44 9.841 2.16 22.56 1.2 29.881-6.72l5.639-6.48 5.64-6.84c5.88-7.68 4.681-18.6.721-24.12-5.641-8.16-16-8.28-24.841-8.76-7.939-.52-15.43-4.24-17.069-11.82h-7.63c-1.841 2.186-3.085 4.811-3.611 7.62-1.089 8.52 4.191 15 12.35 16.8zm105 41.27 11.03-13.19v-52.5h-4.13l-6.9 8.34zm52.44-13.19v-52.5h-11.16v65.69zm38.871-32.64c-7.8 3.24-19.561 2.28-27.84 2.28l-11 13.2h24.239l15.12 30.36 11.16-13.2-13.439-26.76 5-6 4.319-5.28c3.091-4.15 4.502-9.314 3.95-14.46h-18.099c5.909 4.62 8.159 12.24 6.59 19.86zm20.649-5.28c-1 5.28-.48 10.92-.48 16.32v34.8l11.161-13.2v-27.12c0-8.17-1.181-17.3.729-25.38h-3.349l-1.22 1.5c-3.24 3.96-5.881 7.92-6.841 13.08z"/><path d="m14115.43 22.14-11.04 13.2h39.349v30.35l11.16-13.19v-52.5h-11.16v22.14zm101.269-7.92c1.921 7.92.721 17.16.721 25.32v26.16l11.16-13.2v-39.84c0-4.83.19-8.3-1.06-12.66h-20.51c4.826 3.429 8.263 8.474 9.689 14.22zm-38.639 38.28v-27.12c0-8.08-1.361-17.43.919-25.38h-12.069v65.7zm75.24-28.08c8.519 1.8 17.16-.12 24.84 4.8 6.839 4.44 9.36 13 7.799 20.76-7.799 3.24-17.879 3.24-25.799.6-8.401-2.76-13.201-9.6-13.201-18.48l-11.16 13.2c0 10.32 6.601 17.28 16.441 19.44s22.559 1.2 29.88-6.72l5.639-6.48 5.641-6.84c5.88-7.68 4.68-18.6.72-24.12-5.64-8.16-16-8.28-24.84-8.76-7.941-.52-15.42-4.23-17.071-11.82h-7.639c-1.841 2.186-3.085 4.811-3.611 7.62-1.07 8.52 4.201 15 12.361 16.8zm90.479 40.68c7.139-1.276 13.715-4.71 18.841-9.84 5.548-5.554 10.608-11.576 15.12-18l-1.679 1.92-3 3.48c-12.241 12.24-31.561 13-45.241 3-13.64-10.164-18.24-28.527-11-43.92.864-.624 1.758-1.205 2.68-1.74h-2.75c-4 4.59-8.18 9.28-10.89 14.7-12.71 25.56 9.97 55.44 37.92 50.4zm45.12-29.76h11.111v-13.2h-.071zm0 17.16v-52.5h-11.16v65.69zm-1392.229 125.19 11.16-13.19v-70.8l-11.16 13.32v22.08h-28.32l-8.34 9.97v3.23h36.66zm84.72-13.31h-50.52v-70.68l-11.03 13.2v70.79h50.51z"/><path d="m13081.39 93.7h-39.361l-11.159 13.2h39.48zm-15.12 35.28h-24.241l-11.159 13.32h24.239zm83.879-35.28h-39.359l-11.16 13.2h39.479zm-15.12 35.28h-24.239l-11.16 13.32h24.24z"/><path d="m13150.15 164.38h-50.519v-70.68l-11.03 13.2v70.79h50.509zm55.56-57.36 11.16-13.32h-55.559l-11.151 13.32zm-27.72 70.67 11.04-13.19v-57.48l-11.04 13.32zm46.8-41.27c8.521 1.8 17.16-.12 24.841 4.8 6.84 4.44 9.359 13 7.8 20.76-7.8 3.24-17.88 3.24-25.8.6-8.401-2.76-13.2-9.6-13.2-18.48l-11.16 13.2c0 10.32 6.599 17.28 16.439 19.44 9.841 2.16 22.561 1.2 29.881-6.72l5.639-6.48 5.64-6.84c5.88-7.68 4.681-18.6.721-24.12-5.641-8.16-16-8.28-24.841-8.76-9.239-.6-17.88-5.52-17.399-15.84 5.639-1.56 11.639-1.08 17.399-1.08h17l11.16-13.2c-7.439 0-14.88-.12-22.319-.12-15.721 0-17 1.56-27.481 14.64-2.88 3.48-6 6.72-6.719 11.4-1.04 8.52 4.24 15 12.399 16.8zm118.801 40.68c12.599-2.28 20.159-10.92 27.84-20.28 4.2-4.92 8.16-9.72 10.319-15.84 2.4-6.72 2.881-12.48 1-20.4-2.781-11.125-10.791-20.208-21.48-24.36-5.759-2.28-11.759-2.52-17.999-2.52h-20l-11.26 13.3c16.2 0 34.8-3 48.12 8.4 12.201 10.479 15.888 27.825 9 42.36-14.25 10.088-33.705 8.396-46-4-11.761-11.88-13.32-31.08-3.841-44.88-3.239 4.68-7.68 8.52-11 13.2-3.245 4.542-5.308 9.821-6 15.36-1.633 11.242 2.26 22.58 10.453 30.448 8.194 7.869 19.681 11.299 30.847 9.212zm95.159-48h-24.119l-11.16 13.2h24.239zm15.24-35.4h-39.359l-11.16 13.32h39.359zm-50.519 48.6v-48.6l-11.16 13.32v70.67l11.16-13.19zm94.679 5.04v-40.34c9.481 0 20.64-1.44 29.401 3.12 8 4.2 11.279 13 9.479 21.72-7.8 3.12-19.559 2.28-27.719 2.28l-11.161 13.2c8.52 0 20.88 1.08 28.8-2.76 3.84-1.8 6.361-4.68 9-7.8 1.441-1.56 2.76-3.24 4.2-4.92l4.441-5.4c4.557-6.341 5.323-14.653 2-21.72-3.84-7.92-12.84-10.44-21-10.92-9.12-.48-18.361-.12-27.481-.12l-11.099 13.32v70.7l11.16-13.2v-17.16zm55.441 30.36 11.159-13.2v-27.12c0-8.64-1.319-18.36 1.08-26.76 10.32-5.16 23-3.6 38.28-3.6v27.12h-28.32l-11 13.2h39.32v30.36l11.161-13.2v-70.8h-15.361c-5.399 0-10.92 0-16.319 1.32-10.441 2.52-16.2 10.56-22.681 18.48-3.24 4-5.88 7.92-6.84 13.08s-.479 10.92-.479 16.32zm84.84-30.36v-40.34c9.479 0 20.639-1.44 29.399 3.12 8 4.2 11.28 13 9.481 21.72-7.8 3.12-19.561 2.28-27.72 2.28l-11.16 13.2c8.519 0 20.88 1.08 28.799-2.76 3.84-1.8 6.361-4.68 9-7.8 1.44-1.56 2.76-3.24 4.201-4.92l4.439-5.4c4.558-6.341 5.323-14.653 2-21.72-3.84-7.92-12.84-10.44-21-10.92-9.12-.48-18.36-.12-27.48-.12l-11.119 13.32v70.7l11.159-13.2zm120.479-53.64h-39.359l-11.16 13.2h39.479z"/><path d="m13758.91 164.38h-50.519v-70.68l-11.04 13.2v70.79h50.519z"/><path d="m13743.78 128.98h-24.23l-11.159 13.32h24.239zm33.491 18.36v-40.34c9.479 0 20.639-1.44 29.399 3.12 8 4.2 11.28 13 9.48 21.72-7.799 3.24-19.56 2.28-27.839 2.28l-11 13.2h24.2l15.119 30.36 11.16-13.2-13.439-26.76 5-6 4.319-5.28c7.44-9.84 4.44-25.2-7.199-30.24-5.841-2.5-12.46-2.5-18.801-2.5h-20.399l-11.161 13.3v70.7l11.161-13.2zm134.87 22.92 6.359-7.56c1.561-1.8 3.48-4.44 4.8-5.88 4.2-5.28 4.801-12 3.721-17.28-3.121-15.36-19.92-15.48-32.401-15.48l-11.16 13.2c8.52 0 17.761-.6 25.08 4.32 6.721 4.56 8.88 12.84 7.32 20.52-8.759 3.6-19.08 2.4-28.32 2.4h-15.6v-70.8l-11.15 13.3v70.7h24.221c9.489 0 20.17.24 27.13-7.44z"/><path d="m13904.82 112.06c2.659 2.67 4.104 6.314 4 10.08l11-13.2c0-18.36-23.519-15.24-35.759-15.24l-11.05 13.3c13.21 0 24.489-2.26 31.809 5.06zm52.68 40.32v25.32l11.16-13.2v-19.56c3.304-3.308 6.425-6.793 9.351-10.44 3.384-3.884 6.471-8.016 9.24-12.36 4.92-8.52 6.6-18.6 6.72-28.44l-11.15 13.3c0 9.36-1.56 19-6 27.24-2 1.56-4.8 4-7.2 4.56s-4.8-1.56-6.72-2.88c-4.177-2.738-7.8-6.239-10.68-10.32-6.481-9.36-8.76-20.76-8.76-31.92l-11.16 13.32c0 9.48 1.679 19.32 6.36 27.72 4.199 7.94 15.6 17.9 18.84 17.66zm69.601 25.32 11.16-13.2v-27.12c0-8.64-1.321-18.36 1.079-26.76 10.32-5.16 23-3.6 38.28-3.6v27.12h-28.319l-11 13.2h39.359v30.36l11.16-13.2v-70.8h-15.36c-5.399 0-10.92 0-16.319 1.32-10.441 2.52-16.201 10.56-22.681 18.48-3.239 4-5.88 7.92-6.84 13.08s-.479 10.92-.479 16.32v34.8zm105.839-30.36v-40.34c9.48 0 20.64-1.44 29.4 3.12 8 4.2 11.28 13 9.48 21.72-7.799 3.12-19.559 2.28-27.719 2.28l-11.161 13.2c8.52 0 20.88 1.08 28.8-2.76 3.84-1.8 6.361-4.68 9-7.8 1.441-1.56 2.76-3.24 4.2-4.92l4.44-5.4c4.558-6.341 5.323-14.653 2-21.72-3.84-7.92-12.84-10.44-21-10.92-9.12-.48-18.36-.12-27.481-.12l-11.119 13.32v70.7l11.159-13.2zm70.071 0v-40.34c9.479 0 20.639-1.44 29.399 3.12 8 4.2 11.28 13 9.481 21.72-7.801 3.24-19.561 2.28-27.84 2.28l-11 13.2h24.239l15.12 30.36 11.16-13.2-13.44-26.76 5-6 4.32-5.28c7.441-9.84 4.441-25.2-7.2-30.24-5.88-2.52-12.479-2.52-18.84-2.52h-20.399l-11.151 13.32v70.7l11.151-13.2zm97 29.76c12.599-2.28 20.159-10.92 27.84-20.28 4.2-4.92 8.16-9.72 10.319-15.84 2.4-6.72 2.881-12.48 1-20.4-2.781-11.125-10.791-20.208-21.481-24.36-5.758-2.28-11.758-2.52-17.999-2.52h-20l-11.269 13.3c16.199 0 34.8-3 48.119 8.4 12.199 10.481 15.885 27.825 9 42.36-14.25 10.088-33.705 8.396-46-4-11.76-11.88-13.319-31.08-3.84-44.88-3.24 4.68-7.679 8.52-11 13.2-3.245 4.542-5.307 9.821-6 15.36-1.635 11.244 2.259 22.585 10.455 30.454 8.197 7.868 19.687 11.297 30.855 9.206zm95.13-48h-24.12l-11.161 13.2h24.241zm-35.281-22.08h39.35l.801-.95v-12.37h-28.99z"/><path d="m14348.7 107.02v70.67l11.16-13.19v-70.8zm-1355.51 182.68 11.161-13.2v-70.8h-15.341c-5.4 0-10.92 0-16.32 1.32-4.775 1.2-9.149 3.639-12.68 7.07v6.56c9.33-2.72 20.36-1.65 33.179-1.65v27.12h-28.319l-4.86 5.88v7.38h33.179zm34.32-30.36v-40.34c9.48 0 20.64-1.44 29.4 3.12 8 4.2 11.28 13 9.481 21.72-7.801 3.12-19.561 2.28-27.721 2.28l-11.16 13.22c8.52 0 20.881 1.08 28.801-2.76 3.839-1.8 6.359-4.68 9-7.8 1.439-1.56 2.759-3.24 4.199-4.92l4.44-5.4c4.558-6.341 5.323-14.653 2-21.72-3.84-7.92-12.84-10.44-21-10.92-9.12-.48-18.36-.12-27.48-.12l-11.119 13.3v70.7l11.159-13.2zm105.36-18.36h-24.24l-11.16 13.32h24.24zm15.12-35.28h-39.36l-11.16 13.2h39.48z"/><path d="m13147.99 276.38h-50.519v-70.68l-11.04 13.2v70.79h50.519zm64.8-37.92c7.44-9.84 4.44-25.2-7.2-30.24-5.88-2.52-12.48-2.52-18.84-2.52h-20.399l-11.161 13.3v70.7l11.161-13.2v-57.5c9.479 0 20.639-1.44 29.399 3.12 8 4.2 11.28 13 9.48 21.72-7.799 3.24-19.56 2.28-27.839 2.28l-11 13.2h24.239l15.08 30.38 11.16-13.2-13.439-26.76 5-6zm48.24-32.76-11.16 13.2v70.79l11.16-13.19zm24.72 42.72c8.521 1.8 17.16-.12 24.84 4.8 6.841 4.44 9.36 13 7.801 20.76-7.801 3.24-17.881 3.24-25.801.6-8.4-2.76-13.199-9.6-13.199-18.48l-11.161 13.2c0 10.32 6.6 17.28 16.44 19.44s22.56 1.2 29.88-6.72l5.64-6.48 5.64-6.84c5.88-7.68 4.68-18.6.72-24.12-5.64-8.16-16-8.28-24.84-8.76-9.239-.6-17.88-5.52-17.399-15.84 5.639-1.56 11.639-1.08 17.399-1.08h17l11.16-13.2c-7.439 0-14.88-.12-22.32-.12-15.72 0-17 1.56-27.48 14.64-2.88 3.48-6 6.72-6.719 11.4-1.04 8.52 4.239 15 12.399 16.8zm77.16-29.42v70.7l11.16-13.2v-57.5c9.48 0 20.64-1.44 29.401 3.12 8 4.2 11.279 13 9.479 21.72-7.8 3.12-19.559 2.28-27.72 2.28l-11.16 13.2c8.52 0 20.88 1.08 28.8-2.76 3.84-1.8 6.36-4.68 9-7.8 1.441-1.56 2.76-3.24 4.2-4.92l4.44-5.4c4.557-6.341 5.323-14.653 2-21.72-3.84-7.92-12.84-10.44-21-10.92-9.12-.48-18.361-.12-27.481-.12zm81.24-13.3-11.14 13.3v70.7h19c5.761 0 11.64.48 17.28-.72 6-1.2 10.2-4.32 14.16-8.76s8.16-8.88 11.28-13.92c-1.68 1.92-2.879 3.36-4.08 4.68-6.6 6.6-17.28 5.52-26.28 5.52h-20.22zm83.04 1.3c-10.44 2.52-16.2 10.56-22.68 18.48-3.239 4-5.88 7.92-6.84 13.08s-.48 10.92-.48 16.32v34.8l11.161-13.2v-27.1c0-8.64-1.321-18.36 1.08-26.76 10.319-5.16 23-3.6 38.279-3.6v27.12h-28.319l-11 13.2h39.319v30.36l11.16-13.2v-70.8h-15.36c-5.4 0-10.92 0-16.32 1.3zm56.4 14.9c-4.56 5.28-9.6 10.56-12.72 16.8-12.72 25.56 10 55.44 37.92 50.4 7.139-1.276 13.714-4.71 18.84-9.84 5.548-5.554 10.607-11.576 15.12-18l-1.68 1.92-3 3.48c-12.24 12.24-31.56 13-45.24 3-13.641-10.164-18.24-28.527-11-43.92 13.04-9.36 30.18-6.74 45.32-6.74l11.16-13.3h-21.24c-6.84.12-13.32.72-19.44 3.84-5.76 3-9.96 7.46-14.04 12.36zm105.6 19.08h-24.24l-11.16 13.32h24.24zm-35.4-22.08h39.481l11.04-13.2h-39.361z"/><path d="m13642.75 218.9v70.79h50.52l11.04-13.31h-50.52v-70.68zm79.8.1c6.84 0 14.16-.36 20.76 1.92 6.086 2.11 11.481 5.845 15.599 10.8 8.726 10.718 10.544 25.485 4.681 38-8.16 5.88-17.16 6.72-26.88 6.72h-14.16v-70.74l-11.04 13.3v70.7h12.84c5.64 0 11.28.24 16.799-1.32 10.921-3 17.641-11.16 24.601-19.44 10.56-12.84 13.56-22.2 12.12-32.4-1.289-9.215-6.055-17.587-13.32-23.4-9.12-7.08-19.8-7.44-30.84-7.44zm88.68.02v70.67l11.16-13.19v-70.8zm46.43 22.08h-24.12l-11.15 13.2h24.24zm4.08-22.08 11.16-13.32h-39.36l-11.15 13.32zm34.09-12.02c-10.44 2.52-16.2 10.56-22.68 18.48-3.24 4-5.88 7.92-6.84 13.08s-.48 10.92-.48 16.32v34.8l11.18-13.18v-27.12c0-8.64-1.32-18.36 1.08-26.76 10.32-5.16 23-3.6 38.28-3.6v27.12h-28.36l-11 13.2h39.36v30.36l11.16-13.2v-70.8h-15.38c-5.4 0-10.92 0-16.32 1.3zm99.95 12 11.16-13.32h-21.24c-6.84.12-13.32.72-19.44 3.84-5.76 3-10 7.44-14 12.36-4.56 5.28-9.6 10.56-12.72 16.8-12.72 25.56 10 55.44 37.92 50.4 7.139-1.276 13.714-4.71 18.84-9.84 5.548-5.554 10.607-11.576 15.12-18l-1.68 1.92-3 3.48c-12.24 12.24-31.56 13-45.24 3-13.641-10.164-18.24-28.527-11-43.92 13.01-9.34 30.16-6.72 45.28-6.72zm62.04 21.98h-24.23l-11.16 13.32h24.23zm15.12-35.28h-39.35l-11.16 13.2h39.47z"/><path d="m14072.94 276.38h-50.509v-70.68l-11.04 13.2v70.79h50.509zm62.64 12c10.92-3 17.641-11.16 24.601-19.44 10.559-12.84 13.559-22.2 12.12-32.4-1.289-9.215-6.055-17.587-13.321-23.4-9.12-7.08-19.799-7.44-30.839-7.44l-11.13 13.3c6.84 0 14.16-.36 20.76 1.92 6.087 2.11 11.481 5.845 15.599 10.8 8.725 10.718 10.543 25.485 4.68 38-8.16 5.88-17.16 6.72-26.88 6.72h-14.16v-70.74l-11 13.32v70.68h12.84c5.57 0 11.21.24 16.73-1.32zm48.24-54.24c-3.245 4.542-5.306 9.821-6 15.36-1.608 11.228 2.291 22.543 10.477 30.395 8.185 7.852 19.653 11.279 30.805 9.205 12.598-2.28 20.159-10.92 27.838-20.28 4.201-4.92 8.161-9.72 10.321-15.84 2.399-6.72 2.88-12.48 1-20.4-2.782-11.126-10.79-20.209-21.481-24.36-5.759-2.28-11.759-2.52-18-2.52h-20l-11.24 13.3c16.2 0 34.8-3 48.12 8.4 12.202 10.479 15.888 27.825 9 42.36-14.25 10.088-33.705 8.396-46-4-11.76-11.88-13.32-31.08-3.84-44.88-3.2 4.74-7.639 8.58-11 13.26zm141.84 16.92c-4.08-14.76-1.08-30-2.399-45.36l-11 13.32c0 17.64 2.519 37.68-5.521 54-1.439 1-3.359 2.52-5 3-1.439.36-1.439.36-3-.36-2.884-1.646-5.568-3.619-8-5.88-4.971-5.029-8.531-11.279-10.32-18.12-4.08-14.64-2.4-30.84-2.4-46l-11.28 13.34c0 10.32-.36 20.76.239 31.08.481 9.72 2.521 19.92 8.281 28 2.498 3.319 5.493 6.233 8.879 8.64 5.401 4 4.56 3.84 10.001.6 3.945-2.854 7.496-6.217 10.56-10 3.36-4.08 6.999-8 10.079-12.36 2.76 10 8.64 18.6 17.88 23.64 2.28 1.2 2.64 1.08 4.92-.12 2.229-1.26 4.319-2.748 6.24-4.44 4.441-3.84 8-8.76 11.76-13.2 7.441-9 11.521-18.24 12.721-29.88 1.199-11.64.479-23.64.479-35.28l-11 13.32c0 17.64 2.521 37.68-5.519 54-1.441 1-3.361 2.52-5 3-1.441.36-1.441.36-3-.36-3.113-1.624-5.947-3.73-8.401-6.24-4.964-5.101-8.485-11.43-10.199-18.34zm64.08-29.4v-16l-11.16 13.34v70.7l11.16-13.2v-27.12c0-8.64-1.559-18.72 1.441-27 2.725-1.553 5.722-2.571 8.83-3v-8.7c-4 2.97-7.14 7.14-10.27 10.98zm-1398.95 180.04 11.16-13.2v-70.8h-15.359c-5.401 0-10.92 0-16.32 1.32-3.746.906-7.25 2.612-10.272 5l.001 8c8.8-1.93 19-1 30.78-1v27.12h-28.3l-2.47 2.94v10.25h30.78zm44.761-25.32v25.32l11.16-13.2v-19.56c3.307-3.308 6.431-6.793 9.359-10.44 3.383-3.885 6.472-8.016 9.241-12.36 4.919-8.52 6.599-18.6 6.719-28.44l-11.16 13.3c0 9.36-1.559 19-6 27.24-2 1.56-4.8 4-7.199 4.56-2.4.56-4.801-1.56-6.721-2.88-4.177-2.738-7.8-6.239-10.679-10.32-6.481-9.36-8.76-20.76-8.76-31.92l-11.151 13.32c0 9.48 1.68 19.32 6.361 27.72 4.2 7.94 15.59 17.9 18.83 17.66zm43.689-45.48v70.79h50.51l11.04-13.31h-50.51v-70.68z"/><path d="m13125.67 352.98h-24.231l-11.159 13.32h24.23zm15.12-35.28h-39.351l-11.159 13.2h39.47zm7.22 84 11.16-13.2v-57.5c9.48 0 20.64-1.44 29.4 3.12 8 4.2 11.28 13 9.48 21.72-7.8 3.24-19.56 2.28-27.84 2.28l-11 13.2h24.24l15.06 30.38 11.16-13.2-13.441-26.76 5-6 4.321-5.28c7.44-9.84 4.44-25.2-7.2-30.24-5.88-2.52-12.48-2.52-18.84-2.52h-20.4l-11.1 13.3zm175.42-57.12c-2.782-11.125-10.791-20.208-21.481-24.36-5.759-2.28-11.759-2.52-17.999-2.52h-20l-11.2 13.3c16.2 0 34.8-3 48.12 8.4 12.199 10.481 15.884 27.825 9 42.36-14.25 10.088-33.705 8.396-46-4-11.76-11.88-13.32-31.08-3.84-44.88-3.24 4.68-7.679 8.52-11 13.2-3.245 4.542-5.306 9.821-6 15.36-1.609 11.228 2.29 22.543 10.476 30.395 8.185 7.852 19.653 11.279 30.805 9.205 12.599-2.28 20.16-10.92 27.839-20.28 4.201-4.92 8.161-9.72 10.321-15.84 2.399-6.66 2.88-12.42.96-20.34zm9.6-13.56v70.67l11.159-13.19v-70.8z"/><path d="m13379.47 353.1h-24.12l-11.161 13.2h24.241zm15.24-35.4h-39.36l-11.161 13.32h39.361zm90.6 32.76c7.44-9.84 4.44-25.2-7.201-30.24-5.88-2.52-12.479-2.52-18.839-2.52h-20.4l-11.16 13.3v70.7l11.16-13.2v-57.5c9.48 0 20.64-1.44 29.4 3.12 8 4.2 11.28 13 9.48 21.72-7.8 3.24-19.561 2.28-27.84 2.28l-11 13.2h24.199l15.12 30.36 11.161-13.2-13.44-26.76 5-6zm13.679-19.56v70.79l11.16-13.19v-70.8zm79.441.1 11.16-13.32h-21.24c-6.84.12-13.321.72-19.44 3.84-5.761 3-10 7.44-14 12.36-4.56 5.28-9.6 10.56-12.721 16.8-12.719 25.56 10 55.44 37.92 50.4 7.138-1.276 13.714-4.711 18.84-9.84 5.549-5.554 10.609-11.576 15.121-18l-1.679 1.92-3 3.48c-12.241 12.24-31.561 13-45.241 3-13.64-10.164-18.24-28.527-11-43.92 13-9.34 30.161-6.72 45.281-6.72zm77.16-13.3h-39.361l-11.16 13.2h39.481zm-15.12 35.28h-24.241l-11.16 13.32h24.241z"/><path d="m13594.03 330.9v70.79h50.52l11.04-13.31h-50.52v-70.68zm105.72 40.44v-40.34c9.48 0 20.641-1.44 29.4 3.12 8 4.2 11.281 13 9.48 21.72-7.8 3.12-19.56 2.28-27.72 2.28l-11.16 13.2c8.521 0 20.88 1.08 28.8-2.76 3.841-1.8 6.36-4.68 9-7.8 1.44-1.56 2.761-3.24 4.2-4.92l4.44-5.4c4.558-6.341 5.324-14.653 2-21.72-3.839-7.92-12.839-10.44-21-10.92-9.12-.48-18.36-.12-27.48-.12l-11.119 13.32v70.7l11.159-13.2zm117.12 17.16v-70.8h-15.359c-5.401 0-10.921 0-16.321 1.32-10.44 2.52-16.2 10.56-22.679 18.48-3.24 4-5.881 7.92-6.841 13.08s-.48 10.92-.48 16.32v34.8l11.161-13.2v-27.12c0-8.64-1.321-18.36 1.08-26.76 10.319-5.16 23-3.6 38.279-3.6v27.12h-28.319l-11 13.2h39.319v30.36zm31.561-1.92c-8.401-2.76-13.201-9.6-13.201-18.48l-11.16 13.2c0 10.32 6.6 17.28 16.441 19.44 9.84 2.16 22.559 1.2 29.88-6.72l5.639-6.48 5.64-6.84c5.88-7.68 4.681-18.6.721-24.12-5.641-8.16-16-8.28-24.841-8.76-9.239-.6-17.88-5.52-17.4-15.84 5.64-1.56 11.64-1.08 17.4-1.08h17l11.16-13.2c-7.439 0-14.88-.12-22.319-.12-15.721 0-17 1.56-27.481 14.64-2.88 3.48-6 6.72-6.72 11.4-1.08 8.52 4.201 15 12.36 16.8 8.52 1.8 17.16-.12 24.841 4.8 6.839 4.44 9.359 13 7.799 20.76-7.759 3.24-17.839 3.24-25.759.6z"/><path d="m13883.35 331.02h55.559l11.16-13.32h-55.559zm27.839 70.67 11.04-13.19v-57.48l-11.04 13.32zm52.321-13.31v-70.68l-11.04 13.2v70.79h50.519l11.04-13.31z"/><path d="m14014.03 317.7h-39.36l-11.159 13.2h39.479zm-15.12 35.28h-24.24l-11.159 13.32h24.239zm59.271 13.32h39.359v35.39l11.16-13.19v-70.8l-11.16 13.32v22.08h-28.319zm-11.151-35.28v70.67l11.151-13.19v-70.8zm135.47 57.48v-70.8h-15.359c-5.401 0-10.92 0-16.321 1.32-10.44 2.52-16.2 10.56-22.679 18.48-3.241 4-5.88 7.92-6.841 13.08-.96 5.16-.48 10.92-.48 16.32v34.8l11.191-13.2v-27.12c0-8.64-1.321-18.36 1.079-26.76 10.32-5.16 23-3.6 38.28-3.6v27.12h-28.359l-11 13.2h39.359v30.36zm31.561-1.92c-8.401-2.76-13.201-9.6-13.201-18.48l-11.16 13.2c0 10.32 6.6 17.28 16.441 19.44 9.839 2.16 22.559 1.2 29.88-6.72l5.639-6.48 5.64-6.84c5.881-7.68 4.68-18.6.721-24.12-5.641-8.16-16-8.28-24.84-8.76-9.241-.6-17.881-5.52-17.401-15.84 5.64-1.56 11.64-1.08 17.401-1.08h17l11.159-13.2c-7.44 0-14.88-.12-22.319-.12-15.721 0-17 1.56-27.481 14.64-2.88 3.48-6 6.72-6.72 11.4-1.08 8.52 4.201 15 12.361 16.8 8.519 1.8 17.159-.12 24.84 4.8 6.839 4.44 9.359 13 7.799 20.76-7.759 3.24-17.809 3.24-25.759.6zm70.319-55.58v70.7h24.24c9.481 0 20.16.24 27.12-7.44l6.361-7.56c1.559-1.8 3.479-4.44 4.799-5.88 4.201-5.28 4.8-12 3.72-17.28-3.12-15.36-19.92-15.48-32.399-15.48l-11.16 13.2c8.519 0 17.759-.6 25.08 4.32 6.719 4.56 8.88 12.84 7.319 20.52-8.76 3.6-19.08 2.4-28.319 2.4h-15.601v-70.8z"/><path d="m14328.42 336.06c2.658 2.67 4.103 6.314 4 10.08l11-13.2c0-18.36-23.52-15.24-35.76-15.24l-11 13.32c13.16-.02 24.44-2.28 31.76 5.04zm43.32-5.16h28.27v-13.2h-17.11z"/><path d="m14371.74 366.3v-48.6l-11.04 13.2v70.79h39.31v-13.31h-28.27z"/><path d="m14371.74 366.3h24.24l4.03-4.81v-8.51h-17.11zm-1398.59 147.28c10.321-1.2 16.321-8.4 22.56-15.84v16l11-13.2v-70.84l-11 13.3v27.12c0 8.52 1.44 18.72-1.56 26.88-11.886 6.678-26.924 2.829-34.139-8.74v23.16c4.11 1.872 8.644 2.618 13.138 2.16zm89.64-65.52c2.658 2.67 4.104 6.314 4 10.08l11-13.2c0-18.36-23.519-15.24-35.76-15.24l-11.02 13.3c13.18 0 24.46-2.26 31.78 5.06z"/><path d="m13018.75 443v70.7h24.26c9.48 0 20.16.24 27.12-7.44l6.36-7.56c1.56-1.8 3.48-4.44 4.8-5.88 4.2-5.28 4.8-12 3.72-17.28-3.12-15.36-19.92-15.48-32.4-15.48l-11.16 13.2c8.52 0 17.76-.6 25.08 4.32 6.72 4.56 8.88 12.84 7.32 20.52-8.76 3.6-19.08 2.4-28.32 2.4h-15.62v-70.8zm99.6-13.3-11.04 13.3c13.2 0 24.48-2.28 31.8 5 2.659 2.67 4.104 6.314 4 10.08l11-13.2c0-18.3-23.519-15.18-35.759-15.18z"/><path d="m13095.07 443v70.7h24.241c9.479 0 20.16.24 27.12-7.44l6.359-7.56c1.561-1.8 3.481-4.44 4.8-5.88 4.2-5.28 4.801-12 3.721-17.28-3.121-15.36-19.92-15.48-32.401-15.48l-11.16 13.2c8.521 0 17.761-.6 25.08 4.32 6.721 4.56 8.88 12.84 7.32 20.52-8.759 3.6-19.08 2.4-28.32 2.4h-15.6v-70.8zm137.88 57.38h-50.519v-70.68l-11.04 13.2v70.8h50.519z"/><path d="m13232.95 429.7h-39.36l-11.159 13.2h39.479zm-15.12 35.28h-24.24l-11.159 13.32h24.239zm22.32-21.98v70.7h12.86c5.64 0 11.28.24 16.801-1.32 10.919-3 17.639-11.16 24.599-19.44 10.56-12.84 13.56-22.2 12.12-32.4-1.289-9.215-6.054-17.587-13.32-23.4-9.12-7.08-19.8-7.44-30.84-7.44l-11.18 13.3c6.84 0 14.16-.36 20.76 1.92 6.087 2.11 11.482 5.845 15.6 10.8 8.724 10.718 10.543 25.485 4.679 38-8.16 5.88-17.16 6.72-26.879 6.72h-14.161v-70.74zm188.64 51.86c7.44-9 11.521-18.24 12.72-29.88 1.2-11.64.48-23.64.48-35.28l-11 13.32c0 17.64 2.52 37.68-5.52 54-1.44 1-3.36 2.52-5 3-1.44.36-1.44.36-3-.36-3.113-1.624-5.948-3.73-8.401-6.24-4.924-5.12-8.402-11.456-10.079-18.36-4.08-14.76-1.08-30-2.4-45.36l-11 13.32c0 17.64 2.52 37.68-5.52 54-1.44 1-3.36 2.52-5 3-1.44.36-1.44.36-3-.36-2.883-1.647-5.567-3.62-8-5.88-4.97-5.03-8.53-11.279-10.32-18.12-4.08-14.64-2.4-30.84-2.4-46l-11.34 13.34c0 10.32-.36 20.76.24 31.08.48 9.72 2.52 19.92 8.28 28 2.499 3.319 5.494 6.233 8.88 8.64 5.401 4 4.56 3.84 10 .6 3.944-2.854 7.495-6.216 10.56-10 3.36-4.08 7-8 10.08-12.36 2.76 10 8.639 18.6 17.88 23.64 2.28 1.2 2.639 1.08 4.92-.12 2.228-1.26 4.319-2.748 6.24-4.44 4.38-3.82 7.98-8.74 11.7-13.18zm34.2 5.64v-70.8l-11.16 13.2v70.8zm32.64 13.2 11.04-13.2v-57.48l-11.04 13.32zm38.88-84h-55.56l-11.16 13.32h55.561zm2.4 13.32v70.68l11.16-13.2v-70.8zm50.521 22.08h-28.321l-11.04 13.2h39.361v35.4l11.159-13.2v-70.8l-11.159 13.32zm94.799 48.6 11.161-13.2v-70.8h-15.381c-5.4 0-10.92 0-16.32 1.32-10.44 2.52-16.2 10.56-22.68 18.48-3.239 4-5.88 7.92-6.84 13.08s-.48 10.92-.48 16.32v34.8l11.161-13.2v-27.12c0-8.64-1.321-18.36 1.08-26.76 10.319-5.16 23-3.6 38.279-3.6v27.12h-28.3l-11 13.2h39.361v30.36zm105.831-84h-39.351l-11.17 13.32h39.36zm-50.521 0-11.149 13.32v70.68l11.149-13.2zm35.28 35.4h-24.11l-11.17 13.2h24.24zm74.04 29.9c-6.6 6.6-17.28 5.52-26.28 5.52h-20.149v-70.82l-11.16 13.3v70.7h19c5.759 0 11.639.48 17.279-.72 6-1.2 10.2-4.32 14.16-8.76s8.16-8.88 11.28-13.92c-1.73 1.92-2.929 3.36-4.13 4.7zm17.77-11.66v-10c0-8.64-1.319-18.36 1.08-26.76 10.32-5.16 23-3.6 38.28-3.6v27.12h-28.32l-11 13.2h39.34v30.4l11.16-13.2v-70.8h-15.38c-5.399 0-10.92 0-16.32 1.32-10.44 2.52-16.199 10.56-22.68 18.48-3.24 4-5.88 7.92-6.84 13.08s-.48 10.92-.48 16.32v34.8l11.16-13.2zm83.15 30.36 11.04-13.2v-57.48l-11.04 13.32zm38.88-84h-55.55l-11.16 13.32h55.55zm92.64 11.04c-3.84-7.92-12.84-10.44-21-10.92-9.119-.48-18.36-.12-27.48-.12l-11.16 13.3v70.7l11.16-13.2v-57.5c9.48 0 20.64-1.44 29.4 3.12 8 4.2 11.28 13 9.48 21.72-7.8 3.12-19.559 2.28-27.72 2.28l-11.16 13.2c8.52 0 20.88 1.08 28.8-2.76 3.84-1.8 6.36-4.68 9-7.8 1.441-1.56 2.76-3.24 4.2-4.92l4.44-5.4c4.562-6.329 5.343-14.632 2.039-21.7zm36.96-9.74c-10.44 2.52-16.199 10.56-22.68 18.48-3.24 4-5.88 7.92-6.84 13.08s-.48 10.92-.48 16.32v34.8l11.16-13.2v-27.1c0-8.64-1.319-18.36 1.08-26.76 10.32-5.16 23-3.6 38.28-3.6v27.12h-28.32l-11 13.2h39.36v30.36l11.16-13.2v-70.8h-15.36c-5.439 0-10.96 0-16.36 1.3zm79.921 82c6-1.2 10.199-4.32 14.159-8.76s8.16-8.88 11.28-13.92c-1.68 1.92-2.88 3.36-4.08 4.68-6.6 6.6-17.28 5.52-26.28 5.52h-20.159v-70.82l-11.161 13.3v70.7h19c5.72 0 11.6.48 17.241-.7zm118.829.7 11-13.2v-26.4c0-13 1-15.72-.119-24.72-2.641-19.32-27.12-25.8-39.841-11.76l-6.6 7.8c-5.639-17-27.12-20.64-38.519-8.16l-5.761 6.72v-14.28l-11.16 13.3v70.7l11.16-13.2v-41.88c0-4.32-.359-8.76 1.08-13.08 14.4-7.56 32 2.64 33.12 18.84.6 8.52.12 17.16.12 25.8v23.52l11-13.2c0-16.08.24-32 0-48 .053-2.37.416-4.724 1.08-7 14.52-7.56 32.16 2.64 33.241 18.84.599 8.52.12 17.16.12 25.8v23.56zm23.37-25.32h30.36l11.04-13.2h-30.24zm53.4 25.32 8.23-9.74v-70.76l-8.23 9.82zm-1395.11 112 11.16-13.2-13.439-26.76 5-6 4.319-5.28c7.44-9.84 4.44-25.2-7.2-30.24-5.88-2.52-12.48-2.52-18.84-2.52h-17.66v13.3c8.85-.18 18.761-1 26.7 3.15 7.94 4.15 11.28 13 9.48 21.72-7.799 3.24-19.56 2.28-27.839 2.28l-8.341 9.96v3.22h21.54zm82.32-84h-39.349l-11.161 13.2h39.47z"/><path d="m13028.48 541.7-11.04 13.2v70.8h50.51l11.04-13.32h-50.51z"/><path d="m13063.87 576.98h-24.23l-11.16 13.32h24.23zm48.6-22.08h17l11.16-13.2c-7.44 0-14.88-.12-22.319-.12-15.721 0-17 1.56-27.481 14.64-2.88 3.48-6 6.72-6.72 11.4-1.08 8.52 4.201 15 12.36 16.8 8.52 1.8 17.16-.12 24.841 4.8 6.839 4.44 9.359 13 7.799 20.76-7.799 3.24-17.88 3.24-25.799.6-8.401-2.76-13.201-9.6-13.201-18.48l-11.1 13.2c0 10.32 6.6 17.28 16.44 19.44s22.56 1.2 29.861-6.74l5.639-6.48 5.64-6.84c5.88-7.68 4.681-18.6.721-24.12-5.641-8.16-16-8.28-24.841-8.76-9.24-.6-17.88-5.52-17.4-15.84 5.65-1.54 11.65-1.06 17.4-1.06zm64.091 0h17l11.159-13.2c-7.44 0-14.88-.12-22.32-.12-15.72 0-17 1.56-27.48 14.64-2.88 3.48-6 6.72-6.72 11.4-1.08 8.52 4.2 15 12.361 16.8 8.519 1.8 17.159-.12 24.839 4.8 6.84 4.44 9.36 13 7.8 20.76-7.8 3.24-17.88 3.24-25.8.6-8.4-2.76-13.2-9.6-13.2-18.48l-11.16 13.2c0 10.32 6.6 17.28 16.44 19.44s22.56 1.2 29.88-6.72l5.64-6.48 5.64-6.84c5.881-7.68 4.68-18.6.72-24.12-5.64-8.16-16-8.28-24.839-8.76-9.241-.6-17.881-5.52-17.401-15.84 5.68-1.56 11.68-1.08 17.441-1.08zm36.599 70.8 11.16-13.2v-70.8l-11.16 13.2zm78.85-81.48c-5.76-2.28-11.76-2.52-18-2.52h-20l-11.21 13.3c16.2 0 34.801-3 48.12 8.4 12.199 10.481 15.884 27.825 9 42.36-14.25 10.088-33.705 8.396-46-4-11.76-11.88-13.319-31.08-3.84-44.88-3.24 4.68-7.68 8.52-11 13.2-3.245 4.542-5.308 9.821-6 15.36-1.608 11.228 2.291 22.543 10.477 30.395 8.185 7.852 19.653 11.279 30.804 9.205 12.599-2.28 20.16-10.92 27.839-20.28 4.2-4.92 8.16-9.72 10.321-15.84 2.399-6.72 2.879-12.48 1-20.4-2.805-11.109-10.824-20.168-21.51-24.3zm87.1 6.96c-7.817-9.657-21.471-12.246-32.28-6.12-5.16 3-8.88 8-12.6 12.6v-16l-11.15 13.34v70.7l11.16-13.2v-27.12c0-8.64-1.56-18.72 1.44-27 14.4-8.28 33.24-.24 37.2 15.84 1.92 7.92.721 17.16.721 25.32v26.16l11.159-13.2v-39.84c0-5.16.24-8.76-1.32-13.56-.961-2.877-2.426-5.559-4.33-7.92zm97.9-6.96c-5.76-2.28-11.76-2.52-18-2.52h-20l-11.18 13.3c16.2 0 34.8-3 48.12 8.4 12.199 10.481 15.884 27.825 9 42.36-14.25 10.088-33.705 8.396-46-4-11.76-11.88-13.32-31.08-3.84-44.88-3.24 4.68-7.68 8.52-11 13.2-3.245 4.542-5.307 9.821-6 15.36-1.609 11.228 2.29 22.543 10.476 30.395 8.185 7.852 19.653 11.279 30.805 9.205 12.599-2.28 20.16-10.92 27.839-20.28 4.201-4.92 8.161-9.72 10.321-15.84 2.399-6.72 2.88-12.48 1-20.4-2.811-11.116-10.842-20.176-21.54-24.3zm31.1 10.8v70.68l11.161-13.2v-70.8zm11.161 0h39.359l11.16-13.32h-39.36zm35.279 22.08h-24.12l-11.159 13.2h24.239zm76.08 48.6 11.04-13.2v-57.48l-11.04 13.32zm-27.84-70.68h55.561l11.159-13.32h-55.56zm69.12 0v70.68l11.16-13.2v-70.8zm50.52 22.08h-28.32l-11.04 13.2h39.36v35.4l11.16-13.2v-70.8l-11.16 13.32zm34.2-35.4-11.04 13.2v70.8h50.52l11.04-13.32h-50.52z"/><path d="m13807.15 541.7h-39.36l-11.159 13.2h39.479zm-15.12 35.28h-24.24l-11.159 13.32h24.239zm48.12 48.72 11.161-13.2v-70.8l-11.161 13.2zm79.191-74.52c-7.818-9.658-21.472-12.246-32.28-6.12-5.161 3-8.88 8-12.601 12.6v-16l-11.149 13.34v70.7l11.16-13.2v-27.12c0-8.64-1.561-18.72 1.439-27 14.401-8.28 33.24-.24 37.2 15.84 1.92 7.92.72 17.16.72 25.32v26.16l11.181-13.2v-39.84c0-5.16.239-8.76-1.321-13.56-.966-2.878-2.439-5.56-4.349-7.92zm28.8 43.08v-52.56l-11.151 13.32v70.68l11.151-13.2v-14.16l11.759-13.08 27.6 40.44 11.04-13.2-27.12-39.84 27.12-30.96zm120.359-52.56h-39.359l-11.161 13.2h39.48zm-15.119 35.28h-24.24l-11.161 13.32h24.241z"/><path d="m14017.98 541.7-11.04 13.2v70.8h50.521l11.039-13.32h-50.52zm110.76 7.44c-9.12-7.08-19.8-7.44-30.84-7.44l-11.16 13.3c6.84 0 14.16-.36 20.76 1.92 6.089 2.11 11.483 5.845 15.602 10.8 8.723 10.719 10.542 25.485 4.678 38-8.16 5.88-17.16 6.72-26.88 6.72h-14.16v-70.74l-11 13.32v70.68h12.84c5.641 0 11.28.24 16.8-1.32 10.92-3 17.641-11.16 24.6-19.44 10.56-12.84 13.56-22.2 12.121-32.4-1.3-9.221-6.081-17.594-13.362-23.4zm76.8-6.14c-10.439 2.52-16.199 10.56-22.68 18.48-3.24 4-5.88 7.92-6.839 13.08-.96 5.16-.481 10.92-.481 16.32v34.8l11.16-13.2v-27.1c0-8.64-1.319-18.36 1.08-26.76 10.321-5.16 23-3.6 38.281-3.6v27.12h-28.321l-11 13.2h39.271v30.36l11.16-13.2v-70.8h-15.36c-5.35 0-10.871 0-16.271 1.3zm96.96 36.74 4.32-5.28c7.441-9.84 4.441-25.2-7.2-30.24-5.88-2.52-12.479-2.52-18.84-2.52h-20.399l-11.16 13.3v70.7l11.16-13.2v-57.5c9.479 0 20.64-1.44 29.399 3.12 8 4.2 11.281 13 9.481 21.72-7.8 3.24-19.561 2.28-27.84 2.28l-11 13.2h24.239l15.12 30.36 11.16-13.2-13.44-26.76zm29.04-38.04-11.04 13.2v70.8h50.521l11.04-13.32h-50.521z"/><path d="m14382.06 541.7h-39.361l-11.159 13.2h39.48zm-15.121 35.28h-24.24l-11.159 13.32h24.239zm22.92-2.4c-1 5.28-.479 10.92-.479 16.32v34.8l10.63-12.58v-55.69c-1.101 1.34-2.191 2.71-3.311 4.07-3.239 3.96-5.88 7.92-6.84 13.08zm-1376.03 117.16 4.32-5.28c7.441-9.84 4.441-25.2-7.2-30.24-5.88-2.52-12.479-2.52-18.84-2.52h-20.389l-11.16 13.3v53h11.16v-53c9.479 0 20.639-1.44 29.399 3.12 8 4.2 11.28 13 9.481 21.72-7.8 3.24-19.561 2.28-27.84 2.28l-11 13.2h24.2l6.3 12.68h17.75l-11.221-22.26zm63.24-38.04c-5.399 0-10.92 0-16.319 1.32-10.44 2.52-16.2 10.56-22.681 18.48-3.24 4-5.88 7.92-6.84 13.08-.959 5.16-.479 10.92-.479 16.32v17.1h11.17v-22.62c0-8.64-1.32-18.36 1.08-26.76 10.319-5.16 23-3.6 38.279-3.6v27.12h-28.319l-11 13.2h39.359v12.66h11.16v-66.3zm39.941 48.12c-5.76-15-3.84-32.4-3.84-48.12l-11 13.68c0 17.27-1.891 37.15 6.109 52.62h22.181l-.69-.54c-5.721-4.665-10.121-10.747-12.76-17.64zm46.7-48.12-11 13.68c0 17.28 2.279 36.6-6.12 52.56l-.08.06h1.399c6.221-7.45 11.71-15.05 14-24.78 3.24-13.22 1.801-27.96 1.801-41.52zm9.97 13.2v53.1h11.16v-66.3zm83.509 4.2c-2.411-7.191-7.912-12.927-14.996-15.636-7.084-2.71-15.008-2.11-21.603 1.636-5.16 3-8.88 8-12.6 12.6v-16l-11.15 13.3v53h11.17v-22.62c0-8.64-1.56-18.72 1.44-27 14.4-8.28 33.239-.24 37.199 15.84 1.921 7.92.721 17.16.721 25.32v8.46h11.14v-35.34c0-5.16.24-8.76-1.321-13.56zm23.17 2.64c13-9.36 30.12-6.72 45.241-6.72l11.16-13.32c-14.16 0-30.721-2.4-43.321 5.4-6 3.72-10.32 9.48-14.759 14.76-4.68 5.64-9.241 11-11.401 18.12-2.884 9.4-1.627 19.585 3.461 28h24.269c-2.539-1.398-4.891-3.112-7-5.1-11.265-10.569-14.363-27.228-7.651-41.14z"/><path d="m13340.59 689.1h-32.28l-11 13.32h32.7v17.16l-.75.42h3.29c1.9-2.36 4.25-5.37 8-10v-20.9zm45.36 17.04c-2.4-8.16-1.08-17.76-1.08-26.28v-26.16l-11 13.32v30.72c0 7.32-.81 15.19 1.239 22.26h21.061c-4.962-3.242-8.59-8.162-10.22-13.86zm38.4-39.14v27.12c0 8.17 1.31 17.88-1.23 25.86h12.26v-66.28zm29.4 37.1-11.16 13.2c.006.903.066 1.804.18 2.7h18.919c-5.099-3.49-7.939-9.09-7.939-15.9zm47.16-11.52c-5.64-8.16-16-8.28-24.84-8.76-9.24-.6-17.881-5.52-17.4-15.84 5.64-1.56 11.64-1.08 17.4-1.08h17l11.159-13.2c-7.439 0-14.879-.12-22.319-.12-15.721 0-17 1.56-27.48 14.64-2.88 3.48-6 6.72-6.72 11.4-1.08 8.52 4.2 15 12.36 16.8 8.52 1.8 17.159-.12 24.84 4.8 6.27 4.07 8.9 11.56 8.1 18.78h4.42l2.719-3.3c5.921-7.7 4.721-18.6.761-24.12zm58.199-3.6h-24.239l-11.16 13.32h24.24zm15.12-35.28h-39.359l-11.16 13.2h39.479zm-50.519 13.2v-13.2l-11.04 13.2v53.1h11.04zm61.68 37.2-11.161 13.2c.007.903.067 1.804.181 2.7h18.92c-5.101-3.49-7.94-9.09-7.94-15.9zm47.16-11.52c-5.64-8.16-16-8.28-24.84-8.76-9.24-.6-17.88-5.52-17.4-15.84 5.64-1.56 11.64-1.08 17.4-1.08h17l11.16-13.2c-7.44 0-14.88-.12-22.32-.12-15.72 0-17 1.56-27.48 14.64-2.881 3.48-6 6.72-6.72 11.4-1.08 8.52 4.2 15 12.36 16.8 8.519 1.8 17.16-.12 24.84 4.8 6.27 4.07 8.9 11.56 8.099 18.78h4.421l2.72-3.3c5.92-7.7 4.72-18.6.76-24.12zm82.8-38.88c-5.4 0-10.92 0-16.32 1.32-10.44 2.52-16.2 10.56-22.68 18.48-3.241 4-5.88 7.92-6.84 13.08s-.5 10.92-.5 16.32v17.1h11.16v-22.62c0-8.64-1.32-18.36 1.08-26.76 10.32-5.16 23-3.6 38.28-3.6v27.12h-28.301l-11 13.2h39.361v12.66h11.12v-66.3zm106.66 38.88c-5.64-8.16-16-8.28-24.84-8.76-9.24-.6-17.88-5.52-17.4-15.84 5.64-1.56 11.64-1.08 17.4-1.08h17l11.16-13.2c-7.44 0-14.88-.12-22.32-.12-15.72 0-17 1.56-27.48 14.64-2.881 3.48-6 6.72-6.72 11.4-1.081 8.52 4.2 15 12.36 16.8 8.519 1.8 17.16-.12 24.84 4.8 6.27 4.07 8.9 11.56 8.09 18.78h4.42l2.72-3.3c5.949-7.7 4.77-18.6.77-24.12zm-47.14 11.52-11.16 13.2c.006.903.065 1.804.18 2.7h18.92c-5.11-3.49-7.94-9.09-7.94-15.9zm105.359-15.12h-24.239l-11.16 13.32h24.24zm15.121-35.28h-39.36l-11.16 13.2h39.48zm-50.52 13.2v-13.2l-11.04 13.2v53.1h11.04zm117.24-13.2h-55.56l-11.16 13.32h55.56z"/><path d="m13923.19 680.34v39.66h11.04v-52.98zm151.67 20.66c2.401-6.72 2.88-12.48 1-20.4-2.78-11.125-10.79-20.208-21.479-24.36-5.76-2.28-11.76-2.52-18-2.52h-20l-11.231 13.28c16.201 0 34.801-3 48.121 8.4 12.199 10.481 15.884 27.825 9 42.36-1.137.811-2.323 1.552-3.549 2.22h3.178q1.33-1.57 2.651-3.18c4.189-4.9 8.15-9.7 10.309-15.8z"/><path d="m14012.47 668.94c-3.241 4.68-7.68 8.52-11 13.2-3.246 4.542-5.308 9.821-6 15.36-1.057 7.778.482 15.687 4.381 22.5h24.718c-3.027-1.641-5.795-3.724-8.209-6.18-11.81-11.88-13.35-31.08-3.89-44.88zm84.12-1.92v-13.32l-11.16 13.32v52.98h11.16zm35.269 22.08h-24.12l-11.149 13.2h24.229zm15.241-35.4h-39.361l-11.149 13.32h39.349zm91.32 38.88c-5.641-8.16-16-8.28-24.84-8.76-9.24-.6-17.88-5.52-17.4-15.84 5.639-1.56 11.639-1.08 17.4-1.08h17l11.159-13.2c-7.439 0-14.88-.12-22.319-.12-15.72 0-17 1.56-27.481 14.64-2.879 3.48-6 6.72-6.719 11.4-1.08 8.52 4.2 15 12.36 16.8 8.52 1.8 17.159-.12 24.84 4.8 6.269 4.07 8.899 11.56 8.1 18.78h4.49l2.719-3.3c5.851-7.7 4.651-18.6.691-24.12zm-47.16 11.52-11.16 13.2c.004.903.066 1.804.179 2.7h18.921c-5.1-3.49-7.94-9.09-7.94-15.9zm70.08-50.4-11.16 13.32v52.98h11.16zm39.36 13.32v22.08h-28.32l-11.04 13.2h39.36v17.7h11.159v-66.3zm69.6-13.32c-5.401 0-10.92 0-16.321 1.32-10.439 2.52-16.2 10.56-22.679 18.48-3.24 4-5.88 7.92-6.84 13.08s-.45 10.92-.45 16.32v17.1h11.16v-22.62c0-8.64-1.32-18.36 1.08-26.76 10.319-5.16 23-3.6 38.279-3.6v27.12h-28.319l-11 13.2h39.359v12.66h11.16v-66.3h-15.359zm27.36 66.3h2.35v-55.78l-2.35 2.8z"/></svg>