<svg viewBox="0 0 5760 720" xmlns="http://www.w3.org/2000/svg"><path d="M0 720h1440V0H0z" fill="#fff"/><path d="M857.58 423.61c10.71 0 15.79-6.43 16.55-21.35-9.41-3.29-13.77-9-13.77-17.66s4.4-14.41 13.89-17.7v-38.49c0-17.94-5-25.6-16.67-25.6-11.67 0-16.67 7.66-16.67 25.6V398c0 18 5 25.64 16.67 25.64z"/><path d="M973.46 440.72c-.08-26.23-5.08-44.84-15.28-56.83C947.98 371.9 932 366 909.53 366h-8.29c-13.73 0-23.45 1.51-29.68 4.6-6 3-8.81 7.46-8.81 14s2.82 11 8.81 14a27.437 27.437 0 004.92 1.9c6 1.83 14.21 2.7 24.76 2.7h8.29v2.38h-8.29c-10.28 0-18.49-.87-24.76-2.66-1 15.83-6.91 23-18.89 23-13.18 0-19-8.61-19-28V279.6c0-19.92-7.42-22.62-14.68-22.62s-14.68 2.7-14.68 22.62v132.7c0 39.64 6.79 67.74 20.64 85.84 13.85 18.1 35.24 26.79 65.48 26.79 27.54 0 47-6.51 59.53-19.88 12.53-13.37 18.65-34.21 18.65-63.65v-.67z"/><path d="M909.53 363.61c19 0 33.57 4.13 44.09 12.54V245.83c0-20-5.6-28.57-18.65-28.57-13.05 0-18.65 8.53-18.65 28.57v103.61h-2.38v-125.8c0-20-5.6-28.57-18.65-28.57-13.05 0-18.65 8.53-18.65 28.57v142.59c6.27-1.75 14.41-2.62 24.6-2.62zm-270.72 77.14c-.08-26.23-5.08-44.85-15.28-56.83-10.2-11.98-26.16-17.92-48.66-17.92h-8.3c-13.73 0-23.46 1.51-29.69 4.6-6 3-8.81 7.46-8.81 14s2.82 11 8.81 14c6.23 3.1 15.92 4.6 29.69 4.6h8.3v2.38h-8.3c-10.28 0-18.46-.87-24.77-2.66-1 15.88-6.91 23-18.89 23-9.45 0-15.16-4.45-17.62-14.13-2 9.68-7.18 14.13-16.11 14.13-7.26 0-12-2.94-14.65-9.21.52 37.27 7.26 63.9 20.6 81.28 13.81 18 35.24 26.79 65.49 26.79 27.54 0 47-6.51 59.53-19.88 12.53-13.37 18.65-34.21 18.65-63.66v-.64z"/><path d="M489.18 423.64c7.26 0 14.68-2.7 14.68-22.62V347c0-19.92-7.42-22.62-14.68-22.62s-14.68 2.7-14.68 22.62v54c-.01 20 7.42 22.64 14.68 22.64zm33.74 0c10.72 0 15.8-6.43 16.55-21.35-9.41-3.29-13.77-9-13.77-17.66s4.41-14.41 13.89-17.7v-38.5c0-17.94-5-25.6-16.67-25.6-11.67 0-16.67 7.66-16.67 25.6V398c0 18 5 25.64 16.67 25.64zm52-60c19.05 0 33.58 4.13 44.09 12.54V245.83c0-20-5.6-28.58-18.65-28.58-13.05 0-18.65 8.53-18.65 28.58v103.63h-2.38V223.65c0-20-5.6-28.58-18.65-28.58-13.05 0-18.68 8.53-18.68 28.58v142.6c6.27-1.75 14.41-2.62 24.61-2.62h8.3zm-270.78 48.47v-44c0-13.73-1.51-23.45-4.6-29.68-3-6-7.46-8.81-14-8.81s-11 2.82-14 8.81c-3.1 6.23-4.6 15.91-4.6 29.68v44h-2.38V245.79c0-20-5.6-28.57-18.65-28.57-13.05 0-18.65 8.53-18.65 28.57v103.65h-2.38v-125.8c0-20-5.6-28.57-18.65-28.57-13.05 0-18.65 8.53-18.65 28.57v125.8h-2.38V242.85c0-17.94-5-25.6-16.67-25.6-11.67 0-16.67 7.66-16.67 25.6v120.8h-2.38V279.6c0-19.92-7.42-22.62-14.68-22.62s-14.8 2.7-14.8 22.62v132.51c0 39.76 6.75 67.9 20.64 86 13.89 18.1 35.24 26.79 65.48 26.79 34.49 0 58.89-8.77 74.61-26.87 15.72-18.1 23.41-46.2 23.41-85.92zm947.3-60.05c1.62 0 3.19 0 4.72.09V309c0-21.49-6-30.64-20-30.64s-20 9.15-20 30.64v45.79c6.72-1.87 15.45-2.81 26.39-2.81h8.89zm-15.28 64.35c11.23 0 17.28-5.87 19.28-19.24h-12.89c-10.72 0-19.32-.85-26-2.68 1.57 15.24 7.66 21.92 19.61 21.92zm-40.43 0c11.49 0 16.94-6.89 17.75-22.9-10.09-3.53-14.77-9.7-14.77-18.94 0-9.24 4.72-15.45 14.89-19v-41.25c0-19.24-5.36-27.45-17.87-27.45-12.51 0-17.87 8.21-17.87 27.45v74.6c0 19.28 5.36 27.49 17.87 27.49zm-36.17 0c7.79 0 15.75-2.89 15.75-24.26v-57.88c0-21.36-8-24.26-15.75-24.26s-15.75 2.89-15.75 24.26v57.88c.01 21.36 7.96 24.26 15.75 24.26zm139.16-79.58V225.71c0-21.49-6-30.64-20-30.64s-20 9.15-20 30.64v126.52c16.89.94 30.09 5.32 40 13.24z"/><path d="M1320 434.58c-.09-28.09-5.45-48-16.38-60.81-10.93-12.81-28-19.19-52.17-19.19h-8.89c-14.72 0-25.15 1.62-31.83 4.94-6.47 3.23-9.45 8-9.45 15.07s3 11.83 9.45 15.07c6.68 3.32 17.07 4.94 31.83 4.94h15.75c-1.7 16.77-8.72 24.34-22.13 24.34-11.45 0-18.21-5.49-21-17.49-2.3 12-8.51 17.49-19.41 17.49-10.13 0-16.26-4.77-18.9-15.15-2.13 10.38-7.7 15.15-17.28 15.15-7.79 0-12.89-3.15-15.7-9.87.55 40 7.79 68.52 22.09 87.16 14.81 19.32 37.79 28.73 70.22 28.73 29.53 0 50.39-7 63.83-21.32 13.44-14.32 20-36.68 20-68.26v-.77zM1440 720h1440V0H1440z"/><path d="M2510.19 413.89c2.22 6.59 8 14.52 17.74 24.25l37 37.18c12.46 12.46 25.4 25.36 42.14 34.6 18.61 10.24 39.84 15 66.83 15 30.24 0 51.67-8.77 65.48-26.79 13.81-18.02 20.64-46.27 20.64-86V279.6c0-19.92-7.42-22.62-14.68-22.62s-14.68 2.7-14.68 22.62v84.05h-2.38v-120.8c0-17.94-5-25.6-16.67-25.6-11.67 0-16.67 7.66-16.67 25.6v106.59h-2.38v-125.8c0-20-5.6-28.57-18.65-28.57-13.05 0-18.65 8.53-18.65 28.57V349.4h-2.38V245.83c0-20-5.6-28.57-18.65-28.57-13.05 0-18.65 8.53-18.65 28.57v158.34c0 20.28-11.55 27.26-16.55 29.33-9.88 4.09-21.59 1.39-29.88-6.91l-14.84-14.84c-9.72-9.72-17.66-15.52-24.25-17.7-6.39-2.14-11.51-1-16.15 3.69-4.64 4.69-5.79 9.76-3.69 16.15zm-776.77-19.74v-57c0-21-7.83-23.88-15.5-23.88s-15.5 2.85-15.5 23.88v57c0 21 7.83 23.88 15.5 23.88s15.5-2.85 15.5-23.88z" fill="#fff"/><path d="M1560 435.91v.84c0 31.08 6.45 53.07 19.69 67.19 13.24 14.12 33.76 21 62.83 21 31.92 0 54.54-9.26 69.12-28.28 14.07-18.35 21.2-46.46 21.74-85.79-2.76 6.62-7.79 9.72-15.46 9.72-9.43 0-14.91-4.69-17-14.91-2.6 10.22-8.59 14.91-18.6 14.91-10.72 0-16.84-5.4-19.1-17.22-2.76 11.77-9.43 17.22-20.69 17.22-13.2 0-20.11-7.46-21.78-24h15.5c14.49 0 24.76-1.59 31.33-4.86 6.37-3.18 9.3-7.88 9.3-14.83s-3-11.65-9.3-14.83c-6.58-3.27-16.8-4.86-31.33-4.86h-8.75c-23.75 0-40.55 6.16-51.36 18.89-10.78 12.6-16.06 32.17-16.14 59.81zm76.24-81.27c10.77 0 19.35.88 26 2.76v-45.06c0-21.15-5.91-30.16-19.69-30.16-13.78 0-19.69 9-19.69 30.16v42.39c1.51 0 3.06-.08 4.65-.08h8.75z" fill="#fff"/><path d="M1661.83 396.45c-6.58 1.8-15 2.64-25.59 2.64h-12.69c1.93 13.15 7.92 18.93 19 18.93 11.74-.02 17.73-6.57 19.28-21.57zm38.08-5.45v-73.43c0-18.93-5.28-27-17.59-27-12.31 0-17.59 8.08-17.59 27v40.63c10 3.48 14.66 9.63 14.66 18.68 0 9.05-4.61 15.16-14.54 18.64.8 15.71 6.16 22.54 17.47 22.54 12.31-.06 17.59-8.12 17.59-27.06zm-119-23.12c9.76-7.79 22.75-12.11 39.38-13v-34.16c0-21.15-5.91-30.16-19.69-30.16-13.78 0-19.69 9-19.69 30.16v47.17zm608.27 52.18c0 36.92 7.7 63.11 23.42 79.9 15.72 16.79 40.13 25 74.62 25 30.25 0 51.68-8.77 65.49-26.79 13.34-17.39 20.09-44 20.6-81.29-2.62 6.27-7.38 9.21-14.65 9.21-8.93 0-14.13-4.45-16.12-14.13-2.46 9.69-8.18 14.13-17.62 14.13-13.18 0-19.05-8.61-19.05-28V223.65c0-20-5.6-28.58-18.66-28.58s-18.66 8.53-18.66 28.58v145c6.75 3.41 9.92 8.69 9.92 16 0 7.31-3.22 12.66-10.08 16.12-1.11 17.43-7.7 25.29-20.88 25.29-12.5 0-19.05-7.07-20.64-22.7h10.72c13.77 0 23.46-1.51 29.69-4.6 6-3 8.81-7.46 8.81-14.05 0-6.59-2.78-11-8.81-14.05-6.23-3.1-16-4.6-29.69-4.6h-8.3c-14.09 0-24.05 4.13-30.48 12.74s-9.61 22-9.65 40.85v.44z" fill="#fff"/><path d="M2341.61 398.11v-69.59c0-17.94-5-25.6-16.67-25.6-11.67 0-16.67 7.66-16.67 25.6v69.54c0 17.94 5 25.6 16.67 25.6 11.67 0 16.67-7.66 16.67-25.55zm31.75 2.89v-54c0-19.93-7.42-22.63-14.69-22.63s-14.67 2.76-14.67 22.69v54c0 19.93 7.42 22.63 14.69 22.63s14.67-2.69 14.67-22.69zm-135.75-37.31c12.5 0 22 1.27 28.58 3.93V331.5c0-20-5.6-28.58-18.66-28.58s-18.66 8.53-18.66 28.58v32.15h.44zm28.39 38.19c-6.63 2.62-16 3.85-28.34 3.85h-8.06c1.87 12.46 7.5 17.94 18 17.94 11.4 0 17.12-6.59 18.4-21.79zm-348.35-38.23c12.5 0 21.95 1.27 28.57 3.93v-36.11c0-20-5.6-28.57-18.65-28.57-13.05 0-18.65 8.53-18.65 28.57v32.14h.44zm28.35 38.18c-6.63 2.62-16 3.85-28.33 3.85h-8.06c1.87 12.46 7.5 17.94 18 17.94 11.47-.01 17.14-6.62 18.39-21.79z" fill="#fff"/><path d="M1869.24 420.08c0 36.91 7.7 63.1 23.41 79.88 15.71 16.78 40.12 25 74.61 25 30.24 0 51.67-8.77 65.48-26.79 13.81-18.02 20.64-46.27 20.64-86V279.6c0-19.92-7.42-22.62-14.68-22.62s-14.7 2.7-14.7 22.62v84.05h-2.38v-120.8c0-17.94-5-25.6-16.67-25.6-11.67 0-16.67 7.66-16.67 25.6V349.4h-2.38V223.64c0-20-5.6-28.57-18.65-28.57-13.05 0-18.65 8.53-18.65 28.57v144.93c6.75 3.41 9.92 8.69 9.92 16 0 7.31-3.21 12.66-10.08 16.11-1.11 17.42-7.7 25.28-20.87 25.28-12.5 0-19-7.06-20.64-22.7h10.71c13.77 0 23.45-1.51 29.68-4.6 6-3 8.81-7.46 8.81-14s-2.78-11-8.81-14c-6.23-3.1-16-4.6-29.68-4.6h-8.29c-14.09 0-24 4.13-30.48 12.74s-9.56 21.95-9.64 40.8v.6zM2880 720h1440V0H2880z" fill="#fff"/><path d="M4159.88 363.61h.44v-32.14c0-20-5.6-28.57-18.65-28.57-13.05 0-18.67 8.53-18.67 28.57v36.11c6.63-2.66 16.07-3.93 28.57-3.93zm-18.22 60c10.48 0 16.11-5.48 18-17.94h-8.06c-12.34 0-21.71-1.23-28.33-3.85 1.21 15.18 6.89 21.79 18.39 21.79z"/><path d="M4200 419.49c-.08-18.85-3.21-32.18-9.64-40.8-6.43-8.62-16.36-12.69-30.48-12.69h-8.29c-13.73 0-23.45 1.51-29.68 4.6-6 3-8.81 7.46-8.81 14s2.82 11 8.81 14c6.23 3.1 15.91 4.6 29.68 4.6h10.71c-1.59 15.64-8.14 22.7-20.64 22.7-13.18 0-19.76-7.86-20.87-25.28-6.87-3.45-10.08-8.73-10.08-16.11 0-7.38 3.17-12.58 9.92-16V223.64c0-20-5.6-28.57-18.65-28.57-13.05 0-18.65 8.53-18.65 28.57V349.4h-2.38V242.85c0-17.94-5-25.6-16.67-25.6-11.67 0-16.67 7.66-16.67 25.6v120.8h-2.38V279.6c0-19.92-7.42-22.62-14.68-22.62s-14.68 2.7-14.68 22.62v132.55c0 39.72 6.75 67.86 20.64 86s35.24 26.79 65.48 26.79c34.49 0 58.89-8.17 74.61-25 15.72-16.83 23.4-42.94 23.4-79.86v-.6zm-690.88-179.41c0-20.45-5.71-29.16-19-29.16s-19 8.71-19 29.16v120.45c16.08.89 28.63 5.06 38.07 12.6v-133z"/><path d="M3513.78 381c-10.45-12.31-26.69-18.27-49.65-18.27h-8.46c-14.05 0-23.94 1.54-30.29 4.7-6.12 3.08-9 7.61-9 14.34 0 6.73 2.84 11.26 9 14.34 6.36 3.16 16.28 4.7 30.29 4.7h15c-1.62 16-8.3 23.17-21.06 23.17-10.89 0-17.33-5.27-20-16.65-2.19 11.42-8.1 16.65-18.47 16.65-13.45 0-19.44-8.79-19.44-28.55V274.55c0-20.33-7.57-23.09-15-23.09s-15 2.75-15 23.09V410c0 40.5 6.93 69.14 21.06 87.6 14.13 18.46 36 27.34 66.83 27.34 28.11 0 48-6.64 60.75-20.29 12.75-13.65 19-34.91 19-65v-.81c-.09-26.71-5.19-45.62-15.56-57.84z"/><path d="M3455.66 360.29h8.46c1.54 0 3 0 4.5.08v-41c0-20.45-5.71-29.16-19-29.16s-19 8.71-19 29.16V363c6.4-1.82 14.7-2.67 25.11-2.67zm-6.08 61.28c10.69 0 16.48-5.59 18.35-18.31h-12.27c-10.21 0-18.39-.81-24.75-2.55 1.5 14.5 7.29 20.86 18.67 20.86zm-55.48-26.12c0 18.31 5.1 26.12 17 26.16 10.94 0 16.08-6.6 16.89-21.79-9.56-3.36-14.05-9.27-14.05-18s4.5-14.7 14.18-18.06v-39.31c0-18.31-5.1-26.12-17-26.12s-17 7.82-17 26.12v71zm-346.69 30.31c11.42 0 16.32-7.5 16.32-25.07v-68.12c0-17.56-4.9-25.07-16.32-25.07s-16.32 7.5-16.32 25.07v68.12c0 17.57 4.91 25.07 16.32 25.07zm36.92 0c12.79 0 18.26-8.36 18.26-28v-70.05c0-19.62-5.48-28-18.26-28-12.78 0-18.26 8.36-18.26 28v70.07c-.01 19.58 5.43 27.98 18.26 27.98zm38.86 0c12.79 0 18.26-8.36 18.26-28v-62.28c0-19.62-5.48-28-18.26-28-12.78 0-18.26 8.36-18.26 28v62.29c-.01 19.59 5.43 27.99 18.26 27.99z"/><path d="M3241 400.38c-4.55-4.55-9.56-5.67-15.82-3.61-6.45 2.14-14.22 7.81-23.74 17.33l-14.53 14.53c-8.08 8.08-19.59 10.76-29.26 6.76-4.24-1.75-13.37-7.19-15.66-21.68-2.8 9.83-8.86 14.38-18.81 14.38-10.76 0-17-5.32-19.43-17-2.41 11.66-8.67 17-19.43 17-10.45 0-16.63-5-19.2-16-2.1 11-7.77 16-17.72 16-12.9 0-18.65-8.43-18.65-27.4v-116c0-19.51-7.23-22.15-14.34-22.15-7.11 0-14.41 2.64-14.41 22.15v129.76c0 38.94 6.61 66.49 20.21 84.25 13.6 17.76 34.51 26.23 64.12 26.23 26.43 0 47.22-4.66 65.44-14.69 16.44-9.05 29.07-21.68 41.27-33.89l36.22-36.41c9.52-9.52 15.19-17.29 17.33-23.74 2.1-6.26.93-11.27-3.61-15.82zm481.22-17.16c4.84-8 17.26-11.67 38.49-11.63h8.29c30.12 0 51.71 5.2 65.92 15.91V245.83c0-20-5.6-28.57-18.65-28.57-13.05 0-18.65 8.53-18.65 28.57V349.4h-2.38V223.64c0-20-5.6-28.57-18.65-28.57-13.05 0-18.65 8.53-18.65 28.57v125.8h-2.38V242.85c0-17.94-5-25.6-16.67-25.6-11.67 0-16.67 7.66-16.67 25.6z"/><path d="M3834.45 390.12c-13.77-10.87-35.2-16.12-65.45-16.12h-8.29c-13.77 0-23.45 1.51-29.68 4.6-6 3-8.81 7.46-8.81 14s2.78 11 8.81 14c6.23 3.1 16 4.6 29.68 4.6h8.29v2.38h-8.29c-21.27 0-33.65-3.65-38.49-11.67-.2 16.63-5.48 24.09-17.06 24.09-7.26 0-12-2.94-14.64-9.21.52 37.26 7.26 63.89 20.6 81.27 13.81 18 35.24 26.79 65.48 26.79 27.54 0 47-6.51 59.53-19.88 12.53-13.37 18.65-34.21 18.65-63.65V441c-.09-23.54-6.72-40.16-20.33-50.88z"/><path d="M3705.15 423.61c7.26 0 14.68-2.7 14.68-22.62V347c0-19.92-7.42-22.62-14.68-22.62s-14.68 2.7-14.68 22.62v54c0 20 7.42 22.61 14.68 22.61zM4320 720h1440V0H4320z"/><path d="M5009.9 401v-54c0-19.93-7.42-22.63-14.69-22.63s-14.69 2.7-14.69 22.63v54c0 19.93 7.42 22.63 14.69 22.63S5009.9 421 5009.9 401z" fill="#fff"/><path d="M4825.72 419.62v.44c0 37 7.7 63.11 23.42 79.9 15.72 16.79 40.13 25 74.62 25 30.25 0 51.68-8.77 65.49-26.79 13.34-17.39 20.09-44 20.6-81.29-2.62 6.27-7.38 9.21-14.65 9.21-11.79 0-17.07-7.7-17.07-25V242.86c0-17.94-5-25.6-16.67-25.6-11.67 0-16.67 7.66-16.67 25.6v106.62h-2.38V223.65c0-20-5.6-28.58-18.66-28.58s-18.66 8.53-18.66 28.58v125.83h-2.38V245.84c0-20-5.6-28.58-18.66-28.58s-18.66 8.53-18.66 28.58v117.81h8.73c28.26 0 40.88 6.47 40.88 21 0 14.53-12.62 21-40.88 21h-8.3v-2.38h8.3c13.73 0 23.46-1.51 29.69-4.6 6-3 8.81-7.46 8.81-14.05 0-6.59-2.82-11-8.81-14.05-6.23-3.1-15.92-4.6-29.69-4.6h-8.3c-14.09 0-24.05 4.09-30.48 12.74s-9.58 22.02-9.62 40.91zm630.1 0v.44c0 37 7.7 63.11 23.42 79.9 15.72 16.79 40.13 25 74.62 25 30.25 0 51.68-8.77 65.49-26.79 13.81-18.02 20.64-46.24 20.64-86V279.62c0-19.93-7.42-22.63-14.69-22.63s-14.69 2.7-14.69 22.63v84.07h-2.38V242.86c0-17.94-5-25.6-16.67-25.6-11.67 0-16.67 7.66-16.67 25.6v106.62h-2.38V223.65c0-20-5.6-28.58-18.66-28.58s-18.66 8.53-18.66 28.58v125.79h-2.38v-103.6c0-20-5.6-28.58-18.66-28.58s-18.66 8.53-18.66 28.58v117.81h8.73c28.26 0 40.88 6.47 40.88 21 0 14.53-12.62 21-40.88 21H5496v-2.38h8.3c13.73 0 23.46-1.51 29.69-4.6 6-3 8.81-7.46 8.81-14.05 0-6.59-2.82-11-8.81-14.05-6.23-3.1-15.92-4.6-29.69-4.6h-8.3c-14.09 0-24.05 4.09-30.48 12.74s-9.66 22.02-9.7 40.91zM5222.22 352c10.93 0 19.66.89 26.38 2.81V309c0-21.49-6-30.63-20-30.63s-20 9.15-20 30.63v43.06c1.53 0 3.11-.09 4.72-.09h8.89zm26 42.42c-6.68 1.83-15.27 2.68-26 2.68h-12.89c2 13.36 8 19.23 19.27 19.23 11.96.02 18.04-6.66 19.62-21.89z" fill="#fff"/><path d="M5144.79 434.52v.85c0 31.57 6.55 53.91 20 68.24 13.45 14.33 34.29 21.32 63.82 21.32 32.42 0 55.39-9.4 70.2-28.72 14.81-19.32 22.08-49.48 22.12-92v-142.3c0-21.36-8-24.25-15.74-24.25s-15.74 2.89-15.74 24.25V352h-2.55V222.51c0-19.23-5.36-27.44-17.87-27.44-12.51 0-17.87 8.21-17.87 27.44V355.6c10.17 3.53 14.89 9.74 14.89 19s-4.85 15.57-15.23 19.06c-1.53 17.4-8.55 25.27-22.21 25.27-13.4 0-20.42-7.57-22.12-24.34h15.74c14.72 0 25.14-1.62 31.82-4.94 6.47-3.23 9.45-8 9.45-15.06 0-7.06-3-11.83-9.45-15.06-6.68-3.32-17.06-4.94-31.82-4.94h-8.93c-2.51 0-4.94.09-7.28.21-.81 0-1.66.09-2.47.17h-.13c-.81 0-1.57.13-2.38.21-2.38.26-4.68.55-6.93 1h-.3c-.6.13-1.23.21-1.83.34l-.43.09-1.7.38-.34.09-2 .51c-11.1 3.06-19.83 8.38-26.38 16.08-10.85 12.89-16.21 32.76-16.29 60.84z" fill="#fff"/><path d="M5166.06 365.42c9.91-7.91 23.1-12.3 40-13.23v-34.67c0-21.49-6-30.63-20-30.63s-20 9.15-20 30.63v47.91zM4690.82 401v-54c0-19.92-7.42-22.62-14.68-22.62s-14.68 2.7-14.68 22.62v54c0 19.92 7.42 22.62 14.68 22.62s14.68-2.62 14.68-22.62zm-31.75-3v-69.51c0-17.94-5-25.6-16.67-25.6-11.67 0-16.67 7.66-16.67 25.6v69.57c0 17.94 5 25.6 16.67 25.6 11.67 0 16.68-7.66 16.68-25.66z" fill="#fff"/><path d="M4441 413.89c2.22 6.59 8 14.52 17.74 24.25l37 37.18c12.46 12.46 25.4 25.36 42.14 34.6 18.61 10.24 39.84 15 66.83 15 30.24 0 51.67-8.77 65.48-26.79 13.33-17.38 20.08-44 20.6-81.27-2.62 6.27-7.38 9.21-14.64 9.21-8.93 0-14.13-4.44-16.11-14.13-2.46 9.68-8.14 14.13-17.62 14.13-13.18 0-19-8.61-19-28V223.64c0-20-5.6-28.57-18.65-28.57-13.05 0-18.65 8.53-18.65 28.57v125.8h-2.38V245.83c0-20-5.6-28.57-18.65-28.57-13.05 0-18.65 8.53-18.65 28.57v158.34c0 20.28-11.55 27.26-16.55 29.33-9.88 4.09-21.59 1.39-29.88-6.91l-14.91-14.84c-9.72-9.72-17.66-15.52-24.25-17.7-6.39-2.14-11.51-1-16.15 3.69-4.64 4.69-5.79 9.76-3.69 16.15z" fill="#fff"/></svg>