<svg viewBox="0 0 5760 720" xmlns="http://www.w3.org/2000/svg"><path d="M0 0h1440v720H0Z" fill="#eae3d8"/><path d="M857.58 423.61c10.71 0 15.79-6.43 16.55-21.35-9.41-3.29-13.77-9.05-13.77-17.66s4.4-14.41 13.89-17.7v-38.49c0-17.94-5-25.6-16.67-25.6-11.67 0-16.67 7.66-16.67 25.6v69.57c0 18.01 5 25.63 16.67 25.63Z"/><path d="M973.46 440.72c-.08-26.23-5.08-44.84-15.28-56.83-10.2-11.98-26.15-17.9-48.65-17.9h-8.29c-13.73 0-23.45 1.51-29.68 4.6-6.03 3.02-8.81 7.46-8.81 14.05 0 6.59 2.82 11.03 8.81 14.05 1.59.79 3.21 1.43 4.92 1.9 6.03 1.83 14.21 2.7 24.76 2.7h8.29v2.38h-8.29c-10.28 0-18.49-.87-24.76-2.66-.99 15.83-6.91 22.98-18.89 22.98-13.18 0-19.05-8.61-19.05-27.98V279.6c0-19.92-7.42-22.62-14.68-22.62s-14.68 2.7-14.68 22.62v132.7c.04 39.64 6.79 67.74 20.64 85.84 13.81 18.02 35.24 26.79 65.48 26.79 27.54 0 46.99-6.51 59.53-19.88s18.65-34.21 18.65-63.65v-.68Z"/><path d="M909.53 363.61c19.05 0 33.57 4.13 44.09 12.54V245.83c0-20.04-5.6-28.57-18.65-28.57-13.06 0-18.65 8.53-18.65 28.57v103.62h-2.38v-125.8c0-20.04-5.6-28.57-18.65-28.57-13.06 0-18.65 8.53-18.65 28.57v142.59c6.27-1.75 14.41-2.62 24.6-2.62h8.29v-.01ZM638.81 440.75c-.08-26.23-5.08-44.85-15.28-56.83-10.2-11.99-26.16-17.9-48.66-17.9h-8.3c-13.73 0-23.46 1.51-29.69 4.6-6.03 3.02-8.81 7.46-8.81 14.05 0 6.59 2.82 11.03 8.81 14.05 6.23 3.1 15.92 4.6 29.69 4.6h8.3v2.38h-8.3c-10.28 0-18.46-.87-24.77-2.66-.95 15.88-6.91 23.02-18.89 23.02-9.45 0-15.16-4.45-17.62-14.13-1.98 9.68-7.18 14.13-16.11 14.13-7.26 0-12.03-2.94-14.65-9.21.52 37.27 7.26 63.9 20.6 81.28 13.81 18.02 35.24 26.79 65.49 26.79 27.54 0 46.99-6.51 59.53-19.88 12.54-13.38 18.65-34.21 18.65-63.66v-.63Z"/><path d="M489.18 423.64c7.26 0 14.68-2.7 14.68-22.62v-53.98c0-19.92-7.42-22.62-14.68-22.62s-14.68 2.7-14.68 22.62v53.98c-.01 19.96 7.42 22.62 14.68 22.62Zm33.73 0c10.72 0 15.8-6.43 16.55-21.35-9.41-3.29-13.77-9.05-13.77-17.66s4.41-14.41 13.89-17.7v-38.5c0-17.94-5-25.6-16.67-25.6-11.67 0-16.67 7.66-16.67 25.6V398c0 18.02 5.01 25.64 16.67 25.64Zm51.96-60.01c19.05 0 33.58 4.13 44.09 12.54V245.83c0-20.04-5.6-28.58-18.65-28.58-13.05 0-18.65 8.53-18.65 28.58v103.63h-2.38V223.65c0-20.04-5.6-28.58-18.65-28.58-13.06 0-18.65 8.53-18.65 28.58v142.6c6.27-1.75 14.41-2.62 24.61-2.62h8.28ZM304.14 412.11v-44.05c0-13.73-1.51-23.45-4.6-29.68-3.02-6.03-7.46-8.81-14.05-8.81-6.59 0-11.03 2.82-14.05 8.81-3.1 6.23-4.6 15.91-4.6 29.68v44.01h-2.38V245.79c0-20.04-5.6-28.57-18.65-28.57-13.06 0-18.65 8.53-18.65 28.57v103.66h-2.38v-125.8c0-20.04-5.6-28.57-18.65-28.57-13.05 0-18.65 8.53-18.65 28.57v125.8h-2.38v-106.6c0-17.94-5-25.6-16.67-25.6-11.67 0-16.67 7.66-16.67 25.6v120.8h-2.38V279.6c0-19.92-7.42-22.62-14.68-22.62s-14.7 2.7-14.7 22.62v132.51c0 39.76 6.75 67.9 20.64 86.04 13.81 18.02 35.24 26.79 65.48 26.79 34.49 0 58.89-8.77 74.61-26.87 15.71-18.1 23.41-46.24 23.41-85.96ZM1251.44 352.06c1.62 0 3.19.04 4.72.09v-43.11c0-21.49-6-30.64-20-30.64s-20 9.15-20 30.64v45.79c6.72-1.87 15.45-2.81 26.39-2.81h8.89v.04Zm-15.28 64.35c11.23 0 17.28-5.87 19.28-19.24h-12.89c-10.72 0-19.32-.85-26-2.68 1.57 15.24 7.66 21.92 19.61 21.92Zm-40.43 0c11.49 0 16.94-6.89 17.75-22.9-10.09-3.53-14.77-9.7-14.77-18.94 0-9.23 4.72-15.45 14.89-18.98v-41.28c0-19.24-5.36-27.45-17.87-27.45-12.51 0-17.87 8.21-17.87 27.45v74.6c0 19.29 5.36 27.5 17.87 27.5Zm-36.17 0c7.79 0 15.75-2.89 15.75-24.26v-57.88c0-21.36-7.96-24.26-15.75-24.26s-15.75 2.89-15.75 24.26v57.88c.01 21.36 7.96 24.26 15.75 24.26Zm139.16-79.58V225.71c0-21.49-6-30.64-20-30.64s-20 9.15-20 30.64v126.52c16.89.94 30.09 5.32 40 13.24v-28.64Z"/><path d="M1320 434.58c-.09-28.09-5.45-47.96-16.38-60.81-10.98-12.89-28.04-19.19-52.17-19.19h-8.89c-14.72 0-25.15 1.62-31.83 4.94-6.47 3.23-9.45 8-9.45 15.07s3.02 11.83 9.45 15.07c6.68 3.32 17.07 4.94 31.83 4.94h15.75c-1.7 16.77-8.72 24.34-22.13 24.34-11.45 0-18.21-5.49-21.02-17.49-2.3 12-8.51 17.49-19.41 17.49-10.13 0-16.26-4.77-18.9-15.15-2.13 10.38-7.7 15.15-17.28 15.15-7.79 0-12.89-3.15-15.7-9.87.55 39.96 7.79 68.52 22.09 87.16 14.81 19.32 37.79 28.73 70.22 28.73 29.53 0 50.39-6.98 63.83-21.32 13.45-14.34 20-36.68 20-68.26v-.8ZM1440 0h1440v720H1440Z"/><path d="M2510.19 413.89c2.22 6.59 8.02 14.52 17.74 24.25l36.99 37.18c12.46 12.46 25.4 25.36 42.14 34.6 18.61 10.24 39.84 15 66.83 15 30.24 0 51.67-8.77 65.48-26.79 13.89-18.14 20.64-46.27 20.64-86.04V279.6c0-19.92-7.42-22.62-14.68-22.62s-14.68 2.7-14.68 22.62v84.05h-2.38v-120.8c0-17.94-5-25.6-16.67-25.6-11.67 0-16.67 7.66-16.67 25.6v106.59h-2.38v-125.8c0-20.04-5.6-28.57-18.65-28.57-13.05 0-18.65 8.53-18.65 28.57V349.4h-2.38V245.83c0-20.04-5.6-28.57-18.65-28.57-13.06 0-18.65 8.53-18.65 28.57v158.34c0 20.28-11.55 27.26-16.55 29.33-9.88 4.09-21.59 1.39-29.88-6.91l-14.84-14.84c-9.72-9.72-17.66-15.52-24.25-17.7-6.39-2.14-11.51-.95-16.15 3.69-4.67 4.6-5.82 9.76-3.71 16.15ZM1733.42 394.15v-56.97c0-21.03-7.83-23.88-15.5-23.88s-15.5 2.85-15.5 23.88v56.97c0 21.03 7.83 23.88 15.5 23.88s15.5-2.85 15.5-23.88Z" fill="#e6e6e6"/><path d="M1560 435.91v.84c0 31.08 6.45 53.07 19.69 67.19 13.24 14.12 33.76 20.99 62.83 20.99 31.92 0 54.54-9.26 69.12-28.28 14.07-18.35 21.2-46.46 21.74-85.79-2.76 6.62-7.79 9.72-15.46 9.72-9.43 0-14.91-4.69-17.01-14.91-2.6 10.22-8.59 14.91-18.6 14.91-10.72 0-16.84-5.4-19.1-17.22-2.76 11.77-9.43 17.22-20.69 17.22-13.2 0-20.11-7.46-21.78-23.96h15.5c14.49 0 24.76-1.59 31.33-4.86 6.37-3.18 9.3-7.88 9.3-14.83s-2.97-11.65-9.3-14.83c-6.58-3.27-16.8-4.86-31.33-4.86h-8.75c-23.75 0-40.55 6.16-51.36 18.89-10.77 12.57-16.05 32.14-16.13 59.78Zm76.24-81.26c10.77 0 19.35.88 25.97 2.76v-45.07c0-21.15-5.91-30.16-19.69-30.16-13.78 0-19.69 9.01-19.69 30.16v42.39c1.51-.04 3.06-.08 4.65-.08h8.76Z" fill="#e6e6e6"/><path d="M1661.83 396.45c-6.58 1.8-15.04 2.64-25.59 2.64h-12.69c1.93 13.15 7.92 18.93 18.98 18.93 11.76.01 17.75-6.57 19.3-21.57Zm38.08-5.44v-73.43c0-18.93-5.28-27.02-17.59-27.02-12.31 0-17.59 8.08-17.59 27.02v40.63c10.01 3.48 14.66 9.63 14.66 18.68 0 9.05-4.61 15.16-14.54 18.64.8 15.71 6.16 22.54 17.47 22.54 12.31-.04 17.59-8.13 17.59-27.06Zm-118.97-23.13c9.76-7.79 22.75-12.11 39.38-13.03v-34.14c0-21.15-5.91-30.16-19.69-30.16-13.78 0-19.69 9.01-19.69 30.16v47.17ZM2189.18 420.06c0 36.92 7.7 63.11 23.42 79.9 15.72 16.79 40.13 24.97 74.62 24.97 30.25 0 51.68-8.77 65.49-26.79 13.34-17.39 20.09-44.02 20.6-81.29-2.62 6.27-7.38 9.21-14.65 9.21-8.93 0-14.13-4.45-16.12-14.13-2.46 9.69-8.18 14.13-17.62 14.13-13.18 0-19.05-8.61-19.05-27.98V223.65c0-20.05-5.6-28.58-18.66-28.58s-18.66 8.53-18.66 28.58v145c6.75 3.41 9.92 8.69 9.92 16 0 7.38-3.22 12.66-10.08 16.12-1.11 17.43-7.7 25.29-20.88 25.29-12.5 0-19.05-7.07-20.64-22.7h10.72c13.77 0 23.46-1.51 29.69-4.6 5.99-3.02 8.81-7.46 8.81-14.05 0-6.59-2.78-11.03-8.81-14.05-6.23-3.1-15.96-4.6-29.69-4.6h-8.3c-14.09 0-24.05 4.13-30.48 12.74s-9.61 21.95-9.65 40.85v.41Z" fill="#e6e6e6"/><path d="M2341.61 398.11v-69.58c0-17.94-5-25.6-16.67-25.6-11.67 0-16.67 7.66-16.67 25.6v69.54c0 17.94 5 25.6 16.67 25.6 11.67 0 16.67-7.62 16.67-25.56Zm31.75 2.93v-53.98c0-19.93-7.42-22.63-14.69-22.63s-14.69 2.7-14.69 22.63v53.98c0 19.93 7.42 22.63 14.69 22.63s14.69-2.66 14.69-22.63Zm-135.75-37.35c12.5 0 21.95 1.27 28.58 3.93V331.5c0-20.05-5.6-28.58-18.66-28.58s-18.66 8.53-18.66 28.58v32.15h.44l8.3.04Zm28.34 38.19c-6.63 2.62-16 3.85-28.34 3.85h-8.06c1.87 12.46 7.5 17.94 17.98 17.94 11.51 0 17.19-6.59 18.42-21.79ZM1917.65 363.65c12.5 0 21.95 1.27 28.57 3.93v-36.11c0-20.04-5.6-28.57-18.65-28.57-13.05 0-18.65 8.53-18.65 28.57v32.14h.44l8.29.04Zm28.33 38.18c-6.63 2.62-15.99 3.85-28.33 3.85h-8.06c1.87 12.46 7.5 17.94 17.98 17.94 11.51-.01 17.18-6.59 18.41-21.79Z" fill="#e6e6e6"/><path d="M1869.24 420.08c0 36.91 7.7 63.1 23.41 79.88 15.72 16.79 40.12 24.96 74.61 24.96 30.24 0 51.67-8.77 65.48-26.79 13.89-18.14 20.64-46.27 20.64-86V279.6c0-19.92-7.42-22.62-14.68-22.62s-14.68 2.7-14.68 22.62v84.05h-2.38v-120.8c0-17.94-5-25.6-16.67-25.6-11.67 0-16.67 7.66-16.67 25.6V349.4h-2.38V223.64c0-20.04-5.6-28.57-18.65-28.57-13.05 0-18.65 8.53-18.65 28.57v144.93c6.75 3.41 9.92 8.69 9.92 15.99 0 7.38-3.21 12.66-10.08 16.11-1.11 17.42-7.7 25.28-20.87 25.28-12.5 0-19.05-7.06-20.64-22.7h10.71c13.77 0 23.45-1.51 29.68-4.6 5.99-3.02 8.81-7.46 8.81-14.05 0-6.59-2.78-11.03-8.81-14.05-6.23-3.1-15.95-4.6-29.68-4.6h-8.29c-14.09 0-24.05 4.13-30.48 12.74s-9.56 21.95-9.64 40.8v.59Z" fill="#e6e6e6"/><path d="M2880 0h1440v720H2880Z" fill="#eae3d8"/><path d="M4159.88 363.61h.44v-32.14c0-20.04-5.6-28.57-18.65-28.57-13.05 0-18.65 8.53-18.65 28.57v36.11c6.63-2.66 16.07-3.93 28.57-3.93l8.29-.04Zm-18.22 60c10.48 0 16.11-5.48 17.98-17.94h-8.06c-12.34 0-21.71-1.23-28.33-3.85 1.23 15.21 6.91 21.79 18.41 21.79Z"/><path d="M4200 419.49c-.08-18.85-3.21-32.18-9.64-40.8-6.43-8.61-16.39-12.74-30.48-12.74h-8.29c-13.73 0-23.45 1.51-29.68 4.6-6.03 3.02-8.81 7.46-8.81 14.05 0 6.59 2.82 11.03 8.81 14.05 6.23 3.1 15.91 4.6 29.68 4.6h10.71c-1.59 15.64-8.14 22.7-20.64 22.7-13.18 0-19.76-7.86-20.87-25.28-6.87-3.45-10.08-8.73-10.08-16.11 0-7.3 3.17-12.58 9.92-15.99V223.64c0-20.04-5.6-28.57-18.65-28.57-13.05 0-18.65 8.53-18.65 28.57V349.4h-2.38V242.85c0-17.94-5-25.6-16.67-25.6-11.67 0-16.67 7.66-16.67 25.6v120.8h-2.38V279.6c0-19.92-7.42-22.62-14.68-22.62s-14.68 2.7-14.68 22.62v132.55c0 39.72 6.75 67.86 20.64 86 13.81 18.02 35.24 26.79 65.48 26.79 34.49 0 58.89-8.17 74.61-24.96 15.72-16.79 23.41-42.98 23.41-79.88v-.61ZM3509.12 240.08c0-20.45-5.71-29.16-19.04-29.16-13.32 0-19.04 8.71-19.04 29.16v120.45c16.08.89 28.63 5.06 38.07 12.6V240.08Z"/><path d="M3513.78 381.03c-10.45-12.31-26.69-18.27-49.65-18.27h-8.46c-14.05 0-23.94 1.54-30.29 4.7-6.12 3.08-8.99 7.61-8.99 14.34 0 6.73 2.84 11.26 8.99 14.34 6.36 3.16 16.28 4.7 30.29 4.7h14.99c-1.62 15.96-8.3 23.17-21.06 23.17-10.89 0-17.33-5.27-20.01-16.65-2.19 11.42-8.1 16.65-18.47 16.65-13.45 0-19.44-8.79-19.44-28.55v-120.9c0-20.33-7.57-23.09-14.99-23.09-7.41 0-14.99 2.75-14.99 23.09V410c.04 40.5 6.93 69.14 21.06 87.6 14.09 18.39 35.97 27.34 66.83 27.34 28.11 0 47.95-6.64 60.75-20.29 12.8-13.65 19.04-34.91 19.04-64.96v-.81c-.13-26.75-5.23-45.66-15.6-57.85Z"/><path d="M3455.66 360.29h8.46c1.54 0 3.04.04 4.5.08v-40.99c0-20.45-5.71-29.16-19.04-29.16-13.33 0-19.04 8.71-19.04 29.16V363c6.4-1.82 14.7-2.67 25.11-2.67v-.04Zm-6.08 61.28c10.69 0 16.48-5.59 18.35-18.31h-12.27c-10.21 0-18.39-.81-24.75-2.55 1.5 14.5 7.29 20.86 18.67 20.86Zm-55.48-26.12c0 18.31 5.1 26.12 17.01 26.16 10.94 0 16.08-6.6 16.89-21.79-9.56-3.36-14.05-9.27-14.05-18.02s4.5-14.7 14.18-18.06v-39.29c0-18.31-5.1-26.12-17.01-26.12-11.91 0-17.01 7.82-17.01 26.12v71h-.01ZM3047.41 425.76c11.42 0 16.32-7.5 16.32-25.07v-68.12c0-17.56-4.9-25.07-16.32-25.07s-16.32 7.5-16.32 25.07v68.12c0 17.57 4.89 25.07 16.32 25.07Zm36.92 0c12.79 0 18.26-8.36 18.26-27.98v-70.07c0-19.62-5.48-27.98-18.26-27.98-12.78 0-18.26 8.36-18.26 27.98v70.07c-.01 19.58 5.43 27.98 18.26 27.98Zm38.86 0c12.79 0 18.26-8.36 18.26-27.98v-62.29c0-19.62-5.48-27.98-18.26-27.98-12.78 0-18.26 8.36-18.26 27.98v62.29c-.01 19.58 5.43 27.98 18.26 27.98Z"/><path d="M3240.97 400.38c-4.55-4.55-9.56-5.67-15.82-3.61-6.45 2.14-14.22 7.81-23.74 17.33l-14.53 14.53c-8.08 8.08-19.59 10.76-29.26 6.76-4.24-1.75-13.37-7.19-15.66-21.68-2.8 9.83-8.86 14.38-18.81 14.38-10.76 0-17.02-5.32-19.43-16.98-2.41 11.66-8.67 16.98-19.43 16.98-10.45 0-16.63-5.01-19.2-15.97-2.1 10.96-7.77 15.97-17.72 15.97-12.9 0-18.65-8.43-18.65-27.4v-116c.04-19.51-7.23-22.15-14.34-22.15-7.11 0-14.38 2.64-14.38 22.15v129.76c0 38.94 6.61 66.49 20.21 84.25 13.52 17.64 34.51 26.23 64.12 26.23 26.43 0 47.22-4.66 65.44-14.69 16.44-9.05 29.07-21.68 41.27-33.89l36.22-36.41c9.52-9.52 15.19-17.29 17.33-23.74 2.1-6.26.93-11.27-3.62-15.82ZM3722.22 383.22c4.84-8.02 17.26-11.67 38.49-11.63h8.29c30.12 0 51.71 5.2 65.92 15.91V245.83c0-20.04-5.6-28.57-18.65-28.57-13.05 0-18.65 8.53-18.65 28.57V349.4h-2.38V223.64c0-20.04-5.6-28.57-18.65-28.57-13.06 0-18.65 8.53-18.65 28.57v125.8h-2.38V242.85c0-17.94-5-25.6-16.67-25.6-11.67 0-16.67 7.66-16.67 25.6v140.37Z"/><path d="M3834.45 390.12c-13.77-10.87-35.2-16.15-65.44-16.15h-8.29c-13.77 0-23.45 1.51-29.68 4.6-5.99 3.02-8.81 7.46-8.81 14.05 0 6.59 2.78 11.03 8.81 14.05 6.23 3.1 15.95 4.6 29.68 4.6h8.29v2.38h-8.29c-21.27 0-33.65-3.65-38.49-11.67-.2 16.63-5.48 24.09-17.06 24.09-7.26 0-12.02-2.94-14.64-9.21.52 37.26 7.26 63.89 20.6 81.27 13.81 18.02 35.24 26.79 65.48 26.79 27.54 0 46.99-6.51 59.53-19.88s18.65-34.21 18.65-63.65V441c-.1-23.54-6.73-40.16-20.34-50.88Z"/><path d="M3705.15 423.61c7.26 0 14.68-2.7 14.68-22.62v-53.97c0-19.92-7.42-22.62-14.68-22.62s-14.68 2.7-14.68 22.62v53.97c0 19.97 7.42 22.62 14.68 22.62ZM4320 0h1440v720H4320Z"/><path d="M5009.9 401.04v-53.98c0-19.93-7.42-22.63-14.69-22.63s-14.69 2.7-14.69 22.63v53.98c0 19.93 7.42 22.63 14.69 22.63s14.69-2.66 14.69-22.63Z" fill="#e6e6e6"/><path d="M4825.72 419.62v.44c0 36.96 7.7 63.11 23.42 79.9 15.72 16.79 40.13 24.97 74.62 24.97 30.25 0 51.68-8.77 65.49-26.79 13.34-17.39 20.09-44.02 20.6-81.29-2.62 6.27-7.38 9.21-14.65 9.21-11.79 0-17.07-7.7-17.07-25.01V242.86c0-17.94-5-25.6-16.67-25.6-11.67 0-16.67 7.66-16.67 25.6v106.62h-2.38V223.65c0-20.05-5.6-28.58-18.66-28.58s-18.66 8.53-18.66 28.58v125.83h-2.38V245.84c0-20.05-5.6-28.58-18.66-28.58s-18.66 8.53-18.66 28.58v117.81h8.73c28.26 0 40.88 6.47 40.88 21.04s-12.62 21.04-40.88 21.04h-8.3v-2.38h8.3c13.73 0 23.46-1.51 29.69-4.6 6.03-3.02 8.81-7.46 8.81-14.05 0-6.59-2.82-11.03-8.81-14.05-6.23-3.1-15.92-4.6-29.69-4.6h-8.3c-14.09 0-24.05 4.09-30.48 12.74s-9.58 21.94-9.62 40.83ZM5455.82 419.62v.44c0 36.96 7.7 63.11 23.42 79.9 15.72 16.79 40.13 24.97 74.62 24.97 30.25 0 51.68-8.77 65.49-26.79 13.89-18.14 20.64-46.24 20.64-86.02v-132.5c0-19.93-7.42-22.63-14.69-22.63-7.26 0-14.69 2.7-14.69 22.63v84.07h-2.38V242.86c0-17.94-5-25.6-16.67-25.6-11.67 0-16.67 7.66-16.67 25.6v106.62h-2.38V223.65c0-20.05-5.6-28.58-18.66-28.58s-18.66 8.53-18.66 28.58v125.79h-2.38v-103.6c0-20.05-5.6-28.58-18.66-28.58s-18.66 8.53-18.66 28.58v117.81h8.73c28.26 0 40.88 6.47 40.88 21.04s-12.62 21.04-40.88 21.04h-8.3v-2.38h8.3c13.73 0 23.46-1.51 29.69-4.6 6.03-3.02 8.81-7.46 8.81-14.05 0-6.59-2.82-11.03-8.81-14.05-6.23-3.1-15.92-4.6-29.69-4.6h-8.3c-14.09 0-24.05 4.09-30.48 12.74s-9.58 21.94-9.62 40.83ZM5222.22 352.02c10.93 0 19.66.89 26.38 2.81v-45.82c0-21.49-6-30.63-20-30.63s-20 9.15-20 30.63v43.06c1.53-.04 3.11-.09 4.72-.09h8.89v.04Zm26 42.42c-6.68 1.83-15.27 2.68-26 2.68h-12.89c1.96 13.36 8.04 19.23 19.27 19.23 11.96 0 18.04-6.68 19.62-21.91Z" fill="#e6e6e6"/><path d="M5144.79 434.52v.85c0 31.57 6.55 53.91 20 68.24 13.44 14.34 34.29 21.32 63.82 21.32 32.42 0 55.39-9.4 70.2-28.72 14.85-19.4 22.08-49.48 22.12-92.03V261.91c0-21.36-7.96-24.25-15.74-24.25-7.79 0-15.74 2.89-15.74 24.25v90.11h-2.55V222.51c0-19.23-5.36-27.44-17.87-27.44-12.51 0-17.87 8.21-17.87 27.44V355.6c10.17 3.53 14.89 9.74 14.89 18.98 0 9.32-4.85 15.57-15.23 19.06-1.53 17.4-8.55 25.27-22.21 25.27-13.4 0-20.42-7.57-22.12-24.34h15.74c14.72 0 25.14-1.62 31.82-4.94 6.47-3.23 9.45-8 9.45-15.06 0-7.06-3.02-11.83-9.45-15.06-6.68-3.32-17.06-4.94-31.82-4.94h-8.93c-2.51 0-4.94.09-7.28.21-.81.04-1.66.09-2.47.17h-.13c-.81.04-1.57.13-2.38.21h-.04c-2.38.26-4.68.55-6.93.98l-.3.04c-.6.13-1.23.21-1.83.34l-.43.09c-.55.13-1.15.26-1.7.38l-.34.09c-.68.17-1.32.34-2 .51-11.1 3.06-19.83 8.38-26.38 16.08-10.86 12.9-16.22 32.77-16.3 60.85Z" fill="#e6e6e6"/><path d="M5166.06 365.42c9.91-7.91 23.1-12.3 39.99-13.23v-34.67c0-21.49-6-30.63-20-30.63s-20 9.15-20 30.63v47.9ZM4690.82 400.99v-53.97c0-19.92-7.42-22.62-14.68-22.62s-14.68 2.7-14.68 22.62v53.97c0 19.92 7.42 22.62 14.68 22.62s14.68-2.65 14.68-22.62Zm-31.74-2.97v-69.53c0-17.94-5-25.6-16.67-25.6-11.67 0-16.67 7.66-16.67 25.6v69.57c0 17.94 5 25.6 16.67 25.6 11.67-.05 16.67-7.67 16.67-25.64Z" fill="#e6e6e6"/><path d="M4441.01 413.89c2.22 6.59 8.02 14.52 17.74 24.25l36.99 37.18c12.46 12.46 25.4 25.36 42.14 34.6 18.61 10.24 39.84 15 66.83 15 30.24 0 51.67-8.77 65.48-26.79 13.33-17.38 20.08-44.01 20.6-81.27-2.62 6.27-7.38 9.21-14.64 9.21-8.93 0-14.13-4.44-16.11-14.13-2.46 9.68-8.14 14.13-17.62 14.13-13.18 0-19.05-8.61-19.05-27.98V223.64c0-20.04-5.6-28.57-18.65-28.57-13.05 0-18.65 8.53-18.65 28.57v125.8h-2.38V245.83c0-20.04-5.6-28.57-18.65-28.57-13.06 0-18.65 8.53-18.65 28.57v158.34c0 20.28-11.55 27.26-16.55 29.33-9.88 4.09-21.59 1.39-29.88-6.91l-14.84-14.84c-9.72-9.72-17.66-15.52-24.25-17.7-6.39-2.14-11.51-.95-16.15 3.69-4.66 4.6-5.81 9.76-3.71 16.15Z" fill="#e6e6e6"/></svg>